<?xml version="1.0" encoding="UTF-8" standalone="no"?>
<!DOCTYPE svg PUBLIC "-//W3C//DTD SVG 1.1//EN"
 "http://www.w3.org/Graphics/SVG/1.1/DTD/svg11.dtd">
<!-- Generated by graphviz version 2.43.0 (0)
 -->
<!-- Title: a_graph Pages: 1 -->
<svg width="576pt" height="281pt"
 viewBox="0.00 0.00 575.50 281.00" xmlns="http://www.w3.org/2000/svg" xmlns:xlink="http://www.w3.org/1999/xlink">
<g id="graph0" class="graph" transform="scale(1 1) rotate(0) translate(4 277)">
<title>a_graph</title>
<polygon fill="white" stroke="transparent" points="-4,4 -4,-277 571.5,-277 571.5,4 -4,4"/>
<!-- T26692 -->
<g id="node1" class="node">
<title>T26692</title>
<polygon fill="none" stroke="#0058ad" points="250.5,-243.5 250.5,-272.5 567.5,-272.5 567.5,-243.5 250.5,-243.5"/>
<text text-anchor="middle" x="293.5" y="-254.3" font-family="Times,serif" font-size="14.00" fill="#0058ad">r 1020 nil</text>
<polyline fill="none" stroke="#0058ad" points="336.5,-243.5 336.5,-272.5 "/>
<text text-anchor="middle" x="375" y="-254.3" font-family="Times,serif" font-size="14.00" fill="#0058ad">r 1021 2</text>
<polyline fill="none" stroke="#0058ad" points="413.5,-243.5 413.5,-272.5 "/>
<text text-anchor="middle" x="452" y="-254.3" font-family="Times,serif" font-size="14.00" fill="#0058ad">r 1021 2</text>
<polyline fill="none" stroke="#0058ad" points="490.5,-243.5 490.5,-272.5 "/>
<text text-anchor="middle" x="529" y="-254.3" font-family="Times,serif" font-size="14.00" fill="#0058ad">r 1021 2</text>
</g>
<!-- T26685 -->
<g id="node2" class="node">
<title>T26685</title>
<polygon fill="none" stroke="#0058ad" points="0,-162.5 0,-191.5 338,-191.5 338,-162.5 0,-162.5"/>
<text text-anchor="middle" x="43" y="-173.3" font-family="Times,serif" font-size="14.00" fill="#0058ad">r 1021 nil</text>
<polyline fill="none" stroke="#0058ad" points="86,-162.5 86,-191.5 "/>
<text text-anchor="middle" x="129" y="-173.3" font-family="Times,serif" font-size="14.00" fill="#0058ad">r 1020 nil</text>
<polyline fill="none" stroke="#0058ad" points="172,-162.5 172,-191.5 "/>
<text text-anchor="middle" x="213.5" y="-173.3" font-family="Times,serif" font-size="14.00" fill="#0058ad">w 1016 5</text>
<polyline fill="none" stroke="#0058ad" points="255,-162.5 255,-191.5 "/>
<text text-anchor="middle" x="296.5" y="-173.3" font-family="Times,serif" font-size="14.00" fill="#0058ad">w 1020 1</text>
</g>
<!-- T26692&#45;&gt;T26685 -->
<g id="edge1" class="edge">
<title>T26692:f0&#45;&gt;T26685:f3</title>
<path fill="none" stroke="#5b00c0" d="M293,-243C293,-224.17 295.74,-217.14 296.69,-202.37"/>
<polygon fill="#5b00c0" stroke="#5b00c0" points="300.2,-202.1 297,-192 293.2,-201.89 300.2,-202.1"/>
<text text-anchor="middle" x="305.5" y="-213.8" font-family="Times,serif" font-size="14.00" fill="#5b00c0">rw</text>
</g>
<!-- T26688 -->
<g id="node3" class="node">
<title>T26688</title>
<polygon fill="none" stroke="#0058ad" points="100.5,-0.5 100.5,-29.5 337.5,-29.5 337.5,-0.5 100.5,-0.5"/>
<text text-anchor="middle" x="139" y="-11.3" font-family="Times,serif" font-size="14.00" fill="#0058ad">r 1021 1</text>
<polyline fill="none" stroke="#0058ad" points="177.5,-0.5 177.5,-29.5 "/>
<text text-anchor="middle" x="216" y="-11.3" font-family="Times,serif" font-size="14.00" fill="#0058ad">r 995 15</text>
<polyline fill="none" stroke="#0058ad" points="254.5,-0.5 254.5,-29.5 "/>
<text text-anchor="middle" x="296" y="-11.3" font-family="Times,serif" font-size="14.00" fill="#0058ad">w 1021 2</text>
</g>
<!-- T26685&#45;&gt;T26688 -->
<g id="edge3" class="edge">
<title>T26685:f0&#45;&gt;T26688:f2</title>
<path fill="none" stroke="#5b00c0" d="M43,-162C43,-136.26 249.91,-128.27 269,-111 294.5,-87.93 295.96,-71.31 296,-40.16"/>
<polygon fill="#5b00c0" stroke="#5b00c0" points="299.5,-40 296,-30 292.5,-40 299.5,-40"/>
<text text-anchor="middle" x="300.5" y="-92.3" font-family="Times,serif" font-size="14.00" fill="#5b00c0">rw</text>
</g>
<!-- T26683 -->
<g id="node4" class="node">
<title>T26683</title>
<polygon fill="none" stroke="#0058ad" points="2,-81.5 2,-110.5 260,-110.5 260,-81.5 2,-81.5"/>
<text text-anchor="middle" x="43.5" y="-92.3" font-family="Times,serif" font-size="14.00" fill="#0058ad">w 1021 1</text>
<polyline fill="none" stroke="#0058ad" points="85,-81.5 85,-110.5 "/>
<text text-anchor="middle" x="131" y="-92.3" font-family="Times,serif" font-size="14.00" fill="#0058ad">w 1014 14</text>
<polyline fill="none" stroke="#0058ad" points="177,-81.5 177,-110.5 "/>
<text text-anchor="middle" x="218.5" y="-92.3" font-family="Times,serif" font-size="14.00" fill="#0058ad">w 1016 4</text>
</g>
<!-- T26685&#45;&gt;T26683 -->
<g id="edge2" class="edge">
<title>T26685:f0&#45;&gt;T26683:f0</title>
<path fill="none" stroke="#5b00c0" d="M43,-162C43,-143.23 43,-136.12 43,-121.35"/>
<polygon fill="#5b00c0" stroke="#5b00c0" points="46.5,-121 43,-111 39.5,-121 46.5,-121"/>
<text text-anchor="middle" x="52.5" y="-132.8" font-family="Times,serif" font-size="14.00" fill="#5b00c0">rw</text>
</g>
<!-- T26688&#45;&gt;T26692 -->
<g id="edge4" class="edge">
<title>T26688:f2&#45;&gt;T26692:f1</title>
<path fill="none" stroke="#c000a5" d="M339,-15C438.18,-15 379.24,-132.22 375.21,-232.71"/>
<polygon fill="#c000a5" stroke="#c000a5" points="371.71,-232.93 375,-243 378.7,-233.07 371.71,-232.93"/>
<text text-anchor="middle" x="398.5" y="-132.8" font-family="Times,serif" font-size="14.00" fill="#c000a5">wr</text>
</g>
<!-- T26683&#45;&gt;T26688 -->
<g id="edge5" class="edge">
<title>T26683:f0&#45;&gt;T26688:f0</title>
<path fill="none" stroke="#c000a5" d="M43,-81C43,-46.14 57.4,-20.26 88.73,-15.71"/>
<polygon fill="#c000a5" stroke="#c000a5" points="89.27,-19.18 99,-15 88.78,-12.2 89.27,-19.18"/>
<text text-anchor="middle" x="57.5" y="-51.8" font-family="Times,serif" font-size="14.00" fill="#c000a5">wr</text>
</g>
</g>
</svg>
