<?xml version="1.0" encoding="UTF-8" standalone="no"?>
<!DOCTYPE svg PUBLIC "-//W3C//DTD SVG 1.1//EN"
 "http://www.w3.org/Graphics/SVG/1.1/DTD/svg11.dtd">
<!-- Generated by graphviz version 2.43.0 (0)
 -->
<!-- Title: a_graph Pages: 1 -->
<svg width="310pt" height="119pt"
 viewBox="0.00 0.00 310.00 119.00" xmlns="http://www.w3.org/2000/svg" xmlns:xlink="http://www.w3.org/1999/xlink">
<g id="graph0" class="graph" transform="scale(1 1) rotate(0) translate(4 115)">
<title>a_graph</title>
<polygon fill="white" stroke="transparent" points="-4,4 -4,-115 306,-115 306,4 -4,4"/>
<!-- T20372 -->
<g id="node1" class="node">
<title>T20372</title>
<polygon fill="none" stroke="#0058ad" points="0,-81.5 0,-110.5 302,-110.5 302,-81.5 0,-81.5"/>
<text text-anchor="middle" x="38.5" y="-92.3" font-family="Times,serif" font-size="14.00" fill="#0058ad">r 780 nil</text>
<polyline fill="none" stroke="#0058ad" points="77,-81.5 77,-110.5 "/>
<text text-anchor="middle" x="114" y="-92.3" font-family="Times,serif" font-size="14.00" fill="#0058ad">w 780 4</text>
<polyline fill="none" stroke="#0058ad" points="151,-81.5 151,-110.5 "/>
<text text-anchor="middle" x="189.5" y="-92.3" font-family="Times,serif" font-size="14.00" fill="#0058ad">r 773 11</text>
<polyline fill="none" stroke="#0058ad" points="228,-81.5 228,-110.5 "/>
<text text-anchor="middle" x="265" y="-92.3" font-family="Times,serif" font-size="14.00" fill="#0058ad">w 780 5</text>
</g>
<!-- T20359 -->
<g id="node2" class="node">
<title>T20359</title>
<polygon fill="none" stroke="#0058ad" points="75.5,-0.5 75.5,-29.5 294.5,-29.5 294.5,-0.5 75.5,-0.5"/>
<text text-anchor="middle" x="114" y="-11.3" font-family="Times,serif" font-size="14.00" fill="#0058ad">r 780 nil</text>
<polyline fill="none" stroke="#0058ad" points="152.5,-0.5 152.5,-29.5 "/>
<text text-anchor="middle" x="189.5" y="-11.3" font-family="Times,serif" font-size="14.00" fill="#0058ad">w 780 1</text>
<polyline fill="none" stroke="#0058ad" points="226.5,-0.5 226.5,-29.5 "/>
<text text-anchor="middle" x="260.5" y="-11.3" font-family="Times,serif" font-size="14.00" fill="#0058ad">r 776 4</text>
</g>
<!-- T20372&#45;&gt;T20359 -->
<g id="edge1" class="edge">
<title>T20372:f0&#45;&gt;T20359:f1</title>
<path fill="none" stroke="#5b00c0" d="M38,-81C38,-48.99 160.69,-62.09 185.61,-39.24"/>
<polygon fill="#5b00c0" stroke="#5b00c0" points="188.88,-40.54 190,-30 182.55,-37.53 188.88,-40.54"/>
<text text-anchor="middle" x="174.5" y="-51.8" font-family="Times,serif" font-size="14.00" fill="#5b00c0">rw</text>
</g>
<!-- T20359&#45;&gt;T20372 -->
<g id="edge2" class="edge">
<title>T20359:f0&#45;&gt;T20372:f3</title>
<path fill="none" stroke="#5b00c0" d="M114,-30C114,-63.85 155.89,-37.3 188,-48 219.6,-58.53 256.28,-46.83 263.67,-70.9"/>
<polygon fill="#5b00c0" stroke="#5b00c0" points="260.22,-71.54 265,-81 267.16,-70.63 260.22,-71.54"/>
<text text-anchor="middle" x="267.5" y="-51.8" font-family="Times,serif" font-size="14.00" fill="#5b00c0">rw</text>
</g>
</g>
</svg>
