<?xml version="1.0" encoding="UTF-8" standalone="no"?>
<!DOCTYPE svg PUBLIC "-//W3C//DTD SVG 1.1//EN"
 "http://www.w3.org/Graphics/SVG/1.1/DTD/svg11.dtd">
<!-- Generated by graphviz version 2.43.0 (0)
 -->
<!-- Title: a_graph Pages: 1 -->
<svg width="322pt" height="119pt"
 viewBox="0.00 0.00 321.50 119.00" xmlns="http://www.w3.org/2000/svg" xmlns:xlink="http://www.w3.org/1999/xlink">
<g id="graph0" class="graph" transform="scale(1 1) rotate(0) translate(4 115)">
<title>a_graph</title>
<polygon fill="white" stroke="transparent" points="-4,4 -4,-115 317.5,-115 317.5,4 -4,4"/>
<!-- T5739 -->
<g id="node1" class="node">
<title>T5739</title>
<polygon fill="none" stroke="#0058ad" points="0,-81.5 0,-110.5 305,-110.5 305,-81.5 0,-81.5"/>
<text text-anchor="middle" x="38.5" y="-92.3" font-family="Times,serif" font-size="14.00" fill="#0058ad">r 225 nil</text>
<polyline fill="none" stroke="#0058ad" points="77,-81.5 77,-110.5 "/>
<text text-anchor="middle" x="115.5" y="-92.3" font-family="Times,serif" font-size="14.00" fill="#0058ad">r 225 nil</text>
<polyline fill="none" stroke="#0058ad" points="154,-81.5 154,-110.5 "/>
<text text-anchor="middle" x="191" y="-92.3" font-family="Times,serif" font-size="14.00" fill="#0058ad">w 225 2</text>
<polyline fill="none" stroke="#0058ad" points="228,-81.5 228,-110.5 "/>
<text text-anchor="middle" x="266.5" y="-92.3" font-family="Times,serif" font-size="14.00" fill="#0058ad">r 221 10</text>
</g>
<!-- T5737 -->
<g id="node2" class="node">
<title>T5737</title>
<polygon fill="none" stroke="#0058ad" points="11.5,-0.5 11.5,-29.5 313.5,-29.5 313.5,-0.5 11.5,-0.5"/>
<text text-anchor="middle" x="50" y="-11.3" font-family="Times,serif" font-size="14.00" fill="#0058ad">r 225 nil</text>
<polyline fill="none" stroke="#0058ad" points="88.5,-0.5 88.5,-29.5 "/>
<text text-anchor="middle" x="125.5" y="-11.3" font-family="Times,serif" font-size="14.00" fill="#0058ad">w 225 1</text>
<polyline fill="none" stroke="#0058ad" points="162.5,-0.5 162.5,-29.5 "/>
<text text-anchor="middle" x="201" y="-11.3" font-family="Times,serif" font-size="14.00" fill="#0058ad">r 190 10</text>
<polyline fill="none" stroke="#0058ad" points="239.5,-0.5 239.5,-29.5 "/>
<text text-anchor="middle" x="276.5" y="-11.3" font-family="Times,serif" font-size="14.00" fill="#0058ad">w 224 7</text>
</g>
<!-- T5739&#45;&gt;T5737 -->
<g id="edge1" class="edge">
<title>T5739:f0&#45;&gt;T5737:f1</title>
<path fill="none" stroke="#5b00c0" d="M38.5,-81C38.5,-78.73 95.38,-48.62 117.16,-35.69"/>
<polygon fill="#5b00c0" stroke="#5b00c0" points="119.21,-38.53 125.5,-30 115.27,-32.75 119.21,-38.53"/>
<text text-anchor="middle" x="105" y="-51.8" font-family="Times,serif" font-size="14.00" fill="#5b00c0">rw</text>
</g>
<!-- T5737&#45;&gt;T5739 -->
<g id="edge2" class="edge">
<title>T5737:f0&#45;&gt;T5739:f2</title>
<path fill="none" stroke="#5b00c0" d="M49.5,-30C49.5,-59.98 86.22,-38.07 114.5,-48 145.93,-59.03 182.74,-46.94 190.16,-70.92"/>
<polygon fill="#5b00c0" stroke="#5b00c0" points="186.71,-71.55 191.5,-81 193.65,-70.63 186.71,-71.55"/>
<text text-anchor="middle" x="194" y="-51.8" font-family="Times,serif" font-size="14.00" fill="#5b00c0">rw</text>
</g>
</g>
</svg>
