<?xml version="1.0" encoding="UTF-8" standalone="no"?>
<!DOCTYPE svg PUBLIC "-//W3C//DTD SVG 1.1//EN"
 "http://www.w3.org/Graphics/SVG/1.1/DTD/svg11.dtd">
<!-- Generated by graphviz version 2.43.0 (0)
 -->
<!-- Title: a_graph Pages: 1 -->
<svg width="414pt" height="281pt"
 viewBox="0.00 0.00 413.50 281.00" xmlns="http://www.w3.org/2000/svg" xmlns:xlink="http://www.w3.org/1999/xlink">
<g id="graph0" class="graph" transform="scale(1 1) rotate(0) translate(4 277)">
<title>a_graph</title>
<polygon fill="white" stroke="transparent" points="-4,4 -4,-277 409.5,-277 409.5,4 -4,4"/>
<!-- T22767 -->
<g id="node1" class="node">
<title>T22767</title>
<polygon fill="none" stroke="#0058ad" points="164,-243.5 164,-272.5 315,-272.5 315,-243.5 164,-243.5"/>
<text text-anchor="middle" x="202.5" y="-254.3" font-family="Times,serif" font-size="14.00" fill="#0058ad">r 869 nil</text>
<polyline fill="none" stroke="#0058ad" points="241,-243.5 241,-272.5 "/>
<text text-anchor="middle" x="278" y="-254.3" font-family="Times,serif" font-size="14.00" fill="#0058ad">w 870 2</text>
</g>
<!-- T22759 -->
<g id="node2" class="node">
<title>T22759</title>
<polygon fill="none" stroke="#0058ad" points="37,-162.5 37,-191.5 330,-191.5 330,-162.5 37,-162.5"/>
<text text-anchor="middle" x="74" y="-173.3" font-family="Times,serif" font-size="14.00" fill="#0058ad">w 869 1</text>
<polyline fill="none" stroke="#0058ad" points="111,-162.5 111,-191.5 "/>
<text text-anchor="middle" x="145" y="-173.3" font-family="Times,serif" font-size="14.00" fill="#0058ad">r 869 1</text>
<polyline fill="none" stroke="#0058ad" points="179,-162.5 179,-191.5 "/>
<text text-anchor="middle" x="217.5" y="-173.3" font-family="Times,serif" font-size="14.00" fill="#0058ad">r 870 nil</text>
<polyline fill="none" stroke="#0058ad" points="256,-162.5 256,-191.5 "/>
<text text-anchor="middle" x="293" y="-173.3" font-family="Times,serif" font-size="14.00" fill="#0058ad">w 869 2</text>
</g>
<!-- T22767&#45;&gt;T22759 -->
<g id="edge2" class="edge">
<title>T22767:f0&#45;&gt;T22759:f3</title>
<path fill="none" stroke="#5b00c0" d="M202.5,-243C202.5,-224.05 213.64,-220.38 229.5,-210 250.55,-196.22 282.16,-214.28 291.08,-201.7"/>
<polygon fill="#5b00c0" stroke="#5b00c0" points="294.48,-202.55 293.5,-192 287.68,-200.86 294.48,-202.55"/>
<text text-anchor="middle" x="239" y="-213.8" font-family="Times,serif" font-size="14.00" fill="#5b00c0">rw</text>
</g>
<!-- T22762 -->
<g id="node4" class="node">
<title>T22762</title>
<polygon fill="none" stroke="#0058ad" points="0,-0.5 0,-29.5 293,-29.5 293,-0.5 0,-0.5"/>
<text text-anchor="middle" x="37" y="-11.3" font-family="Times,serif" font-size="14.00" fill="#0058ad">w 869 3</text>
<polyline fill="none" stroke="#0058ad" points="74,-0.5 74,-29.5 "/>
<text text-anchor="middle" x="108" y="-11.3" font-family="Times,serif" font-size="14.00" fill="#0058ad">r 869 3</text>
<polyline fill="none" stroke="#0058ad" points="142,-0.5 142,-29.5 "/>
<text text-anchor="middle" x="179" y="-11.3" font-family="Times,serif" font-size="14.00" fill="#0058ad">w 869 4</text>
<polyline fill="none" stroke="#0058ad" points="216,-0.5 216,-29.5 "/>
<text text-anchor="middle" x="254.5" y="-11.3" font-family="Times,serif" font-size="14.00" fill="#0058ad">r 870 nil</text>
</g>
<!-- T22767&#45;&gt;T22762 -->
<g id="edge1" class="edge">
<title>T22767:f0&#45;&gt;T22762:f2</title>
<path fill="none" stroke="#5b00c0" d="M162.5,-258C88.88,-258 -3.05,-228.99 27.5,-162 35.8,-143.79 150.88,-70.43 175.06,-39.15"/>
<polygon fill="#5b00c0" stroke="#5b00c0" points="178.28,-40.52 179.5,-30 171.99,-37.47 178.28,-40.52"/>
<text text-anchor="middle" x="73" y="-132.8" font-family="Times,serif" font-size="14.00" fill="#5b00c0">rw</text>
</g>
<!-- T22759&#45;&gt;T22767 -->
<g id="edge4" class="edge">
<title>T22759:f2&#45;&gt;T22767:f1</title>
<path fill="none" stroke="#5b00c0" d="M217.5,-192C217.5,-207.93 236.11,-199.99 248.5,-210 260.79,-219.93 272.54,-222.4 276.81,-233.03"/>
<polygon fill="#5b00c0" stroke="#5b00c0" points="273.38,-233.73 278.5,-243 280.28,-232.56 273.38,-233.73"/>
<text text-anchor="middle" x="280" y="-213.8" font-family="Times,serif" font-size="14.00" fill="#5b00c0">rw</text>
</g>
<!-- T22764 -->
<g id="node3" class="node">
<title>T22764</title>
<polygon fill="none" stroke="#0058ad" points="141,-81.5 141,-110.5 292,-110.5 292,-81.5 141,-81.5"/>
<text text-anchor="middle" x="179.5" y="-92.3" font-family="Times,serif" font-size="14.00" fill="#0058ad">r 869 nil</text>
<polyline fill="none" stroke="#0058ad" points="218,-81.5 218,-110.5 "/>
<text text-anchor="middle" x="255" y="-92.3" font-family="Times,serif" font-size="14.00" fill="#0058ad">w 870 1</text>
</g>
<!-- T22759&#45;&gt;T22764 -->
<g id="edge3" class="edge">
<title>T22759:f2&#45;&gt;T22764:f1</title>
<path fill="none" stroke="#5b00c0" d="M217.5,-162C217.5,-156.53 240.23,-133.24 250.53,-119.7"/>
<polygon fill="#5b00c0" stroke="#5b00c0" points="253.58,-121.42 255.5,-111 247.5,-117.95 253.58,-121.42"/>
<text text-anchor="middle" x="251" y="-132.8" font-family="Times,serif" font-size="14.00" fill="#5b00c0">rw</text>
</g>
<!-- T22764&#45;&gt;T22759 -->
<g id="edge6" class="edge">
<title>T22764:f0&#45;&gt;T22759:f3</title>
<path fill="none" stroke="#5b00c0" d="M179.5,-111C179.5,-148.75 229.65,-110.41 262.5,-129 276.59,-136.98 288.08,-140.45 292.03,-151.99"/>
<polygon fill="#5b00c0" stroke="#5b00c0" points="288.58,-152.62 293.5,-162 295.51,-151.6 288.58,-152.62"/>
<text text-anchor="middle" x="296" y="-132.8" font-family="Times,serif" font-size="14.00" fill="#5b00c0">rw</text>
</g>
<!-- T22764&#45;&gt;T22762 -->
<g id="edge5" class="edge">
<title>T22764:f0&#45;&gt;T22762:f2</title>
<path fill="none" stroke="#5b00c0" d="M179.5,-81C179.5,-62.23 179.5,-55.12 179.5,-40.35"/>
<polygon fill="#5b00c0" stroke="#5b00c0" points="183,-40 179.5,-30 176,-40 183,-40"/>
<text text-anchor="middle" x="189" y="-51.8" font-family="Times,serif" font-size="14.00" fill="#5b00c0">rw</text>
</g>
<!-- T22762&#45;&gt;T22767 -->
<g id="edge8" class="edge">
<title>T22762:f3&#45;&gt;T22767:f1</title>
<path fill="none" stroke="#5b00c0" d="M294.5,-15C399.45,-15 423.43,-242.59 326.58,-257.26"/>
<polygon fill="#5b00c0" stroke="#5b00c0" points="326.22,-253.78 316.5,-258 326.73,-260.76 326.22,-253.78"/>
<text text-anchor="middle" x="396" y="-132.8" font-family="Times,serif" font-size="14.00" fill="#5b00c0">rw</text>
</g>
<!-- T22762&#45;&gt;T22764 -->
<g id="edge7" class="edge">
<title>T22762:f3&#45;&gt;T22764:f1</title>
<path fill="none" stroke="#5b00c0" d="M254.5,-30C254.5,-48.77 255.19,-55.88 255.42,-70.65"/>
<polygon fill="#5b00c0" stroke="#5b00c0" points="251.92,-71.03 255.5,-81 258.92,-70.97 251.92,-71.03"/>
<text text-anchor="middle" x="264" y="-51.8" font-family="Times,serif" font-size="14.00" fill="#5b00c0">rw</text>
</g>
</g>
</svg>
