<?xml version="1.0" encoding="UTF-8" standalone="no"?>
<!DOCTYPE svg PUBLIC "-//W3C//DTD SVG 1.1//EN"
 "http://www.w3.org/Graphics/SVG/1.1/DTD/svg11.dtd">
<!-- Generated by graphviz version 2.43.0 (0)
 -->
<!-- Title: a_graph Pages: 1 -->
<svg width="313pt" height="119pt"
 viewBox="0.00 0.00 313.00 119.00" xmlns="http://www.w3.org/2000/svg" xmlns:xlink="http://www.w3.org/1999/xlink">
<g id="graph0" class="graph" transform="scale(1 1) rotate(0) translate(4 115)">
<title>a_graph</title>
<polygon fill="white" stroke="transparent" points="-4,4 -4,-115 309,-115 309,4 -4,4"/>
<!-- T10493 -->
<g id="node1" class="node">
<title>T10493</title>
<polygon fill="none" stroke="#0058ad" points="0,-81.5 0,-110.5 305,-110.5 305,-81.5 0,-81.5"/>
<text text-anchor="middle" x="38.5" y="-92.3" font-family="Times,serif" font-size="14.00" fill="#0058ad">r 402 10</text>
<polyline fill="none" stroke="#0058ad" points="77,-81.5 77,-110.5 "/>
<text text-anchor="middle" x="114" y="-92.3" font-family="Times,serif" font-size="14.00" fill="#0058ad">w 406 1</text>
<polyline fill="none" stroke="#0058ad" points="151,-81.5 151,-110.5 "/>
<text text-anchor="middle" x="189.5" y="-92.3" font-family="Times,serif" font-size="14.00" fill="#0058ad">r 407 nil</text>
<polyline fill="none" stroke="#0058ad" points="228,-81.5 228,-110.5 "/>
<text text-anchor="middle" x="266.5" y="-92.3" font-family="Times,serif" font-size="14.00" fill="#0058ad">r 407 nil</text>
</g>
<!-- T10495 -->
<g id="node2" class="node">
<title>T10495</title>
<polygon fill="none" stroke="#0058ad" points="77,-0.5 77,-29.5 296,-29.5 296,-0.5 77,-0.5"/>
<text text-anchor="middle" x="114" y="-11.3" font-family="Times,serif" font-size="14.00" fill="#0058ad">w 407 1</text>
<polyline fill="none" stroke="#0058ad" points="151,-0.5 151,-29.5 "/>
<text text-anchor="middle" x="189.5" y="-11.3" font-family="Times,serif" font-size="14.00" fill="#0058ad">r 406 nil</text>
<polyline fill="none" stroke="#0058ad" points="228,-0.5 228,-29.5 "/>
<text text-anchor="middle" x="262" y="-11.3" font-family="Times,serif" font-size="14.00" fill="#0058ad">r 407 1</text>
</g>
<!-- T10493&#45;&gt;T10495 -->
<g id="edge1" class="edge">
<title>T10493:f2&#45;&gt;T10495:f0</title>
<path fill="none" stroke="#5b00c0" d="M189.5,-81C189.5,-56.56 165.97,-61.35 145.5,-48 135.89,-41.73 123.97,-43.45 117.75,-39.34"/>
<polygon fill="#5b00c0" stroke="#5b00c0" points="120.82,-37.66 113.5,-30 114.45,-40.55 120.82,-37.66"/>
<text text-anchor="middle" x="189" y="-51.8" font-family="Times,serif" font-size="14.00" fill="#5b00c0">rw</text>
</g>
<!-- T10495&#45;&gt;T10493 -->
<g id="edge2" class="edge">
<title>T10495:f1&#45;&gt;T10493:f1</title>
<path fill="none" stroke="#5b00c0" d="M189.5,-30C189.5,-60.83 144.34,-26.24 122.5,-48 114.42,-56.05 113.4,-62.03 113.39,-70.94"/>
<polygon fill="#5b00c0" stroke="#5b00c0" points="109.89,-71.04 113.5,-81 116.89,-70.96 109.89,-71.04"/>
<text text-anchor="middle" x="132" y="-51.8" font-family="Times,serif" font-size="14.00" fill="#5b00c0">rw</text>
</g>
</g>
</svg>
