<?xml version="1.0" encoding="UTF-8" standalone="no"?>
<!DOCTYPE svg PUBLIC "-//W3C//DTD SVG 1.1//EN"
 "http://www.w3.org/Graphics/SVG/1.1/DTD/svg11.dtd">
<!-- Generated by graphviz version 2.43.0 (0)
 -->
<!-- Title: a_graph Pages: 1 -->
<svg width="394pt" height="200pt"
 viewBox="0.00 0.00 394.00 200.00" xmlns="http://www.w3.org/2000/svg" xmlns:xlink="http://www.w3.org/1999/xlink">
<g id="graph0" class="graph" transform="scale(1 1) rotate(0) translate(4 196)">
<title>a_graph</title>
<polygon fill="white" stroke="transparent" points="-4,4 -4,-196 390,-196 390,4 -4,4"/>
<!-- T32294 -->
<g id="node1" class="node">
<title>T32294</title>
<polygon fill="none" stroke="#0058ad" points="63,-162.5 63,-191.5 386,-191.5 386,-162.5 63,-162.5"/>
<text text-anchor="middle" x="106" y="-173.3" font-family="Times,serif" font-size="14.00" fill="#0058ad">r 1236 nil</text>
<polyline fill="none" stroke="#0058ad" points="149,-162.5 149,-191.5 "/>
<text text-anchor="middle" x="190.5" y="-173.3" font-family="Times,serif" font-size="14.00" fill="#0058ad">w 1236 4</text>
<polyline fill="none" stroke="#0058ad" points="232,-162.5 232,-191.5 "/>
<text text-anchor="middle" x="270.5" y="-173.3" font-family="Times,serif" font-size="14.00" fill="#0058ad">r 1235 7</text>
<polyline fill="none" stroke="#0058ad" points="309,-162.5 309,-191.5 "/>
<text text-anchor="middle" x="347.5" y="-173.3" font-family="Times,serif" font-size="14.00" fill="#0058ad">r 1233 4</text>
</g>
<!-- T32296 -->
<g id="node3" class="node">
<title>T32296</title>
<polygon fill="none" stroke="#0058ad" points="0,-81.5 0,-110.5 169,-110.5 169,-81.5 0,-81.5"/>
<text text-anchor="middle" x="43" y="-92.3" font-family="Times,serif" font-size="14.00" fill="#0058ad">r 1237 nil</text>
<polyline fill="none" stroke="#0058ad" points="86,-81.5 86,-110.5 "/>
<text text-anchor="middle" x="127.5" y="-92.3" font-family="Times,serif" font-size="14.00" fill="#0058ad">w 1236 5</text>
</g>
<!-- T32294&#45;&gt;T32296 -->
<g id="edge1" class="edge">
<title>T32294:f0&#45;&gt;T32296:f1</title>
<path fill="none" stroke="#5b00c0" d="M105.5,-162C105.5,-141.17 121.16,-136.76 126.06,-121.06"/>
<polygon fill="#5b00c0" stroke="#5b00c0" points="129.54,-121.4 127.5,-111 122.61,-120.4 129.54,-121.4"/>
<text text-anchor="middle" x="132" y="-132.8" font-family="Times,serif" font-size="14.00" fill="#5b00c0">rw</text>
</g>
<!-- T32290 -->
<g id="node2" class="node">
<title>T32290</title>
<polygon fill="none" stroke="#0058ad" points="1.5,-0.5 1.5,-29.5 253.5,-29.5 253.5,-0.5 1.5,-0.5"/>
<text text-anchor="middle" x="43" y="-11.3" font-family="Times,serif" font-size="14.00" fill="#0058ad">w 1237 1</text>
<polyline fill="none" stroke="#0058ad" points="84.5,-0.5 84.5,-29.5 "/>
<text text-anchor="middle" x="126" y="-11.3" font-family="Times,serif" font-size="14.00" fill="#0058ad">w 1235 7</text>
<polyline fill="none" stroke="#0058ad" points="167.5,-0.5 167.5,-29.5 "/>
<text text-anchor="middle" x="210.5" y="-11.3" font-family="Times,serif" font-size="14.00" fill="#0058ad">r 1236 nil</text>
</g>
<!-- T32290&#45;&gt;T32294 -->
<g id="edge3" class="edge">
<title>T32290:f1&#45;&gt;T32294:f2</title>
<path fill="none" stroke="#c000a5" d="M125.5,-30C125.5,-51.92 205.42,-34.25 222.5,-48 262.56,-80.25 269.68,-103.82 270.43,-151.74"/>
<polygon fill="#c000a5" stroke="#c000a5" points="266.93,-152.03 270.5,-162 273.93,-151.98 266.93,-152.03"/>
<text text-anchor="middle" x="276" y="-92.3" font-family="Times,serif" font-size="14.00" fill="#c000a5">wr</text>
</g>
<!-- T32290&#45;&gt;T32296 -->
<g id="edge2" class="edge">
<title>T32290:f2&#45;&gt;T32296:f1</title>
<path fill="none" stroke="#5b00c0" d="M210.5,-30C210.5,-69.41 141.74,-43.46 129.39,-71.13"/>
<polygon fill="#5b00c0" stroke="#5b00c0" points="125.94,-70.52 127.5,-81 132.82,-71.84 125.94,-70.52"/>
<text text-anchor="middle" x="209" y="-51.8" font-family="Times,serif" font-size="14.00" fill="#5b00c0">rw</text>
</g>
<!-- T32296&#45;&gt;T32290 -->
<g id="edge4" class="edge">
<title>T32296:f0&#45;&gt;T32290:f0</title>
<path fill="none" stroke="#5b00c0" d="M42.5,-81C42.5,-62.23 42.5,-55.12 42.5,-40.35"/>
<polygon fill="#5b00c0" stroke="#5b00c0" points="46,-40 42.5,-30 39,-40 46,-40"/>
<text text-anchor="middle" x="52" y="-51.8" font-family="Times,serif" font-size="14.00" fill="#5b00c0">rw</text>
</g>
</g>
</svg>
