<?xml version="1.0" encoding="UTF-8" standalone="no"?>
<!DOCTYPE svg PUBLIC "-//W3C//DTD SVG 1.1//EN"
 "http://www.w3.org/Graphics/SVG/1.1/DTD/svg11.dtd">
<!-- Generated by graphviz version 2.43.0 (0)
 -->
<!-- Title: a_graph Pages: 1 -->
<svg width="884pt" height="767pt"
 viewBox="0.00 0.00 884.00 767.00" xmlns="http://www.w3.org/2000/svg" xmlns:xlink="http://www.w3.org/1999/xlink">
<g id="graph0" class="graph" transform="scale(1 1) rotate(0) translate(4 763)">
<title>a_graph</title>
<polygon fill="white" stroke="transparent" points="-4,4 -4,-763 880,-763 880,4 -4,4"/>
<!-- T25955 -->
<g id="node1" class="node">
<title>T25955</title>
<polygon fill="none" stroke="#0058ad" points="417,-729.5 417,-758.5 559,-758.5 559,-729.5 417,-729.5"/>
<text text-anchor="middle" x="451" y="-740.3" font-family="Times,serif" font-size="14.00" fill="#0058ad">r 994 1</text>
<polyline fill="none" stroke="#0058ad" points="485,-729.5 485,-758.5 "/>
<text text-anchor="middle" x="522" y="-740.3" font-family="Times,serif" font-size="14.00" fill="#0058ad">w 994 3</text>
</g>
<!-- T25962 -->
<g id="node4" class="node">
<title>T25962</title>
<polygon fill="none" stroke="#0058ad" points="440,-567.5 440,-596.5 724,-596.5 724,-567.5 440,-567.5"/>
<text text-anchor="middle" x="474" y="-578.3" font-family="Times,serif" font-size="14.00" fill="#0058ad">r 994 3</text>
<polyline fill="none" stroke="#0058ad" points="508,-567.5 508,-596.5 "/>
<text text-anchor="middle" x="545" y="-578.3" font-family="Times,serif" font-size="14.00" fill="#0058ad">w 994 7</text>
<polyline fill="none" stroke="#0058ad" points="582,-567.5 582,-596.5 "/>
<text text-anchor="middle" x="616" y="-578.3" font-family="Times,serif" font-size="14.00" fill="#0058ad">r 994 7</text>
<polyline fill="none" stroke="#0058ad" points="650,-567.5 650,-596.5 "/>
<text text-anchor="middle" x="687" y="-578.3" font-family="Times,serif" font-size="14.00" fill="#0058ad">w 994 8</text>
</g>
<!-- T25955&#45;&gt;T25962 -->
<g id="edge1" class="edge">
<title>T25955:f1&#45;&gt;T25962:f0</title>
<path fill="none" stroke="#c000a5" d="M522,-729C522,-704.65 510.42,-700.84 502,-678 490.11,-645.75 476.88,-636.76 474.41,-607.33"/>
<polygon fill="#c000a5" stroke="#c000a5" points="477.89,-606.85 474,-597 470.9,-607.13 477.89,-606.85"/>
<text text-anchor="middle" x="511.5" y="-659.3" font-family="Times,serif" font-size="14.00" fill="#c000a5">wr</text>
</g>
<!-- T25957 -->
<g id="node9" class="node">
<title>T25957</title>
<polygon fill="none" stroke="#0058ad" points="530,-648.5 530,-677.5 666,-677.5 666,-648.5 530,-648.5"/>
<text text-anchor="middle" x="564" y="-659.3" font-family="Times,serif" font-size="14.00" fill="#0058ad">r 981 9</text>
<polyline fill="none" stroke="#0058ad" points="598,-648.5 598,-677.5 "/>
<text text-anchor="middle" x="632" y="-659.3" font-family="Times,serif" font-size="14.00" fill="#0058ad">r 994 3</text>
</g>
<!-- T25955&#45;&gt;T25957 -->
<g id="edge2" class="edge">
<title>T25955:f1&#45;&gt;T25957:f1</title>
<path fill="none" stroke="#c000a5" d="M560,-744C599.85,-744 627.21,-724.96 631.43,-688.26"/>
<polygon fill="#c000a5" stroke="#c000a5" points="634.94,-688.18 632,-678 627.95,-687.79 634.94,-688.18"/>
<text text-anchor="middle" x="639.5" y="-699.8" font-family="Times,serif" font-size="14.00" fill="#c000a5">wr</text>
</g>
<!-- T25874 -->
<g id="node2" class="node">
<title>T25874</title>
<polygon fill="none" stroke="#0058ad" points="165,-162.5 165,-191.5 399,-191.5 399,-162.5 165,-162.5"/>
<text text-anchor="middle" x="206.5" y="-173.3" font-family="Times,serif" font-size="14.00" fill="#0058ad">w 990 12</text>
<polyline fill="none" stroke="#0058ad" points="248,-162.5 248,-191.5 "/>
<text text-anchor="middle" x="286.5" y="-173.3" font-family="Times,serif" font-size="14.00" fill="#0058ad">r 992 nil</text>
<polyline fill="none" stroke="#0058ad" points="325,-162.5 325,-191.5 "/>
<text text-anchor="middle" x="362" y="-173.3" font-family="Times,serif" font-size="14.00" fill="#0058ad">w 991 4</text>
</g>
<!-- T25856 -->
<g id="node11" class="node">
<title>T25856</title>
<polygon fill="none" stroke="#0058ad" points="109,-405.5 109,-434.5 405,-434.5 405,-405.5 109,-405.5"/>
<text text-anchor="middle" x="143" y="-416.3" font-family="Times,serif" font-size="14.00" fill="#0058ad">r 990 6</text>
<polyline fill="none" stroke="#0058ad" points="177,-405.5 177,-434.5 "/>
<text text-anchor="middle" x="215.5" y="-416.3" font-family="Times,serif" font-size="14.00" fill="#0058ad">r 991 nil</text>
<polyline fill="none" stroke="#0058ad" points="254,-405.5 254,-434.5 "/>
<text text-anchor="middle" x="292.5" y="-416.3" font-family="Times,serif" font-size="14.00" fill="#0058ad">r 992 nil</text>
<polyline fill="none" stroke="#0058ad" points="331,-405.5 331,-434.5 "/>
<text text-anchor="middle" x="368" y="-416.3" font-family="Times,serif" font-size="14.00" fill="#0058ad">w 992 1</text>
</g>
<!-- T25874&#45;&gt;T25856 -->
<g id="edge3" class="edge">
<title>T25874:f1&#45;&gt;T25856:f3</title>
<path fill="none" stroke="#5b00c0" d="M287,-192C287,-216.19 272.29,-219.19 268,-243 265.64,-256.12 263.75,-260.36 268,-273 290.3,-339.36 360.65,-332.32 367.47,-394.81"/>
<polygon fill="#5b00c0" stroke="#5b00c0" points="363.98,-395.2 368,-405 370.97,-394.83 363.98,-395.2"/>
<text text-anchor="middle" x="296.5" y="-294.8" font-family="Times,serif" font-size="14.00" fill="#5b00c0">rw</text>
</g>
<!-- T25968 -->
<g id="node3" class="node">
<title>T25968</title>
<polygon fill="none" stroke="#0058ad" points="470.5,-486.5 470.5,-515.5 781.5,-515.5 781.5,-486.5 470.5,-486.5"/>
<text text-anchor="middle" x="509" y="-497.3" font-family="Times,serif" font-size="14.00" fill="#0058ad">r 992 nil</text>
<polyline fill="none" stroke="#0058ad" points="547.5,-486.5 547.5,-515.5 "/>
<text text-anchor="middle" x="581.5" y="-497.3" font-family="Times,serif" font-size="14.00" fill="#0058ad">r 994 8</text>
<polyline fill="none" stroke="#0058ad" points="615.5,-486.5 615.5,-515.5 "/>
<text text-anchor="middle" x="657" y="-497.3" font-family="Times,serif" font-size="14.00" fill="#0058ad">w 994 11</text>
<polyline fill="none" stroke="#0058ad" points="698.5,-486.5 698.5,-515.5 "/>
<text text-anchor="middle" x="740" y="-497.3" font-family="Times,serif" font-size="14.00" fill="#0058ad">w 994 12</text>
</g>
<!-- T25968&#45;&gt;T25856 -->
<g id="edge4" class="edge">
<title>T25968:f0&#45;&gt;T25856:f3</title>
<path fill="none" stroke="#5b00c0" d="M469,-501C427.31,-501 447.3,-433.32 416.22,-421.69"/>
<polygon fill="#5b00c0" stroke="#5b00c0" points="416.44,-418.18 406,-420 415.29,-425.09 416.44,-418.18"/>
<text text-anchor="middle" x="449.5" y="-456.8" font-family="Times,serif" font-size="14.00" fill="#5b00c0">rw</text>
</g>
<!-- T25962&#45;&gt;T25968 -->
<g id="edge5" class="edge">
<title>T25962:f3&#45;&gt;T25968:f1</title>
<path fill="none" stroke="#c000a5" d="M687,-567C687,-518.6 596.15,-560.91 582.67,-525.98"/>
<polygon fill="#c000a5" stroke="#c000a5" points="586.1,-525.29 581,-516 579.19,-526.44 586.1,-525.29"/>
<text text-anchor="middle" x="686.5" y="-537.8" font-family="Times,serif" font-size="14.00" fill="#c000a5">wr</text>
</g>
<!-- T25937 -->
<g id="node5" class="node">
<title>T25937</title>
<polygon fill="none" stroke="#0058ad" points="457,-162.5 457,-191.5 599,-191.5 599,-162.5 457,-162.5"/>
<text text-anchor="middle" x="494" y="-173.3" font-family="Times,serif" font-size="14.00" fill="#0058ad">w 991 8</text>
<polyline fill="none" stroke="#0058ad" points="531,-162.5 531,-191.5 "/>
<text text-anchor="middle" x="565" y="-173.3" font-family="Times,serif" font-size="14.00" fill="#0058ad">r 991 8</text>
</g>
<!-- T25943 -->
<g id="node10" class="node">
<title>T25943</title>
<polygon fill="none" stroke="#0058ad" points="638.5,-81.5 638.5,-110.5 851.5,-110.5 851.5,-81.5 638.5,-81.5"/>
<text text-anchor="middle" x="672.5" y="-92.3" font-family="Times,serif" font-size="14.00" fill="#0058ad">r 991 8</text>
<polyline fill="none" stroke="#0058ad" points="706.5,-81.5 706.5,-110.5 "/>
<text text-anchor="middle" x="740.5" y="-92.3" font-family="Times,serif" font-size="14.00" fill="#0058ad">r 991 8</text>
<polyline fill="none" stroke="#0058ad" points="774.5,-81.5 774.5,-110.5 "/>
<text text-anchor="middle" x="813" y="-92.3" font-family="Times,serif" font-size="14.00" fill="#0058ad">r 994 nil</text>
</g>
<!-- T25937&#45;&gt;T25943 -->
<g id="edge6" class="edge">
<title>T25937:f0&#45;&gt;T25943:f0</title>
<path fill="none" stroke="#c000a5" d="M494,-162C494,-83.56 655.7,-183.08 670.86,-121.32"/>
<polygon fill="#c000a5" stroke="#c000a5" points="674.38,-121.32 672,-111 667.43,-120.56 674.38,-121.32"/>
<text text-anchor="middle" x="676.5" y="-132.8" font-family="Times,serif" font-size="14.00" fill="#c000a5">wr</text>
</g>
<!-- T25871 -->
<g id="node6" class="node">
<title>T25871</title>
<polygon fill="none" stroke="#0058ad" points="430.5,-324.5 430.5,-353.5 735.5,-353.5 735.5,-324.5 430.5,-324.5"/>
<text text-anchor="middle" x="469" y="-335.3" font-family="Times,serif" font-size="14.00" fill="#0058ad">r 991 nil</text>
<polyline fill="none" stroke="#0058ad" points="507.5,-324.5 507.5,-353.5 "/>
<text text-anchor="middle" x="541.5" y="-335.3" font-family="Times,serif" font-size="14.00" fill="#0058ad">r 992 1</text>
<polyline fill="none" stroke="#0058ad" points="575.5,-324.5 575.5,-353.5 "/>
<text text-anchor="middle" x="617" y="-335.3" font-family="Times,serif" font-size="14.00" fill="#0058ad">w 990 11</text>
<polyline fill="none" stroke="#0058ad" points="658.5,-324.5 658.5,-353.5 "/>
<text text-anchor="middle" x="697" y="-335.3" font-family="Times,serif" font-size="14.00" fill="#0058ad">r 991 nil</text>
</g>
<!-- T25871&#45;&gt;T25874 -->
<g id="edge7" class="edge">
<title>T25871:f0&#45;&gt;T25874:f2</title>
<path fill="none" stroke="#5b00c0" d="M469,-324C469,-311.71 482.62,-315.83 490,-306 507.29,-282.99 522.47,-265.87 505,-243 486.54,-218.84 464.48,-241.6 439,-225 419.39,-212.22 424.83,-186.4 409.9,-179.01"/>
<polygon fill="#5b00c0" stroke="#5b00c0" points="410.5,-175.56 400,-177 409.1,-182.42 410.5,-175.56"/>
<text text-anchor="middle" x="522.5" y="-254.3" font-family="Times,serif" font-size="14.00" fill="#5b00c0">rw</text>
</g>
<!-- T25871&#45;&gt;T25937 -->
<g id="edge9" class="edge">
<title>T25871:f0&#45;&gt;T25937:f0</title>
<path fill="none" stroke="#5b00c0" d="M469,-324C469,-288.42 521.35,-330.66 547,-306 557.96,-295.46 553.98,-288.07 556,-273 557.77,-259.78 561.69,-255.06 556,-243 549.69,-229.64 511.31,-215.67 498.31,-201.13"/>
<polygon fill="#5b00c0" stroke="#5b00c0" points="501.43,-199.55 494,-192 495.1,-202.54 501.43,-199.55"/>
<text text-anchor="middle" x="568.5" y="-254.3" font-family="Times,serif" font-size="14.00" fill="#5b00c0">rw</text>
</g>
<!-- T25850 -->
<g id="node7" class="node">
<title>T25850</title>
<polygon fill="none" stroke="#0058ad" points="277.5,-243.5 277.5,-272.5 496.5,-272.5 496.5,-243.5 277.5,-243.5"/>
<text text-anchor="middle" x="311.5" y="-254.3" font-family="Times,serif" font-size="14.00" fill="#0058ad">r 990 5</text>
<polyline fill="none" stroke="#0058ad" points="345.5,-243.5 345.5,-272.5 "/>
<text text-anchor="middle" x="384" y="-254.3" font-family="Times,serif" font-size="14.00" fill="#0058ad">r 991 nil</text>
<polyline fill="none" stroke="#0058ad" points="422.5,-243.5 422.5,-272.5 "/>
<text text-anchor="middle" x="459.5" y="-254.3" font-family="Times,serif" font-size="14.00" fill="#0058ad">w 991 1</text>
</g>
<!-- T25871&#45;&gt;T25850 -->
<g id="edge8" class="edge">
<title>T25871:f0&#45;&gt;T25850:f2</title>
<path fill="none" stroke="#5b00c0" d="M469,-324C469,-304.76 462.71,-298.13 460.65,-283.03"/>
<polygon fill="#5b00c0" stroke="#5b00c0" points="464.14,-282.75 460,-273 457.15,-283.2 464.14,-282.75"/>
<text text-anchor="middle" x="476.5" y="-294.8" font-family="Times,serif" font-size="14.00" fill="#5b00c0">rw</text>
</g>
<!-- T25947 -->
<g id="node8" class="node">
<title>T25947</title>
<polygon fill="none" stroke="#0058ad" points="0,-0.5 0,-29.5 308,-29.5 308,-0.5 0,-0.5"/>
<text text-anchor="middle" x="37" y="-11.3" font-family="Times,serif" font-size="14.00" fill="#0058ad">w 991 9</text>
<polyline fill="none" stroke="#0058ad" points="74,-0.5 74,-29.5 "/>
<text text-anchor="middle" x="111" y="-11.3" font-family="Times,serif" font-size="14.00" fill="#0058ad">w 994 1</text>
<polyline fill="none" stroke="#0058ad" points="148,-0.5 148,-29.5 "/>
<text text-anchor="middle" x="189.5" y="-11.3" font-family="Times,serif" font-size="14.00" fill="#0058ad">w 991 10</text>
<polyline fill="none" stroke="#0058ad" points="231,-0.5 231,-29.5 "/>
<text text-anchor="middle" x="269.5" y="-11.3" font-family="Times,serif" font-size="14.00" fill="#0058ad">r 991 10</text>
</g>
<!-- T25871&#45;&gt;T25947 -->
<g id="edge10" class="edge">
<title>T25871:f0&#45;&gt;T25947:f2</title>
<path fill="none" stroke="#5b00c0" d="M469,-324C469,-302.29 547.59,-318.97 565,-306 618.57,-266.1 647.48,-215.87 608,-162 594.76,-143.93 252.14,-68.01 197.36,-37.01"/>
<polygon fill="#5b00c0" stroke="#5b00c0" points="199.66,-34.36 190,-30 194.83,-39.43 199.66,-34.36"/>
<text text-anchor="middle" x="633.5" y="-173.3" font-family="Times,serif" font-size="14.00" fill="#5b00c0">rw</text>
</g>
<!-- T25850&#45;&gt;T25874 -->
<g id="edge11" class="edge">
<title>T25850:f1&#45;&gt;T25874:f2</title>
<path fill="none" stroke="#5b00c0" d="M384,-243C384,-233.13 375.26,-233.9 371,-225 366.19,-214.93 363.59,-210.05 362.55,-202.15"/>
<polygon fill="#5b00c0" stroke="#5b00c0" points="366.03,-201.8 362,-192 359.04,-202.17 366.03,-201.8"/>
<text text-anchor="middle" x="380.5" y="-213.8" font-family="Times,serif" font-size="14.00" fill="#5b00c0">rw</text>
</g>
<!-- T25850&#45;&gt;T25937 -->
<g id="edge12" class="edge">
<title>T25850:f1&#45;&gt;T25937:f0</title>
<path fill="none" stroke="#5b00c0" d="M384,-243C384,-215.58 418.14,-236.56 443,-225 463.85,-215.31 486.17,-217.77 492.34,-202.04"/>
<polygon fill="#5b00c0" stroke="#5b00c0" points="495.82,-202.44 494,-192 488.92,-201.3 495.82,-202.44"/>
<text text-anchor="middle" x="495.5" y="-213.8" font-family="Times,serif" font-size="14.00" fill="#5b00c0">rw</text>
</g>
<!-- T25850&#45;&gt;T25947 -->
<g id="edge13" class="edge">
<title>T25850:f1&#45;&gt;T25947:f2</title>
<path fill="none" stroke="#5b00c0" d="M384,-243C384,-233.85 389.99,-233.22 394,-225 400.99,-210.68 404.83,-207.61 408,-192 410.66,-178.93 414.55,-173.62 408,-162 354.13,-66.41 200.05,-138.44 190.47,-40.06"/>
<polygon fill="#5b00c0" stroke="#5b00c0" points="193.96,-39.83 190,-30 186.97,-40.15 193.96,-39.83"/>
<text text-anchor="middle" x="405.5" y="-132.8" font-family="Times,serif" font-size="14.00" fill="#5b00c0">rw</text>
</g>
<!-- T25947&#45;&gt;T25955 -->
<g id="edge14" class="edge">
<title>T25947:f1&#45;&gt;T25955:f0</title>
<path fill="none" stroke="#c000a5" d="M111,-30C111,-62.4 78,-62.6 78,-95 78,-664 78,-664 78,-664 78,-738.1 318.35,-743.66 405.87,-743.98"/>
<polygon fill="#c000a5" stroke="#c000a5" points="405.99,-747.48 416,-744 406.01,-740.48 405.99,-747.48"/>
<text text-anchor="middle" x="87.5" y="-375.8" font-family="Times,serif" font-size="14.00" fill="#c000a5">wr</text>
</g>
<!-- T25957&#45;&gt;T25962 -->
<g id="edge15" class="edge">
<title>T25957:f1&#45;&gt;T25962:f3</title>
<path fill="none" stroke="#5b00c0" d="M667,-663C694.3,-663 688.84,-634.96 687.31,-607.17"/>
<polygon fill="#5b00c0" stroke="#5b00c0" points="690.81,-606.89 687,-597 683.81,-607.1 690.81,-606.89"/>
<text text-anchor="middle" x="697.5" y="-618.8" font-family="Times,serif" font-size="14.00" fill="#5b00c0">rw</text>
</g>
<!-- T25943&#45;&gt;T25955 -->
<g id="edge17" class="edge">
<title>T25943:f2&#45;&gt;T25955:f1</title>
<path fill="none" stroke="#5b00c0" d="M853,-96C888.6,-96 857,-140.4 857,-176 857,-664 857,-664 857,-664 857,-729.28 648.43,-742.84 570.15,-743.93"/>
<polygon fill="#5b00c0" stroke="#5b00c0" points="569.97,-740.43 560,-744 570.03,-747.43 569.97,-740.43"/>
<text text-anchor="middle" x="866.5" y="-416.3" font-family="Times,serif" font-size="14.00" fill="#5b00c0">rw</text>
</g>
<!-- T25943&#45;&gt;T25968 -->
<g id="edge18" class="edge">
<title>T25943:f2&#45;&gt;T25968:f3</title>
<path fill="none" stroke="#5b00c0" d="M813,-111C813,-122 802.9,-120.42 796,-129 780.16,-148.69 764,-150.73 764,-176 764,-421 764,-421 764,-421 764,-448.07 745.46,-453.98 740.97,-475.92"/>
<polygon fill="#5b00c0" stroke="#5b00c0" points="737.47,-475.71 740,-486 744.44,-476.38 737.47,-475.71"/>
<text text-anchor="middle" x="773.5" y="-294.8" font-family="Times,serif" font-size="14.00" fill="#5b00c0">rw</text>
</g>
<!-- T25943&#45;&gt;T25962 -->
<g id="edge16" class="edge">
<title>T25943:f2&#45;&gt;T25962:f3</title>
<path fill="none" stroke="#5b00c0" d="M813,-111C813,-139.92 810,-147.08 810,-176 810,-502 810,-502 810,-502 810,-550.43 781.13,-578.16 735.08,-581.63"/>
<polygon fill="#5b00c0" stroke="#5b00c0" points="734.86,-578.13 725,-582 735.12,-585.13 734.86,-578.13"/>
<text text-anchor="middle" x="819.5" y="-335.3" font-family="Times,serif" font-size="14.00" fill="#5b00c0">rw</text>
</g>
<!-- T25943&#45;&gt;T25947 -->
<g id="edge19" class="edge">
<title>T25943:f2&#45;&gt;T25947:f1</title>
<path fill="none" stroke="#5b00c0" d="M813,-81C813,71.75 143.52,-174.37 112.14,-40.32"/>
<polygon fill="#5b00c0" stroke="#5b00c0" points="115.58,-39.56 111,-30 108.62,-40.32 115.58,-39.56"/>
<text text-anchor="middle" x="814.5" y="-51.8" font-family="Times,serif" font-size="14.00" fill="#5b00c0">rw</text>
</g>
<!-- T25856&#45;&gt;T25874 -->
<g id="edge23" class="edge">
<title>T25856:f1&#45;&gt;T25874:f2</title>
<path fill="none" stroke="#5b00c0" d="M215,-405C215,-394.87 205.78,-395.94 201,-387 183.09,-353.54 180.08,-343.46 174,-306 166.75,-261.32 171.83,-237.21 208,-210 232.42,-191.64 334.62,-218.78 357.46,-201.14"/>
<polygon fill="#5b00c0" stroke="#5b00c0" points="360.69,-202.51 362,-192 354.42,-199.4 360.69,-202.51"/>
<text text-anchor="middle" x="183.5" y="-294.8" font-family="Times,serif" font-size="14.00" fill="#5b00c0">rw</text>
</g>
<!-- T25856&#45;&gt;T25937 -->
<g id="edge21" class="edge">
<title>T25856:f1&#45;&gt;T25937:f0</title>
<path fill="none" stroke="#5b00c0" d="M215,-405C215,-329.24 209.66,-291.33 268,-243 271.72,-239.92 408.02,-191.91 446.25,-179.77"/>
<polygon fill="#5b00c0" stroke="#5b00c0" points="447.34,-183.1 456,-177 445.42,-176.37 447.34,-183.1"/>
<text text-anchor="middle" x="237.5" y="-294.8" font-family="Times,serif" font-size="14.00" fill="#5b00c0">rw</text>
</g>
<!-- T25856&#45;&gt;T25871 -->
<g id="edge24" class="edge">
<title>T25856:f3&#45;&gt;T25871:f1</title>
<path fill="none" stroke="#c000a5" d="M406,-420C436.13,-420 521.81,-393.45 538.25,-363.73"/>
<polygon fill="#c000a5" stroke="#c000a5" points="541.65,-364.57 541,-354 534.91,-362.67 541.65,-364.57"/>
<text text-anchor="middle" x="540.5" y="-375.8" font-family="Times,serif" font-size="14.00" fill="#c000a5">wr</text>
</g>
<!-- T25856&#45;&gt;T25850 -->
<g id="edge20" class="edge">
<title>T25856:f1&#45;&gt;T25850:f2</title>
<path fill="none" stroke="#5b00c0" d="M215,-405C215,-394.87 223.53,-395.53 229,-387 254.98,-346.51 239.16,-317.96 279,-291 309.21,-270.56 432.27,-305.26 456.02,-282.54"/>
<polygon fill="#5b00c0" stroke="#5b00c0" points="459.38,-283.58 460,-273 452.92,-280.88 459.38,-283.58"/>
<text text-anchor="middle" x="261.5" y="-335.3" font-family="Times,serif" font-size="14.00" fill="#5b00c0">rw</text>
</g>
<!-- T25856&#45;&gt;T25947 -->
<g id="edge22" class="edge">
<title>T25856:f1&#45;&gt;T25947:f2</title>
<path fill="none" stroke="#5b00c0" d="M215,-405C215,-391.31 198.81,-397.48 190,-387 179.51,-374.52 178.52,-369.66 174,-354 153.91,-284.4 160.01,-264.33 156,-192 155.26,-178.69 154.32,-175.23 156,-162 159.44,-134.88 184.35,-73.89 189.19,-39.98"/>
<polygon fill="#5b00c0" stroke="#5b00c0" points="192.68,-40.25 190,-30 185.7,-39.68 192.68,-40.25"/>
<text text-anchor="middle" x="167.5" y="-213.8" font-family="Times,serif" font-size="14.00" fill="#5b00c0">rw</text>
</g>
</g>
</svg>
