<?xml version="1.0" encoding="UTF-8" standalone="no"?>
<!DOCTYPE svg PUBLIC "-//W3C//DTD SVG 1.1//EN"
 "http://www.w3.org/Graphics/SVG/1.1/DTD/svg11.dtd">
<!-- Generated by graphviz version 2.43.0 (0)
 -->
<!-- Title: a_graph Pages: 1 -->
<svg width="533pt" height="362pt"
 viewBox="0.00 0.00 532.50 362.00" xmlns="http://www.w3.org/2000/svg" xmlns:xlink="http://www.w3.org/1999/xlink">
<g id="graph0" class="graph" transform="scale(1 1) rotate(0) translate(4 358)">
<title>a_graph</title>
<polygon fill="white" stroke="transparent" points="-4,4 -4,-358 528.5,-358 528.5,4 -4,4"/>
<!-- T27293 -->
<g id="node1" class="node">
<title>T27293</title>
<polygon fill="none" stroke="#0058ad" points="207.5,-324.5 207.5,-353.5 524.5,-353.5 524.5,-324.5 207.5,-324.5"/>
<text text-anchor="middle" x="246" y="-335.3" font-family="Times,serif" font-size="14.00" fill="#0058ad">r 1042 9</text>
<polyline fill="none" stroke="#0058ad" points="284.5,-324.5 284.5,-353.5 "/>
<text text-anchor="middle" x="327.5" y="-335.3" font-family="Times,serif" font-size="14.00" fill="#0058ad">r 1043 nil</text>
<polyline fill="none" stroke="#0058ad" points="370.5,-324.5 370.5,-353.5 "/>
<text text-anchor="middle" x="409" y="-335.3" font-family="Times,serif" font-size="14.00" fill="#0058ad">r 1044 2</text>
<polyline fill="none" stroke="#0058ad" points="447.5,-324.5 447.5,-353.5 "/>
<text text-anchor="middle" x="486" y="-335.3" font-family="Times,serif" font-size="14.00" fill="#0058ad">r 1044 2</text>
</g>
<!-- T27275 -->
<g id="node4" class="node">
<title>T27275</title>
<polygon fill="none" stroke="#0058ad" points="285.5,-243.5 285.5,-272.5 368.5,-272.5 368.5,-243.5 285.5,-243.5"/>
<text text-anchor="middle" x="327" y="-254.3" font-family="Times,serif" font-size="14.00" fill="#0058ad">w 1043 1</text>
</g>
<!-- T27293&#45;&gt;T27275 -->
<g id="edge1" class="edge">
<title>T27293:f1&#45;&gt;T27275:f0</title>
<path fill="none" stroke="#5b00c0" d="M327,-324C327,-310.35 327,-295.12 327,-282.73"/>
<polygon fill="#5b00c0" stroke="#5b00c0" points="330.5,-282.68 327,-272.68 323.5,-282.68 330.5,-282.68"/>
<text text-anchor="middle" x="336.5" y="-294.8" font-family="Times,serif" font-size="14.00" fill="#5b00c0">rw</text>
</g>
<!-- T27301 -->
<g id="node5" class="node">
<title>T27301</title>
<polygon fill="none" stroke="#0058ad" points="158.5,-0.5 158.5,-29.5 481.5,-29.5 481.5,-0.5 158.5,-0.5"/>
<text text-anchor="middle" x="197" y="-11.3" font-family="Times,serif" font-size="14.00" fill="#0058ad">r 1044 2</text>
<polyline fill="none" stroke="#0058ad" points="235.5,-0.5 235.5,-29.5 "/>
<text text-anchor="middle" x="277" y="-11.3" font-family="Times,serif" font-size="14.00" fill="#0058ad">w 1044 5</text>
<polyline fill="none" stroke="#0058ad" points="318.5,-0.5 318.5,-29.5 "/>
<text text-anchor="middle" x="361.5" y="-11.3" font-family="Times,serif" font-size="14.00" fill="#0058ad">r 1043 nil</text>
<polyline fill="none" stroke="#0058ad" points="404.5,-0.5 404.5,-29.5 "/>
<text text-anchor="middle" x="443" y="-11.3" font-family="Times,serif" font-size="14.00" fill="#0058ad">r 1042 9</text>
</g>
<!-- T27293&#45;&gt;T27301 -->
<g id="edge2" class="edge">
<title>T27293:f2&#45;&gt;T27301:f1</title>
<path fill="none" stroke="#5b00c0" d="M409,-324C409,-313.87 419.36,-315.46 423,-306 438.36,-266.1 436.24,-252.13 429,-210 422.42,-171.69 419.96,-159.61 396,-129 355.83,-77.68 284.98,-96.49 277.62,-40.14"/>
<polygon fill="#5b00c0" stroke="#5b00c0" points="281.11,-39.77 277,-30 274.12,-40.2 281.11,-39.77"/>
<text text-anchor="middle" x="435.5" y="-173.3" font-family="Times,serif" font-size="14.00" fill="#5b00c0">rw</text>
</g>
<!-- T27283 -->
<g id="node2" class="node">
<title>T27283</title>
<polygon fill="none" stroke="#0058ad" points="0,-162.5 0,-191.5 332,-191.5 332,-162.5 0,-162.5"/>
<text text-anchor="middle" x="38.5" y="-173.3" font-family="Times,serif" font-size="14.00" fill="#0058ad">r 1043 1</text>
<polyline fill="none" stroke="#0058ad" points="77,-162.5 77,-191.5 "/>
<text text-anchor="middle" x="120" y="-173.3" font-family="Times,serif" font-size="14.00" fill="#0058ad">r 1044 nil</text>
<polyline fill="none" stroke="#0058ad" points="163,-162.5 163,-191.5 "/>
<text text-anchor="middle" x="206" y="-173.3" font-family="Times,serif" font-size="14.00" fill="#0058ad">r 1044 nil</text>
<polyline fill="none" stroke="#0058ad" points="249,-162.5 249,-191.5 "/>
<text text-anchor="middle" x="290.5" y="-173.3" font-family="Times,serif" font-size="14.00" fill="#0058ad">w 1030 3</text>
</g>
<!-- T27287 -->
<g id="node3" class="node">
<title>T27287</title>
<polygon fill="none" stroke="#0058ad" points="157.5,-81.5 157.5,-110.5 240.5,-110.5 240.5,-81.5 157.5,-81.5"/>
<text text-anchor="middle" x="199" y="-92.3" font-family="Times,serif" font-size="14.00" fill="#0058ad">w 1044 2</text>
</g>
<!-- T27283&#45;&gt;T27287 -->
<g id="edge4" class="edge">
<title>T27283:f1&#45;&gt;T27287:f0</title>
<path fill="none" stroke="#5b00c0" d="M120,-162C120,-155.26 147.39,-133.58 169.92,-116.88"/>
<polygon fill="#5b00c0" stroke="#5b00c0" points="172.25,-119.51 178.24,-110.77 168.11,-113.87 172.25,-119.51"/>
<text text-anchor="middle" x="162.5" y="-132.8" font-family="Times,serif" font-size="14.00" fill="#5b00c0">rw</text>
</g>
<!-- T27283&#45;&gt;T27301 -->
<g id="edge3" class="edge">
<title>T27283:f1&#45;&gt;T27301:f1</title>
<path fill="none" stroke="#5b00c0" d="M120,-162C120,-125.78 108.37,-110.78 129,-81 147.45,-54.37 163.47,-58.86 194,-48 208.45,-42.86 254.21,-46.65 270.86,-38.13"/>
<polygon fill="#5b00c0" stroke="#5b00c0" points="273.77,-40.09 277,-30 268.18,-35.87 273.77,-40.09"/>
<text text-anchor="middle" x="138.5" y="-92.3" font-family="Times,serif" font-size="14.00" fill="#5b00c0">rw</text>
</g>
<!-- T27287&#45;&gt;T27293 -->
<g id="edge6" class="edge">
<title>T27287:f0&#45;&gt;T27293:f2</title>
<path fill="none" stroke="#c000a5" d="M238.22,-110.55C238.82,-110.71 239.41,-110.86 240,-111 269.82,-118.32 354.94,-107.64 377,-129 406.39,-157.46 408.79,-264.03 408.98,-313.97"/>
<polygon fill="#c000a5" stroke="#c000a5" points="405.48,-314.01 409,-324 412.48,-313.99 405.48,-314.01"/>
<text text-anchor="middle" x="415.5" y="-213.8" font-family="Times,serif" font-size="14.00" fill="#c000a5">wr</text>
</g>
<!-- T27287&#45;&gt;T27301 -->
<g id="edge5" class="edge">
<title>T27287:f0&#45;&gt;T27301:f0</title>
<path fill="none" stroke="#c000a5" d="M198.3,-81.32C197.83,-70.46 197.27,-55.02 197.07,-40.15"/>
<polygon fill="#c000a5" stroke="#c000a5" points="200.57,-39.98 197,-30 193.57,-40.02 200.57,-39.98"/>
<text text-anchor="middle" x="207.5" y="-51.8" font-family="Times,serif" font-size="14.00" fill="#c000a5">wr</text>
</g>
<!-- T27275&#45;&gt;T27283 -->
<g id="edge7" class="edge">
<title>T27275:f0&#45;&gt;T27283:f0</title>
<path fill="none" stroke="#c000a5" d="M287.32,-243.38C286.88,-243.25 286.44,-243.12 286,-243 235.37,-228.62 62.41,-245.75 40.33,-201.95"/>
<polygon fill="#c000a5" stroke="#c000a5" points="43.69,-200.94 38,-192 36.87,-202.53 43.69,-200.94"/>
<text text-anchor="middle" x="91.5" y="-213.8" font-family="Times,serif" font-size="14.00" fill="#c000a5">wr</text>
</g>
<!-- T27301&#45;&gt;T27275 -->
<g id="edge8" class="edge">
<title>T27301:f2&#45;&gt;T27275:f0</title>
<path fill="none" stroke="#5b00c0" d="M362,-30C362,-104.97 343.28,-192.22 333.22,-233.7"/>
<polygon fill="#5b00c0" stroke="#5b00c0" points="329.82,-232.9 330.81,-243.45 336.61,-234.58 329.82,-232.9"/>
<text text-anchor="middle" x="363.5" y="-132.8" font-family="Times,serif" font-size="14.00" fill="#5b00c0">rw</text>
</g>
</g>
</svg>
