<?xml version="1.0" encoding="UTF-8" standalone="no"?>
<!DOCTYPE svg PUBLIC "-//W3C//DTD SVG 1.1//EN"
 "http://www.w3.org/Graphics/SVG/1.1/DTD/svg11.dtd">
<!-- Generated by graphviz version 2.43.0 (0)
 -->
<!-- Title: a_graph Pages: 1 -->
<svg width="408pt" height="281pt"
 viewBox="0.00 0.00 408.00 281.00" xmlns="http://www.w3.org/2000/svg" xmlns:xlink="http://www.w3.org/1999/xlink">
<g id="graph0" class="graph" transform="scale(1 1) rotate(0) translate(4 277)">
<title>a_graph</title>
<polygon fill="white" stroke="transparent" points="-4,4 -4,-277 404,-277 404,4 -4,4"/>
<!-- T9075 -->
<g id="node1" class="node">
<title>T9075</title>
<polygon fill="none" stroke="#0058ad" points="181,-243.5 181,-272.5 400,-272.5 400,-243.5 181,-243.5"/>
<text text-anchor="middle" x="219.5" y="-254.3" font-family="Times,serif" font-size="14.00" fill="#0058ad">r 350 nil</text>
<polyline fill="none" stroke="#0058ad" points="258,-243.5 258,-272.5 "/>
<text text-anchor="middle" x="295" y="-254.3" font-family="Times,serif" font-size="14.00" fill="#0058ad">w 351 1</text>
<polyline fill="none" stroke="#0058ad" points="332,-243.5 332,-272.5 "/>
<text text-anchor="middle" x="366" y="-254.3" font-family="Times,serif" font-size="14.00" fill="#0058ad">r 346 9</text>
</g>
<!-- T9073 -->
<g id="node3" class="node">
<title>T9073</title>
<polygon fill="none" stroke="#0058ad" points="0,-0.5 0,-29.5 293,-29.5 293,-0.5 0,-0.5"/>
<text text-anchor="middle" x="34" y="-11.3" font-family="Times,serif" font-size="14.00" fill="#0058ad">r 350 1</text>
<polyline fill="none" stroke="#0058ad" points="68,-0.5 68,-29.5 "/>
<text text-anchor="middle" x="105" y="-11.3" font-family="Times,serif" font-size="14.00" fill="#0058ad">w 350 2</text>
<polyline fill="none" stroke="#0058ad" points="142,-0.5 142,-29.5 "/>
<text text-anchor="middle" x="180.5" y="-11.3" font-family="Times,serif" font-size="14.00" fill="#0058ad">r 351 nil</text>
<polyline fill="none" stroke="#0058ad" points="219,-0.5 219,-29.5 "/>
<text text-anchor="middle" x="256" y="-11.3" font-family="Times,serif" font-size="14.00" fill="#0058ad">w 350 3</text>
</g>
<!-- T9075&#45;&gt;T9073 -->
<g id="edge1" class="edge">
<title>T9075:f0&#45;&gt;T9073:f3</title>
<path fill="none" stroke="#5b00c0" d="M219.5,-243C219.5,-232.3 231.17,-234.79 235.5,-225 251.91,-187.95 255.96,-88.92 256.45,-40.15"/>
<polygon fill="#5b00c0" stroke="#5b00c0" points="259.95,-40.02 256.5,-30 252.95,-39.98 259.95,-40.02"/>
<text text-anchor="middle" x="262" y="-132.8" font-family="Times,serif" font-size="14.00" fill="#5b00c0">rw</text>
</g>
<!-- T9063 -->
<g id="node4" class="node">
<title>T9063</title>
<polygon fill="none" stroke="#0058ad" points="68,-162.5 68,-191.5 225,-191.5 225,-162.5 68,-162.5"/>
<text text-anchor="middle" x="109.5" y="-173.3" font-family="Times,serif" font-size="14.00" fill="#0058ad">w 348 16</text>
<polyline fill="none" stroke="#0058ad" points="151,-162.5 151,-191.5 "/>
<text text-anchor="middle" x="188" y="-173.3" font-family="Times,serif" font-size="14.00" fill="#0058ad">w 350 1</text>
</g>
<!-- T9075&#45;&gt;T9063 -->
<g id="edge2" class="edge">
<title>T9075:f0&#45;&gt;T9063:f1</title>
<path fill="none" stroke="#5b00c0" d="M219.5,-243C219.5,-220.41 197.02,-218.55 190.35,-202.11"/>
<polygon fill="#5b00c0" stroke="#5b00c0" points="193.74,-201.21 188.5,-192 186.85,-202.47 193.74,-201.21"/>
<text text-anchor="middle" x="222" y="-213.8" font-family="Times,serif" font-size="14.00" fill="#5b00c0">rw</text>
</g>
<!-- T9070 -->
<g id="node2" class="node">
<title>T9070</title>
<polygon fill="none" stroke="#0058ad" points="75,-81.5 75,-110.5 226,-110.5 226,-81.5 75,-81.5"/>
<text text-anchor="middle" x="116.5" y="-92.3" font-family="Times,serif" font-size="14.00" fill="#0058ad">w 346 11</text>
<polyline fill="none" stroke="#0058ad" points="158,-81.5 158,-110.5 "/>
<text text-anchor="middle" x="192" y="-92.3" font-family="Times,serif" font-size="14.00" fill="#0058ad">r 350 1</text>
</g>
<!-- T9070&#45;&gt;T9073 -->
<g id="edge3" class="edge">
<title>T9070:f1&#45;&gt;T9073:f3</title>
<path fill="none" stroke="#5b00c0" d="M192.5,-81C192.5,-61.18 206.84,-60.15 222.5,-48 232.21,-40.47 245.53,-43.3 252.25,-39.14"/>
<polygon fill="#5b00c0" stroke="#5b00c0" points="255.45,-40.54 256.5,-30 249.11,-37.59 255.45,-40.54"/>
<text text-anchor="middle" x="232" y="-51.8" font-family="Times,serif" font-size="14.00" fill="#5b00c0">rw</text>
</g>
<!-- T9073&#45;&gt;T9075 -->
<g id="edge4" class="edge">
<title>T9073:f2&#45;&gt;T9075:f1</title>
<path fill="none" stroke="#5b00c0" d="M180.5,-30C180.5,-47.63 189.57,-51.02 202.5,-63 214.47,-74.09 222.02,-70.48 234.5,-81 255.52,-98.72 261.88,-104.09 273.5,-129 293.82,-172.57 295.37,-189.12 295.49,-232.9"/>
<polygon fill="#5b00c0" stroke="#5b00c0" points="291.99,-233 295.5,-243 298.99,-233 291.99,-233"/>
<text text-anchor="middle" x="290" y="-132.8" font-family="Times,serif" font-size="14.00" fill="#5b00c0">rw</text>
</g>
<!-- T9063&#45;&gt;T9070 -->
<g id="edge6" class="edge">
<title>T9063:f1&#45;&gt;T9070:f1</title>
<path fill="none" stroke="#c000a5" d="M188.5,-162C188.5,-143.17 191.24,-136.14 192.19,-121.37"/>
<polygon fill="#c000a5" stroke="#c000a5" points="195.7,-121.1 192.5,-111 188.7,-120.89 195.7,-121.1"/>
<text text-anchor="middle" x="201" y="-132.8" font-family="Times,serif" font-size="14.00" fill="#c000a5">wr</text>
</g>
<!-- T9063&#45;&gt;T9073 -->
<g id="edge5" class="edge">
<title>T9063:f1&#45;&gt;T9073:f0</title>
<path fill="none" stroke="#c000a5" d="M188.5,-162C188.5,-94.94 89.32,-162.61 46.5,-111 25.49,-85.68 31.81,-69.79 33.25,-40.14"/>
<polygon fill="#c000a5" stroke="#c000a5" points="36.75,-40.08 33.5,-30 29.75,-39.91 36.75,-40.08"/>
<text text-anchor="middle" x="56" y="-92.3" font-family="Times,serif" font-size="14.00" fill="#c000a5">wr</text>
</g>
</g>
</svg>
