<?xml version="1.0" encoding="UTF-8" standalone="no"?>
<!DOCTYPE svg PUBLIC "-//W3C//DTD SVG 1.1//EN"
 "http://www.w3.org/Graphics/SVG/1.1/DTD/svg11.dtd">
<!-- Generated by graphviz version 2.43.0 (0)
 -->
<!-- Title: a_graph Pages: 1 -->
<svg width="246pt" height="119pt"
 viewBox="0.00 0.00 246.00 119.00" xmlns="http://www.w3.org/2000/svg" xmlns:xlink="http://www.w3.org/1999/xlink">
<g id="graph0" class="graph" transform="scale(1 1) rotate(0) translate(4 115)">
<title>a_graph</title>
<polygon fill="white" stroke="transparent" points="-4,4 -4,-115 242,-115 242,4 -4,4"/>
<!-- T10924 -->
<g id="node1" class="node">
<title>T10924</title>
<polygon fill="none" stroke="#0058ad" points="0,-81.5 0,-110.5 234,-110.5 234,-81.5 0,-81.5"/>
<text text-anchor="middle" x="41.5" y="-92.3" font-family="Times,serif" font-size="14.00" fill="#0058ad">w 416 14</text>
<polyline fill="none" stroke="#0058ad" points="83,-81.5 83,-110.5 "/>
<text text-anchor="middle" x="121.5" y="-92.3" font-family="Times,serif" font-size="14.00" fill="#0058ad">r 422 nil</text>
<polyline fill="none" stroke="#0058ad" points="160,-81.5 160,-110.5 "/>
<text text-anchor="middle" x="197" y="-92.3" font-family="Times,serif" font-size="14.00" fill="#0058ad">w 422 1</text>
</g>
<!-- T10925 -->
<g id="node2" class="node">
<title>T10925</title>
<polygon fill="none" stroke="#0058ad" points="10,-0.5 10,-29.5 238,-29.5 238,-0.5 10,-0.5"/>
<text text-anchor="middle" x="48.5" y="-11.3" font-family="Times,serif" font-size="14.00" fill="#0058ad">r 419 13</text>
<polyline fill="none" stroke="#0058ad" points="87,-0.5 87,-29.5 "/>
<text text-anchor="middle" x="125.5" y="-11.3" font-family="Times,serif" font-size="14.00" fill="#0058ad">r 422 nil</text>
<polyline fill="none" stroke="#0058ad" points="164,-0.5 164,-29.5 "/>
<text text-anchor="middle" x="201" y="-11.3" font-family="Times,serif" font-size="14.00" fill="#0058ad">w 422 2</text>
</g>
<!-- T10924&#45;&gt;T10925 -->
<g id="edge1" class="edge">
<title>T10924:f1&#45;&gt;T10925:f2</title>
<path fill="none" stroke="#5b00c0" d="M122,-81C122,-62.6 132.05,-58.72 147,-48 163.7,-36.02 188.91,-48.33 197.78,-39.79"/>
<polygon fill="#5b00c0" stroke="#5b00c0" points="201.2,-40.59 201,-30 194.55,-38.41 201.2,-40.59"/>
<text text-anchor="middle" x="156.5" y="-51.8" font-family="Times,serif" font-size="14.00" fill="#5b00c0">rw</text>
</g>
<!-- T10925&#45;&gt;T10924 -->
<g id="edge2" class="edge">
<title>T10925:f1&#45;&gt;T10924:f2</title>
<path fill="none" stroke="#5b00c0" d="M126,-30C126,-49.49 150.13,-36.68 166,-48 179.05,-57.31 190.99,-59.96 195.3,-70.83"/>
<polygon fill="#5b00c0" stroke="#5b00c0" points="191.9,-71.72 197,-81 198.8,-70.56 191.9,-71.72"/>
<text text-anchor="middle" x="198.5" y="-51.8" font-family="Times,serif" font-size="14.00" fill="#5b00c0">rw</text>
</g>
</g>
</svg>
