<?xml version="1.0" encoding="UTF-8" standalone="no"?>
<!DOCTYPE svg PUBLIC "-//W3C//DTD SVG 1.1//EN"
 "http://www.w3.org/Graphics/SVG/1.1/DTD/svg11.dtd">
<!-- Generated by graphviz version 2.43.0 (0)
 -->
<!-- Title: a_graph Pages: 1 -->
<svg width="177pt" height="119pt"
 viewBox="0.00 0.00 177.00 119.00" xmlns="http://www.w3.org/2000/svg" xmlns:xlink="http://www.w3.org/1999/xlink">
<g id="graph0" class="graph" transform="scale(1 1) rotate(0) translate(4 115)">
<title>a_graph</title>
<polygon fill="white" stroke="transparent" points="-4,4 -4,-115 173,-115 173,4 -4,4"/>
<!-- T28237 -->
<g id="node1" class="node">
<title>T28237</title>
<polygon fill="none" stroke="#0058ad" points="0,-81.5 0,-110.5 169,-110.5 169,-81.5 0,-81.5"/>
<text text-anchor="middle" x="43" y="-92.3" font-family="Times,serif" font-size="14.00" fill="#0058ad">r 1079 nil</text>
<polyline fill="none" stroke="#0058ad" points="86,-81.5 86,-110.5 "/>
<text text-anchor="middle" x="127.5" y="-92.3" font-family="Times,serif" font-size="14.00" fill="#0058ad">w 1079 1</text>
</g>
<!-- T28236 -->
<g id="node2" class="node">
<title>T28236</title>
<polygon fill="none" stroke="#0058ad" points="0,-0.5 0,-29.5 169,-29.5 169,-0.5 0,-0.5"/>
<text text-anchor="middle" x="43" y="-11.3" font-family="Times,serif" font-size="14.00" fill="#0058ad">r 1079 nil</text>
<polyline fill="none" stroke="#0058ad" points="86,-0.5 86,-29.5 "/>
<text text-anchor="middle" x="127.5" y="-11.3" font-family="Times,serif" font-size="14.00" fill="#0058ad">w 1079 2</text>
</g>
<!-- T28237&#45;&gt;T28236 -->
<g id="edge1" class="edge">
<title>T28237:f0&#45;&gt;T28236:f1</title>
<path fill="none" stroke="#5b00c0" d="M42.5,-81C42.5,-60.26 57.92,-59.01 75.5,-48 92.34,-37.46 116.14,-48.31 124.48,-39.63"/>
<polygon fill="#5b00c0" stroke="#5b00c0" points="127.85,-40.59 127.5,-30 121.17,-38.49 127.85,-40.59"/>
<text text-anchor="middle" x="85" y="-51.8" font-family="Times,serif" font-size="14.00" fill="#5b00c0">rw</text>
</g>
<!-- T28236&#45;&gt;T28237 -->
<g id="edge2" class="edge">
<title>T28236:f0&#45;&gt;T28237:f1</title>
<path fill="none" stroke="#5b00c0" d="M42.5,-30C42.5,-54.46 73.77,-35.02 94.5,-48 108.65,-56.86 121.39,-59.4 125.83,-70.86"/>
<polygon fill="#5b00c0" stroke="#5b00c0" points="122.43,-71.7 127.5,-81 129.33,-70.56 122.43,-71.7"/>
<text text-anchor="middle" x="130" y="-51.8" font-family="Times,serif" font-size="14.00" fill="#5b00c0">rw</text>
</g>
</g>
</svg>
