<?xml version="1.0" encoding="UTF-8" standalone="no"?>
<!DOCTYPE svg PUBLIC "-//W3C//DTD SVG 1.1//EN"
 "http://www.w3.org/Graphics/SVG/1.1/DTD/svg11.dtd">
<!-- Generated by graphviz version 2.43.0 (0)
 -->
<!-- Title: a_graph Pages: 1 -->
<svg width="623pt" height="605pt"
 viewBox="0.00 0.00 623.00 605.00" xmlns="http://www.w3.org/2000/svg" xmlns:xlink="http://www.w3.org/1999/xlink">
<g id="graph0" class="graph" transform="scale(1 1) rotate(0) translate(4 601)">
<title>a_graph</title>
<polygon fill="white" stroke="transparent" points="-4,4 -4,-601 619,-601 619,4 -4,4"/>
<!-- T16707 -->
<g id="node1" class="node">
<title>T16707</title>
<polygon fill="none" stroke="#0058ad" points="378,-567.5 378,-596.5 615,-596.5 615,-567.5 378,-567.5"/>
<text text-anchor="middle" x="416.5" y="-578.3" font-family="Times,serif" font-size="14.00" fill="#0058ad">r 616 nil</text>
<polyline fill="none" stroke="#0058ad" points="455,-567.5 455,-596.5 "/>
<text text-anchor="middle" x="493.5" y="-578.3" font-family="Times,serif" font-size="14.00" fill="#0058ad">r 642 11</text>
<polyline fill="none" stroke="#0058ad" points="532,-567.5 532,-596.5 "/>
<text text-anchor="middle" x="573.5" y="-578.3" font-family="Times,serif" font-size="14.00" fill="#0058ad">w 642 12</text>
</g>
<!-- T16650 -->
<g id="node5" class="node">
<title>T16650</title>
<polygon fill="none" stroke="#0058ad" points="201.5,-486.5 201.5,-515.5 435.5,-515.5 435.5,-486.5 201.5,-486.5"/>
<text text-anchor="middle" x="240" y="-497.3" font-family="Times,serif" font-size="14.00" fill="#0058ad">r 639 nil</text>
<polyline fill="none" stroke="#0058ad" points="278.5,-486.5 278.5,-515.5 "/>
<text text-anchor="middle" x="315.5" y="-497.3" font-family="Times,serif" font-size="14.00" fill="#0058ad">w 616 3</text>
<polyline fill="none" stroke="#0058ad" points="352.5,-486.5 352.5,-515.5 "/>
<text text-anchor="middle" x="394" y="-497.3" font-family="Times,serif" font-size="14.00" fill="#0058ad">w 637 10</text>
</g>
<!-- T16707&#45;&gt;T16650 -->
<g id="edge1" class="edge">
<title>T16707:f0&#45;&gt;T16650:f1</title>
<path fill="none" stroke="#5b00c0" d="M376.5,-582C340.15,-582 319.44,-560.41 316.01,-526.42"/>
<polygon fill="#5b00c0" stroke="#5b00c0" points="319.48,-525.82 315.5,-516 312.49,-526.16 319.48,-525.82"/>
<text text-anchor="middle" x="331" y="-537.8" font-family="Times,serif" font-size="14.00" fill="#5b00c0">rw</text>
</g>
<!-- T16705 -->
<g id="node2" class="node">
<title>T16705</title>
<polygon fill="none" stroke="#0058ad" points="265.5,-0.5 265.5,-29.5 567.5,-29.5 567.5,-0.5 265.5,-0.5"/>
<text text-anchor="middle" x="299.5" y="-11.3" font-family="Times,serif" font-size="14.00" fill="#0058ad">r 642 8</text>
<polyline fill="none" stroke="#0058ad" points="333.5,-0.5 333.5,-29.5 "/>
<text text-anchor="middle" x="367.5" y="-11.3" font-family="Times,serif" font-size="14.00" fill="#0058ad">r 643 1</text>
<polyline fill="none" stroke="#0058ad" points="401.5,-0.5 401.5,-29.5 "/>
<text text-anchor="middle" x="443" y="-11.3" font-family="Times,serif" font-size="14.00" fill="#0058ad">w 642 10</text>
<polyline fill="none" stroke="#0058ad" points="484.5,-0.5 484.5,-29.5 "/>
<text text-anchor="middle" x="526" y="-11.3" font-family="Times,serif" font-size="14.00" fill="#0058ad">w 642 11</text>
</g>
<!-- T16705&#45;&gt;T16707 -->
<g id="edge2" class="edge">
<title>T16705:f3&#45;&gt;T16707:f1</title>
<path fill="none" stroke="#c000a5" d="M526.5,-30C526.5,-58.89 527.5,-66.11 527.5,-95 527.5,-502 527.5,-502 527.5,-502 527.5,-530.78 501,-534 494.79,-556.78"/>
<polygon fill="#c000a5" stroke="#c000a5" points="491.28,-556.64 493.5,-567 498.23,-557.52 491.28,-556.64"/>
<text text-anchor="middle" x="537" y="-294.8" font-family="Times,serif" font-size="14.00" fill="#c000a5">wr</text>
</g>
<!-- T16695 -->
<g id="node3" class="node">
<title>T16695</title>
<polygon fill="none" stroke="#0058ad" points="78.5,-81.5 78.5,-110.5 380.5,-110.5 380.5,-81.5 78.5,-81.5"/>
<text text-anchor="middle" x="117" y="-92.3" font-family="Times,serif" font-size="14.00" fill="#0058ad">r 637 16</text>
<polyline fill="none" stroke="#0058ad" points="155.5,-81.5 155.5,-110.5 "/>
<text text-anchor="middle" x="192.5" y="-92.3" font-family="Times,serif" font-size="14.00" fill="#0058ad">w 642 7</text>
<polyline fill="none" stroke="#0058ad" points="229.5,-81.5 229.5,-110.5 "/>
<text text-anchor="middle" x="268" y="-92.3" font-family="Times,serif" font-size="14.00" fill="#0058ad">r 637 16</text>
<polyline fill="none" stroke="#0058ad" points="306.5,-81.5 306.5,-110.5 "/>
<text text-anchor="middle" x="343.5" y="-92.3" font-family="Times,serif" font-size="14.00" fill="#0058ad">w 643 1</text>
</g>
<!-- T16695&#45;&gt;T16705 -->
<g id="edge3" class="edge">
<title>T16695:f3&#45;&gt;T16705:f1</title>
<path fill="none" stroke="#c000a5" d="M343.5,-81C343.5,-59.86 360.59,-55.92 365.93,-40.16"/>
<polygon fill="#c000a5" stroke="#c000a5" points="369.43,-40.42 367.5,-30 362.51,-39.35 369.43,-40.42"/>
<text text-anchor="middle" x="372" y="-51.8" font-family="Times,serif" font-size="14.00" fill="#c000a5">wr</text>
</g>
<!-- T16706 -->
<g id="node4" class="node">
<title>T16706</title>
<polygon fill="none" stroke="#0058ad" points="145,-162.5 145,-191.5 370,-191.5 370,-162.5 145,-162.5"/>
<text text-anchor="middle" x="182" y="-173.3" font-family="Times,serif" font-size="14.00" fill="#0058ad">w 639 4</text>
<polyline fill="none" stroke="#0058ad" points="219,-162.5 219,-191.5 "/>
<text text-anchor="middle" x="256" y="-173.3" font-family="Times,serif" font-size="14.00" fill="#0058ad">w 636 9</text>
<polyline fill="none" stroke="#0058ad" points="293,-162.5 293,-191.5 "/>
<text text-anchor="middle" x="331.5" y="-173.3" font-family="Times,serif" font-size="14.00" fill="#0058ad">r 643 nil</text>
</g>
<!-- T16706&#45;&gt;T16695 -->
<g id="edge4" class="edge">
<title>T16706:f2&#45;&gt;T16695:f3</title>
<path fill="none" stroke="#5b00c0" d="M331.5,-162C331.5,-142.53 339.89,-136.25 342.64,-121.1"/>
<polygon fill="#5b00c0" stroke="#5b00c0" points="346.14,-121.26 343.5,-111 339.16,-120.67 346.14,-121.26"/>
<text text-anchor="middle" x="350" y="-132.8" font-family="Times,serif" font-size="14.00" fill="#5b00c0">rw</text>
</g>
<!-- T16650&#45;&gt;T16706 -->
<g id="edge7" class="edge">
<title>T16650:f0&#45;&gt;T16706:f0</title>
<path fill="none" stroke="#5b00c0" d="M200.5,-501C175.34,-501 180.18,-256.37 181.31,-202.21"/>
<polygon fill="#5b00c0" stroke="#5b00c0" points="184.81,-202.06 181.5,-192 177.81,-201.93 184.81,-202.06"/>
<text text-anchor="middle" x="191" y="-335.3" font-family="Times,serif" font-size="14.00" fill="#5b00c0">rw</text>
</g>
<!-- T16655 -->
<g id="node6" class="node">
<title>T16655</title>
<polygon fill="none" stroke="#0058ad" points="336,-405.5 336,-434.5 481,-434.5 481,-405.5 336,-405.5"/>
<text text-anchor="middle" x="370" y="-416.3" font-family="Times,serif" font-size="14.00" fill="#0058ad">r 640 6</text>
<polyline fill="none" stroke="#0058ad" points="404,-405.5 404,-434.5 "/>
<text text-anchor="middle" x="442.5" y="-416.3" font-family="Times,serif" font-size="14.00" fill="#0058ad">r 637 10</text>
</g>
<!-- T16650&#45;&gt;T16655 -->
<g id="edge5" class="edge">
<title>T16650:f2&#45;&gt;T16655:f1</title>
<path fill="none" stroke="#c000a5" d="M394.5,-486C394.5,-458.76 431.25,-463.98 440.44,-444.85"/>
<polygon fill="#c000a5" stroke="#c000a5" points="443.88,-445.51 442.5,-435 437.03,-444.07 443.88,-445.51"/>
<text text-anchor="middle" x="442" y="-456.8" font-family="Times,serif" font-size="14.00" fill="#c000a5">wr</text>
</g>
<!-- T16683 -->
<g id="node8" class="node">
<title>T16683</title>
<polygon fill="none" stroke="#0058ad" points="0,-243.5 0,-272.5 151,-272.5 151,-243.5 0,-243.5"/>
<text text-anchor="middle" x="38.5" y="-254.3" font-family="Times,serif" font-size="14.00" fill="#0058ad">r 639 nil</text>
<polyline fill="none" stroke="#0058ad" points="77,-243.5 77,-272.5 "/>
<text text-anchor="middle" x="114" y="-254.3" font-family="Times,serif" font-size="14.00" fill="#0058ad">w 639 2</text>
</g>
<!-- T16650&#45;&gt;T16683 -->
<g id="edge6" class="edge">
<title>T16650:f0&#45;&gt;T16683:f1</title>
<path fill="none" stroke="#5b00c0" d="M200.5,-501C99,-501 113.45,-386.99 114.45,-283.03"/>
<polygon fill="#5b00c0" stroke="#5b00c0" points="117.95,-283.02 114.5,-273 110.95,-282.98 117.95,-283.02"/>
<text text-anchor="middle" x="124" y="-375.8" font-family="Times,serif" font-size="14.00" fill="#5b00c0">rw</text>
</g>
<!-- T16659 -->
<g id="node7" class="node">
<title>T16659</title>
<polygon fill="none" stroke="#0058ad" points="212,-324.5 212,-353.5 499,-353.5 499,-324.5 212,-324.5"/>
<text text-anchor="middle" x="246" y="-335.3" font-family="Times,serif" font-size="14.00" fill="#0058ad">r 640 6</text>
<polyline fill="none" stroke="#0058ad" points="280,-324.5 280,-353.5 "/>
<text text-anchor="middle" x="314" y="-335.3" font-family="Times,serif" font-size="14.00" fill="#0058ad">r 640 6</text>
<polyline fill="none" stroke="#0058ad" points="348,-324.5 348,-353.5 "/>
<text text-anchor="middle" x="385" y="-335.3" font-family="Times,serif" font-size="14.00" fill="#0058ad">w 640 8</text>
<polyline fill="none" stroke="#0058ad" points="422,-324.5 422,-353.5 "/>
<text text-anchor="middle" x="460.5" y="-335.3" font-family="Times,serif" font-size="14.00" fill="#0058ad">r 639 nil</text>
</g>
<!-- T16655&#45;&gt;T16659 -->
<g id="edge8" class="edge">
<title>T16655:f0&#45;&gt;T16659:f2</title>
<path fill="none" stroke="#5b00c0" d="M369.5,-405C369.5,-385.14 380.68,-379.45 384.35,-364.23"/>
<polygon fill="#5b00c0" stroke="#5b00c0" points="387.86,-364.33 385.5,-354 380.9,-363.55 387.86,-364.33"/>
<text text-anchor="middle" x="391" y="-375.8" font-family="Times,serif" font-size="14.00" fill="#5b00c0">rw</text>
</g>
<!-- T16659&#45;&gt;T16706 -->
<g id="edge10" class="edge">
<title>T16659:f3&#45;&gt;T16706:f0</title>
<path fill="none" stroke="#5b00c0" d="M460.5,-324C460.5,-292.45 224.39,-236.26 186.58,-200.77"/>
<polygon fill="#5b00c0" stroke="#5b00c0" points="189.54,-198.9 181.5,-192 183.48,-202.41 189.54,-198.9"/>
<text text-anchor="middle" x="372" y="-254.3" font-family="Times,serif" font-size="14.00" fill="#5b00c0">rw</text>
</g>
<!-- T16659&#45;&gt;T16683 -->
<g id="edge9" class="edge">
<title>T16659:f3&#45;&gt;T16683:f1</title>
<path fill="none" stroke="#5b00c0" d="M460.5,-324C460.5,-304.26 392.81,-310.1 373.5,-306 278.53,-285.86 254.62,-259.85 162.54,-258.09"/>
<polygon fill="#5b00c0" stroke="#5b00c0" points="162.53,-254.59 152.5,-258 162.47,-261.59 162.53,-254.59"/>
<text text-anchor="middle" x="383" y="-294.8" font-family="Times,serif" font-size="14.00" fill="#5b00c0">rw</text>
</g>
<!-- T16683&#45;&gt;T16706 -->
<g id="edge11" class="edge">
<title>T16683:f0&#45;&gt;T16706:f0</title>
<path fill="none" stroke="#5b00c0" d="M38.5,-243C38.5,-191.32 82.34,-178.53 133.24,-177.14"/>
<polygon fill="#5b00c0" stroke="#5b00c0" points="133.55,-180.63 143.5,-177 133.45,-173.63 133.55,-180.63"/>
<text text-anchor="middle" x="57" y="-213.8" font-family="Times,serif" font-size="14.00" fill="#5b00c0">rw</text>
</g>
</g>
</svg>
