<?xml version="1.0" encoding="UTF-8" standalone="no"?>
<!DOCTYPE svg PUBLIC "-//W3C//DTD SVG 1.1//EN"
 "http://www.w3.org/Graphics/SVG/1.1/DTD/svg11.dtd">
<!-- Generated by graphviz version 2.43.0 (0)
 -->
<!-- Title: a_graph Pages: 1 -->
<svg width="546pt" height="524pt"
 viewBox="0.00 0.00 545.50 524.00" xmlns="http://www.w3.org/2000/svg" xmlns:xlink="http://www.w3.org/1999/xlink">
<g id="graph0" class="graph" transform="scale(1 1) rotate(0) translate(4 520)">
<title>a_graph</title>
<polygon fill="white" stroke="transparent" points="-4,4 -4,-520 541.5,-520 541.5,4 -4,4"/>
<!-- T26095 -->
<g id="node1" class="node">
<title>T26095</title>
<polygon fill="none" stroke="#0058ad" points="152.5,-486.5 152.5,-515.5 395.5,-515.5 395.5,-486.5 152.5,-486.5"/>
<text text-anchor="middle" x="191" y="-497.3" font-family="Times,serif" font-size="14.00" fill="#0058ad">r 995 nil</text>
<polyline fill="none" stroke="#0058ad" points="229.5,-486.5 229.5,-515.5 "/>
<text text-anchor="middle" x="271" y="-497.3" font-family="Times,serif" font-size="14.00" fill="#0058ad">w 999 12</text>
<polyline fill="none" stroke="#0058ad" points="312.5,-486.5 312.5,-515.5 "/>
<text text-anchor="middle" x="354" y="-497.3" font-family="Times,serif" font-size="14.00" fill="#0058ad">w 1002 1</text>
</g>
<!-- T26101 -->
<g id="node3" class="node">
<title>T26101</title>
<polygon fill="none" stroke="#0058ad" points="84,-405.5 84,-434.5 318,-434.5 318,-405.5 84,-405.5"/>
<text text-anchor="middle" x="122.5" y="-416.3" font-family="Times,serif" font-size="14.00" fill="#0058ad">r 999 12</text>
<polyline fill="none" stroke="#0058ad" points="161,-405.5 161,-434.5 "/>
<text text-anchor="middle" x="202.5" y="-416.3" font-family="Times,serif" font-size="14.00" fill="#0058ad">w 999 14</text>
<polyline fill="none" stroke="#0058ad" points="244,-405.5 244,-434.5 "/>
<text text-anchor="middle" x="281" y="-416.3" font-family="Times,serif" font-size="14.00" fill="#0058ad">w 995 1</text>
</g>
<!-- T26095&#45;&gt;T26101 -->
<g id="edge1" class="edge">
<title>T26095:f1&#45;&gt;T26101:f0</title>
<path fill="none" stroke="#c000a5" d="M271,-486C271,-419.83 137.85,-495.74 123.29,-445.11"/>
<polygon fill="#c000a5" stroke="#c000a5" points="126.74,-444.48 122,-435 119.79,-445.36 126.74,-444.48"/>
<text text-anchor="middle" x="275.5" y="-456.8" font-family="Times,serif" font-size="14.00" fill="#c000a5">wr</text>
</g>
<!-- T26106 -->
<g id="node7" class="node">
<title>T26106</title>
<polygon fill="none" stroke="#0058ad" points="87.5,-324.5 87.5,-353.5 404.5,-353.5 404.5,-324.5 87.5,-324.5"/>
<text text-anchor="middle" x="126" y="-335.3" font-family="Times,serif" font-size="14.00" fill="#0058ad">r 1002 1</text>
<polyline fill="none" stroke="#0058ad" points="164.5,-324.5 164.5,-353.5 "/>
<text text-anchor="middle" x="203" y="-335.3" font-family="Times,serif" font-size="14.00" fill="#0058ad">r 999 14</text>
<polyline fill="none" stroke="#0058ad" points="241.5,-324.5 241.5,-353.5 "/>
<text text-anchor="middle" x="280" y="-335.3" font-family="Times,serif" font-size="14.00" fill="#0058ad">r 999 14</text>
<polyline fill="none" stroke="#0058ad" points="318.5,-324.5 318.5,-353.5 "/>
<text text-anchor="middle" x="361.5" y="-335.3" font-family="Times,serif" font-size="14.00" fill="#0058ad">r 1001 nil</text>
</g>
<!-- T26095&#45;&gt;T26106 -->
<g id="edge2" class="edge">
<title>T26095:f2&#45;&gt;T26106:f0</title>
<path fill="none" stroke="#c000a5" d="M354,-486C354,-448.05 353.91,-431.75 327,-405 293.51,-371.71 271.79,-383.54 226,-372 207.61,-367.36 149.58,-373.75 131.46,-362.53"/>
<polygon fill="#c000a5" stroke="#c000a5" points="134.34,-360.54 126,-354 128.44,-364.31 134.34,-360.54"/>
<text text-anchor="middle" x="358.5" y="-416.3" font-family="Times,serif" font-size="14.00" fill="#c000a5">wr</text>
</g>
<!-- T26102 -->
<g id="node2" class="node">
<title>T26102</title>
<polygon fill="none" stroke="#0058ad" points="162.5,-81.5 162.5,-110.5 405.5,-110.5 405.5,-81.5 162.5,-81.5"/>
<text text-anchor="middle" x="204" y="-92.3" font-family="Times,serif" font-size="14.00" fill="#0058ad">w 1000 2</text>
<polyline fill="none" stroke="#0058ad" points="245.5,-81.5 245.5,-110.5 "/>
<text text-anchor="middle" x="287" y="-92.3" font-family="Times,serif" font-size="14.00" fill="#0058ad">w 1000 3</text>
<polyline fill="none" stroke="#0058ad" points="328.5,-81.5 328.5,-110.5 "/>
<text text-anchor="middle" x="367" y="-92.3" font-family="Times,serif" font-size="14.00" fill="#0058ad">r 999 13</text>
</g>
<!-- T26113 -->
<g id="node6" class="node">
<title>T26113</title>
<polygon fill="none" stroke="#0058ad" points="214.5,-0.5 214.5,-29.5 537.5,-29.5 537.5,-0.5 214.5,-0.5"/>
<text text-anchor="middle" x="256" y="-11.3" font-family="Times,serif" font-size="14.00" fill="#0058ad">w 999 15</text>
<polyline fill="none" stroke="#0058ad" points="297.5,-0.5 297.5,-29.5 "/>
<text text-anchor="middle" x="336" y="-11.3" font-family="Times,serif" font-size="14.00" fill="#0058ad">r 1000 3</text>
<polyline fill="none" stroke="#0058ad" points="374.5,-0.5 374.5,-29.5 "/>
<text text-anchor="middle" x="417.5" y="-11.3" font-family="Times,serif" font-size="14.00" fill="#0058ad">r 1002 nil</text>
<polyline fill="none" stroke="#0058ad" points="460.5,-0.5 460.5,-29.5 "/>
<text text-anchor="middle" x="499" y="-11.3" font-family="Times,serif" font-size="14.00" fill="#0058ad">r 999 15</text>
</g>
<!-- T26102&#45;&gt;T26113 -->
<g id="edge3" class="edge">
<title>T26102:f1&#45;&gt;T26113:f1</title>
<path fill="none" stroke="#c000a5" d="M287,-81C287,-53.5 324.52,-59.14 333.89,-39.93"/>
<polygon fill="#c000a5" stroke="#c000a5" points="337.35,-40.51 336,-30 330.5,-39.06 337.35,-40.51"/>
<text text-anchor="middle" x="336.5" y="-51.8" font-family="Times,serif" font-size="14.00" fill="#c000a5">wr</text>
</g>
<!-- T26101&#45;&gt;T26106 -->
<g id="edge4" class="edge">
<title>T26101:f1&#45;&gt;T26106:f1</title>
<path fill="none" stroke="#c000a5" d="M203,-405C203,-386.23 203,-379.12 203,-364.35"/>
<polygon fill="#c000a5" stroke="#c000a5" points="206.5,-364 203,-354 199.5,-364 206.5,-364"/>
<text text-anchor="middle" x="212.5" y="-375.8" font-family="Times,serif" font-size="14.00" fill="#c000a5">wr</text>
</g>
<!-- T26099 -->
<g id="node4" class="node">
<title>T26099</title>
<polygon fill="none" stroke="#0058ad" points="81,-162.5 81,-191.5 407,-191.5 407,-162.5 81,-162.5"/>
<text text-anchor="middle" x="122.5" y="-173.3" font-family="Times,serif" font-size="14.00" fill="#0058ad">w 1000 1</text>
<polyline fill="none" stroke="#0058ad" points="164,-162.5 164,-191.5 "/>
<text text-anchor="middle" x="202.5" y="-173.3" font-family="Times,serif" font-size="14.00" fill="#0058ad">r 999 11</text>
<polyline fill="none" stroke="#0058ad" points="241,-162.5 241,-191.5 "/>
<text text-anchor="middle" x="282.5" y="-173.3" font-family="Times,serif" font-size="14.00" fill="#0058ad">w 1001 2</text>
<polyline fill="none" stroke="#0058ad" points="324,-162.5 324,-191.5 "/>
<text text-anchor="middle" x="365.5" y="-173.3" font-family="Times,serif" font-size="14.00" fill="#0058ad">w 999 13</text>
</g>
<!-- T26099&#45;&gt;T26102 -->
<g id="edge5" class="edge">
<title>T26099:f3&#45;&gt;T26102:f2</title>
<path fill="none" stroke="#c000a5" d="M366,-162C366,-143.23 366.69,-136.12 366.92,-121.35"/>
<polygon fill="#c000a5" stroke="#c000a5" points="370.42,-121.03 367,-111 363.42,-120.97 370.42,-121.03"/>
<text text-anchor="middle" x="376.5" y="-132.8" font-family="Times,serif" font-size="14.00" fill="#c000a5">wr</text>
</g>
<!-- T26093 -->
<g id="node5" class="node">
<title>T26093</title>
<polygon fill="none" stroke="#0058ad" points="0,-243.5 0,-272.5 326,-272.5 326,-243.5 0,-243.5"/>
<text text-anchor="middle" x="41.5" y="-254.3" font-family="Times,serif" font-size="14.00" fill="#0058ad">w 1001 1</text>
<polyline fill="none" stroke="#0058ad" points="83,-243.5 83,-272.5 "/>
<text text-anchor="middle" x="121.5" y="-254.3" font-family="Times,serif" font-size="14.00" fill="#0058ad">r 1001 1</text>
<polyline fill="none" stroke="#0058ad" points="160,-243.5 160,-272.5 "/>
<text text-anchor="middle" x="201.5" y="-254.3" font-family="Times,serif" font-size="14.00" fill="#0058ad">w 999 11</text>
<polyline fill="none" stroke="#0058ad" points="243,-243.5 243,-272.5 "/>
<text text-anchor="middle" x="284.5" y="-254.3" font-family="Times,serif" font-size="14.00" fill="#0058ad">w 981 16</text>
</g>
<!-- T26093&#45;&gt;T26099 -->
<g id="edge6" class="edge">
<title>T26093:f2&#45;&gt;T26099:f1</title>
<path fill="none" stroke="#c000a5" d="M202,-243C202,-224.23 202,-217.12 202,-202.35"/>
<polygon fill="#c000a5" stroke="#c000a5" points="205.5,-202 202,-192 198.5,-202 205.5,-202"/>
<text text-anchor="middle" x="211.5" y="-213.8" font-family="Times,serif" font-size="14.00" fill="#c000a5">wr</text>
</g>
<!-- T26113&#45;&gt;T26095 -->
<g id="edge7" class="edge">
<title>T26113:f2&#45;&gt;T26095:f2</title>
<path fill="none" stroke="#5b00c0" d="M418,-30C418,-59.86 435,-65.14 435,-95 435,-421 435,-421 435,-421 435,-456.67 436.12,-493.39 407.03,-499.96"/>
<polygon fill="#5b00c0" stroke="#5b00c0" points="406.59,-496.49 397,-501 407.31,-503.45 406.59,-496.49"/>
<text text-anchor="middle" x="444.5" y="-254.3" font-family="Times,serif" font-size="14.00" fill="#5b00c0">rw</text>
</g>
<!-- T26106&#45;&gt;T26099 -->
<g id="edge9" class="edge">
<title>T26106:f3&#45;&gt;T26099:f2</title>
<path fill="none" stroke="#5b00c0" d="M362,-324C362,-286.05 355.11,-275.18 335,-243 319.92,-218.87 291.18,-222.77 284.44,-202.09"/>
<polygon fill="#5b00c0" stroke="#5b00c0" points="287.88,-201.4 283,-192 280.95,-202.39 287.88,-201.4"/>
<text text-anchor="middle" x="362.5" y="-254.3" font-family="Times,serif" font-size="14.00" fill="#5b00c0">rw</text>
</g>
<!-- T26106&#45;&gt;T26093 -->
<g id="edge8" class="edge">
<title>T26106:f3&#45;&gt;T26093:f0</title>
<path fill="none" stroke="#5b00c0" d="M362,-324C362,-290.92 92.65,-305.95 47.41,-280.95"/>
<polygon fill="#5b00c0" stroke="#5b00c0" points="50,-278.59 41,-273 44.55,-282.98 50,-278.59"/>
<text text-anchor="middle" x="318.5" y="-294.8" font-family="Times,serif" font-size="14.00" fill="#5b00c0">rw</text>
</g>
</g>
</svg>
