<?xml version="1.0" encoding="UTF-8" standalone="no"?>
<!DOCTYPE svg PUBLIC "-//W3C//DTD SVG 1.1//EN"
 "http://www.w3.org/Graphics/SVG/1.1/DTD/svg11.dtd">
<!-- Generated by graphviz version 2.43.0 (0)
 -->
<!-- Title: a_graph Pages: 1 -->
<svg width="328pt" height="200pt"
 viewBox="0.00 0.00 327.78 200.00" xmlns="http://www.w3.org/2000/svg" xmlns:xlink="http://www.w3.org/1999/xlink">
<g id="graph0" class="graph" transform="scale(1 1) rotate(0) translate(4 196)">
<title>a_graph</title>
<polygon fill="white" stroke="transparent" points="-4,4 -4,-196 323.78,-196 323.78,4 -4,4"/>
<!-- T23922 -->
<g id="node1" class="node">
<title>T23922</title>
<polygon fill="none" stroke="#0058ad" points="26.78,-162.5 26.78,-191.5 319.78,-191.5 319.78,-162.5 26.78,-162.5"/>
<text text-anchor="middle" x="65.28" y="-173.3" font-family="Times,serif" font-size="14.00" fill="#0058ad">r 915 nil</text>
<polyline fill="none" stroke="#0058ad" points="103.78,-162.5 103.78,-191.5 "/>
<text text-anchor="middle" x="140.78" y="-173.3" font-family="Times,serif" font-size="14.00" fill="#0058ad">w 915 1</text>
<polyline fill="none" stroke="#0058ad" points="177.78,-162.5 177.78,-191.5 "/>
<text text-anchor="middle" x="214.78" y="-173.3" font-family="Times,serif" font-size="14.00" fill="#0058ad">w 914 5</text>
<polyline fill="none" stroke="#0058ad" points="251.78,-162.5 251.78,-191.5 "/>
<text text-anchor="middle" x="285.78" y="-173.3" font-family="Times,serif" font-size="14.00" fill="#0058ad">r 915 1</text>
</g>
<!-- T23930 -->
<g id="node2" class="node">
<title>T23930</title>
<polygon fill="none" stroke="#0058ad" points="162.78,-0.5 162.78,-29.5 313.78,-29.5 313.78,-0.5 162.78,-0.5"/>
<text text-anchor="middle" x="201.28" y="-11.3" font-family="Times,serif" font-size="14.00" fill="#0058ad">r 914 nil</text>
<polyline fill="none" stroke="#0058ad" points="239.78,-0.5 239.78,-29.5 "/>
<text text-anchor="middle" x="276.78" y="-11.3" font-family="Times,serif" font-size="14.00" fill="#0058ad">w 915 3</text>
</g>
<!-- T23922&#45;&gt;T23930 -->
<g id="edge2" class="edge">
<title>T23922:f0&#45;&gt;T23930:f1</title>
<path fill="none" stroke="#5b00c0" d="M25.28,-177C-17.42,-177 1.61,-113.53 29.28,-81 37.34,-71.52 225.27,-49.9 268.48,-35.3"/>
<polygon fill="#5b00c0" stroke="#5b00c0" points="270.52,-38.16 277.28,-30 266.91,-32.17 270.52,-38.16"/>
<text text-anchor="middle" x="38.78" y="-92.3" font-family="Times,serif" font-size="14.00" fill="#5b00c0">rw</text>
</g>
<!-- T23926 -->
<g id="node3" class="node">
<title>T23926</title>
<polygon fill="none" stroke="#0058ad" points="56.78,-81.5 56.78,-110.5 207.78,-110.5 207.78,-81.5 56.78,-81.5"/>
<text text-anchor="middle" x="95.28" y="-92.3" font-family="Times,serif" font-size="14.00" fill="#0058ad">r 915 nil</text>
<polyline fill="none" stroke="#0058ad" points="133.78,-81.5 133.78,-110.5 "/>
<text text-anchor="middle" x="170.78" y="-92.3" font-family="Times,serif" font-size="14.00" fill="#0058ad">w 915 2</text>
</g>
<!-- T23922&#45;&gt;T23926 -->
<g id="edge1" class="edge">
<title>T23922:f0&#45;&gt;T23926:f1</title>
<path fill="none" stroke="#5b00c0" d="M65.28,-162C65.28,-145.29 69.85,-138.93 83.28,-129 111.99,-107.77 159.75,-142.06 169.51,-120.96"/>
<polygon fill="#5b00c0" stroke="#5b00c0" points="172.97,-121.46 171.28,-111 166.08,-120.23 172.97,-121.46"/>
<text text-anchor="middle" x="92.78" y="-132.8" font-family="Times,serif" font-size="14.00" fill="#5b00c0">rw</text>
</g>
<!-- T23930&#45;&gt;T23922 -->
<g id="edge3" class="edge">
<title>T23930:f0&#45;&gt;T23922:f2</title>
<path fill="none" stroke="#5b00c0" d="M201.28,-30C201.28,-53.76 213.68,-57.52 217.28,-81 222.18,-112.98 216.66,-123.81 215.49,-151.8"/>
<polygon fill="#5b00c0" stroke="#5b00c0" points="211.99,-151.93 215.28,-162 218.98,-152.07 211.99,-151.93"/>
<text text-anchor="middle" x="227.78" y="-92.3" font-family="Times,serif" font-size="14.00" fill="#5b00c0">rw</text>
</g>
<!-- T23926&#45;&gt;T23922 -->
<g id="edge4" class="edge">
<title>T23926:f0&#45;&gt;T23922:f1</title>
<path fill="none" stroke="#5b00c0" d="M95.28,-111C95.28,-137.21 129.12,-133.58 138.11,-151.87"/>
<polygon fill="#5b00c0" stroke="#5b00c0" points="134.76,-152.96 140.28,-162 141.61,-151.49 134.76,-152.96"/>
<text text-anchor="middle" x="139.78" y="-132.8" font-family="Times,serif" font-size="14.00" fill="#5b00c0">rw</text>
</g>
<!-- T23926&#45;&gt;T23930 -->
<g id="edge5" class="edge">
<title>T23926:f0&#45;&gt;T23930:f1</title>
<path fill="none" stroke="#5b00c0" d="M95.28,-81C95.28,-0.77 261.29,-103.9 276.21,-40.14"/>
<polygon fill="#5b00c0" stroke="#5b00c0" points="279.71,-40.31 277.28,-30 272.75,-39.58 279.71,-40.31"/>
<text text-anchor="middle" x="280.78" y="-51.8" font-family="Times,serif" font-size="14.00" fill="#5b00c0">rw</text>
</g>
</g>
</svg>
