<?xml version="1.0" encoding="UTF-8" standalone="no"?>
<!DOCTYPE svg PUBLIC "-//W3C//DTD SVG 1.1//EN"
 "http://www.w3.org/Graphics/SVG/1.1/DTD/svg11.dtd">
<!-- Generated by graphviz version 2.43.0 (0)
 -->
<!-- Title: a_graph Pages: 1 -->
<svg width="387pt" height="119pt"
 viewBox="0.00 0.00 387.00 119.00" xmlns="http://www.w3.org/2000/svg" xmlns:xlink="http://www.w3.org/1999/xlink">
<g id="graph0" class="graph" transform="scale(1 1) rotate(0) translate(4 115)">
<title>a_graph</title>
<polygon fill="white" stroke="transparent" points="-4,4 -4,-115 383,-115 383,4 -4,4"/>
<!-- T5387 -->
<g id="node1" class="node">
<title>T5387</title>
<polygon fill="none" stroke="#0058ad" points="151,-81.5 151,-110.5 379,-110.5 379,-81.5 151,-81.5"/>
<text text-anchor="middle" x="189.5" y="-92.3" font-family="Times,serif" font-size="14.00" fill="#0058ad">r 212 nil</text>
<polyline fill="none" stroke="#0058ad" points="228,-81.5 228,-110.5 "/>
<text text-anchor="middle" x="265" y="-92.3" font-family="Times,serif" font-size="14.00" fill="#0058ad">w 212 2</text>
<polyline fill="none" stroke="#0058ad" points="302,-81.5 302,-110.5 "/>
<text text-anchor="middle" x="340.5" y="-92.3" font-family="Times,serif" font-size="14.00" fill="#0058ad">r 211 10</text>
</g>
<!-- T5378 -->
<g id="node2" class="node">
<title>T5378</title>
<polygon fill="none" stroke="#0058ad" points="0,-0.5 0,-29.5 302,-29.5 302,-0.5 0,-0.5"/>
<text text-anchor="middle" x="41.5" y="-11.3" font-family="Times,serif" font-size="14.00" fill="#0058ad">w 210 16</text>
<polyline fill="none" stroke="#0058ad" points="83,-0.5 83,-29.5 "/>
<text text-anchor="middle" x="117" y="-11.3" font-family="Times,serif" font-size="14.00" fill="#0058ad">r 207 1</text>
<polyline fill="none" stroke="#0058ad" points="151,-0.5 151,-29.5 "/>
<text text-anchor="middle" x="189.5" y="-11.3" font-family="Times,serif" font-size="14.00" fill="#0058ad">r 212 nil</text>
<polyline fill="none" stroke="#0058ad" points="228,-0.5 228,-29.5 "/>
<text text-anchor="middle" x="265" y="-11.3" font-family="Times,serif" font-size="14.00" fill="#0058ad">w 212 1</text>
</g>
<!-- T5387&#45;&gt;T5378 -->
<g id="edge1" class="edge">
<title>T5387:f0&#45;&gt;T5378:f3</title>
<path fill="none" stroke="#5b00c0" d="M189,-81C189,-62.05 200.56,-58.99 216,-48 231.06,-37.28 253.23,-46.95 261.62,-39.58"/>
<polygon fill="#5b00c0" stroke="#5b00c0" points="264.97,-40.59 265,-30 258.37,-38.27 264.97,-40.59"/>
<text text-anchor="middle" x="225.5" y="-51.8" font-family="Times,serif" font-size="14.00" fill="#5b00c0">rw</text>
</g>
<!-- T5378&#45;&gt;T5387 -->
<g id="edge2" class="edge">
<title>T5378:f2&#45;&gt;T5387:f1</title>
<path fill="none" stroke="#5b00c0" d="M190,-30C190,-51.54 217.3,-35.72 235,-48 247.98,-57.01 259.32,-60.03 263.4,-70.91"/>
<polygon fill="#5b00c0" stroke="#5b00c0" points="259.97,-71.67 265,-81 266.89,-70.57 259.97,-71.67"/>
<text text-anchor="middle" x="266.5" y="-51.8" font-family="Times,serif" font-size="14.00" fill="#5b00c0">rw</text>
</g>
</g>
</svg>
