<?xml version="1.0" encoding="UTF-8" standalone="no"?>
<!DOCTYPE svg PUBLIC "-//W3C//DTD SVG 1.1//EN"
 "http://www.w3.org/Graphics/SVG/1.1/DTD/svg11.dtd">
<!-- Generated by graphviz version 2.43.0 (0)
 -->
<!-- Title: a_graph Pages: 1 -->
<svg width="362pt" height="281pt"
 viewBox="0.00 0.00 361.50 281.00" xmlns="http://www.w3.org/2000/svg" xmlns:xlink="http://www.w3.org/1999/xlink">
<g id="graph0" class="graph" transform="scale(1 1) rotate(0) translate(4 277)">
<title>a_graph</title>
<polygon fill="white" stroke="transparent" points="-4,4 -4,-277 357.5,-277 357.5,4 -4,4"/>
<!-- T27036 -->
<g id="node1" class="node">
<title>T27036</title>
<polygon fill="none" stroke="#0058ad" points="9.5,-243.5 9.5,-272.5 353.5,-272.5 353.5,-243.5 9.5,-243.5"/>
<text text-anchor="middle" x="55.5" y="-254.3" font-family="Times,serif" font-size="14.00" fill="#0058ad">w 1034 14</text>
<polyline fill="none" stroke="#0058ad" points="101.5,-243.5 101.5,-272.5 "/>
<text text-anchor="middle" x="143" y="-254.3" font-family="Times,serif" font-size="14.00" fill="#0058ad">w 1035 2</text>
<polyline fill="none" stroke="#0058ad" points="184.5,-243.5 184.5,-272.5 "/>
<text text-anchor="middle" x="230.5" y="-254.3" font-family="Times,serif" font-size="14.00" fill="#0058ad">w 1034 15</text>
<polyline fill="none" stroke="#0058ad" points="276.5,-243.5 276.5,-272.5 "/>
<text text-anchor="middle" x="315" y="-254.3" font-family="Times,serif" font-size="14.00" fill="#0058ad">r 1033 4</text>
</g>
<!-- T27044 -->
<g id="node2" class="node">
<title>T27044</title>
<polygon fill="none" stroke="#0058ad" points="121,-162.5 121,-191.5 284,-191.5 284,-162.5 121,-162.5"/>
<text text-anchor="middle" x="164" y="-173.3" font-family="Times,serif" font-size="14.00" fill="#0058ad">r 1036 nil</text>
<polyline fill="none" stroke="#0058ad" points="207,-162.5 207,-191.5 "/>
<text text-anchor="middle" x="245.5" y="-173.3" font-family="Times,serif" font-size="14.00" fill="#0058ad">r 1035 2</text>
</g>
<!-- T27036&#45;&gt;T27044 -->
<g id="edge1" class="edge">
<title>T27036:f1&#45;&gt;T27044:f1</title>
<path fill="none" stroke="#c000a5" d="M142.5,-243C142.5,-195.91 230.03,-235.71 243.71,-202.2"/>
<polygon fill="#c000a5" stroke="#c000a5" points="247.22,-202.45 245.5,-192 240.33,-201.25 247.22,-202.45"/>
<text text-anchor="middle" x="247" y="-213.8" font-family="Times,serif" font-size="14.00" fill="#c000a5">wr</text>
</g>
<!-- T27041 -->
<g id="node4" class="node">
<title>T27041</title>
<polygon fill="none" stroke="#0058ad" points="32,-81.5 32,-110.5 287,-110.5 287,-81.5 32,-81.5"/>
<text text-anchor="middle" x="75" y="-92.3" font-family="Times,serif" font-size="14.00" fill="#0058ad">r 1035 nil</text>
<polyline fill="none" stroke="#0058ad" points="118,-81.5 118,-110.5 "/>
<text text-anchor="middle" x="161" y="-92.3" font-family="Times,serif" font-size="14.00" fill="#0058ad">r 1036 nil</text>
<polyline fill="none" stroke="#0058ad" points="204,-81.5 204,-110.5 "/>
<text text-anchor="middle" x="245.5" y="-92.3" font-family="Times,serif" font-size="14.00" fill="#0058ad">w 1036 1</text>
</g>
<!-- T27044&#45;&gt;T27041 -->
<g id="edge2" class="edge">
<title>T27044:f0&#45;&gt;T27041:f2</title>
<path fill="none" stroke="#5b00c0" d="M163.5,-162C163.5,-123.11 230.85,-148.07 243.47,-121.15"/>
<polygon fill="#5b00c0" stroke="#5b00c0" points="246.97,-121.49 245.5,-111 240.11,-120.12 246.97,-121.49"/>
<text text-anchor="middle" x="245" y="-132.8" font-family="Times,serif" font-size="14.00" fill="#5b00c0">rw</text>
</g>
<!-- T27032 -->
<g id="node3" class="node">
<title>T27032</title>
<polygon fill="none" stroke="#0058ad" points="0,-0.5 0,-29.5 341,-29.5 341,-0.5 0,-0.5"/>
<text text-anchor="middle" x="41.5" y="-11.3" font-family="Times,serif" font-size="14.00" fill="#0058ad">w 1032 9</text>
<polyline fill="none" stroke="#0058ad" points="83,-0.5 83,-29.5 "/>
<text text-anchor="middle" x="124.5" y="-11.3" font-family="Times,serif" font-size="14.00" fill="#0058ad">w 1035 1</text>
<polyline fill="none" stroke="#0058ad" points="166,-0.5 166,-29.5 "/>
<text text-anchor="middle" x="212" y="-11.3" font-family="Times,serif" font-size="14.00" fill="#0058ad">w 1032 10</text>
<polyline fill="none" stroke="#0058ad" points="258,-0.5 258,-29.5 "/>
<text text-anchor="middle" x="299.5" y="-11.3" font-family="Times,serif" font-size="14.00" fill="#0058ad">w 1033 4</text>
</g>
<!-- T27032&#45;&gt;T27036 -->
<g id="edge3" class="edge">
<title>T27032:f3&#45;&gt;T27036:f3</title>
<path fill="none" stroke="#c000a5" d="M299.5,-30C299.5,-121.5 314.36,-146.3 315.44,-232.98"/>
<polygon fill="#c000a5" stroke="#c000a5" points="311.94,-233.02 315.5,-243 318.94,-232.98 311.94,-233.02"/>
<text text-anchor="middle" x="317" y="-132.8" font-family="Times,serif" font-size="14.00" fill="#c000a5">wr</text>
</g>
<!-- T27041&#45;&gt;T27036 -->
<g id="edge5" class="edge">
<title>T27041:f0&#45;&gt;T27036:f1</title>
<path fill="none" stroke="#5b00c0" d="M74.5,-111C74.5,-147.88 74.91,-159.58 92.5,-192 105.74,-216.41 134.09,-212.85 140.97,-232.84"/>
<polygon fill="#5b00c0" stroke="#5b00c0" points="137.55,-233.63 142.5,-243 144.47,-232.59 137.55,-233.63"/>
<text text-anchor="middle" x="102" y="-173.3" font-family="Times,serif" font-size="14.00" fill="#5b00c0">rw</text>
</g>
<!-- T27041&#45;&gt;T27032 -->
<g id="edge4" class="edge">
<title>T27041:f0&#45;&gt;T27032:f1</title>
<path fill="none" stroke="#5b00c0" d="M74.5,-81C74.5,-53.23 112.78,-59.31 122.35,-40"/>
<polygon fill="#5b00c0" stroke="#5b00c0" points="125.82,-40.51 124.5,-30 118.98,-39.04 125.82,-40.51"/>
<text text-anchor="middle" x="125" y="-51.8" font-family="Times,serif" font-size="14.00" fill="#5b00c0">rw</text>
</g>
</g>
</svg>
