<?xml version="1.0" encoding="UTF-8" standalone="no"?>
<!DOCTYPE svg PUBLIC "-//W3C//DTD SVG 1.1//EN"
 "http://www.w3.org/Graphics/SVG/1.1/DTD/svg11.dtd">
<!-- Generated by graphviz version 2.43.0 (0)
 -->
<!-- Title: a_graph Pages: 1 -->
<svg width="319pt" height="119pt"
 viewBox="0.00 0.00 319.00 119.00" xmlns="http://www.w3.org/2000/svg" xmlns:xlink="http://www.w3.org/1999/xlink">
<g id="graph0" class="graph" transform="scale(1 1) rotate(0) translate(4 115)">
<title>a_graph</title>
<polygon fill="white" stroke="transparent" points="-4,4 -4,-115 315,-115 315,4 -4,4"/>
<!-- T17937 -->
<g id="node1" class="node">
<title>T17937</title>
<polygon fill="none" stroke="#0058ad" points="98,-81.5 98,-110.5 249,-110.5 249,-81.5 98,-81.5"/>
<text text-anchor="middle" x="136.5" y="-92.3" font-family="Times,serif" font-size="14.00" fill="#0058ad">r 688 nil</text>
<polyline fill="none" stroke="#0058ad" points="175,-81.5 175,-110.5 "/>
<text text-anchor="middle" x="212" y="-92.3" font-family="Times,serif" font-size="14.00" fill="#0058ad">w 689 2</text>
</g>
<!-- T17929 -->
<g id="node2" class="node">
<title>T17929</title>
<polygon fill="none" stroke="#0058ad" points="0,-0.5 0,-29.5 311,-29.5 311,-0.5 0,-0.5"/>
<text text-anchor="middle" x="37" y="-11.3" font-family="Times,serif" font-size="14.00" fill="#0058ad">w 688 4</text>
<polyline fill="none" stroke="#0058ad" points="74,-0.5 74,-29.5 "/>
<text text-anchor="middle" x="115.5" y="-11.3" font-family="Times,serif" font-size="14.00" fill="#0058ad">w 687 15</text>
<polyline fill="none" stroke="#0058ad" points="157,-0.5 157,-29.5 "/>
<text text-anchor="middle" x="195.5" y="-11.3" font-family="Times,serif" font-size="14.00" fill="#0058ad">r 687 15</text>
<polyline fill="none" stroke="#0058ad" points="234,-0.5 234,-29.5 "/>
<text text-anchor="middle" x="272.5" y="-11.3" font-family="Times,serif" font-size="14.00" fill="#0058ad">r 689 nil</text>
</g>
<!-- T17937&#45;&gt;T17929 -->
<g id="edge1" class="edge">
<title>T17937:f0&#45;&gt;T17929:f0</title>
<path fill="none" stroke="#5b00c0" d="M96.5,-96C60.42,-96 40.31,-74.17 36.99,-40.35"/>
<polygon fill="#5b00c0" stroke="#5b00c0" points="40.47,-39.82 36.5,-30 33.48,-40.15 40.47,-39.82"/>
<text text-anchor="middle" x="52" y="-51.8" font-family="Times,serif" font-size="14.00" fill="#5b00c0">rw</text>
</g>
<!-- T17929&#45;&gt;T17937 -->
<g id="edge2" class="edge">
<title>T17929:f3&#45;&gt;T17937:f1</title>
<path fill="none" stroke="#5b00c0" d="M272.5,-30C272.5,-56.81 279.21,-86.76 260.83,-94.24"/>
<polygon fill="#5b00c0" stroke="#5b00c0" points="259.77,-90.87 250.5,-96 260.95,-97.77 259.77,-90.87"/>
<text text-anchor="middle" x="283" y="-51.8" font-family="Times,serif" font-size="14.00" fill="#5b00c0">rw</text>
</g>
</g>
</svg>
