<?xml version="1.0" encoding="UTF-8" standalone="no"?>
<!DOCTYPE svg PUBLIC "-//W3C//DTD SVG 1.1//EN"
 "http://www.w3.org/Graphics/SVG/1.1/DTD/svg11.dtd">
<!-- Generated by graphviz version 2.43.0 (0)
 -->
<!-- Title: a_graph Pages: 1 -->
<svg width="1250pt" height="1349pt"
 viewBox="0.00 0.00 1250.00 1349.00" xmlns="http://www.w3.org/2000/svg" xmlns:xlink="http://www.w3.org/1999/xlink">
<g id="graph0" class="graph" transform="scale(1 1) rotate(0) translate(4 1345)">
<title>a_graph</title>
<polygon fill="white" stroke="transparent" points="-4,4 -4,-1345 1246,-1345 1246,4 -4,4"/>
<!-- T6750 -->
<g id="node1" class="node">
<title>T6750</title>
<polygon fill="none" stroke="#0058ad" points="703,-1311.5 703,-1340.5 919,-1340.5 919,-1311.5 703,-1311.5"/>
<text text-anchor="middle" x="740" y="-1322.3" font-family="Times,serif" font-size="14.00" fill="#0058ad">w 262 9</text>
<polyline fill="none" stroke="#0058ad" points="777,-1311.5 777,-1340.5 "/>
<text text-anchor="middle" x="811" y="-1322.3" font-family="Times,serif" font-size="14.00" fill="#0058ad">r 262 9</text>
<polyline fill="none" stroke="#0058ad" points="845,-1311.5 845,-1340.5 "/>
<text text-anchor="middle" x="882" y="-1322.3" font-family="Times,serif" font-size="14.00" fill="#0058ad">w 253 3</text>
</g>
<!-- T6755 -->
<g id="node17" class="node">
<title>T6755</title>
<polygon fill="none" stroke="#0058ad" points="404,-1230.5 404,-1259.5 706,-1259.5 706,-1230.5 404,-1230.5"/>
<text text-anchor="middle" x="438" y="-1241.3" font-family="Times,serif" font-size="14.00" fill="#0058ad">r 262 9</text>
<polyline fill="none" stroke="#0058ad" points="472,-1230.5 472,-1259.5 "/>
<text text-anchor="middle" x="513.5" y="-1241.3" font-family="Times,serif" font-size="14.00" fill="#0058ad">w 262 12</text>
<polyline fill="none" stroke="#0058ad" points="555,-1230.5 555,-1259.5 "/>
<text text-anchor="middle" x="589" y="-1241.3" font-family="Times,serif" font-size="14.00" fill="#0058ad">r 263 3</text>
<polyline fill="none" stroke="#0058ad" points="623,-1230.5 623,-1259.5 "/>
<text text-anchor="middle" x="664.5" y="-1241.3" font-family="Times,serif" font-size="14.00" fill="#0058ad">w 262 13</text>
</g>
<!-- T6750&#45;&gt;T6755 -->
<g id="edge1" class="edge">
<title>T6750:f0&#45;&gt;T6755:f0</title>
<path fill="none" stroke="#c000a5" d="M740,-1311C740,-1178.47 453.72,-1384.7 438.62,-1270.04"/>
<polygon fill="#c000a5" stroke="#c000a5" points="442.11,-1269.77 438,-1260 435.12,-1270.2 442.11,-1269.77"/>
<text text-anchor="middle" x="746.5" y="-1281.8" font-family="Times,serif" font-size="14.00" fill="#c000a5">wr</text>
</g>
<!-- T6729 -->
<g id="node2" class="node">
<title>T6729</title>
<polygon fill="none" stroke="#0058ad" points="874.5,-744.5 874.5,-773.5 1167.5,-773.5 1167.5,-744.5 874.5,-744.5"/>
<text text-anchor="middle" x="913" y="-755.3" font-family="Times,serif" font-size="14.00" fill="#0058ad">r 262 nil</text>
<polyline fill="none" stroke="#0058ad" points="951.5,-744.5 951.5,-773.5 "/>
<text text-anchor="middle" x="988.5" y="-755.3" font-family="Times,serif" font-size="14.00" fill="#0058ad">w 262 2</text>
<polyline fill="none" stroke="#0058ad" points="1025.5,-744.5 1025.5,-773.5 "/>
<text text-anchor="middle" x="1059.5" y="-755.3" font-family="Times,serif" font-size="14.00" fill="#0058ad">r 262 2</text>
<polyline fill="none" stroke="#0058ad" points="1093.5,-744.5 1093.5,-773.5 "/>
<text text-anchor="middle" x="1130.5" y="-755.3" font-family="Times,serif" font-size="14.00" fill="#0058ad">w 261 1</text>
</g>
<!-- T6729&#45;&gt;T6750 -->
<g id="edge9" class="edge">
<title>T6729:f0&#45;&gt;T6750:f0</title>
<path fill="none" stroke="#5b00c0" d="M913,-774C913,-799.3 944.62,-780.2 967,-792 997.59,-808.13 1029,-804.42 1029,-839 1029,-1246 1029,-1246 1029,-1246 1029,-1276.02 788.57,-1277.97 746.3,-1303.06"/>
<polygon fill="#5b00c0" stroke="#5b00c0" points="743.48,-1300.99 740,-1311 748.96,-1305.34 743.48,-1300.99"/>
<text text-anchor="middle" x="1038.5" y="-1038.8" font-family="Times,serif" font-size="14.00" fill="#5b00c0">rw</text>
</g>
<!-- T6743 -->
<g id="node4" class="node">
<title>T6743</title>
<polygon fill="none" stroke="#0058ad" points="813,-405.5 813,-434.5 955,-434.5 955,-405.5 813,-405.5"/>
<text text-anchor="middle" x="847" y="-416.3" font-family="Times,serif" font-size="14.00" fill="#0058ad">r 262 6</text>
<polyline fill="none" stroke="#0058ad" points="881,-405.5 881,-434.5 "/>
<text text-anchor="middle" x="918" y="-416.3" font-family="Times,serif" font-size="14.00" fill="#0058ad">w 262 7</text>
</g>
<!-- T6729&#45;&gt;T6743 -->
<g id="edge6" class="edge">
<title>T6729:f0&#45;&gt;T6743:f1</title>
<path fill="none" stroke="#5b00c0" d="M913,-744C913,-610.14 917.75,-574.16 917.99,-445.27"/>
<polygon fill="#5b00c0" stroke="#5b00c0" points="921.49,-445 918,-435 914.49,-445 921.49,-445"/>
<text text-anchor="middle" x="926.5" y="-578.3" font-family="Times,serif" font-size="14.00" fill="#5b00c0">rw</text>
</g>
<!-- T6737 -->
<g id="node6" class="node">
<title>T6737</title>
<polygon fill="none" stroke="#0058ad" points="683,-486.5 683,-515.5 899,-515.5 899,-486.5 683,-486.5"/>
<text text-anchor="middle" x="720" y="-497.3" font-family="Times,serif" font-size="14.00" fill="#0058ad">w 262 6</text>
<polyline fill="none" stroke="#0058ad" points="757,-486.5 757,-515.5 "/>
<text text-anchor="middle" x="794" y="-497.3" font-family="Times,serif" font-size="14.00" fill="#0058ad">w 263 1</text>
<polyline fill="none" stroke="#0058ad" points="831,-486.5 831,-515.5 "/>
<text text-anchor="middle" x="865" y="-497.3" font-family="Times,serif" font-size="14.00" fill="#0058ad">r 262 6</text>
</g>
<!-- T6729&#45;&gt;T6737 -->
<g id="edge7" class="edge">
<title>T6729:f0&#45;&gt;T6737:f0</title>
<path fill="none" stroke="#5b00c0" d="M873,-759C829.59,-759 865.45,-705.13 855,-663 840.56,-604.74 859.78,-573.97 815,-534 786.07,-508.18 732,-549.29 721.71,-525.99"/>
<polygon fill="#5b00c0" stroke="#5b00c0" points="725.14,-525.26 720,-516 718.24,-526.45 725.14,-525.26"/>
<text text-anchor="middle" x="861.5" y="-626.3" font-family="Times,serif" font-size="14.00" fill="#5b00c0">rw</text>
</g>
<!-- T6731 -->
<g id="node8" class="node">
<title>T6731</title>
<polygon fill="none" stroke="#0058ad" points="926.5,-0.5 926.5,-29.5 1207.5,-29.5 1207.5,-0.5 926.5,-0.5"/>
<text text-anchor="middle" x="960.5" y="-11.3" font-family="Times,serif" font-size="14.00" fill="#0058ad">r 242 2</text>
<polyline fill="none" stroke="#0058ad" points="994.5,-0.5 994.5,-29.5 "/>
<text text-anchor="middle" x="1033" y="-11.3" font-family="Times,serif" font-size="14.00" fill="#0058ad">r 259 16</text>
<polyline fill="none" stroke="#0058ad" points="1071.5,-0.5 1071.5,-29.5 "/>
<text text-anchor="middle" x="1105.5" y="-11.3" font-family="Times,serif" font-size="14.00" fill="#0058ad">r 262 2</text>
<polyline fill="none" stroke="#0058ad" points="1139.5,-0.5 1139.5,-29.5 "/>
<text text-anchor="middle" x="1173.5" y="-11.3" font-family="Times,serif" font-size="14.00" fill="#0058ad">r 262 2</text>
</g>
<!-- T6729&#45;&gt;T6731 -->
<g id="edge2" class="edge">
<title>T6729:f1&#45;&gt;T6731:f2</title>
<path fill="none" stroke="#c000a5" d="M988,-744C988,-721.8 1167.56,-736.72 1187,-726 1210.04,-713.3 1223,-705.31 1223,-679 1223,-679 1223,-679 1223,-95 1223,-68.63 1131.01,-61.3 1110.16,-39.25"/>
<polygon fill="#c000a5" stroke="#c000a5" points="1113.3,-37.68 1106,-30 1106.92,-40.56 1113.3,-37.68"/>
<text text-anchor="middle" x="1232.5" y="-375.8" font-family="Times,serif" font-size="14.00" fill="#c000a5">wr</text>
</g>
<!-- T6728 -->
<g id="node11" class="node">
<title>T6728</title>
<polygon fill="none" stroke="#0058ad" points="627.5,-663.5 627.5,-692.5 846.5,-692.5 846.5,-663.5 627.5,-663.5"/>
<text text-anchor="middle" x="666" y="-674.3" font-family="Times,serif" font-size="14.00" fill="#0058ad">r 261 nil</text>
<polyline fill="none" stroke="#0058ad" points="704.5,-663.5 704.5,-692.5 "/>
<text text-anchor="middle" x="741.5" y="-674.3" font-family="Times,serif" font-size="14.00" fill="#0058ad">w 262 1</text>
<polyline fill="none" stroke="#0058ad" points="778.5,-663.5 778.5,-692.5 "/>
<text text-anchor="middle" x="812.5" y="-674.3" font-family="Times,serif" font-size="14.00" fill="#0058ad">r 262 1</text>
</g>
<!-- T6729&#45;&gt;T6728 -->
<g id="edge10" class="edge">
<title>T6729:f0&#45;&gt;T6728:f1</title>
<path fill="none" stroke="#5b00c0" d="M873,-759C811.37,-759 749.2,-758.28 742.58,-703.13"/>
<polygon fill="#5b00c0" stroke="#5b00c0" points="746.07,-702.78 742,-693 739.08,-703.18 746.07,-702.78"/>
<text text-anchor="middle" x="759.5" y="-714.8" font-family="Times,serif" font-size="14.00" fill="#5b00c0">rw</text>
</g>
<!-- T6753 -->
<g id="node15" class="node">
<title>T6753</title>
<polygon fill="none" stroke="#0058ad" points="1123.5,-615.5 1123.5,-644.5 1206.5,-644.5 1206.5,-615.5 1123.5,-615.5"/>
<text text-anchor="middle" x="1165" y="-626.3" font-family="Times,serif" font-size="14.00" fill="#0058ad">w 262 11</text>
</g>
<!-- T6729&#45;&gt;T6753 -->
<g id="edge3" class="edge">
<title>T6729:f0&#45;&gt;T6753:f0</title>
<path fill="none" stroke="#5b00c0" d="M913,-744C913,-717.48 1129.26,-741.19 1151,-726 1172.81,-710.76 1173.03,-677.77 1170.01,-654.74"/>
<polygon fill="#5b00c0" stroke="#5b00c0" points="1173.43,-653.98 1168.4,-644.66 1166.52,-655.09 1173.43,-653.98"/>
<text text-anchor="middle" x="1173.5" y="-714.8" font-family="Times,serif" font-size="14.00" fill="#5b00c0">rw</text>
</g>
<!-- T6729&#45;&gt;T6755 -->
<g id="edge8" class="edge">
<title>T6729:f0&#45;&gt;T6755:f3</title>
<path fill="none" stroke="#5b00c0" d="M913,-774C913,-789.17 930.5,-782.11 942,-792 962.79,-809.89 982,-811.57 982,-839 982,-1165 982,-1165 982,-1165 982,-1225.54 790.78,-1243.29 717.34,-1244.88"/>
<polygon fill="#5b00c0" stroke="#5b00c0" points="716.96,-1241.38 707,-1245 717.04,-1248.38 716.96,-1241.38"/>
<text text-anchor="middle" x="991.5" y="-998.3" font-family="Times,serif" font-size="14.00" fill="#5b00c0">rw</text>
</g>
<!-- T6736 -->
<g id="node20" class="node">
<title>T6736</title>
<polygon fill="none" stroke="#0058ad" points="941,-663.5 941,-692.5 1157,-692.5 1157,-663.5 941,-663.5"/>
<text text-anchor="middle" x="975" y="-674.3" font-family="Times,serif" font-size="14.00" fill="#0058ad">r 262 2</text>
<polyline fill="none" stroke="#0058ad" points="1009,-663.5 1009,-692.5 "/>
<text text-anchor="middle" x="1046" y="-674.3" font-family="Times,serif" font-size="14.00" fill="#0058ad">w 262 4</text>
<polyline fill="none" stroke="#0058ad" points="1083,-663.5 1083,-692.5 "/>
<text text-anchor="middle" x="1120" y="-674.3" font-family="Times,serif" font-size="14.00" fill="#0058ad">w 262 5</text>
</g>
<!-- T6729&#45;&gt;T6736 -->
<g id="edge4" class="edge">
<title>T6729:f1&#45;&gt;T6736:f0</title>
<path fill="none" stroke="#c000a5" d="M988,-744C988,-724.45 978.92,-718.29 975.93,-703.13"/>
<polygon fill="#c000a5" stroke="#c000a5" points="979.4,-702.64 975,-693 972.43,-703.28 979.4,-702.64"/>
<text text-anchor="middle" x="994.5" y="-714.8" font-family="Times,serif" font-size="14.00" fill="#c000a5">wr</text>
</g>
<!-- T6774 -->
<g id="node22" class="node">
<title>T6774</title>
<polygon fill="none" stroke="#0058ad" points="627,-1068.5 627,-1097.5 929,-1097.5 929,-1068.5 627,-1068.5"/>
<text text-anchor="middle" x="665.5" y="-1079.3" font-family="Times,serif" font-size="14.00" fill="#0058ad">r 262 13</text>
<polyline fill="none" stroke="#0058ad" points="704,-1068.5 704,-1097.5 "/>
<text text-anchor="middle" x="738" y="-1079.3" font-family="Times,serif" font-size="14.00" fill="#0058ad">r 263 5</text>
<polyline fill="none" stroke="#0058ad" points="772,-1068.5 772,-1097.5 "/>
<text text-anchor="middle" x="809" y="-1079.3" font-family="Times,serif" font-size="14.00" fill="#0058ad">w 261 6</text>
<polyline fill="none" stroke="#0058ad" points="846,-1068.5 846,-1097.5 "/>
<text text-anchor="middle" x="887.5" y="-1079.3" font-family="Times,serif" font-size="14.00" fill="#0058ad">w 262 14</text>
</g>
<!-- T6729&#45;&gt;T6774 -->
<g id="edge5" class="edge">
<title>T6729:f0&#45;&gt;T6774:f3</title>
<path fill="none" stroke="#5b00c0" d="M913,-774C913,-783.87 922.9,-782.63 926,-792 935.19,-819.76 957.47,-1035.28 937.74,-1076.28"/>
<polygon fill="#5b00c0" stroke="#5b00c0" points="935.26,-1073.8 930,-1083 939.85,-1079.09 935.26,-1073.8"/>
<text text-anchor="middle" x="953.5" y="-917.3" font-family="Times,serif" font-size="14.00" fill="#5b00c0">rw</text>
</g>
<!-- T6769 -->
<g id="node3" class="node">
<title>T6769</title>
<polygon fill="none" stroke="#0058ad" points="429,-486.5 429,-515.5 627,-515.5 627,-486.5 429,-486.5"/>
<text text-anchor="middle" x="466" y="-497.3" font-family="Times,serif" font-size="14.00" fill="#0058ad">w 263 5</text>
<polyline fill="none" stroke="#0058ad" points="503,-486.5 503,-515.5 "/>
<text text-anchor="middle" x="537" y="-497.3" font-family="Times,serif" font-size="14.00" fill="#0058ad">r 263 5</text>
<polyline fill="none" stroke="#0058ad" points="571,-486.5 571,-515.5 "/>
<text text-anchor="middle" x="599" y="-497.3" font-family="Times,serif" font-size="14.00" fill="#0058ad">w 0 5</text>
</g>
<!-- T6769&#45;&gt;T6774 -->
<g id="edge11" class="edge">
<title>T6769:f0&#45;&gt;T6774:f1</title>
<path fill="none" stroke="#c000a5" d="M466,-516C466,-630.28 512.78,-926.07 582,-1017 596.38,-1035.89 602.24,-1040.51 624,-1050 644.11,-1058.77 713.24,-1046.94 732.8,-1059.39"/>
<polygon fill="#c000a5" stroke="#c000a5" points="729.84,-1061.25 738,-1068 735.83,-1057.63 729.84,-1061.25"/>
<text text-anchor="middle" x="514.5" y="-795.8" font-family="Times,serif" font-size="14.00" fill="#c000a5">wr</text>
</g>
<!-- T6747 -->
<g id="node5" class="node">
<title>T6747</title>
<polygon fill="none" stroke="#0058ad" points="810,-324.5 810,-353.5 1020,-353.5 1020,-324.5 810,-324.5"/>
<text text-anchor="middle" x="847" y="-335.3" font-family="Times,serif" font-size="14.00" fill="#0058ad">w 263 4</text>
<polyline fill="none" stroke="#0058ad" points="884,-324.5 884,-353.5 "/>
<text text-anchor="middle" x="918" y="-335.3" font-family="Times,serif" font-size="14.00" fill="#0058ad">r 262 7</text>
<polyline fill="none" stroke="#0058ad" points="952,-324.5 952,-353.5 "/>
<text text-anchor="middle" x="986" y="-335.3" font-family="Times,serif" font-size="14.00" fill="#0058ad">r 263 4</text>
</g>
<!-- T6743&#45;&gt;T6747 -->
<g id="edge12" class="edge">
<title>T6743:f1&#45;&gt;T6747:f1</title>
<path fill="none" stroke="#c000a5" d="M918,-405C918,-386.23 918,-379.12 918,-364.35"/>
<polygon fill="#c000a5" stroke="#c000a5" points="921.5,-364 918,-354 914.5,-364 921.5,-364"/>
<text text-anchor="middle" x="927.5" y="-375.8" font-family="Times,serif" font-size="14.00" fill="#c000a5">wr</text>
</g>
<!-- T6757 -->
<g id="node23" class="node">
<title>T6757</title>
<polygon fill="none" stroke="#0058ad" points="856,-243.5 856,-272.5 1078,-272.5 1078,-243.5 856,-243.5"/>
<text text-anchor="middle" x="894.5" y="-254.3" font-family="Times,serif" font-size="14.00" fill="#0058ad">r 257 nil</text>
<polyline fill="none" stroke="#0058ad" points="933,-243.5 933,-272.5 "/>
<text text-anchor="middle" x="971.5" y="-254.3" font-family="Times,serif" font-size="14.00" fill="#0058ad">r 262 11</text>
<polyline fill="none" stroke="#0058ad" points="1010,-243.5 1010,-272.5 "/>
<text text-anchor="middle" x="1044" y="-254.3" font-family="Times,serif" font-size="14.00" fill="#0058ad">r 263 4</text>
</g>
<!-- T6747&#45;&gt;T6757 -->
<g id="edge13" class="edge">
<title>T6747:f0&#45;&gt;T6757:f2</title>
<path fill="none" stroke="#c000a5" d="M847,-324C847,-237.27 1028.17,-353.16 1043.03,-283.05"/>
<polygon fill="#c000a5" stroke="#c000a5" points="1046.53,-283.29 1044,-273 1039.56,-282.62 1046.53,-283.29"/>
<text text-anchor="middle" x="1048.5" y="-294.8" font-family="Times,serif" font-size="14.00" fill="#c000a5">wr</text>
</g>
<!-- T6737&#45;&gt;T6743 -->
<g id="edge14" class="edge">
<title>T6737:f0&#45;&gt;T6743:f0</title>
<path fill="none" stroke="#c000a5" d="M720,-486C720,-439.12 756.17,-422.31 801.81,-420.23"/>
<polygon fill="#c000a5" stroke="#c000a5" points="802.08,-423.72 812,-420 801.92,-416.72 802.08,-423.72"/>
<text text-anchor="middle" x="737.5" y="-456.8" font-family="Times,serif" font-size="14.00" fill="#c000a5">wr</text>
</g>
<!-- T6725 -->
<g id="node7" class="node">
<title>T6725</title>
<polygon fill="none" stroke="#0058ad" points="293.5,-81.5 293.5,-110.5 604.5,-110.5 604.5,-81.5 293.5,-81.5"/>
<text text-anchor="middle" x="327.5" y="-92.3" font-family="Times,serif" font-size="14.00" fill="#0058ad">r 257 4</text>
<polyline fill="none" stroke="#0058ad" points="361.5,-81.5 361.5,-110.5 "/>
<text text-anchor="middle" x="403" y="-92.3" font-family="Times,serif" font-size="14.00" fill="#0058ad">w 259 15</text>
<polyline fill="none" stroke="#0058ad" points="444.5,-81.5 444.5,-110.5 "/>
<text text-anchor="middle" x="483" y="-92.3" font-family="Times,serif" font-size="14.00" fill="#0058ad">r 259 15</text>
<polyline fill="none" stroke="#0058ad" points="521.5,-81.5 521.5,-110.5 "/>
<text text-anchor="middle" x="563" y="-92.3" font-family="Times,serif" font-size="14.00" fill="#0058ad">w 259 16</text>
</g>
<!-- T6725&#45;&gt;T6731 -->
<g id="edge15" class="edge">
<title>T6725:f3&#45;&gt;T6731:f1</title>
<path fill="none" stroke="#c000a5" d="M606,-96C613.56,-96 607.77,-85.27 614,-81 688.34,-30.03 1006.71,-116.54 1031.47,-40.14"/>
<polygon fill="#c000a5" stroke="#c000a5" points="1034.97,-40.41 1033,-30 1028.05,-39.37 1034.97,-40.41"/>
<text text-anchor="middle" x="1036.5" y="-51.8" font-family="Times,serif" font-size="14.00" fill="#c000a5">wr</text>
</g>
<!-- T6731&#45;&gt;T6736 -->
<g id="edge16" class="edge">
<title>T6731:f2&#45;&gt;T6736:f2</title>
<path fill="none" stroke="#5b00c0" d="M1106,-30C1106,-58.89 1106,-66.11 1106,-95 1106,-583 1106,-583 1106,-583 1106,-615.43 1117.3,-625.03 1119.6,-652.82"/>
<polygon fill="#5b00c0" stroke="#5b00c0" points="1116.11,-653.15 1120,-663 1123.1,-652.87 1116.11,-653.15"/>
<text text-anchor="middle" x="1115.5" y="-335.3" font-family="Times,serif" font-size="14.00" fill="#5b00c0">rw</text>
</g>
<!-- T6631 -->
<g id="node9" class="node">
<title>T6631</title>
<polygon fill="none" stroke="#0058ad" points="697,-162.5 697,-191.5 931,-191.5 931,-162.5 697,-162.5"/>
<text text-anchor="middle" x="738.5" y="-173.3" font-family="Times,serif" font-size="14.00" fill="#0058ad">w 248 13</text>
<polyline fill="none" stroke="#0058ad" points="780,-162.5 780,-191.5 "/>
<text text-anchor="middle" x="818.5" y="-173.3" font-family="Times,serif" font-size="14.00" fill="#0058ad">r 248 13</text>
<polyline fill="none" stroke="#0058ad" points="857,-162.5 857,-191.5 "/>
<text text-anchor="middle" x="894" y="-173.3" font-family="Times,serif" font-size="14.00" fill="#0058ad">w 257 1</text>
</g>
<!-- T6703 -->
<g id="node10" class="node">
<title>T6703</title>
<polygon fill="none" stroke="#0058ad" points="623,-81.5 623,-110.5 943,-110.5 943,-81.5 623,-81.5"/>
<text text-anchor="middle" x="661.5" y="-92.3" font-family="Times,serif" font-size="14.00" fill="#0058ad">r 254 nil</text>
<polyline fill="none" stroke="#0058ad" points="700,-81.5 700,-110.5 "/>
<text text-anchor="middle" x="738.5" y="-92.3" font-family="Times,serif" font-size="14.00" fill="#0058ad">r 248 13</text>
<polyline fill="none" stroke="#0058ad" points="777,-81.5 777,-110.5 "/>
<text text-anchor="middle" x="818.5" y="-92.3" font-family="Times,serif" font-size="14.00" fill="#0058ad">w 260 13</text>
<polyline fill="none" stroke="#0058ad" points="860,-81.5 860,-110.5 "/>
<text text-anchor="middle" x="901.5" y="-92.3" font-family="Times,serif" font-size="14.00" fill="#0058ad">w 260 14</text>
</g>
<!-- T6631&#45;&gt;T6703 -->
<g id="edge17" class="edge">
<title>T6631:f0&#45;&gt;T6703:f1</title>
<path fill="none" stroke="#c000a5" d="M738,-162C738,-143.23 738,-136.12 738,-121.35"/>
<polygon fill="#c000a5" stroke="#c000a5" points="741.5,-121 738,-111 734.5,-121 741.5,-121"/>
<text text-anchor="middle" x="747.5" y="-132.8" font-family="Times,serif" font-size="14.00" fill="#c000a5">wr</text>
</g>
<!-- T6713 -->
<g id="node13" class="node">
<title>T6713</title>
<polygon fill="none" stroke="#0058ad" points="139.5,-906.5 139.5,-935.5 450.5,-935.5 450.5,-906.5 139.5,-906.5"/>
<text text-anchor="middle" x="181" y="-917.3" font-family="Times,serif" font-size="14.00" fill="#0058ad">w 259 13</text>
<polyline fill="none" stroke="#0058ad" points="222.5,-906.5 222.5,-935.5 "/>
<text text-anchor="middle" x="259.5" y="-917.3" font-family="Times,serif" font-size="14.00" fill="#0058ad">w 254 4</text>
<polyline fill="none" stroke="#0058ad" points="296.5,-906.5 296.5,-935.5 "/>
<text text-anchor="middle" x="335" y="-917.3" font-family="Times,serif" font-size="14.00" fill="#0058ad">r 248 16</text>
<polyline fill="none" stroke="#0058ad" points="373.5,-906.5 373.5,-935.5 "/>
<text text-anchor="middle" x="412" y="-917.3" font-family="Times,serif" font-size="14.00" fill="#0058ad">r 260 15</text>
</g>
<!-- T6703&#45;&gt;T6713 -->
<g id="edge18" class="edge">
<title>T6703:f0&#45;&gt;T6713:f1</title>
<path fill="none" stroke="#5b00c0" d="M622,-96C614.23,-96 619.15,-106.24 613,-111 532.01,-173.63 392,-73.62 392,-176 392,-841 392,-841 392,-841 392,-855.2 292.88,-881.07 265.78,-898.46"/>
<polygon fill="#5b00c0" stroke="#5b00c0" points="263.08,-896.22 259,-906 268.29,-900.9 263.08,-896.22"/>
<text text-anchor="middle" x="401.5" y="-497.3" font-family="Times,serif" font-size="14.00" fill="#5b00c0">rw</text>
</g>
<!-- T6728&#45;&gt;T6729 -->
<g id="edge20" class="edge">
<title>T6728:f0&#45;&gt;T6729:f3</title>
<path fill="none" stroke="#5b00c0" d="M666,-693C666,-712.03 989.21,-708.02 1008,-711 1060.19,-719.28 1122.14,-691.53 1130.14,-733.86"/>
<polygon fill="#5b00c0" stroke="#5b00c0" points="1126.66,-734.33 1131,-744 1133.64,-733.74 1126.66,-734.33"/>
<text text-anchor="middle" x="1137.5" y="-714.8" font-family="Times,serif" font-size="14.00" fill="#5b00c0">rw</text>
</g>
<!-- T6739 -->
<g id="node14" class="node">
<title>T6739</title>
<polygon fill="none" stroke="#0058ad" points="494.5,-567.5 494.5,-596.5 713.5,-596.5 713.5,-567.5 494.5,-567.5"/>
<text text-anchor="middle" x="528.5" y="-578.3" font-family="Times,serif" font-size="14.00" fill="#0058ad">r 262 5</text>
<polyline fill="none" stroke="#0058ad" points="562.5,-567.5 562.5,-596.5 "/>
<text text-anchor="middle" x="599.5" y="-578.3" font-family="Times,serif" font-size="14.00" fill="#0058ad">w 261 3</text>
<polyline fill="none" stroke="#0058ad" points="636.5,-567.5 636.5,-596.5 "/>
<text text-anchor="middle" x="675" y="-578.3" font-family="Times,serif" font-size="14.00" fill="#0058ad">r 263 nil</text>
</g>
<!-- T6728&#45;&gt;T6739 -->
<g id="edge19" class="edge">
<title>T6728:f0&#45;&gt;T6739:f1</title>
<path fill="none" stroke="#5b00c0" d="M666,-663C666,-654.43 620.91,-622.54 604.71,-605.59"/>
<polygon fill="#5b00c0" stroke="#5b00c0" points="607.45,-603.39 599,-597 601.62,-607.26 607.45,-603.39"/>
<text text-anchor="middle" x="659.5" y="-626.3" font-family="Times,serif" font-size="14.00" fill="#5b00c0">rw</text>
</g>
<!-- T6728&#45;&gt;T6774 -->
<g id="edge21" class="edge">
<title>T6728:f0&#45;&gt;T6774:f2</title>
<path fill="none" stroke="#5b00c0" d="M666,-693C666,-758.01 617.35,-761.6 603,-825 584.16,-908.23 551.24,-949.93 604,-1017 659.78,-1087.91 797.66,-982.94 808.34,-1057.94"/>
<polygon fill="#5b00c0" stroke="#5b00c0" points="804.85,-1058.25 809,-1068 811.84,-1057.79 804.85,-1058.25"/>
<text text-anchor="middle" x="599.5" y="-876.8" font-family="Times,serif" font-size="14.00" fill="#5b00c0">rw</text>
</g>
<!-- T6682 -->
<g id="node12" class="node">
<title>T6682</title>
<polygon fill="none" stroke="#0058ad" points="138.5,-162.5 138.5,-191.5 363.5,-191.5 363.5,-162.5 138.5,-162.5"/>
<text text-anchor="middle" x="175.5" y="-173.3" font-family="Times,serif" font-size="14.00" fill="#0058ad">w 260 4</text>
<polyline fill="none" stroke="#0058ad" points="212.5,-162.5 212.5,-191.5 "/>
<text text-anchor="middle" x="251" y="-173.3" font-family="Times,serif" font-size="14.00" fill="#0058ad">r 254 nil</text>
<polyline fill="none" stroke="#0058ad" points="289.5,-162.5 289.5,-191.5 "/>
<text text-anchor="middle" x="326.5" y="-173.3" font-family="Times,serif" font-size="14.00" fill="#0058ad">w 257 4</text>
</g>
<!-- T6682&#45;&gt;T6725 -->
<g id="edge23" class="edge">
<title>T6682:f2&#45;&gt;T6725:f0</title>
<path fill="none" stroke="#c000a5" d="M327,-162C327,-143.23 327,-136.12 327,-121.35"/>
<polygon fill="#c000a5" stroke="#c000a5" points="330.5,-121 327,-111 323.5,-121 330.5,-121"/>
<text text-anchor="middle" x="336.5" y="-132.8" font-family="Times,serif" font-size="14.00" fill="#c000a5">wr</text>
</g>
<!-- T6682&#45;&gt;T6713 -->
<g id="edge22" class="edge">
<title>T6682:f1&#45;&gt;T6713:f1</title>
<path fill="none" stroke="#5b00c0" d="M251,-192C251,-220.89 251,-228.11 251,-257 251,-461.5 251,-461.5 251,-461.5 251,-575.7 229,-603.3 229,-717.5 229,-841 229,-841 229,-841 229,-869.09 252.38,-873.44 257.86,-895.97"/>
<polygon fill="#5b00c0" stroke="#5b00c0" points="254.39,-896.46 259,-906 261.35,-895.67 254.39,-896.46"/>
<text text-anchor="middle" x="257.5" y="-537.8" font-family="Times,serif" font-size="14.00" fill="#5b00c0">rw</text>
</g>
<!-- T6717 -->
<g id="node18" class="node">
<title>T6717</title>
<polygon fill="none" stroke="#0058ad" points="612.5,-825.5 612.5,-854.5 911.5,-854.5 911.5,-825.5 612.5,-825.5"/>
<text text-anchor="middle" x="646.5" y="-836.3" font-family="Times,serif" font-size="14.00" fill="#0058ad">r 254 4</text>
<polyline fill="none" stroke="#0058ad" points="680.5,-825.5 680.5,-854.5 "/>
<text text-anchor="middle" x="719" y="-836.3" font-family="Times,serif" font-size="14.00" fill="#0058ad">r 261 nil</text>
<polyline fill="none" stroke="#0058ad" points="757.5,-825.5 757.5,-854.5 "/>
<text text-anchor="middle" x="796" y="-836.3" font-family="Times,serif" font-size="14.00" fill="#0058ad">r 260 15</text>
<polyline fill="none" stroke="#0058ad" points="834.5,-825.5 834.5,-854.5 "/>
<text text-anchor="middle" x="873" y="-836.3" font-family="Times,serif" font-size="14.00" fill="#0058ad">r 260 15</text>
</g>
<!-- T6713&#45;&gt;T6717 -->
<g id="edge24" class="edge">
<title>T6713:f1&#45;&gt;T6717:f0</title>
<path fill="none" stroke="#c000a5" d="M259,-906C259,-879.04 474.83,-894.48 501,-888 549.34,-876.02 556.8,-844.57 600.99,-840.45"/>
<polygon fill="#c000a5" stroke="#c000a5" points="601.17,-843.94 611,-840 600.85,-836.95 601.17,-843.94"/>
<text text-anchor="middle" x="545.5" y="-876.8" font-family="Times,serif" font-size="14.00" fill="#c000a5">wr</text>
</g>
<!-- T6739&#45;&gt;T6769 -->
<g id="edge28" class="edge">
<title>T6739:f2&#45;&gt;T6769:f0</title>
<path fill="none" stroke="#5b00c0" d="M675,-567C675,-556.52 514.27,-534.39 474.71,-521.04"/>
<polygon fill="#5b00c0" stroke="#5b00c0" points="476.41,-517.98 466,-516 472.9,-524.04 476.41,-517.98"/>
<text text-anchor="middle" x="617.5" y="-537.8" font-family="Times,serif" font-size="14.00" fill="#5b00c0">rw</text>
</g>
<!-- T6739&#45;&gt;T6747 -->
<g id="edge25" class="edge">
<title>T6739:f2&#45;&gt;T6747:f0</title>
<path fill="none" stroke="#5b00c0" d="M675,-567C675,-531 662.21,-520.02 674,-486 692.01,-434.03 740.1,-348.95 798.72,-339.8"/>
<polygon fill="#5b00c0" stroke="#5b00c0" points="799.3,-343.27 809,-339 798.76,-336.29 799.3,-343.27"/>
<text text-anchor="middle" x="697.5" y="-456.8" font-family="Times,serif" font-size="14.00" fill="#5b00c0">rw</text>
</g>
<!-- T6739&#45;&gt;T6737 -->
<g id="edge27" class="edge">
<title>T6739:f2&#45;&gt;T6737:f1</title>
<path fill="none" stroke="#5b00c0" d="M715,-582C757.18,-582 788.73,-564.79 793.4,-526.26"/>
<polygon fill="#5b00c0" stroke="#5b00c0" points="796.91,-526.19 794,-516 789.92,-525.78 796.91,-526.19"/>
<text text-anchor="middle" x="801.5" y="-537.8" font-family="Times,serif" font-size="14.00" fill="#5b00c0">rw</text>
</g>
<!-- T6765 -->
<g id="node16" class="node">
<title>T6765</title>
<polygon fill="none" stroke="#0058ad" points="333.5,-1149.5 333.5,-1178.5 614.5,-1178.5 614.5,-1149.5 333.5,-1149.5"/>
<text text-anchor="middle" x="367.5" y="-1160.3" font-family="Times,serif" font-size="14.00" fill="#0058ad">r 242 2</text>
<polyline fill="none" stroke="#0058ad" points="401.5,-1149.5 401.5,-1178.5 "/>
<text text-anchor="middle" x="435.5" y="-1160.3" font-family="Times,serif" font-size="14.00" fill="#0058ad">r 263 3</text>
<polyline fill="none" stroke="#0058ad" points="469.5,-1149.5 469.5,-1178.5 "/>
<text text-anchor="middle" x="503.5" y="-1160.3" font-family="Times,serif" font-size="14.00" fill="#0058ad">r 261 3</text>
<polyline fill="none" stroke="#0058ad" points="537.5,-1149.5 537.5,-1178.5 "/>
<text text-anchor="middle" x="576" y="-1160.3" font-family="Times,serif" font-size="14.00" fill="#0058ad">r 262 13</text>
</g>
<!-- T6739&#45;&gt;T6765 -->
<g id="edge29" class="edge">
<title>T6739:f1&#45;&gt;T6765:f2</title>
<path fill="none" stroke="#c000a5" d="M599,-597C599,-629.12 551.28,-591.86 529,-615 421.39,-726.77 479,-805.34 479,-960.5 479,-1084 479,-1084 479,-1084 479,-1111.2 498.31,-1116.89 502.99,-1138.88"/>
<polygon fill="#c000a5" stroke="#c000a5" points="499.52,-1139.4 504,-1149 506.49,-1138.7 499.52,-1139.4"/>
<text text-anchor="middle" x="484.5" y="-876.8" font-family="Times,serif" font-size="14.00" fill="#c000a5">wr</text>
</g>
<!-- T6742 -->
<g id="node19" class="node">
<title>T6742</title>
<polygon fill="none" stroke="#0058ad" points="0,-486.5 0,-515.5 148,-515.5 148,-486.5 0,-486.5"/>
<text text-anchor="middle" x="37" y="-497.3" font-family="Times,serif" font-size="14.00" fill="#0058ad">w 263 2</text>
<polyline fill="none" stroke="#0058ad" points="74,-486.5 74,-515.5 "/>
<text text-anchor="middle" x="111" y="-497.3" font-family="Times,serif" font-size="14.00" fill="#0058ad">w 263 3</text>
</g>
<!-- T6739&#45;&gt;T6742 -->
<g id="edge26" class="edge">
<title>T6739:f2&#45;&gt;T6742:f1</title>
<path fill="none" stroke="#5b00c0" d="M675,-567C675,-548.67 529.2,-551.2 511,-549 353.34,-529.9 313.01,-502.22 159.29,-501.04"/>
<polygon fill="#5b00c0" stroke="#5b00c0" points="159.01,-497.54 149,-501 158.99,-504.54 159.01,-497.54"/>
<text text-anchor="middle" x="520.5" y="-537.8" font-family="Times,serif" font-size="14.00" fill="#5b00c0">rw</text>
</g>
<!-- T6753&#45;&gt;T6757 -->
<g id="edge30" class="edge">
<title>T6753:f0&#45;&gt;T6757:f1</title>
<path fill="none" stroke="#c000a5" d="M1161.5,-615.33C1154.95,-588.88 1139.72,-531.69 1120,-486 1087.28,-410.18 1080.69,-388.4 1029,-324 1010.13,-300.49 979.91,-305.3 973.3,-282.99"/>
<polygon fill="#c000a5" stroke="#c000a5" points="976.76,-282.46 972,-273 969.82,-283.37 976.76,-282.46"/>
<text text-anchor="middle" x="1122.5" y="-456.8" font-family="Times,serif" font-size="14.00" fill="#c000a5">wr</text>
</g>
<!-- T6765&#45;&gt;T6774 -->
<g id="edge31" class="edge">
<title>T6765:f3&#45;&gt;T6774:f3</title>
<path fill="none" stroke="#5b00c0" d="M616,-1164C638.49,-1164 614.23,-1129.78 632,-1116 652.2,-1100.33 841.93,-1121.21 880.99,-1105.15"/>
<polygon fill="#5b00c0" stroke="#5b00c0" points="883.5,-1107.59 888,-1098 878.5,-1102.69 883.5,-1107.59"/>
<text text-anchor="middle" x="641.5" y="-1119.8" font-family="Times,serif" font-size="14.00" fill="#5b00c0">rw</text>
</g>
<!-- T6755&#45;&gt;T6765 -->
<g id="edge32" class="edge">
<title>T6755:f3&#45;&gt;T6765:f3</title>
<path fill="none" stroke="#c000a5" d="M665,-1230C665,-1213.29 646.53,-1220.24 632,-1212 610.41,-1199.75 584.57,-1205.52 577.73,-1189.05"/>
<polygon fill="#c000a5" stroke="#c000a5" points="581.15,-1188.26 576,-1179 574.25,-1189.45 581.15,-1188.26"/>
<text text-anchor="middle" x="641.5" y="-1200.8" font-family="Times,serif" font-size="14.00" fill="#c000a5">wr</text>
</g>
<!-- T6755&#45;&gt;T6774 -->
<g id="edge33" class="edge">
<title>T6755:f3&#45;&gt;T6774:f0</title>
<path fill="none" stroke="#c000a5" d="M665,-1230C665,-1174.89 665,-1158.6 665,-1108.19"/>
<polygon fill="#c000a5" stroke="#c000a5" points="668.5,-1108 665,-1098 661.5,-1108 668.5,-1108"/>
<text text-anchor="middle" x="674.5" y="-1160.3" font-family="Times,serif" font-size="14.00" fill="#c000a5">wr</text>
</g>
<!-- T6717&#45;&gt;T6729 -->
<g id="edge35" class="edge">
<title>T6717:f1&#45;&gt;T6729:f3</title>
<path fill="none" stroke="#5b00c0" d="M719,-825C719,-740.17 822.85,-802.74 907,-792 928.96,-789.2 1088.1,-796.84 1123.87,-781.2"/>
<polygon fill="#5b00c0" stroke="#5b00c0" points="1126.46,-783.57 1131,-774 1121.48,-778.65 1126.46,-783.57"/>
<text text-anchor="middle" x="916.5" y="-795.8" font-family="Times,serif" font-size="14.00" fill="#5b00c0">rw</text>
</g>
<!-- T6717&#45;&gt;T6739 -->
<g id="edge34" class="edge">
<title>T6717:f1&#45;&gt;T6739:f1</title>
<path fill="none" stroke="#5b00c0" d="M719,-825C719,-751.13 648.41,-760.32 618,-693 601.56,-656.61 599.29,-642.79 599.03,-607.12"/>
<polygon fill="#5b00c0" stroke="#5b00c0" points="602.53,-606.99 599,-597 595.53,-607.01 602.53,-606.99"/>
<text text-anchor="middle" x="650.5" y="-714.8" font-family="Times,serif" font-size="14.00" fill="#5b00c0">rw</text>
</g>
<!-- T6717&#45;&gt;T6774 -->
<g id="edge36" class="edge">
<title>T6717:f1&#45;&gt;T6774:f2</title>
<path fill="none" stroke="#5b00c0" d="M719,-855C719,-938.6 820.72,-909.89 853,-987 858.15,-999.3 857.65,-1004.5 853,-1017 843.95,-1041.33 817.51,-1039.3 810.64,-1057.86"/>
<polygon fill="#5b00c0" stroke="#5b00c0" points="807.14,-1057.57 809,-1068 814.05,-1058.69 807.14,-1057.57"/>
<text text-anchor="middle" x="852.5" y="-957.8" font-family="Times,serif" font-size="14.00" fill="#5b00c0">rw</text>
</g>
<!-- T6742&#45;&gt;T6765 -->
<g id="edge39" class="edge">
<title>T6742:f1&#45;&gt;T6765:f1</title>
<path fill="none" stroke="#c000a5" d="M111,-516C111,-544.89 111,-552.11 111,-581 111,-1084 111,-1084 111,-1084 111,-1227.28 419.37,-1013.08 434.43,-1138.9"/>
<polygon fill="#c000a5" stroke="#c000a5" points="430.94,-1139.21 435,-1149 437.93,-1138.82 430.94,-1139.21"/>
<text text-anchor="middle" x="120.5" y="-836.3" font-family="Times,serif" font-size="14.00" fill="#c000a5">wr</text>
</g>
<!-- T6742&#45;&gt;T6755 -->
<g id="edge38" class="edge">
<title>T6742:f1&#45;&gt;T6755:f2</title>
<path fill="none" stroke="#c000a5" d="M111,-516C111,-551.39 65,-545.61 65,-581 65,-1165 65,-1165 65,-1165 65,-1220.35 531.32,-1176.9 584.15,-1221.06"/>
<polygon fill="#c000a5" stroke="#c000a5" points="581.15,-1222.88 589,-1230 587.31,-1219.54 581.15,-1222.88"/>
<text text-anchor="middle" x="74.5" y="-876.8" font-family="Times,serif" font-size="14.00" fill="#c000a5">wr</text>
</g>
<!-- T6760 -->
<g id="node21" class="node">
<title>T6760</title>
<polygon fill="none" stroke="#0058ad" points="77.5,-405.5 77.5,-434.5 222.5,-434.5 222.5,-405.5 77.5,-405.5"/>
<text text-anchor="middle" x="111.5" y="-416.3" font-family="Times,serif" font-size="14.00" fill="#0058ad">r 263 3</text>
<polyline fill="none" stroke="#0058ad" points="145.5,-405.5 145.5,-434.5 "/>
<text text-anchor="middle" x="184" y="-416.3" font-family="Times,serif" font-size="14.00" fill="#0058ad">r 254 nil</text>
</g>
<!-- T6742&#45;&gt;T6760 -->
<g id="edge37" class="edge">
<title>T6742:f1&#45;&gt;T6760:f0</title>
<path fill="none" stroke="#c000a5" d="M111,-486C111,-467.23 111,-460.12 111,-445.35"/>
<polygon fill="#c000a5" stroke="#c000a5" points="114.5,-445 111,-435 107.5,-445 114.5,-445"/>
<text text-anchor="middle" x="120.5" y="-456.8" font-family="Times,serif" font-size="14.00" fill="#c000a5">wr</text>
</g>
<!-- T6736&#45;&gt;T6739 -->
<g id="edge40" class="edge">
<title>T6736:f2&#45;&gt;T6739:f0</title>
<path fill="none" stroke="#c000a5" d="M1120,-663C1120,-633.71 620.67,-654.63 593,-645 562.66,-634.44 534.59,-633.1 529,-607.23"/>
<polygon fill="#c000a5" stroke="#c000a5" points="532.46,-606.61 528,-597 525.49,-607.29 532.46,-606.61"/>
<text text-anchor="middle" x="602.5" y="-626.3" font-family="Times,serif" font-size="14.00" fill="#c000a5">wr</text>
</g>
<!-- T6760&#45;&gt;T6713 -->
<g id="edge41" class="edge">
<title>T6760:f1&#45;&gt;T6713:f1</title>
<path fill="none" stroke="#5b00c0" d="M184,-435C184,-489.67 236.71,-483.24 257,-534 280.78,-593.48 275,-612.94 275,-677 275,-841 275,-841 275,-841 275,-867.03 262.75,-874.5 259.69,-895.89"/>
<polygon fill="#5b00c0" stroke="#5b00c0" points="256.19,-895.79 259,-906 263.17,-896.26 256.19,-895.79"/>
<text text-anchor="middle" x="284.5" y="-674.3" font-family="Times,serif" font-size="14.00" fill="#5b00c0">rw</text>
</g>
<!-- T6785 -->
<g id="node24" class="node">
<title>T6785</title>
<polygon fill="none" stroke="#0058ad" points="613.5,-987.5 613.5,-1016.5 844.5,-1016.5 844.5,-987.5 613.5,-987.5"/>
<text text-anchor="middle" x="652" y="-998.3" font-family="Times,serif" font-size="14.00" fill="#0058ad">r 262 14</text>
<polyline fill="none" stroke="#0058ad" points="690.5,-987.5 690.5,-1016.5 "/>
<text text-anchor="middle" x="729" y="-998.3" font-family="Times,serif" font-size="14.00" fill="#0058ad">r 254 nil</text>
<polyline fill="none" stroke="#0058ad" points="767.5,-987.5 767.5,-1016.5 "/>
<text text-anchor="middle" x="806" y="-998.3" font-family="Times,serif" font-size="14.00" fill="#0058ad">r 264 nil</text>
</g>
<!-- T6774&#45;&gt;T6785 -->
<g id="edge42" class="edge">
<title>T6774:f3&#45;&gt;T6785:f0</title>
<path fill="none" stroke="#c000a5" d="M888,-1068C888,-964.36 667.86,-1113.44 652.81,-1027.08"/>
<polygon fill="#c000a5" stroke="#c000a5" points="656.29,-1026.69 652,-1017 649.31,-1027.25 656.29,-1026.69"/>
<text text-anchor="middle" x="893.5" y="-1038.8" font-family="Times,serif" font-size="14.00" fill="#c000a5">wr</text>
</g>
<!-- T6757&#45;&gt;T6631 -->
<g id="edge44" class="edge">
<title>T6757:f0&#45;&gt;T6631:f2</title>
<path fill="none" stroke="#5b00c0" d="M894,-243C894,-224.23 894,-217.12 894,-202.35"/>
<polygon fill="#5b00c0" stroke="#5b00c0" points="897.5,-202 894,-192 890.5,-202 897.5,-202"/>
<text text-anchor="middle" x="903.5" y="-213.8" font-family="Times,serif" font-size="14.00" fill="#5b00c0">rw</text>
</g>
<!-- T6757&#45;&gt;T6682 -->
<g id="edge43" class="edge">
<title>T6757:f0&#45;&gt;T6682:f2</title>
<path fill="none" stroke="#5b00c0" d="M855,-258C637.72,-258 587.29,-179.51 375.22,-177.06"/>
<polygon fill="#5b00c0" stroke="#5b00c0" points="375.02,-173.56 365,-177 374.98,-180.56 375.02,-173.56"/>
<text text-anchor="middle" x="644.5" y="-213.8" font-family="Times,serif" font-size="14.00" fill="#5b00c0">rw</text>
</g>
<!-- T6785&#45;&gt;T6713 -->
<g id="edge45" class="edge">
<title>T6785:f1&#45;&gt;T6713:f1</title>
<path fill="none" stroke="#5b00c0" d="M729,-987C729,-780.48 274.93,-1133.66 259.41,-946.27"/>
<polygon fill="#5b00c0" stroke="#5b00c0" points="262.89,-945.85 259,-936 255.9,-946.13 262.89,-945.85"/>
<text text-anchor="middle" x="736.5" y="-957.8" font-family="Times,serif" font-size="14.00" fill="#5b00c0">rw</text>
</g>
</g>
</svg>
