<?xml version="1.0" encoding="UTF-8" standalone="no"?>
<!DOCTYPE svg PUBLIC "-//W3C//DTD SVG 1.1//EN"
 "http://www.w3.org/Graphics/SVG/1.1/DTD/svg11.dtd">
<!-- Generated by graphviz version 2.43.0 (0)
 -->
<!-- Title: a_graph Pages: 1 -->
<svg width="654pt" height="539pt"
 viewBox="0.00 0.00 654.00 539.00" xmlns="http://www.w3.org/2000/svg" xmlns:xlink="http://www.w3.org/1999/xlink">
<g id="graph0" class="graph" transform="scale(1 1) rotate(0) translate(4 535)">
<title>a_graph</title>
<polygon fill="white" stroke="transparent" points="-4,4 -4,-535 650,-535 650,4 -4,4"/>
<!-- T28501 -->
<g id="node1" class="node">
<title>T28501</title>
<polygon fill="none" stroke="#0058ad" points="0,-501.5 0,-530.5 329,-530.5 329,-501.5 0,-501.5"/>
<text text-anchor="middle" x="41.5" y="-512.3" font-family="Times,serif" font-size="14.00" fill="#0058ad">w 1090 1</text>
<polyline fill="none" stroke="#0058ad" points="83,-501.5 83,-530.5 "/>
<text text-anchor="middle" x="121.5" y="-512.3" font-family="Times,serif" font-size="14.00" fill="#0058ad">r 1087 7</text>
<polyline fill="none" stroke="#0058ad" points="160,-501.5 160,-530.5 "/>
<text text-anchor="middle" x="206" y="-512.3" font-family="Times,serif" font-size="14.00" fill="#0058ad">w 1088 10</text>
<polyline fill="none" stroke="#0058ad" points="252,-501.5 252,-530.5 "/>
<text text-anchor="middle" x="290.5" y="-512.3" font-family="Times,serif" font-size="14.00" fill="#0058ad">r 1090 1</text>
</g>
<!-- T28505 -->
<g id="node4" class="node">
<title>T28505</title>
<polygon fill="none" stroke="#0058ad" points="323,-420.5 323,-449.5 646,-449.5 646,-420.5 323,-420.5"/>
<text text-anchor="middle" x="361.5" y="-431.3" font-family="Times,serif" font-size="14.00" fill="#0058ad">r 1087 7</text>
<polyline fill="none" stroke="#0058ad" points="400,-420.5 400,-449.5 "/>
<text text-anchor="middle" x="441.5" y="-431.3" font-family="Times,serif" font-size="14.00" fill="#0058ad">w 1087 8</text>
<polyline fill="none" stroke="#0058ad" points="483,-420.5 483,-449.5 "/>
<text text-anchor="middle" x="521.5" y="-431.3" font-family="Times,serif" font-size="14.00" fill="#0058ad">r 1089 3</text>
<polyline fill="none" stroke="#0058ad" points="560,-420.5 560,-449.5 "/>
<text text-anchor="middle" x="603" y="-431.3" font-family="Times,serif" font-size="14.00" fill="#0058ad">r 1088 10</text>
</g>
<!-- T28501&#45;&gt;T28505 -->
<g id="edge1" class="edge">
<title>T28501:f2&#45;&gt;T28505:f3</title>
<path fill="none" stroke="#c000a5" d="M206.5,-501C206.5,-326.75 587.38,-615.6 603.01,-460.34"/>
<polygon fill="#c000a5" stroke="#c000a5" points="606.52,-460.16 603.5,-450 599.53,-459.82 606.52,-460.16"/>
<text text-anchor="middle" x="611" y="-471.8" font-family="Times,serif" font-size="14.00" fill="#c000a5">wr</text>
</g>
<!-- T28519 -->
<g id="node6" class="node">
<title>T28519</title>
<polygon fill="none" stroke="#0058ad" points="97,-339.5 97,-368.5 438,-368.5 438,-339.5 97,-339.5"/>
<text text-anchor="middle" x="140" y="-350.3" font-family="Times,serif" font-size="14.00" fill="#0058ad">r 1088 10</text>
<polyline fill="none" stroke="#0058ad" points="183,-339.5 183,-368.5 "/>
<text text-anchor="middle" x="229" y="-350.3" font-family="Times,serif" font-size="14.00" fill="#0058ad">w 1089 12</text>
<polyline fill="none" stroke="#0058ad" points="275,-339.5 275,-368.5 "/>
<text text-anchor="middle" x="318" y="-350.3" font-family="Times,serif" font-size="14.00" fill="#0058ad">r 1089 12</text>
<polyline fill="none" stroke="#0058ad" points="361,-339.5 361,-368.5 "/>
<text text-anchor="middle" x="399.5" y="-350.3" font-family="Times,serif" font-size="14.00" fill="#0058ad">r 1087 8</text>
</g>
<!-- T28501&#45;&gt;T28519 -->
<g id="edge2" class="edge">
<title>T28501:f2&#45;&gt;T28519:f0</title>
<path fill="none" stroke="#c000a5" d="M206.5,-501C206.5,-471.19 151.47,-414.02 141.16,-379.08"/>
<polygon fill="#c000a5" stroke="#c000a5" points="144.58,-378.3 139.5,-369 137.67,-379.44 144.58,-378.3"/>
<text text-anchor="middle" x="192" y="-431.3" font-family="Times,serif" font-size="14.00" fill="#c000a5">wr</text>
</g>
<!-- T28544 -->
<g id="node2" class="node">
<title>T28544</title>
<polygon fill="none" stroke="#0058ad" points="138.5,-0.5 138.5,-29.5 384.5,-29.5 384.5,-0.5 138.5,-0.5"/>
<text text-anchor="middle" x="177" y="-11.3" font-family="Times,serif" font-size="14.00" fill="#0058ad">r 1083 8</text>
<polyline fill="none" stroke="#0058ad" points="215.5,-0.5 215.5,-29.5 "/>
<text text-anchor="middle" x="258.5" y="-11.3" font-family="Times,serif" font-size="14.00" fill="#0058ad">r 1090 nil</text>
<polyline fill="none" stroke="#0058ad" points="301.5,-0.5 301.5,-29.5 "/>
<text text-anchor="middle" x="343" y="-11.3" font-family="Times,serif" font-size="14.00" fill="#0058ad">w 1091 1</text>
</g>
<!-- T28544&#45;&gt;T28501 -->
<g id="edge3" class="edge">
<title>T28544:f1&#45;&gt;T28501:f0</title>
<path fill="none" stroke="#5b00c0" d="M258.5,-30C258.5,-130.68 41.5,5.68 41.5,-95 41.5,-436 41.5,-436 41.5,-436 41.5,-461.16 41.5,-469.89 41.5,-490.82"/>
<polygon fill="#5b00c0" stroke="#5b00c0" points="38,-491 41.5,-501 45,-491 38,-491"/>
<text text-anchor="middle" x="51" y="-254.3" font-family="Times,serif" font-size="14.00" fill="#5b00c0">rw</text>
</g>
<!-- T28533 -->
<g id="node3" class="node">
<title>T28533</title>
<polygon fill="none" stroke="#0058ad" points="254.5,-81.5 254.5,-110.5 610.5,-110.5 610.5,-81.5 254.5,-81.5"/>
<text text-anchor="middle" x="297.5" y="-92.3" font-family="Times,serif" font-size="14.00" fill="#0058ad">r 1089 13</text>
<polyline fill="none" stroke="#0058ad" points="340.5,-81.5 340.5,-110.5 "/>
<text text-anchor="middle" x="386.5" y="-92.3" font-family="Times,serif" font-size="14.00" fill="#0058ad">w 1089 16</text>
<polyline fill="none" stroke="#0058ad" points="432.5,-81.5 432.5,-110.5 "/>
<text text-anchor="middle" x="478.5" y="-92.3" font-family="Times,serif" font-size="14.00" fill="#0058ad">w 1088 14</text>
<polyline fill="none" stroke="#0058ad" points="524.5,-81.5 524.5,-110.5 "/>
<text text-anchor="middle" x="567.5" y="-92.3" font-family="Times,serif" font-size="14.00" fill="#0058ad">r 1091 nil</text>
</g>
<!-- T28533&#45;&gt;T28544 -->
<g id="edge4" class="edge">
<title>T28533:f3&#45;&gt;T28544:f2</title>
<path fill="none" stroke="#5b00c0" d="M567.5,-81C567.5,-40.92 446.87,-18.24 395.59,-15.32"/>
<polygon fill="#5b00c0" stroke="#5b00c0" points="395.61,-11.82 385.5,-15 395.38,-18.82 395.61,-11.82"/>
<text text-anchor="middle" x="567" y="-51.8" font-family="Times,serif" font-size="14.00" fill="#5b00c0">rw</text>
</g>
<!-- T28505&#45;&gt;T28519 -->
<g id="edge6" class="edge">
<title>T28505:f1&#45;&gt;T28519:f3</title>
<path fill="none" stroke="#c000a5" d="M441.5,-420C441.5,-394.54 409.92,-396.97 401.53,-378.91"/>
<polygon fill="#c000a5" stroke="#c000a5" points="404.93,-378.1 399.5,-369 398.07,-379.5 404.93,-378.1"/>
<text text-anchor="middle" x="441" y="-390.8" font-family="Times,serif" font-size="14.00" fill="#c000a5">wr</text>
</g>
<!-- T28530 -->
<g id="node7" class="node">
<title>T28530</title>
<polygon fill="none" stroke="#0058ad" points="344,-162.5 344,-191.5 599,-191.5 599,-162.5 344,-162.5"/>
<text text-anchor="middle" x="387" y="-173.3" font-family="Times,serif" font-size="14.00" fill="#0058ad">r 1089 13</text>
<polyline fill="none" stroke="#0058ad" points="430,-162.5 430,-191.5 "/>
<text text-anchor="middle" x="468.5" y="-173.3" font-family="Times,serif" font-size="14.00" fill="#0058ad">r 1087 8</text>
<polyline fill="none" stroke="#0058ad" points="507,-162.5 507,-191.5 "/>
<text text-anchor="middle" x="553" y="-173.3" font-family="Times,serif" font-size="14.00" fill="#0058ad">w 1087 11</text>
</g>
<!-- T28505&#45;&gt;T28530 -->
<g id="edge5" class="edge">
<title>T28505:f1&#45;&gt;T28530:f1</title>
<path fill="none" stroke="#c000a5" d="M441.5,-420C441.5,-410.62 449.62,-410.92 452.5,-402 480.19,-316.23 469.39,-287.72 468.55,-202.15"/>
<polygon fill="#c000a5" stroke="#c000a5" points="472.05,-201.98 468.5,-192 465.05,-202.02 472.05,-201.98"/>
<text text-anchor="middle" x="480" y="-302.3" font-family="Times,serif" font-size="14.00" fill="#c000a5">wr</text>
</g>
<!-- T28525 -->
<g id="node8" class="node">
<title>T28525</title>
<polygon fill="none" stroke="#0058ad" points="528,-291.5 528,-320.5 605,-320.5 605,-291.5 528,-291.5"/>
<text text-anchor="middle" x="566.5" y="-302.3" font-family="Times,serif" font-size="14.00" fill="#0058ad">r 1087 8</text>
</g>
<!-- T28505&#45;&gt;T28525 -->
<g id="edge7" class="edge">
<title>T28505:f1&#45;&gt;T28525:f0</title>
<path fill="none" stroke="#c000a5" d="M441.5,-420C441.5,-400.91 465.15,-413.34 480.5,-402 508.65,-381.2 534.52,-349.97 550.37,-328.82"/>
<polygon fill="#c000a5" stroke="#c000a5" points="553.23,-330.84 556.34,-320.71 547.59,-326.7 553.23,-330.84"/>
<text text-anchor="middle" x="507" y="-390.8" font-family="Times,serif" font-size="14.00" fill="#c000a5">wr</text>
</g>
<!-- T28522 -->
<g id="node5" class="node">
<title>T28522</title>
<polygon fill="none" stroke="#0058ad" points="78.5,-243.5 78.5,-272.5 434.5,-272.5 434.5,-243.5 78.5,-243.5"/>
<text text-anchor="middle" x="121.5" y="-254.3" font-family="Times,serif" font-size="14.00" fill="#0058ad">r 1089 12</text>
<polyline fill="none" stroke="#0058ad" points="164.5,-243.5 164.5,-272.5 "/>
<text text-anchor="middle" x="207.5" y="-254.3" font-family="Times,serif" font-size="14.00" fill="#0058ad">r 1089 12</text>
<polyline fill="none" stroke="#0058ad" points="250.5,-243.5 250.5,-272.5 "/>
<text text-anchor="middle" x="296.5" y="-254.3" font-family="Times,serif" font-size="14.00" fill="#0058ad">w 1088 12</text>
<polyline fill="none" stroke="#0058ad" points="342.5,-243.5 342.5,-272.5 "/>
<text text-anchor="middle" x="388.5" y="-254.3" font-family="Times,serif" font-size="14.00" fill="#0058ad">w 1089 13</text>
</g>
<!-- T28522&#45;&gt;T28533 -->
<g id="edge9" class="edge">
<title>T28522:f3&#45;&gt;T28533:f0</title>
<path fill="none" stroke="#c000a5" d="M388.5,-243C388.5,-203.79 338.4,-224.53 316.5,-192 297.87,-164.32 297.39,-150.75 297.48,-121.2"/>
<polygon fill="#c000a5" stroke="#c000a5" points="300.98,-121.01 297.5,-111 293.98,-120.99 300.98,-121.01"/>
<text text-anchor="middle" x="326" y="-173.3" font-family="Times,serif" font-size="14.00" fill="#c000a5">wr</text>
</g>
<!-- T28522&#45;&gt;T28530 -->
<g id="edge8" class="edge">
<title>T28522:f3&#45;&gt;T28530:f0</title>
<path fill="none" stroke="#c000a5" d="M388.5,-243C388.5,-224.21 387.13,-217.12 386.66,-202.36"/>
<polygon fill="#c000a5" stroke="#c000a5" points="390.15,-201.95 386.5,-192 383.15,-202.05 390.15,-201.95"/>
<text text-anchor="middle" x="397" y="-213.8" font-family="Times,serif" font-size="14.00" fill="#c000a5">wr</text>
</g>
<!-- T28519&#45;&gt;T28522 -->
<g id="edge10" class="edge">
<title>T28519:f1&#45;&gt;T28522:f0</title>
<path fill="none" stroke="#c000a5" d="M228.5,-339C228.5,-286.94 135.63,-323.09 122.93,-283.1"/>
<polygon fill="#c000a5" stroke="#c000a5" points="126.37,-282.41 121.5,-273 119.44,-283.39 126.37,-282.41"/>
<text text-anchor="middle" x="232" y="-302.3" font-family="Times,serif" font-size="14.00" fill="#c000a5">wr</text>
</g>
<!-- T28519&#45;&gt;T28530 -->
<g id="edge11" class="edge">
<title>T28519:f3&#45;&gt;T28530:f2</title>
<path fill="none" stroke="#5b00c0" d="M439.5,-354C466.13,-354 471.86,-340.95 489.5,-321 498.73,-310.56 540.44,-232.56 551.04,-202.05"/>
<polygon fill="#5b00c0" stroke="#5b00c0" points="554.53,-202.54 553.5,-192 547.73,-200.88 554.53,-202.54"/>
<text text-anchor="middle" x="541" y="-254.3" font-family="Times,serif" font-size="14.00" fill="#5b00c0">rw</text>
</g>
<!-- T28530&#45;&gt;T28533 -->
<g id="edge12" class="edge">
<title>T28530:f0&#45;&gt;T28533:f1</title>
<path fill="none" stroke="#5b00c0" d="M386.5,-162C386.5,-143.23 386.5,-136.12 386.5,-121.35"/>
<polygon fill="#5b00c0" stroke="#5b00c0" points="390,-121 386.5,-111 383,-121 390,-121"/>
<text text-anchor="middle" x="396" y="-132.8" font-family="Times,serif" font-size="14.00" fill="#5b00c0">rw</text>
</g>
<!-- T28525&#45;&gt;T28530 -->
<g id="edge13" class="edge">
<title>T28525:f0&#45;&gt;T28530:f2</title>
<path fill="none" stroke="#5b00c0" d="M563.74,-291.3C560.28,-271.68 554.68,-235.52 553.66,-202.22"/>
<polygon fill="#5b00c0" stroke="#5b00c0" points="557.16,-201.94 553.5,-192 550.16,-202.05 557.16,-201.94"/>
<text text-anchor="middle" x="570" y="-254.3" font-family="Times,serif" font-size="14.00" fill="#5b00c0">rw</text>
</g>
</g>
</svg>
