<?xml version="1.0" encoding="UTF-8" standalone="no"?>
<!DOCTYPE svg PUBLIC "-//W3C//DTD SVG 1.1//EN"
 "http://www.w3.org/Graphics/SVG/1.1/DTD/svg11.dtd">
<!-- Generated by graphviz version 2.43.0 (0)
 -->
<!-- Title: a_graph Pages: 1 -->
<svg width="236pt" height="119pt"
 viewBox="0.00 0.00 236.00 119.00" xmlns="http://www.w3.org/2000/svg" xmlns:xlink="http://www.w3.org/1999/xlink">
<g id="graph0" class="graph" transform="scale(1 1) rotate(0) translate(4 115)">
<title>a_graph</title>
<polygon fill="white" stroke="transparent" points="-4,4 -4,-115 232,-115 232,4 -4,4"/>
<!-- T24896 -->
<g id="node1" class="node">
<title>T24896</title>
<polygon fill="none" stroke="#0058ad" points="76.5,-81.5 76.5,-110.5 227.5,-110.5 227.5,-81.5 76.5,-81.5"/>
<text text-anchor="middle" x="113.5" y="-92.3" font-family="Times,serif" font-size="14.00" fill="#0058ad">w 953 3</text>
<polyline fill="none" stroke="#0058ad" points="150.5,-81.5 150.5,-110.5 "/>
<text text-anchor="middle" x="189" y="-92.3" font-family="Times,serif" font-size="14.00" fill="#0058ad">r 952 nil</text>
</g>
<!-- T24885 -->
<g id="node2" class="node">
<title>T24885</title>
<polygon fill="none" stroke="#0058ad" points="0,-0.5 0,-29.5 228,-29.5 228,-0.5 0,-0.5"/>
<text text-anchor="middle" x="38.5" y="-11.3" font-family="Times,serif" font-size="14.00" fill="#0058ad">r 940 11</text>
<polyline fill="none" stroke="#0058ad" points="77,-0.5 77,-29.5 "/>
<text text-anchor="middle" x="114" y="-11.3" font-family="Times,serif" font-size="14.00" fill="#0058ad">w 952 1</text>
<polyline fill="none" stroke="#0058ad" points="151,-0.5 151,-29.5 "/>
<text text-anchor="middle" x="189.5" y="-11.3" font-family="Times,serif" font-size="14.00" fill="#0058ad">r 953 nil</text>
</g>
<!-- T24896&#45;&gt;T24885 -->
<g id="edge1" class="edge">
<title>T24896:f1&#45;&gt;T24885:f1</title>
<path fill="none" stroke="#5b00c0" d="M189,-81C189,-56.56 165.38,-61.49 145,-48 135.66,-41.82 124.13,-43.31 118.1,-39.2"/>
<polygon fill="#5b00c0" stroke="#5b00c0" points="121.27,-37.71 114,-30 114.88,-40.56 121.27,-37.71"/>
<text text-anchor="middle" x="188.5" y="-51.8" font-family="Times,serif" font-size="14.00" fill="#5b00c0">rw</text>
</g>
<!-- T24885&#45;&gt;T24896 -->
<g id="edge2" class="edge">
<title>T24885:f2&#45;&gt;T24896:f0</title>
<path fill="none" stroke="#5b00c0" d="M190,-30C190,-61.26 144.19,-25.98 122,-48 113.91,-56.03 112.89,-62.03 112.89,-70.94"/>
<polygon fill="#5b00c0" stroke="#5b00c0" points="109.39,-71.04 113,-81 116.39,-70.96 109.39,-71.04"/>
<text text-anchor="middle" x="131.5" y="-51.8" font-family="Times,serif" font-size="14.00" fill="#5b00c0">rw</text>
</g>
</g>
</svg>
