<?xml version="1.0" encoding="UTF-8" standalone="no"?>
<!DOCTYPE svg PUBLIC "-//W3C//DTD SVG 1.1//EN"
 "http://www.w3.org/Graphics/SVG/1.1/DTD/svg11.dtd">
<!-- Generated by graphviz version 2.43.0 (0)
 -->
<!-- Title: a_graph Pages: 1 -->
<svg width="361pt" height="119pt"
 viewBox="0.00 0.00 361.00 119.00" xmlns="http://www.w3.org/2000/svg" xmlns:xlink="http://www.w3.org/1999/xlink">
<g id="graph0" class="graph" transform="scale(1 1) rotate(0) translate(4 115)">
<title>a_graph</title>
<polygon fill="white" stroke="transparent" points="-4,4 -4,-115 357,-115 357,4 -4,4"/>
<!-- T11584 -->
<g id="node1" class="node">
<title>T11584</title>
<polygon fill="none" stroke="#0058ad" points="0,-81.5 0,-110.5 311,-110.5 311,-81.5 0,-81.5"/>
<text text-anchor="middle" x="38.5" y="-92.3" font-family="Times,serif" font-size="14.00" fill="#0058ad">r 447 nil</text>
<polyline fill="none" stroke="#0058ad" points="77,-81.5 77,-110.5 "/>
<text text-anchor="middle" x="118.5" y="-92.3" font-family="Times,serif" font-size="14.00" fill="#0058ad">w 446 10</text>
<polyline fill="none" stroke="#0058ad" points="160,-81.5 160,-110.5 "/>
<text text-anchor="middle" x="198.5" y="-92.3" font-family="Times,serif" font-size="14.00" fill="#0058ad">r 447 nil</text>
<polyline fill="none" stroke="#0058ad" points="237,-81.5 237,-110.5 "/>
<text text-anchor="middle" x="274" y="-92.3" font-family="Times,serif" font-size="14.00" fill="#0058ad">w 447 1</text>
</g>
<!-- T11587 -->
<g id="node2" class="node">
<title>T11587</title>
<polygon fill="none" stroke="#0058ad" points="42,-0.5 42,-29.5 353,-29.5 353,-0.5 42,-0.5"/>
<text text-anchor="middle" x="80.5" y="-11.3" font-family="Times,serif" font-size="14.00" fill="#0058ad">r 447 nil</text>
<polyline fill="none" stroke="#0058ad" points="119,-0.5 119,-29.5 "/>
<text text-anchor="middle" x="157.5" y="-11.3" font-family="Times,serif" font-size="14.00" fill="#0058ad">r 447 nil</text>
<polyline fill="none" stroke="#0058ad" points="196,-0.5 196,-29.5 "/>
<text text-anchor="middle" x="233" y="-11.3" font-family="Times,serif" font-size="14.00" fill="#0058ad">w 447 2</text>
<polyline fill="none" stroke="#0058ad" points="270,-0.5 270,-29.5 "/>
<text text-anchor="middle" x="311.5" y="-11.3" font-family="Times,serif" font-size="14.00" fill="#0058ad">w 446 11</text>
</g>
<!-- T11584&#45;&gt;T11587 -->
<g id="edge1" class="edge">
<title>T11584:f0&#45;&gt;T11587:f2</title>
<path fill="none" stroke="#5b00c0" d="M38.5,-81C38.5,-61.23 190.47,-54.07 226.09,-37.26"/>
<polygon fill="#5b00c0" stroke="#5b00c0" points="228.81,-39.5 233.5,-30 223.91,-34.5 228.81,-39.5"/>
<text text-anchor="middle" x="191" y="-51.8" font-family="Times,serif" font-size="14.00" fill="#5b00c0">rw</text>
</g>
<!-- T11587&#45;&gt;T11584 -->
<g id="edge2" class="edge">
<title>T11587:f0&#45;&gt;T11584:f3</title>
<path fill="none" stroke="#5b00c0" d="M80.5,-30C80.5,-57.84 177.84,-39.98 204.5,-48 233.7,-56.79 266.16,-48.89 273.13,-70.97"/>
<polygon fill="#5b00c0" stroke="#5b00c0" points="269.68,-71.56 274.5,-81 276.62,-70.62 269.68,-71.56"/>
<text text-anchor="middle" x="277" y="-51.8" font-family="Times,serif" font-size="14.00" fill="#5b00c0">rw</text>
</g>
</g>
</svg>
