<?xml version="1.0" encoding="UTF-8" standalone="no"?>
<!DOCTYPE svg PUBLIC "-//W3C//DTD SVG 1.1//EN"
 "http://www.w3.org/Graphics/SVG/1.1/DTD/svg11.dtd">
<!-- Generated by graphviz version 2.43.0 (0)
 -->
<!-- Title: a_graph Pages: 1 -->
<svg width="206pt" height="119pt"
 viewBox="0.00 0.00 206.00 119.00" xmlns="http://www.w3.org/2000/svg" xmlns:xlink="http://www.w3.org/1999/xlink">
<g id="graph0" class="graph" transform="scale(1 1) rotate(0) translate(4 115)">
<title>a_graph</title>
<polygon fill="white" stroke="transparent" points="-4,4 -4,-115 202,-115 202,4 -4,4"/>
<!-- T975 -->
<g id="node1" class="node">
<title>T975</title>
<polygon fill="none" stroke="#0058ad" points="0,-81.5 0,-110.5 198,-110.5 198,-81.5 0,-81.5"/>
<text text-anchor="middle" x="34" y="-92.3" font-family="Times,serif" font-size="14.00" fill="#0058ad">r 43 nil</text>
<polyline fill="none" stroke="#0058ad" points="68,-81.5 68,-110.5 "/>
<text text-anchor="middle" x="100.5" y="-92.3" font-family="Times,serif" font-size="14.00" fill="#0058ad">w 42 7</text>
<polyline fill="none" stroke="#0058ad" points="133,-81.5 133,-110.5 "/>
<text text-anchor="middle" x="165.5" y="-92.3" font-family="Times,serif" font-size="14.00" fill="#0058ad">w 43 1</text>
</g>
<!-- T989 -->
<g id="node2" class="node">
<title>T989</title>
<polygon fill="none" stroke="#0058ad" points="33.5,-0.5 33.5,-29.5 166.5,-29.5 166.5,-0.5 33.5,-0.5"/>
<text text-anchor="middle" x="67.5" y="-11.3" font-family="Times,serif" font-size="14.00" fill="#0058ad">r 43 nil</text>
<polyline fill="none" stroke="#0058ad" points="101.5,-0.5 101.5,-29.5 "/>
<text text-anchor="middle" x="134" y="-11.3" font-family="Times,serif" font-size="14.00" fill="#0058ad">w 43 3</text>
</g>
<!-- T975&#45;&gt;T989 -->
<g id="edge1" class="edge">
<title>T975:f0&#45;&gt;T989:f1</title>
<path fill="none" stroke="#5b00c0" d="M34,-81C34,-75.86 101.93,-48.78 125.82,-35.93"/>
<polygon fill="#5b00c0" stroke="#5b00c0" points="127.96,-38.7 134,-30 123.85,-33.03 127.96,-38.7"/>
<text text-anchor="middle" x="108.5" y="-51.8" font-family="Times,serif" font-size="14.00" fill="#5b00c0">rw</text>
</g>
<!-- T989&#45;&gt;T975 -->
<g id="edge2" class="edge">
<title>T989:f0&#45;&gt;T975:f2</title>
<path fill="none" stroke="#5b00c0" d="M67,-30C67,-55.72 99.19,-36.13 122,-48 140.13,-57.43 158.69,-57.07 164.3,-70.98"/>
<polygon fill="#5b00c0" stroke="#5b00c0" points="160.88,-71.73 166,-81 167.78,-70.56 160.88,-71.73"/>
<text text-anchor="middle" x="166.5" y="-51.8" font-family="Times,serif" font-size="14.00" fill="#5b00c0">rw</text>
</g>
</g>
</svg>
