<?xml version="1.0" encoding="UTF-8" standalone="no"?>
<!DOCTYPE svg PUBLIC "-//W3C//DTD SVG 1.1//EN"
 "http://www.w3.org/Graphics/SVG/1.1/DTD/svg11.dtd">
<!-- Generated by graphviz version 2.43.0 (0)
 -->
<!-- Title: a_graph Pages: 1 -->
<svg width="319pt" height="119pt"
 viewBox="0.00 0.00 319.00 119.00" xmlns="http://www.w3.org/2000/svg" xmlns:xlink="http://www.w3.org/1999/xlink">
<g id="graph0" class="graph" transform="scale(1 1) rotate(0) translate(4 115)">
<title>a_graph</title>
<polygon fill="white" stroke="transparent" points="-4,4 -4,-115 315,-115 315,4 -4,4"/>
<!-- T12013 -->
<g id="node1" class="node">
<title>T12013</title>
<polygon fill="none" stroke="#0058ad" points="0,-81.5 0,-110.5 311,-110.5 311,-81.5 0,-81.5"/>
<text text-anchor="middle" x="41.5" y="-92.3" font-family="Times,serif" font-size="14.00" fill="#0058ad">w 458 14</text>
<polyline fill="none" stroke="#0058ad" points="83,-81.5 83,-110.5 "/>
<text text-anchor="middle" x="121.5" y="-92.3" font-family="Times,serif" font-size="14.00" fill="#0058ad">r 463 nil</text>
<polyline fill="none" stroke="#0058ad" points="160,-81.5 160,-110.5 "/>
<text text-anchor="middle" x="198.5" y="-92.3" font-family="Times,serif" font-size="14.00" fill="#0058ad">r 463 nil</text>
<polyline fill="none" stroke="#0058ad" points="237,-81.5 237,-110.5 "/>
<text text-anchor="middle" x="274" y="-92.3" font-family="Times,serif" font-size="14.00" fill="#0058ad">w 463 1</text>
</g>
<!-- T12026 -->
<g id="node2" class="node">
<title>T12026</title>
<polygon fill="none" stroke="#0058ad" points="17,-0.5 17,-29.5 310,-29.5 310,-0.5 17,-0.5"/>
<text text-anchor="middle" x="51" y="-11.3" font-family="Times,serif" font-size="14.00" fill="#0058ad">r 452 8</text>
<polyline fill="none" stroke="#0058ad" points="85,-0.5 85,-29.5 "/>
<text text-anchor="middle" x="123.5" y="-11.3" font-family="Times,serif" font-size="14.00" fill="#0058ad">r 463 nil</text>
<polyline fill="none" stroke="#0058ad" points="162,-0.5 162,-29.5 "/>
<text text-anchor="middle" x="199" y="-11.3" font-family="Times,serif" font-size="14.00" fill="#0058ad">w 462 2</text>
<polyline fill="none" stroke="#0058ad" points="236,-0.5 236,-29.5 "/>
<text text-anchor="middle" x="273" y="-11.3" font-family="Times,serif" font-size="14.00" fill="#0058ad">w 463 4</text>
</g>
<!-- T12013&#45;&gt;T12026 -->
<g id="edge1" class="edge">
<title>T12013:f1&#45;&gt;T12026:f3</title>
<path fill="none" stroke="#5b00c0" d="M121.5,-81C121.5,-40.89 167.38,-60.49 205.5,-48 231.03,-39.64 262.9,-55.44 271.36,-40.21"/>
<polygon fill="#5b00c0" stroke="#5b00c0" points="274.87,-40.51 273.5,-30 268.02,-39.07 274.87,-40.51"/>
<text text-anchor="middle" x="215" y="-51.8" font-family="Times,serif" font-size="14.00" fill="#5b00c0">rw</text>
</g>
<!-- T12026&#45;&gt;T12013 -->
<g id="edge2" class="edge">
<title>T12026:f1&#45;&gt;T12013:f3</title>
<path fill="none" stroke="#5b00c0" d="M123.5,-30C123.5,-52.8 203.33,-39.55 224.5,-48 245.56,-56.41 267.01,-55.12 272.91,-70.99"/>
<polygon fill="#5b00c0" stroke="#5b00c0" points="269.48,-71.67 274.5,-81 276.39,-70.58 269.48,-71.67"/>
<text text-anchor="middle" x="276" y="-51.8" font-family="Times,serif" font-size="14.00" fill="#5b00c0">rw</text>
</g>
</g>
</svg>
