<?xml version="1.0" encoding="UTF-8" standalone="no"?>
<!DOCTYPE svg PUBLIC "-//W3C//DTD SVG 1.1//EN"
 "http://www.w3.org/Graphics/SVG/1.1/DTD/svg11.dtd">
<!-- Generated by graphviz version 2.43.0 (0)
 -->
<!-- Title: a_graph Pages: 1 -->
<svg width="651pt" height="362pt"
 viewBox="0.00 0.00 651.00 362.00" xmlns="http://www.w3.org/2000/svg" xmlns:xlink="http://www.w3.org/1999/xlink">
<g id="graph0" class="graph" transform="scale(1 1) rotate(0) translate(4 358)">
<title>a_graph</title>
<polygon fill="white" stroke="transparent" points="-4,4 -4,-358 647,-358 647,4 -4,4"/>
<!-- T22920 -->
<g id="node1" class="node">
<title>T22920</title>
<polygon fill="none" stroke="#0058ad" points="0,-324.5 0,-353.5 311,-353.5 311,-324.5 0,-324.5"/>
<text text-anchor="middle" x="37" y="-335.3" font-family="Times,serif" font-size="14.00" fill="#0058ad">w 874 9</text>
<polyline fill="none" stroke="#0058ad" points="74,-324.5 74,-353.5 "/>
<text text-anchor="middle" x="112.5" y="-335.3" font-family="Times,serif" font-size="14.00" fill="#0058ad">r 872 nil</text>
<polyline fill="none" stroke="#0058ad" points="151,-324.5 151,-353.5 "/>
<text text-anchor="middle" x="189.5" y="-335.3" font-family="Times,serif" font-size="14.00" fill="#0058ad">r 868 13</text>
<polyline fill="none" stroke="#0058ad" points="228,-324.5 228,-353.5 "/>
<text text-anchor="middle" x="269.5" y="-335.3" font-family="Times,serif" font-size="14.00" fill="#0058ad">w 868 14</text>
</g>
<!-- T22873 -->
<g id="node5" class="node">
<title>T22873</title>
<polygon fill="none" stroke="#0058ad" points="356,-243.5 356,-272.5 643,-272.5 643,-243.5 356,-243.5"/>
<text text-anchor="middle" x="394.5" y="-254.3" font-family="Times,serif" font-size="14.00" fill="#0058ad">r 875 nil</text>
<polyline fill="none" stroke="#0058ad" points="433,-243.5 433,-272.5 "/>
<text text-anchor="middle" x="467" y="-254.3" font-family="Times,serif" font-size="14.00" fill="#0058ad">r 868 8</text>
<polyline fill="none" stroke="#0058ad" points="501,-243.5 501,-272.5 "/>
<text text-anchor="middle" x="535" y="-254.3" font-family="Times,serif" font-size="14.00" fill="#0058ad">r 874 2</text>
<polyline fill="none" stroke="#0058ad" points="569,-243.5 569,-272.5 "/>
<text text-anchor="middle" x="606" y="-254.3" font-family="Times,serif" font-size="14.00" fill="#0058ad">w 872 1</text>
</g>
<!-- T22920&#45;&gt;T22873 -->
<g id="edge1" class="edge">
<title>T22920:f1&#45;&gt;T22873:f3</title>
<path fill="none" stroke="#5b00c0" d="M112.5,-324C112.5,-106.83 590.71,-481.3 606.12,-283.2"/>
<polygon fill="#5b00c0" stroke="#5b00c0" points="609.62,-283.12 606.5,-273 602.63,-282.86 609.62,-283.12"/>
<text text-anchor="middle" x="613" y="-294.8" font-family="Times,serif" font-size="14.00" fill="#5b00c0">rw</text>
</g>
<!-- T22927 -->
<g id="node2" class="node">
<title>T22927</title>
<polygon fill="none" stroke="#0058ad" points="472.5,-0.5 472.5,-29.5 626.5,-29.5 626.5,-0.5 472.5,-0.5"/>
<text text-anchor="middle" x="511" y="-11.3" font-family="Times,serif" font-size="14.00" fill="#0058ad">r 875 10</text>
<polyline fill="none" stroke="#0058ad" points="549.5,-0.5 549.5,-29.5 "/>
<text text-anchor="middle" x="588" y="-11.3" font-family="Times,serif" font-size="14.00" fill="#0058ad">r 872 nil</text>
</g>
<!-- T22927&#45;&gt;T22873 -->
<g id="edge2" class="edge">
<title>T22927:f1&#45;&gt;T22873:f3</title>
<path fill="none" stroke="#5b00c0" d="M588.5,-30C588.5,-121.57 605.22,-146.24 606.43,-232.98"/>
<polygon fill="#5b00c0" stroke="#5b00c0" points="602.93,-233.02 606.5,-243 609.93,-232.98 602.93,-233.02"/>
<text text-anchor="middle" x="608" y="-132.8" font-family="Times,serif" font-size="14.00" fill="#5b00c0">rw</text>
</g>
<!-- T22906 -->
<g id="node3" class="node">
<title>T22906</title>
<polygon fill="none" stroke="#0058ad" points="207,-162.5 207,-191.5 512,-191.5 512,-162.5 207,-162.5"/>
<text text-anchor="middle" x="245.5" y="-173.3" font-family="Times,serif" font-size="14.00" fill="#0058ad">r 865 12</text>
<polyline fill="none" stroke="#0058ad" points="284,-162.5 284,-191.5 "/>
<text text-anchor="middle" x="322.5" y="-173.3" font-family="Times,serif" font-size="14.00" fill="#0058ad">r 875 nil</text>
<polyline fill="none" stroke="#0058ad" points="361,-162.5 361,-191.5 "/>
<text text-anchor="middle" x="398" y="-173.3" font-family="Times,serif" font-size="14.00" fill="#0058ad">w 875 6</text>
<polyline fill="none" stroke="#0058ad" points="435,-162.5 435,-191.5 "/>
<text text-anchor="middle" x="473.5" y="-173.3" font-family="Times,serif" font-size="14.00" fill="#0058ad">r 868 12</text>
</g>
<!-- T22910 -->
<g id="node4" class="node">
<title>T22910</title>
<polygon fill="none" stroke="#0058ad" points="151,-81.5 151,-110.5 468,-110.5 468,-81.5 151,-81.5"/>
<text text-anchor="middle" x="192.5" y="-92.3" font-family="Times,serif" font-size="14.00" fill="#0058ad">w 868 13</text>
<polyline fill="none" stroke="#0058ad" points="234,-81.5 234,-110.5 "/>
<text text-anchor="middle" x="272.5" y="-92.3" font-family="Times,serif" font-size="14.00" fill="#0058ad">r 868 13</text>
<polyline fill="none" stroke="#0058ad" points="311,-81.5 311,-110.5 "/>
<text text-anchor="middle" x="348" y="-92.3" font-family="Times,serif" font-size="14.00" fill="#0058ad">w 875 9</text>
<polyline fill="none" stroke="#0058ad" points="385,-81.5 385,-110.5 "/>
<text text-anchor="middle" x="426.5" y="-92.3" font-family="Times,serif" font-size="14.00" fill="#0058ad">w 875 10</text>
</g>
<!-- T22906&#45;&gt;T22910 -->
<g id="edge3" class="edge">
<title>T22906:f1&#45;&gt;T22910:f3</title>
<path fill="none" stroke="#5b00c0" d="M322.5,-162C322.5,-114.54 410.88,-154.99 424.69,-121.27"/>
<polygon fill="#5b00c0" stroke="#5b00c0" points="428.22,-121.45 426.5,-111 421.32,-120.24 428.22,-121.45"/>
<text text-anchor="middle" x="428" y="-132.8" font-family="Times,serif" font-size="14.00" fill="#5b00c0">rw</text>
</g>
<!-- T22910&#45;&gt;T22920 -->
<g id="edge4" class="edge">
<title>T22910:f0&#45;&gt;T22920:f2</title>
<path fill="none" stroke="#c000a5" d="M192.5,-111C192.5,-202.16 189.72,-227.47 189.51,-313.75"/>
<polygon fill="#c000a5" stroke="#c000a5" points="186.01,-314 189.5,-324 193.01,-314 186.01,-314"/>
<text text-anchor="middle" x="201" y="-213.8" font-family="Times,serif" font-size="14.00" fill="#c000a5">wr</text>
</g>
<!-- T22910&#45;&gt;T22927 -->
<g id="edge5" class="edge">
<title>T22910:f3&#45;&gt;T22927:f0</title>
<path fill="none" stroke="#c000a5" d="M469.5,-96C500.66,-96 508.97,-70.38 510.29,-40"/>
<polygon fill="#c000a5" stroke="#c000a5" points="513.79,-40.07 510.5,-30 506.8,-39.93 513.79,-40.07"/>
<text text-anchor="middle" x="520" y="-51.8" font-family="Times,serif" font-size="14.00" fill="#c000a5">wr</text>
</g>
<!-- T22873&#45;&gt;T22906 -->
<g id="edge6" class="edge">
<title>T22873:f0&#45;&gt;T22906:f2</title>
<path fill="none" stroke="#5b00c0" d="M394.5,-243C394.5,-224.17 397.24,-217.14 398.19,-202.37"/>
<polygon fill="#5b00c0" stroke="#5b00c0" points="401.7,-202.1 398.5,-192 394.7,-201.89 401.7,-202.1"/>
<text text-anchor="middle" x="407" y="-213.8" font-family="Times,serif" font-size="14.00" fill="#5b00c0">rw</text>
</g>
<!-- T22873&#45;&gt;T22910 -->
<g id="edge7" class="edge">
<title>T22873:f0&#45;&gt;T22910:f3</title>
<path fill="none" stroke="#5b00c0" d="M394.5,-243C394.5,-227.9 512.06,-204.52 520.5,-192 543.08,-158.51 497.5,-116.75 477.86,-101.72"/>
<polygon fill="#5b00c0" stroke="#5b00c0" points="479.73,-98.76 469.5,-96 475.78,-104.54 479.73,-98.76"/>
<text text-anchor="middle" x="537" y="-173.3" font-family="Times,serif" font-size="14.00" fill="#5b00c0">rw</text>
</g>
</g>
</svg>
