<?xml version="1.0" encoding="UTF-8" standalone="no"?>
<!DOCTYPE svg PUBLIC "-//W3C//DTD SVG 1.1//EN"
 "http://www.w3.org/Graphics/SVG/1.1/DTD/svg11.dtd">
<!-- Generated by graphviz version 2.43.0 (0)
 -->
<!-- Title: a_graph Pages: 1 -->
<svg width="956pt" height="686pt"
 viewBox="0.00 0.00 956.12 686.00" xmlns="http://www.w3.org/2000/svg" xmlns:xlink="http://www.w3.org/1999/xlink">
<g id="graph0" class="graph" transform="scale(1 1) rotate(0) translate(4 682)">
<title>a_graph</title>
<polygon fill="white" stroke="transparent" points="-4,4 -4,-682 952.12,-682 952.12,4 -4,4"/>
<!-- T32256 -->
<g id="node1" class="node">
<title>T32256</title>
<polygon fill="none" stroke="#0058ad" points="71,-648.5 71,-677.5 255,-677.5 255,-648.5 71,-648.5"/>
<text text-anchor="middle" x="117" y="-659.3" font-family="Times,serif" font-size="14.00" fill="#0058ad">w 1234 12</text>
<polyline fill="none" stroke="#0058ad" points="163,-648.5 163,-677.5 "/>
<text text-anchor="middle" x="209" y="-659.3" font-family="Times,serif" font-size="14.00" fill="#0058ad">w 1232 15</text>
</g>
<!-- T32259 -->
<g id="node6" class="node">
<title>T32259</title>
<polygon fill="none" stroke="#0058ad" points="103.5,-567.5 103.5,-596.5 450.5,-596.5 450.5,-567.5 103.5,-567.5"/>
<text text-anchor="middle" x="149.5" y="-578.3" font-family="Times,serif" font-size="14.00" fill="#0058ad">w 1234 13</text>
<polyline fill="none" stroke="#0058ad" points="195.5,-567.5 195.5,-596.5 "/>
<text text-anchor="middle" x="237" y="-578.3" font-family="Times,serif" font-size="14.00" fill="#0058ad">w 1235 2</text>
<polyline fill="none" stroke="#0058ad" points="278.5,-567.5 278.5,-596.5 "/>
<text text-anchor="middle" x="321.5" y="-578.3" font-family="Times,serif" font-size="14.00" fill="#0058ad">r 1232 15</text>
<polyline fill="none" stroke="#0058ad" points="364.5,-567.5 364.5,-596.5 "/>
<text text-anchor="middle" x="407.5" y="-578.3" font-family="Times,serif" font-size="14.00" fill="#0058ad">r 1233 nil</text>
</g>
<!-- T32256&#45;&gt;T32259 -->
<g id="edge1" class="edge">
<title>T32256:f1&#45;&gt;T32259:f2</title>
<path fill="none" stroke="#c000a5" d="M256,-663C293.92,-663 317.66,-642.52 321.46,-607.31"/>
<polygon fill="#c000a5" stroke="#c000a5" points="324.97,-607.17 322,-597 317.98,-606.8 324.97,-607.17"/>
<text text-anchor="middle" x="329.5" y="-618.8" font-family="Times,serif" font-size="14.00" fill="#c000a5">wr</text>
</g>
<!-- T32219 -->
<g id="node2" class="node">
<title>T32219</title>
<polygon fill="none" stroke="#0058ad" points="486.5,-486.5 486.5,-515.5 723.5,-515.5 723.5,-486.5 486.5,-486.5"/>
<text text-anchor="middle" x="525" y="-497.3" font-family="Times,serif" font-size="14.00" fill="#0058ad">r 1232 3</text>
<polyline fill="none" stroke="#0058ad" points="563.5,-486.5 563.5,-515.5 "/>
<text text-anchor="middle" x="602" y="-497.3" font-family="Times,serif" font-size="14.00" fill="#0058ad">r 1232 3</text>
<polyline fill="none" stroke="#0058ad" points="640.5,-486.5 640.5,-515.5 "/>
<text text-anchor="middle" x="682" y="-497.3" font-family="Times,serif" font-size="14.00" fill="#0058ad">w 1233 1</text>
</g>
<!-- T32231 -->
<g id="node11" class="node">
<title>T32231</title>
<polygon fill="none" stroke="#0058ad" points="268.5,-405.5 268.5,-434.5 591.5,-434.5 591.5,-405.5 268.5,-405.5"/>
<text text-anchor="middle" x="310" y="-416.3" font-family="Times,serif" font-size="14.00" fill="#0058ad">w 1234 4</text>
<polyline fill="none" stroke="#0058ad" points="351.5,-405.5 351.5,-434.5 "/>
<text text-anchor="middle" x="390" y="-416.3" font-family="Times,serif" font-size="14.00" fill="#0058ad">r 1234 4</text>
<polyline fill="none" stroke="#0058ad" points="428.5,-405.5 428.5,-434.5 "/>
<text text-anchor="middle" x="467" y="-416.3" font-family="Times,serif" font-size="14.00" fill="#0058ad">r 1233 1</text>
<polyline fill="none" stroke="#0058ad" points="505.5,-405.5 505.5,-434.5 "/>
<text text-anchor="middle" x="548.5" y="-416.3" font-family="Times,serif" font-size="14.00" fill="#0058ad">r 1232 10</text>
</g>
<!-- T32219&#45;&gt;T32231 -->
<g id="edge2" class="edge">
<title>T32219:f2&#45;&gt;T32231:f2</title>
<path fill="none" stroke="#c000a5" d="M682,-486C682,-391.63 483.47,-522.22 467.96,-445.42"/>
<polygon fill="#c000a5" stroke="#c000a5" points="471.4,-444.64 467,-435 464.43,-445.28 471.4,-444.64"/>
<text text-anchor="middle" x="687.5" y="-456.8" font-family="Times,serif" font-size="14.00" fill="#c000a5">wr</text>
</g>
<!-- T32254 -->
<g id="node3" class="node">
<title>T32254</title>
<polygon fill="none" stroke="#0058ad" points="434.5,-162.5 434.5,-191.5 793.5,-191.5 793.5,-162.5 434.5,-162.5"/>
<text text-anchor="middle" x="480.5" y="-173.3" font-family="Times,serif" font-size="14.00" fill="#0058ad">w 1232 14</text>
<polyline fill="none" stroke="#0058ad" points="526.5,-162.5 526.5,-191.5 "/>
<text text-anchor="middle" x="572.5" y="-173.3" font-family="Times,serif" font-size="14.00" fill="#0058ad">w 1234 10</text>
<polyline fill="none" stroke="#0058ad" points="618.5,-162.5 618.5,-191.5 "/>
<text text-anchor="middle" x="664.5" y="-173.3" font-family="Times,serif" font-size="14.00" fill="#0058ad">w 1234 11</text>
<polyline fill="none" stroke="#0058ad" points="710.5,-162.5 710.5,-191.5 "/>
<text text-anchor="middle" x="752" y="-173.3" font-family="Times,serif" font-size="14.00" fill="#0058ad">w 1233 2</text>
</g>
<!-- T32258 -->
<g id="node10" class="node">
<title>T32258</title>
<polygon fill="none" stroke="#0058ad" points="713.5,-81.5 713.5,-110.5 876.5,-110.5 876.5,-81.5 713.5,-81.5"/>
<text text-anchor="middle" x="752" y="-92.3" font-family="Times,serif" font-size="14.00" fill="#0058ad">r 1233 2</text>
<polyline fill="none" stroke="#0058ad" points="790.5,-81.5 790.5,-110.5 "/>
<text text-anchor="middle" x="833.5" y="-92.3" font-family="Times,serif" font-size="14.00" fill="#0058ad">r 1235 nil</text>
</g>
<!-- T32254&#45;&gt;T32258 -->
<g id="edge3" class="edge">
<title>T32254:f3&#45;&gt;T32258:f0</title>
<path fill="none" stroke="#c000a5" d="M752,-162C752,-143.23 752,-136.12 752,-121.35"/>
<polygon fill="#c000a5" stroke="#c000a5" points="755.5,-121 752,-111 748.5,-121 755.5,-121"/>
<text text-anchor="middle" x="761.5" y="-132.8" font-family="Times,serif" font-size="14.00" fill="#c000a5">wr</text>
</g>
<!-- T32228 -->
<g id="node4" class="node">
<title>T32228</title>
<polygon fill="none" stroke="#0058ad" points="308.5,-81.5 308.5,-110.5 477.5,-110.5 477.5,-81.5 308.5,-81.5"/>
<text text-anchor="middle" x="354.5" y="-92.3" font-family="Times,serif" font-size="14.00" fill="#0058ad">w 1232 10</text>
<polyline fill="none" stroke="#0058ad" points="400.5,-81.5 400.5,-110.5 "/>
<text text-anchor="middle" x="439" y="-92.3" font-family="Times,serif" font-size="14.00" fill="#0058ad">r 1234 2</text>
</g>
<!-- T32237 -->
<g id="node8" class="node">
<title>T32237</title>
<polygon fill="none" stroke="#0058ad" points="0,-0.5 0,-29.5 332,-29.5 332,-0.5 0,-0.5"/>
<text text-anchor="middle" x="43" y="-11.3" font-family="Times,serif" font-size="14.00" fill="#0058ad">r 1235 nil</text>
<polyline fill="none" stroke="#0058ad" points="86,-0.5 86,-29.5 "/>
<text text-anchor="middle" x="127.5" y="-11.3" font-family="Times,serif" font-size="14.00" fill="#0058ad">w 1234 7</text>
<polyline fill="none" stroke="#0058ad" points="169,-0.5 169,-29.5 "/>
<text text-anchor="middle" x="207.5" y="-11.3" font-family="Times,serif" font-size="14.00" fill="#0058ad">r 1234 7</text>
<polyline fill="none" stroke="#0058ad" points="246,-0.5 246,-29.5 "/>
<text text-anchor="middle" x="289" y="-11.3" font-family="Times,serif" font-size="14.00" fill="#0058ad">r 1232 10</text>
</g>
<!-- T32228&#45;&gt;T32237 -->
<g id="edge5" class="edge">
<title>T32228:f0&#45;&gt;T32237:f3</title>
<path fill="none" stroke="#c000a5" d="M354,-81C354,-54.31 361.36,-24.28 343.24,-16.77"/>
<polygon fill="#c000a5" stroke="#c000a5" points="343.45,-13.26 333,-15 342.26,-20.15 343.45,-13.26"/>
<text text-anchor="middle" x="364.5" y="-51.8" font-family="Times,serif" font-size="14.00" fill="#c000a5">wr</text>
</g>
<!-- T32228&#45;&gt;T32231 -->
<g id="edge4" class="edge">
<title>T32228:f0&#45;&gt;T32231:f3</title>
<path fill="none" stroke="#c000a5" d="M354,-111C354,-147.6 523.96,-337.94 546.53,-394.96"/>
<polygon fill="#c000a5" stroke="#c000a5" points="543.22,-396.12 549,-405 550.01,-394.45 543.22,-396.12"/>
<text text-anchor="middle" x="470.5" y="-254.3" font-family="Times,serif" font-size="14.00" fill="#c000a5">wr</text>
</g>
<!-- T32223 -->
<g id="node5" class="node">
<title>T32223</title>
<polygon fill="none" stroke="#0058ad" points="90.5,-162.5 90.5,-191.5 339.5,-191.5 339.5,-162.5 90.5,-162.5"/>
<text text-anchor="middle" x="132" y="-173.3" font-family="Times,serif" font-size="14.00" fill="#0058ad">w 1232 8</text>
<polyline fill="none" stroke="#0058ad" points="173.5,-162.5 173.5,-191.5 "/>
<text text-anchor="middle" x="215" y="-173.3" font-family="Times,serif" font-size="14.00" fill="#0058ad">w 1234 1</text>
<polyline fill="none" stroke="#0058ad" points="256.5,-162.5 256.5,-191.5 "/>
<text text-anchor="middle" x="298" y="-173.3" font-family="Times,serif" font-size="14.00" fill="#0058ad">w 1234 2</text>
</g>
<!-- T32223&#45;&gt;T32228 -->
<g id="edge6" class="edge">
<title>T32223:f2&#45;&gt;T32228:f1</title>
<path fill="none" stroke="#c000a5" d="M341,-177C389.92,-177 432.75,-165.29 438.37,-121.23"/>
<polygon fill="#c000a5" stroke="#c000a5" points="441.88,-121.19 439,-111 434.9,-120.77 441.88,-121.19"/>
<text text-anchor="middle" x="445.5" y="-132.8" font-family="Times,serif" font-size="14.00" fill="#c000a5">wr</text>
</g>
<!-- T32259&#45;&gt;T32219 -->
<g id="edge7" class="edge">
<title>T32259:f3&#45;&gt;T32219:f2</title>
<path fill="none" stroke="#5b00c0" d="M452,-582C501.75,-582 659.72,-570.77 679.88,-525.79"/>
<polygon fill="#5b00c0" stroke="#5b00c0" points="683.3,-526.51 682,-516 676.46,-525.03 683.3,-526.51"/>
<text text-anchor="middle" x="681.5" y="-537.8" font-family="Times,serif" font-size="14.00" fill="#5b00c0">rw</text>
</g>
<!-- T32259&#45;&gt;T32254 -->
<g id="edge8" class="edge">
<title>T32259:f3&#45;&gt;T32254:f3</title>
<path fill="none" stroke="#5b00c0" d="M452,-582C521,-582 752,-571 752,-502 752,-502 752,-502 752,-257 752,-231.84 752,-223.11 752,-202.18"/>
<polygon fill="#5b00c0" stroke="#5b00c0" points="755.5,-202 752,-192 748.5,-202 755.5,-202"/>
<text text-anchor="middle" x="761.5" y="-375.8" font-family="Times,serif" font-size="14.00" fill="#5b00c0">rw</text>
</g>
<!-- T32224 -->
<g id="node7" class="node">
<title>T32224</title>
<polygon fill="none" stroke="#0058ad" points="167,-243.5 167,-272.5 419,-272.5 419,-243.5 167,-243.5"/>
<text text-anchor="middle" x="208.5" y="-254.3" font-family="Times,serif" font-size="14.00" fill="#0058ad">w 1232 9</text>
<polyline fill="none" stroke="#0058ad" points="250,-243.5 250,-272.5 "/>
<text text-anchor="middle" x="293" y="-254.3" font-family="Times,serif" font-size="14.00" fill="#0058ad">r 1234 nil</text>
<polyline fill="none" stroke="#0058ad" points="336,-243.5 336,-272.5 "/>
<text text-anchor="middle" x="377.5" y="-254.3" font-family="Times,serif" font-size="14.00" fill="#0058ad">w 1235 1</text>
</g>
<!-- T32224&#45;&gt;T32256 -->
<g id="edge11" class="edge">
<title>T32224:f1&#45;&gt;T32256:f0</title>
<path fill="none" stroke="#5b00c0" d="M293,-273C293,-299.31 201.59,-284.89 176,-291 92.96,-310.81 5,-293.13 5,-378.5 5,-583 5,-583 5,-583 5,-625.23 21.31,-657.59 59.75,-662.38"/>
<polygon fill="#5b00c0" stroke="#5b00c0" points="59.81,-665.89 70,-663 60.23,-658.91 59.81,-665.89"/>
<text text-anchor="middle" x="14.5" y="-456.8" font-family="Times,serif" font-size="14.00" fill="#5b00c0">rw</text>
</g>
<!-- T32224&#45;&gt;T32254 -->
<g id="edge15" class="edge">
<title>T32224:f1&#45;&gt;T32254:f2</title>
<path fill="none" stroke="#5b00c0" d="M293,-243C293,-224.01 601.16,-214.62 656.53,-197.36"/>
<polygon fill="#5b00c0" stroke="#5b00c0" points="658.42,-200.3 665,-192 654.68,-194.39 658.42,-200.3"/>
<text text-anchor="middle" x="574.5" y="-213.8" font-family="Times,serif" font-size="14.00" fill="#5b00c0">rw</text>
</g>
<!-- T32224&#45;&gt;T32223 -->
<g id="edge10" class="edge">
<title>T32224:f1&#45;&gt;T32223:f2</title>
<path fill="none" stroke="#5b00c0" d="M293,-243C293,-224.14 296.43,-217.16 297.61,-202.38"/>
<polygon fill="#5b00c0" stroke="#5b00c0" points="301.12,-202.13 298,-192 294.12,-201.86 301.12,-202.13"/>
<text text-anchor="middle" x="305.5" y="-213.8" font-family="Times,serif" font-size="14.00" fill="#5b00c0">rw</text>
</g>
<!-- T32224&#45;&gt;T32259 -->
<g id="edge13" class="edge">
<title>T32224:f1&#45;&gt;T32259:f0</title>
<path fill="none" stroke="#5b00c0" d="M293,-273C293,-278.33 112.8,-321.67 108,-324 98.56,-328.58 89,-327.51 89,-338 89,-502 89,-502 89,-502 89,-533.94 70.9,-572.14 91.91,-580.38"/>
<polygon fill="#5b00c0" stroke="#5b00c0" points="91.57,-583.87 102,-582 92.68,-576.96 91.57,-583.87"/>
<text text-anchor="middle" x="98.5" y="-416.3" font-family="Times,serif" font-size="14.00" fill="#5b00c0">rw</text>
</g>
<!-- T32224&#45;&gt;T32237 -->
<g id="edge14" class="edge">
<title>T32224:f1&#45;&gt;T32237:f1</title>
<path fill="none" stroke="#5b00c0" d="M293,-243C293,-194.76 111.84,-229.91 82,-192 73.75,-181.52 79.82,-175.15 82,-162 91.56,-104.32 123.13,-93.15 126.68,-40.04"/>
<polygon fill="#5b00c0" stroke="#5b00c0" points="130.17,-40.11 127,-30 123.18,-39.88 130.17,-40.11"/>
<text text-anchor="middle" x="100.5" y="-132.8" font-family="Times,serif" font-size="14.00" fill="#5b00c0">rw</text>
</g>
<!-- T32234 -->
<g id="node9" class="node">
<title>T32234</title>
<polygon fill="none" stroke="#0058ad" points="117,-324.5 117,-353.5 449,-353.5 449,-324.5 117,-324.5"/>
<text text-anchor="middle" x="155.5" y="-335.3" font-family="Times,serif" font-size="14.00" fill="#0058ad">r 1234 4</text>
<polyline fill="none" stroke="#0058ad" points="194,-324.5 194,-353.5 "/>
<text text-anchor="middle" x="237" y="-335.3" font-family="Times,serif" font-size="14.00" fill="#0058ad">r 1235 nil</text>
<polyline fill="none" stroke="#0058ad" points="280,-324.5 280,-353.5 "/>
<text text-anchor="middle" x="321.5" y="-335.3" font-family="Times,serif" font-size="14.00" fill="#0058ad">w 1234 5</text>
<polyline fill="none" stroke="#0058ad" points="363,-324.5 363,-353.5 "/>
<text text-anchor="middle" x="406" y="-335.3" font-family="Times,serif" font-size="14.00" fill="#0058ad">r 1225 nil</text>
</g>
<!-- T32224&#45;&gt;T32234 -->
<g id="edge9" class="edge">
<title>T32224:f1&#45;&gt;T32234:f2</title>
<path fill="none" stroke="#5b00c0" d="M293,-273C293,-295.2 314.03,-297.67 320.27,-314.01"/>
<polygon fill="#5b00c0" stroke="#5b00c0" points="316.85,-314.74 322,-324 323.75,-313.55 316.85,-314.74"/>
<text text-anchor="middle" x="323.5" y="-294.8" font-family="Times,serif" font-size="14.00" fill="#5b00c0">rw</text>
</g>
<!-- T32224&#45;&gt;T32231 -->
<g id="edge12" class="edge">
<title>T32224:f1&#45;&gt;T32231:f0</title>
<path fill="none" stroke="#5b00c0" d="M293,-273C293,-282.59 452.3,-316.28 458,-324 465.91,-334.73 465.74,-343.14 458,-354 419.81,-407.55 321.57,-343.26 310.94,-394.84"/>
<polygon fill="#5b00c0" stroke="#5b00c0" points="307.43,-394.72 310,-405 314.4,-395.36 307.43,-394.72"/>
<text text-anchor="middle" x="472.5" y="-335.3" font-family="Times,serif" font-size="14.00" fill="#5b00c0">rw</text>
</g>
<!-- T32237&#45;&gt;T32259 -->
<g id="edge16" class="edge">
<title>T32237:f0&#45;&gt;T32259:f1</title>
<path fill="none" stroke="#5b00c0" d="M43,-30C43,-60.1 24,-64.9 24,-95 24,-259 24,-259 24,-259 24,-339.52 23.2,-367.43 67,-435 91.19,-472.31 217.34,-513 234.96,-556.97"/>
<polygon fill="#5b00c0" stroke="#5b00c0" points="231.57,-557.9 237,-567 238.43,-556.5 231.57,-557.9"/>
<text text-anchor="middle" x="34.5" y="-294.8" font-family="Times,serif" font-size="14.00" fill="#5b00c0">rw</text>
</g>
<!-- T32237&#45;&gt;T32224 -->
<g id="edge17" class="edge">
<title>T32237:f0&#45;&gt;T32224:f2</title>
<path fill="none" stroke="#5b00c0" d="M43,-30C43,-178.11 247.64,-54 349,-162 372.71,-187.27 377.26,-201.86 377.91,-232.83"/>
<polygon fill="#5b00c0" stroke="#5b00c0" points="374.41,-233.03 378,-243 381.41,-232.97 374.41,-233.03"/>
<text text-anchor="middle" x="335.5" y="-132.8" font-family="Times,serif" font-size="14.00" fill="#5b00c0">rw</text>
</g>
<!-- T32234&#45;&gt;T32259 -->
<g id="edge18" class="edge">
<title>T32234:f1&#45;&gt;T32259:f1</title>
<path fill="none" stroke="#5b00c0" d="M237,-354C237,-445.15 237,-470.48 237,-556.75"/>
<polygon fill="#5b00c0" stroke="#5b00c0" points="233.5,-557 237,-567 240.5,-557 233.5,-557"/>
<text text-anchor="middle" x="246.5" y="-456.8" font-family="Times,serif" font-size="14.00" fill="#5b00c0">rw</text>
</g>
<!-- T32234&#45;&gt;T32224 -->
<g id="edge19" class="edge">
<title>T32234:f1&#45;&gt;T32224:f2</title>
<path fill="none" stroke="#5b00c0" d="M237,-324C237,-300.95 256.08,-300.67 277,-291 294.38,-282.96 353.81,-291.81 372.4,-281.34"/>
<polygon fill="#5b00c0" stroke="#5b00c0" points="375.33,-283.25 378,-273 369.52,-279.35 375.33,-283.25"/>
<text text-anchor="middle" x="286.5" y="-294.8" font-family="Times,serif" font-size="14.00" fill="#5b00c0">rw</text>
</g>
<!-- T32258&#45;&gt;T32259 -->
<g id="edge20" class="edge">
<title>T32258:f1&#45;&gt;T32259:f1</title>
<path fill="none" stroke="#5b00c0" d="M878,-96C1092.65,-96 759.82,-367.8 570,-468 533.15,-487.45 518.28,-475.34 478,-486 453.36,-492.52 276.96,-530.22 242.74,-558.28"/>
<polygon fill="#5b00c0" stroke="#5b00c0" points="239.58,-556.72 237,-567 245.42,-560.57 239.58,-556.72"/>
<text text-anchor="middle" x="792.5" y="-335.3" font-family="Times,serif" font-size="14.00" fill="#5b00c0">rw</text>
</g>
<!-- T32258&#45;&gt;T32224 -->
<g id="edge21" class="edge">
<title>T32258:f1&#45;&gt;T32224:f2</title>
<path fill="none" stroke="#5b00c0" d="M834,-111C834,-149.55 833,-167.8 803,-192 686.12,-286.28 615.43,-209.7 469,-243 450.61,-247.18 444.69,-254.72 430.27,-257.19"/>
<polygon fill="#5b00c0" stroke="#5b00c0" points="429.7,-253.73 420,-258 430.24,-260.71 429.7,-253.73"/>
<text text-anchor="middle" x="836.5" y="-173.3" font-family="Times,serif" font-size="14.00" fill="#5b00c0">rw</text>
</g>
<!-- T32231&#45;&gt;T32234 -->
<g id="edge22" class="edge">
<title>T32231:f0&#45;&gt;T32234:f0</title>
<path fill="none" stroke="#c000a5" d="M267,-420C212.83,-420 161.79,-412.77 155.62,-364.26"/>
<polygon fill="#c000a5" stroke="#c000a5" points="159.1,-363.77 155,-354 152.11,-364.19 159.1,-363.77"/>
<text text-anchor="middle" x="171.5" y="-375.8" font-family="Times,serif" font-size="14.00" fill="#c000a5">wr</text>
</g>
</g>
</svg>
