<?xml version="1.0" encoding="UTF-8" standalone="no"?>
<!DOCTYPE svg PUBLIC "-//W3C//DTD SVG 1.1//EN"
 "http://www.w3.org/Graphics/SVG/1.1/DTD/svg11.dtd">
<!-- Generated by graphviz version 2.43.0 (0)
 -->
<!-- Title: a_graph Pages: 1 -->
<svg width="709pt" height="686pt"
 viewBox="0.00 0.00 709.00 686.00" xmlns="http://www.w3.org/2000/svg" xmlns:xlink="http://www.w3.org/1999/xlink">
<g id="graph0" class="graph" transform="scale(1 1) rotate(0) translate(4 682)">
<title>a_graph</title>
<polygon fill="white" stroke="transparent" points="-4,4 -4,-682 705,-682 705,4 -4,4"/>
<!-- T30346 -->
<g id="node1" class="node">
<title>T30346</title>
<polygon fill="none" stroke="#0058ad" points="203,-648.5 203,-677.5 541,-677.5 541,-648.5 203,-648.5"/>
<text text-anchor="middle" x="244.5" y="-659.3" font-family="Times,serif" font-size="14.00" fill="#0058ad">w 1163 2</text>
<polyline fill="none" stroke="#0058ad" points="286,-648.5 286,-677.5 "/>
<text text-anchor="middle" x="327.5" y="-659.3" font-family="Times,serif" font-size="14.00" fill="#0058ad">w 1160 3</text>
<polyline fill="none" stroke="#0058ad" points="369,-648.5 369,-677.5 "/>
<text text-anchor="middle" x="412" y="-659.3" font-family="Times,serif" font-size="14.00" fill="#0058ad">r 1094 15</text>
<polyline fill="none" stroke="#0058ad" points="455,-648.5 455,-677.5 "/>
<text text-anchor="middle" x="498" y="-659.3" font-family="Times,serif" font-size="14.00" fill="#0058ad">r 1161 nil</text>
</g>
<!-- T30331 -->
<g id="node3" class="node">
<title>T30331</title>
<polygon fill="none" stroke="#0058ad" points="485.5,-567.5 485.5,-596.5 654.5,-596.5 654.5,-567.5 485.5,-567.5"/>
<text text-anchor="middle" x="527" y="-578.3" font-family="Times,serif" font-size="14.00" fill="#0058ad">w 1161 2</text>
<polyline fill="none" stroke="#0058ad" points="568.5,-567.5 568.5,-596.5 "/>
<text text-anchor="middle" x="611.5" y="-578.3" font-family="Times,serif" font-size="14.00" fill="#0058ad">r 1154 16</text>
</g>
<!-- T30346&#45;&gt;T30331 -->
<g id="edge1" class="edge">
<title>T30346:f3&#45;&gt;T30331:f0</title>
<path fill="none" stroke="#5b00c0" d="M498,-648C498,-625.8 519.03,-623.33 525.27,-606.99"/>
<polygon fill="#5b00c0" stroke="#5b00c0" points="528.75,-607.45 527,-597 521.85,-606.26 528.75,-607.45"/>
<text text-anchor="middle" x="528.5" y="-618.8" font-family="Times,serif" font-size="14.00" fill="#5b00c0">rw</text>
</g>
<!-- T30332 -->
<g id="node5" class="node">
<title>T30332</title>
<polygon fill="none" stroke="#0058ad" points="272,-486.5 272,-515.5 524,-515.5 524,-486.5 272,-486.5"/>
<text text-anchor="middle" x="310.5" y="-497.3" font-family="Times,serif" font-size="14.00" fill="#0058ad">r 1161 2</text>
<polyline fill="none" stroke="#0058ad" points="349,-486.5 349,-515.5 "/>
<text text-anchor="middle" x="395" y="-497.3" font-family="Times,serif" font-size="14.00" fill="#0058ad">w 1159 11</text>
<polyline fill="none" stroke="#0058ad" points="441,-486.5 441,-515.5 "/>
<text text-anchor="middle" x="482.5" y="-497.3" font-family="Times,serif" font-size="14.00" fill="#0058ad">w 1161 3</text>
</g>
<!-- T30346&#45;&gt;T30332 -->
<g id="edge3" class="edge">
<title>T30346:f3&#45;&gt;T30332:f2</title>
<path fill="none" stroke="#5b00c0" d="M498,-648C498,-619.19 467.4,-624.23 458,-597 448.83,-570.45 449.68,-558.73 463,-534 466.37,-527.75 472.79,-526.79 477.45,-524.54"/>
<polygon fill="#5b00c0" stroke="#5b00c0" points="480.48,-526.29 483,-516 474.62,-522.48 480.48,-526.29"/>
<text text-anchor="middle" x="467.5" y="-578.3" font-family="Times,serif" font-size="14.00" fill="#5b00c0">rw</text>
</g>
<!-- T30362 -->
<g id="node6" class="node">
<title>T30362</title>
<polygon fill="none" stroke="#0058ad" points="391.5,-0.5 391.5,-29.5 560.5,-29.5 560.5,-0.5 391.5,-0.5"/>
<text text-anchor="middle" x="434.5" y="-11.3" font-family="Times,serif" font-size="14.00" fill="#0058ad">r 1162 nil</text>
<polyline fill="none" stroke="#0058ad" points="477.5,-0.5 477.5,-29.5 "/>
<text text-anchor="middle" x="519" y="-11.3" font-family="Times,serif" font-size="14.00" fill="#0058ad">w 1161 4</text>
</g>
<!-- T30346&#45;&gt;T30362 -->
<g id="edge2" class="edge">
<title>T30346:f3&#45;&gt;T30362:f1</title>
<path fill="none" stroke="#5b00c0" d="M542,-663C613.66,-663 682,-654.66 682,-583 682,-583 682,-583 682,-95 682,-63.39 765.9,-16.58 572.06,-15.04"/>
<polygon fill="#5b00c0" stroke="#5b00c0" points="572.01,-11.54 562,-15 571.99,-18.54 572.01,-11.54"/>
<text text-anchor="middle" x="691.5" y="-335.3" font-family="Times,serif" font-size="14.00" fill="#5b00c0">rw</text>
</g>
<!-- T30343 -->
<g id="node2" class="node">
<title>T30343</title>
<polygon fill="none" stroke="#0058ad" points="151.5,-324.5 151.5,-353.5 406.5,-353.5 406.5,-324.5 151.5,-324.5"/>
<text text-anchor="middle" x="194.5" y="-335.3" font-family="Times,serif" font-size="14.00" fill="#0058ad">r 1163 nil</text>
<polyline fill="none" stroke="#0058ad" points="237.5,-324.5 237.5,-353.5 "/>
<text text-anchor="middle" x="280.5" y="-335.3" font-family="Times,serif" font-size="14.00" fill="#0058ad">r 1163 nil</text>
<polyline fill="none" stroke="#0058ad" points="323.5,-324.5 323.5,-353.5 "/>
<text text-anchor="middle" x="365" y="-335.3" font-family="Times,serif" font-size="14.00" fill="#0058ad">w 1163 1</text>
</g>
<!-- T30343&#45;&gt;T30346 -->
<g id="edge4" class="edge">
<title>T30343:f0&#45;&gt;T30346:f0</title>
<path fill="none" stroke="#5b00c0" d="M194,-354C194,-382.89 194,-390.11 194,-419 194,-583 194,-583 194,-583 194,-614.55 172.39,-652.74 191.91,-661.26"/>
<polygon fill="#5b00c0" stroke="#5b00c0" points="191.55,-664.75 202,-663 192.74,-657.85 191.55,-664.75"/>
<text text-anchor="middle" x="203.5" y="-497.3" font-family="Times,serif" font-size="14.00" fill="#5b00c0">rw</text>
</g>
<!-- T30373 -->
<g id="node7" class="node">
<title>T30373</title>
<polygon fill="none" stroke="#0058ad" points="260,-243.5 260,-272.5 438,-272.5 438,-243.5 260,-243.5"/>
<text text-anchor="middle" x="303" y="-254.3" font-family="Times,serif" font-size="14.00" fill="#0058ad">r 1162 nil</text>
<polyline fill="none" stroke="#0058ad" points="346,-243.5 346,-272.5 "/>
<text text-anchor="middle" x="392" y="-254.3" font-family="Times,serif" font-size="14.00" fill="#0058ad">w 1163 10</text>
</g>
<!-- T30343&#45;&gt;T30373 -->
<g id="edge5" class="edge">
<title>T30343:f0&#45;&gt;T30373:f1</title>
<path fill="none" stroke="#5b00c0" d="M194,-324C194,-236.85 376.09,-353.52 391.03,-283.09"/>
<polygon fill="#5b00c0" stroke="#5b00c0" points="394.53,-283.29 392,-273 387.56,-282.62 394.53,-283.29"/>
<text text-anchor="middle" x="396.5" y="-294.8" font-family="Times,serif" font-size="14.00" fill="#5b00c0">rw</text>
</g>
<!-- T30331&#45;&gt;T30332 -->
<g id="edge6" class="edge">
<title>T30331:f0&#45;&gt;T30332:f0</title>
<path fill="none" stroke="#c000a5" d="M527,-567C527,-551 478.3,-538.68 463,-534 449.06,-529.74 347.91,-532.1 318.19,-522.32"/>
<polygon fill="#c000a5" stroke="#c000a5" points="320.06,-519.34 310,-516 315.78,-524.88 320.06,-519.34"/>
<text text-anchor="middle" x="514.5" y="-537.8" font-family="Times,serif" font-size="14.00" fill="#c000a5">wr</text>
</g>
<!-- T30341 -->
<g id="node4" class="node">
<title>T30341</title>
<polygon fill="none" stroke="#0058ad" points="222.5,-405.5 222.5,-434.5 477.5,-434.5 477.5,-405.5 222.5,-405.5"/>
<text text-anchor="middle" x="268.5" y="-416.3" font-family="Times,serif" font-size="14.00" fill="#0058ad">w 1159 16</text>
<polyline fill="none" stroke="#0058ad" points="314.5,-405.5 314.5,-434.5 "/>
<text text-anchor="middle" x="353" y="-416.3" font-family="Times,serif" font-size="14.00" fill="#0058ad">r 1161 3</text>
<polyline fill="none" stroke="#0058ad" points="391.5,-405.5 391.5,-434.5 "/>
<text text-anchor="middle" x="434.5" y="-416.3" font-family="Times,serif" font-size="14.00" fill="#0058ad">r 1163 nil</text>
</g>
<!-- T30341&#45;&gt;T30346 -->
<g id="edge9" class="edge">
<title>T30341:f2&#45;&gt;T30346:f0</title>
<path fill="none" stroke="#5b00c0" d="M435,-435C435,-463.27 401.1,-444.97 374,-453 324.65,-467.62 296.13,-446.61 263,-486 218.62,-538.77 241.48,-572.13 243.81,-637.65"/>
<polygon fill="#5b00c0" stroke="#5b00c0" points="240.32,-638.06 244,-648 247.32,-637.94 240.32,-638.06"/>
<text text-anchor="middle" x="247.5" y="-537.8" font-family="Times,serif" font-size="14.00" fill="#5b00c0">rw</text>
</g>
<!-- T30341&#45;&gt;T30343 -->
<g id="edge8" class="edge">
<title>T30341:f2&#45;&gt;T30343:f2</title>
<path fill="none" stroke="#5b00c0" d="M435,-405C435,-391.31 421.08,-395.05 410,-387 393.23,-374.81 373.05,-377.27 366.88,-363.92"/>
<polygon fill="#5b00c0" stroke="#5b00c0" points="370.3,-363.17 365,-354 363.43,-364.48 370.3,-363.17"/>
<text text-anchor="middle" x="419.5" y="-375.8" font-family="Times,serif" font-size="14.00" fill="#5b00c0">rw</text>
</g>
<!-- T30341&#45;&gt;T30373 -->
<g id="edge7" class="edge">
<title>T30341:f2&#45;&gt;T30373:f1</title>
<path fill="none" stroke="#5b00c0" d="M435,-405C435,-343.47 496.47,-267.51 449.14,-258.82"/>
<polygon fill="#5b00c0" stroke="#5b00c0" points="449.25,-255.32 439,-258 448.68,-262.3 449.25,-255.32"/>
<text text-anchor="middle" x="464.5" y="-335.3" font-family="Times,serif" font-size="14.00" fill="#5b00c0">rw</text>
</g>
<!-- T30332&#45;&gt;T30341 -->
<g id="edge10" class="edge">
<title>T30332:f2&#45;&gt;T30341:f1</title>
<path fill="none" stroke="#c000a5" d="M483,-486C483,-458.48 380.78,-464.07 357.63,-444.05"/>
<polygon fill="#c000a5" stroke="#c000a5" points="360.67,-442.31 353,-435 354.44,-445.5 360.67,-442.31"/>
<text text-anchor="middle" x="467.5" y="-456.8" font-family="Times,serif" font-size="14.00" fill="#c000a5">wr</text>
</g>
<!-- T30333 -->
<g id="node8" class="node">
<title>T30333</title>
<polygon fill="none" stroke="#0058ad" points="0,-162.5 0,-191.5 344,-191.5 344,-162.5 0,-162.5"/>
<text text-anchor="middle" x="46" y="-173.3" font-family="Times,serif" font-size="14.00" fill="#0058ad">w 1138 15</text>
<polyline fill="none" stroke="#0058ad" points="92,-162.5 92,-191.5 "/>
<text text-anchor="middle" x="138" y="-173.3" font-family="Times,serif" font-size="14.00" fill="#0058ad">w 1159 12</text>
<polyline fill="none" stroke="#0058ad" points="184,-162.5 184,-191.5 "/>
<text text-anchor="middle" x="222.5" y="-173.3" font-family="Times,serif" font-size="14.00" fill="#0058ad">r 1078 2</text>
<polyline fill="none" stroke="#0058ad" points="261,-162.5 261,-191.5 "/>
<text text-anchor="middle" x="302.5" y="-173.3" font-family="Times,serif" font-size="14.00" fill="#0058ad">w 1162 1</text>
</g>
<!-- T30362&#45;&gt;T30333 -->
<g id="edge11" class="edge">
<title>T30362:f0&#45;&gt;T30333:f3</title>
<path fill="none" stroke="#5b00c0" d="M390,-15C334.5,-15 310.94,-32.48 284,-81 267.8,-110.17 296.31,-122.54 302.03,-151.85"/>
<polygon fill="#5b00c0" stroke="#5b00c0" points="298.56,-152.38 303,-162 305.53,-151.71 298.56,-152.38"/>
<text text-anchor="middle" x="293.5" y="-92.3" font-family="Times,serif" font-size="14.00" fill="#5b00c0">rw</text>
</g>
<!-- T30373&#45;&gt;T30333 -->
<g id="edge12" class="edge">
<title>T30373:f0&#45;&gt;T30333:f3</title>
<path fill="none" stroke="#5b00c0" d="M303,-243C303,-224.23 303,-217.12 303,-202.35"/>
<polygon fill="#5b00c0" stroke="#5b00c0" points="306.5,-202 303,-192 299.5,-202 306.5,-202"/>
<text text-anchor="middle" x="312.5" y="-213.8" font-family="Times,serif" font-size="14.00" fill="#5b00c0">rw</text>
</g>
<!-- T30340 -->
<g id="node9" class="node">
<title>T30340</title>
<polygon fill="none" stroke="#0058ad" points="312.5,-81.5 312.5,-110.5 653.5,-110.5 653.5,-81.5 312.5,-81.5"/>
<text text-anchor="middle" x="351" y="-92.3" font-family="Times,serif" font-size="14.00" fill="#0058ad">r 1078 2</text>
<polyline fill="none" stroke="#0058ad" points="389.5,-81.5 389.5,-110.5 "/>
<text text-anchor="middle" x="432.5" y="-92.3" font-family="Times,serif" font-size="14.00" fill="#0058ad">r 1159 12</text>
<polyline fill="none" stroke="#0058ad" points="475.5,-81.5 475.5,-110.5 "/>
<text text-anchor="middle" x="518.5" y="-92.3" font-family="Times,serif" font-size="14.00" fill="#0058ad">r 1161 nil</text>
<polyline fill="none" stroke="#0058ad" points="561.5,-81.5 561.5,-110.5 "/>
<text text-anchor="middle" x="607.5" y="-92.3" font-family="Times,serif" font-size="14.00" fill="#0058ad">w 1159 15</text>
</g>
<!-- T30333&#45;&gt;T30340 -->
<g id="edge13" class="edge">
<title>T30333:f1&#45;&gt;T30340:f1</title>
<path fill="none" stroke="#c000a5" d="M138,-162C138,-33.01 416.14,-232.16 431.35,-121.12"/>
<polygon fill="#c000a5" stroke="#c000a5" points="434.85,-121.2 432,-111 427.87,-120.76 434.85,-121.2"/>
<text text-anchor="middle" x="438.5" y="-132.8" font-family="Times,serif" font-size="14.00" fill="#c000a5">wr</text>
</g>
<!-- T30340&#45;&gt;T30331 -->
<g id="edge14" class="edge">
<title>T30340:f2&#45;&gt;T30331:f0</title>
<path fill="none" stroke="#5b00c0" d="M519,-111C519,-112.01 552,-174.99 552,-176 552,-502 552,-502 552,-502 552,-529.2 532.69,-534.89 528.01,-556.88"/>
<polygon fill="#5b00c0" stroke="#5b00c0" points="524.51,-556.7 527,-567 531.48,-557.4 524.51,-556.7"/>
<text text-anchor="middle" x="561.5" y="-335.3" font-family="Times,serif" font-size="14.00" fill="#5b00c0">rw</text>
</g>
<!-- T30340&#45;&gt;T30332 -->
<g id="edge16" class="edge">
<title>T30340:f2&#45;&gt;T30332:f2</title>
<path fill="none" stroke="#5b00c0" d="M519,-111C519,-140.46 506,-146.54 506,-176 506,-421 506,-421 506,-421 506,-447.93 488.23,-454.06 483.93,-475.96"/>
<polygon fill="#5b00c0" stroke="#5b00c0" points="480.44,-475.72 483,-486 487.41,-476.37 480.44,-475.72"/>
<text text-anchor="middle" x="515.5" y="-294.8" font-family="Times,serif" font-size="14.00" fill="#5b00c0">rw</text>
</g>
<!-- T30340&#45;&gt;T30362 -->
<g id="edge15" class="edge">
<title>T30340:f2&#45;&gt;T30362:f1</title>
<path fill="none" stroke="#5b00c0" d="M519,-81C519,-62.23 519,-55.12 519,-40.35"/>
<polygon fill="#5b00c0" stroke="#5b00c0" points="522.5,-40 519,-30 515.5,-40 522.5,-40"/>
<text text-anchor="middle" x="528.5" y="-51.8" font-family="Times,serif" font-size="14.00" fill="#5b00c0">rw</text>
</g>
</g>
</svg>
