<?xml version="1.0" encoding="UTF-8" standalone="no"?>
<!DOCTYPE svg PUBLIC "-//W3C//DTD SVG 1.1//EN"
 "http://www.w3.org/Graphics/SVG/1.1/DTD/svg11.dtd">
<!-- Generated by graphviz version 2.43.0 (0)
 -->
<!-- Title: a_graph Pages: 1 -->
<svg width="549pt" height="605pt"
 viewBox="0.00 0.00 549.00 605.00" xmlns="http://www.w3.org/2000/svg" xmlns:xlink="http://www.w3.org/1999/xlink">
<g id="graph0" class="graph" transform="scale(1 1) rotate(0) translate(4 601)">
<title>a_graph</title>
<polygon fill="white" stroke="transparent" points="-4,4 -4,-601 545,-601 545,4 -4,4"/>
<!-- T21839 -->
<g id="node1" class="node">
<title>T21839</title>
<polygon fill="none" stroke="#0058ad" points="211,-567.5 211,-596.5 495,-596.5 495,-567.5 211,-567.5"/>
<text text-anchor="middle" x="248" y="-578.3" font-family="Times,serif" font-size="14.00" fill="#0058ad">w 836 1</text>
<polyline fill="none" stroke="#0058ad" points="285,-567.5 285,-596.5 "/>
<text text-anchor="middle" x="322" y="-578.3" font-family="Times,serif" font-size="14.00" fill="#0058ad">w 836 2</text>
<polyline fill="none" stroke="#0058ad" points="359,-567.5 359,-596.5 "/>
<text text-anchor="middle" x="393" y="-578.3" font-family="Times,serif" font-size="14.00" fill="#0058ad">r 836 2</text>
<polyline fill="none" stroke="#0058ad" points="427,-567.5 427,-596.5 "/>
<text text-anchor="middle" x="461" y="-578.3" font-family="Times,serif" font-size="14.00" fill="#0058ad">r 833 2</text>
</g>
<!-- T21845 -->
<g id="node8" class="node">
<title>T21845</title>
<polygon fill="none" stroke="#0058ad" points="286.5,-486.5 286.5,-515.5 431.5,-515.5 431.5,-486.5 286.5,-486.5"/>
<text text-anchor="middle" x="320.5" y="-497.3" font-family="Times,serif" font-size="14.00" fill="#0058ad">r 836 2</text>
<polyline fill="none" stroke="#0058ad" points="354.5,-486.5 354.5,-515.5 "/>
<text text-anchor="middle" x="393" y="-497.3" font-family="Times,serif" font-size="14.00" fill="#0058ad">r 835 nil</text>
</g>
<!-- T21839&#45;&gt;T21845 -->
<g id="edge1" class="edge">
<title>T21839:f1&#45;&gt;T21845:f0</title>
<path fill="none" stroke="#c000a5" d="M322,-567C322,-548.21 320.63,-541.12 320.16,-526.36"/>
<polygon fill="#c000a5" stroke="#c000a5" points="323.65,-525.95 320,-516 316.65,-526.05 323.65,-525.95"/>
<text text-anchor="middle" x="331.5" y="-537.8" font-family="Times,serif" font-size="14.00" fill="#c000a5">wr</text>
</g>
<!-- T21829 -->
<g id="node2" class="node">
<title>T21829</title>
<polygon fill="none" stroke="#0058ad" points="0,-162.5 0,-191.5 320,-191.5 320,-162.5 0,-162.5"/>
<text text-anchor="middle" x="38.5" y="-173.3" font-family="Times,serif" font-size="14.00" fill="#0058ad">r 832 10</text>
<polyline fill="none" stroke="#0058ad" points="77,-162.5 77,-191.5 "/>
<text text-anchor="middle" x="115.5" y="-173.3" font-family="Times,serif" font-size="14.00" fill="#0058ad">r 832 10</text>
<polyline fill="none" stroke="#0058ad" points="154,-162.5 154,-191.5 "/>
<text text-anchor="middle" x="195.5" y="-173.3" font-family="Times,serif" font-size="14.00" fill="#0058ad">w 832 15</text>
<polyline fill="none" stroke="#0058ad" points="237,-162.5 237,-191.5 "/>
<text text-anchor="middle" x="278.5" y="-173.3" font-family="Times,serif" font-size="14.00" fill="#0058ad">w 831 14</text>
</g>
<!-- T21831 -->
<g id="node3" class="node">
<title>T21831</title>
<polygon fill="none" stroke="#0058ad" points="151.5,-81.5 151.5,-110.5 394.5,-110.5 394.5,-81.5 151.5,-81.5"/>
<text text-anchor="middle" x="193" y="-92.3" font-family="Times,serif" font-size="14.00" fill="#0058ad">w 817 12</text>
<polyline fill="none" stroke="#0058ad" points="234.5,-81.5 234.5,-110.5 "/>
<text text-anchor="middle" x="273" y="-92.3" font-family="Times,serif" font-size="14.00" fill="#0058ad">r 831 14</text>
<polyline fill="none" stroke="#0058ad" points="311.5,-81.5 311.5,-110.5 "/>
<text text-anchor="middle" x="353" y="-92.3" font-family="Times,serif" font-size="14.00" fill="#0058ad">w 832 16</text>
</g>
<!-- T21829&#45;&gt;T21831 -->
<g id="edge2" class="edge">
<title>T21829:f3&#45;&gt;T21831:f1</title>
<path fill="none" stroke="#c000a5" d="M279,-162C279,-143.1 274.89,-136.18 273.47,-121.4"/>
<polygon fill="#c000a5" stroke="#c000a5" points="276.95,-120.83 273,-111 269.96,-121.15 276.95,-120.83"/>
<text text-anchor="middle" x="287.5" y="-132.8" font-family="Times,serif" font-size="14.00" fill="#c000a5">wr</text>
</g>
<!-- T21835 -->
<g id="node4" class="node">
<title>T21835</title>
<polygon fill="none" stroke="#0058ad" points="227,-0.5 227,-29.5 541,-29.5 541,-0.5 227,-0.5"/>
<text text-anchor="middle" x="268.5" y="-11.3" font-family="Times,serif" font-size="14.00" fill="#0058ad">w 831 16</text>
<polyline fill="none" stroke="#0058ad" points="310,-0.5 310,-29.5 "/>
<text text-anchor="middle" x="348.5" y="-11.3" font-family="Times,serif" font-size="14.00" fill="#0058ad">r 832 16</text>
<polyline fill="none" stroke="#0058ad" points="387,-0.5 387,-29.5 "/>
<text text-anchor="middle" x="425.5" y="-11.3" font-family="Times,serif" font-size="14.00" fill="#0058ad">r 835 nil</text>
<polyline fill="none" stroke="#0058ad" points="464,-0.5 464,-29.5 "/>
<text text-anchor="middle" x="502.5" y="-11.3" font-family="Times,serif" font-size="14.00" fill="#0058ad">r 835 nil</text>
</g>
<!-- T21831&#45;&gt;T21835 -->
<g id="edge3" class="edge">
<title>T21831:f2&#45;&gt;T21835:f1</title>
<path fill="none" stroke="#c000a5" d="M353,-81C353,-62.14 349.57,-55.16 348.39,-40.38"/>
<polygon fill="#c000a5" stroke="#c000a5" points="351.88,-39.86 348,-30 344.88,-40.13 351.88,-39.86"/>
<text text-anchor="middle" x="361.5" y="-51.8" font-family="Times,serif" font-size="14.00" fill="#c000a5">wr</text>
</g>
<!-- T21838 -->
<g id="node5" class="node">
<title>T21838</title>
<polygon fill="none" stroke="#0058ad" points="275.5,-405.5 275.5,-434.5 426.5,-434.5 426.5,-405.5 275.5,-405.5"/>
<text text-anchor="middle" x="314" y="-416.3" font-family="Times,serif" font-size="14.00" fill="#0058ad">r 835 nil</text>
<polyline fill="none" stroke="#0058ad" points="352.5,-405.5 352.5,-434.5 "/>
<text text-anchor="middle" x="389.5" y="-416.3" font-family="Times,serif" font-size="14.00" fill="#0058ad">w 835 1</text>
</g>
<!-- T21835&#45;&gt;T21838 -->
<g id="edge4" class="edge">
<title>T21835:f2&#45;&gt;T21838:f1</title>
<path fill="none" stroke="#5b00c0" d="M426,-30C426,-58.89 425,-66.11 425,-95 425,-340 425,-340 425,-340 425,-353.9 437.69,-394.91 434.76,-412.19"/>
<polygon fill="#5b00c0" stroke="#5b00c0" points="431.89,-410.15 428,-420 437.19,-414.73 431.89,-410.15"/>
<text text-anchor="middle" x="434.5" y="-213.8" font-family="Times,serif" font-size="14.00" fill="#5b00c0">rw</text>
</g>
<!-- T21853 -->
<g id="node6" class="node">
<title>T21853</title>
<polygon fill="none" stroke="#0058ad" points="176.5,-324.5 176.5,-353.5 395.5,-353.5 395.5,-324.5 176.5,-324.5"/>
<text text-anchor="middle" x="210.5" y="-335.3" font-family="Times,serif" font-size="14.00" fill="#0058ad">r 835 1</text>
<polyline fill="none" stroke="#0058ad" points="244.5,-324.5 244.5,-353.5 "/>
<text text-anchor="middle" x="283" y="-335.3" font-family="Times,serif" font-size="14.00" fill="#0058ad">r 833 nil</text>
<polyline fill="none" stroke="#0058ad" points="321.5,-324.5 321.5,-353.5 "/>
<text text-anchor="middle" x="358.5" y="-335.3" font-family="Times,serif" font-size="14.00" fill="#0058ad">w 833 3</text>
</g>
<!-- T21838&#45;&gt;T21853 -->
<g id="edge5" class="edge">
<title>T21838:f1&#45;&gt;T21853:f0</title>
<path fill="none" stroke="#c000a5" d="M390,-405C390,-325.59 225.81,-427.19 211.06,-364.04"/>
<polygon fill="#c000a5" stroke="#c000a5" points="214.53,-363.58 210,-354 207.57,-364.31 214.53,-363.58"/>
<text text-anchor="middle" x="394.5" y="-375.8" font-family="Times,serif" font-size="14.00" fill="#c000a5">wr</text>
</g>
<!-- T21826 -->
<g id="node7" class="node">
<title>T21826</title>
<polygon fill="none" stroke="#0058ad" points="169,-243.5 169,-272.5 397,-272.5 397,-243.5 169,-243.5"/>
<text text-anchor="middle" x="207.5" y="-254.3" font-family="Times,serif" font-size="14.00" fill="#0058ad">r 832 10</text>
<polyline fill="none" stroke="#0058ad" points="246,-243.5 246,-272.5 "/>
<text text-anchor="middle" x="283" y="-254.3" font-family="Times,serif" font-size="14.00" fill="#0058ad">w 833 2</text>
<polyline fill="none" stroke="#0058ad" points="320,-243.5 320,-272.5 "/>
<text text-anchor="middle" x="358.5" y="-254.3" font-family="Times,serif" font-size="14.00" fill="#0058ad">r 832 10</text>
</g>
<!-- T21853&#45;&gt;T21826 -->
<g id="edge6" class="edge">
<title>T21853:f1&#45;&gt;T21826:f1</title>
<path fill="none" stroke="#5b00c0" d="M283,-324C283,-305.23 283,-298.12 283,-283.35"/>
<polygon fill="#5b00c0" stroke="#5b00c0" points="286.5,-283 283,-273 279.5,-283 286.5,-283"/>
<text text-anchor="middle" x="292.5" y="-294.8" font-family="Times,serif" font-size="14.00" fill="#5b00c0">rw</text>
</g>
<!-- T21826&#45;&gt;T21839 -->
<g id="edge7" class="edge">
<title>T21826:f1&#45;&gt;T21839:f3</title>
<path fill="none" stroke="#c000a5" d="M283,-273C283,-294.26 463,-316.74 463,-338 463,-502 463,-502 463,-502 463,-527.18 461.48,-535.88 461.09,-556.81"/>
<polygon fill="#c000a5" stroke="#c000a5" points="457.59,-556.97 461,-567 464.59,-557.03 457.59,-556.97"/>
<text text-anchor="middle" x="472.5" y="-416.3" font-family="Times,serif" font-size="14.00" fill="#c000a5">wr</text>
</g>
<!-- T21826&#45;&gt;T21829 -->
<g id="edge8" class="edge">
<title>T21826:f0&#45;&gt;T21829:f2</title>
<path fill="none" stroke="#5b00c0" d="M207,-243C207,-223.62 199.31,-217.2 196.79,-202.08"/>
<polygon fill="#5b00c0" stroke="#5b00c0" points="200.27,-201.7 196,-192 193.29,-202.24 200.27,-201.7"/>
<text text-anchor="middle" x="214.5" y="-213.8" font-family="Times,serif" font-size="14.00" fill="#5b00c0">rw</text>
</g>
<!-- T21845&#45;&gt;T21838 -->
<g id="edge9" class="edge">
<title>T21845:f1&#45;&gt;T21838:f1</title>
<path fill="none" stroke="#5b00c0" d="M393,-486C393,-467.2 390.94,-460.13 390.24,-445.36"/>
<polygon fill="#5b00c0" stroke="#5b00c0" points="393.73,-444.92 390,-435 386.73,-445.08 393.73,-444.92"/>
<text text-anchor="middle" x="402.5" y="-456.8" font-family="Times,serif" font-size="14.00" fill="#5b00c0">rw</text>
</g>
</g>
</svg>
