<?xml version="1.0" encoding="UTF-8" standalone="no"?>
<!DOCTYPE svg PUBLIC "-//W3C//DTD SVG 1.1//EN"
 "http://www.w3.org/Graphics/SVG/1.1/DTD/svg11.dtd">
<!-- Generated by graphviz version 2.43.0 (0)
 -->
<!-- Title: a_graph Pages: 1 -->
<svg width="317pt" height="119pt"
 viewBox="0.00 0.00 317.00 119.00" xmlns="http://www.w3.org/2000/svg" xmlns:xlink="http://www.w3.org/1999/xlink">
<g id="graph0" class="graph" transform="scale(1 1) rotate(0) translate(4 115)">
<title>a_graph</title>
<polygon fill="white" stroke="transparent" points="-4,4 -4,-115 313,-115 313,4 -4,4"/>
<!-- T30932 -->
<g id="node1" class="node">
<title>T30932</title>
<polygon fill="none" stroke="#0058ad" points="0,-81.5 0,-110.5 261,-110.5 261,-81.5 0,-81.5"/>
<text text-anchor="middle" x="46" y="-92.3" font-family="Times,serif" font-size="14.00" fill="#0058ad">w 1184 15</text>
<polyline fill="none" stroke="#0058ad" points="92,-81.5 92,-110.5 "/>
<text text-anchor="middle" x="135" y="-92.3" font-family="Times,serif" font-size="14.00" fill="#0058ad">r 1186 nil</text>
<polyline fill="none" stroke="#0058ad" points="178,-81.5 178,-110.5 "/>
<text text-anchor="middle" x="219.5" y="-92.3" font-family="Times,serif" font-size="14.00" fill="#0058ad">w 1186 1</text>
</g>
<!-- T30941 -->
<g id="node2" class="node">
<title>T30941</title>
<polygon fill="none" stroke="#0058ad" points="54,-0.5 54,-29.5 309,-29.5 309,-0.5 54,-0.5"/>
<text text-anchor="middle" x="97" y="-11.3" font-family="Times,serif" font-size="14.00" fill="#0058ad">r 1186 nil</text>
<polyline fill="none" stroke="#0058ad" points="140,-0.5 140,-29.5 "/>
<text text-anchor="middle" x="183" y="-11.3" font-family="Times,serif" font-size="14.00" fill="#0058ad">r 1186 nil</text>
<polyline fill="none" stroke="#0058ad" points="226,-0.5 226,-29.5 "/>
<text text-anchor="middle" x="267.5" y="-11.3" font-family="Times,serif" font-size="14.00" fill="#0058ad">w 1186 4</text>
</g>
<!-- T30932&#45;&gt;T30941 -->
<g id="edge1" class="edge">
<title>T30932:f1&#45;&gt;T30941:f2</title>
<path fill="none" stroke="#5b00c0" d="M135.5,-81C135.5,-60.57 149.47,-57.6 167.5,-48 184.16,-39.13 242.85,-48.29 261.65,-38.34"/>
<polygon fill="#5b00c0" stroke="#5b00c0" points="264.63,-40.2 267.5,-30 258.9,-36.18 264.63,-40.2"/>
<text text-anchor="middle" x="177" y="-51.8" font-family="Times,serif" font-size="14.00" fill="#5b00c0">rw</text>
</g>
<!-- T30941&#45;&gt;T30932 -->
<g id="edge2" class="edge">
<title>T30941:f0&#45;&gt;T30932:f2</title>
<path fill="none" stroke="#5b00c0" d="M96.5,-30C96.5,-50.4 168.52,-38.38 186.5,-48 201.36,-55.95 213.86,-59.07 218.02,-71.09"/>
<polygon fill="#5b00c0" stroke="#5b00c0" points="214.56,-71.63 219.5,-81 221.49,-70.59 214.56,-71.63"/>
<text text-anchor="middle" x="223" y="-51.8" font-family="Times,serif" font-size="14.00" fill="#5b00c0">rw</text>
</g>
</g>
</svg>
