<?xml version="1.0" encoding="UTF-8" standalone="no"?>
<!DOCTYPE svg PUBLIC "-//W3C//DTD SVG 1.1//EN"
 "http://www.w3.org/Graphics/SVG/1.1/DTD/svg11.dtd">
<!-- Generated by graphviz version 2.43.0 (0)
 -->
<!-- Title: a_graph Pages: 1 -->
<svg width="254pt" height="119pt"
 viewBox="0.00 0.00 254.00 119.00" xmlns="http://www.w3.org/2000/svg" xmlns:xlink="http://www.w3.org/1999/xlink">
<g id="graph0" class="graph" transform="scale(1 1) rotate(0) translate(4 115)">
<title>a_graph</title>
<polygon fill="white" stroke="transparent" points="-4,4 -4,-115 250,-115 250,4 -4,4"/>
<!-- T29269 -->
<g id="node1" class="node">
<title>T29269</title>
<polygon fill="none" stroke="#0058ad" points="0.5,-81.5 0.5,-110.5 169.5,-110.5 169.5,-81.5 0.5,-81.5"/>
<text text-anchor="middle" x="43.5" y="-92.3" font-family="Times,serif" font-size="14.00" fill="#0058ad">r 1119 nil</text>
<polyline fill="none" stroke="#0058ad" points="86.5,-81.5 86.5,-110.5 "/>
<text text-anchor="middle" x="128" y="-92.3" font-family="Times,serif" font-size="14.00" fill="#0058ad">w 1119 2</text>
</g>
<!-- T29261 -->
<g id="node2" class="node">
<title>T29261</title>
<polygon fill="none" stroke="#0058ad" points="0,-0.5 0,-29.5 246,-29.5 246,-0.5 0,-0.5"/>
<text text-anchor="middle" x="43" y="-11.3" font-family="Times,serif" font-size="14.00" fill="#0058ad">r 1119 nil</text>
<polyline fill="none" stroke="#0058ad" points="86,-0.5 86,-29.5 "/>
<text text-anchor="middle" x="127.5" y="-11.3" font-family="Times,serif" font-size="14.00" fill="#0058ad">w 1119 1</text>
<polyline fill="none" stroke="#0058ad" points="169,-0.5 169,-29.5 "/>
<text text-anchor="middle" x="207.5" y="-11.3" font-family="Times,serif" font-size="14.00" fill="#0058ad">r 1119 1</text>
</g>
<!-- T29269&#45;&gt;T29261 -->
<g id="edge1" class="edge">
<title>T29269:f0&#45;&gt;T29261:f1</title>
<path fill="none" stroke="#5b00c0" d="M43,-81C43,-60.26 58.42,-59.01 76,-48 92.84,-37.46 116.64,-48.31 124.98,-39.63"/>
<polygon fill="#5b00c0" stroke="#5b00c0" points="128.35,-40.59 128,-30 121.67,-38.49 128.35,-40.59"/>
<text text-anchor="middle" x="85.5" y="-51.8" font-family="Times,serif" font-size="14.00" fill="#5b00c0">rw</text>
</g>
<!-- T29261&#45;&gt;T29269 -->
<g id="edge2" class="edge">
<title>T29261:f0&#45;&gt;T29269:f1</title>
<path fill="none" stroke="#5b00c0" d="M43,-30C43,-54.46 74.27,-35.02 95,-48 109.15,-56.86 121.89,-59.4 126.33,-70.86"/>
<polygon fill="#5b00c0" stroke="#5b00c0" points="122.93,-71.7 128,-81 129.83,-70.56 122.93,-71.7"/>
<text text-anchor="middle" x="130.5" y="-51.8" font-family="Times,serif" font-size="14.00" fill="#5b00c0">rw</text>
</g>
</g>
</svg>
