<?xml version="1.0" encoding="UTF-8" standalone="no"?>
<!DOCTYPE svg PUBLIC "-//W3C//DTD SVG 1.1//EN"
 "http://www.w3.org/Graphics/SVG/1.1/DTD/svg11.dtd">
<!-- Generated by graphviz version 2.43.0 (0)
 -->
<!-- Title: a_graph Pages: 1 -->
<svg width="792pt" height="443pt"
 viewBox="0.00 0.00 791.50 443.00" xmlns="http://www.w3.org/2000/svg" xmlns:xlink="http://www.w3.org/1999/xlink">
<g id="graph0" class="graph" transform="scale(1 1) rotate(0) translate(4 439)">
<title>a_graph</title>
<polygon fill="white" stroke="transparent" points="-4,4 -4,-439 787.5,-439 787.5,4 -4,4"/>
<!-- T29129 -->
<g id="node1" class="node">
<title>T29129</title>
<polygon fill="none" stroke="#0058ad" points="236.5,-405.5 236.5,-434.5 319.5,-434.5 319.5,-405.5 236.5,-405.5"/>
<text text-anchor="middle" x="278" y="-416.3" font-family="Times,serif" font-size="14.00" fill="#0058ad">w 1113 3</text>
</g>
<!-- T29131 -->
<g id="node2" class="node">
<title>T29131</title>
<polygon fill="none" stroke="#0058ad" points="315.5,-324.5 315.5,-353.5 638.5,-353.5 638.5,-324.5 315.5,-324.5"/>
<text text-anchor="middle" x="358.5" y="-335.3" font-family="Times,serif" font-size="14.00" fill="#0058ad">r 1114 nil</text>
<polyline fill="none" stroke="#0058ad" points="401.5,-324.5 401.5,-353.5 "/>
<text text-anchor="middle" x="440" y="-335.3" font-family="Times,serif" font-size="14.00" fill="#0058ad">r 1113 3</text>
<polyline fill="none" stroke="#0058ad" points="478.5,-324.5 478.5,-353.5 "/>
<text text-anchor="middle" x="517" y="-335.3" font-family="Times,serif" font-size="14.00" fill="#0058ad">r 1113 3</text>
<polyline fill="none" stroke="#0058ad" points="555.5,-324.5 555.5,-353.5 "/>
<text text-anchor="middle" x="597" y="-335.3" font-family="Times,serif" font-size="14.00" fill="#0058ad">w 1113 4</text>
</g>
<!-- T29129&#45;&gt;T29131 -->
<g id="edge1" class="edge">
<title>T29129:f0&#45;&gt;T29131:f1</title>
<path fill="none" stroke="#c000a5" d="M316.39,-405.36C354.38,-390.76 409.85,-369.11 431.18,-359.11"/>
<polygon fill="#c000a5" stroke="#c000a5" points="433.1,-362.04 440,-354 429.59,-355.99 433.1,-362.04"/>
<text text-anchor="middle" x="409.5" y="-375.8" font-family="Times,serif" font-size="14.00" fill="#c000a5">wr</text>
</g>
<!-- T29118 -->
<g id="node3" class="node">
<title>T29118</title>
<polygon fill="none" stroke="#0058ad" points="121,-243.5 121,-272.5 459,-272.5 459,-243.5 121,-243.5"/>
<text text-anchor="middle" x="164" y="-254.3" font-family="Times,serif" font-size="14.00" fill="#0058ad">r 1114 nil</text>
<polyline fill="none" stroke="#0058ad" points="207,-243.5 207,-272.5 "/>
<text text-anchor="middle" x="248.5" y="-254.3" font-family="Times,serif" font-size="14.00" fill="#0058ad">w 1114 1</text>
<polyline fill="none" stroke="#0058ad" points="290,-243.5 290,-272.5 "/>
<text text-anchor="middle" x="333" y="-254.3" font-family="Times,serif" font-size="14.00" fill="#0058ad">r 1113 nil</text>
<polyline fill="none" stroke="#0058ad" points="376,-243.5 376,-272.5 "/>
<text text-anchor="middle" x="417.5" y="-254.3" font-family="Times,serif" font-size="14.00" fill="#0058ad">w 1114 2</text>
</g>
<!-- T29131&#45;&gt;T29118 -->
<g id="edge3" class="edge">
<title>T29131:f0&#45;&gt;T29118:f3</title>
<path fill="none" stroke="#5b00c0" d="M358,-324C358,-309.51 399.15,-296.04 413.29,-281.91"/>
<polygon fill="#5b00c0" stroke="#5b00c0" points="416.42,-283.48 418,-273 410.23,-280.2 416.42,-283.48"/>
<text text-anchor="middle" x="409.5" y="-294.8" font-family="Times,serif" font-size="14.00" fill="#5b00c0">rw</text>
</g>
<!-- T29128 -->
<g id="node6" class="node">
<title>T29128</title>
<polygon fill="none" stroke="#0058ad" points="122.5,-162.5 122.5,-191.5 291.5,-191.5 291.5,-162.5 122.5,-162.5"/>
<text text-anchor="middle" x="164" y="-173.3" font-family="Times,serif" font-size="14.00" fill="#0058ad">w 1114 4</text>
<polyline fill="none" stroke="#0058ad" points="205.5,-162.5 205.5,-191.5 "/>
<text text-anchor="middle" x="248.5" y="-173.3" font-family="Times,serif" font-size="14.00" fill="#0058ad">r 1113 nil</text>
</g>
<!-- T29131&#45;&gt;T29128 -->
<g id="edge4" class="edge">
<title>T29131:f0&#45;&gt;T29128:f0</title>
<path fill="none" stroke="#5b00c0" d="M314,-339C307.2,-339 315.73,-328.88 311,-324 241.79,-252.51 154.83,-350.96 93,-273 73.36,-248.24 95.76,-198.65 112.06,-182.34"/>
<polygon fill="#5b00c0" stroke="#5b00c0" points="114.21,-185.13 121,-177 110.62,-179.12 114.21,-185.13"/>
<text text-anchor="middle" x="102.5" y="-254.3" font-family="Times,serif" font-size="14.00" fill="#5b00c0">rw</text>
</g>
<!-- T29121 -->
<g id="node7" class="node">
<title>T29121</title>
<polygon fill="none" stroke="#0058ad" points="401,-162.5 401,-191.5 561,-191.5 561,-162.5 401,-162.5"/>
<text text-anchor="middle" x="439.5" y="-173.3" font-family="Times,serif" font-size="14.00" fill="#0058ad">r 1101 9</text>
<polyline fill="none" stroke="#0058ad" points="478,-162.5 478,-191.5 "/>
<text text-anchor="middle" x="519.5" y="-173.3" font-family="Times,serif" font-size="14.00" fill="#0058ad">w 1114 3</text>
</g>
<!-- T29131&#45;&gt;T29121 -->
<g id="edge2" class="edge">
<title>T29131:f0&#45;&gt;T29121:f1</title>
<path fill="none" stroke="#5b00c0" d="M358,-324C358,-290.21 482.81,-327.35 509,-306 538.41,-282.03 529.92,-262.46 536,-225 537.07,-218.42 538.37,-216.23 536,-210 533.86,-204.37 529.07,-202.77 525.28,-200.53"/>
<polygon fill="#5b00c0" stroke="#5b00c0" points="528.24,-198.66 520,-192 522.28,-202.35 528.24,-198.66"/>
<text text-anchor="middle" x="542.5" y="-254.3" font-family="Times,serif" font-size="14.00" fill="#5b00c0">rw</text>
</g>
<!-- T29118&#45;&gt;T29129 -->
<g id="edge5" class="edge">
<title>T29118:f2&#45;&gt;T29129:f0</title>
<path fill="none" stroke="#5b00c0" d="M333,-273C333,-303.23 300.14,-296.32 288,-324 278.06,-346.66 276.26,-375.12 276.52,-395.14"/>
<polygon fill="#5b00c0" stroke="#5b00c0" points="273.02,-395.43 276.83,-405.31 280.02,-395.21 273.02,-395.43"/>
<text text-anchor="middle" x="297.5" y="-335.3" font-family="Times,serif" font-size="14.00" fill="#5b00c0">rw</text>
</g>
<!-- T29118&#45;&gt;T29131 -->
<g id="edge7" class="edge">
<title>T29118:f2&#45;&gt;T29131:f3</title>
<path fill="none" stroke="#5b00c0" d="M333,-273C333,-293.4 403.41,-285.32 423,-291 440.84,-296.17 444.01,-301.41 462,-306 487.66,-312.55 571.77,-298.25 592.4,-314.84"/>
<polygon fill="#5b00c0" stroke="#5b00c0" points="589.38,-316.63 597,-324 595.64,-313.49 589.38,-316.63"/>
<text text-anchor="middle" x="471.5" y="-294.8" font-family="Times,serif" font-size="14.00" fill="#5b00c0">rw</text>
</g>
<!-- T29134 -->
<g id="node5" class="node">
<title>T29134</title>
<polygon fill="none" stroke="#0058ad" points="190.5,-0.5 190.5,-29.5 519.5,-29.5 519.5,-0.5 190.5,-0.5"/>
<text text-anchor="middle" x="233.5" y="-11.3" font-family="Times,serif" font-size="14.00" fill="#0058ad">r 1113 nil</text>
<polyline fill="none" stroke="#0058ad" points="276.5,-0.5 276.5,-29.5 "/>
<text text-anchor="middle" x="315" y="-11.3" font-family="Times,serif" font-size="14.00" fill="#0058ad">r 1114 4</text>
<polyline fill="none" stroke="#0058ad" points="353.5,-0.5 353.5,-29.5 "/>
<text text-anchor="middle" x="395" y="-11.3" font-family="Times,serif" font-size="14.00" fill="#0058ad">w 1113 5</text>
<polyline fill="none" stroke="#0058ad" points="436.5,-0.5 436.5,-29.5 "/>
<text text-anchor="middle" x="478" y="-11.3" font-family="Times,serif" font-size="14.00" fill="#0058ad">w 1113 6</text>
</g>
<!-- T29118&#45;&gt;T29134 -->
<g id="edge9" class="edge">
<title>T29118:f2&#45;&gt;T29134:f3</title>
<path fill="none" stroke="#5b00c0" d="M333,-243C333,-216.77 454.67,-83.89 475.1,-39.75"/>
<polygon fill="#5b00c0" stroke="#5b00c0" points="478.51,-40.58 478,-30 471.8,-38.59 478.51,-40.58"/>
<text text-anchor="middle" x="419.5" y="-132.8" font-family="Times,serif" font-size="14.00" fill="#5b00c0">rw</text>
</g>
<!-- T29118&#45;&gt;T29128 -->
<g id="edge8" class="edge">
<title>T29118:f0&#45;&gt;T29128:f0</title>
<path fill="none" stroke="#5b00c0" d="M164,-243C164,-224.23 164,-217.12 164,-202.35"/>
<polygon fill="#5b00c0" stroke="#5b00c0" points="167.5,-202 164,-192 160.5,-202 167.5,-202"/>
<text text-anchor="middle" x="173.5" y="-213.8" font-family="Times,serif" font-size="14.00" fill="#5b00c0">rw</text>
</g>
<!-- T29118&#45;&gt;T29121 -->
<g id="edge6" class="edge">
<title>T29118:f0&#45;&gt;T29121:f1</title>
<path fill="none" stroke="#5b00c0" d="M164,-243C164,-218.14 362.47,-229.01 387,-225 443.47,-215.78 511.22,-248.51 519.22,-202.01"/>
<polygon fill="#5b00c0" stroke="#5b00c0" points="522.71,-202.24 520,-192 515.73,-201.7 522.71,-202.24"/>
<text text-anchor="middle" x="524.5" y="-213.8" font-family="Times,serif" font-size="14.00" fill="#5b00c0">rw</text>
</g>
<!-- T29123 -->
<g id="node4" class="node">
<title>T29123</title>
<polygon fill="none" stroke="#0058ad" points="460.5,-81.5 460.5,-110.5 783.5,-110.5 783.5,-81.5 460.5,-81.5"/>
<text text-anchor="middle" x="502" y="-92.3" font-family="Times,serif" font-size="14.00" fill="#0058ad">w 1080 4</text>
<polyline fill="none" stroke="#0058ad" points="543.5,-81.5 543.5,-110.5 "/>
<text text-anchor="middle" x="586.5" y="-92.3" font-family="Times,serif" font-size="14.00" fill="#0058ad">r 1113 nil</text>
<polyline fill="none" stroke="#0058ad" points="629.5,-81.5 629.5,-110.5 "/>
<text text-anchor="middle" x="668" y="-92.3" font-family="Times,serif" font-size="14.00" fill="#0058ad">r 1114 3</text>
<polyline fill="none" stroke="#0058ad" points="706.5,-81.5 706.5,-110.5 "/>
<text text-anchor="middle" x="745" y="-92.3" font-family="Times,serif" font-size="14.00" fill="#0058ad">r 1111 3</text>
</g>
<!-- T29123&#45;&gt;T29129 -->
<g id="edge10" class="edge">
<title>T29123:f1&#45;&gt;T29129:f0</title>
<path fill="none" stroke="#5b00c0" d="M586,-111C586,-138.84 622.34,-114.33 646,-129 670.32,-144.08 690,-147.39 690,-176 690,-340 690,-340 690,-340 690,-420.59 421.17,-386.88 327.28,-403.33"/>
<polygon fill="#5b00c0" stroke="#5b00c0" points="326.28,-399.97 317.23,-405.47 327.74,-406.81 326.28,-399.97"/>
<text text-anchor="middle" x="699.5" y="-254.3" font-family="Times,serif" font-size="14.00" fill="#5b00c0">rw</text>
</g>
<!-- T29123&#45;&gt;T29131 -->
<g id="edge11" class="edge">
<title>T29123:f1&#45;&gt;T29131:f3</title>
<path fill="none" stroke="#5b00c0" d="M586,-111C586,-132.13 617.81,-111.74 630,-129 641.85,-145.77 658.64,-295.28 646.67,-331.25"/>
<polygon fill="#5b00c0" stroke="#5b00c0" points="643.87,-329.14 640,-339 649.18,-333.7 643.87,-329.14"/>
<text text-anchor="middle" x="656.5" y="-213.8" font-family="Times,serif" font-size="14.00" fill="#5b00c0">rw</text>
</g>
<!-- T29123&#45;&gt;T29134 -->
<g id="edge12" class="edge">
<title>T29123:f1&#45;&gt;T29134:f3</title>
<path fill="none" stroke="#5b00c0" d="M586,-81C586,-43.37 566.09,-19.39 531.23,-15.54"/>
<polygon fill="#5b00c0" stroke="#5b00c0" points="531.17,-12.04 521,-15 530.8,-19.03 531.17,-12.04"/>
<text text-anchor="middle" x="593.5" y="-51.8" font-family="Times,serif" font-size="14.00" fill="#5b00c0">rw</text>
</g>
<!-- T29134&#45;&gt;T29129 -->
<g id="edge13" class="edge">
<title>T29134:f0&#45;&gt;T29129:f0</title>
<path fill="none" stroke="#5b00c0" d="M189,-15C143.39,-15 0,-49.39 0,-95 0,-340 0,-340 0,-340 0,-445.92 125.03,-376.28 228.67,-402.66"/>
<polygon fill="#5b00c0" stroke="#5b00c0" points="227.73,-406.03 238.31,-405.42 229.66,-399.3 227.73,-406.03"/>
<text text-anchor="middle" x="9.5" y="-213.8" font-family="Times,serif" font-size="14.00" fill="#5b00c0">rw</text>
</g>
<!-- T29134&#45;&gt;T29131 -->
<g id="edge14" class="edge">
<title>T29134:f0&#45;&gt;T29131:f3</title>
<path fill="none" stroke="#5b00c0" d="M233,-30C233,-72.31 249.34,-85.36 283,-111 324.62,-142.7 344.66,-133.93 396,-144 434.15,-151.48 541.67,-135.38 570,-162 620.7,-209.64 599.28,-247.32 597.16,-313.95"/>
<polygon fill="#5b00c0" stroke="#5b00c0" points="593.66,-313.94 597,-324 600.66,-314.06 593.66,-313.94"/>
<text text-anchor="middle" x="602.5" y="-173.3" font-family="Times,serif" font-size="14.00" fill="#5b00c0">rw</text>
</g>
<!-- T29128&#45;&gt;T29129 -->
<g id="edge15" class="edge">
<title>T29128:f1&#45;&gt;T29129:f0</title>
<path fill="none" stroke="#5b00c0" d="M249,-192C249,-228.66 110.68,-183.83 85,-210 65.36,-230.01 78.67,-245.17 82,-273 83.79,-287.98 81.09,-293.82 90,-306 109.64,-332.84 189.66,-375.97 238.75,-400.77"/>
<polygon fill="#5b00c0" stroke="#5b00c0" points="237.33,-403.97 247.84,-405.32 240.47,-397.71 237.33,-403.97"/>
<text text-anchor="middle" x="99.5" y="-294.8" font-family="Times,serif" font-size="14.00" fill="#5b00c0">rw</text>
</g>
<!-- T29128&#45;&gt;T29131 -->
<g id="edge16" class="edge">
<title>T29128:f1&#45;&gt;T29131:f3</title>
<path fill="none" stroke="#5b00c0" d="M293,-177C338.33,-177 340.4,-209.48 383,-225 419.28,-238.22 436.16,-221.16 468,-243 495.55,-261.9 481.39,-287.2 509,-306 538.52,-326.1 585.64,-292.7 595.25,-314"/>
<polygon fill="#5b00c0" stroke="#5b00c0" points="591.83,-314.75 597,-324 598.73,-313.55 591.83,-314.75"/>
<text text-anchor="middle" x="496.5" y="-254.3" font-family="Times,serif" font-size="14.00" fill="#5b00c0">rw</text>
</g>
<!-- T29128&#45;&gt;T29134 -->
<g id="edge17" class="edge">
<title>T29128:f0&#45;&gt;T29134:f1</title>
<path fill="none" stroke="#c000a5" d="M164,-162C164,-76.52 302.87,-115.57 314.26,-40.3"/>
<polygon fill="#c000a5" stroke="#c000a5" points="317.77,-40.23 315,-30 310.79,-39.72 317.77,-40.23"/>
<text text-anchor="middle" x="289.5" y="-92.3" font-family="Times,serif" font-size="14.00" fill="#c000a5">wr</text>
</g>
<!-- T29121&#45;&gt;T29123 -->
<g id="edge18" class="edge">
<title>T29121:f1&#45;&gt;T29123:f2</title>
<path fill="none" stroke="#c000a5" d="M562,-177C570.82,-177 568.85,-168.32 575,-162 590.13,-146.44 592.21,-139.86 611,-129 630.05,-117.99 656.64,-131.09 665.22,-120.83"/>
<polygon fill="#c000a5" stroke="#c000a5" points="668.64,-121.58 668,-111 661.91,-119.67 668.64,-121.58"/>
<text text-anchor="middle" x="620.5" y="-132.8" font-family="Times,serif" font-size="14.00" fill="#c000a5">wr</text>
</g>
</g>
</svg>
