<?xml version="1.0" encoding="UTF-8" standalone="no"?>
<!DOCTYPE svg PUBLIC "-//W3C//DTD SVG 1.1//EN"
 "http://www.w3.org/Graphics/SVG/1.1/DTD/svg11.dtd">
<!-- Generated by graphviz version 2.43.0 (0)
 -->
<!-- Title: a_graph Pages: 1 -->
<svg width="395pt" height="119pt"
 viewBox="0.00 0.00 394.50 119.00" xmlns="http://www.w3.org/2000/svg" xmlns:xlink="http://www.w3.org/1999/xlink">
<g id="graph0" class="graph" transform="scale(1 1) rotate(0) translate(4 115)">
<title>a_graph</title>
<polygon fill="white" stroke="transparent" points="-4,4 -4,-115 390.5,-115 390.5,4 -4,4"/>
<!-- T31486 -->
<g id="node1" class="node">
<title>T31486</title>
<polygon fill="none" stroke="#0058ad" points="0,-81.5 0,-110.5 338,-110.5 338,-81.5 0,-81.5"/>
<text text-anchor="middle" x="46" y="-92.3" font-family="Times,serif" font-size="14.00" fill="#0058ad">w 1204 16</text>
<polyline fill="none" stroke="#0058ad" points="92,-81.5 92,-110.5 "/>
<text text-anchor="middle" x="130.5" y="-92.3" font-family="Times,serif" font-size="14.00" fill="#0058ad">r 1177 6</text>
<polyline fill="none" stroke="#0058ad" points="169,-81.5 169,-110.5 "/>
<text text-anchor="middle" x="212" y="-92.3" font-family="Times,serif" font-size="14.00" fill="#0058ad">r 1205 nil</text>
<polyline fill="none" stroke="#0058ad" points="255,-81.5 255,-110.5 "/>
<text text-anchor="middle" x="296.5" y="-92.3" font-family="Times,serif" font-size="14.00" fill="#0058ad">w 1206 1</text>
</g>
<!-- T31488 -->
<g id="node2" class="node">
<title>T31488</title>
<polygon fill="none" stroke="#0058ad" points="131.5,-0.5 131.5,-29.5 386.5,-29.5 386.5,-0.5 131.5,-0.5"/>
<text text-anchor="middle" x="174.5" y="-11.3" font-family="Times,serif" font-size="14.00" fill="#0058ad">r 1206 nil</text>
<polyline fill="none" stroke="#0058ad" points="217.5,-0.5 217.5,-29.5 "/>
<text text-anchor="middle" x="260.5" y="-11.3" font-family="Times,serif" font-size="14.00" fill="#0058ad">r 1206 nil</text>
<polyline fill="none" stroke="#0058ad" points="303.5,-0.5 303.5,-29.5 "/>
<text text-anchor="middle" x="345" y="-11.3" font-family="Times,serif" font-size="14.00" fill="#0058ad">w 1205 3</text>
</g>
<!-- T31486&#45;&gt;T31488 -->
<g id="edge1" class="edge">
<title>T31486:f2&#45;&gt;T31488:f2</title>
<path fill="none" stroke="#5b00c0" d="M212,-81C212,-60.26 226.62,-57.61 245,-48 261.73,-39.25 320.37,-48.33 339.16,-38.35"/>
<polygon fill="#5b00c0" stroke="#5b00c0" points="342.14,-40.2 345,-30 336.4,-36.19 342.14,-40.2"/>
<text text-anchor="middle" x="254.5" y="-51.8" font-family="Times,serif" font-size="14.00" fill="#5b00c0">rw</text>
</g>
<!-- T31488&#45;&gt;T31486 -->
<g id="edge2" class="edge">
<title>T31488:f0&#45;&gt;T31486:f3</title>
<path fill="none" stroke="#5b00c0" d="M174,-30C174,-50.4 246.02,-38.38 264,-48 278.86,-55.95 291.36,-59.07 295.52,-71.09"/>
<polygon fill="#5b00c0" stroke="#5b00c0" points="292.06,-71.63 297,-81 298.99,-70.59 292.06,-71.63"/>
<text text-anchor="middle" x="300.5" y="-51.8" font-family="Times,serif" font-size="14.00" fill="#5b00c0">rw</text>
</g>
</g>
</svg>
