<?xml version="1.0" encoding="UTF-8" standalone="no"?>
<!DOCTYPE svg PUBLIC "-//W3C//DTD SVG 1.1//EN"
 "http://www.w3.org/Graphics/SVG/1.1/DTD/svg11.dtd">
<!-- Generated by graphviz version 2.43.0 (0)
 -->
<!-- Title: a_graph Pages: 1 -->
<svg width="316pt" height="119pt"
 viewBox="0.00 0.00 316.00 119.00" xmlns="http://www.w3.org/2000/svg" xmlns:xlink="http://www.w3.org/1999/xlink">
<g id="graph0" class="graph" transform="scale(1 1) rotate(0) translate(4 115)">
<title>a_graph</title>
<polygon fill="white" stroke="transparent" points="-4,4 -4,-115 312,-115 312,4 -4,4"/>
<!-- T19306 -->
<g id="node1" class="node">
<title>T19306</title>
<polygon fill="none" stroke="#0058ad" points="114.5,-81.5 114.5,-110.5 265.5,-110.5 265.5,-81.5 114.5,-81.5"/>
<text text-anchor="middle" x="153" y="-92.3" font-family="Times,serif" font-size="14.00" fill="#0058ad">r 739 nil</text>
<polyline fill="none" stroke="#0058ad" points="191.5,-81.5 191.5,-110.5 "/>
<text text-anchor="middle" x="228.5" y="-92.3" font-family="Times,serif" font-size="14.00" fill="#0058ad">w 739 1</text>
</g>
<!-- T19318 -->
<g id="node2" class="node">
<title>T19318</title>
<polygon fill="none" stroke="#0058ad" points="0,-0.5 0,-29.5 308,-29.5 308,-0.5 0,-0.5"/>
<text text-anchor="middle" x="37" y="-11.3" font-family="Times,serif" font-size="14.00" fill="#0058ad">w 737 9</text>
<polyline fill="none" stroke="#0058ad" points="74,-0.5 74,-29.5 "/>
<text text-anchor="middle" x="112.5" y="-11.3" font-family="Times,serif" font-size="14.00" fill="#0058ad">r 739 nil</text>
<polyline fill="none" stroke="#0058ad" points="151,-0.5 151,-29.5 "/>
<text text-anchor="middle" x="192.5" y="-11.3" font-family="Times,serif" font-size="14.00" fill="#0058ad">w 737 10</text>
<polyline fill="none" stroke="#0058ad" points="234,-0.5 234,-29.5 "/>
<text text-anchor="middle" x="271" y="-11.3" font-family="Times,serif" font-size="14.00" fill="#0058ad">w 739 2</text>
</g>
<!-- T19306&#45;&gt;T19318 -->
<g id="edge1" class="edge">
<title>T19306:f0&#45;&gt;T19318:f3</title>
<path fill="none" stroke="#5b00c0" d="M153,-81C153,-62.05 163.75,-57.75 180,-48 194.57,-39.26 246.94,-46.7 264.9,-38.05"/>
<polygon fill="#5b00c0" stroke="#5b00c0" points="267.75,-40.08 271,-30 262.17,-35.86 267.75,-40.08"/>
<text text-anchor="middle" x="189.5" y="-51.8" font-family="Times,serif" font-size="14.00" fill="#5b00c0">rw</text>
</g>
<!-- T19318&#45;&gt;T19306 -->
<g id="edge2" class="edge">
<title>T19318:f1&#45;&gt;T19306:f1</title>
<path fill="none" stroke="#5b00c0" d="M112,-30C112,-69.49 164.7,-28.43 199,-48 212.72,-55.83 223.62,-59.55 227.49,-70.77"/>
<polygon fill="#5b00c0" stroke="#5b00c0" points="224.08,-71.62 229,-81 231,-70.6 224.08,-71.62"/>
<text text-anchor="middle" x="231.5" y="-51.8" font-family="Times,serif" font-size="14.00" fill="#5b00c0">rw</text>
</g>
</g>
</svg>
