<?xml version="1.0" encoding="UTF-8" standalone="no"?>
<!DOCTYPE svg PUBLIC "-//W3C//DTD SVG 1.1//EN"
 "http://www.w3.org/Graphics/SVG/1.1/DTD/svg11.dtd">
<!-- Generated by graphviz version 2.43.0 (0)
 -->
<!-- Title: a_graph Pages: 1 -->
<svg width="320pt" height="119pt"
 viewBox="0.00 0.00 320.00 119.00" xmlns="http://www.w3.org/2000/svg" xmlns:xlink="http://www.w3.org/1999/xlink">
<g id="graph0" class="graph" transform="scale(1 1) rotate(0) translate(4 115)">
<title>a_graph</title>
<polygon fill="white" stroke="transparent" points="-4,4 -4,-115 316,-115 316,4 -4,4"/>
<!-- T21890 -->
<g id="node1" class="node">
<title>T21890</title>
<polygon fill="none" stroke="#0058ad" points="0,-81.5 0,-110.5 308,-110.5 308,-81.5 0,-81.5"/>
<text text-anchor="middle" x="37" y="-92.3" font-family="Times,serif" font-size="14.00" fill="#0058ad">w 835 6</text>
<polyline fill="none" stroke="#0058ad" points="74,-81.5 74,-110.5 "/>
<text text-anchor="middle" x="115.5" y="-92.3" font-family="Times,serif" font-size="14.00" fill="#0058ad">w 748 11</text>
<polyline fill="none" stroke="#0058ad" points="157,-81.5 157,-110.5 "/>
<text text-anchor="middle" x="195.5" y="-92.3" font-family="Times,serif" font-size="14.00" fill="#0058ad">r 837 nil</text>
<polyline fill="none" stroke="#0058ad" points="234,-81.5 234,-110.5 "/>
<text text-anchor="middle" x="271" y="-92.3" font-family="Times,serif" font-size="14.00" fill="#0058ad">w 837 5</text>
</g>
<!-- T21881 -->
<g id="node2" class="node">
<title>T21881</title>
<polygon fill="none" stroke="#0058ad" points="84,-0.5 84,-29.5 312,-29.5 312,-0.5 84,-0.5"/>
<text text-anchor="middle" x="122.5" y="-11.3" font-family="Times,serif" font-size="14.00" fill="#0058ad">r 836 16</text>
<polyline fill="none" stroke="#0058ad" points="161,-0.5 161,-29.5 "/>
<text text-anchor="middle" x="199.5" y="-11.3" font-family="Times,serif" font-size="14.00" fill="#0058ad">r 837 nil</text>
<polyline fill="none" stroke="#0058ad" points="238,-0.5 238,-29.5 "/>
<text text-anchor="middle" x="275" y="-11.3" font-family="Times,serif" font-size="14.00" fill="#0058ad">w 837 1</text>
</g>
<!-- T21890&#45;&gt;T21881 -->
<g id="edge1" class="edge">
<title>T21890:f2&#45;&gt;T21881:f2</title>
<path fill="none" stroke="#5b00c0" d="M196,-81C196,-62.6 206.05,-58.72 221,-48 237.7,-36.02 262.91,-48.33 271.78,-39.79"/>
<polygon fill="#5b00c0" stroke="#5b00c0" points="275.2,-40.59 275,-30 268.55,-38.41 275.2,-40.59"/>
<text text-anchor="middle" x="230.5" y="-51.8" font-family="Times,serif" font-size="14.00" fill="#5b00c0">rw</text>
</g>
<!-- T21881&#45;&gt;T21890 -->
<g id="edge2" class="edge">
<title>T21881:f1&#45;&gt;T21890:f3</title>
<path fill="none" stroke="#5b00c0" d="M200,-30C200,-49.49 224.13,-36.68 240,-48 253.05,-57.31 264.99,-59.96 269.3,-70.83"/>
<polygon fill="#5b00c0" stroke="#5b00c0" points="265.9,-71.72 271,-81 272.8,-70.56 265.9,-71.72"/>
<text text-anchor="middle" x="272.5" y="-51.8" font-family="Times,serif" font-size="14.00" fill="#5b00c0">rw</text>
</g>
</g>
</svg>
