<?xml version="1.0" encoding="UTF-8" standalone="no"?>
<!DOCTYPE svg PUBLIC "-//W3C//DTD SVG 1.1//EN"
 "http://www.w3.org/Graphics/SVG/1.1/DTD/svg11.dtd">
<!-- Generated by graphviz version 2.43.0 (0)
 -->
<!-- Title: a_graph Pages: 1 -->
<svg width="1057pt" height="929pt"
 viewBox="0.00 0.00 1056.50 929.00" xmlns="http://www.w3.org/2000/svg" xmlns:xlink="http://www.w3.org/1999/xlink">
<g id="graph0" class="graph" transform="scale(1 1) rotate(0) translate(4 925)">
<title>a_graph</title>
<polygon fill="white" stroke="transparent" points="-4,4 -4,-925 1052.5,-925 1052.5,4 -4,4"/>
<!-- T19637 -->
<g id="node1" class="node">
<title>T19637</title>
<polygon fill="none" stroke="#0058ad" points="0,-891.5 0,-920.5 148,-920.5 148,-891.5 0,-891.5"/>
<text text-anchor="middle" x="37" y="-902.3" font-family="Times,serif" font-size="14.00" fill="#0058ad">w 755 8</text>
<polyline fill="none" stroke="#0058ad" points="74,-891.5 74,-920.5 "/>
<text text-anchor="middle" x="111" y="-902.3" font-family="Times,serif" font-size="14.00" fill="#0058ad">w 755 9</text>
</g>
<!-- T19641 -->
<g id="node9" class="node">
<title>T19641</title>
<polygon fill="none" stroke="#0058ad" points="123.5,-810.5 123.5,-839.5 336.5,-839.5 336.5,-810.5 123.5,-810.5"/>
<text text-anchor="middle" x="157.5" y="-821.3" font-family="Times,serif" font-size="14.00" fill="#0058ad">r 755 9</text>
<polyline fill="none" stroke="#0058ad" points="191.5,-810.5 191.5,-839.5 "/>
<text text-anchor="middle" x="225.5" y="-821.3" font-family="Times,serif" font-size="14.00" fill="#0058ad">r 754 4</text>
<polyline fill="none" stroke="#0058ad" points="259.5,-810.5 259.5,-839.5 "/>
<text text-anchor="middle" x="298" y="-821.3" font-family="Times,serif" font-size="14.00" fill="#0058ad">r 741 nil</text>
</g>
<!-- T19637&#45;&gt;T19641 -->
<g id="edge1" class="edge">
<title>T19637:f1&#45;&gt;T19641:f0</title>
<path fill="none" stroke="#c000a5" d="M149,-906C175.2,-906 161.23,-877.34 157.72,-850.24"/>
<polygon fill="#c000a5" stroke="#c000a5" points="161.2,-849.73 157,-840 154.21,-850.22 161.2,-849.73"/>
<text text-anchor="middle" x="170.5" y="-861.8" font-family="Times,serif" font-size="14.00" fill="#c000a5">wr</text>
</g>
<!-- T19538 -->
<g id="node2" class="node">
<title>T19538</title>
<polygon fill="none" stroke="#0058ad" points="408.5,-486.5 408.5,-515.5 627.5,-515.5 627.5,-486.5 408.5,-486.5"/>
<text text-anchor="middle" x="450" y="-497.3" font-family="Times,serif" font-size="14.00" fill="#0058ad">w 744 11</text>
<polyline fill="none" stroke="#0058ad" points="491.5,-486.5 491.5,-515.5 "/>
<text text-anchor="middle" x="525.5" y="-497.3" font-family="Times,serif" font-size="14.00" fill="#0058ad">r 751 3</text>
<polyline fill="none" stroke="#0058ad" points="559.5,-486.5 559.5,-515.5 "/>
<text text-anchor="middle" x="593.5" y="-497.3" font-family="Times,serif" font-size="14.00" fill="#0058ad">r 751 3</text>
</g>
<!-- T19553 -->
<g id="node6" class="node">
<title>T19553</title>
<polygon fill="none" stroke="#0058ad" points="652.5,-405.5 652.5,-434.5 797.5,-434.5 797.5,-405.5 652.5,-405.5"/>
<text text-anchor="middle" x="691" y="-416.3" font-family="Times,serif" font-size="14.00" fill="#0058ad">r 744 11</text>
<polyline fill="none" stroke="#0058ad" points="729.5,-405.5 729.5,-434.5 "/>
<text text-anchor="middle" x="763.5" y="-416.3" font-family="Times,serif" font-size="14.00" fill="#0058ad">r 751 6</text>
</g>
<!-- T19538&#45;&gt;T19553 -->
<g id="edge3" class="edge">
<title>T19538:f0&#45;&gt;T19553:f0</title>
<path fill="none" stroke="#c000a5" d="M450,-486C450,-483.43 600.96,-435.04 641.25,-422.8"/>
<polygon fill="#c000a5" stroke="#c000a5" points="642.35,-426.12 651,-420 640.42,-419.39 642.35,-426.12"/>
<text text-anchor="middle" x="552.5" y="-456.8" font-family="Times,serif" font-size="14.00" fill="#c000a5">wr</text>
</g>
<!-- T19587 -->
<g id="node13" class="node">
<title>T19587</title>
<polygon fill="none" stroke="#0058ad" points="365,-405.5 365,-434.5 593,-434.5 593,-405.5 365,-405.5"/>
<text text-anchor="middle" x="403.5" y="-416.3" font-family="Times,serif" font-size="14.00" fill="#0058ad">r 744 11</text>
<polyline fill="none" stroke="#0058ad" points="442,-405.5 442,-434.5 "/>
<text text-anchor="middle" x="479" y="-416.3" font-family="Times,serif" font-size="14.00" fill="#0058ad">w 754 1</text>
<polyline fill="none" stroke="#0058ad" points="516,-405.5 516,-434.5 "/>
<text text-anchor="middle" x="554.5" y="-416.3" font-family="Times,serif" font-size="14.00" fill="#0058ad">r 752 nil</text>
</g>
<!-- T19538&#45;&gt;T19587 -->
<g id="edge2" class="edge">
<title>T19538:f0&#45;&gt;T19587:f0</title>
<path fill="none" stroke="#c000a5" d="M450,-486C450,-459.27 414.66,-463.73 405.27,-445.28"/>
<polygon fill="#c000a5" stroke="#c000a5" points="408.57,-444.01 403,-435 401.74,-445.52 408.57,-444.01"/>
<text text-anchor="middle" x="448.5" y="-456.8" font-family="Times,serif" font-size="14.00" fill="#c000a5">wr</text>
</g>
<!-- T19604 -->
<g id="node3" class="node">
<title>T19604</title>
<polygon fill="none" stroke="#0058ad" points="275.5,-162.5 275.5,-191.5 586.5,-191.5 586.5,-162.5 275.5,-162.5"/>
<text text-anchor="middle" x="312.5" y="-173.3" font-family="Times,serif" font-size="14.00" fill="#0058ad">w 754 4</text>
<polyline fill="none" stroke="#0058ad" points="349.5,-162.5 349.5,-191.5 "/>
<text text-anchor="middle" x="388" y="-173.3" font-family="Times,serif" font-size="14.00" fill="#0058ad">r 752 10</text>
<polyline fill="none" stroke="#0058ad" points="426.5,-162.5 426.5,-191.5 "/>
<text text-anchor="middle" x="468" y="-173.3" font-family="Times,serif" font-size="14.00" fill="#0058ad">w 752 13</text>
<polyline fill="none" stroke="#0058ad" points="509.5,-162.5 509.5,-191.5 "/>
<text text-anchor="middle" x="548" y="-173.3" font-family="Times,serif" font-size="14.00" fill="#0058ad">r 753 nil</text>
</g>
<!-- T19604&#45;&gt;T19641 -->
<g id="edge4" class="edge">
<title>T19604:f0&#45;&gt;T19641:f1</title>
<path fill="none" stroke="#c000a5" d="M274,-177C208.41,-177 150,-191.41 150,-257 150,-745 150,-745 150,-745 150,-785.32 212.66,-769.38 223.43,-800.03"/>
<polygon fill="#c000a5" stroke="#c000a5" points="219.99,-800.66 225,-810 226.9,-799.58 219.99,-800.66"/>
<text text-anchor="middle" x="159.5" y="-497.3" font-family="Times,serif" font-size="14.00" fill="#c000a5">wr</text>
</g>
<!-- T19622 -->
<g id="node14" class="node">
<title>T19622</title>
<polygon fill="none" stroke="#0058ad" points="495.5,-81.5 495.5,-110.5 714.5,-110.5 714.5,-81.5 495.5,-81.5"/>
<text text-anchor="middle" x="534" y="-92.3" font-family="Times,serif" font-size="14.00" fill="#0058ad">r 755 nil</text>
<polyline fill="none" stroke="#0058ad" points="572.5,-81.5 572.5,-110.5 "/>
<text text-anchor="middle" x="606.5" y="-92.3" font-family="Times,serif" font-size="14.00" fill="#0058ad">r 754 5</text>
<polyline fill="none" stroke="#0058ad" points="640.5,-81.5 640.5,-110.5 "/>
<text text-anchor="middle" x="677.5" y="-92.3" font-family="Times,serif" font-size="14.00" fill="#0058ad">w 753 1</text>
</g>
<!-- T19604&#45;&gt;T19622 -->
<g id="edge5" class="edge">
<title>T19604:f3&#45;&gt;T19622:f2</title>
<path fill="none" stroke="#5b00c0" d="M588,-177C596.82,-177 594.37,-167.82 601,-162 628.95,-137.45 669.48,-149.22 676.83,-121.09"/>
<polygon fill="#5b00c0" stroke="#5b00c0" points="680.33,-121.34 678,-111 673.38,-120.53 680.33,-121.34"/>
<text text-anchor="middle" x="681.5" y="-132.8" font-family="Times,serif" font-size="14.00" fill="#5b00c0">rw</text>
</g>
<!-- T19609 -->
<g id="node4" class="node">
<title>T19609</title>
<polygon fill="none" stroke="#0058ad" points="684,-162.5 684,-191.5 906,-191.5 906,-162.5 684,-162.5"/>
<text text-anchor="middle" x="722.5" y="-173.3" font-family="Times,serif" font-size="14.00" fill="#0058ad">r 753 nil</text>
<polyline fill="none" stroke="#0058ad" points="761,-162.5 761,-191.5 "/>
<text text-anchor="middle" x="799.5" y="-173.3" font-family="Times,serif" font-size="14.00" fill="#0058ad">r 752 12</text>
<polyline fill="none" stroke="#0058ad" points="838,-162.5 838,-191.5 "/>
<text text-anchor="middle" x="872" y="-173.3" font-family="Times,serif" font-size="14.00" fill="#0058ad">r 754 5</text>
</g>
<!-- T19609&#45;&gt;T19622 -->
<g id="edge6" class="edge">
<title>T19609:f0&#45;&gt;T19622:f2</title>
<path fill="none" stroke="#5b00c0" d="M722,-162C722,-136.92 739.01,-106.69 725.87,-98.27"/>
<polygon fill="#5b00c0" stroke="#5b00c0" points="726.53,-94.83 716,-96 724.96,-101.66 726.53,-94.83"/>
<text text-anchor="middle" x="736.5" y="-132.8" font-family="Times,serif" font-size="14.00" fill="#5b00c0">rw</text>
</g>
<!-- T19433 -->
<g id="node5" class="node">
<title>T19433</title>
<polygon fill="none" stroke="#0058ad" points="563,-648.5 563,-677.5 773,-677.5 773,-648.5 563,-648.5"/>
<text text-anchor="middle" x="600" y="-659.3" font-family="Times,serif" font-size="14.00" fill="#0058ad">w 743 9</text>
<polyline fill="none" stroke="#0058ad" points="637,-648.5 637,-677.5 "/>
<text text-anchor="middle" x="671" y="-659.3" font-family="Times,serif" font-size="14.00" fill="#0058ad">r 743 9</text>
<polyline fill="none" stroke="#0058ad" points="705,-648.5 705,-677.5 "/>
<text text-anchor="middle" x="739" y="-659.3" font-family="Times,serif" font-size="14.00" fill="#0058ad">r 741 1</text>
</g>
<!-- T19435 -->
<g id="node12" class="node">
<title>T19435</title>
<polygon fill="none" stroke="#0058ad" points="412,-567.5 412,-596.5 708,-596.5 708,-567.5 412,-567.5"/>
<text text-anchor="middle" x="450.5" y="-578.3" font-family="Times,serif" font-size="14.00" fill="#0058ad">r 744 nil</text>
<polyline fill="none" stroke="#0058ad" points="489,-567.5 489,-596.5 "/>
<text text-anchor="middle" x="527.5" y="-578.3" font-family="Times,serif" font-size="14.00" fill="#0058ad">r 697 16</text>
<polyline fill="none" stroke="#0058ad" points="566,-567.5 566,-596.5 "/>
<text text-anchor="middle" x="600" y="-578.3" font-family="Times,serif" font-size="14.00" fill="#0058ad">r 743 9</text>
<polyline fill="none" stroke="#0058ad" points="634,-567.5 634,-596.5 "/>
<text text-anchor="middle" x="671" y="-578.3" font-family="Times,serif" font-size="14.00" fill="#0058ad">w 745 1</text>
</g>
<!-- T19433&#45;&gt;T19435 -->
<g id="edge7" class="edge">
<title>T19433:f0&#45;&gt;T19435:f2</title>
<path fill="none" stroke="#c000a5" d="M600,-648C600,-629.23 600,-622.12 600,-607.35"/>
<polygon fill="#c000a5" stroke="#c000a5" points="603.5,-607 600,-597 596.5,-607 603.5,-607"/>
<text text-anchor="middle" x="609.5" y="-618.8" font-family="Times,serif" font-size="14.00" fill="#c000a5">wr</text>
</g>
<!-- T19562 -->
<g id="node8" class="node">
<title>T19562</title>
<polygon fill="none" stroke="#0058ad" points="761.5,-324.5 761.5,-353.5 1048.5,-353.5 1048.5,-324.5 761.5,-324.5"/>
<text text-anchor="middle" x="795.5" y="-335.3" font-family="Times,serif" font-size="14.00" fill="#0058ad">r 751 6</text>
<polyline fill="none" stroke="#0058ad" points="829.5,-324.5 829.5,-353.5 "/>
<text text-anchor="middle" x="868" y="-335.3" font-family="Times,serif" font-size="14.00" fill="#0058ad">r 741 nil</text>
<polyline fill="none" stroke="#0058ad" points="906.5,-324.5 906.5,-353.5 "/>
<text text-anchor="middle" x="940.5" y="-335.3" font-family="Times,serif" font-size="14.00" fill="#0058ad">r 751 6</text>
<polyline fill="none" stroke="#0058ad" points="974.5,-324.5 974.5,-353.5 "/>
<text text-anchor="middle" x="1011.5" y="-335.3" font-family="Times,serif" font-size="14.00" fill="#0058ad">w 751 8</text>
</g>
<!-- T19553&#45;&gt;T19562 -->
<g id="edge8" class="edge">
<title>T19553:f1&#45;&gt;T19562:f3</title>
<path fill="none" stroke="#5b00c0" d="M799,-420C845.07,-420 989.58,-405.79 1009.67,-363.97"/>
<polygon fill="#5b00c0" stroke="#5b00c0" points="1013.13,-364.53 1012,-354 1006.32,-362.94 1013.13,-364.53"/>
<text text-anchor="middle" x="1012.5" y="-375.8" font-family="Times,serif" font-size="14.00" fill="#5b00c0">rw</text>
</g>
<!-- T19430 -->
<g id="node7" class="node">
<title>T19430</title>
<polygon fill="none" stroke="#0058ad" points="560,-729.5 560,-758.5 850,-758.5 850,-729.5 560,-729.5"/>
<text text-anchor="middle" x="594" y="-740.3" font-family="Times,serif" font-size="14.00" fill="#0058ad">r 743 3</text>
<polyline fill="none" stroke="#0058ad" points="628,-729.5 628,-758.5 "/>
<text text-anchor="middle" x="665" y="-740.3" font-family="Times,serif" font-size="14.00" fill="#0058ad">w 743 6</text>
<polyline fill="none" stroke="#0058ad" points="702,-729.5 702,-758.5 "/>
<text text-anchor="middle" x="739" y="-740.3" font-family="Times,serif" font-size="14.00" fill="#0058ad">w 741 1</text>
<polyline fill="none" stroke="#0058ad" points="776,-729.5 776,-758.5 "/>
<text text-anchor="middle" x="813" y="-740.3" font-family="Times,serif" font-size="14.00" fill="#0058ad">w 743 7</text>
</g>
<!-- T19430&#45;&gt;T19433 -->
<g id="edge9" class="edge">
<title>T19430:f2&#45;&gt;T19433:f2</title>
<path fill="none" stroke="#c000a5" d="M739,-729C739,-710.23 739,-703.12 739,-688.35"/>
<polygon fill="#c000a5" stroke="#c000a5" points="742.5,-688 739,-678 735.5,-688 742.5,-688"/>
<text text-anchor="middle" x="748.5" y="-699.8" font-family="Times,serif" font-size="14.00" fill="#c000a5">wr</text>
</g>
<!-- T19562&#45;&gt;T19430 -->
<g id="edge10" class="edge">
<title>T19562:f1&#45;&gt;T19430:f2</title>
<path fill="none" stroke="#5b00c0" d="M868,-354C868,-384.36 847,-388.64 847,-419 847,-664 847,-664 847,-664 847,-675.87 769.4,-704.26 745.76,-721.16"/>
<polygon fill="#5b00c0" stroke="#5b00c0" points="742.88,-719.14 739,-729 748.18,-723.71 742.88,-719.14"/>
<text text-anchor="middle" x="856.5" y="-537.8" font-family="Times,serif" font-size="14.00" fill="#5b00c0">rw</text>
</g>
<!-- T19641&#45;&gt;T19430 -->
<g id="edge11" class="edge">
<title>T19641:f2&#45;&gt;T19430:f2</title>
<path fill="none" stroke="#5b00c0" d="M338,-825C380.07,-825 691.8,-806.91 734.22,-767.92"/>
<polygon fill="#5b00c0" stroke="#5b00c0" points="737.37,-769.47 739,-759 731.19,-766.16 737.37,-769.47"/>
<text text-anchor="middle" x="723.5" y="-780.8" font-family="Times,serif" font-size="14.00" fill="#5b00c0">rw</text>
</g>
<!-- T19598 -->
<g id="node10" class="node">
<title>T19598</title>
<polygon fill="none" stroke="#0058ad" points="375.5,-243.5 375.5,-272.5 526.5,-272.5 526.5,-243.5 375.5,-243.5"/>
<text text-anchor="middle" x="409.5" y="-254.3" font-family="Times,serif" font-size="14.00" fill="#0058ad">r 752 9</text>
<polyline fill="none" stroke="#0058ad" points="443.5,-243.5 443.5,-272.5 "/>
<text text-anchor="middle" x="485" y="-254.3" font-family="Times,serif" font-size="14.00" fill="#0058ad">w 752 10</text>
</g>
<!-- T19598&#45;&gt;T19604 -->
<g id="edge12" class="edge">
<title>T19598:f1&#45;&gt;T19604:f1</title>
<path fill="none" stroke="#c000a5" d="M485,-243C485,-198.29 403.26,-233.73 389.85,-202.17"/>
<polygon fill="#c000a5" stroke="#c000a5" points="393.23,-201.21 388,-192 386.35,-202.47 393.23,-201.21"/>
<text text-anchor="middle" x="485.5" y="-213.8" font-family="Times,serif" font-size="14.00" fill="#c000a5">wr</text>
</g>
<!-- T19606 -->
<g id="node11" class="node">
<title>T19606</title>
<polygon fill="none" stroke="#0058ad" points="583.5,-243.5 583.5,-272.5 802.5,-272.5 802.5,-243.5 583.5,-243.5"/>
<text text-anchor="middle" x="620.5" y="-254.3" font-family="Times,serif" font-size="14.00" fill="#0058ad">w 754 5</text>
<polyline fill="none" stroke="#0058ad" points="657.5,-243.5 657.5,-272.5 "/>
<text text-anchor="middle" x="691.5" y="-254.3" font-family="Times,serif" font-size="14.00" fill="#0058ad">r 754 5</text>
<polyline fill="none" stroke="#0058ad" points="725.5,-243.5 725.5,-272.5 "/>
<text text-anchor="middle" x="764" y="-254.3" font-family="Times,serif" font-size="14.00" fill="#0058ad">r 752 12</text>
</g>
<!-- T19606&#45;&gt;T19609 -->
<g id="edge13" class="edge">
<title>T19606:f0&#45;&gt;T19609:f2</title>
<path fill="none" stroke="#c000a5" d="M620,-243C620,-217.22 825.18,-219.7 865.26,-199.44"/>
<polygon fill="#c000a5" stroke="#c000a5" points="867.88,-201.76 872,-192 862.69,-197.06 867.88,-201.76"/>
<text text-anchor="middle" x="826.5" y="-213.8" font-family="Times,serif" font-size="14.00" fill="#c000a5">wr</text>
</g>
<!-- T19606&#45;&gt;T19622 -->
<g id="edge14" class="edge">
<title>T19606:f0&#45;&gt;T19622:f1</title>
<path fill="none" stroke="#c000a5" d="M620,-243C620,-187.62 608.53,-171.82 607.14,-121.23"/>
<polygon fill="#c000a5" stroke="#c000a5" points="610.63,-120.95 607,-111 603.63,-121.05 610.63,-120.95"/>
<text text-anchor="middle" x="625.5" y="-173.3" font-family="Times,serif" font-size="14.00" fill="#c000a5">wr</text>
</g>
<!-- T19435&#45;&gt;T19538 -->
<g id="edge15" class="edge">
<title>T19435:f0&#45;&gt;T19538:f0</title>
<path fill="none" stroke="#5b00c0" d="M450,-567C450,-548.23 450,-541.12 450,-526.35"/>
<polygon fill="#5b00c0" stroke="#5b00c0" points="453.5,-526 450,-516 446.5,-526 453.5,-526"/>
<text text-anchor="middle" x="459.5" y="-537.8" font-family="Times,serif" font-size="14.00" fill="#5b00c0">rw</text>
</g>
<!-- T19587&#45;&gt;T19604 -->
<g id="edge16" class="edge">
<title>T19587:f2&#45;&gt;T19604:f2</title>
<path fill="none" stroke="#5b00c0" d="M555,-405C555,-332.51 569.45,-307.31 536,-243 525.83,-223.45 516.84,-222.93 499,-210 489.93,-203.43 478.29,-205.07 472.18,-201.09"/>
<polygon fill="#5b00c0" stroke="#5b00c0" points="475.35,-199.63 468,-192 468.99,-202.55 475.35,-199.63"/>
<text text-anchor="middle" x="566.5" y="-294.8" font-family="Times,serif" font-size="14.00" fill="#5b00c0">rw</text>
</g>
<!-- T19587&#45;&gt;T19598 -->
<g id="edge19" class="edge">
<title>T19587:f2&#45;&gt;T19598:f1</title>
<path fill="none" stroke="#5b00c0" d="M555,-405C555,-394.87 546.65,-395.41 541,-387 511.48,-343.08 488.09,-330.93 485.28,-283.07"/>
<polygon fill="#5b00c0" stroke="#5b00c0" points="488.78,-282.9 485,-273 481.78,-283.09 488.78,-282.9"/>
<text text-anchor="middle" x="524.5" y="-335.3" font-family="Times,serif" font-size="14.00" fill="#5b00c0">rw</text>
</g>
<!-- T19595 -->
<g id="node16" class="node">
<title>T19595</title>
<polygon fill="none" stroke="#0058ad" points="178.5,-324.5 178.5,-353.5 471.5,-353.5 471.5,-324.5 178.5,-324.5"/>
<text text-anchor="middle" x="217" y="-335.3" font-family="Times,serif" font-size="14.00" fill="#0058ad">r 746 nil</text>
<polyline fill="none" stroke="#0058ad" points="255.5,-324.5 255.5,-353.5 "/>
<text text-anchor="middle" x="292.5" y="-335.3" font-family="Times,serif" font-size="14.00" fill="#0058ad">w 752 8</text>
<polyline fill="none" stroke="#0058ad" points="329.5,-324.5 329.5,-353.5 "/>
<text text-anchor="middle" x="363.5" y="-335.3" font-family="Times,serif" font-size="14.00" fill="#0058ad">r 752 8</text>
<polyline fill="none" stroke="#0058ad" points="397.5,-324.5 397.5,-353.5 "/>
<text text-anchor="middle" x="434.5" y="-335.3" font-family="Times,serif" font-size="14.00" fill="#0058ad">w 752 9</text>
</g>
<!-- T19587&#45;&gt;T19595 -->
<g id="edge18" class="edge">
<title>T19587:f2&#45;&gt;T19595:f3</title>
<path fill="none" stroke="#5b00c0" d="M555,-405C555,-368.56 507.73,-403.03 475,-387 457.86,-378.6 441.68,-377.29 436.62,-363.99"/>
<polygon fill="#5b00c0" stroke="#5b00c0" points="440.05,-363.31 435,-354 433.14,-364.43 440.05,-363.31"/>
<text text-anchor="middle" x="484.5" y="-375.8" font-family="Times,serif" font-size="14.00" fill="#5b00c0">rw</text>
</g>
<!-- T19601 -->
<g id="node17" class="node">
<title>T19601</title>
<polygon fill="none" stroke="#0058ad" points="583,-324.5 583,-353.5 743,-353.5 743,-324.5 583,-324.5"/>
<text text-anchor="middle" x="624.5" y="-335.3" font-family="Times,serif" font-size="14.00" fill="#0058ad">w 752 12</text>
<polyline fill="none" stroke="#0058ad" points="666,-324.5 666,-353.5 "/>
<text text-anchor="middle" x="704.5" y="-335.3" font-family="Times,serif" font-size="14.00" fill="#0058ad">r 752 12</text>
</g>
<!-- T19587&#45;&gt;T19601 -->
<g id="edge17" class="edge">
<title>T19587:f2&#45;&gt;T19601:f0</title>
<path fill="none" stroke="#5b00c0" d="M594,-420C622.82,-420 624.09,-392.97 624.03,-364.21"/>
<polygon fill="#5b00c0" stroke="#5b00c0" points="627.53,-363.99 624,-354 620.53,-364.01 627.53,-363.99"/>
<text text-anchor="middle" x="632.5" y="-375.8" font-family="Times,serif" font-size="14.00" fill="#5b00c0">rw</text>
</g>
<!-- T19622&#45;&gt;T19637 -->
<g id="edge20" class="edge">
<title>T19622:f0&#45;&gt;T19637:f1</title>
<path fill="none" stroke="#5b00c0" d="M494,-96C448.78,-96 95,-130.78 95,-176 95,-826 95,-826 95,-826 95,-852.03 107.25,-859.5 110.31,-880.89"/>
<polygon fill="#5b00c0" stroke="#5b00c0" points="106.83,-881.26 111,-891 113.81,-880.79 106.83,-881.26"/>
<text text-anchor="middle" x="104.5" y="-497.3" font-family="Times,serif" font-size="14.00" fill="#5b00c0">rw</text>
</g>
<!-- T19628 -->
<g id="node15" class="node">
<title>T19628</title>
<polygon fill="none" stroke="#0058ad" points="548.5,-0.5 548.5,-29.5 767.5,-29.5 767.5,-0.5 548.5,-0.5"/>
<text text-anchor="middle" x="585.5" y="-11.3" font-family="Times,serif" font-size="14.00" fill="#0058ad">w 755 2</text>
<polyline fill="none" stroke="#0058ad" points="622.5,-0.5 622.5,-29.5 "/>
<text text-anchor="middle" x="661" y="-11.3" font-family="Times,serif" font-size="14.00" fill="#0058ad">r 753 nil</text>
<polyline fill="none" stroke="#0058ad" points="699.5,-0.5 699.5,-29.5 "/>
<text text-anchor="middle" x="733.5" y="-11.3" font-family="Times,serif" font-size="14.00" fill="#0058ad">r 507 6</text>
</g>
<!-- T19622&#45;&gt;T19628 -->
<g id="edge21" class="edge">
<title>T19622:f0&#45;&gt;T19628:f0</title>
<path fill="none" stroke="#5b00c0" d="M534,-81C534,-52.83 573.4,-59.54 582.94,-39.82"/>
<polygon fill="#5b00c0" stroke="#5b00c0" points="586.37,-40.51 585,-30 579.52,-39.07 586.37,-40.51"/>
<text text-anchor="middle" x="584.5" y="-51.8" font-family="Times,serif" font-size="14.00" fill="#5b00c0">rw</text>
</g>
<!-- T19628&#45;&gt;T19622 -->
<g id="edge22" class="edge">
<title>T19628:f1&#45;&gt;T19622:f2</title>
<path fill="none" stroke="#5b00c0" d="M661,-30C661,-49.97 672.88,-55.5 676.78,-70.73"/>
<polygon fill="#5b00c0" stroke="#5b00c0" points="673.34,-71.48 678,-81 680.29,-70.66 673.34,-71.48"/>
<text text-anchor="middle" x="682.5" y="-51.8" font-family="Times,serif" font-size="14.00" fill="#5b00c0">rw</text>
</g>
<!-- T19595&#45;&gt;T19598 -->
<g id="edge23" class="edge">
<title>T19595:f3&#45;&gt;T19598:f0</title>
<path fill="none" stroke="#c000a5" d="M435,-324C435,-302.53 416.49,-299.1 410.71,-283.26"/>
<polygon fill="#c000a5" stroke="#c000a5" points="414.09,-282.29 409,-273 407.19,-283.44 414.09,-282.29"/>
<text text-anchor="middle" x="437.5" y="-294.8" font-family="Times,serif" font-size="14.00" fill="#c000a5">wr</text>
</g>
<!-- T19601&#45;&gt;T19609 -->
<g id="edge25" class="edge">
<title>T19601:f0&#45;&gt;T19609:f1</title>
<path fill="none" stroke="#c000a5" d="M624,-324C624,-289.32 747.78,-321.1 779,-306 797.67,-296.97 804.06,-292.16 812,-273 824.57,-242.66 804.68,-230.75 800.68,-201.98"/>
<polygon fill="#c000a5" stroke="#c000a5" points="804.17,-201.74 800,-192 797.19,-202.21 804.17,-201.74"/>
<text text-anchor="middle" x="825.5" y="-254.3" font-family="Times,serif" font-size="14.00" fill="#c000a5">wr</text>
</g>
<!-- T19601&#45;&gt;T19606 -->
<g id="edge24" class="edge">
<title>T19601:f0&#45;&gt;T19606:f2</title>
<path fill="none" stroke="#c000a5" d="M624,-324C624,-261.66 748.07,-330.18 762.61,-283.18"/>
<polygon fill="#c000a5" stroke="#c000a5" points="766.12,-283.38 764,-273 759.18,-282.44 766.12,-283.38"/>
<text text-anchor="middle" x="765.5" y="-294.8" font-family="Times,serif" font-size="14.00" fill="#c000a5">wr</text>
</g>
</g>
</svg>
