<?xml version="1.0" encoding="UTF-8" standalone="no"?>
<!DOCTYPE svg PUBLIC "-//W3C//DTD SVG 1.1//EN"
 "http://www.w3.org/Graphics/SVG/1.1/DTD/svg11.dtd">
<!-- Generated by graphviz version 2.43.0 (0)
 -->
<!-- Title: a_graph Pages: 1 -->
<svg width="237pt" height="119pt"
 viewBox="0.00 0.00 237.00 119.00" xmlns="http://www.w3.org/2000/svg" xmlns:xlink="http://www.w3.org/1999/xlink">
<g id="graph0" class="graph" transform="scale(1 1) rotate(0) translate(4 115)">
<title>a_graph</title>
<polygon fill="white" stroke="transparent" points="-4,4 -4,-115 233,-115 233,4 -4,4"/>
<!-- T24451 -->
<g id="node1" class="node">
<title>T24451</title>
<polygon fill="none" stroke="#0058ad" points="1,-81.5 1,-110.5 229,-110.5 229,-81.5 1,-81.5"/>
<text text-anchor="middle" x="39.5" y="-92.3" font-family="Times,serif" font-size="14.00" fill="#0058ad">r 933 nil</text>
<polyline fill="none" stroke="#0058ad" points="78,-81.5 78,-110.5 "/>
<text text-anchor="middle" x="116.5" y="-92.3" font-family="Times,serif" font-size="14.00" fill="#0058ad">r 933 nil</text>
<polyline fill="none" stroke="#0058ad" points="155,-81.5 155,-110.5 "/>
<text text-anchor="middle" x="192" y="-92.3" font-family="Times,serif" font-size="14.00" fill="#0058ad">w 935 1</text>
</g>
<!-- T24477 -->
<g id="node2" class="node">
<title>T24477</title>
<polygon fill="none" stroke="#0058ad" points="0,-0.5 0,-29.5 228,-29.5 228,-0.5 0,-0.5"/>
<text text-anchor="middle" x="41.5" y="-11.3" font-family="Times,serif" font-size="14.00" fill="#0058ad">w 933 16</text>
<polyline fill="none" stroke="#0058ad" points="83,-0.5 83,-29.5 "/>
<text text-anchor="middle" x="117" y="-11.3" font-family="Times,serif" font-size="14.00" fill="#0058ad">r 929 5</text>
<polyline fill="none" stroke="#0058ad" points="151,-0.5 151,-29.5 "/>
<text text-anchor="middle" x="189.5" y="-11.3" font-family="Times,serif" font-size="14.00" fill="#0058ad">r 935 nil</text>
</g>
<!-- T24451&#45;&gt;T24477 -->
<g id="edge1" class="edge">
<title>T24451:f0&#45;&gt;T24477:f0</title>
<path fill="none" stroke="#5b00c0" d="M39,-81C39,-62.21 40.37,-55.12 40.84,-40.36"/>
<polygon fill="#5b00c0" stroke="#5b00c0" points="44.35,-40.05 41,-30 37.35,-39.95 44.35,-40.05"/>
<text text-anchor="middle" x="50.5" y="-51.8" font-family="Times,serif" font-size="14.00" fill="#5b00c0">rw</text>
</g>
<!-- T24477&#45;&gt;T24451 -->
<g id="edge2" class="edge">
<title>T24477:f2&#45;&gt;T24451:f2</title>
<path fill="none" stroke="#5b00c0" d="M190,-30C190,-48.79 191.37,-55.88 191.84,-70.64"/>
<polygon fill="#5b00c0" stroke="#5b00c0" points="188.35,-71.05 192,-81 195.35,-70.95 188.35,-71.05"/>
<text text-anchor="middle" x="200.5" y="-51.8" font-family="Times,serif" font-size="14.00" fill="#5b00c0">rw</text>
</g>
</g>
</svg>
