<?xml version="1.0" encoding="UTF-8" standalone="no"?>
<!DOCTYPE svg PUBLIC "-//W3C//DTD SVG 1.1//EN"
 "http://www.w3.org/Graphics/SVG/1.1/DTD/svg11.dtd">
<!-- Generated by graphviz version 2.43.0 (0)
 -->
<!-- Title: a_graph Pages: 1 -->
<svg width="311pt" height="119pt"
 viewBox="0.00 0.00 311.00 119.00" xmlns="http://www.w3.org/2000/svg" xmlns:xlink="http://www.w3.org/1999/xlink">
<g id="graph0" class="graph" transform="scale(1 1) rotate(0) translate(4 115)">
<title>a_graph</title>
<polygon fill="white" stroke="transparent" points="-4,4 -4,-115 307,-115 307,4 -4,4"/>
<!-- T14126 -->
<g id="node1" class="node">
<title>T14126</title>
<polygon fill="none" stroke="#0058ad" points="0,-81.5 0,-110.5 225,-110.5 225,-81.5 0,-81.5"/>
<text text-anchor="middle" x="38.5" y="-92.3" font-family="Times,serif" font-size="14.00" fill="#0058ad">r 546 nil</text>
<polyline fill="none" stroke="#0058ad" points="77,-81.5 77,-110.5 "/>
<text text-anchor="middle" x="114" y="-92.3" font-family="Times,serif" font-size="14.00" fill="#0058ad">w 545 4</text>
<polyline fill="none" stroke="#0058ad" points="151,-81.5 151,-110.5 "/>
<text text-anchor="middle" x="188" y="-92.3" font-family="Times,serif" font-size="14.00" fill="#0058ad">w 546 1</text>
</g>
<!-- T14133 -->
<g id="node2" class="node">
<title>T14133</title>
<polygon fill="none" stroke="#0058ad" points="10,-0.5 10,-29.5 303,-29.5 303,-0.5 10,-0.5"/>
<text text-anchor="middle" x="48.5" y="-11.3" font-family="Times,serif" font-size="14.00" fill="#0058ad">r 546 nil</text>
<polyline fill="none" stroke="#0058ad" points="87,-0.5 87,-29.5 "/>
<text text-anchor="middle" x="124" y="-11.3" font-family="Times,serif" font-size="14.00" fill="#0058ad">w 546 3</text>
<polyline fill="none" stroke="#0058ad" points="161,-0.5 161,-29.5 "/>
<text text-anchor="middle" x="198" y="-11.3" font-family="Times,serif" font-size="14.00" fill="#0058ad">w 545 6</text>
<polyline fill="none" stroke="#0058ad" points="235,-0.5 235,-29.5 "/>
<text text-anchor="middle" x="269" y="-11.3" font-family="Times,serif" font-size="14.00" fill="#0058ad">r 545 6</text>
</g>
<!-- T14126&#45;&gt;T14133 -->
<g id="edge1" class="edge">
<title>T14126:f0&#45;&gt;T14133:f1</title>
<path fill="none" stroke="#5b00c0" d="M38.5,-81C38.5,-40.9 108.91,-68.04 121.56,-40.03"/>
<polygon fill="#5b00c0" stroke="#5b00c0" points="125.04,-40.48 123.5,-30 118.17,-39.16 125.04,-40.48"/>
<text text-anchor="middle" x="123" y="-51.8" font-family="Times,serif" font-size="14.00" fill="#5b00c0">rw</text>
</g>
<!-- T14133&#45;&gt;T14126 -->
<g id="edge2" class="edge">
<title>T14133:f0&#45;&gt;T14126:f2</title>
<path fill="none" stroke="#5b00c0" d="M48.5,-30C48.5,-49.96 117.99,-40.53 136.5,-48 158.11,-56.72 180.63,-54.67 186.83,-70.77"/>
<polygon fill="#5b00c0" stroke="#5b00c0" points="183.44,-71.69 188.5,-81 190.34,-70.57 183.44,-71.69"/>
<text text-anchor="middle" x="189" y="-51.8" font-family="Times,serif" font-size="14.00" fill="#5b00c0">rw</text>
</g>
</g>
</svg>
