<?xml version="1.0" encoding="UTF-8" standalone="no"?>
<!DOCTYPE svg PUBLIC "-//W3C//DTD SVG 1.1//EN"
 "http://www.w3.org/Graphics/SVG/1.1/DTD/svg11.dtd">
<!-- Generated by graphviz version 2.43.0 (0)
 -->
<!-- Title: a_graph Pages: 1 -->
<svg width="1132pt" height="944pt"
 viewBox="0.00 0.00 1132.34 944.00" xmlns="http://www.w3.org/2000/svg" xmlns:xlink="http://www.w3.org/1999/xlink">
<g id="graph0" class="graph" transform="scale(1 1) rotate(0) translate(4 940)">
<title>a_graph</title>
<polygon fill="white" stroke="transparent" points="-4,4 -4,-940 1128.34,-940 1128.34,4 -4,4"/>
<!-- T17357 -->
<g id="node1" class="node">
<title>T17357</title>
<polygon fill="none" stroke="#0058ad" points="822.34,-906.5 822.34,-935.5 1124.34,-935.5 1124.34,-906.5 822.34,-906.5"/>
<text text-anchor="middle" x="859.34" y="-917.3" font-family="Times,serif" font-size="14.00" fill="#0058ad">w 661 6</text>
<polyline fill="none" stroke="#0058ad" points="896.34,-906.5 896.34,-935.5 "/>
<text text-anchor="middle" x="934.84" y="-917.3" font-family="Times,serif" font-size="14.00" fill="#0058ad">r 668 nil</text>
<polyline fill="none" stroke="#0058ad" points="973.34,-906.5 973.34,-935.5 "/>
<text text-anchor="middle" x="1010.34" y="-917.3" font-family="Times,serif" font-size="14.00" fill="#0058ad">w 668 1</text>
<polyline fill="none" stroke="#0058ad" points="1047.34,-906.5 1047.34,-935.5 "/>
<text text-anchor="middle" x="1085.84" y="-917.3" font-family="Times,serif" font-size="14.00" fill="#0058ad">r 387 13</text>
</g>
<!-- T17404 -->
<g id="node11" class="node">
<title>T17404</title>
<polygon fill="none" stroke="#0058ad" points="771.34,-825.5 771.34,-854.5 1091.34,-854.5 1091.34,-825.5 771.34,-825.5"/>
<text text-anchor="middle" x="809.84" y="-836.3" font-family="Times,serif" font-size="14.00" fill="#0058ad">r 667 14</text>
<polyline fill="none" stroke="#0058ad" points="848.34,-825.5 848.34,-854.5 "/>
<text text-anchor="middle" x="886.84" y="-836.3" font-family="Times,serif" font-size="14.00" fill="#0058ad">r 662 nil</text>
<polyline fill="none" stroke="#0058ad" points="925.34,-825.5 925.34,-854.5 "/>
<text text-anchor="middle" x="966.84" y="-836.3" font-family="Times,serif" font-size="14.00" fill="#0058ad">w 668 14</text>
<polyline fill="none" stroke="#0058ad" points="1008.34,-825.5 1008.34,-854.5 "/>
<text text-anchor="middle" x="1049.84" y="-836.3" font-family="Times,serif" font-size="14.00" fill="#0058ad">w 668 15</text>
</g>
<!-- T17357&#45;&gt;T17404 -->
<g id="edge1" class="edge">
<title>T17357:f1&#45;&gt;T17404:f3</title>
<path fill="none" stroke="#5b00c0" d="M934.34,-906C934.34,-853.64 1034.6,-903.23 1048.7,-865.21"/>
<polygon fill="#5b00c0" stroke="#5b00c0" points="1052.21,-865.43 1050.34,-855 1045.3,-864.32 1052.21,-865.43"/>
<text text-anchor="middle" x="1051.84" y="-876.8" font-family="Times,serif" font-size="14.00" fill="#5b00c0">rw</text>
</g>
<!-- T17242 -->
<g id="node2" class="node">
<title>T17242</title>
<polygon fill="none" stroke="#0058ad" points="454.84,-582.5 454.84,-611.5 605.84,-611.5 605.84,-582.5 454.84,-582.5"/>
<text text-anchor="middle" x="491.84" y="-593.3" font-family="Times,serif" font-size="14.00" fill="#0058ad">w 661 1</text>
<polyline fill="none" stroke="#0058ad" points="528.84,-582.5 528.84,-611.5 "/>
<text text-anchor="middle" x="567.34" y="-593.3" font-family="Times,serif" font-size="14.00" fill="#0058ad">r 663 nil</text>
</g>
<!-- T17277 -->
<g id="node6" class="node">
<title>T17277</title>
<polygon fill="none" stroke="#0058ad" points="278.34,-744.5 278.34,-773.5 592.34,-773.5 592.34,-744.5 278.34,-744.5"/>
<text text-anchor="middle" x="315.34" y="-755.3" font-family="Times,serif" font-size="14.00" fill="#0058ad">w 662 2</text>
<polyline fill="none" stroke="#0058ad" points="352.34,-744.5 352.34,-773.5 "/>
<text text-anchor="middle" x="393.84" y="-755.3" font-family="Times,serif" font-size="14.00" fill="#0058ad">w 664 11</text>
<polyline fill="none" stroke="#0058ad" points="435.34,-744.5 435.34,-773.5 "/>
<text text-anchor="middle" x="472.34" y="-755.3" font-family="Times,serif" font-size="14.00" fill="#0058ad">w 663 9</text>
<polyline fill="none" stroke="#0058ad" points="509.34,-744.5 509.34,-773.5 "/>
<text text-anchor="middle" x="550.84" y="-755.3" font-family="Times,serif" font-size="14.00" fill="#0058ad">w 663 10</text>
</g>
<!-- T17242&#45;&gt;T17277 -->
<g id="edge4" class="edge">
<title>T17242:f1&#45;&gt;T17277:f3</title>
<path fill="none" stroke="#5b00c0" d="M607.34,-597C664.04,-597 717.98,-642.95 691.34,-693 668.31,-736.28 648.64,-756.27 603.39,-758.74"/>
<polygon fill="#5b00c0" stroke="#5b00c0" points="603.25,-755.24 593.34,-759 603.43,-762.24 603.25,-755.24"/>
<text text-anchor="middle" x="707.84" y="-674.3" font-family="Times,serif" font-size="14.00" fill="#5b00c0">rw</text>
</g>
<!-- T17280 -->
<g id="node7" class="node">
<title>T17280</title>
<polygon fill="none" stroke="#0058ad" points="362.34,-663.5 362.34,-692.5 682.34,-692.5 682.34,-663.5 362.34,-663.5"/>
<text text-anchor="middle" x="400.84" y="-674.3" font-family="Times,serif" font-size="14.00" fill="#0058ad">r 663 10</text>
<polyline fill="none" stroke="#0058ad" points="439.34,-663.5 439.34,-692.5 "/>
<text text-anchor="middle" x="480.84" y="-674.3" font-family="Times,serif" font-size="14.00" fill="#0058ad">w 663 12</text>
<polyline fill="none" stroke="#0058ad" points="522.34,-663.5 522.34,-692.5 "/>
<text text-anchor="middle" x="560.84" y="-674.3" font-family="Times,serif" font-size="14.00" fill="#0058ad">r 661 nil</text>
<polyline fill="none" stroke="#0058ad" points="599.34,-663.5 599.34,-692.5 "/>
<text text-anchor="middle" x="640.84" y="-674.3" font-family="Times,serif" font-size="14.00" fill="#0058ad">w 664 12</text>
</g>
<!-- T17242&#45;&gt;T17280 -->
<g id="edge3" class="edge">
<title>T17242:f1&#45;&gt;T17280:f1</title>
<path fill="none" stroke="#5b00c0" d="M567.34,-612C567.34,-638.57 532.72,-615.68 510.34,-630 497.04,-638.52 485.89,-641.83 481.91,-652.85"/>
<polygon fill="#5b00c0" stroke="#5b00c0" points="478.41,-652.58 480.34,-663 485.32,-653.65 478.41,-652.58"/>
<text text-anchor="middle" x="519.84" y="-633.8" font-family="Times,serif" font-size="14.00" fill="#5b00c0">rw</text>
</g>
<!-- T17282 -->
<g id="node14" class="node">
<title>T17282</title>
<polygon fill="none" stroke="#0058ad" points="375.84,-453.5 375.84,-482.5 618.84,-482.5 618.84,-453.5 375.84,-453.5"/>
<text text-anchor="middle" x="417.34" y="-464.3" font-family="Times,serif" font-size="14.00" fill="#0058ad">w 664 13</text>
<polyline fill="none" stroke="#0058ad" points="458.84,-453.5 458.84,-482.5 "/>
<text text-anchor="middle" x="500.34" y="-464.3" font-family="Times,serif" font-size="14.00" fill="#0058ad">w 663 13</text>
<polyline fill="none" stroke="#0058ad" points="541.84,-453.5 541.84,-482.5 "/>
<text text-anchor="middle" x="580.34" y="-464.3" font-family="Times,serif" font-size="14.00" fill="#0058ad">r 665 nil</text>
</g>
<!-- T17242&#45;&gt;T17282 -->
<g id="edge2" class="edge">
<title>T17242:f1&#45;&gt;T17282:f1</title>
<path fill="none" stroke="#5b00c0" d="M567.34,-582C567.34,-532.5 509.19,-535.42 501.24,-493.09"/>
<polygon fill="#5b00c0" stroke="#5b00c0" points="504.71,-492.65 500.34,-483 497.74,-493.27 504.71,-492.65"/>
<text text-anchor="middle" x="572.84" y="-552.8" font-family="Times,serif" font-size="14.00" fill="#5b00c0">rw</text>
</g>
<!-- T17477 -->
<g id="node3" class="node">
<title>T17477</title>
<polygon fill="none" stroke="#0058ad" points="375.84,-81.5 375.84,-110.5 532.84,-110.5 532.84,-81.5 375.84,-81.5"/>
<text text-anchor="middle" x="417.34" y="-92.3" font-family="Times,serif" font-size="14.00" fill="#0058ad">w 661 13</text>
<polyline fill="none" stroke="#0058ad" points="458.84,-81.5 458.84,-110.5 "/>
<text text-anchor="middle" x="495.84" y="-92.3" font-family="Times,serif" font-size="14.00" fill="#0058ad">w 671 4</text>
</g>
<!-- T17487 -->
<g id="node4" class="node">
<title>T17487</title>
<polygon fill="none" stroke="#0058ad" points="34.34,-0.5 34.34,-29.5 354.34,-29.5 354.34,-0.5 34.34,-0.5"/>
<text text-anchor="middle" x="72.84" y="-11.3" font-family="Times,serif" font-size="14.00" fill="#0058ad">r 662 nil</text>
<polyline fill="none" stroke="#0058ad" points="111.34,-0.5 111.34,-29.5 "/>
<text text-anchor="middle" x="152.84" y="-11.3" font-family="Times,serif" font-size="14.00" fill="#0058ad">w 669 13</text>
<polyline fill="none" stroke="#0058ad" points="194.34,-0.5 194.34,-29.5 "/>
<text text-anchor="middle" x="232.84" y="-11.3" font-family="Times,serif" font-size="14.00" fill="#0058ad">r 661 13</text>
<polyline fill="none" stroke="#0058ad" points="271.34,-0.5 271.34,-29.5 "/>
<text text-anchor="middle" x="312.84" y="-11.3" font-family="Times,serif" font-size="14.00" fill="#0058ad">w 671 10</text>
</g>
<!-- T17477&#45;&gt;T17487 -->
<g id="edge5" class="edge">
<title>T17477:f0&#45;&gt;T17487:f2</title>
<path fill="none" stroke="#c000a5" d="M374.34,-96C370.68,-96 271.91,-51.68 241.91,-35.55"/>
<polygon fill="#c000a5" stroke="#c000a5" points="243.64,-32.5 233.34,-30 239.83,-38.37 243.64,-32.5"/>
<text text-anchor="middle" x="307.84" y="-51.8" font-family="Times,serif" font-size="14.00" fill="#c000a5">wr</text>
</g>
<!-- T17487&#45;&gt;T17277 -->
<g id="edge6" class="edge">
<title>T17487:f0&#45;&gt;T17277:f0</title>
<path fill="none" stroke="#5b00c0" d="M33.34,-15C-5.12,-15 0.34,-56.54 0.34,-95 0.34,-679 0.34,-679 0.34,-679 0.34,-739.94 192.98,-757.33 266.93,-758.88"/>
<polygon fill="#5b00c0" stroke="#5b00c0" points="267.3,-762.39 277.34,-759 267.38,-755.39 267.3,-762.39"/>
<text text-anchor="middle" x="9.84" y="-375.8" font-family="Times,serif" font-size="14.00" fill="#5b00c0">rw</text>
</g>
<!-- T17467 -->
<g id="node5" class="node">
<title>T17467</title>
<polygon fill="none" stroke="#0058ad" points="417.34,-243.5 417.34,-272.5 577.34,-272.5 577.34,-243.5 417.34,-243.5"/>
<text text-anchor="middle" x="458.84" y="-254.3" font-family="Times,serif" font-size="14.00" fill="#0058ad">w 669 10</text>
<polyline fill="none" stroke="#0058ad" points="500.34,-243.5 500.34,-272.5 "/>
<text text-anchor="middle" x="538.84" y="-254.3" font-family="Times,serif" font-size="14.00" fill="#0058ad">r 671 nil</text>
</g>
<!-- T17467&#45;&gt;T17477 -->
<g id="edge8" class="edge">
<title>T17467:f1&#45;&gt;T17477:f1</title>
<path fill="none" stroke="#5b00c0" d="M539.34,-243C539.34,-214.14 560.92,-121.67 543.49,-100.39"/>
<polygon fill="#5b00c0" stroke="#5b00c0" points="544.87,-97.18 534.34,-96 541.84,-103.49 544.87,-97.18"/>
<text text-anchor="middle" x="557.84" y="-173.3" font-family="Times,serif" font-size="14.00" fill="#5b00c0">rw</text>
</g>
<!-- T17467&#45;&gt;T17487 -->
<g id="edge7" class="edge">
<title>T17467:f1&#45;&gt;T17487:f3</title>
<path fill="none" stroke="#5b00c0" d="M578.34,-258C658.62,-258 601.14,-135.65 542.34,-81 480.31,-23.34 446.2,-15.55 365.43,-15.03"/>
<polygon fill="#5b00c0" stroke="#5b00c0" points="365.35,-11.53 355.34,-15 365.33,-18.53 365.35,-11.53"/>
<text text-anchor="middle" x="599.84" y="-132.8" font-family="Times,serif" font-size="14.00" fill="#5b00c0">rw</text>
</g>
<!-- T17471 -->
<g id="node12" class="node">
<title>T17471</title>
<polygon fill="none" stroke="#0058ad" points="207.34,-162.5 207.34,-191.5 503.34,-191.5 503.34,-162.5 207.34,-162.5"/>
<text text-anchor="middle" x="241.34" y="-173.3" font-family="Times,serif" font-size="14.00" fill="#0058ad">r 665 1</text>
<polyline fill="none" stroke="#0058ad" points="275.34,-162.5 275.34,-191.5 "/>
<text text-anchor="middle" x="313.84" y="-173.3" font-family="Times,serif" font-size="14.00" fill="#0058ad">r 671 nil</text>
<polyline fill="none" stroke="#0058ad" points="352.34,-162.5 352.34,-191.5 "/>
<text text-anchor="middle" x="390.84" y="-173.3" font-family="Times,serif" font-size="14.00" fill="#0058ad">r 669 10</text>
<polyline fill="none" stroke="#0058ad" points="429.34,-162.5 429.34,-191.5 "/>
<text text-anchor="middle" x="466.34" y="-173.3" font-family="Times,serif" font-size="14.00" fill="#0058ad">w 671 2</text>
</g>
<!-- T17467&#45;&gt;T17471 -->
<g id="edge9" class="edge">
<title>T17467:f0&#45;&gt;T17471:f2</title>
<path fill="none" stroke="#c000a5" d="M416.34,-258C413.28,-258 399.74,-220.11 393.97,-201.66"/>
<polygon fill="#c000a5" stroke="#c000a5" points="397.34,-200.73 391.34,-192 390.59,-202.57 397.34,-200.73"/>
<text text-anchor="middle" x="410.84" y="-213.8" font-family="Times,serif" font-size="14.00" fill="#c000a5">wr</text>
</g>
<!-- T17277&#45;&gt;T17280 -->
<g id="edge10" class="edge">
<title>T17277:f3&#45;&gt;T17280:f0</title>
<path fill="none" stroke="#c000a5" d="M551.34,-744C551.34,-677.04 416.41,-754.4 401.65,-703.23"/>
<polygon fill="#c000a5" stroke="#c000a5" points="405.08,-702.48 400.34,-693 398.14,-703.36 405.08,-702.48"/>
<text text-anchor="middle" x="553.84" y="-714.8" font-family="Times,serif" font-size="14.00" fill="#c000a5">wr</text>
</g>
<!-- T17280&#45;&gt;T17357 -->
<g id="edge14" class="edge">
<title>T17280:f2&#45;&gt;T17357:f0</title>
<path fill="none" stroke="#5b00c0" d="M561.34,-693C561.34,-710.6 763.38,-887.27 812.09,-916.82"/>
<polygon fill="#5b00c0" stroke="#5b00c0" points="810.79,-920.07 821.34,-921 813.67,-913.69 810.79,-920.07"/>
<text text-anchor="middle" x="684.84" y="-795.8" font-family="Times,serif" font-size="14.00" fill="#5b00c0">rw</text>
</g>
<!-- T17280&#45;&gt;T17242 -->
<g id="edge13" class="edge">
<title>T17280:f2&#45;&gt;T17242:f0</title>
<path fill="none" stroke="#5b00c0" d="M561.34,-663C561.34,-642.57 545.95,-641.9 529.34,-630 518.18,-622.01 502.92,-626.13 495.6,-621.48"/>
<polygon fill="#5b00c0" stroke="#5b00c0" points="498.63,-619.69 491.34,-612 492.25,-622.56 498.63,-619.69"/>
<text text-anchor="middle" x="562.84" y="-633.8" font-family="Times,serif" font-size="14.00" fill="#5b00c0">rw</text>
</g>
<!-- T17280&#45;&gt;T17477 -->
<g id="edge11" class="edge">
<title>T17280:f2&#45;&gt;T17477:f0</title>
<path fill="none" stroke="#5b00c0" d="M561.34,-663C561.34,-652.14 634.34,-608.86 634.34,-598 634.34,-598 634.34,-598 634.34,-176 634.34,-153.12 631.95,-142.31 613.34,-129 597.78,-117.86 459.39,-129.18 425.03,-117.53"/>
<polygon fill="#5b00c0" stroke="#5b00c0" points="427.23,-114.8 417.34,-111 422.7,-120.14 427.23,-114.8"/>
<text text-anchor="middle" x="643.84" y="-375.8" font-family="Times,serif" font-size="14.00" fill="#5b00c0">rw</text>
</g>
<!-- T17394 -->
<g id="node13" class="node">
<title>T17394</title>
<polygon fill="none" stroke="#0058ad" points="362.34,-582.5 362.34,-611.5 436.34,-611.5 436.34,-582.5 362.34,-582.5"/>
<text text-anchor="middle" x="399.34" y="-593.3" font-family="Times,serif" font-size="14.00" fill="#0058ad">w 661 8</text>
</g>
<!-- T17280&#45;&gt;T17394 -->
<g id="edge12" class="edge">
<title>T17280:f2&#45;&gt;T17394:f0</title>
<path fill="none" stroke="#5b00c0" d="M561.34,-663C561.34,-640.86 483.63,-653.88 463.34,-645 448.6,-638.55 434.09,-628.1 422.62,-618.6"/>
<polygon fill="#5b00c0" stroke="#5b00c0" points="424.72,-615.78 414.85,-611.92 420.15,-621.09 424.72,-615.78"/>
<text text-anchor="middle" x="472.84" y="-633.8" font-family="Times,serif" font-size="14.00" fill="#5b00c0">rw</text>
</g>
<!-- T17411 -->
<g id="node8" class="node">
<title>T17411</title>
<polygon fill="none" stroke="#0058ad" points="44.84,-324.5 44.84,-353.5 331.84,-353.5 331.84,-324.5 44.84,-324.5"/>
<text text-anchor="middle" x="83.34" y="-335.3" font-family="Times,serif" font-size="14.00" fill="#0058ad">r 669 nil</text>
<polyline fill="none" stroke="#0058ad" points="121.84,-324.5 121.84,-353.5 "/>
<text text-anchor="middle" x="155.84" y="-335.3" font-family="Times,serif" font-size="14.00" fill="#0058ad">r 670 1</text>
<polyline fill="none" stroke="#0058ad" points="189.84,-324.5 189.84,-353.5 "/>
<text text-anchor="middle" x="226.84" y="-335.3" font-family="Times,serif" font-size="14.00" fill="#0058ad">w 670 2</text>
<polyline fill="none" stroke="#0058ad" points="263.84,-324.5 263.84,-353.5 "/>
<text text-anchor="middle" x="297.84" y="-335.3" font-family="Times,serif" font-size="14.00" fill="#0058ad">r 670 2</text>
</g>
<!-- T17411&#45;&gt;T17487 -->
<g id="edge17" class="edge">
<title>T17411:f0&#45;&gt;T17487:f1</title>
<path fill="none" stroke="#5b00c0" d="M83.34,-324C83.34,-294.62 71.34,-288.38 71.34,-259 71.34,-259 71.34,-259 71.34,-95 71.34,-52.63 139.6,-72.17 150.8,-39.96"/>
<polygon fill="#5b00c0" stroke="#5b00c0" points="154.27,-40.42 152.34,-30 147.35,-39.34 154.27,-40.42"/>
<text text-anchor="middle" x="80.84" y="-173.3" font-family="Times,serif" font-size="14.00" fill="#5b00c0">rw</text>
</g>
<!-- T17411&#45;&gt;T17467 -->
<g id="edge18" class="edge">
<title>T17411:f0&#45;&gt;T17467:f0</title>
<path fill="none" stroke="#5b00c0" d="M83.34,-324C83.34,-307.88 211.4,-308.45 227.34,-306 308.16,-293.59 342.3,-321.21 408.34,-273 410.44,-271.47 411.15,-269.22 411.48,-266.92"/>
<polygon fill="#5b00c0" stroke="#5b00c0" points="414.63,-268.46 416.34,-258 408.48,-265.11 414.63,-268.46"/>
<text text-anchor="middle" x="383.84" y="-294.8" font-family="Times,serif" font-size="14.00" fill="#5b00c0">rw</text>
</g>
<!-- T17414 -->
<g id="node10" class="node">
<title>T17414</title>
<polygon fill="none" stroke="#0058ad" points="99.84,-243.5 99.84,-272.5 398.84,-272.5 398.84,-243.5 99.84,-243.5"/>
<text text-anchor="middle" x="136.84" y="-254.3" font-family="Times,serif" font-size="14.00" fill="#0058ad">w 669 1</text>
<polyline fill="none" stroke="#0058ad" points="173.84,-243.5 173.84,-272.5 "/>
<text text-anchor="middle" x="210.84" y="-254.3" font-family="Times,serif" font-size="14.00" fill="#0058ad">w 669 2</text>
<polyline fill="none" stroke="#0058ad" points="247.84,-243.5 247.84,-272.5 "/>
<text text-anchor="middle" x="284.84" y="-254.3" font-family="Times,serif" font-size="14.00" fill="#0058ad">w 665 1</text>
<polyline fill="none" stroke="#0058ad" points="321.84,-243.5 321.84,-272.5 "/>
<text text-anchor="middle" x="360.34" y="-254.3" font-family="Times,serif" font-size="14.00" fill="#0058ad">r 662 nil</text>
</g>
<!-- T17411&#45;&gt;T17414 -->
<g id="edge16" class="edge">
<title>T17411:f0&#45;&gt;T17414:f1</title>
<path fill="none" stroke="#5b00c0" d="M83.34,-324C83.34,-266.98 194.96,-325.51 208.92,-282.93"/>
<polygon fill="#5b00c0" stroke="#5b00c0" points="212.38,-283.4 210.34,-273 205.45,-282.4 212.38,-283.4"/>
<text text-anchor="middle" x="213.84" y="-294.8" font-family="Times,serif" font-size="14.00" fill="#5b00c0">rw</text>
</g>
<!-- T17418 -->
<g id="node15" class="node">
<title>T17418</title>
<polygon fill="none" stroke="#0058ad" points="28.34,-501.5 28.34,-530.5 324.34,-530.5 324.34,-501.5 28.34,-501.5"/>
<text text-anchor="middle" x="62.34" y="-512.3" font-family="Times,serif" font-size="14.00" fill="#0058ad">r 661 8</text>
<polyline fill="none" stroke="#0058ad" points="96.34,-501.5 96.34,-530.5 "/>
<text text-anchor="middle" x="134.84" y="-512.3" font-family="Times,serif" font-size="14.00" fill="#0058ad">r 662 nil</text>
<polyline fill="none" stroke="#0058ad" points="173.34,-501.5 173.34,-530.5 "/>
<text text-anchor="middle" x="210.34" y="-512.3" font-family="Times,serif" font-size="14.00" fill="#0058ad">w 669 3</text>
<polyline fill="none" stroke="#0058ad" points="247.34,-501.5 247.34,-530.5 "/>
<text text-anchor="middle" x="285.84" y="-512.3" font-family="Times,serif" font-size="14.00" fill="#0058ad">r 670 nil</text>
</g>
<!-- T17411&#45;&gt;T17418 -->
<g id="edge15" class="edge">
<title>T17411:f0&#45;&gt;T17418:f2</title>
<path fill="none" stroke="#5b00c0" d="M83.34,-354C83.34,-376.68 81.79,-382.32 81.34,-405 81.08,-418.33 74.38,-423.63 81.34,-435 112.98,-486.72 199.37,-442.48 209.39,-490.85"/>
<polygon fill="#5b00c0" stroke="#5b00c0" points="205.92,-491.37 210.34,-501 212.89,-490.72 205.92,-491.37"/>
<text text-anchor="middle" x="90.84" y="-416.3" font-family="Times,serif" font-size="14.00" fill="#5b00c0">rw</text>
</g>
<!-- T17409 -->
<g id="node9" class="node">
<title>T17409</title>
<polygon fill="none" stroke="#0058ad" points="109.84,-405.5 109.84,-434.5 260.84,-434.5 260.84,-405.5 109.84,-405.5"/>
<text text-anchor="middle" x="148.34" y="-416.3" font-family="Times,serif" font-size="14.00" fill="#0058ad">r 670 nil</text>
<polyline fill="none" stroke="#0058ad" points="186.84,-405.5 186.84,-434.5 "/>
<text text-anchor="middle" x="223.84" y="-416.3" font-family="Times,serif" font-size="14.00" fill="#0058ad">w 670 1</text>
</g>
<!-- T17409&#45;&gt;T17411 -->
<g id="edge19" class="edge">
<title>T17409:f1&#45;&gt;T17411:f1</title>
<path fill="none" stroke="#c000a5" d="M224.34,-405C224.34,-370.89 169.13,-387.51 157.48,-364.1"/>
<polygon fill="#c000a5" stroke="#c000a5" points="160.84,-363.06 155.34,-354 153.99,-364.51 160.84,-363.06"/>
<text text-anchor="middle" x="223.84" y="-375.8" font-family="Times,serif" font-size="14.00" fill="#c000a5">wr</text>
</g>
<!-- T17414&#45;&gt;T17277 -->
<g id="edge20" class="edge">
<title>T17414:f3&#45;&gt;T17277:f0</title>
<path fill="none" stroke="#5b00c0" d="M360.34,-273C360.34,-301.89 360.34,-309.11 360.34,-338 360.34,-469 360.34,-469 360.34,-469 360.34,-589.34 317.85,-618.53 315.45,-733.71"/>
<polygon fill="#5b00c0" stroke="#5b00c0" points="311.94,-733.96 315.34,-744 318.94,-734.04 311.94,-733.96"/>
<text text-anchor="middle" x="367.84" y="-512.3" font-family="Times,serif" font-size="14.00" fill="#5b00c0">rw</text>
</g>
<!-- T17414&#45;&gt;T17471 -->
<g id="edge21" class="edge">
<title>T17414:f2&#45;&gt;T17471:f0</title>
<path fill="none" stroke="#c000a5" d="M285.34,-243C285.34,-217.04 252.25,-220.26 243.46,-202.06"/>
<polygon fill="#c000a5" stroke="#c000a5" points="246.83,-201.06 241.34,-192 239.98,-202.51 246.83,-201.06"/>
<text text-anchor="middle" x="285.84" y="-213.8" font-family="Times,serif" font-size="14.00" fill="#c000a5">wr</text>
</g>
<!-- T17404&#45;&gt;T17277 -->
<g id="edge22" class="edge">
<title>T17404:f1&#45;&gt;T17277:f0</title>
<path fill="none" stroke="#5b00c0" d="M886.34,-825C886.34,-769.69 821,-800.49 766.34,-792 743.64,-788.47 384.1,-797.34 323.87,-779.59"/>
<polygon fill="#5b00c0" stroke="#5b00c0" points="325.62,-776.55 315.34,-774 321.79,-782.41 325.62,-776.55"/>
<text text-anchor="middle" x="891.84" y="-795.8" font-family="Times,serif" font-size="14.00" fill="#5b00c0">rw</text>
</g>
<!-- T17471&#45;&gt;T17477 -->
<g id="edge24" class="edge">
<title>T17471:f1&#45;&gt;T17477:f1</title>
<path fill="none" stroke="#5b00c0" d="M313.34,-162C313.34,-123.41 466.24,-148.03 492.52,-120.3"/>
<polygon fill="#5b00c0" stroke="#5b00c0" points="495.78,-121.58 496.34,-111 489.3,-118.92 495.78,-121.58"/>
<text text-anchor="middle" x="482.84" y="-132.8" font-family="Times,serif" font-size="14.00" fill="#5b00c0">rw</text>
</g>
<!-- T17471&#45;&gt;T17487 -->
<g id="edge23" class="edge">
<title>T17471:f1&#45;&gt;T17487:f3</title>
<path fill="none" stroke="#5b00c0" d="M313.34,-162C313.34,-106.89 313.34,-90.6 313.34,-40.19"/>
<polygon fill="#5b00c0" stroke="#5b00c0" points="316.84,-40 313.34,-30 309.84,-40 316.84,-40"/>
<text text-anchor="middle" x="322.84" y="-92.3" font-family="Times,serif" font-size="14.00" fill="#5b00c0">rw</text>
</g>
<!-- T17394&#45;&gt;T17418 -->
<g id="edge25" class="edge">
<title>T17394:f0&#45;&gt;T17418:f0</title>
<path fill="none" stroke="#c000a5" d="M363.95,-582.47C363.41,-582.31 362.87,-582.15 362.34,-582 300.72,-564.5 86.65,-595.07 64.24,-540.86"/>
<polygon fill="#c000a5" stroke="#c000a5" points="67.67,-540.16 62.34,-531 60.8,-541.48 67.67,-540.16"/>
<text text-anchor="middle" x="101.84" y="-552.8" font-family="Times,serif" font-size="14.00" fill="#c000a5">wr</text>
</g>
<!-- T17282&#45;&gt;T17414 -->
<g id="edge26" class="edge">
<title>T17282:f2&#45;&gt;T17414:f2</title>
<path fill="none" stroke="#5b00c0" d="M580.34,-453C580.34,-417.38 326.44,-325.98 289.74,-282.29"/>
<polygon fill="#5b00c0" stroke="#5b00c0" points="292.78,-280.54 285.34,-273 286.46,-283.54 292.78,-280.54"/>
<text text-anchor="middle" x="489.84" y="-375.8" font-family="Times,serif" font-size="14.00" fill="#5b00c0">rw</text>
</g>
<!-- T17418&#45;&gt;T17277 -->
<g id="edge27" class="edge">
<title>T17418:f1&#45;&gt;T17277:f0</title>
<path fill="none" stroke="#5b00c0" d="M134.34,-531C134.34,-647.11 156.38,-752.64 267.07,-758.72"/>
<polygon fill="#5b00c0" stroke="#5b00c0" points="267.25,-762.23 277.34,-759 267.44,-755.23 267.25,-762.23"/>
<text text-anchor="middle" x="154.84" y="-633.8" font-family="Times,serif" font-size="14.00" fill="#5b00c0">rw</text>
</g>
<!-- T17418&#45;&gt;T17411 -->
<g id="edge29" class="edge">
<title>T17418:f3&#45;&gt;T17411:f2</title>
<path fill="none" stroke="#5b00c0" d="M286.34,-501C286.34,-457.67 289.59,-443.31 269.34,-405 263.82,-394.56 239.99,-377.4 230.89,-363.45"/>
<polygon fill="#5b00c0" stroke="#5b00c0" points="234.13,-362.13 227.34,-354 227.58,-364.59 234.13,-362.13"/>
<text text-anchor="middle" x="291.84" y="-416.3" font-family="Times,serif" font-size="14.00" fill="#5b00c0">rw</text>
</g>
<!-- T17418&#45;&gt;T17409 -->
<g id="edge28" class="edge">
<title>T17418:f3&#45;&gt;T17409:f1</title>
<path fill="none" stroke="#5b00c0" d="M286.34,-501C286.34,-488.37 273.31,-491.89 264.34,-483 247.39,-466.2 230.03,-463.33 225.49,-445.24"/>
<polygon fill="#5b00c0" stroke="#5b00c0" points="228.93,-444.55 224.34,-435 221.97,-445.33 228.93,-444.55"/>
<text text-anchor="middle" x="273.84" y="-464.3" font-family="Times,serif" font-size="14.00" fill="#5b00c0">rw</text>
</g>
</g>
</svg>
