<?xml version="1.0" encoding="UTF-8" standalone="no"?>
<!DOCTYPE svg PUBLIC "-//W3C//DTD SVG 1.1//EN"
 "http://www.w3.org/Graphics/SVG/1.1/DTD/svg11.dtd">
<!-- Generated by graphviz version 2.43.0 (0)
 -->
<!-- Title: a_graph Pages: 1 -->
<svg width="442pt" height="281pt"
 viewBox="0.00 0.00 441.50 281.00" xmlns="http://www.w3.org/2000/svg" xmlns:xlink="http://www.w3.org/1999/xlink">
<g id="graph0" class="graph" transform="scale(1 1) rotate(0) translate(4 277)">
<title>a_graph</title>
<polygon fill="white" stroke="transparent" points="-4,4 -4,-277 437.5,-277 437.5,4 -4,4"/>
<!-- T19057 -->
<g id="node1" class="node">
<title>T19057</title>
<polygon fill="none" stroke="#0058ad" points="151,-243.5 151,-272.5 376,-272.5 376,-243.5 151,-243.5"/>
<text text-anchor="middle" x="189.5" y="-254.3" font-family="Times,serif" font-size="14.00" fill="#0058ad">r 730 nil</text>
<polyline fill="none" stroke="#0058ad" points="228,-243.5 228,-272.5 "/>
<text text-anchor="middle" x="265" y="-254.3" font-family="Times,serif" font-size="14.00" fill="#0058ad">w 730 2</text>
<polyline fill="none" stroke="#0058ad" points="302,-243.5 302,-272.5 "/>
<text text-anchor="middle" x="339" y="-254.3" font-family="Times,serif" font-size="14.00" fill="#0058ad">w 729 1</text>
</g>
<!-- T19053 -->
<g id="node3" class="node">
<title>T19053</title>
<polygon fill="none" stroke="#0058ad" points="0,-162.5 0,-191.5 311,-191.5 311,-162.5 0,-162.5"/>
<text text-anchor="middle" x="41.5" y="-173.3" font-family="Times,serif" font-size="14.00" fill="#0058ad">w 726 15</text>
<polyline fill="none" stroke="#0058ad" points="83,-162.5 83,-191.5 "/>
<text text-anchor="middle" x="121.5" y="-173.3" font-family="Times,serif" font-size="14.00" fill="#0058ad">r 730 nil</text>
<polyline fill="none" stroke="#0058ad" points="160,-162.5 160,-191.5 "/>
<text text-anchor="middle" x="198.5" y="-173.3" font-family="Times,serif" font-size="14.00" fill="#0058ad">r 722 12</text>
<polyline fill="none" stroke="#0058ad" points="237,-162.5 237,-191.5 "/>
<text text-anchor="middle" x="274" y="-173.3" font-family="Times,serif" font-size="14.00" fill="#0058ad">w 730 1</text>
</g>
<!-- T19057&#45;&gt;T19053 -->
<g id="edge1" class="edge">
<title>T19057:f0&#45;&gt;T19053:f3</title>
<path fill="none" stroke="#5b00c0" d="M189.5,-243C189.5,-224.05 200.79,-220.59 216.5,-210 235.04,-197.51 262.65,-211.87 271.59,-201.85"/>
<polygon fill="#5b00c0" stroke="#5b00c0" points="275.02,-202.58 274.5,-192 268.31,-200.6 275.02,-202.58"/>
<text text-anchor="middle" x="226" y="-213.8" font-family="Times,serif" font-size="14.00" fill="#5b00c0">rw</text>
</g>
<!-- T19066 -->
<g id="node2" class="node">
<title>T19066</title>
<polygon fill="none" stroke="#0058ad" points="279.5,-0.5 279.5,-29.5 433.5,-29.5 433.5,-0.5 279.5,-0.5"/>
<text text-anchor="middle" x="318" y="-11.3" font-family="Times,serif" font-size="14.00" fill="#0058ad">r 729 nil</text>
<polyline fill="none" stroke="#0058ad" points="356.5,-0.5 356.5,-29.5 "/>
<text text-anchor="middle" x="395" y="-11.3" font-family="Times,serif" font-size="14.00" fill="#0058ad">r 726 16</text>
</g>
<!-- T19066&#45;&gt;T19057 -->
<g id="edge2" class="edge">
<title>T19066:f0&#45;&gt;T19057:f2</title>
<path fill="none" stroke="#5b00c0" d="M317.5,-30C317.5,-121.73 337.94,-146.1 339.42,-232.96"/>
<polygon fill="#5b00c0" stroke="#5b00c0" points="335.92,-233.03 339.5,-243 342.92,-232.97 335.92,-233.03"/>
<text text-anchor="middle" x="340" y="-132.8" font-family="Times,serif" font-size="14.00" fill="#5b00c0">rw</text>
</g>
<!-- T19053&#45;&gt;T19057 -->
<g id="edge3" class="edge">
<title>T19053:f1&#45;&gt;T19057:f1</title>
<path fill="none" stroke="#5b00c0" d="M121.5,-192C121.5,-217.65 212.93,-197.82 235.5,-210 249.54,-217.57 260.41,-221.49 264.12,-233.06"/>
<polygon fill="#5b00c0" stroke="#5b00c0" points="260.66,-233.58 265.5,-243 267.59,-232.61 260.66,-233.58"/>
<text text-anchor="middle" x="269" y="-213.8" font-family="Times,serif" font-size="14.00" fill="#5b00c0">rw</text>
</g>
<!-- T19058 -->
<g id="node4" class="node">
<title>T19058</title>
<polygon fill="none" stroke="#0058ad" points="76.5,-81.5 76.5,-110.5 310.5,-110.5 310.5,-81.5 76.5,-81.5"/>
<text text-anchor="middle" x="118" y="-92.3" font-family="Times,serif" font-size="14.00" fill="#0058ad">w 726 16</text>
<polyline fill="none" stroke="#0058ad" points="159.5,-81.5 159.5,-110.5 "/>
<text text-anchor="middle" x="201" y="-92.3" font-family="Times,serif" font-size="14.00" fill="#0058ad">w 722 13</text>
<polyline fill="none" stroke="#0058ad" points="242.5,-81.5 242.5,-110.5 "/>
<text text-anchor="middle" x="276.5" y="-92.3" font-family="Times,serif" font-size="14.00" fill="#0058ad">r 730 1</text>
</g>
<!-- T19053&#45;&gt;T19058 -->
<g id="edge4" class="edge">
<title>T19053:f3&#45;&gt;T19058:f2</title>
<path fill="none" stroke="#c000a5" d="M274.5,-162C274.5,-143.21 275.87,-136.12 276.34,-121.36"/>
<polygon fill="#c000a5" stroke="#c000a5" points="279.85,-121.05 276.5,-111 272.85,-120.95 279.85,-121.05"/>
<text text-anchor="middle" x="286" y="-132.8" font-family="Times,serif" font-size="14.00" fill="#c000a5">wr</text>
</g>
<!-- T19058&#45;&gt;T19066 -->
<g id="edge5" class="edge">
<title>T19058:f0&#45;&gt;T19066:f1</title>
<path fill="none" stroke="#c000a5" d="M117.5,-81C117.5,40.94 379.45,-144.16 394.8,-40.22"/>
<polygon fill="#c000a5" stroke="#c000a5" points="398.31,-40.22 395.5,-30 391.32,-39.74 398.31,-40.22"/>
<text text-anchor="middle" x="402" y="-51.8" font-family="Times,serif" font-size="14.00" fill="#c000a5">wr</text>
</g>
</g>
</svg>
