<?xml version="1.0" encoding="UTF-8" standalone="no"?>
<!DOCTYPE svg PUBLIC "-//W3C//DTD SVG 1.1//EN"
 "http://www.w3.org/Graphics/SVG/1.1/DTD/svg11.dtd">
<!-- Generated by graphviz version 2.43.0 (0)
 -->
<!-- Title: a_graph Pages: 1 -->
<svg width="466pt" height="281pt"
 viewBox="0.00 0.00 466.00 281.00" xmlns="http://www.w3.org/2000/svg" xmlns:xlink="http://www.w3.org/1999/xlink">
<g id="graph0" class="graph" transform="scale(1 1) rotate(0) translate(4 277)">
<title>a_graph</title>
<polygon fill="white" stroke="transparent" points="-4,4 -4,-277 462,-277 462,4 -4,4"/>
<!-- T14026 -->
<g id="node1" class="node">
<title>T14026</title>
<polygon fill="none" stroke="#0058ad" points="0,-243.5 0,-272.5 305,-272.5 305,-243.5 0,-243.5"/>
<text text-anchor="middle" x="38.5" y="-254.3" font-family="Times,serif" font-size="14.00" fill="#0058ad">r 539 16</text>
<polyline fill="none" stroke="#0058ad" points="77,-243.5 77,-272.5 "/>
<text text-anchor="middle" x="115.5" y="-254.3" font-family="Times,serif" font-size="14.00" fill="#0058ad">r 541 nil</text>
<polyline fill="none" stroke="#0058ad" points="154,-243.5 154,-272.5 "/>
<text text-anchor="middle" x="192.5" y="-254.3" font-family="Times,serif" font-size="14.00" fill="#0058ad">r 541 nil</text>
<polyline fill="none" stroke="#0058ad" points="231,-243.5 231,-272.5 "/>
<text text-anchor="middle" x="268" y="-254.3" font-family="Times,serif" font-size="14.00" fill="#0058ad">w 541 1</text>
</g>
<!-- T14032 -->
<g id="node4" class="node">
<title>T14032</title>
<polygon fill="none" stroke="#0058ad" points="157.5,-162.5 157.5,-191.5 379.5,-191.5 379.5,-162.5 157.5,-162.5"/>
<text text-anchor="middle" x="196" y="-173.3" font-family="Times,serif" font-size="14.00" fill="#0058ad">r 540 nil</text>
<polyline fill="none" stroke="#0058ad" points="234.5,-162.5 234.5,-191.5 "/>
<text text-anchor="middle" x="268.5" y="-173.3" font-family="Times,serif" font-size="14.00" fill="#0058ad">r 541 1</text>
<polyline fill="none" stroke="#0058ad" points="302.5,-162.5 302.5,-191.5 "/>
<text text-anchor="middle" x="341" y="-173.3" font-family="Times,serif" font-size="14.00" fill="#0058ad">r 540 nil</text>
</g>
<!-- T14026&#45;&gt;T14032 -->
<g id="edge1" class="edge">
<title>T14026:f3&#45;&gt;T14032:f1</title>
<path fill="none" stroke="#c000a5" d="M268.5,-243C268.5,-224.23 268.5,-217.12 268.5,-202.35"/>
<polygon fill="#c000a5" stroke="#c000a5" points="272,-202 268.5,-192 265,-202 272,-202"/>
<text text-anchor="middle" x="278" y="-213.8" font-family="Times,serif" font-size="14.00" fill="#c000a5">wr</text>
</g>
<!-- T14039 -->
<g id="node2" class="node">
<title>T14039</title>
<polygon fill="none" stroke="#0058ad" points="91,-0.5 91,-29.5 390,-29.5 390,-0.5 91,-0.5"/>
<text text-anchor="middle" x="129.5" y="-11.3" font-family="Times,serif" font-size="14.00" fill="#0058ad">r 541 nil</text>
<polyline fill="none" stroke="#0058ad" points="168,-0.5 168,-29.5 "/>
<text text-anchor="middle" x="202" y="-11.3" font-family="Times,serif" font-size="14.00" fill="#0058ad">r 540 3</text>
<polyline fill="none" stroke="#0058ad" points="236,-0.5 236,-29.5 "/>
<text text-anchor="middle" x="274.5" y="-11.3" font-family="Times,serif" font-size="14.00" fill="#0058ad">r 541 nil</text>
<polyline fill="none" stroke="#0058ad" points="313,-0.5 313,-29.5 "/>
<text text-anchor="middle" x="351.5" y="-11.3" font-family="Times,serif" font-size="14.00" fill="#0058ad">r 543 nil</text>
</g>
<!-- T14039&#45;&gt;T14026 -->
<g id="edge2" class="edge">
<title>T14039:f0&#45;&gt;T14026:f3</title>
<path fill="none" stroke="#5b00c0" d="M129.5,-30C129.5,-102.49 105.04,-133.98 148.5,-192 180.93,-235.3 257.4,-191.69 267.41,-232.87"/>
<polygon fill="#5b00c0" stroke="#5b00c0" points="263.95,-233.43 268.5,-243 270.91,-232.68 263.95,-233.43"/>
<text text-anchor="middle" x="135" y="-132.8" font-family="Times,serif" font-size="14.00" fill="#5b00c0">rw</text>
</g>
<!-- T14031 -->
<g id="node3" class="node">
<title>T14031</title>
<polygon fill="none" stroke="#0058ad" points="165,-81.5 165,-110.5 458,-110.5 458,-81.5 165,-81.5"/>
<text text-anchor="middle" x="202" y="-92.3" font-family="Times,serif" font-size="14.00" fill="#0058ad">w 540 3</text>
<polyline fill="none" stroke="#0058ad" points="239,-81.5 239,-110.5 "/>
<text text-anchor="middle" x="277.5" y="-92.3" font-family="Times,serif" font-size="14.00" fill="#0058ad">r 541 nil</text>
<polyline fill="none" stroke="#0058ad" points="316,-81.5 316,-110.5 "/>
<text text-anchor="middle" x="350" y="-92.3" font-family="Times,serif" font-size="14.00" fill="#0058ad">r 540 3</text>
<polyline fill="none" stroke="#0058ad" points="384,-81.5 384,-110.5 "/>
<text text-anchor="middle" x="421" y="-92.3" font-family="Times,serif" font-size="14.00" fill="#0058ad">w 542 1</text>
</g>
<!-- T14031&#45;&gt;T14026 -->
<g id="edge3" class="edge">
<title>T14031:f1&#45;&gt;T14026:f3</title>
<path fill="none" stroke="#5b00c0" d="M277.5,-111C277.5,-165.29 359.2,-116.29 388.5,-162 416.95,-206.38 369.1,-252.1 316.67,-257.47"/>
<polygon fill="#5b00c0" stroke="#5b00c0" points="316.31,-253.99 306.5,-258 316.67,-260.98 316.31,-253.99"/>
<text text-anchor="middle" x="406" y="-173.3" font-family="Times,serif" font-size="14.00" fill="#5b00c0">rw</text>
</g>
<!-- T14031&#45;&gt;T14039 -->
<g id="edge4" class="edge">
<title>T14031:f0&#45;&gt;T14039:f1</title>
<path fill="none" stroke="#c000a5" d="M201.5,-81C201.5,-62.23 201.5,-55.12 201.5,-40.35"/>
<polygon fill="#c000a5" stroke="#c000a5" points="205,-40 201.5,-30 198,-40 205,-40"/>
<text text-anchor="middle" x="212" y="-51.8" font-family="Times,serif" font-size="14.00" fill="#c000a5">wr</text>
</g>
<!-- T14032&#45;&gt;T14031 -->
<g id="edge5" class="edge">
<title>T14032:f0&#45;&gt;T14031:f0</title>
<path fill="none" stroke="#5b00c0" d="M195.5,-162C195.5,-143.1 199.61,-136.18 201.03,-121.4"/>
<polygon fill="#5b00c0" stroke="#5b00c0" points="204.54,-121.15 201.5,-111 197.55,-120.83 204.54,-121.15"/>
<text text-anchor="middle" x="210" y="-132.8" font-family="Times,serif" font-size="14.00" fill="#5b00c0">rw</text>
</g>
</g>
</svg>
