<?xml version="1.0" encoding="UTF-8" standalone="no"?>
<!DOCTYPE svg PUBLIC "-//W3C//DTD SVG 1.1//EN"
 "http://www.w3.org/Graphics/SVG/1.1/DTD/svg11.dtd">
<!-- Generated by graphviz version 2.43.0 (0)
 -->
<!-- Title: a_graph Pages: 1 -->
<svg width="360pt" height="119pt"
 viewBox="0.00 0.00 360.00 119.00" xmlns="http://www.w3.org/2000/svg" xmlns:xlink="http://www.w3.org/1999/xlink">
<g id="graph0" class="graph" transform="scale(1 1) rotate(0) translate(4 115)">
<title>a_graph</title>
<polygon fill="white" stroke="transparent" points="-4,4 -4,-115 356,-115 356,4 -4,4"/>
<!-- T26765 -->
<g id="node1" class="node">
<title>T26765</title>
<polygon fill="none" stroke="#0058ad" points="106,-81.5 106,-110.5 352,-110.5 352,-81.5 106,-81.5"/>
<text text-anchor="middle" x="149" y="-92.3" font-family="Times,serif" font-size="14.00" fill="#0058ad">r 1024 nil</text>
<polyline fill="none" stroke="#0058ad" points="192,-81.5 192,-110.5 "/>
<text text-anchor="middle" x="230.5" y="-92.3" font-family="Times,serif" font-size="14.00" fill="#0058ad">r 1023 3</text>
<polyline fill="none" stroke="#0058ad" points="269,-81.5 269,-110.5 "/>
<text text-anchor="middle" x="310.5" y="-92.3" font-family="Times,serif" font-size="14.00" fill="#0058ad">w 1024 1</text>
</g>
<!-- T26767 -->
<g id="node2" class="node">
<title>T26767</title>
<polygon fill="none" stroke="#0058ad" points="0,-0.5 0,-29.5 344,-29.5 344,-0.5 0,-0.5"/>
<text text-anchor="middle" x="46" y="-11.3" font-family="Times,serif" font-size="14.00" fill="#0058ad">w 1020 12</text>
<polyline fill="none" stroke="#0058ad" points="92,-0.5 92,-29.5 "/>
<text text-anchor="middle" x="133.5" y="-11.3" font-family="Times,serif" font-size="14.00" fill="#0058ad">w 1023 5</text>
<polyline fill="none" stroke="#0058ad" points="175,-0.5 175,-29.5 "/>
<text text-anchor="middle" x="218" y="-11.3" font-family="Times,serif" font-size="14.00" fill="#0058ad">r 1024 nil</text>
<polyline fill="none" stroke="#0058ad" points="261,-0.5 261,-29.5 "/>
<text text-anchor="middle" x="302.5" y="-11.3" font-family="Times,serif" font-size="14.00" fill="#0058ad">w 1024 2</text>
</g>
<!-- T26765&#45;&gt;T26767 -->
<g id="edge1" class="edge">
<title>T26765:f0&#45;&gt;T26767:f3</title>
<path fill="none" stroke="#5b00c0" d="M149,-81C149,-37.98 199.07,-61.25 240,-48 263.59,-40.36 292.69,-53.8 300.81,-39.97"/>
<polygon fill="#5b00c0" stroke="#5b00c0" points="304.27,-40.52 303,-30 297.43,-39.01 304.27,-40.52"/>
<text text-anchor="middle" x="249.5" y="-51.8" font-family="Times,serif" font-size="14.00" fill="#5b00c0">rw</text>
</g>
<!-- T26767&#45;&gt;T26765 -->
<g id="edge2" class="edge">
<title>T26767:f2&#45;&gt;T26765:f2</title>
<path fill="none" stroke="#5b00c0" d="M218,-30C218,-49.9 241.44,-38.64 259,-48 279.57,-58.96 302.82,-55.34 309.26,-70.92"/>
<polygon fill="#5b00c0" stroke="#5b00c0" points="305.85,-71.74 311,-81 312.75,-70.55 305.85,-71.74"/>
<text text-anchor="middle" x="311.5" y="-51.8" font-family="Times,serif" font-size="14.00" fill="#5b00c0">rw</text>
</g>
</g>
</svg>
