<?xml version="1.0" encoding="UTF-8" standalone="no"?>
<!DOCTYPE svg PUBLIC "-//W3C//DTD SVG 1.1//EN"
 "http://www.w3.org/Graphics/SVG/1.1/DTD/svg11.dtd">
<!-- Generated by graphviz version 2.43.0 (0)
 -->
<!-- Title: a_graph Pages: 1 -->
<svg width="404pt" height="281pt"
 viewBox="0.00 0.00 404.00 281.00" xmlns="http://www.w3.org/2000/svg" xmlns:xlink="http://www.w3.org/1999/xlink">
<g id="graph0" class="graph" transform="scale(1 1) rotate(0) translate(4 277)">
<title>a_graph</title>
<polygon fill="white" stroke="transparent" points="-4,4 -4,-277 400,-277 400,4 -4,4"/>
<!-- T13086 -->
<g id="node1" class="node">
<title>T13086</title>
<polygon fill="none" stroke="#0058ad" points="0,-243.5 0,-272.5 296,-272.5 296,-243.5 0,-243.5"/>
<text text-anchor="middle" x="34" y="-254.3" font-family="Times,serif" font-size="14.00" fill="#0058ad">r 503 7</text>
<polyline fill="none" stroke="#0058ad" points="68,-243.5 68,-272.5 "/>
<text text-anchor="middle" x="102" y="-254.3" font-family="Times,serif" font-size="14.00" fill="#0058ad">r 502 1</text>
<polyline fill="none" stroke="#0058ad" points="136,-243.5 136,-272.5 "/>
<text text-anchor="middle" x="174.5" y="-254.3" font-family="Times,serif" font-size="14.00" fill="#0058ad">r 504 nil</text>
<polyline fill="none" stroke="#0058ad" points="213,-243.5 213,-272.5 "/>
<text text-anchor="middle" x="254.5" y="-254.3" font-family="Times,serif" font-size="14.00" fill="#0058ad">w 503 10</text>
</g>
<!-- T13068 -->
<g id="node3" class="node">
<title>T13068</title>
<polygon fill="none" stroke="#0058ad" points="63,-162.5 63,-191.5 279,-191.5 279,-162.5 63,-162.5"/>
<text text-anchor="middle" x="101.5" y="-173.3" font-family="Times,serif" font-size="14.00" fill="#0058ad">r 502 nil</text>
<polyline fill="none" stroke="#0058ad" points="140,-162.5 140,-191.5 "/>
<text text-anchor="middle" x="172.5" y="-173.3" font-family="Times,serif" font-size="14.00" fill="#0058ad">w 1 15</text>
<polyline fill="none" stroke="#0058ad" points="205,-162.5 205,-191.5 "/>
<text text-anchor="middle" x="242" y="-173.3" font-family="Times,serif" font-size="14.00" fill="#0058ad">w 504 1</text>
</g>
<!-- T13086&#45;&gt;T13068 -->
<g id="edge1" class="edge">
<title>T13086:f2&#45;&gt;T13068:f2</title>
<path fill="none" stroke="#5b00c0" d="M175,-243C175,-209.52 228.61,-225.07 239.92,-201.94"/>
<polygon fill="#5b00c0" stroke="#5b00c0" points="243.38,-202.5 242,-192 236.53,-201.07 243.38,-202.5"/>
<text text-anchor="middle" x="241.5" y="-213.8" font-family="Times,serif" font-size="14.00" fill="#5b00c0">rw</text>
</g>
<!-- T13071 -->
<g id="node2" class="node">
<title>T13071</title>
<polygon fill="none" stroke="#0058ad" points="88,-0.5 88,-29.5 396,-29.5 396,-0.5 88,-0.5"/>
<text text-anchor="middle" x="125" y="-11.3" font-family="Times,serif" font-size="14.00" fill="#0058ad">w 502 1</text>
<polyline fill="none" stroke="#0058ad" points="162,-0.5 162,-29.5 "/>
<text text-anchor="middle" x="200.5" y="-11.3" font-family="Times,serif" font-size="14.00" fill="#0058ad">r 504 nil</text>
<polyline fill="none" stroke="#0058ad" points="239,-0.5 239,-29.5 "/>
<text text-anchor="middle" x="280.5" y="-11.3" font-family="Times,serif" font-size="14.00" fill="#0058ad">w 481 11</text>
<polyline fill="none" stroke="#0058ad" points="322,-0.5 322,-29.5 "/>
<text text-anchor="middle" x="359" y="-11.3" font-family="Times,serif" font-size="14.00" fill="#0058ad">w 503 3</text>
</g>
<!-- T13071&#45;&gt;T13086 -->
<g id="edge2" class="edge">
<title>T13071:f0&#45;&gt;T13086:f1</title>
<path fill="none" stroke="#c000a5" d="M87,-15C6.98,-15 24.5,-117.61 54,-192 64.04,-217.32 93.26,-213.54 100.41,-233.06"/>
<polygon fill="#c000a5" stroke="#c000a5" points="96.96,-233.68 102,-243 103.87,-232.57 96.96,-233.68"/>
<text text-anchor="middle" x="47.5" y="-132.8" font-family="Times,serif" font-size="14.00" fill="#c000a5">wr</text>
</g>
<!-- T13071&#45;&gt;T13068 -->
<g id="edge3" class="edge">
<title>T13071:f1&#45;&gt;T13068:f2</title>
<path fill="none" stroke="#5b00c0" d="M200,-30C200,-98.73 306.21,-24.95 346,-81 373.98,-120.42 337.32,-169.91 290.2,-176.31"/>
<polygon fill="#5b00c0" stroke="#5b00c0" points="289.74,-172.83 280,-177 290.21,-179.81 289.74,-172.83"/>
<text text-anchor="middle" x="364.5" y="-92.3" font-family="Times,serif" font-size="14.00" fill="#5b00c0">rw</text>
</g>
<!-- T13068&#45;&gt;T13071 -->
<g id="edge4" class="edge">
<title>T13068:f0&#45;&gt;T13071:f0</title>
<path fill="none" stroke="#5b00c0" d="M101,-162C101,-100.22 30.43,-24.48 76.91,-15.82"/>
<polygon fill="#5b00c0" stroke="#5b00c0" points="77.32,-19.3 87,-15 76.75,-12.32 77.32,-19.3"/>
<text text-anchor="middle" x="99.5" y="-92.3" font-family="Times,serif" font-size="14.00" fill="#5b00c0">rw</text>
</g>
<!-- T13073 -->
<g id="node4" class="node">
<title>T13073</title>
<polygon fill="none" stroke="#0058ad" points="124.5,-81.5 124.5,-110.5 337.5,-110.5 337.5,-81.5 124.5,-81.5"/>
<text text-anchor="middle" x="163" y="-92.3" font-family="Times,serif" font-size="14.00" fill="#0058ad">r 502 nil</text>
<polyline fill="none" stroke="#0058ad" points="201.5,-81.5 201.5,-110.5 "/>
<text text-anchor="middle" x="235.5" y="-92.3" font-family="Times,serif" font-size="14.00" fill="#0058ad">r 504 1</text>
<polyline fill="none" stroke="#0058ad" points="269.5,-81.5 269.5,-110.5 "/>
<text text-anchor="middle" x="303.5" y="-92.3" font-family="Times,serif" font-size="14.00" fill="#0058ad">r 503 1</text>
</g>
<!-- T13068&#45;&gt;T13073 -->
<g id="edge5" class="edge">
<title>T13068:f2&#45;&gt;T13073:f1</title>
<path fill="none" stroke="#c000a5" d="M242,-162C242,-143.1 237.89,-136.18 236.47,-121.4"/>
<polygon fill="#c000a5" stroke="#c000a5" points="239.95,-120.83 236,-111 232.96,-121.15 239.95,-120.83"/>
<text text-anchor="middle" x="249.5" y="-132.8" font-family="Times,serif" font-size="14.00" fill="#c000a5">wr</text>
</g>
<!-- T13073&#45;&gt;T13071 -->
<g id="edge6" class="edge">
<title>T13073:f0&#45;&gt;T13071:f0</title>
<path fill="none" stroke="#5b00c0" d="M163,-81C163,-56.71 134.94,-57.38 127.04,-40.11"/>
<polygon fill="#5b00c0" stroke="#5b00c0" points="130.41,-39.11 125,-30 123.55,-40.5 130.41,-39.11"/>
<text text-anchor="middle" x="164.5" y="-51.8" font-family="Times,serif" font-size="14.00" fill="#5b00c0">rw</text>
</g>
</g>
</svg>
