<?xml version="1.0" encoding="UTF-8" standalone="no"?>
<!DOCTYPE svg PUBLIC "-//W3C//DTD SVG 1.1//EN"
 "http://www.w3.org/Graphics/SVG/1.1/DTD/svg11.dtd">
<!-- Generated by graphviz version 2.43.0 (0)
 -->
<!-- Title: a_graph Pages: 1 -->
<svg width="1355pt" height="1091pt"
 viewBox="0.00 0.00 1355.36 1091.00" xmlns="http://www.w3.org/2000/svg" xmlns:xlink="http://www.w3.org/1999/xlink">
<g id="graph0" class="graph" transform="scale(1 1) rotate(0) translate(4 1087)">
<title>a_graph</title>
<polygon fill="white" stroke="transparent" points="-4,4 -4,-1087 1351.36,-1087 1351.36,4 -4,4"/>
<!-- T12333 -->
<g id="node1" class="node">
<title>T12333</title>
<polygon fill="none" stroke="#0058ad" points="849.36,-1053.5 849.36,-1082.5 1077.36,-1082.5 1077.36,-1053.5 849.36,-1053.5"/>
<text text-anchor="middle" x="886.36" y="-1064.3" font-family="Times,serif" font-size="14.00" fill="#0058ad">w 460 3</text>
<polyline fill="none" stroke="#0058ad" points="923.36,-1053.5 923.36,-1082.5 "/>
<text text-anchor="middle" x="961.86" y="-1064.3" font-family="Times,serif" font-size="14.00" fill="#0058ad">r 475 nil</text>
<polyline fill="none" stroke="#0058ad" points="1000.36,-1053.5 1000.36,-1082.5 "/>
<text text-anchor="middle" x="1038.86" y="-1064.3" font-family="Times,serif" font-size="14.00" fill="#0058ad">r 471 11</text>
</g>
<!-- T12347 -->
<g id="node2" class="node">
<title>T12347</title>
<polygon fill="none" stroke="#0058ad" points="935.36,-972.5 935.36,-1001.5 1157.36,-1001.5 1157.36,-972.5 935.36,-972.5"/>
<text text-anchor="middle" x="972.36" y="-983.3" font-family="Times,serif" font-size="14.00" fill="#0058ad">w 472 6</text>
<polyline fill="none" stroke="#0058ad" points="1009.36,-972.5 1009.36,-1001.5 "/>
<text text-anchor="middle" x="1046.36" y="-983.3" font-family="Times,serif" font-size="14.00" fill="#0058ad">w 475 3</text>
<polyline fill="none" stroke="#0058ad" points="1083.36,-972.5 1083.36,-1001.5 "/>
<text text-anchor="middle" x="1120.36" y="-983.3" font-family="Times,serif" font-size="14.00" fill="#0058ad">w 476 4</text>
</g>
<!-- T12333&#45;&gt;T12347 -->
<g id="edge1" class="edge">
<title>T12333:f1&#45;&gt;T12347:f1</title>
<path fill="none" stroke="#5b00c0" d="M961.36,-1053C961.36,-1012.9 1031.78,-1040.04 1044.43,-1012.03"/>
<polygon fill="#5b00c0" stroke="#5b00c0" points="1047.91,-1012.48 1046.36,-1002 1041.03,-1011.16 1047.91,-1012.48"/>
<text text-anchor="middle" x="1044.86" y="-1023.8" font-family="Times,serif" font-size="14.00" fill="#5b00c0">rw</text>
</g>
<!-- T12369 -->
<g id="node6" class="node">
<title>T12369</title>
<polygon fill="none" stroke="#0058ad" points="594.86,-810.5 594.86,-839.5 887.86,-839.5 887.86,-810.5 594.86,-810.5"/>
<text text-anchor="middle" x="631.86" y="-821.3" font-family="Times,serif" font-size="14.00" fill="#0058ad">w 476 8</text>
<polyline fill="none" stroke="#0058ad" points="668.86,-810.5 668.86,-839.5 "/>
<text text-anchor="middle" x="702.86" y="-821.3" font-family="Times,serif" font-size="14.00" fill="#0058ad">r 472 7</text>
<polyline fill="none" stroke="#0058ad" points="736.86,-810.5 736.86,-839.5 "/>
<text text-anchor="middle" x="770.86" y="-821.3" font-family="Times,serif" font-size="14.00" fill="#0058ad">r 472 7</text>
<polyline fill="none" stroke="#0058ad" points="804.86,-810.5 804.86,-839.5 "/>
<text text-anchor="middle" x="846.36" y="-821.3" font-family="Times,serif" font-size="14.00" fill="#0058ad">w 475 12</text>
</g>
<!-- T12333&#45;&gt;T12369 -->
<g id="edge2" class="edge">
<title>T12333:f1&#45;&gt;T12369:f3</title>
<path fill="none" stroke="#5b00c0" d="M961.36,-1053C961.36,-1017.39 860.32,-979.4 835.36,-954 822.47,-940.87 817.12,-938.11 810.36,-921 800.05,-894.87 790.01,-881.52 805.36,-858 813.53,-845.5 832.51,-852.82 841.49,-848.87"/>
<polygon fill="#5b00c0" stroke="#5b00c0" points="844.61,-850.45 846.36,-840 838.48,-847.08 844.61,-850.45"/>
<text text-anchor="middle" x="844.86" y="-942.8" font-family="Times,serif" font-size="14.00" fill="#5b00c0">rw</text>
</g>
<!-- T12354 -->
<g id="node15" class="node">
<title>T12354</title>
<polygon fill="none" stroke="#0058ad" points="730.86,-0.5 730.86,-29.5 1029.86,-29.5 1029.86,-0.5 730.86,-0.5"/>
<text text-anchor="middle" x="769.36" y="-11.3" font-family="Times,serif" font-size="14.00" fill="#0058ad">r 475 nil</text>
<polyline fill="none" stroke="#0058ad" points="807.86,-0.5 807.86,-29.5 "/>
<text text-anchor="middle" x="844.86" y="-11.3" font-family="Times,serif" font-size="14.00" fill="#0058ad">w 475 4</text>
<polyline fill="none" stroke="#0058ad" points="881.86,-0.5 881.86,-29.5 "/>
<text text-anchor="middle" x="918.86" y="-11.3" font-family="Times,serif" font-size="14.00" fill="#0058ad">w 476 6</text>
<polyline fill="none" stroke="#0058ad" points="955.86,-0.5 955.86,-29.5 "/>
<text text-anchor="middle" x="992.86" y="-11.3" font-family="Times,serif" font-size="14.00" fill="#0058ad">w 475 5</text>
</g>
<!-- T12333&#45;&gt;T12354 -->
<g id="edge3" class="edge">
<title>T12333:f1&#45;&gt;T12354:f3</title>
<path fill="none" stroke="#5b00c0" d="M961.36,-1053C961.36,-1050.41 1328.36,-990.59 1328.36,-988 1328.36,-988 1328.36,-988 1328.36,-95 1328.36,-29.72 1119.8,-16.16 1041.51,-15.07"/>
<polygon fill="#5b00c0" stroke="#5b00c0" points="1041.39,-11.57 1031.36,-15 1041.34,-18.57 1041.39,-11.57"/>
<text text-anchor="middle" x="1337.86" y="-537.8" font-family="Times,serif" font-size="14.00" fill="#5b00c0">rw</text>
</g>
<!-- T12348 -->
<g id="node7" class="node">
<title>T12348</title>
<polygon fill="none" stroke="#0058ad" points="819.36,-891.5 819.36,-920.5 1103.36,-920.5 1103.36,-891.5 819.36,-891.5"/>
<text text-anchor="middle" x="853.36" y="-902.3" font-family="Times,serif" font-size="14.00" fill="#0058ad">r 475 3</text>
<polyline fill="none" stroke="#0058ad" points="887.36,-891.5 887.36,-920.5 "/>
<text text-anchor="middle" x="924.36" y="-902.3" font-family="Times,serif" font-size="14.00" fill="#0058ad">w 472 7</text>
<polyline fill="none" stroke="#0058ad" points="961.36,-891.5 961.36,-920.5 "/>
<text text-anchor="middle" x="995.36" y="-902.3" font-family="Times,serif" font-size="14.00" fill="#0058ad">r 476 4</text>
<polyline fill="none" stroke="#0058ad" points="1029.36,-891.5 1029.36,-920.5 "/>
<text text-anchor="middle" x="1066.36" y="-902.3" font-family="Times,serif" font-size="14.00" fill="#0058ad">w 476 5</text>
</g>
<!-- T12347&#45;&gt;T12348 -->
<g id="edge4" class="edge">
<title>T12347:f1&#45;&gt;T12348:f0</title>
<path fill="none" stroke="#c000a5" d="M1046.36,-972C1046.36,-887.09 869.59,-999.25 854.4,-931.28"/>
<polygon fill="#c000a5" stroke="#c000a5" points="857.85,-930.6 853.36,-921 850.89,-931.3 857.85,-930.6"/>
<text text-anchor="middle" x="1049.86" y="-942.8" font-family="Times,serif" font-size="14.00" fill="#c000a5">wr</text>
</g>
<!-- T12464 -->
<g id="node3" class="node">
<title>T12464</title>
<polygon fill="none" stroke="#0058ad" points="279.86,-81.5 279.86,-110.5 578.86,-110.5 578.86,-81.5 279.86,-81.5"/>
<text text-anchor="middle" x="316.86" y="-92.3" font-family="Times,serif" font-size="14.00" fill="#0058ad">w 479 6</text>
<polyline fill="none" stroke="#0058ad" points="353.86,-81.5 353.86,-110.5 "/>
<text text-anchor="middle" x="392.36" y="-92.3" font-family="Times,serif" font-size="14.00" fill="#0058ad">r 480 nil</text>
<polyline fill="none" stroke="#0058ad" points="430.86,-81.5 430.86,-110.5 "/>
<text text-anchor="middle" x="467.86" y="-92.3" font-family="Times,serif" font-size="14.00" fill="#0058ad">w 460 6</text>
<polyline fill="none" stroke="#0058ad" points="504.86,-81.5 504.86,-110.5 "/>
<text text-anchor="middle" x="541.86" y="-92.3" font-family="Times,serif" font-size="14.00" fill="#0058ad">w 479 7</text>
</g>
<!-- T12570 -->
<g id="node5" class="node">
<title>T12570</title>
<polygon fill="none" stroke="#0058ad" points="361.86,-243.5 361.86,-272.5 518.86,-272.5 518.86,-243.5 361.86,-243.5"/>
<text text-anchor="middle" x="403.36" y="-254.3" font-family="Times,serif" font-size="14.00" fill="#0058ad">w 480 15</text>
<polyline fill="none" stroke="#0058ad" points="444.86,-243.5 444.86,-272.5 "/>
<text text-anchor="middle" x="481.86" y="-254.3" font-family="Times,serif" font-size="14.00" fill="#0058ad">w 484 7</text>
</g>
<!-- T12464&#45;&gt;T12570 -->
<g id="edge7" class="edge">
<title>T12464:f1&#45;&gt;T12570:f0</title>
<path fill="none" stroke="#5b00c0" d="M392.36,-111C392.36,-166.31 402.07,-182.24 403.25,-232.78"/>
<polygon fill="#5b00c0" stroke="#5b00c0" points="399.75,-233.04 403.36,-243 406.75,-232.96 399.75,-233.04"/>
<text text-anchor="middle" x="409.86" y="-173.3" font-family="Times,serif" font-size="14.00" fill="#5b00c0">rw</text>
</g>
<!-- T12574 -->
<g id="node8" class="node">
<title>T12574</title>
<polygon fill="none" stroke="#0058ad" points="429.36,-162.5 429.36,-191.5 731.36,-191.5 731.36,-162.5 429.36,-162.5"/>
<text text-anchor="middle" x="467.86" y="-173.3" font-family="Times,serif" font-size="14.00" fill="#0058ad">r 460 nil</text>
<polyline fill="none" stroke="#0058ad" points="506.36,-162.5 506.36,-191.5 "/>
<text text-anchor="middle" x="547.86" y="-173.3" font-family="Times,serif" font-size="14.00" fill="#0058ad">w 480 16</text>
<polyline fill="none" stroke="#0058ad" points="589.36,-162.5 589.36,-191.5 "/>
<text text-anchor="middle" x="623.36" y="-173.3" font-family="Times,serif" font-size="14.00" fill="#0058ad">r 484 7</text>
<polyline fill="none" stroke="#0058ad" points="657.36,-162.5 657.36,-191.5 "/>
<text text-anchor="middle" x="694.36" y="-173.3" font-family="Times,serif" font-size="14.00" fill="#0058ad">w 484 9</text>
</g>
<!-- T12464&#45;&gt;T12574 -->
<g id="edge5" class="edge">
<title>T12464:f1&#45;&gt;T12574:f1</title>
<path fill="none" stroke="#5b00c0" d="M392.36,-111C392.36,-133.14 469.59,-121.34 490.36,-129 514.18,-137.78 539.56,-134.14 545.88,-152.1"/>
<polygon fill="#5b00c0" stroke="#5b00c0" points="542.42,-152.63 547.36,-162 549.34,-151.59 542.42,-152.63"/>
<text text-anchor="middle" x="549.86" y="-132.8" font-family="Times,serif" font-size="14.00" fill="#5b00c0">rw</text>
</g>
<!-- T12553 -->
<g id="node10" class="node">
<title>T12553</title>
<polygon fill="none" stroke="#0058ad" points="268.36,-405.5 268.36,-434.5 588.36,-434.5 588.36,-405.5 268.36,-405.5"/>
<text text-anchor="middle" x="309.86" y="-416.3" font-family="Times,serif" font-size="14.00" fill="#0058ad">w 474 12</text>
<polyline fill="none" stroke="#0058ad" points="351.36,-405.5 351.36,-434.5 "/>
<text text-anchor="middle" x="389.86" y="-416.3" font-family="Times,serif" font-size="14.00" fill="#0058ad">r 482 12</text>
<polyline fill="none" stroke="#0058ad" points="428.36,-405.5 428.36,-434.5 "/>
<text text-anchor="middle" x="466.86" y="-416.3" font-family="Times,serif" font-size="14.00" fill="#0058ad">r 482 12</text>
<polyline fill="none" stroke="#0058ad" points="505.36,-405.5 505.36,-434.5 "/>
<text text-anchor="middle" x="546.86" y="-416.3" font-family="Times,serif" font-size="14.00" fill="#0058ad">w 480 12</text>
</g>
<!-- T12464&#45;&gt;T12553 -->
<g id="edge6" class="edge">
<title>T12464:f1&#45;&gt;T12553:f3</title>
<path fill="none" stroke="#5b00c0" d="M392.36,-111C392.36,-152.81 324.36,-134.19 324.36,-176 324.36,-340 324.36,-340 324.36,-340 324.36,-439.61 531.96,-311.41 546.56,-395"/>
<polygon fill="#5b00c0" stroke="#5b00c0" points="543.07,-395.31 547.36,-405 550.05,-394.75 543.07,-395.31"/>
<text text-anchor="middle" x="333.86" y="-254.3" font-family="Times,serif" font-size="14.00" fill="#5b00c0">rw</text>
</g>
<!-- T12337 -->
<g id="node4" class="node">
<title>T12337</title>
<polygon fill="none" stroke="#0058ad" points="874.36,-648.5 874.36,-677.5 1182.36,-677.5 1182.36,-648.5 874.36,-648.5"/>
<text text-anchor="middle" x="911.36" y="-659.3" font-family="Times,serif" font-size="14.00" fill="#0058ad">w 472 5</text>
<polyline fill="none" stroke="#0058ad" points="948.36,-648.5 948.36,-677.5 "/>
<text text-anchor="middle" x="986.86" y="-659.3" font-family="Times,serif" font-size="14.00" fill="#0058ad">r 475 nil</text>
<polyline fill="none" stroke="#0058ad" points="1025.36,-648.5 1025.36,-677.5 "/>
<text text-anchor="middle" x="1066.86" y="-659.3" font-family="Times,serif" font-size="14.00" fill="#0058ad">w 452 14</text>
<polyline fill="none" stroke="#0058ad" points="1108.36,-648.5 1108.36,-677.5 "/>
<text text-anchor="middle" x="1145.36" y="-659.3" font-family="Times,serif" font-size="14.00" fill="#0058ad">w 474 1</text>
</g>
<!-- T12337&#45;&gt;T12347 -->
<g id="edge10" class="edge">
<title>T12337:f1&#45;&gt;T12347:f1</title>
<path fill="none" stroke="#5b00c0" d="M986.36,-678C986.36,-706.06 1089.12,-678.89 1111.36,-696 1129.36,-709.84 1131.36,-720.3 1131.36,-743 1131.36,-907 1131.36,-907 1131.36,-907 1131.36,-916.94 1071.97,-947.37 1052.48,-964.04"/>
<polygon fill="#5b00c0" stroke="#5b00c0" points="1049.68,-961.94 1046.36,-972 1055.23,-966.2 1049.68,-961.94"/>
<text text-anchor="middle" x="1140.86" y="-821.3" font-family="Times,serif" font-size="14.00" fill="#5b00c0">rw</text>
</g>
<!-- T12337&#45;&gt;T12369 -->
<g id="edge8" class="edge">
<title>T12337:f1&#45;&gt;T12369:f3</title>
<path fill="none" stroke="#5b00c0" d="M986.36,-678C986.36,-752.76 969.28,-818.81 899.56,-824.59"/>
<polygon fill="#5b00c0" stroke="#5b00c0" points="899.22,-821.1 889.36,-825 899.5,-828.09 899.22,-821.1"/>
<text text-anchor="middle" x="991.86" y="-740.3" font-family="Times,serif" font-size="14.00" fill="#5b00c0">rw</text>
</g>
<!-- T12337&#45;&gt;T12354 -->
<g id="edge9" class="edge">
<title>T12337:f1&#45;&gt;T12354:f3</title>
<path fill="none" stroke="#5b00c0" d="M986.36,-648C986.36,-613.72 940.58,-647.94 911.36,-630 887.99,-615.65 871.36,-610.43 871.36,-583 871.36,-583 871.36,-583 871.36,-95 871.36,-67.64 968.14,-61.82 989.31,-39.18"/>
<polygon fill="#5b00c0" stroke="#5b00c0" points="992.52,-40.56 993.36,-30 986.12,-37.73 992.52,-40.56"/>
<text text-anchor="middle" x="880.86" y="-335.3" font-family="Times,serif" font-size="14.00" fill="#5b00c0">rw</text>
</g>
<!-- T12349 -->
<g id="node17" class="node">
<title>T12349</title>
<polygon fill="none" stroke="#0058ad" points="899.36,-567.5 899.36,-596.5 1189.36,-596.5 1189.36,-567.5 899.36,-567.5"/>
<text text-anchor="middle" x="937.86" y="-578.3" font-family="Times,serif" font-size="14.00" fill="#0058ad">r 475 nil</text>
<polyline fill="none" stroke="#0058ad" points="976.36,-567.5 976.36,-596.5 "/>
<text text-anchor="middle" x="1010.36" y="-578.3" font-family="Times,serif" font-size="14.00" fill="#0058ad">r 474 1</text>
<polyline fill="none" stroke="#0058ad" points="1044.36,-567.5 1044.36,-596.5 "/>
<text text-anchor="middle" x="1078.36" y="-578.3" font-family="Times,serif" font-size="14.00" fill="#0058ad">r 472 5</text>
<polyline fill="none" stroke="#0058ad" points="1112.36,-567.5 1112.36,-596.5 "/>
<text text-anchor="middle" x="1150.86" y="-578.3" font-family="Times,serif" font-size="14.00" fill="#0058ad">r 475 nil</text>
</g>
<!-- T12337&#45;&gt;T12349 -->
<g id="edge11" class="edge">
<title>T12337:f0&#45;&gt;T12349:f2</title>
<path fill="none" stroke="#c000a5" d="M911.36,-648C911.36,-574.18 1062.45,-664.86 1077.21,-607.11"/>
<polygon fill="#c000a5" stroke="#c000a5" points="1080.71,-607.33 1078.36,-597 1073.75,-606.54 1080.71,-607.33"/>
<text text-anchor="middle" x="1082.86" y="-618.8" font-family="Times,serif" font-size="14.00" fill="#c000a5">wr</text>
</g>
<!-- T12570&#45;&gt;T12574 -->
<g id="edge12" class="edge">
<title>T12570:f1&#45;&gt;T12574:f2</title>
<path fill="none" stroke="#c000a5" d="M520.36,-258C520.45,-258 590.37,-213.24 614.94,-197.44"/>
<polygon fill="#c000a5" stroke="#c000a5" points="616.86,-200.37 623.36,-192 613.07,-194.49 616.86,-200.37"/>
<text text-anchor="middle" x="602.86" y="-213.8" font-family="Times,serif" font-size="14.00" fill="#c000a5">wr</text>
</g>
<!-- T12373 -->
<g id="node9" class="node">
<title>T12373</title>
<polygon fill="none" stroke="#0058ad" points="439.36,-729.5 439.36,-758.5 735.36,-758.5 735.36,-729.5 439.36,-729.5"/>
<text text-anchor="middle" x="477.86" y="-740.3" font-family="Times,serif" font-size="14.00" fill="#0058ad">r 475 12</text>
<polyline fill="none" stroke="#0058ad" points="516.36,-729.5 516.36,-758.5 "/>
<text text-anchor="middle" x="553.36" y="-740.3" font-family="Times,serif" font-size="14.00" fill="#0058ad">w 472 8</text>
<polyline fill="none" stroke="#0058ad" points="590.36,-729.5 590.36,-758.5 "/>
<text text-anchor="middle" x="624.36" y="-740.3" font-family="Times,serif" font-size="14.00" fill="#0058ad">r 476 8</text>
<polyline fill="none" stroke="#0058ad" points="658.36,-729.5 658.36,-758.5 "/>
<text text-anchor="middle" x="696.86" y="-740.3" font-family="Times,serif" font-size="14.00" fill="#0058ad">r 474 nil</text>
</g>
<!-- T12369&#45;&gt;T12373 -->
<g id="edge13" class="edge">
<title>T12369:f0&#45;&gt;T12373:f2</title>
<path fill="none" stroke="#c000a5" d="M631.36,-810C631.36,-790.87 626.47,-784.07 624.87,-768.99"/>
<polygon fill="#c000a5" stroke="#c000a5" points="628.36,-768.81 624.36,-759 621.37,-769.16 628.36,-768.81"/>
<text text-anchor="middle" x="639.86" y="-780.8" font-family="Times,serif" font-size="14.00" fill="#c000a5">wr</text>
</g>
<!-- T12348&#45;&gt;T12369 -->
<g id="edge14" class="edge">
<title>T12348:f1&#45;&gt;T12369:f1</title>
<path fill="none" stroke="#c000a5" d="M924.36,-891C924.36,-836.12 858.91,-870.07 805.36,-858 786.24,-853.69 726.06,-860.38 707.72,-848.62"/>
<polygon fill="#c000a5" stroke="#c000a5" points="710.62,-846.65 702.36,-840 704.67,-850.34 710.62,-846.65"/>
<text text-anchor="middle" x="929.86" y="-861.8" font-family="Times,serif" font-size="14.00" fill="#c000a5">wr</text>
</g>
<!-- T12574&#45;&gt;T12333 -->
<g id="edge16" class="edge">
<title>T12574:f0&#45;&gt;T12333:f0</title>
<path fill="none" stroke="#5b00c0" d="M428.36,-177C421.34,-177 428.14,-186.84 423.36,-192 383.72,-234.83 344.32,-202.44 302.36,-243 264.26,-279.83 202.36,-406.5 202.36,-459.5 202.36,-988 202.36,-988 202.36,-988 202.36,-1057.64 734.25,-1067.34 838.3,-1067.97"/>
<polygon fill="#5b00c0" stroke="#5b00c0" points="838.35,-1071.47 848.36,-1068 838.38,-1064.47 838.35,-1071.47"/>
<text text-anchor="middle" x="211.86" y="-618.8" font-family="Times,serif" font-size="14.00" fill="#5b00c0">rw</text>
</g>
<!-- T12574&#45;&gt;T12464 -->
<g id="edge15" class="edge">
<title>T12574:f0&#45;&gt;T12464:f2</title>
<path fill="none" stroke="#5b00c0" d="M467.36,-162C467.36,-147.33 466.96,-143.66 467.36,-129 467.45,-125.75 467.64,-123.49 467.82,-121.42"/>
<polygon fill="#5b00c0" stroke="#5b00c0" points="471.34,-121.17 468.36,-111 464.35,-120.8 471.34,-121.17"/>
<text text-anchor="middle" x="476.86" y="-132.8" font-family="Times,serif" font-size="14.00" fill="#5b00c0">rw</text>
</g>
<!-- T12324 -->
<g id="node13" class="node">
<title>T12324</title>
<polygon fill="none" stroke="#0058ad" points="1048.86,-81.5 1048.86,-110.5 1199.86,-110.5 1199.86,-81.5 1048.86,-81.5"/>
<text text-anchor="middle" x="1085.86" y="-92.3" font-family="Times,serif" font-size="14.00" fill="#0058ad">w 460 2</text>
<polyline fill="none" stroke="#0058ad" points="1122.86,-81.5 1122.86,-110.5 "/>
<text text-anchor="middle" x="1161.36" y="-92.3" font-family="Times,serif" font-size="14.00" fill="#0058ad">r 475 nil</text>
</g>
<!-- T12574&#45;&gt;T12324 -->
<g id="edge17" class="edge">
<title>T12574:f0&#45;&gt;T12324:f0</title>
<path fill="none" stroke="#5b00c0" d="M467.36,-162C467.36,-154.48 959.59,-104.11 1037.2,-96.87"/>
<polygon fill="#5b00c0" stroke="#5b00c0" points="1037.7,-100.34 1047.36,-96 1037.1,-93.36 1037.7,-100.34"/>
<text text-anchor="middle" x="729.86" y="-132.8" font-family="Times,serif" font-size="14.00" fill="#5b00c0">rw</text>
</g>
<!-- T12373&#45;&gt;T12337 -->
<g id="edge19" class="edge">
<title>T12373:f3&#45;&gt;T12337:f3</title>
<path fill="none" stroke="#5b00c0" d="M736.36,-744C757.4,-744 1081.7,-708.09 1137.29,-684.34"/>
<polygon fill="#5b00c0" stroke="#5b00c0" points="1139.66,-686.93 1145.36,-678 1135.34,-681.42 1139.66,-686.93"/>
<text text-anchor="middle" x="1097.86" y="-699.8" font-family="Times,serif" font-size="14.00" fill="#5b00c0">rw</text>
</g>
<!-- T12373&#45;&gt;T12553 -->
<g id="edge20" class="edge">
<title>T12373:f3&#45;&gt;T12553:f0</title>
<path fill="none" stroke="#5b00c0" d="M697.36,-729C697.36,-642.67 314.36,-750.33 314.36,-664 314.36,-664 314.36,-664 314.36,-500 314.36,-474.76 310.57,-466.16 309.59,-445.21"/>
<polygon fill="#5b00c0" stroke="#5b00c0" points="313.09,-444.92 309.36,-435 306.09,-445.08 313.09,-444.92"/>
<text text-anchor="middle" x="323.86" y="-578.3" font-family="Times,serif" font-size="14.00" fill="#5b00c0">rw</text>
</g>
<!-- T12422 -->
<g id="node11" class="node">
<title>T12422</title>
<polygon fill="none" stroke="#0058ad" points="572.86,-648.5 572.86,-677.5 729.86,-677.5 729.86,-648.5 572.86,-648.5"/>
<text text-anchor="middle" x="614.36" y="-659.3" font-family="Times,serif" font-size="14.00" fill="#0058ad">w 476 12</text>
<polyline fill="none" stroke="#0058ad" points="655.86,-648.5 655.86,-677.5 "/>
<text text-anchor="middle" x="692.86" y="-659.3" font-family="Times,serif" font-size="14.00" fill="#0058ad">w 474 5</text>
</g>
<!-- T12373&#45;&gt;T12422 -->
<g id="edge18" class="edge">
<title>T12373:f3&#45;&gt;T12422:f1</title>
<path fill="none" stroke="#5b00c0" d="M697.36,-729C697.36,-710.17 694.62,-703.14 693.68,-688.37"/>
<polygon fill="#5b00c0" stroke="#5b00c0" points="697.17,-687.89 693.36,-678 690.17,-688.1 697.17,-687.89"/>
<text text-anchor="middle" x="705.86" y="-699.8" font-family="Times,serif" font-size="14.00" fill="#5b00c0">rw</text>
</g>
<!-- T12564 -->
<g id="node12" class="node">
<title>T12564</title>
<polygon fill="none" stroke="#0058ad" points="390.36,-324.5 390.36,-353.5 686.36,-353.5 686.36,-324.5 390.36,-324.5"/>
<text text-anchor="middle" x="428.86" y="-335.3" font-family="Times,serif" font-size="14.00" fill="#0058ad">r 484 nil</text>
<polyline fill="none" stroke="#0058ad" points="467.36,-324.5 467.36,-353.5 "/>
<text text-anchor="middle" x="504.36" y="-335.3" font-family="Times,serif" font-size="14.00" fill="#0058ad">w 484 4</text>
<polyline fill="none" stroke="#0058ad" points="541.36,-324.5 541.36,-353.5 "/>
<text text-anchor="middle" x="579.86" y="-335.3" font-family="Times,serif" font-size="14.00" fill="#0058ad">r 480 12</text>
<polyline fill="none" stroke="#0058ad" points="618.36,-324.5 618.36,-353.5 "/>
<text text-anchor="middle" x="652.36" y="-335.3" font-family="Times,serif" font-size="14.00" fill="#0058ad">r 484 4</text>
</g>
<!-- T12553&#45;&gt;T12564 -->
<g id="edge21" class="edge">
<title>T12553:f3&#45;&gt;T12564:f2</title>
<path fill="none" stroke="#c000a5" d="M547.36,-405C547.36,-388.89 553.19,-385.24 562.36,-372 566.09,-366.62 571.52,-365.23 575.45,-362.82"/>
<polygon fill="#c000a5" stroke="#c000a5" points="578.55,-364.44 580.36,-354 572.44,-361.03 578.55,-364.44"/>
<text text-anchor="middle" x="571.86" y="-375.8" font-family="Times,serif" font-size="14.00" fill="#c000a5">wr</text>
</g>
<!-- T12458 -->
<g id="node16" class="node">
<title>T12458</title>
<polygon fill="none" stroke="#0058ad" points="484.86,-567.5 484.86,-596.5 795.86,-596.5 795.86,-567.5 484.86,-567.5"/>
<text text-anchor="middle" x="523.36" y="-578.3" font-family="Times,serif" font-size="14.00" fill="#0058ad">r 479 nil</text>
<polyline fill="none" stroke="#0058ad" points="561.86,-567.5 561.86,-596.5 "/>
<text text-anchor="middle" x="600.36" y="-578.3" font-family="Times,serif" font-size="14.00" fill="#0058ad">r 476 12</text>
<polyline fill="none" stroke="#0058ad" points="638.86,-567.5 638.86,-596.5 "/>
<text text-anchor="middle" x="680.36" y="-578.3" font-family="Times,serif" font-size="14.00" fill="#0058ad">w 472 12</text>
<polyline fill="none" stroke="#0058ad" points="721.86,-567.5 721.86,-596.5 "/>
<text text-anchor="middle" x="758.86" y="-578.3" font-family="Times,serif" font-size="14.00" fill="#0058ad">w 479 2</text>
</g>
<!-- T12422&#45;&gt;T12458 -->
<g id="edge22" class="edge">
<title>T12422:f0&#45;&gt;T12458:f1</title>
<path fill="none" stroke="#c000a5" d="M614.36,-648C614.36,-628.35 604.58,-622.34 601.37,-607.17"/>
<polygon fill="#c000a5" stroke="#c000a5" points="604.83,-606.61 600.36,-597 597.87,-607.3 604.83,-606.61"/>
<text text-anchor="middle" x="620.86" y="-618.8" font-family="Times,serif" font-size="14.00" fill="#c000a5">wr</text>
</g>
<!-- T12564&#45;&gt;T12570 -->
<g id="edge23" class="edge">
<title>T12564:f0&#45;&gt;T12570:f1</title>
<path fill="none" stroke="#5b00c0" d="M428.36,-324C428.36,-294.99 470.08,-303.08 480.18,-283.05"/>
<polygon fill="#5b00c0" stroke="#5b00c0" points="483.66,-283.52 482.36,-273 476.82,-282.03 483.66,-283.52"/>
<text text-anchor="middle" x="481.86" y="-294.8" font-family="Times,serif" font-size="14.00" fill="#5b00c0">rw</text>
</g>
<!-- T12564&#45;&gt;T12574 -->
<g id="edge24" class="edge">
<title>T12564:f0&#45;&gt;T12574:f3</title>
<path fill="none" stroke="#5b00c0" d="M428.36,-324C428.36,-293.17 466.86,-317.76 495.36,-306 586.37,-268.45 687.21,-292.17 694,-202.01"/>
<polygon fill="#5b00c0" stroke="#5b00c0" points="697.5,-202.12 694.36,-192 690.5,-201.87 697.5,-202.12"/>
<text text-anchor="middle" x="689.86" y="-254.3" font-family="Times,serif" font-size="14.00" fill="#5b00c0">rw</text>
</g>
<!-- T12324&#45;&gt;T12347 -->
<g id="edge25" class="edge">
<title>T12324:f1&#45;&gt;T12347:f1</title>
<path fill="none" stroke="#5b00c0" d="M1201.36,-96C1253.24,-96 1286.36,-124.12 1286.36,-176 1286.36,-907 1286.36,-907 1286.36,-907 1286.36,-925.42 1264.88,-915.3 1247.36,-921 1197.61,-937.18 1185.15,-941.41 1134.36,-954 1118.47,-957.94 1069.44,-954.1 1052.33,-963.61"/>
<polygon fill="#5b00c0" stroke="#5b00c0" points="1049.3,-961.82 1046.36,-972 1055.01,-965.88 1049.3,-961.82"/>
<text text-anchor="middle" x="1295.86" y="-537.8" font-family="Times,serif" font-size="14.00" fill="#5b00c0">rw</text>
</g>
<!-- T12324&#45;&gt;T12369 -->
<g id="edge26" class="edge">
<title>T12324:f1&#45;&gt;T12369:f3</title>
<path fill="none" stroke="#5b00c0" d="M1201.36,-96C1237.62,-96 1217.36,-139.74 1217.36,-176 1217.36,-542.5 1217.36,-542.5 1217.36,-542.5 1217.36,-603.82 1227.43,-628.41 1191.36,-678 1105.62,-795.9 1041.7,-823.72 899.72,-824.96"/>
<polygon fill="#5b00c0" stroke="#5b00c0" points="899.35,-821.46 889.36,-825 899.38,-828.46 899.35,-821.46"/>
<text text-anchor="middle" x="1226.86" y="-456.8" font-family="Times,serif" font-size="14.00" fill="#5b00c0">rw</text>
</g>
<!-- T12324&#45;&gt;T12354 -->
<g id="edge27" class="edge">
<title>T12324:f1&#45;&gt;T12354:f3</title>
<path fill="none" stroke="#5b00c0" d="M1161.36,-81C1161.36,-19.62 1102.86,-15.3 1041.61,-15.02"/>
<polygon fill="#5b00c0" stroke="#5b00c0" points="1041.37,-11.52 1031.36,-15 1041.36,-18.52 1041.37,-11.52"/>
<text text-anchor="middle" x="1167.86" y="-51.8" font-family="Times,serif" font-size="14.00" fill="#5b00c0">rw</text>
</g>
<!-- T12461 -->
<g id="node14" class="node">
<title>T12461</title>
<polygon fill="none" stroke="#0058ad" points="351.86,-486.5 351.86,-515.5 650.86,-515.5 650.86,-486.5 351.86,-486.5"/>
<text text-anchor="middle" x="388.86" y="-497.3" font-family="Times,serif" font-size="14.00" fill="#0058ad">w 479 3</text>
<polyline fill="none" stroke="#0058ad" points="425.86,-486.5 425.86,-515.5 "/>
<text text-anchor="middle" x="462.86" y="-497.3" font-family="Times,serif" font-size="14.00" fill="#0058ad">w 479 4</text>
<polyline fill="none" stroke="#0058ad" points="499.86,-486.5 499.86,-515.5 "/>
<text text-anchor="middle" x="536.86" y="-497.3" font-family="Times,serif" font-size="14.00" fill="#0058ad">w 479 5</text>
<polyline fill="none" stroke="#0058ad" points="573.86,-486.5 573.86,-515.5 "/>
<text text-anchor="middle" x="612.36" y="-497.3" font-family="Times,serif" font-size="14.00" fill="#0058ad">r 480 nil</text>
</g>
<!-- T12461&#45;&gt;T12570 -->
<g id="edge30" class="edge">
<title>T12461:f3&#45;&gt;T12570:f0</title>
<path fill="none" stroke="#5b00c0" d="M612.36,-486C612.36,-433.49 624.56,-401.84 581.36,-372 544.65,-346.64 415.23,-383.06 381.36,-354 367.71,-342.28 347.46,-284.66 352.99,-264.77"/>
<polygon fill="#5b00c0" stroke="#5b00c0" points="355.37,-267.34 360.36,-258 350.63,-262.19 355.37,-267.34"/>
<text text-anchor="middle" x="607.86" y="-375.8" font-family="Times,serif" font-size="14.00" fill="#5b00c0">rw</text>
</g>
<!-- T12461&#45;&gt;T12574 -->
<g id="edge28" class="edge">
<title>T12461:f3&#45;&gt;T12574:f1</title>
<path fill="none" stroke="#5b00c0" d="M652.36,-501C699.61,-501 722.36,-468.25 722.36,-421 722.36,-421 722.36,-421 722.36,-257 722.36,-234.93 723.55,-223.84 706.36,-210 681.69,-190.14 574.85,-219.58 551.77,-201.14"/>
<polygon fill="#5b00c0" stroke="#5b00c0" points="554.86,-199.49 547.36,-192 548.55,-202.53 554.86,-199.49"/>
<text text-anchor="middle" x="731.86" y="-335.3" font-family="Times,serif" font-size="14.00" fill="#5b00c0">rw</text>
</g>
<!-- T12461&#45;&gt;T12553 -->
<g id="edge29" class="edge">
<title>T12461:f3&#45;&gt;T12553:f3</title>
<path fill="none" stroke="#5b00c0" d="M612.36,-486C612.36,-470.83 595.45,-477.17 583.36,-468 569.31,-457.35 554.33,-456.55 549.2,-444.98"/>
<polygon fill="#5b00c0" stroke="#5b00c0" points="552.62,-444.2 547.36,-435 545.74,-445.47 552.62,-444.2"/>
<text text-anchor="middle" x="592.86" y="-456.8" font-family="Times,serif" font-size="14.00" fill="#5b00c0">rw</text>
</g>
<!-- T12354&#45;&gt;T12347 -->
<g id="edge31" class="edge">
<title>T12354:f0&#45;&gt;T12347:f1</title>
<path fill="none" stroke="#5b00c0" d="M729.36,-15C-545.51,-15 240.36,-45.3 240.36,-95 240.36,-380.5 240.36,-380.5 240.36,-380.5 240.36,-451.7 248.36,-469.3 248.36,-540.5 248.36,-907 248.36,-907 248.36,-907 248.36,-1033.65 690.12,-943.84 816.36,-954 827.57,-954.9 996,-958.21 1037.28,-967.65"/>
<polygon fill="#5b00c0" stroke="#5b00c0" points="1035.83,-970.84 1046.36,-972 1038.86,-964.52 1035.83,-970.84"/>
<text text-anchor="middle" x="257.86" y="-497.3" font-family="Times,serif" font-size="14.00" fill="#5b00c0">rw</text>
</g>
<!-- T12354&#45;&gt;T12369 -->
<g id="edge32" class="edge">
<title>T12354:f0&#45;&gt;T12369:f3</title>
<path fill="none" stroke="#5b00c0" d="M769.36,-30C769.36,-67.84 824.36,-57.16 824.36,-95 824.36,-542.5 824.36,-542.5 824.36,-542.5 824.36,-638.85 824.14,-663.31 835.36,-759 837.09,-773.73 836.9,-777.58 840.36,-792 841.23,-795.59 842.48,-797.87 843.62,-800"/>
<polygon fill="#5b00c0" stroke="#5b00c0" points="840.35,-801.28 846.36,-810 847.1,-799.43 840.35,-801.28"/>
<text text-anchor="middle" x="833.86" y="-416.3" font-family="Times,serif" font-size="14.00" fill="#5b00c0">rw</text>
</g>
<!-- T12458&#45;&gt;T12464 -->
<g id="edge33" class="edge">
<title>T12458:f0&#45;&gt;T12464:f3</title>
<path fill="none" stroke="#5b00c0" d="M523.36,-567C523.36,-537.87 777.36,-531.13 777.36,-502 777.36,-502 777.36,-502 777.36,-176 777.36,-131.7 645.75,-100.15 590.36,-96.38"/>
<polygon fill="#5b00c0" stroke="#5b00c0" points="590.49,-92.88 580.36,-96 590.22,-99.88 590.49,-92.88"/>
<text text-anchor="middle" x="786.86" y="-335.3" font-family="Times,serif" font-size="14.00" fill="#5b00c0">rw</text>
</g>
<!-- T12458&#45;&gt;T12461 -->
<g id="edge34" class="edge">
<title>T12458:f0&#45;&gt;T12461:f2</title>
<path fill="none" stroke="#5b00c0" d="M523.36,-567C523.36,-547.35 533.15,-541.34 536.36,-526.17"/>
<polygon fill="#5b00c0" stroke="#5b00c0" points="539.86,-526.3 537.36,-516 532.9,-525.61 539.86,-526.3"/>
<text text-anchor="middle" x="543.86" y="-537.8" font-family="Times,serif" font-size="14.00" fill="#5b00c0">rw</text>
</g>
<!-- T12349&#45;&gt;T12347 -->
<g id="edge35" class="edge">
<title>T12349:f0&#45;&gt;T12347:f1</title>
<path fill="none" stroke="#5b00c0" d="M937.36,-597C937.36,-614.78 1078.96,-611.36 1096.36,-615 1165.58,-629.48 1248.36,-591.29 1248.36,-662 1248.36,-907 1248.36,-907 1248.36,-907 1248.36,-917.32 1093.71,-950.32 1055.04,-966.31"/>
<polygon fill="#5b00c0" stroke="#5b00c0" points="1052.81,-963.59 1046.36,-972 1056.65,-969.44 1052.81,-963.59"/>
<text text-anchor="middle" x="1257.86" y="-780.8" font-family="Times,serif" font-size="14.00" fill="#5b00c0">rw</text>
</g>
<!-- T12349&#45;&gt;T12369 -->
<g id="edge36" class="edge">
<title>T12349:f0&#45;&gt;T12369:f3</title>
<path fill="none" stroke="#5b00c0" d="M898.36,-582C797.78,-582 843.18,-698.2 846.21,-799.89"/>
<polygon fill="#5b00c0" stroke="#5b00c0" points="842.71,-800.05 846.36,-810 849.71,-799.95 842.71,-800.05"/>
<text text-anchor="middle" x="846.86" y="-699.8" font-family="Times,serif" font-size="14.00" fill="#5b00c0">rw</text>
</g>
<!-- T12349&#45;&gt;T12354 -->
<g id="edge37" class="edge">
<title>T12349:f0&#45;&gt;T12354:f3</title>
<path fill="none" stroke="#5b00c0" d="M937.36,-567C937.36,-532.61 979.36,-536.39 979.36,-502 979.36,-502 979.36,-502 979.36,-95 979.36,-69.14 990.08,-61.4 992.76,-40.07"/>
<polygon fill="#5b00c0" stroke="#5b00c0" points="996.26,-40.19 993.36,-30 989.27,-39.77 996.26,-40.19"/>
<text text-anchor="middle" x="988.86" y="-294.8" font-family="Times,serif" font-size="14.00" fill="#5b00c0">rw</text>
</g>
</g>
</svg>
