<?xml version="1.0" encoding="UTF-8" standalone="no"?>
<!DOCTYPE svg PUBLIC "-//W3C//DTD SVG 1.1//EN"
 "http://www.w3.org/Graphics/SVG/1.1/DTD/svg11.dtd">
<!-- Generated by graphviz version 2.43.0 (0)
 -->
<!-- Title: a_graph Pages: 1 -->
<svg width="1537pt" height="929pt"
 viewBox="0.00 0.00 1537.00 929.00" xmlns="http://www.w3.org/2000/svg" xmlns:xlink="http://www.w3.org/1999/xlink">
<g id="graph0" class="graph" transform="scale(1 1) rotate(0) translate(4 925)">
<title>a_graph</title>
<polygon fill="white" stroke="transparent" points="-4,4 -4,-925 1533,-925 1533,4 -4,4"/>
<!-- T22056 -->
<g id="node1" class="node">
<title>T22056</title>
<polygon fill="none" stroke="#0058ad" points="1316,-891.5 1316,-920.5 1529,-920.5 1529,-891.5 1316,-891.5"/>
<text text-anchor="middle" x="1350" y="-902.3" font-family="Times,serif" font-size="14.00" fill="#0058ad">r 842 5</text>
<polyline fill="none" stroke="#0058ad" points="1384,-891.5 1384,-920.5 "/>
<text text-anchor="middle" x="1422.5" y="-902.3" font-family="Times,serif" font-size="14.00" fill="#0058ad">r 840 14</text>
<polyline fill="none" stroke="#0058ad" points="1461,-891.5 1461,-920.5 "/>
<text text-anchor="middle" x="1495" y="-902.3" font-family="Times,serif" font-size="14.00" fill="#0058ad">r 842 5</text>
</g>
<!-- T22058 -->
<g id="node13" class="node">
<title>T22058</title>
<polygon fill="none" stroke="#0058ad" points="1069.5,-810.5 1069.5,-839.5 1365.5,-839.5 1365.5,-810.5 1069.5,-810.5"/>
<text text-anchor="middle" x="1108" y="-821.3" font-family="Times,serif" font-size="14.00" fill="#0058ad">r 843 nil</text>
<polyline fill="none" stroke="#0058ad" points="1146.5,-810.5 1146.5,-839.5 "/>
<text text-anchor="middle" x="1180.5" y="-821.3" font-family="Times,serif" font-size="14.00" fill="#0058ad">r 842 5</text>
<polyline fill="none" stroke="#0058ad" points="1214.5,-810.5 1214.5,-839.5 "/>
<text text-anchor="middle" x="1251.5" y="-821.3" font-family="Times,serif" font-size="14.00" fill="#0058ad">w 842 7</text>
<polyline fill="none" stroke="#0058ad" points="1288.5,-810.5 1288.5,-839.5 "/>
<text text-anchor="middle" x="1327" y="-821.3" font-family="Times,serif" font-size="14.00" fill="#0058ad">r 843 nil</text>
</g>
<!-- T22056&#45;&gt;T22058 -->
<g id="edge1" class="edge">
<title>T22056:f0&#45;&gt;T22058:f2</title>
<path fill="none" stroke="#5b00c0" d="M1314.5,-906C1277.43,-906 1255.49,-884.74 1251.99,-850.11"/>
<polygon fill="#5b00c0" stroke="#5b00c0" points="1255.48,-849.82 1251.5,-840 1248.49,-850.16 1255.48,-849.82"/>
<text text-anchor="middle" x="1267" y="-861.8" font-family="Times,serif" font-size="14.00" fill="#5b00c0">rw</text>
</g>
<!-- T22146 -->
<g id="node2" class="node">
<title>T22146</title>
<polygon fill="none" stroke="#0058ad" points="0,-81.5 0,-110.5 305,-110.5 305,-81.5 0,-81.5"/>
<text text-anchor="middle" x="38.5" y="-92.3" font-family="Times,serif" font-size="14.00" fill="#0058ad">r 844 15</text>
<polyline fill="none" stroke="#0058ad" points="77,-81.5 77,-110.5 "/>
<text text-anchor="middle" x="115.5" y="-92.3" font-family="Times,serif" font-size="14.00" fill="#0058ad">r 844 15</text>
<polyline fill="none" stroke="#0058ad" points="154,-81.5 154,-110.5 "/>
<text text-anchor="middle" x="192.5" y="-92.3" font-family="Times,serif" font-size="14.00" fill="#0058ad">r 846 nil</text>
<polyline fill="none" stroke="#0058ad" points="231,-81.5 231,-110.5 "/>
<text text-anchor="middle" x="268" y="-92.3" font-family="Times,serif" font-size="14.00" fill="#0058ad">w 846 1</text>
</g>
<!-- T22170 -->
<g id="node16" class="node">
<title>T22170</title>
<polygon fill="none" stroke="#0058ad" points="143,-0.5 143,-29.5 386,-29.5 386,-0.5 143,-0.5"/>
<text text-anchor="middle" x="184.5" y="-11.3" font-family="Times,serif" font-size="14.00" fill="#0058ad">w 846 11</text>
<polyline fill="none" stroke="#0058ad" points="226,-0.5 226,-29.5 "/>
<text text-anchor="middle" x="267.5" y="-11.3" font-family="Times,serif" font-size="14.00" fill="#0058ad">w 838 10</text>
<polyline fill="none" stroke="#0058ad" points="309,-0.5 309,-29.5 "/>
<text text-anchor="middle" x="347.5" y="-11.3" font-family="Times,serif" font-size="14.00" fill="#0058ad">r 834 nil</text>
</g>
<!-- T22146&#45;&gt;T22170 -->
<g id="edge2" class="edge">
<title>T22146:f2&#45;&gt;T22170:f0</title>
<path fill="none" stroke="#5b00c0" d="M192.5,-81C192.5,-61.82 186.91,-55.1 185.08,-40.01"/>
<polygon fill="#5b00c0" stroke="#5b00c0" points="188.57,-39.78 184.5,-30 181.58,-40.18 188.57,-39.78"/>
<text text-anchor="middle" x="200" y="-51.8" font-family="Times,serif" font-size="14.00" fill="#5b00c0">rw</text>
</g>
<!-- T22040 -->
<g id="node3" class="node">
<title>T22040</title>
<polygon fill="none" stroke="#0058ad" points="967,-486.5 967,-515.5 1272,-515.5 1272,-486.5 967,-486.5"/>
<text text-anchor="middle" x="1005.5" y="-497.3" font-family="Times,serif" font-size="14.00" fill="#0058ad">r 842 nil</text>
<polyline fill="none" stroke="#0058ad" points="1044,-486.5 1044,-515.5 "/>
<text text-anchor="middle" x="1082.5" y="-497.3" font-family="Times,serif" font-size="14.00" fill="#0058ad">r 833 14</text>
<polyline fill="none" stroke="#0058ad" points="1121,-486.5 1121,-515.5 "/>
<text text-anchor="middle" x="1158" y="-497.3" font-family="Times,serif" font-size="14.00" fill="#0058ad">w 842 1</text>
<polyline fill="none" stroke="#0058ad" points="1195,-486.5 1195,-515.5 "/>
<text text-anchor="middle" x="1233.5" y="-497.3" font-family="Times,serif" font-size="14.00" fill="#0058ad">r 840 13</text>
</g>
<!-- T22048 -->
<g id="node6" class="node">
<title>T22048</title>
<polygon fill="none" stroke="#0058ad" points="1109.5,-405.5 1109.5,-434.5 1325.5,-434.5 1325.5,-405.5 1109.5,-405.5"/>
<text text-anchor="middle" x="1146.5" y="-416.3" font-family="Times,serif" font-size="14.00" fill="#0058ad">w 842 4</text>
<polyline fill="none" stroke="#0058ad" points="1183.5,-405.5 1183.5,-434.5 "/>
<text text-anchor="middle" x="1220.5" y="-416.3" font-family="Times,serif" font-size="14.00" fill="#0058ad">w 842 5</text>
<polyline fill="none" stroke="#0058ad" points="1257.5,-405.5 1257.5,-434.5 "/>
<text text-anchor="middle" x="1291.5" y="-416.3" font-family="Times,serif" font-size="14.00" fill="#0058ad">r 842 5</text>
</g>
<!-- T22040&#45;&gt;T22048 -->
<g id="edge3" class="edge">
<title>T22040:f0&#45;&gt;T22048:f1</title>
<path fill="none" stroke="#5b00c0" d="M1005.5,-486C1005.5,-464.13 1176.04,-460.24 1213.35,-442.3"/>
<polygon fill="#5b00c0" stroke="#5b00c0" points="1216,-444.59 1220.5,-435 1211,-439.69 1216,-444.59"/>
<text text-anchor="middle" x="1179" y="-456.8" font-family="Times,serif" font-size="14.00" fill="#5b00c0">rw</text>
</g>
<!-- T22059 -->
<g id="node7" class="node">
<title>T22059</title>
<polygon fill="none" stroke="#0058ad" points="753,-405.5 753,-434.5 978,-434.5 978,-405.5 753,-405.5"/>
<text text-anchor="middle" x="794.5" y="-416.3" font-family="Times,serif" font-size="14.00" fill="#0058ad">w 840 15</text>
<polyline fill="none" stroke="#0058ad" points="836,-405.5 836,-434.5 "/>
<text text-anchor="middle" x="873" y="-416.3" font-family="Times,serif" font-size="14.00" fill="#0058ad">w 842 8</text>
<polyline fill="none" stroke="#0058ad" points="910,-405.5 910,-434.5 "/>
<text text-anchor="middle" x="944" y="-416.3" font-family="Times,serif" font-size="14.00" fill="#0058ad">r 838 5</text>
</g>
<!-- T22040&#45;&gt;T22059 -->
<g id="edge7" class="edge">
<title>T22040:f0&#45;&gt;T22059:f1</title>
<path fill="none" stroke="#5b00c0" d="M965.5,-501C956.68,-501 959.16,-491.78 952.5,-486 923.9,-461.17 882.26,-473.78 874.7,-445.26"/>
<polygon fill="#5b00c0" stroke="#5b00c0" points="878.14,-444.53 873.5,-435 871.18,-445.34 878.14,-444.53"/>
<text text-anchor="middle" x="919" y="-456.8" font-family="Times,serif" font-size="14.00" fill="#5b00c0">rw</text>
</g>
<!-- T22071 -->
<g id="node12" class="node">
<title>T22071</title>
<polygon fill="none" stroke="#0058ad" points="719,-324.5 719,-353.5 944,-353.5 944,-324.5 719,-324.5"/>
<text text-anchor="middle" x="753" y="-335.3" font-family="Times,serif" font-size="14.00" fill="#0058ad">r 844 1</text>
<polyline fill="none" stroke="#0058ad" points="787,-324.5 787,-353.5 "/>
<text text-anchor="middle" x="824" y="-335.3" font-family="Times,serif" font-size="14.00" fill="#0058ad">w 844 2</text>
<polyline fill="none" stroke="#0058ad" points="861,-324.5 861,-353.5 "/>
<text text-anchor="middle" x="902.5" y="-335.3" font-family="Times,serif" font-size="14.00" fill="#0058ad">w 842 14</text>
</g>
<!-- T22040&#45;&gt;T22071 -->
<g id="edge6" class="edge">
<title>T22040:f0&#45;&gt;T22071:f2</title>
<path fill="none" stroke="#5b00c0" d="M1005.5,-486C1005.5,-419.02 1015.02,-346.75 955.63,-339.58"/>
<polygon fill="#5b00c0" stroke="#5b00c0" points="955.68,-336.08 945.5,-339 955.28,-343.07 955.68,-336.08"/>
<text text-anchor="middle" x="1016" y="-416.3" font-family="Times,serif" font-size="14.00" fill="#5b00c0">rw</text>
</g>
<!-- T22040&#45;&gt;T22058 -->
<g id="edge5" class="edge">
<title>T22040:f0&#45;&gt;T22058:f2</title>
<path fill="none" stroke="#5b00c0" d="M1005.5,-516C1005.5,-545.83 1109.33,-527.77 1138.5,-534 1189.25,-544.84 1219.34,-525.51 1250.5,-567 1313.27,-650.57 1255.48,-698.82 1251.69,-799.74"/>
<polygon fill="#5b00c0" stroke="#5b00c0" points="1248.19,-799.94 1251.5,-810 1255.19,-800.07 1248.19,-799.94"/>
<text text-anchor="middle" x="1290" y="-659.3" font-family="Times,serif" font-size="14.00" fill="#5b00c0">rw</text>
</g>
<!-- T22070 -->
<g id="node15" class="node">
<title>T22070</title>
<polygon fill="none" stroke="#0058ad" points="500.5,-405.5 500.5,-434.5 734.5,-434.5 734.5,-405.5 500.5,-405.5"/>
<text text-anchor="middle" x="539" y="-416.3" font-family="Times,serif" font-size="14.00" fill="#0058ad">r 840 14</text>
<polyline fill="none" stroke="#0058ad" points="577.5,-405.5 577.5,-434.5 "/>
<text text-anchor="middle" x="619" y="-416.3" font-family="Times,serif" font-size="14.00" fill="#0058ad">w 842 12</text>
<polyline fill="none" stroke="#0058ad" points="660.5,-405.5 660.5,-434.5 "/>
<text text-anchor="middle" x="697.5" y="-416.3" font-family="Times,serif" font-size="14.00" fill="#0058ad">w 844 1</text>
</g>
<!-- T22040&#45;&gt;T22070 -->
<g id="edge4" class="edge">
<title>T22040:f0&#45;&gt;T22070:f1</title>
<path fill="none" stroke="#5b00c0" d="M965.5,-501C956.68,-501 960.22,-490.26 952.5,-486 922.42,-469.4 666.96,-471.84 625.25,-443.4"/>
<polygon fill="#5b00c0" stroke="#5b00c0" points="628.04,-441.28 619.5,-435 622.26,-445.23 628.04,-441.28"/>
<text text-anchor="middle" x="784" y="-456.8" font-family="Times,serif" font-size="14.00" fill="#5b00c0">rw</text>
</g>
<!-- T22061 -->
<g id="node4" class="node">
<title>T22061</title>
<polygon fill="none" stroke="#0058ad" points="420,-324.5 420,-353.5 701,-353.5 701,-324.5 420,-324.5"/>
<text text-anchor="middle" x="458.5" y="-335.3" font-family="Times,serif" font-size="14.00" fill="#0058ad">r 843 nil</text>
<polyline fill="none" stroke="#0058ad" points="497,-324.5 497,-353.5 "/>
<text text-anchor="middle" x="531" y="-335.3" font-family="Times,serif" font-size="14.00" fill="#0058ad">r 808 4</text>
<polyline fill="none" stroke="#0058ad" points="565,-324.5 565,-353.5 "/>
<text text-anchor="middle" x="599" y="-335.3" font-family="Times,serif" font-size="14.00" fill="#0058ad">r 842 8</text>
<polyline fill="none" stroke="#0058ad" points="633,-324.5 633,-353.5 "/>
<text text-anchor="middle" x="667" y="-335.3" font-family="Times,serif" font-size="14.00" fill="#0058ad">r 842 8</text>
</g>
<!-- T22251 -->
<g id="node8" class="node">
<title>T22251</title>
<polygon fill="none" stroke="#0058ad" points="378.5,-729.5 378.5,-758.5 680.5,-758.5 680.5,-729.5 378.5,-729.5"/>
<text text-anchor="middle" x="420" y="-740.3" font-family="Times,serif" font-size="14.00" fill="#0058ad">w 843 16</text>
<polyline fill="none" stroke="#0058ad" points="461.5,-729.5 461.5,-758.5 "/>
<text text-anchor="middle" x="498.5" y="-740.3" font-family="Times,serif" font-size="14.00" fill="#0058ad">w 850 1</text>
<polyline fill="none" stroke="#0058ad" points="535.5,-729.5 535.5,-758.5 "/>
<text text-anchor="middle" x="574" y="-740.3" font-family="Times,serif" font-size="14.00" fill="#0058ad">r 834 nil</text>
<polyline fill="none" stroke="#0058ad" points="612.5,-729.5 612.5,-758.5 "/>
<text text-anchor="middle" x="646.5" y="-740.3" font-family="Times,serif" font-size="14.00" fill="#0058ad">r 850 1</text>
</g>
<!-- T22061&#45;&gt;T22251 -->
<g id="edge9" class="edge">
<title>T22061:f0&#45;&gt;T22251:f0</title>
<path fill="none" stroke="#5b00c0" d="M458.5,-354C458.5,-440.17 405.5,-454.33 405.5,-540.5 405.5,-664 405.5,-664 405.5,-664 405.5,-689.86 416.22,-697.6 418.9,-718.93"/>
<polygon fill="#5b00c0" stroke="#5b00c0" points="415.41,-719.23 419.5,-729 422.4,-718.81 415.41,-719.23"/>
<text text-anchor="middle" x="415" y="-537.8" font-family="Times,serif" font-size="14.00" fill="#5b00c0">rw</text>
</g>
<!-- T22142 -->
<g id="node11" class="node">
<title>T22142</title>
<polygon fill="none" stroke="#0058ad" points="532.5,-162.5 532.5,-191.5 766.5,-191.5 766.5,-162.5 532.5,-162.5"/>
<text text-anchor="middle" x="569.5" y="-173.3" font-family="Times,serif" font-size="14.00" fill="#0058ad">w 843 8</text>
<polyline fill="none" stroke="#0058ad" points="606.5,-162.5 606.5,-191.5 "/>
<text text-anchor="middle" x="648" y="-173.3" font-family="Times,serif" font-size="14.00" fill="#0058ad">w 844 15</text>
<polyline fill="none" stroke="#0058ad" points="689.5,-162.5 689.5,-191.5 "/>
<text text-anchor="middle" x="728" y="-173.3" font-family="Times,serif" font-size="14.00" fill="#0058ad">r 844 15</text>
</g>
<!-- T22061&#45;&gt;T22142 -->
<g id="edge8" class="edge">
<title>T22061:f0&#45;&gt;T22142:f0</title>
<path fill="none" stroke="#5b00c0" d="M458.5,-324C458.5,-290.43 586.22,-331.11 608.5,-306 612.92,-301.01 609.44,-297.6 608.5,-291 605.36,-269 602.53,-263.72 594.5,-243 586.8,-223.14 574.3,-218.46 570.58,-202.32"/>
<polygon fill="#5b00c0" stroke="#5b00c0" points="574.02,-201.58 569.5,-192 567.06,-202.31 574.02,-201.58"/>
<text text-anchor="middle" x="615" y="-254.3" font-family="Times,serif" font-size="14.00" fill="#5b00c0">rw</text>
</g>
<!-- T22073 -->
<g id="node5" class="node">
<title>T22073</title>
<polygon fill="none" stroke="#0058ad" points="373,-243.5 373,-272.5 586,-272.5 586,-243.5 373,-243.5"/>
<text text-anchor="middle" x="411.5" y="-254.3" font-family="Times,serif" font-size="14.00" fill="#0058ad">r 843 nil</text>
<polyline fill="none" stroke="#0058ad" points="450,-243.5 450,-272.5 "/>
<text text-anchor="middle" x="484" y="-254.3" font-family="Times,serif" font-size="14.00" fill="#0058ad">r 844 2</text>
<polyline fill="none" stroke="#0058ad" points="518,-243.5 518,-272.5 "/>
<text text-anchor="middle" x="552" y="-254.3" font-family="Times,serif" font-size="14.00" fill="#0058ad">r 844 2</text>
</g>
<!-- T22073&#45;&gt;T22251 -->
<g id="edge11" class="edge">
<title>T22073:f0&#45;&gt;T22251:f0</title>
<path fill="none" stroke="#5b00c0" d="M411.5,-273C411.5,-359.17 358.5,-373.33 358.5,-459.5 358.5,-664 358.5,-664 358.5,-664 358.5,-696.55 344.58,-734.58 367.36,-742.51"/>
<polygon fill="#5b00c0" stroke="#5b00c0" points="367.1,-746.01 377.5,-744 368.12,-739.08 367.1,-746.01"/>
<text text-anchor="middle" x="368" y="-497.3" font-family="Times,serif" font-size="14.00" fill="#5b00c0">rw</text>
</g>
<!-- T22073&#45;&gt;T22142 -->
<g id="edge10" class="edge">
<title>T22073:f0&#45;&gt;T22142:f0</title>
<path fill="none" stroke="#5b00c0" d="M411.5,-243C411.5,-185.58 464.12,-177.76 521.18,-177.06"/>
<polygon fill="#5b00c0" stroke="#5b00c0" points="521.52,-180.56 531.5,-177 521.48,-173.56 521.52,-180.56"/>
<text text-anchor="middle" x="429" y="-213.8" font-family="Times,serif" font-size="14.00" fill="#5b00c0">rw</text>
</g>
<!-- T22048&#45;&gt;T22056 -->
<g id="edge13" class="edge">
<title>T22048:f1&#45;&gt;T22056:f0</title>
<path fill="none" stroke="#c000a5" d="M1220.5,-435C1220.5,-463.27 1255.08,-442.94 1281.5,-453 1340.54,-475.47 1393.5,-477.33 1393.5,-540.5 1393.5,-826 1393.5,-826 1393.5,-826 1393.5,-857.07 1358.6,-856.68 1350.96,-880.87"/>
<polygon fill="#c000a5" stroke="#c000a5" points="1347.47,-880.6 1349.5,-891 1354.39,-881.6 1347.47,-880.6"/>
<text text-anchor="middle" x="1403" y="-659.3" font-family="Times,serif" font-size="14.00" fill="#c000a5">wr</text>
</g>
<!-- T22048&#45;&gt;T22058 -->
<g id="edge12" class="edge">
<title>T22048:f1&#45;&gt;T22058:f1</title>
<path fill="none" stroke="#c000a5" d="M1220.5,-435C1220.5,-489.29 1302.2,-440.29 1331.5,-486 1358.21,-527.67 1343.72,-552.28 1322.5,-597 1308.89,-625.68 1294.47,-625.09 1272.5,-648 1252.26,-669.11 1243.33,-671.41 1227.5,-696 1199.74,-739.11 1182.79,-753.37 1180.71,-799.9"/>
<polygon fill="#c000a5" stroke="#c000a5" points="1177.21,-799.93 1180.5,-810 1184.21,-800.08 1177.21,-799.93"/>
<text text-anchor="middle" x="1321" y="-618.8" font-family="Times,serif" font-size="14.00" fill="#c000a5">wr</text>
</g>
<!-- T22059&#45;&gt;T22061 -->
<g id="edge14" class="edge">
<title>T22059:f1&#45;&gt;T22061:f2</title>
<path fill="none" stroke="#c000a5" d="M873.5,-405C873.5,-354.81 814.67,-382.08 765.5,-372 749.88,-368.8 638.51,-371.51 607.5,-360.56"/>
<polygon fill="#c000a5" stroke="#c000a5" points="609.45,-357.63 599.5,-354 605.01,-363.05 609.45,-357.63"/>
<text text-anchor="middle" x="879" y="-375.8" font-family="Times,serif" font-size="14.00" fill="#c000a5">wr</text>
</g>
<!-- T22021 -->
<g id="node10" class="node">
<title>T22021</title>
<polygon fill="none" stroke="#0058ad" points="543,-648.5 543,-677.5 774,-677.5 774,-648.5 543,-648.5"/>
<text text-anchor="middle" x="580" y="-659.3" font-family="Times,serif" font-size="14.00" fill="#0058ad">w 834 3</text>
<polyline fill="none" stroke="#0058ad" points="617,-648.5 617,-677.5 "/>
<text text-anchor="middle" x="654" y="-659.3" font-family="Times,serif" font-size="14.00" fill="#0058ad">w 838 5</text>
<polyline fill="none" stroke="#0058ad" points="691,-648.5 691,-677.5 "/>
<text text-anchor="middle" x="732.5" y="-659.3" font-family="Times,serif" font-size="14.00" fill="#0058ad">w 841 14</text>
</g>
<!-- T22251&#45;&gt;T22021 -->
<g id="edge15" class="edge">
<title>T22251:f2&#45;&gt;T22021:f0</title>
<path fill="none" stroke="#5b00c0" d="M574.5,-729C574.5,-710.14 577.93,-703.16 579.11,-688.38"/>
<polygon fill="#5b00c0" stroke="#5b00c0" points="582.62,-688.13 579.5,-678 575.62,-687.86 582.62,-688.13"/>
<text text-anchor="middle" x="588" y="-699.8" font-family="Times,serif" font-size="14.00" fill="#5b00c0">rw</text>
</g>
<!-- T22035 -->
<g id="node9" class="node">
<title>T22035</title>
<polygon fill="none" stroke="#0058ad" points="682,-567.5 682,-596.5 987,-596.5 987,-567.5 682,-567.5"/>
<text text-anchor="middle" x="720.5" y="-578.3" font-family="Times,serif" font-size="14.00" fill="#0058ad">r 842 nil</text>
<polyline fill="none" stroke="#0058ad" points="759,-567.5 759,-596.5 "/>
<text text-anchor="middle" x="797.5" y="-578.3" font-family="Times,serif" font-size="14.00" fill="#0058ad">r 840 10</text>
<polyline fill="none" stroke="#0058ad" points="836,-567.5 836,-596.5 "/>
<text text-anchor="middle" x="877.5" y="-578.3" font-family="Times,serif" font-size="14.00" fill="#0058ad">w 840 13</text>
<polyline fill="none" stroke="#0058ad" points="919,-567.5 919,-596.5 "/>
<text text-anchor="middle" x="953" y="-578.3" font-family="Times,serif" font-size="14.00" fill="#0058ad">r 838 5</text>
</g>
<!-- T22035&#45;&gt;T22040 -->
<g id="edge17" class="edge">
<title>T22035:f2&#45;&gt;T22040:f3</title>
<path fill="none" stroke="#c000a5" d="M877.5,-567C877.5,-552.47 1124.14,-551.25 1138.5,-549 1199.1,-539.52 1233.08,-562.99 1272.5,-516 1273.71,-514.56 1274.84,-512.74 1275.7,-510.88"/>
<polygon fill="#c000a5" stroke="#c000a5" points="1279.09,-510 1273.5,-501 1272.26,-511.52 1279.09,-510"/>
<text text-anchor="middle" x="1262" y="-537.8" font-family="Times,serif" font-size="14.00" fill="#c000a5">wr</text>
</g>
<!-- T22035&#45;&gt;T22048 -->
<g id="edge16" class="edge">
<title>T22035:f0&#45;&gt;T22048:f1</title>
<path fill="none" stroke="#5b00c0" d="M720.5,-567C720.5,-535.74 758.91,-559.08 788.5,-549 856.95,-525.69 870.3,-510.01 938.5,-486 988.66,-468.34 1001.32,-463.22 1053.5,-453 1069.24,-449.92 1181.26,-452.62 1212.46,-441.6"/>
<polygon fill="#5b00c0" stroke="#5b00c0" points="1214.99,-444.05 1220.5,-435 1210.55,-438.64 1214.99,-444.05"/>
<text text-anchor="middle" x="948" y="-497.3" font-family="Times,serif" font-size="14.00" fill="#5b00c0">rw</text>
</g>
<!-- T22035&#45;&gt;T22059 -->
<g id="edge21" class="edge">
<title>T22035:f0&#45;&gt;T22059:f1</title>
<path fill="none" stroke="#5b00c0" d="M720.5,-567C720.5,-480.87 861.21,-521.13 872.75,-445.38"/>
<polygon fill="#5b00c0" stroke="#5b00c0" points="876.27,-445.23 873.5,-435 869.29,-444.72 876.27,-445.23"/>
<text text-anchor="middle" x="850" y="-497.3" font-family="Times,serif" font-size="14.00" fill="#5b00c0">rw</text>
</g>
<!-- T22035&#45;&gt;T22071 -->
<g id="edge20" class="edge">
<title>T22035:f0&#45;&gt;T22071:f2</title>
<path fill="none" stroke="#5b00c0" d="M680.5,-582C565.42,-582 416.61,-492.38 491.5,-405 553.84,-332.26 609.42,-383.68 704.5,-372 723.69,-369.64 860.89,-374.54 894.89,-361.01"/>
<polygon fill="#5b00c0" stroke="#5b00c0" points="897.51,-363.35 902.5,-354 892.77,-358.2 897.51,-363.35"/>
<text text-anchor="middle" x="483" y="-456.8" font-family="Times,serif" font-size="14.00" fill="#5b00c0">rw</text>
</g>
<!-- T22035&#45;&gt;T22058 -->
<g id="edge19" class="edge">
<title>T22035:f0&#45;&gt;T22058:f2</title>
<path fill="none" stroke="#5b00c0" d="M720.5,-597C720.5,-627.29 963.71,-605.61 992.5,-615 1034.17,-628.59 1234.11,-718.13 1250.44,-799.6"/>
<polygon fill="#5b00c0" stroke="#5b00c0" points="1247,-800.41 1251.5,-810 1253.97,-799.7 1247,-800.41"/>
<text text-anchor="middle" x="1185" y="-699.8" font-family="Times,serif" font-size="14.00" fill="#5b00c0">rw</text>
</g>
<!-- T22035&#45;&gt;T22070 -->
<g id="edge18" class="edge">
<title>T22035:f0&#45;&gt;T22070:f1</title>
<path fill="none" stroke="#5b00c0" d="M680.5,-582C613.22,-582 618.74,-513 619.44,-445.39"/>
<polygon fill="#5b00c0" stroke="#5b00c0" points="622.94,-445.02 619.5,-435 615.94,-444.98 622.94,-445.02"/>
<text text-anchor="middle" x="630" y="-497.3" font-family="Times,serif" font-size="14.00" fill="#5b00c0">rw</text>
</g>
<!-- T22021&#45;&gt;T22059 -->
<g id="edge24" class="edge">
<title>T22021:f1&#45;&gt;T22059:f2</title>
<path fill="none" stroke="#c000a5" d="M653.5,-648C653.5,-611.02 649.4,-595.88 672.5,-567 691.76,-542.92 904.87,-480.12 939.7,-444"/>
<polygon fill="#c000a5" stroke="#c000a5" points="942.88,-445.47 944.5,-435 936.7,-442.17 942.88,-445.47"/>
<text text-anchor="middle" x="748" y="-537.8" font-family="Times,serif" font-size="14.00" fill="#c000a5">wr</text>
</g>
<!-- T22021&#45;&gt;T22035 -->
<g id="edge23" class="edge">
<title>T22021:f1&#45;&gt;T22035:f3</title>
<path fill="none" stroke="#c000a5" d="M653.5,-648C653.5,-626.13 825.94,-618.66 847.5,-615 867.37,-611.62 929.17,-618.14 948,-605.91"/>
<polygon fill="#c000a5" stroke="#c000a5" points="951.22,-607.35 953.5,-597 945.27,-603.67 951.22,-607.35"/>
<text text-anchor="middle" x="857" y="-618.8" font-family="Times,serif" font-size="14.00" fill="#c000a5">wr</text>
</g>
<!-- T22029 -->
<g id="node14" class="node">
<title>T22029</title>
<polygon fill="none" stroke="#0058ad" points="1005,-567.5 1005,-596.5 1242,-596.5 1242,-567.5 1005,-567.5"/>
<text text-anchor="middle" x="1043.5" y="-578.3" font-family="Times,serif" font-size="14.00" fill="#0058ad">r 841 14</text>
<polyline fill="none" stroke="#0058ad" points="1082,-567.5 1082,-596.5 "/>
<text text-anchor="middle" x="1123.5" y="-578.3" font-family="Times,serif" font-size="14.00" fill="#0058ad">w 833 14</text>
<polyline fill="none" stroke="#0058ad" points="1165,-567.5 1165,-596.5 "/>
<text text-anchor="middle" x="1203.5" y="-578.3" font-family="Times,serif" font-size="14.00" fill="#0058ad">r 841 14</text>
</g>
<!-- T22021&#45;&gt;T22029 -->
<g id="edge22" class="edge">
<title>T22021:f2&#45;&gt;T22029:f0</title>
<path fill="none" stroke="#c000a5" d="M775.5,-663C877.58,-663 916.52,-661.68 995.5,-597 997.51,-595.35 998.19,-593.07 998.52,-590.78"/>
<polygon fill="#c000a5" stroke="#c000a5" points="1001.61,-592.43 1003.5,-582 995.52,-588.97 1001.61,-592.43"/>
<text text-anchor="middle" x="979" y="-618.8" font-family="Times,serif" font-size="14.00" fill="#c000a5">wr</text>
</g>
<!-- T22142&#45;&gt;T22146 -->
<g id="edge25" class="edge">
<title>T22142:f1&#45;&gt;T22146:f0</title>
<path fill="none" stroke="#c000a5" d="M647.5,-162C647.5,-29.77 70.19,-235.42 39.75,-121.01"/>
<polygon fill="#c000a5" stroke="#c000a5" points="43.21,-120.49 38.5,-111 36.26,-121.36 43.21,-120.49"/>
<text text-anchor="middle" x="651" y="-132.8" font-family="Times,serif" font-size="14.00" fill="#c000a5">wr</text>
</g>
<!-- T22071&#45;&gt;T22073 -->
<g id="edge26" class="edge">
<title>T22071:f1&#45;&gt;T22073:f1</title>
<path fill="none" stroke="#c000a5" d="M823.5,-324C823.5,-175.21 500.2,-413.69 485.05,-283.05"/>
<polygon fill="#c000a5" stroke="#c000a5" points="488.54,-282.79 484.5,-273 481.55,-283.18 488.54,-282.79"/>
<text text-anchor="middle" x="830" y="-294.8" font-family="Times,serif" font-size="14.00" fill="#c000a5">wr</text>
</g>
<!-- T22058&#45;&gt;T22251 -->
<g id="edge28" class="edge">
<title>T22058:f0&#45;&gt;T22251:f0</title>
<path fill="none" stroke="#5b00c0" d="M1068.5,-825C1034.59,-825 496.09,-798.95 426.82,-765.92"/>
<polygon fill="#5b00c0" stroke="#5b00c0" points="429.17,-763.33 419.5,-759 424.36,-768.41 429.17,-763.33"/>
<text text-anchor="middle" x="579" y="-780.8" font-family="Times,serif" font-size="14.00" fill="#5b00c0">rw</text>
</g>
<!-- T22058&#45;&gt;T22142 -->
<g id="edge27" class="edge">
<title>T22058:f0&#45;&gt;T22142:f0</title>
<path fill="none" stroke="#5b00c0" d="M1107.5,-810C1107.5,-701.11 1405.5,-529.89 1405.5,-421 1405.5,-421 1405.5,-421 1405.5,-257 1405.5,-212.96 658.44,-235.73 576.73,-199"/>
<polygon fill="#5b00c0" stroke="#5b00c0" points="579.12,-196.44 569.5,-192 574.25,-201.47 579.12,-196.44"/>
<text text-anchor="middle" x="1387" y="-497.3" font-family="Times,serif" font-size="14.00" fill="#5b00c0">rw</text>
</g>
<!-- T22029&#45;&gt;T22040 -->
<g id="edge29" class="edge">
<title>T22029:f1&#45;&gt;T22040:f1</title>
<path fill="none" stroke="#c000a5" d="M1123.5,-567C1123.5,-541.78 1092.67,-543.82 1084.48,-525.84"/>
<polygon fill="#c000a5" stroke="#c000a5" points="1087.9,-525.11 1082.5,-516 1081.04,-526.49 1087.9,-525.11"/>
<text text-anchor="middle" x="1125" y="-537.8" font-family="Times,serif" font-size="14.00" fill="#c000a5">wr</text>
</g>
<!-- T22070&#45;&gt;T22071 -->
<g id="edge30" class="edge">
<title>T22070:f2&#45;&gt;T22071:f0</title>
<path fill="none" stroke="#c000a5" d="M697.5,-405C697.5,-375.57 740.36,-384.34 750.41,-363.86"/>
<polygon fill="#c000a5" stroke="#c000a5" points="753.85,-364.51 752.5,-354 747,-363.06 753.85,-364.51"/>
<text text-anchor="middle" x="752" y="-375.8" font-family="Times,serif" font-size="14.00" fill="#c000a5">wr</text>
</g>
<!-- T22170&#45;&gt;T22021 -->
<g id="edge31" class="edge">
<title>T22170:f2&#45;&gt;T22021:f0</title>
<path fill="none" stroke="#5b00c0" d="M347.5,-30C347.5,-58.92 344.5,-66.08 344.5,-95 344.5,-299.5 344.5,-299.5 344.5,-299.5 344.5,-342.66 477.82,-625.54 532.06,-659.64"/>
<polygon fill="#5b00c0" stroke="#5b00c0" points="530.91,-662.94 541.5,-663 533.25,-656.35 530.91,-662.94"/>
<text text-anchor="middle" x="370" y="-335.3" font-family="Times,serif" font-size="14.00" fill="#5b00c0">rw</text>
</g>
</g>
</svg>
