<?xml version="1.0" encoding="UTF-8" standalone="no"?>
<!DOCTYPE svg PUBLIC "-//W3C//DTD SVG 1.1//EN"
 "http://www.w3.org/Graphics/SVG/1.1/DTD/svg11.dtd">
<!-- Generated by graphviz version 2.43.0 (0)
 -->
<!-- Title: a_graph Pages: 1 -->
<svg width="487pt" height="119pt"
 viewBox="0.00 0.00 487.00 119.00" xmlns="http://www.w3.org/2000/svg" xmlns:xlink="http://www.w3.org/1999/xlink">
<g id="graph0" class="graph" transform="scale(1 1) rotate(0) translate(4 115)">
<title>a_graph</title>
<polygon fill="white" stroke="transparent" points="-4,4 -4,-115 483,-115 483,4 -4,4"/>
<!-- T26117 -->
<g id="node1" class="node">
<title>T26117</title>
<polygon fill="none" stroke="#0058ad" points="156,-81.5 156,-110.5 479,-110.5 479,-81.5 156,-81.5"/>
<text text-anchor="middle" x="199" y="-92.3" font-family="Times,serif" font-size="14.00" fill="#0058ad">r 1003 nil</text>
<polyline fill="none" stroke="#0058ad" points="242,-81.5 242,-110.5 "/>
<text text-anchor="middle" x="283.5" y="-92.3" font-family="Times,serif" font-size="14.00" fill="#0058ad">w 1003 2</text>
<polyline fill="none" stroke="#0058ad" points="325,-81.5 325,-110.5 "/>
<text text-anchor="middle" x="363.5" y="-92.3" font-family="Times,serif" font-size="14.00" fill="#0058ad">r 1000 3</text>
<polyline fill="none" stroke="#0058ad" points="402,-81.5 402,-110.5 "/>
<text text-anchor="middle" x="440.5" y="-92.3" font-family="Times,serif" font-size="14.00" fill="#0058ad">r 1003 2</text>
</g>
<!-- T26115 -->
<g id="node2" class="node">
<title>T26115</title>
<polygon fill="none" stroke="#0058ad" points="0,-0.5 0,-29.5 335,-29.5 335,-0.5 0,-0.5"/>
<text text-anchor="middle" x="41.5" y="-11.3" font-family="Times,serif" font-size="14.00" fill="#0058ad">w 1000 5</text>
<polyline fill="none" stroke="#0058ad" points="83,-0.5 83,-29.5 "/>
<text text-anchor="middle" x="124.5" y="-11.3" font-family="Times,serif" font-size="14.00" fill="#0058ad">w 999 16</text>
<polyline fill="none" stroke="#0058ad" points="166,-0.5 166,-29.5 "/>
<text text-anchor="middle" x="209" y="-11.3" font-family="Times,serif" font-size="14.00" fill="#0058ad">r 1003 nil</text>
<polyline fill="none" stroke="#0058ad" points="252,-0.5 252,-29.5 "/>
<text text-anchor="middle" x="293.5" y="-11.3" font-family="Times,serif" font-size="14.00" fill="#0058ad">w 1003 1</text>
</g>
<!-- T26117&#45;&gt;T26115 -->
<g id="edge1" class="edge">
<title>T26117:f0&#45;&gt;T26115:f3</title>
<path fill="none" stroke="#5b00c0" d="M198.5,-81C198.5,-60.26 213.65,-58.56 231.5,-48 252.34,-35.68 282.15,-51.76 290.96,-39.85"/>
<polygon fill="#5b00c0" stroke="#5b00c0" points="294.39,-40.56 293.5,-30 287.61,-38.81 294.39,-40.56"/>
<text text-anchor="middle" x="241" y="-51.8" font-family="Times,serif" font-size="14.00" fill="#5b00c0">rw</text>
</g>
<!-- T26115&#45;&gt;T26117 -->
<g id="edge2" class="edge">
<title>T26115:f2&#45;&gt;T26117:f1</title>
<path fill="none" stroke="#5b00c0" d="M209.5,-30C209.5,-49.9 234.07,-36.77 250.5,-48 264.28,-57.42 277.25,-59.62 281.79,-70.92"/>
<polygon fill="#5b00c0" stroke="#5b00c0" points="278.38,-71.73 283.5,-81 285.28,-70.56 278.38,-71.73"/>
<text text-anchor="middle" x="285" y="-51.8" font-family="Times,serif" font-size="14.00" fill="#5b00c0">rw</text>
</g>
</g>
</svg>
