<?xml version="1.0" encoding="UTF-8" standalone="no"?>
<!DOCTYPE svg PUBLIC "-//W3C//DTD SVG 1.1//EN"
 "http://www.w3.org/Graphics/SVG/1.1/DTD/svg11.dtd">
<!-- Generated by graphviz version 2.43.0 (0)
 -->
<!-- Title: a_graph Pages: 1 -->
<svg width="840pt" height="686pt"
 viewBox="0.00 0.00 840.00 686.00" xmlns="http://www.w3.org/2000/svg" xmlns:xlink="http://www.w3.org/1999/xlink">
<g id="graph0" class="graph" transform="scale(1 1) rotate(0) translate(4 682)">
<title>a_graph</title>
<polygon fill="white" stroke="transparent" points="-4,4 -4,-682 836,-682 836,4 -4,4"/>
<!-- T4441 -->
<g id="node1" class="node">
<title>T4441</title>
<polygon fill="none" stroke="#0058ad" points="370,-648.5 370,-677.5 681,-677.5 681,-648.5 370,-648.5"/>
<text text-anchor="middle" x="411.5" y="-659.3" font-family="Times,serif" font-size="14.00" fill="#0058ad">w 172 15</text>
<polyline fill="none" stroke="#0058ad" points="453,-648.5 453,-677.5 "/>
<text text-anchor="middle" x="487" y="-659.3" font-family="Times,serif" font-size="14.00" fill="#0058ad">r 169 6</text>
<polyline fill="none" stroke="#0058ad" points="521,-648.5 521,-677.5 "/>
<text text-anchor="middle" x="562.5" y="-659.3" font-family="Times,serif" font-size="14.00" fill="#0058ad">w 175 15</text>
<polyline fill="none" stroke="#0058ad" points="604,-648.5 604,-677.5 "/>
<text text-anchor="middle" x="642.5" y="-659.3" font-family="Times,serif" font-size="14.00" fill="#0058ad">r 175 15</text>
</g>
<!-- T4463 -->
<g id="node8" class="node">
<title>T4463</title>
<polygon fill="none" stroke="#0058ad" points="521,-567.5 521,-596.5 832,-596.5 832,-567.5 521,-567.5"/>
<text text-anchor="middle" x="559.5" y="-578.3" font-family="Times,serif" font-size="14.00" fill="#0058ad">r 175 15</text>
<polyline fill="none" stroke="#0058ad" points="598,-567.5 598,-596.5 "/>
<text text-anchor="middle" x="635" y="-578.3" font-family="Times,serif" font-size="14.00" fill="#0058ad">w 177 1</text>
<polyline fill="none" stroke="#0058ad" points="672,-567.5 672,-596.5 "/>
<text text-anchor="middle" x="713.5" y="-578.3" font-family="Times,serif" font-size="14.00" fill="#0058ad">w 169 14</text>
<polyline fill="none" stroke="#0058ad" points="755,-567.5 755,-596.5 "/>
<text text-anchor="middle" x="793.5" y="-578.3" font-family="Times,serif" font-size="14.00" fill="#0058ad">r 176 nil</text>
</g>
<!-- T4441&#45;&gt;T4463 -->
<g id="edge1" class="edge">
<title>T4441:f2&#45;&gt;T4463:f0</title>
<path fill="none" stroke="#c000a5" d="M562.5,-648C562.5,-629.2 560.44,-622.13 559.74,-607.36"/>
<polygon fill="#c000a5" stroke="#c000a5" points="563.23,-606.92 559.5,-597 556.23,-607.08 563.23,-606.92"/>
<text text-anchor="middle" x="571" y="-618.8" font-family="Times,serif" font-size="14.00" fill="#c000a5">wr</text>
</g>
<!-- T4510 -->
<g id="node2" class="node">
<title>T4510</title>
<polygon fill="none" stroke="#0058ad" points="634.5,-486.5 634.5,-515.5 794.5,-515.5 794.5,-486.5 634.5,-486.5"/>
<text text-anchor="middle" x="676" y="-497.3" font-family="Times,serif" font-size="14.00" fill="#0058ad">w 176 12</text>
<polyline fill="none" stroke="#0058ad" points="717.5,-486.5 717.5,-515.5 "/>
<text text-anchor="middle" x="756" y="-497.3" font-family="Times,serif" font-size="14.00" fill="#0058ad">r 176 12</text>
</g>
<!-- T4523 -->
<g id="node3" class="node">
<title>T4523</title>
<polygon fill="none" stroke="#0058ad" points="145.5,-405.5 145.5,-434.5 299.5,-434.5 299.5,-405.5 145.5,-405.5"/>
<text text-anchor="middle" x="184" y="-416.3" font-family="Times,serif" font-size="14.00" fill="#0058ad">r 176 12</text>
<polyline fill="none" stroke="#0058ad" points="222.5,-405.5 222.5,-434.5 "/>
<text text-anchor="middle" x="261" y="-416.3" font-family="Times,serif" font-size="14.00" fill="#0058ad">r 179 nil</text>
</g>
<!-- T4510&#45;&gt;T4523 -->
<g id="edge2" class="edge">
<title>T4510:f0&#45;&gt;T4523:f0</title>
<path fill="none" stroke="#c000a5" d="M633.5,-501C586.12,-501 232.07,-487.41 188,-444.07"/>
<polygon fill="#c000a5" stroke="#c000a5" points="191.08,-442.4 183.5,-435 184.81,-445.51 191.08,-442.4"/>
<text text-anchor="middle" x="260" y="-456.8" font-family="Times,serif" font-size="14.00" fill="#c000a5">wr</text>
</g>
<!-- T4525 -->
<g id="node5" class="node">
<title>T4525</title>
<polygon fill="none" stroke="#0058ad" points="0,-324.5 0,-353.5 225,-353.5 225,-324.5 0,-324.5"/>
<text text-anchor="middle" x="37" y="-335.3" font-family="Times,serif" font-size="14.00" fill="#0058ad">w 178 4</text>
<polyline fill="none" stroke="#0058ad" points="74,-324.5 74,-353.5 "/>
<text text-anchor="middle" x="112.5" y="-335.3" font-family="Times,serif" font-size="14.00" fill="#0058ad">r 179 nil</text>
<polyline fill="none" stroke="#0058ad" points="151,-324.5 151,-353.5 "/>
<text text-anchor="middle" x="188" y="-335.3" font-family="Times,serif" font-size="14.00" fill="#0058ad">w 179 5</text>
</g>
<!-- T4523&#45;&gt;T4525 -->
<g id="edge3" class="edge">
<title>T4523:f1&#45;&gt;T4525:f2</title>
<path fill="none" stroke="#5b00c0" d="M261.5,-405C261.5,-388.29 242.34,-396.36 228.5,-387 212.84,-376.41 195.96,-376.5 190.39,-364.15"/>
<polygon fill="#5b00c0" stroke="#5b00c0" points="193.77,-363.19 188.5,-354 186.89,-364.47 193.77,-363.19"/>
<text text-anchor="middle" x="238" y="-375.8" font-family="Times,serif" font-size="14.00" fill="#5b00c0">rw</text>
</g>
<!-- T4552 -->
<g id="node6" class="node">
<title>T4552</title>
<polygon fill="none" stroke="#0058ad" points="71.5,-243.5 71.5,-272.5 305.5,-272.5 305.5,-243.5 71.5,-243.5"/>
<text text-anchor="middle" x="113" y="-254.3" font-family="Times,serif" font-size="14.00" fill="#0058ad">w 179 15</text>
<polyline fill="none" stroke="#0058ad" points="154.5,-243.5 154.5,-272.5 "/>
<text text-anchor="middle" x="191.5" y="-254.3" font-family="Times,serif" font-size="14.00" fill="#0058ad">w 173 7</text>
<polyline fill="none" stroke="#0058ad" points="228.5,-243.5 228.5,-272.5 "/>
<text text-anchor="middle" x="267" y="-254.3" font-family="Times,serif" font-size="14.00" fill="#0058ad">r 122 nil</text>
</g>
<!-- T4523&#45;&gt;T4552 -->
<g id="edge4" class="edge">
<title>T4523:f1&#45;&gt;T4552:f0</title>
<path fill="none" stroke="#5b00c0" d="M261.5,-405C261.5,-367.05 260.32,-351.81 234.5,-324 226.03,-314.87 144.26,-295.13 119.54,-280.38"/>
<polygon fill="#5b00c0" stroke="#5b00c0" points="121.94,-277.82 112.5,-273 116.87,-282.65 121.94,-277.82"/>
<text text-anchor="middle" x="264" y="-335.3" font-family="Times,serif" font-size="14.00" fill="#5b00c0">rw</text>
</g>
<!-- T4307 -->
<g id="node4" class="node">
<title>T4307</title>
<polygon fill="none" stroke="#0058ad" points="216,-81.5 216,-110.5 459,-110.5 459,-81.5 216,-81.5"/>
<text text-anchor="middle" x="254.5" y="-92.3" font-family="Times,serif" font-size="14.00" fill="#0058ad">r 170 10</text>
<polyline fill="none" stroke="#0058ad" points="293,-81.5 293,-110.5 "/>
<text text-anchor="middle" x="334.5" y="-92.3" font-family="Times,serif" font-size="14.00" fill="#0058ad">w 170 11</text>
<polyline fill="none" stroke="#0058ad" points="376,-81.5 376,-110.5 "/>
<text text-anchor="middle" x="417.5" y="-92.3" font-family="Times,serif" font-size="14.00" fill="#0058ad">w 170 12</text>
</g>
<!-- T4323 -->
<g id="node9" class="node">
<title>T4323</title>
<polygon fill="none" stroke="#0058ad" points="377.5,-0.5 377.5,-29.5 605.5,-29.5 605.5,-0.5 377.5,-0.5"/>
<text text-anchor="middle" x="416" y="-11.3" font-family="Times,serif" font-size="14.00" fill="#0058ad">r 170 12</text>
<polyline fill="none" stroke="#0058ad" points="454.5,-0.5 454.5,-29.5 "/>
<text text-anchor="middle" x="491.5" y="-11.3" font-family="Times,serif" font-size="14.00" fill="#0058ad">w 169 6</text>
<polyline fill="none" stroke="#0058ad" points="528.5,-0.5 528.5,-29.5 "/>
<text text-anchor="middle" x="567" y="-11.3" font-family="Times,serif" font-size="14.00" fill="#0058ad">r 170 12</text>
</g>
<!-- T4307&#45;&gt;T4323 -->
<g id="edge5" class="edge">
<title>T4307:f2&#45;&gt;T4323:f0</title>
<path fill="none" stroke="#c000a5" d="M417.5,-81C417.5,-62.21 416.13,-55.12 415.66,-40.36"/>
<polygon fill="#c000a5" stroke="#c000a5" points="419.15,-39.95 415.5,-30 412.15,-40.05 419.15,-39.95"/>
<text text-anchor="middle" x="426" y="-51.8" font-family="Times,serif" font-size="14.00" fill="#c000a5">wr</text>
</g>
<!-- T4525&#45;&gt;T4552 -->
<g id="edge6" class="edge">
<title>T4525:f1&#45;&gt;T4552:f0</title>
<path fill="none" stroke="#5b00c0" d="M112.5,-324C112.5,-305.23 112.5,-298.12 112.5,-283.35"/>
<polygon fill="#5b00c0" stroke="#5b00c0" points="116,-283 112.5,-273 109,-283 116,-283"/>
<text text-anchor="middle" x="122" y="-294.8" font-family="Times,serif" font-size="14.00" fill="#5b00c0">rw</text>
</g>
<!-- T4306 -->
<g id="node7" class="node">
<title>T4306</title>
<polygon fill="none" stroke="#0058ad" points="63,-162.5 63,-191.5 356,-191.5 356,-162.5 63,-162.5"/>
<text text-anchor="middle" x="97" y="-173.3" font-family="Times,serif" font-size="14.00" fill="#0058ad">r 170 6</text>
<polyline fill="none" stroke="#0058ad" points="131,-162.5 131,-191.5 "/>
<text text-anchor="middle" x="168" y="-173.3" font-family="Times,serif" font-size="14.00" fill="#0058ad">w 122 4</text>
<polyline fill="none" stroke="#0058ad" points="205,-162.5 205,-191.5 "/>
<text text-anchor="middle" x="239" y="-173.3" font-family="Times,serif" font-size="14.00" fill="#0058ad">r 167 9</text>
<polyline fill="none" stroke="#0058ad" points="273,-162.5 273,-191.5 "/>
<text text-anchor="middle" x="314.5" y="-173.3" font-family="Times,serif" font-size="14.00" fill="#0058ad">w 170 10</text>
</g>
<!-- T4552&#45;&gt;T4306 -->
<g id="edge7" class="edge">
<title>T4552:f2&#45;&gt;T4306:f1</title>
<path fill="none" stroke="#5b00c0" d="M267.5,-243C267.5,-197.01 182.51,-234.87 169.24,-201.98"/>
<polygon fill="#5b00c0" stroke="#5b00c0" points="172.66,-201.25 167.5,-192 165.77,-202.45 172.66,-201.25"/>
<text text-anchor="middle" x="268" y="-213.8" font-family="Times,serif" font-size="14.00" fill="#5b00c0">rw</text>
</g>
<!-- T4306&#45;&gt;T4307 -->
<g id="edge8" class="edge">
<title>T4306:f3&#45;&gt;T4307:f0</title>
<path fill="none" stroke="#c000a5" d="M314.5,-162C314.5,-130.97 267.32,-142.39 256.64,-120.97"/>
<polygon fill="#c000a5" stroke="#c000a5" points="260.02,-120.05 254.5,-111 253.17,-121.51 260.02,-120.05"/>
<text text-anchor="middle" x="313" y="-132.8" font-family="Times,serif" font-size="14.00" fill="#c000a5">wr</text>
</g>
<!-- T4463&#45;&gt;T4510 -->
<g id="edge9" class="edge">
<title>T4463:f3&#45;&gt;T4510:f0</title>
<path fill="none" stroke="#5b00c0" d="M793.5,-567C793.5,-513.88 691.51,-564.83 677.17,-526.35"/>
<polygon fill="#5b00c0" stroke="#5b00c0" points="680.55,-525.32 675.5,-516 673.64,-526.43 680.55,-525.32"/>
<text text-anchor="middle" x="794" y="-537.8" font-family="Times,serif" font-size="14.00" fill="#5b00c0">rw</text>
</g>
<!-- T4323&#45;&gt;T4441 -->
<g id="edge10" class="edge">
<title>T4323:f1&#45;&gt;T4441:f1</title>
<path fill="none" stroke="#c000a5" d="M491.5,-30C491.5,-58.89 490.5,-66.11 490.5,-95 490.5,-583 490.5,-583 490.5,-583 490.5,-608.21 487.46,-616.86 486.68,-637.8"/>
<polygon fill="#c000a5" stroke="#c000a5" points="483.18,-637.94 486.5,-648 490.18,-638.06 483.18,-637.94"/>
<text text-anchor="middle" x="500" y="-335.3" font-family="Times,serif" font-size="14.00" fill="#c000a5">wr</text>
</g>
</g>
</svg>
