<?xml version="1.0" encoding="UTF-8" standalone="no"?>
<!DOCTYPE svg PUBLIC "-//W3C//DTD SVG 1.1//EN"
 "http://www.w3.org/Graphics/SVG/1.1/DTD/svg11.dtd">
<!-- Generated by graphviz version 2.43.0 (0)
 -->
<!-- Title: a_graph Pages: 1 -->
<svg width="1009pt" height="362pt"
 viewBox="0.00 0.00 1009.00 362.00" xmlns="http://www.w3.org/2000/svg" xmlns:xlink="http://www.w3.org/1999/xlink">
<g id="graph0" class="graph" transform="scale(1 1) rotate(0) translate(4 358)">
<title>a_graph</title>
<polygon fill="white" stroke="transparent" points="-4,4 -4,-358 1005,-358 1005,4 -4,4"/>
<!-- T17049 -->
<g id="node1" class="node">
<title>T17049</title>
<polygon fill="none" stroke="#0058ad" points="198,-324.5 198,-353.5 494,-353.5 494,-324.5 198,-324.5"/>
<text text-anchor="middle" x="232" y="-335.3" font-family="Times,serif" font-size="14.00" fill="#0058ad">r 649 8</text>
<polyline fill="none" stroke="#0058ad" points="266,-324.5 266,-353.5 "/>
<text text-anchor="middle" x="304.5" y="-335.3" font-family="Times,serif" font-size="14.00" fill="#0058ad">r 653 13</text>
<polyline fill="none" stroke="#0058ad" points="343,-324.5 343,-353.5 "/>
<text text-anchor="middle" x="381.5" y="-335.3" font-family="Times,serif" font-size="14.00" fill="#0058ad">r 654 nil</text>
<polyline fill="none" stroke="#0058ad" points="420,-324.5 420,-353.5 "/>
<text text-anchor="middle" x="457" y="-335.3" font-family="Times,serif" font-size="14.00" fill="#0058ad">w 654 4</text>
</g>
<!-- T17007 -->
<g id="node7" class="node">
<title>T17007</title>
<polygon fill="none" stroke="#0058ad" points="604,-243.5 604,-272.5 900,-272.5 900,-243.5 604,-243.5"/>
<text text-anchor="middle" x="641" y="-254.3" font-family="Times,serif" font-size="14.00" fill="#0058ad">w 654 1</text>
<polyline fill="none" stroke="#0058ad" points="678,-243.5 678,-272.5 "/>
<text text-anchor="middle" x="716.5" y="-254.3" font-family="Times,serif" font-size="14.00" fill="#0058ad">r 652 16</text>
<polyline fill="none" stroke="#0058ad" points="755,-243.5 755,-272.5 "/>
<text text-anchor="middle" x="789" y="-254.3" font-family="Times,serif" font-size="14.00" fill="#0058ad">r 653 9</text>
<polyline fill="none" stroke="#0058ad" points="823,-243.5 823,-272.5 "/>
<text text-anchor="middle" x="861.5" y="-254.3" font-family="Times,serif" font-size="14.00" fill="#0058ad">r 652 16</text>
</g>
<!-- T17049&#45;&gt;T17007 -->
<g id="edge1" class="edge">
<title>T17049:f2&#45;&gt;T17007:f0</title>
<path fill="none" stroke="#5b00c0" d="M382,-324C382,-275.75 532.44,-259.85 592.83,-258.16"/>
<polygon fill="#5b00c0" stroke="#5b00c0" points="593.05,-261.65 603,-258 592.95,-254.65 593.05,-261.65"/>
<text text-anchor="middle" x="421.5" y="-294.8" font-family="Times,serif" font-size="14.00" fill="#5b00c0">rw</text>
</g>
<!-- T17031 -->
<g id="node2" class="node">
<title>T17031</title>
<polygon fill="none" stroke="#0058ad" points="0,-81.5 0,-110.5 222,-110.5 222,-81.5 0,-81.5"/>
<text text-anchor="middle" x="37" y="-92.3" font-family="Times,serif" font-size="14.00" fill="#0058ad">w 655 8</text>
<polyline fill="none" stroke="#0058ad" points="74,-81.5 74,-110.5 "/>
<text text-anchor="middle" x="111" y="-92.3" font-family="Times,serif" font-size="14.00" fill="#0058ad">w 655 9</text>
<polyline fill="none" stroke="#0058ad" points="148,-81.5 148,-110.5 "/>
<text text-anchor="middle" x="185" y="-92.3" font-family="Times,serif" font-size="14.00" fill="#0058ad">w 649 8</text>
</g>
<!-- T17031&#45;&gt;T17049 -->
<g id="edge3" class="edge">
<title>T17031:f2&#45;&gt;T17049:f0</title>
<path fill="none" stroke="#c000a5" d="M185,-111C185,-208.91 101.71,-330.13 186.99,-338.54"/>
<polygon fill="#c000a5" stroke="#c000a5" points="186.85,-342.03 197,-339 187.17,-335.04 186.85,-342.03"/>
<text text-anchor="middle" x="176.5" y="-213.8" font-family="Times,serif" font-size="14.00" fill="#c000a5">wr</text>
</g>
<!-- T17046 -->
<g id="node6" class="node">
<title>T17046</title>
<polygon fill="none" stroke="#0058ad" points="85,-0.5 85,-29.5 313,-29.5 313,-0.5 85,-0.5"/>
<text text-anchor="middle" x="119" y="-11.3" font-family="Times,serif" font-size="14.00" fill="#0058ad">r 649 8</text>
<polyline fill="none" stroke="#0058ad" points="153,-0.5 153,-29.5 "/>
<text text-anchor="middle" x="191.5" y="-11.3" font-family="Times,serif" font-size="14.00" fill="#0058ad">r 656 nil</text>
<polyline fill="none" stroke="#0058ad" points="230,-0.5 230,-29.5 "/>
<text text-anchor="middle" x="271.5" y="-11.3" font-family="Times,serif" font-size="14.00" fill="#0058ad">w 653 13</text>
</g>
<!-- T17031&#45;&gt;T17046 -->
<g id="edge2" class="edge">
<title>T17031:f2&#45;&gt;T17046:f0</title>
<path fill="none" stroke="#c000a5" d="M185,-81C185,-47.84 132.19,-62.86 121.05,-39.86"/>
<polygon fill="#c000a5" stroke="#c000a5" points="124.46,-39.08 119,-30 117.61,-40.5 124.46,-39.08"/>
<text text-anchor="middle" x="183.5" y="-51.8" font-family="Times,serif" font-size="14.00" fill="#c000a5">wr</text>
</g>
<!-- T17036 -->
<g id="node3" class="node">
<title>T17036</title>
<polygon fill="none" stroke="#0058ad" points="590,-81.5 590,-110.5 916,-110.5 916,-81.5 590,-81.5"/>
<text text-anchor="middle" x="631.5" y="-92.3" font-family="Times,serif" font-size="14.00" fill="#0058ad">w 655 12</text>
<polyline fill="none" stroke="#0058ad" points="673,-81.5 673,-110.5 "/>
<text text-anchor="middle" x="711.5" y="-92.3" font-family="Times,serif" font-size="14.00" fill="#0058ad">r 654 nil</text>
<polyline fill="none" stroke="#0058ad" points="750,-81.5 750,-110.5 "/>
<text text-anchor="middle" x="791.5" y="-92.3" font-family="Times,serif" font-size="14.00" fill="#0058ad">w 655 13</text>
<polyline fill="none" stroke="#0058ad" points="833,-81.5 833,-110.5 "/>
<text text-anchor="middle" x="874.5" y="-92.3" font-family="Times,serif" font-size="14.00" fill="#0058ad">w 655 14</text>
</g>
<!-- T17036&#45;&gt;T17049 -->
<g id="edge5" class="edge">
<title>T17036:f1&#45;&gt;T17049:f3</title>
<path fill="none" stroke="#5b00c0" d="M711,-111C711,-134.53 906.08,-111.67 922,-129 965.46,-176.33 953.11,-226.27 909,-273 878.77,-305.02 577.36,-335.48 505.14,-338.72"/>
<polygon fill="#5b00c0" stroke="#5b00c0" points="504.9,-335.22 495,-339 505.09,-342.22 504.9,-335.22"/>
<text text-anchor="middle" x="955.5" y="-213.8" font-family="Times,serif" font-size="14.00" fill="#5b00c0">rw</text>
</g>
<!-- T17036&#45;&gt;T17007 -->
<g id="edge4" class="edge">
<title>T17036:f1&#45;&gt;T17007:f0</title>
<path fill="none" stroke="#5b00c0" d="M711,-111C711,-165.8 700.38,-184.01 664,-225 658.62,-231.07 650.98,-231.51 646.01,-234.16"/>
<polygon fill="#5b00c0" stroke="#5b00c0" points="642.88,-232.57 641,-243 648.97,-236.02 642.88,-232.57"/>
<text text-anchor="middle" x="713.5" y="-173.3" font-family="Times,serif" font-size="14.00" fill="#5b00c0">rw</text>
</g>
<!-- T17010 -->
<g id="node4" class="node">
<title>T17010</title>
<polygon fill="none" stroke="#0058ad" points="278.5,-81.5 278.5,-110.5 571.5,-110.5 571.5,-81.5 278.5,-81.5"/>
<text text-anchor="middle" x="312.5" y="-92.3" font-family="Times,serif" font-size="14.00" fill="#0058ad">r 653 7</text>
<polyline fill="none" stroke="#0058ad" points="346.5,-81.5 346.5,-110.5 "/>
<text text-anchor="middle" x="383.5" y="-92.3" font-family="Times,serif" font-size="14.00" fill="#0058ad">w 655 1</text>
<polyline fill="none" stroke="#0058ad" points="420.5,-81.5 420.5,-110.5 "/>
<text text-anchor="middle" x="459" y="-92.3" font-family="Times,serif" font-size="14.00" fill="#0058ad">r 654 nil</text>
<polyline fill="none" stroke="#0058ad" points="497.5,-81.5 497.5,-110.5 "/>
<text text-anchor="middle" x="534.5" y="-92.3" font-family="Times,serif" font-size="14.00" fill="#0058ad">w 655 2</text>
</g>
<!-- T17010&#45;&gt;T17049 -->
<g id="edge8" class="edge">
<title>T17010:f2&#45;&gt;T17049:f3</title>
<path fill="none" stroke="#5b00c0" d="M459,-111C459,-202.16 457.15,-227.48 457.01,-313.75"/>
<polygon fill="#5b00c0" stroke="#5b00c0" points="453.51,-314 457,-324 460.51,-314 453.51,-314"/>
<text text-anchor="middle" x="468.5" y="-213.8" font-family="Times,serif" font-size="14.00" fill="#5b00c0">rw</text>
</g>
<!-- T17010&#45;&gt;T17007 -->
<g id="edge6" class="edge">
<title>T17010:f2&#45;&gt;T17007:f0</title>
<path fill="none" stroke="#5b00c0" d="M459,-111C459,-151.55 473.73,-161.98 501,-192 534.89,-229.31 547.34,-254.48 592.78,-257.66"/>
<polygon fill="#5b00c0" stroke="#5b00c0" points="592.89,-261.16 603,-258 593.12,-254.17 592.89,-261.16"/>
<text text-anchor="middle" x="510.5" y="-173.3" font-family="Times,serif" font-size="14.00" fill="#5b00c0">rw</text>
</g>
<!-- T17021 -->
<g id="node8" class="node">
<title>T17021</title>
<polygon fill="none" stroke="#0058ad" points="769.5,-0.5 769.5,-29.5 982.5,-29.5 982.5,-0.5 769.5,-0.5"/>
<text text-anchor="middle" x="803.5" y="-11.3" font-family="Times,serif" font-size="14.00" fill="#0058ad">r 655 2</text>
<polyline fill="none" stroke="#0058ad" points="837.5,-0.5 837.5,-29.5 "/>
<text text-anchor="middle" x="871.5" y="-11.3" font-family="Times,serif" font-size="14.00" fill="#0058ad">r 655 2</text>
<polyline fill="none" stroke="#0058ad" points="905.5,-0.5 905.5,-29.5 "/>
<text text-anchor="middle" x="944" y="-11.3" font-family="Times,serif" font-size="14.00" fill="#0058ad">r 654 nil</text>
</g>
<!-- T17010&#45;&gt;T17021 -->
<g id="edge7" class="edge">
<title>T17010:f3&#45;&gt;T17021:f0</title>
<path fill="none" stroke="#c000a5" d="M573,-96C580.56,-96 575.27,-85.93 581,-81 645.22,-25.79 677.31,-15.74 757.92,-15.04"/>
<polygon fill="#c000a5" stroke="#c000a5" points="758.01,-18.54 768,-15 757.99,-11.54 758.01,-18.54"/>
<text text-anchor="middle" x="630.5" y="-51.8" font-family="Times,serif" font-size="14.00" fill="#c000a5">wr</text>
</g>
<!-- T17013 -->
<g id="node5" class="node">
<title>T17013</title>
<polygon fill="none" stroke="#0058ad" points="529.5,-162.5 529.5,-191.5 674.5,-191.5 674.5,-162.5 529.5,-162.5"/>
<text text-anchor="middle" x="568" y="-173.3" font-family="Times,serif" font-size="14.00" fill="#0058ad">r 655 nil</text>
<polyline fill="none" stroke="#0058ad" points="606.5,-162.5 606.5,-191.5 "/>
<text text-anchor="middle" x="640.5" y="-173.3" font-family="Times,serif" font-size="14.00" fill="#0058ad">r 654 1</text>
</g>
<!-- T17013&#45;&gt;T17031 -->
<g id="edge10" class="edge">
<title>T17013:f0&#45;&gt;T17031:f1</title>
<path fill="none" stroke="#5b00c0" d="M528,-177C519.18,-177 522.78,-166.16 515,-162 505.94,-157.15 180.1,-128.37 120.36,-114.66"/>
<polygon fill="#5b00c0" stroke="#5b00c0" points="121.59,-111.38 111,-111 119.04,-117.9 121.59,-111.38"/>
<text text-anchor="middle" x="366.5" y="-132.8" font-family="Times,serif" font-size="14.00" fill="#5b00c0">rw</text>
</g>
<!-- T17013&#45;&gt;T17036 -->
<g id="edge11" class="edge">
<title>T17013:f0&#45;&gt;T17036:f3</title>
<path fill="none" stroke="#5b00c0" d="M568,-162C568,-130.39 824.5,-142.85 868.59,-118.81"/>
<polygon fill="#5b00c0" stroke="#5b00c0" points="871.36,-120.95 875,-111 865.95,-116.51 871.36,-120.95"/>
<text text-anchor="middle" x="832.5" y="-132.8" font-family="Times,serif" font-size="14.00" fill="#5b00c0">rw</text>
</g>
<!-- T17013&#45;&gt;T17010 -->
<g id="edge9" class="edge">
<title>T17013:f0&#45;&gt;T17010:f3</title>
<path fill="none" stroke="#5b00c0" d="M568,-162C568,-151.08 578.86,-120.02 578.44,-104.72"/>
<polygon fill="#5b00c0" stroke="#5b00c0" points="581.26,-102.63 573,-96 575.32,-106.34 581.26,-102.63"/>
<text text-anchor="middle" x="584.5" y="-132.8" font-family="Times,serif" font-size="14.00" fill="#5b00c0">rw</text>
</g>
<!-- T17046&#45;&gt;T17049 -->
<g id="edge12" class="edge">
<title>T17046:f2&#45;&gt;T17049:f1</title>
<path fill="none" stroke="#c000a5" d="M272,-30C272,-60.5 250,-64.5 250,-95 250,-259 250,-259 250,-259 250,-292.74 293.59,-288.01 302.44,-313.93"/>
<polygon fill="#c000a5" stroke="#c000a5" points="299.01,-314.65 304,-324 305.93,-313.58 299.01,-314.65"/>
<text text-anchor="middle" x="259.5" y="-173.3" font-family="Times,serif" font-size="14.00" fill="#c000a5">wr</text>
</g>
<!-- T17007&#45;&gt;T17013 -->
<g id="edge13" class="edge">
<title>T17007:f0&#45;&gt;T17013:f1</title>
<path fill="none" stroke="#c000a5" d="M641,-243C641,-224.23 641,-217.12 641,-202.35"/>
<polygon fill="#c000a5" stroke="#c000a5" points="644.5,-202 641,-192 637.5,-202 644.5,-202"/>
<text text-anchor="middle" x="650.5" y="-213.8" font-family="Times,serif" font-size="14.00" fill="#c000a5">wr</text>
</g>
<!-- T17021&#45;&gt;T17049 -->
<g id="edge15" class="edge">
<title>T17021:f2&#45;&gt;T17049:f3</title>
<path fill="none" stroke="#5b00c0" d="M984,-15C1019.57,-15 982,-59.43 982,-95 982,-259 982,-259 982,-259 982,-311.27 589.4,-336.58 505.12,-338.83"/>
<polygon fill="#5b00c0" stroke="#5b00c0" points="504.94,-335.34 495,-339 505.06,-342.34 504.94,-335.34"/>
<text text-anchor="middle" x="991.5" y="-173.3" font-family="Times,serif" font-size="14.00" fill="#5b00c0">rw</text>
</g>
<!-- T17021&#45;&gt;T17007 -->
<g id="edge14" class="edge">
<title>T17021:f2&#45;&gt;T17007:f0</title>
<path fill="none" stroke="#5b00c0" d="M944,-30C944,-66.98 948.24,-82.24 925,-111 850.52,-203.16 792.23,-176.78 684,-225 669.22,-231.59 651.29,-226.22 644.15,-233.44"/>
<polygon fill="#5b00c0" stroke="#5b00c0" points="640.81,-232.41 641,-243 647.45,-234.6 640.81,-232.41"/>
<text text-anchor="middle" x="917.5" y="-132.8" font-family="Times,serif" font-size="14.00" fill="#5b00c0">rw</text>
</g>
</g>
</svg>
