<?xml version="1.0" encoding="UTF-8" standalone="no"?>
<!DOCTYPE svg PUBLIC "-//W3C//DTD SVG 1.1//EN"
 "http://www.w3.org/Graphics/SVG/1.1/DTD/svg11.dtd">
<!-- Generated by graphviz version 2.43.0 (0)
 -->
<!-- Title: a_graph Pages: 1 -->
<svg width="1486pt" height="767pt"
 viewBox="0.00 0.00 1485.50 767.00" xmlns="http://www.w3.org/2000/svg" xmlns:xlink="http://www.w3.org/1999/xlink">
<g id="graph0" class="graph" transform="scale(1 1) rotate(0) translate(4 763)">
<title>a_graph</title>
<polygon fill="white" stroke="transparent" points="-4,4 -4,-763 1481.5,-763 1481.5,4 -4,4"/>
<!-- T26535 -->
<g id="node1" class="node">
<title>T26535</title>
<polygon fill="none" stroke="#0058ad" points="1246.5,-729.5 1246.5,-758.5 1477.5,-758.5 1477.5,-729.5 1246.5,-729.5"/>
<text text-anchor="middle" x="1280.5" y="-740.3" font-family="Times,serif" font-size="14.00" fill="#0058ad">r 995 9</text>
<polyline fill="none" stroke="#0058ad" points="1314.5,-729.5 1314.5,-758.5 "/>
<text text-anchor="middle" x="1357.5" y="-740.3" font-family="Times,serif" font-size="14.00" fill="#0058ad">r 1014 nil</text>
<polyline fill="none" stroke="#0058ad" points="1400.5,-729.5 1400.5,-758.5 "/>
<text text-anchor="middle" x="1439" y="-740.3" font-family="Times,serif" font-size="14.00" fill="#0058ad">r 1015 4</text>
</g>
<!-- T26483 -->
<g id="node3" class="node">
<title>T26483</title>
<polygon fill="none" stroke="#0058ad" points="831.5,-648.5 831.5,-677.5 1098.5,-677.5 1098.5,-648.5 831.5,-648.5"/>
<text text-anchor="middle" x="877.5" y="-659.3" font-family="Times,serif" font-size="14.00" fill="#0058ad">w 1012 10</text>
<polyline fill="none" stroke="#0058ad" points="923.5,-648.5 923.5,-677.5 "/>
<text text-anchor="middle" x="965" y="-659.3" font-family="Times,serif" font-size="14.00" fill="#0058ad">w 1014 1</text>
<polyline fill="none" stroke="#0058ad" points="1006.5,-648.5 1006.5,-677.5 "/>
<text text-anchor="middle" x="1052.5" y="-659.3" font-family="Times,serif" font-size="14.00" fill="#0058ad">w 1012 11</text>
</g>
<!-- T26535&#45;&gt;T26483 -->
<g id="edge1" class="edge">
<title>T26535:f1&#45;&gt;T26483:f1</title>
<path fill="none" stroke="#5b00c0" d="M1357,-729C1357,-556.91 980.91,-841.57 965.49,-688.22"/>
<polygon fill="#5b00c0" stroke="#5b00c0" points="968.97,-687.82 965,-678 961.98,-688.16 968.97,-687.82"/>
<text text-anchor="middle" x="1364.5" y="-699.8" font-family="Times,serif" font-size="14.00" fill="#5b00c0">rw</text>
</g>
<!-- T26573 -->
<g id="node13" class="node">
<title>T26573</title>
<polygon fill="none" stroke="#0058ad" points="907.5,-0.5 907.5,-29.5 1076.5,-29.5 1076.5,-0.5 907.5,-0.5"/>
<text text-anchor="middle" x="950.5" y="-11.3" font-family="Times,serif" font-size="14.00" fill="#0058ad">r 1014 nil</text>
<polyline fill="none" stroke="#0058ad" points="993.5,-0.5 993.5,-29.5 "/>
<text text-anchor="middle" x="1035" y="-11.3" font-family="Times,serif" font-size="14.00" fill="#0058ad">w 1014 4</text>
</g>
<!-- T26535&#45;&gt;T26573 -->
<g id="edge2" class="edge">
<title>T26535:f1&#45;&gt;T26573:f1</title>
<path fill="none" stroke="#5b00c0" d="M1357,-729C1357,-716.71 1371.21,-721.24 1378,-711 1390.12,-692.73 1393,-685.93 1393,-664 1393,-664 1393,-664 1393,-95 1393,-43.34 1182.71,-16.94 1088.13,-15.1"/>
<polygon fill="#5b00c0" stroke="#5b00c0" points="1088.04,-11.6 1078,-15 1087.96,-18.6 1088.04,-11.6"/>
<text text-anchor="middle" x="1402.5" y="-375.8" font-family="Times,serif" font-size="14.00" fill="#5b00c0">rw</text>
</g>
<!-- T26515 -->
<g id="node2" class="node">
<title>T26515</title>
<polygon fill="none" stroke="#0058ad" points="1030.5,-162.5 1030.5,-191.5 1279.5,-191.5 1279.5,-162.5 1030.5,-162.5"/>
<text text-anchor="middle" x="1069" y="-173.3" font-family="Times,serif" font-size="14.00" fill="#0058ad">r 1013 5</text>
<polyline fill="none" stroke="#0058ad" points="1107.5,-162.5 1107.5,-191.5 "/>
<text text-anchor="middle" x="1150.5" y="-173.3" font-family="Times,serif" font-size="14.00" fill="#0058ad">r 1015 nil</text>
<polyline fill="none" stroke="#0058ad" points="1193.5,-162.5 1193.5,-191.5 "/>
<text text-anchor="middle" x="1236.5" y="-173.3" font-family="Times,serif" font-size="14.00" fill="#0058ad">r 1015 nil</text>
</g>
<!-- T26532 -->
<g id="node7" class="node">
<title>T26532</title>
<polygon fill="none" stroke="#0058ad" points="909,-81.5 909,-110.5 1155,-110.5 1155,-81.5 909,-81.5"/>
<text text-anchor="middle" x="950.5" y="-92.3" font-family="Times,serif" font-size="14.00" fill="#0058ad">w 1015 4</text>
<polyline fill="none" stroke="#0058ad" points="992,-81.5 992,-110.5 "/>
<text text-anchor="middle" x="1035" y="-92.3" font-family="Times,serif" font-size="14.00" fill="#0058ad">r 1014 nil</text>
<polyline fill="none" stroke="#0058ad" points="1078,-81.5 1078,-110.5 "/>
<text text-anchor="middle" x="1116.5" y="-92.3" font-family="Times,serif" font-size="14.00" fill="#0058ad">r 1015 4</text>
</g>
<!-- T26515&#45;&gt;T26532 -->
<g id="edge3" class="edge">
<title>T26515:f1&#45;&gt;T26532:f0</title>
<path fill="none" stroke="#5b00c0" d="M1150,-162C1150,-74.03 966.07,-192.24 950.98,-121.19"/>
<polygon fill="#5b00c0" stroke="#5b00c0" points="954.44,-120.62 950,-111 947.48,-121.29 954.44,-120.62"/>
<text text-anchor="middle" x="1153.5" y="-132.8" font-family="Times,serif" font-size="14.00" fill="#5b00c0">rw</text>
</g>
<!-- T26491 -->
<g id="node9" class="node">
<title>T26491</title>
<polygon fill="none" stroke="#0058ad" points="700.5,-567.5 700.5,-596.5 955.5,-596.5 955.5,-567.5 700.5,-567.5"/>
<text text-anchor="middle" x="743.5" y="-578.3" font-family="Times,serif" font-size="14.00" fill="#0058ad">r 1013 nil</text>
<polyline fill="none" stroke="#0058ad" points="786.5,-567.5 786.5,-596.5 "/>
<text text-anchor="middle" x="828" y="-578.3" font-family="Times,serif" font-size="14.00" fill="#0058ad">w 1013 3</text>
<polyline fill="none" stroke="#0058ad" points="869.5,-567.5 869.5,-596.5 "/>
<text text-anchor="middle" x="912.5" y="-578.3" font-family="Times,serif" font-size="14.00" fill="#0058ad">r 1012 11</text>
</g>
<!-- T26483&#45;&gt;T26491 -->
<g id="edge4" class="edge">
<title>T26483:f2&#45;&gt;T26491:f2</title>
<path fill="none" stroke="#c000a5" d="M1053,-648C1053,-604.7 1003.01,-625.02 970,-597 967.06,-594.5 965.89,-591.32 964.77,-588.53"/>
<polygon fill="#c000a5" stroke="#c000a5" points="966.91,-585.75 957,-582 962.4,-591.11 966.91,-585.75"/>
<text text-anchor="middle" x="1056.5" y="-618.8" font-family="Times,serif" font-size="14.00" fill="#c000a5">wr</text>
</g>
<!-- T26511 -->
<g id="node4" class="node">
<title>T26511</title>
<polygon fill="none" stroke="#0058ad" points="686,-162.5 686,-191.5 1012,-191.5 1012,-162.5 686,-162.5"/>
<text text-anchor="middle" x="724.5" y="-173.3" font-family="Times,serif" font-size="14.00" fill="#0058ad">r 1013 5</text>
<polyline fill="none" stroke="#0058ad" points="763,-162.5 763,-191.5 "/>
<text text-anchor="middle" x="806" y="-173.3" font-family="Times,serif" font-size="14.00" fill="#0058ad">r 1015 nil</text>
<polyline fill="none" stroke="#0058ad" points="849,-162.5 849,-191.5 "/>
<text text-anchor="middle" x="887.5" y="-173.3" font-family="Times,serif" font-size="14.00" fill="#0058ad">r 1013 5</text>
<polyline fill="none" stroke="#0058ad" points="926,-162.5 926,-191.5 "/>
<text text-anchor="middle" x="969" y="-173.3" font-family="Times,serif" font-size="14.00" fill="#0058ad">r 1015 nil</text>
</g>
<!-- T26511&#45;&gt;T26532 -->
<g id="edge5" class="edge">
<title>T26511:f1&#45;&gt;T26532:f0</title>
<path fill="none" stroke="#5b00c0" d="M806,-162C806,-111.38 848.19,-97.66 897.96,-96.15"/>
<polygon fill="#5b00c0" stroke="#5b00c0" points="898.05,-99.65 908,-96 897.95,-92.65 898.05,-99.65"/>
<text text-anchor="middle" x="822.5" y="-132.8" font-family="Times,serif" font-size="14.00" fill="#5b00c0">rw</text>
</g>
<!-- T26471 -->
<g id="node5" class="node">
<title>T26471</title>
<polygon fill="none" stroke="#0058ad" points="849,-405.5 849,-434.5 1009,-434.5 1009,-405.5 849,-405.5"/>
<text text-anchor="middle" x="887.5" y="-416.3" font-family="Times,serif" font-size="14.00" fill="#0058ad">r 1012 7</text>
<polyline fill="none" stroke="#0058ad" points="926,-405.5 926,-434.5 "/>
<text text-anchor="middle" x="967.5" y="-416.3" font-family="Times,serif" font-size="14.00" fill="#0058ad">w 1012 8</text>
</g>
<!-- T26479 -->
<g id="node6" class="node">
<title>T26479</title>
<polygon fill="none" stroke="#0058ad" points="459.5,-324.5 459.5,-353.5 714.5,-353.5 714.5,-324.5 459.5,-324.5"/>
<text text-anchor="middle" x="498" y="-335.3" font-family="Times,serif" font-size="14.00" fill="#0058ad">r 1012 8</text>
<polyline fill="none" stroke="#0058ad" points="536.5,-324.5 536.5,-353.5 "/>
<text text-anchor="middle" x="582.5" y="-335.3" font-family="Times,serif" font-size="14.00" fill="#0058ad">w 1002 15</text>
<polyline fill="none" stroke="#0058ad" points="628.5,-324.5 628.5,-353.5 "/>
<text text-anchor="middle" x="671.5" y="-335.3" font-family="Times,serif" font-size="14.00" fill="#0058ad">r 1014 nil</text>
</g>
<!-- T26471&#45;&gt;T26479 -->
<g id="edge6" class="edge">
<title>T26471:f1&#45;&gt;T26479:f0</title>
<path fill="none" stroke="#c000a5" d="M968,-405C968,-278.81 811.48,-385.35 686,-372 667.82,-370.07 538.66,-373.77 505.66,-360.88"/>
<polygon fill="#c000a5" stroke="#c000a5" points="507.78,-358.08 498,-354 503.1,-363.29 507.78,-358.08"/>
<text text-anchor="middle" x="975.5" y="-375.8" font-family="Times,serif" font-size="14.00" fill="#c000a5">wr</text>
</g>
<!-- T26479&#45;&gt;T26483 -->
<g id="edge8" class="edge">
<title>T26479:f2&#45;&gt;T26483:f1</title>
<path fill="none" stroke="#5b00c0" d="M672,-354C672,-382.89 672,-390.11 672,-419 672,-583 672,-583 672,-583 672,-646.05 933.83,-588.38 962.47,-638.23"/>
<polygon fill="#5b00c0" stroke="#5b00c0" points="959.1,-639.2 965,-648 965.88,-637.44 959.1,-639.2"/>
<text text-anchor="middle" x="681.5" y="-497.3" font-family="Times,serif" font-size="14.00" fill="#5b00c0">rw</text>
</g>
<!-- T26500 -->
<g id="node8" class="node">
<title>T26500</title>
<polygon fill="none" stroke="#0058ad" points="591.5,-243.5 591.5,-272.5 846.5,-272.5 846.5,-243.5 591.5,-243.5"/>
<text text-anchor="middle" x="633" y="-254.3" font-family="Times,serif" font-size="14.00" fill="#0058ad">w 1013 5</text>
<polyline fill="none" stroke="#0058ad" points="674.5,-243.5 674.5,-272.5 "/>
<text text-anchor="middle" x="717.5" y="-254.3" font-family="Times,serif" font-size="14.00" fill="#0058ad">r 1012 14</text>
<polyline fill="none" stroke="#0058ad" points="760.5,-243.5 760.5,-272.5 "/>
<text text-anchor="middle" x="803.5" y="-254.3" font-family="Times,serif" font-size="14.00" fill="#0058ad">r 1002 15</text>
</g>
<!-- T26479&#45;&gt;T26500 -->
<g id="edge9" class="edge">
<title>T26479:f1&#45;&gt;T26500:f2</title>
<path fill="none" stroke="#c000a5" d="M582,-324C582,-265.25 652.68,-303.86 710,-291 727.19,-287.14 780.37,-291.92 798.15,-281.59"/>
<polygon fill="#c000a5" stroke="#c000a5" points="801.26,-283.24 804,-273 795.48,-279.29 801.26,-283.24"/>
<text text-anchor="middle" x="719.5" y="-294.8" font-family="Times,serif" font-size="14.00" fill="#c000a5">wr</text>
</g>
<!-- T26519 -->
<g id="node10" class="node">
<title>T26519</title>
<polygon fill="none" stroke="#0058ad" points="83.5,-162.5 83.5,-191.5 400.5,-191.5 400.5,-162.5 83.5,-162.5"/>
<text text-anchor="middle" x="126.5" y="-173.3" font-family="Times,serif" font-size="14.00" fill="#0058ad">r 1015 nil</text>
<polyline fill="none" stroke="#0058ad" points="169.5,-162.5 169.5,-191.5 "/>
<text text-anchor="middle" x="208" y="-173.3" font-family="Times,serif" font-size="14.00" fill="#0058ad">r 1013 5</text>
<polyline fill="none" stroke="#0058ad" points="246.5,-162.5 246.5,-191.5 "/>
<text text-anchor="middle" x="289.5" y="-173.3" font-family="Times,serif" font-size="14.00" fill="#0058ad">r 1002 15</text>
<polyline fill="none" stroke="#0058ad" points="332.5,-162.5 332.5,-191.5 "/>
<text text-anchor="middle" x="366.5" y="-173.3" font-family="Times,serif" font-size="14.00" fill="#0058ad">r 980 2</text>
</g>
<!-- T26479&#45;&gt;T26519 -->
<g id="edge7" class="edge">
<title>T26479:f1&#45;&gt;T26519:f2</title>
<path fill="none" stroke="#c000a5" d="M582,-324C582,-242.31 277.37,-290.08 228,-225 223.97,-219.69 224,-215.33 228,-210 242.4,-190.82 276.05,-211.18 286.7,-201.61"/>
<polygon fill="#c000a5" stroke="#c000a5" points="290.07,-202.59 290,-192 283.45,-200.32 290.07,-202.59"/>
<text text-anchor="middle" x="481.5" y="-254.3" font-family="Times,serif" font-size="14.00" fill="#c000a5">wr</text>
</g>
<!-- T26479&#45;&gt;T26573 -->
<g id="edge10" class="edge">
<title>T26479:f2&#45;&gt;T26573:f1</title>
<path fill="none" stroke="#5b00c0" d="M672,-324C672,-303.39 601.19,-310.18 581,-306 462.33,-281.41 -21.89,-255.68 55,-162 102.72,-103.86 146.72,-140.88 221,-129 263.52,-122.2 953.05,-80.5 1028.34,-37.47"/>
<polygon fill="#5b00c0" stroke="#5b00c0" points="1030.96,-39.8 1035,-30 1025.74,-35.14 1030.96,-39.8"/>
<text text-anchor="middle" x="64.5" y="-173.3" font-family="Times,serif" font-size="14.00" fill="#5b00c0">rw</text>
</g>
<!-- T26532&#45;&gt;T26535 -->
<g id="edge11" class="edge">
<title>T26532:f0&#45;&gt;T26535:f2</title>
<path fill="none" stroke="#c000a5" d="M950,-111C950,-126.64 1215.52,-126.77 1231,-129 1324.81,-142.52 1439,-81.22 1439,-176 1439,-664 1439,-664 1439,-664 1439,-689.16 1439,-697.89 1439,-718.82"/>
<polygon fill="#c000a5" stroke="#c000a5" points="1435.5,-719 1439,-729 1442.5,-719 1435.5,-719"/>
<text text-anchor="middle" x="1448.5" y="-416.3" font-family="Times,serif" font-size="14.00" fill="#c000a5">wr</text>
</g>
<!-- T26532&#45;&gt;T26483 -->
<g id="edge12" class="edge">
<title>T26532:f1&#45;&gt;T26483:f1</title>
<path fill="none" stroke="#5b00c0" d="M1035,-111C1035,-140.6 1137.98,-123.12 1167,-129 1222.05,-140.15 1253.08,-118.82 1289,-162 1327.64,-208.45 1300,-237.08 1300,-297.5 1300,-583 1300,-583 1300,-583 1300,-687.33 1172.54,-610.74 1070,-630 1050.37,-633.69 989.11,-627.11 970.45,-639.19"/>
<polygon fill="#5b00c0" stroke="#5b00c0" points="967.29,-637.65 965,-648 973.24,-641.34 967.29,-637.65"/>
<text text-anchor="middle" x="1309.5" y="-375.8" font-family="Times,serif" font-size="14.00" fill="#5b00c0">rw</text>
</g>
<!-- T26532&#45;&gt;T26573 -->
<g id="edge13" class="edge">
<title>T26532:f1&#45;&gt;T26573:f1</title>
<path fill="none" stroke="#5b00c0" d="M1035,-81C1035,-62.23 1035,-55.12 1035,-40.35"/>
<polygon fill="#5b00c0" stroke="#5b00c0" points="1038.5,-40 1035,-30 1031.5,-40 1038.5,-40"/>
<text text-anchor="middle" x="1044.5" y="-51.8" font-family="Times,serif" font-size="14.00" fill="#5b00c0">rw</text>
</g>
<!-- T26500&#45;&gt;T26515 -->
<g id="edge14" class="edge">
<title>T26500:f0&#45;&gt;T26515:f0</title>
<path fill="none" stroke="#c000a5" d="M633,-243C633,-221.26 1003.13,-204.38 1021,-192 1023.14,-190.52 1023.85,-188.29 1024.19,-185.99"/>
<polygon fill="#c000a5" stroke="#c000a5" points="1027.37,-187.47 1029,-177 1021.19,-184.16 1027.37,-187.47"/>
<text text-anchor="middle" x="874.5" y="-213.8" font-family="Times,serif" font-size="14.00" fill="#c000a5">wr</text>
</g>
<!-- T26500&#45;&gt;T26511 -->
<g id="edge17" class="edge">
<title>T26500:f0&#45;&gt;T26511:f0</title>
<path fill="none" stroke="#c000a5" d="M633,-243C633,-213.06 660.07,-216.69 677,-192 678.4,-189.96 678.93,-187.64 679.28,-185.45"/>
<polygon fill="#c000a5" stroke="#c000a5" points="682.29,-187.24 685,-177 676.49,-183.32 682.29,-187.24"/>
<text text-anchor="middle" x="665.5" y="-213.8" font-family="Times,serif" font-size="14.00" fill="#c000a5">wr</text>
</g>
<!-- T26500&#45;&gt;T26519 -->
<g id="edge15" class="edge">
<title>T26500:f0&#45;&gt;T26519:f1</title>
<path fill="none" stroke="#c000a5" d="M590,-258C549.96,-258 254.2,-238.18 212.81,-200.79"/>
<polygon fill="#c000a5" stroke="#c000a5" points="215.87,-199.09 208,-192 209.73,-202.45 215.87,-199.09"/>
<text text-anchor="middle" x="283.5" y="-213.8" font-family="Times,serif" font-size="14.00" fill="#c000a5">wr</text>
</g>
<!-- T26525 -->
<g id="node11" class="node">
<title>T26525</title>
<polygon fill="none" stroke="#0058ad" points="418.5,-162.5 418.5,-191.5 667.5,-191.5 667.5,-162.5 418.5,-162.5"/>
<text text-anchor="middle" x="461.5" y="-173.3" font-family="Times,serif" font-size="14.00" fill="#0058ad">r 1015 nil</text>
<polyline fill="none" stroke="#0058ad" points="504.5,-162.5 504.5,-191.5 "/>
<text text-anchor="middle" x="543" y="-173.3" font-family="Times,serif" font-size="14.00" fill="#0058ad">r 1013 5</text>
<polyline fill="none" stroke="#0058ad" points="581.5,-162.5 581.5,-191.5 "/>
<text text-anchor="middle" x="624.5" y="-173.3" font-family="Times,serif" font-size="14.00" fill="#0058ad">r 1015 nil</text>
</g>
<!-- T26500&#45;&gt;T26525 -->
<g id="edge16" class="edge">
<title>T26500:f0&#45;&gt;T26525:f1</title>
<path fill="none" stroke="#c000a5" d="M633,-243C633,-223.33 567.14,-216.82 548.1,-200.95"/>
<polygon fill="#c000a5" stroke="#c000a5" points="550.99,-198.96 543,-192 544.91,-202.42 550.99,-198.96"/>
<text text-anchor="middle" x="617.5" y="-213.8" font-family="Times,serif" font-size="14.00" fill="#c000a5">wr</text>
</g>
<!-- T26491&#45;&gt;T26500 -->
<g id="edge18" class="edge">
<title>T26491:f0&#45;&gt;T26500:f0</title>
<path fill="none" stroke="#5b00c0" d="M743,-567C743,-538.11 743,-530.89 743,-502 743,-502 743,-502 743,-338 743,-316.2 745.19,-305.59 729,-291 699.9,-264.78 645.15,-306.57 634.74,-283.09"/>
<polygon fill="#5b00c0" stroke="#5b00c0" points="638.14,-282.26 633,-273 631.25,-283.45 638.14,-282.26"/>
<text text-anchor="middle" x="752.5" y="-416.3" font-family="Times,serif" font-size="14.00" fill="#5b00c0">rw</text>
</g>
<!-- T26469 -->
<g id="node12" class="node">
<title>T26469</title>
<polygon fill="none" stroke="#0058ad" points="779.5,-486.5 779.5,-515.5 1108.5,-515.5 1108.5,-486.5 779.5,-486.5"/>
<text text-anchor="middle" x="821" y="-497.3" font-family="Times,serif" font-size="14.00" fill="#0058ad">w 1013 1</text>
<polyline fill="none" stroke="#0058ad" points="862.5,-486.5 862.5,-515.5 "/>
<text text-anchor="middle" x="901" y="-497.3" font-family="Times,serif" font-size="14.00" fill="#0058ad">r 1012 5</text>
<polyline fill="none" stroke="#0058ad" points="939.5,-486.5 939.5,-515.5 "/>
<text text-anchor="middle" x="982.5" y="-497.3" font-family="Times,serif" font-size="14.00" fill="#0058ad">r 1014 nil</text>
<polyline fill="none" stroke="#0058ad" points="1025.5,-486.5 1025.5,-515.5 "/>
<text text-anchor="middle" x="1067" y="-497.3" font-family="Times,serif" font-size="14.00" fill="#0058ad">w 1012 7</text>
</g>
<!-- T26491&#45;&gt;T26469 -->
<g id="edge19" class="edge">
<title>T26491:f0&#45;&gt;T26469:f0</title>
<path fill="none" stroke="#5b00c0" d="M743,-567C743,-549.53 798.53,-539.98 815.88,-524.98"/>
<polygon fill="#5b00c0" stroke="#5b00c0" points="819.09,-526.42 821,-516 813.01,-522.95 819.09,-526.42"/>
<text text-anchor="middle" x="809.5" y="-537.8" font-family="Times,serif" font-size="14.00" fill="#5b00c0">rw</text>
</g>
<!-- T26519&#45;&gt;T26532 -->
<g id="edge20" class="edge">
<title>T26519:f0&#45;&gt;T26532:f0</title>
<path fill="none" stroke="#5b00c0" d="M126,-162C126,-140.03 757.46,-98.28 897.71,-96.09"/>
<polygon fill="#5b00c0" stroke="#5b00c0" points="898.03,-99.59 908,-96 897.97,-92.59 898.03,-99.59"/>
<text text-anchor="middle" x="377.5" y="-132.8" font-family="Times,serif" font-size="14.00" fill="#5b00c0">rw</text>
</g>
<!-- T26525&#45;&gt;T26532 -->
<g id="edge21" class="edge">
<title>T26525:f0&#45;&gt;T26532:f0</title>
<path fill="none" stroke="#5b00c0" d="M461,-162C461,-114.34 818.52,-97.69 897.77,-96.12"/>
<polygon fill="#5b00c0" stroke="#5b00c0" points="898.04,-99.62 908,-96 897.96,-92.62 898.04,-99.62"/>
<text text-anchor="middle" x="537.5" y="-132.8" font-family="Times,serif" font-size="14.00" fill="#5b00c0">rw</text>
</g>
<!-- T26469&#45;&gt;T26483 -->
<g id="edge23" class="edge">
<title>T26469:f2&#45;&gt;T26483:f1</title>
<path fill="none" stroke="#5b00c0" d="M983,-516C983,-571.62 967.11,-586.98 965.19,-637.73"/>
<polygon fill="#5b00c0" stroke="#5b00c0" points="961.69,-637.94 965,-648 968.68,-638.07 961.69,-637.94"/>
<text text-anchor="middle" x="986.5" y="-578.3" font-family="Times,serif" font-size="14.00" fill="#5b00c0">rw</text>
</g>
<!-- T26469&#45;&gt;T26471 -->
<g id="edge22" class="edge">
<title>T26469:f3&#45;&gt;T26471:f0</title>
<path fill="none" stroke="#c000a5" d="M1067,-486C1067,-406.59 902.81,-508.19 888.06,-445.04"/>
<polygon fill="#c000a5" stroke="#c000a5" points="891.53,-444.58 887,-435 884.57,-445.31 891.53,-444.58"/>
<text text-anchor="middle" x="1070.5" y="-456.8" font-family="Times,serif" font-size="14.00" fill="#c000a5">wr</text>
</g>
<!-- T26469&#45;&gt;T26573 -->
<g id="edge24" class="edge">
<title>T26469:f2&#45;&gt;T26573:f1</title>
<path fill="none" stroke="#5b00c0" d="M983,-486C983,-463.2 1061.56,-472.01 1084,-468 1200.46,-447.18 1346,-539.3 1346,-421 1346,-421 1346,-421 1346,-95 1346,-35.88 1159.76,-16.85 1088.09,-15.13"/>
<polygon fill="#5b00c0" stroke="#5b00c0" points="1088.04,-11.63 1078,-15 1087.95,-18.63 1088.04,-11.63"/>
<text text-anchor="middle" x="1355.5" y="-254.3" font-family="Times,serif" font-size="14.00" fill="#5b00c0">rw</text>
</g>
<!-- T26573&#45;&gt;T26483 -->
<g id="edge25" class="edge">
<title>T26573:f0&#45;&gt;T26483:f1</title>
<path fill="none" stroke="#5b00c0" d="M906,-15C855.47,-15 0,-44.47 0,-95 0,-583 0,-583 0,-583 0,-595.63 853.45,-630.11 955.13,-645.35"/>
<polygon fill="#5b00c0" stroke="#5b00c0" points="954.43,-648.78 965,-648 956.25,-642.02 954.43,-648.78"/>
<text text-anchor="middle" x="9.5" y="-335.3" font-family="Times,serif" font-size="14.00" fill="#5b00c0">rw</text>
</g>
</g>
</svg>
