<?xml version="1.0" encoding="UTF-8" standalone="no"?>
<!DOCTYPE svg PUBLIC "-//W3C//DTD SVG 1.1//EN"
 "http://www.w3.org/Graphics/SVG/1.1/DTD/svg11.dtd">
<!-- Generated by graphviz version 2.43.0 (0)
 -->
<!-- Title: a_graph Pages: 1 -->
<svg width="509pt" height="362pt"
 viewBox="0.00 0.00 509.00 362.00" xmlns="http://www.w3.org/2000/svg" xmlns:xlink="http://www.w3.org/1999/xlink">
<g id="graph0" class="graph" transform="scale(1 1) rotate(0) translate(4 358)">
<title>a_graph</title>
<polygon fill="white" stroke="transparent" points="-4,4 -4,-358 505,-358 505,4 -4,4"/>
<!-- T21229 -->
<g id="node1" class="node">
<title>T21229</title>
<polygon fill="none" stroke="#0058ad" points="0,-324.5 0,-353.5 68,-353.5 68,-324.5 0,-324.5"/>
<text text-anchor="middle" x="34" y="-335.3" font-family="Times,serif" font-size="14.00" fill="#0058ad">r 813 1</text>
</g>
<!-- T21241 -->
<g id="node3" class="node">
<title>T21241</title>
<polygon fill="none" stroke="#0058ad" points="92,-243.5 92,-272.5 388,-272.5 388,-243.5 92,-243.5"/>
<text text-anchor="middle" x="126" y="-254.3" font-family="Times,serif" font-size="14.00" fill="#0058ad">r 813 1</text>
<polyline fill="none" stroke="#0058ad" points="160,-243.5 160,-272.5 "/>
<text text-anchor="middle" x="198.5" y="-254.3" font-family="Times,serif" font-size="14.00" fill="#0058ad">r 812 nil</text>
<polyline fill="none" stroke="#0058ad" points="237,-243.5 237,-272.5 "/>
<text text-anchor="middle" x="274" y="-254.3" font-family="Times,serif" font-size="14.00" fill="#0058ad">w 813 2</text>
<polyline fill="none" stroke="#0058ad" points="311,-243.5 311,-272.5 "/>
<text text-anchor="middle" x="349.5" y="-254.3" font-family="Times,serif" font-size="14.00" fill="#0058ad">r 806 nil</text>
</g>
<!-- T21229&#45;&gt;T21241 -->
<g id="edge1" class="edge">
<title>T21229:f0&#45;&gt;T21241:f2</title>
<path fill="none" stroke="#5b00c0" d="M66.9,-324.38C67.27,-324.25 67.63,-324.13 68,-324 153.77,-294.71 264.92,-361.71 273.47,-283.3"/>
<polygon fill="#5b00c0" stroke="#5b00c0" points="276.99,-283.17 274,-273 269.99,-282.81 276.99,-283.17"/>
<text text-anchor="middle" x="280.5" y="-294.8" font-family="Times,serif" font-size="14.00" fill="#5b00c0">rw</text>
</g>
<!-- T21232 -->
<g id="node2" class="node">
<title>T21232</title>
<polygon fill="none" stroke="#0058ad" points="273,-0.5 273,-29.5 341,-29.5 341,-0.5 273,-0.5"/>
<text text-anchor="middle" x="307" y="-11.3" font-family="Times,serif" font-size="14.00" fill="#0058ad">r 813 1</text>
</g>
<!-- T21232&#45;&gt;T21241 -->
<g id="edge2" class="edge">
<title>T21232:f0&#45;&gt;T21241:f2</title>
<path fill="none" stroke="#5b00c0" d="M339.9,-29.61C340.27,-29.74 340.63,-29.87 341,-30 371.35,-40.52 391.32,-22.61 411,-48 430.62,-73.3 419.25,-162.85 406,-192 397.15,-211.46 390.06,-215.32 371,-225 354.73,-233.26 298.39,-225.06 279.91,-234.7"/>
<polygon fill="#5b00c0" stroke="#5b00c0" points="276.95,-232.82 274,-243 282.65,-236.89 276.95,-232.82"/>
<text text-anchor="middle" x="428.5" y="-132.8" font-family="Times,serif" font-size="14.00" fill="#5b00c0">rw</text>
</g>
<!-- T21237 -->
<g id="node6" class="node">
<title>T21237</title>
<polygon fill="none" stroke="#0058ad" points="101,-162.5 101,-191.5 397,-191.5 397,-162.5 101,-162.5"/>
<text text-anchor="middle" x="138" y="-173.3" font-family="Times,serif" font-size="14.00" fill="#0058ad">w 812 1</text>
<polyline fill="none" stroke="#0058ad" points="175,-162.5 175,-191.5 "/>
<text text-anchor="middle" x="213.5" y="-173.3" font-family="Times,serif" font-size="14.00" fill="#0058ad">r 808 nil</text>
<polyline fill="none" stroke="#0058ad" points="252,-162.5 252,-191.5 "/>
<text text-anchor="middle" x="286" y="-173.3" font-family="Times,serif" font-size="14.00" fill="#0058ad">r 811 6</text>
<polyline fill="none" stroke="#0058ad" points="320,-162.5 320,-191.5 "/>
<text text-anchor="middle" x="358.5" y="-173.3" font-family="Times,serif" font-size="14.00" fill="#0058ad">r 813 nil</text>
</g>
<!-- T21241&#45;&gt;T21237 -->
<g id="edge3" class="edge">
<title>T21241:f1&#45;&gt;T21237:f0</title>
<path fill="none" stroke="#5b00c0" d="M198,-243C198,-211.97 150.82,-223.39 140.14,-201.97"/>
<polygon fill="#5b00c0" stroke="#5b00c0" points="143.52,-201.05 138,-192 136.67,-202.51 143.52,-201.05"/>
<text text-anchor="middle" x="197.5" y="-213.8" font-family="Times,serif" font-size="14.00" fill="#5b00c0">rw</text>
</g>
<!-- T21225 -->
<g id="node4" class="node">
<title>T21225</title>
<polygon fill="none" stroke="#0058ad" points="60,-81.5 60,-110.5 344,-110.5 344,-81.5 60,-81.5"/>
<text text-anchor="middle" x="94" y="-92.3" font-family="Times,serif" font-size="14.00" fill="#0058ad">r 748 8</text>
<polyline fill="none" stroke="#0058ad" points="128,-81.5 128,-110.5 "/>
<text text-anchor="middle" x="162" y="-92.3" font-family="Times,serif" font-size="14.00" fill="#0058ad">r 811 2</text>
<polyline fill="none" stroke="#0058ad" points="196,-81.5 196,-110.5 "/>
<text text-anchor="middle" x="233" y="-92.3" font-family="Times,serif" font-size="14.00" fill="#0058ad">w 811 5</text>
<polyline fill="none" stroke="#0058ad" points="270,-81.5 270,-110.5 "/>
<text text-anchor="middle" x="307" y="-92.3" font-family="Times,serif" font-size="14.00" fill="#0058ad">w 813 1</text>
</g>
<!-- T21225&#45;&gt;T21229 -->
<g id="edge6" class="edge">
<title>T21225:f3&#45;&gt;T21229:f0</title>
<path fill="none" stroke="#c000a5" d="M307,-111C307,-134.97 114.02,-119.53 92,-129 50.84,-146.69 41.93,-166.31 32,-210 23.92,-245.55 26.92,-288.03 30.18,-314.27"/>
<polygon fill="#c000a5" stroke="#c000a5" points="26.75,-315.01 31.56,-324.45 33.69,-314.07 26.75,-315.01"/>
<text text-anchor="middle" x="41.5" y="-213.8" font-family="Times,serif" font-size="14.00" fill="#c000a5">wr</text>
</g>
<!-- T21225&#45;&gt;T21232 -->
<g id="edge7" class="edge">
<title>T21225:f3&#45;&gt;T21232:f0</title>
<path fill="none" stroke="#c000a5" d="M307,-81C307,-67.35 307,-52.12 307,-39.73"/>
<polygon fill="#c000a5" stroke="#c000a5" points="310.5,-39.68 307,-29.68 303.5,-39.68 310.5,-39.68"/>
<text text-anchor="middle" x="316.5" y="-51.8" font-family="Times,serif" font-size="14.00" fill="#c000a5">wr</text>
</g>
<!-- T21225&#45;&gt;T21241 -->
<g id="edge5" class="edge">
<title>T21225:f3&#45;&gt;T21241:f0</title>
<path fill="none" stroke="#c000a5" d="M307,-111C307,-217.44 139.77,-79.11 73,-162 48.11,-192.9 47.49,-247.52 80.72,-256.68"/>
<polygon fill="#c000a5" stroke="#c000a5" points="80.64,-260.2 91,-258 81.53,-253.25 80.64,-260.2"/>
<text text-anchor="middle" x="82.5" y="-173.3" font-family="Times,serif" font-size="14.00" fill="#c000a5">wr</text>
</g>
<!-- T21235 -->
<g id="node5" class="node">
<title>T21235</title>
<polygon fill="none" stroke="#0058ad" points="359,-0.5 359,-29.5 501,-29.5 501,-0.5 359,-0.5"/>
<text text-anchor="middle" x="396" y="-11.3" font-family="Times,serif" font-size="14.00" fill="#0058ad">w 811 7</text>
<polyline fill="none" stroke="#0058ad" points="433,-0.5 433,-29.5 "/>
<text text-anchor="middle" x="467" y="-11.3" font-family="Times,serif" font-size="14.00" fill="#0058ad">r 813 1</text>
</g>
<!-- T21225&#45;&gt;T21235 -->
<g id="edge4" class="edge">
<title>T21225:f3&#45;&gt;T21235:f1</title>
<path fill="none" stroke="#c000a5" d="M345,-96C345.2,-96 430.32,-50.05 458.24,-34.83"/>
<polygon fill="#c000a5" stroke="#c000a5" points="459.93,-37.89 467,-30 456.55,-31.76 459.93,-37.89"/>
<text text-anchor="middle" x="440.5" y="-51.8" font-family="Times,serif" font-size="14.00" fill="#c000a5">wr</text>
</g>
<!-- T21235&#45;&gt;T21241 -->
<g id="edge8" class="edge">
<title>T21235:f1&#45;&gt;T21241:f2</title>
<path fill="none" stroke="#5b00c0" d="M467,-30C467,-122.23 476.64,-180.23 396,-225 375.32,-236.48 299.42,-221.13 279.06,-234.35"/>
<polygon fill="#5b00c0" stroke="#5b00c0" points="276.03,-232.6 274,-243 282.07,-236.13 276.03,-232.6"/>
<text text-anchor="middle" x="473.5" y="-132.8" font-family="Times,serif" font-size="14.00" fill="#5b00c0">rw</text>
</g>
<!-- T21237&#45;&gt;T21241 -->
<g id="edge9" class="edge">
<title>T21237:f3&#45;&gt;T21241:f2</title>
<path fill="none" stroke="#5b00c0" d="M359,-192C359,-232.1 288.59,-204.96 275.94,-232.97"/>
<polygon fill="#5b00c0" stroke="#5b00c0" points="272.46,-232.52 274,-243 279.33,-233.84 272.46,-232.52"/>
<text text-anchor="middle" x="357.5" y="-213.8" font-family="Times,serif" font-size="14.00" fill="#5b00c0">rw</text>
</g>
<!-- T21237&#45;&gt;T21225 -->
<g id="edge10" class="edge">
<title>T21237:f3&#45;&gt;T21225:f3</title>
<path fill="none" stroke="#5b00c0" d="M359,-162C359,-133.55 318.83,-140.72 309.1,-120.9"/>
<polygon fill="#5b00c0" stroke="#5b00c0" points="312.5,-120.05 307,-111 305.66,-121.51 312.5,-120.05"/>
<text text-anchor="middle" x="358.5" y="-132.8" font-family="Times,serif" font-size="14.00" fill="#5b00c0">rw</text>
</g>
</g>
</svg>
