<?xml version="1.0" encoding="UTF-8" standalone="no"?>
<!DOCTYPE svg PUBLIC "-//W3C//DTD SVG 1.1//EN"
 "http://www.w3.org/Graphics/SVG/1.1/DTD/svg11.dtd">
<!-- Generated by graphviz version 2.43.0 (0)
 -->
<!-- Title: a_graph Pages: 1 -->
<svg width="601pt" height="362pt"
 viewBox="0.00 0.00 601.00 362.00" xmlns="http://www.w3.org/2000/svg" xmlns:xlink="http://www.w3.org/1999/xlink">
<g id="graph0" class="graph" transform="scale(1 1) rotate(0) translate(4 358)">
<title>a_graph</title>
<polygon fill="white" stroke="transparent" points="-4,4 -4,-358 597,-358 597,4 -4,4"/>
<!-- T32490 -->
<g id="node1" class="node">
<title>T32490</title>
<polygon fill="none" stroke="#0058ad" points="175.5,-324.5 175.5,-353.5 335.5,-353.5 335.5,-324.5 175.5,-324.5"/>
<text text-anchor="middle" x="214" y="-335.3" font-family="Times,serif" font-size="14.00" fill="#0058ad">r 1242 2</text>
<polyline fill="none" stroke="#0058ad" points="252.5,-324.5 252.5,-353.5 "/>
<text text-anchor="middle" x="294" y="-335.3" font-family="Times,serif" font-size="14.00" fill="#0058ad">w 1242 3</text>
</g>
<!-- T32503 -->
<g id="node3" class="node">
<title>T32503</title>
<polygon fill="none" stroke="#0058ad" points="289,-243.5 289,-272.5 452,-272.5 452,-243.5 289,-243.5"/>
<text text-anchor="middle" x="332" y="-254.3" font-family="Times,serif" font-size="14.00" fill="#0058ad">r 1244 nil</text>
<polyline fill="none" stroke="#0058ad" points="375,-243.5 375,-272.5 "/>
<text text-anchor="middle" x="413.5" y="-254.3" font-family="Times,serif" font-size="14.00" fill="#0058ad">r 1242 3</text>
</g>
<!-- T32490&#45;&gt;T32503 -->
<g id="edge1" class="edge">
<title>T32490:f1&#45;&gt;T32503:f1</title>
<path fill="none" stroke="#c000a5" d="M336.5,-339C378.05,-339 408.43,-321.22 412.92,-283.12"/>
<polygon fill="#c000a5" stroke="#c000a5" points="416.43,-283.18 413.5,-273 409.44,-282.79 416.43,-283.18"/>
<text text-anchor="middle" x="420" y="-294.8" font-family="Times,serif" font-size="14.00" fill="#c000a5">wr</text>
</g>
<!-- T32491 -->
<g id="node2" class="node">
<title>T32491</title>
<polygon fill="none" stroke="#0058ad" points="248,-81.5 248,-110.5 571,-110.5 571,-81.5 248,-81.5"/>
<text text-anchor="middle" x="289.5" y="-92.3" font-family="Times,serif" font-size="14.00" fill="#0058ad">w 1244 4</text>
<polyline fill="none" stroke="#0058ad" points="331,-81.5 331,-110.5 "/>
<text text-anchor="middle" x="374" y="-92.3" font-family="Times,serif" font-size="14.00" fill="#0058ad">r 1242 nil</text>
<polyline fill="none" stroke="#0058ad" points="417,-81.5 417,-110.5 "/>
<text text-anchor="middle" x="455.5" y="-92.3" font-family="Times,serif" font-size="14.00" fill="#0058ad">r 1244 4</text>
<polyline fill="none" stroke="#0058ad" points="494,-81.5 494,-110.5 "/>
<text text-anchor="middle" x="532.5" y="-92.3" font-family="Times,serif" font-size="14.00" fill="#0058ad">r 1243 1</text>
</g>
<!-- T32491&#45;&gt;T32490 -->
<g id="edge2" class="edge">
<title>T32491:f1&#45;&gt;T32490:f1</title>
<path fill="none" stroke="#5b00c0" d="M373.5,-111C373.5,-148.75 315.58,-100.79 290.5,-129 281.7,-138.9 273.02,-227.98 279.5,-273 282.32,-292.55 290.91,-298.54 293.65,-313.78"/>
<polygon fill="#5b00c0" stroke="#5b00c0" points="290.18,-314.33 294.5,-324 297.16,-313.74 290.18,-314.33"/>
<text text-anchor="middle" x="288" y="-213.8" font-family="Times,serif" font-size="14.00" fill="#5b00c0">rw</text>
</g>
<!-- T32476 -->
<g id="node4" class="node">
<title>T32476</title>
<polygon fill="none" stroke="#0058ad" points="0,-0.5 0,-29.5 335,-29.5 335,-0.5 0,-0.5"/>
<text text-anchor="middle" x="46" y="-11.3" font-family="Times,serif" font-size="14.00" fill="#0058ad">w 1235 16</text>
<polyline fill="none" stroke="#0058ad" points="92,-0.5 92,-29.5 "/>
<text text-anchor="middle" x="133.5" y="-11.3" font-family="Times,serif" font-size="14.00" fill="#0058ad">w 1242 1</text>
<polyline fill="none" stroke="#0058ad" points="175,-0.5 175,-29.5 "/>
<text text-anchor="middle" x="213.5" y="-11.3" font-family="Times,serif" font-size="14.00" fill="#0058ad">r 1241 8</text>
<polyline fill="none" stroke="#0058ad" points="252,-0.5 252,-29.5 "/>
<text text-anchor="middle" x="293.5" y="-11.3" font-family="Times,serif" font-size="14.00" fill="#0058ad">w 1242 2</text>
</g>
<!-- T32491&#45;&gt;T32476 -->
<g id="edge3" class="edge">
<title>T32491:f1&#45;&gt;T32476:f3</title>
<path fill="none" stroke="#5b00c0" d="M373.5,-81C373.5,-51.05 370.83,-22.1 346.48,-16.12"/>
<polygon fill="#5b00c0" stroke="#5b00c0" points="346.83,-12.64 336.5,-15 346.05,-19.59 346.83,-12.64"/>
<text text-anchor="middle" x="382" y="-51.8" font-family="Times,serif" font-size="14.00" fill="#5b00c0">rw</text>
</g>
<!-- T32503&#45;&gt;T32491 -->
<g id="edge5" class="edge">
<title>T32503:f0&#45;&gt;T32491:f0</title>
<path fill="none" stroke="#5b00c0" d="M331.5,-243C331.5,-229.59 299.63,-151.06 291.41,-120.86"/>
<polygon fill="#5b00c0" stroke="#5b00c0" points="294.84,-120.15 289.5,-111 287.97,-121.48 294.84,-120.15"/>
<text text-anchor="middle" x="324" y="-173.3" font-family="Times,serif" font-size="14.00" fill="#5b00c0">rw</text>
</g>
<!-- T32487 -->
<g id="node5" class="node">
<title>T32487</title>
<polygon fill="none" stroke="#0058ad" points="344,-162.5 344,-191.5 593,-191.5 593,-162.5 344,-162.5"/>
<text text-anchor="middle" x="385.5" y="-173.3" font-family="Times,serif" font-size="14.00" fill="#0058ad">w 1244 2</text>
<polyline fill="none" stroke="#0058ad" points="427,-162.5 427,-191.5 "/>
<text text-anchor="middle" x="468.5" y="-173.3" font-family="Times,serif" font-size="14.00" fill="#0058ad">w 1244 3</text>
<polyline fill="none" stroke="#0058ad" points="510,-162.5 510,-191.5 "/>
<text text-anchor="middle" x="551.5" y="-173.3" font-family="Times,serif" font-size="14.00" fill="#0058ad">w 1243 1</text>
</g>
<!-- T32503&#45;&gt;T32487 -->
<g id="edge4" class="edge">
<title>T32503:f0&#45;&gt;T32487:f1</title>
<path fill="none" stroke="#5b00c0" d="M331.5,-243C331.5,-181.84 452.92,-248.21 467.14,-202"/>
<polygon fill="#5b00c0" stroke="#5b00c0" points="470.62,-202.38 468.5,-192 463.69,-201.44 470.62,-202.38"/>
<text text-anchor="middle" x="470" y="-213.8" font-family="Times,serif" font-size="14.00" fill="#5b00c0">rw</text>
</g>
<!-- T32476&#45;&gt;T32490 -->
<g id="edge6" class="edge">
<title>T32476:f3&#45;&gt;T32490:f0</title>
<path fill="none" stroke="#c000a5" d="M293.5,-30C293.5,-75.81 213.5,-49.19 213.5,-95 213.5,-259 213.5,-259 213.5,-259 213.5,-284.16 213.5,-292.89 213.5,-313.82"/>
<polygon fill="#c000a5" stroke="#c000a5" points="210,-314 213.5,-324 217,-314 210,-314"/>
<text text-anchor="middle" x="223" y="-173.3" font-family="Times,serif" font-size="14.00" fill="#c000a5">wr</text>
</g>
<!-- T32487&#45;&gt;T32491 -->
<g id="edge7" class="edge">
<title>T32487:f2&#45;&gt;T32491:f3</title>
<path fill="none" stroke="#c000a5" d="M551.5,-162C551.5,-141.59 537.97,-136.53 533.75,-120.92"/>
<polygon fill="#c000a5" stroke="#c000a5" points="537.22,-120.49 532.5,-111 530.27,-121.36 537.22,-120.49"/>
<text text-anchor="middle" x="556" y="-132.8" font-family="Times,serif" font-size="14.00" fill="#c000a5">wr</text>
</g>
</g>
</svg>
