<?xml version="1.0" encoding="UTF-8" standalone="no"?>
<!DOCTYPE svg PUBLIC "-//W3C//DTD SVG 1.1//EN"
 "http://www.w3.org/Graphics/SVG/1.1/DTD/svg11.dtd">
<!-- Generated by graphviz version 2.43.0 (0)
 -->
<!-- Title: a_graph Pages: 1 -->
<svg width="584pt" height="686pt"
 viewBox="0.00 0.00 583.50 686.00" xmlns="http://www.w3.org/2000/svg" xmlns:xlink="http://www.w3.org/1999/xlink">
<g id="graph0" class="graph" transform="scale(1 1) rotate(0) translate(4 682)">
<title>a_graph</title>
<polygon fill="white" stroke="transparent" points="-4,4 -4,-682 579.5,-682 579.5,4 -4,4"/>
<!-- T11791 -->
<g id="node1" class="node">
<title>T11791</title>
<polygon fill="none" stroke="#0058ad" points="282.5,-648.5 282.5,-677.5 575.5,-677.5 575.5,-648.5 282.5,-648.5"/>
<text text-anchor="middle" x="316.5" y="-659.3" font-family="Times,serif" font-size="14.00" fill="#0058ad">r 455 1</text>
<polyline fill="none" stroke="#0058ad" points="350.5,-648.5 350.5,-677.5 "/>
<text text-anchor="middle" x="384.5" y="-659.3" font-family="Times,serif" font-size="14.00" fill="#0058ad">r 453 5</text>
<polyline fill="none" stroke="#0058ad" points="418.5,-648.5 418.5,-677.5 "/>
<text text-anchor="middle" x="455.5" y="-659.3" font-family="Times,serif" font-size="14.00" fill="#0058ad">w 455 4</text>
<polyline fill="none" stroke="#0058ad" points="492.5,-648.5 492.5,-677.5 "/>
<text text-anchor="middle" x="534" y="-659.3" font-family="Times,serif" font-size="14.00" fill="#0058ad">w 449 14</text>
</g>
<!-- T11794 -->
<g id="node5" class="node">
<title>T11794</title>
<polygon fill="none" stroke="#0058ad" points="422,-567.5 422,-596.5 564,-596.5 564,-567.5 422,-567.5"/>
<text text-anchor="middle" x="456" y="-578.3" font-family="Times,serif" font-size="14.00" fill="#0058ad">r 455 4</text>
<polyline fill="none" stroke="#0058ad" points="490,-567.5 490,-596.5 "/>
<text text-anchor="middle" x="527" y="-578.3" font-family="Times,serif" font-size="14.00" fill="#0058ad">w 455 5</text>
</g>
<!-- T11791&#45;&gt;T11794 -->
<g id="edge1" class="edge">
<title>T11791:f2&#45;&gt;T11794:f0</title>
<path fill="none" stroke="#c000a5" d="M456,-648C456,-629.23 456,-622.12 456,-607.35"/>
<polygon fill="#c000a5" stroke="#c000a5" points="459.5,-607 456,-597 452.5,-607 459.5,-607"/>
<text text-anchor="middle" x="465.5" y="-618.8" font-family="Times,serif" font-size="14.00" fill="#c000a5">wr</text>
</g>
<!-- T11784 -->
<g id="node2" class="node">
<title>T11784</title>
<polygon fill="none" stroke="#0058ad" points="80.5,-0.5 80.5,-29.5 305.5,-29.5 305.5,-0.5 80.5,-0.5"/>
<text text-anchor="middle" x="117.5" y="-11.3" font-family="Times,serif" font-size="14.00" fill="#0058ad">w 453 5</text>
<polyline fill="none" stroke="#0058ad" points="154.5,-0.5 154.5,-29.5 "/>
<text text-anchor="middle" x="188.5" y="-11.3" font-family="Times,serif" font-size="14.00" fill="#0058ad">r 455 1</text>
<polyline fill="none" stroke="#0058ad" points="222.5,-0.5 222.5,-29.5 "/>
<text text-anchor="middle" x="264" y="-11.3" font-family="Times,serif" font-size="14.00" fill="#0058ad">w 438 13</text>
</g>
<!-- T11784&#45;&gt;T11791 -->
<g id="edge2" class="edge">
<title>T11784:f0&#45;&gt;T11791:f1</title>
<path fill="none" stroke="#c000a5" d="M79,-15C29.03,-15 0,-45.03 0,-95 0,-583 0,-583 0,-583 0,-602.74 319.47,-622.54 375.62,-642.29"/>
<polygon fill="#c000a5" stroke="#c000a5" points="373.76,-645.26 384,-648 377.71,-639.48 373.76,-645.26"/>
<text text-anchor="middle" x="9.5" y="-335.3" font-family="Times,serif" font-size="14.00" fill="#c000a5">wr</text>
</g>
<!-- T11778 -->
<g id="node3" class="node">
<title>T11778</title>
<polygon fill="none" stroke="#0058ad" points="148.5,-81.5 148.5,-110.5 355.5,-110.5 355.5,-81.5 148.5,-81.5"/>
<text text-anchor="middle" x="182.5" y="-92.3" font-family="Times,serif" font-size="14.00" fill="#0058ad">r 453 1</text>
<polyline fill="none" stroke="#0058ad" points="216.5,-81.5 216.5,-110.5 "/>
<text text-anchor="middle" x="253.5" y="-92.3" font-family="Times,serif" font-size="14.00" fill="#0058ad">w 455 1</text>
<polyline fill="none" stroke="#0058ad" points="290.5,-81.5 290.5,-110.5 "/>
<text text-anchor="middle" x="323" y="-92.3" font-family="Times,serif" font-size="14.00" fill="#0058ad">w 1 13</text>
</g>
<!-- T11778&#45;&gt;T11791 -->
<g id="edge4" class="edge">
<title>T11778:f1&#45;&gt;T11791:f0</title>
<path fill="none" stroke="#c000a5" d="M254,-111C254,-179.6 394,-107.4 394,-176 394,-583 394,-583 394,-583 394,-624.25 328.83,-606.69 317.63,-637.84"/>
<polygon fill="#c000a5" stroke="#c000a5" points="314.13,-637.57 316,-648 321.04,-638.68 314.13,-637.57"/>
<text text-anchor="middle" x="403.5" y="-375.8" font-family="Times,serif" font-size="14.00" fill="#c000a5">wr</text>
</g>
<!-- T11778&#45;&gt;T11784 -->
<g id="edge3" class="edge">
<title>T11778:f1&#45;&gt;T11784:f1</title>
<path fill="none" stroke="#c000a5" d="M254,-81C254,-47.84 201.19,-62.86 190.05,-39.86"/>
<polygon fill="#c000a5" stroke="#c000a5" points="193.46,-39.08 188,-30 186.61,-40.5 193.46,-39.08"/>
<text text-anchor="middle" x="252.5" y="-51.8" font-family="Times,serif" font-size="14.00" fill="#c000a5">wr</text>
</g>
<!-- T11745 -->
<g id="node4" class="node">
<title>T11745</title>
<polygon fill="none" stroke="#0058ad" points="28,-405.5 28,-434.5 324,-434.5 324,-405.5 28,-405.5"/>
<text text-anchor="middle" x="65" y="-416.3" font-family="Times,serif" font-size="14.00" fill="#0058ad">w 452 1</text>
<polyline fill="none" stroke="#0058ad" points="102,-405.5 102,-434.5 "/>
<text text-anchor="middle" x="139" y="-416.3" font-family="Times,serif" font-size="14.00" fill="#0058ad">w 454 1</text>
<polyline fill="none" stroke="#0058ad" points="176,-405.5 176,-434.5 "/>
<text text-anchor="middle" x="213" y="-416.3" font-family="Times,serif" font-size="14.00" fill="#0058ad">w 454 2</text>
<polyline fill="none" stroke="#0058ad" points="250,-405.5 250,-434.5 "/>
<text text-anchor="middle" x="287" y="-416.3" font-family="Times,serif" font-size="14.00" fill="#0058ad">w 454 3</text>
</g>
<!-- T11750 -->
<g id="node7" class="node">
<title>T11750</title>
<polygon fill="none" stroke="#0058ad" points="183,-324.5 183,-353.5 251,-353.5 251,-324.5 183,-324.5"/>
<text text-anchor="middle" x="217" y="-335.3" font-family="Times,serif" font-size="14.00" fill="#0058ad">r 452 1</text>
</g>
<!-- T11745&#45;&gt;T11750 -->
<g id="edge5" class="edge">
<title>T11745:f0&#45;&gt;T11750:f0</title>
<path fill="none" stroke="#c000a5" d="M65,-405C65,-379.22 139.76,-367.75 174.39,-357.01"/>
<polygon fill="#c000a5" stroke="#c000a5" points="175.84,-360.21 184.07,-353.53 173.48,-353.62 175.84,-360.21"/>
<text text-anchor="middle" x="127.5" y="-375.8" font-family="Times,serif" font-size="14.00" fill="#c000a5">wr</text>
</g>
<!-- T11761 -->
<g id="node9" class="node">
<title>T11761</title>
<polygon fill="none" stroke="#0058ad" points="31.5,-243.5 31.5,-272.5 324.5,-272.5 324.5,-243.5 31.5,-243.5"/>
<text text-anchor="middle" x="65.5" y="-254.3" font-family="Times,serif" font-size="14.00" fill="#0058ad">r 452 1</text>
<polyline fill="none" stroke="#0058ad" points="99.5,-243.5 99.5,-272.5 "/>
<text text-anchor="middle" x="138" y="-254.3" font-family="Times,serif" font-size="14.00" fill="#0058ad">r 453 nil</text>
<polyline fill="none" stroke="#0058ad" points="176.5,-243.5 176.5,-272.5 "/>
<text text-anchor="middle" x="213.5" y="-254.3" font-family="Times,serif" font-size="14.00" fill="#0058ad">w 454 9</text>
<polyline fill="none" stroke="#0058ad" points="250.5,-243.5 250.5,-272.5 "/>
<text text-anchor="middle" x="287.5" y="-254.3" font-family="Times,serif" font-size="14.00" fill="#0058ad">w 452 2</text>
</g>
<!-- T11745&#45;&gt;T11761 -->
<g id="edge6" class="edge">
<title>T11745:f0&#45;&gt;T11761:f0</title>
<path fill="none" stroke="#c000a5" d="M65,-405C65,-349.89 65,-333.6 65,-283.19"/>
<polygon fill="#c000a5" stroke="#c000a5" points="68.5,-283 65,-273 61.5,-283 68.5,-283"/>
<text text-anchor="middle" x="74.5" y="-335.3" font-family="Times,serif" font-size="14.00" fill="#c000a5">wr</text>
</g>
<!-- T11814 -->
<g id="node8" class="node">
<title>T11814</title>
<polygon fill="none" stroke="#0058ad" points="220.5,-486.5 220.5,-515.5 365.5,-515.5 365.5,-486.5 220.5,-486.5"/>
<text text-anchor="middle" x="259" y="-497.3" font-family="Times,serif" font-size="14.00" fill="#0058ad">r 452 nil</text>
<polyline fill="none" stroke="#0058ad" points="297.5,-486.5 297.5,-515.5 "/>
<text text-anchor="middle" x="331.5" y="-497.3" font-family="Times,serif" font-size="14.00" fill="#0058ad">r 455 5</text>
</g>
<!-- T11794&#45;&gt;T11814 -->
<g id="edge7" class="edge">
<title>T11794:f1&#45;&gt;T11814:f1</title>
<path fill="none" stroke="#c000a5" d="M527,-567C527,-531.47 423.27,-505.26 377.14,-501.47"/>
<polygon fill="#c000a5" stroke="#c000a5" points="377.15,-497.97 367,-501 376.83,-504.96 377.15,-497.97"/>
<text text-anchor="middle" x="525.5" y="-537.8" font-family="Times,serif" font-size="14.00" fill="#c000a5">wr</text>
</g>
<!-- T11763 -->
<g id="node6" class="node">
<title>T11763</title>
<polygon fill="none" stroke="#0058ad" points="145,-162.5 145,-191.5 355,-191.5 355,-162.5 145,-162.5"/>
<text text-anchor="middle" x="182" y="-173.3" font-family="Times,serif" font-size="14.00" fill="#0058ad">w 453 1</text>
<polyline fill="none" stroke="#0058ad" points="219,-162.5 219,-191.5 "/>
<text text-anchor="middle" x="253" y="-173.3" font-family="Times,serif" font-size="14.00" fill="#0058ad">r 454 7</text>
<polyline fill="none" stroke="#0058ad" points="287,-162.5 287,-191.5 "/>
<text text-anchor="middle" x="321" y="-173.3" font-family="Times,serif" font-size="14.00" fill="#0058ad">r 453 1</text>
</g>
<!-- T11763&#45;&gt;T11778 -->
<g id="edge8" class="edge">
<title>T11763:f0&#45;&gt;T11778:f0</title>
<path fill="none" stroke="#c000a5" d="M182,-162C182,-143.23 182,-136.12 182,-121.35"/>
<polygon fill="#c000a5" stroke="#c000a5" points="185.5,-121 182,-111 178.5,-121 185.5,-121"/>
<text text-anchor="middle" x="191.5" y="-132.8" font-family="Times,serif" font-size="14.00" fill="#c000a5">wr</text>
</g>
<!-- T11750&#45;&gt;T11761 -->
<g id="edge9" class="edge">
<title>T11750:f0&#45;&gt;T11761:f3</title>
<path fill="none" stroke="#5b00c0" d="M248.76,-324.42C264.79,-315.03 281.84,-301.18 286.66,-283.13"/>
<polygon fill="#5b00c0" stroke="#5b00c0" points="290.16,-283.37 288,-273 283.22,-282.46 290.16,-283.37"/>
<text text-anchor="middle" x="293.5" y="-294.8" font-family="Times,serif" font-size="14.00" fill="#5b00c0">rw</text>
</g>
<!-- T11814&#45;&gt;T11745 -->
<g id="edge11" class="edge">
<title>T11814:f0&#45;&gt;T11745:f0</title>
<path fill="none" stroke="#5b00c0" d="M219,-501C185.11,-501 85.34,-477.17 67.69,-444.82"/>
<polygon fill="#5b00c0" stroke="#5b00c0" points="71.01,-443.72 65,-435 64.26,-445.57 71.01,-443.72"/>
<text text-anchor="middle" x="104.5" y="-456.8" font-family="Times,serif" font-size="14.00" fill="#5b00c0">rw</text>
</g>
<!-- T11814&#45;&gt;T11761 -->
<g id="edge10" class="edge">
<title>T11814:f0&#45;&gt;T11761:f3</title>
<path fill="none" stroke="#5b00c0" d="M259,-486C259,-446.06 314.42,-470.36 333,-435 340.43,-420.85 359.63,-288.12 335.45,-262.33"/>
<polygon fill="#5b00c0" stroke="#5b00c0" points="336.55,-258.98 326,-258 333.63,-265.35 336.55,-258.98"/>
<text text-anchor="middle" x="354.5" y="-375.8" font-family="Times,serif" font-size="14.00" fill="#5b00c0">rw</text>
</g>
<!-- T11761&#45;&gt;T11784 -->
<g id="edge12" class="edge">
<title>T11761:f1&#45;&gt;T11784:f0</title>
<path fill="none" stroke="#5b00c0" d="M138,-243C138,-151.31 118.49,-126.86 117.08,-40.03"/>
<polygon fill="#5b00c0" stroke="#5b00c0" points="120.58,-39.97 117,-30 113.58,-40.03 120.58,-39.97"/>
<text text-anchor="middle" x="138.5" y="-132.8" font-family="Times,serif" font-size="14.00" fill="#5b00c0">rw</text>
</g>
<!-- T11761&#45;&gt;T11763 -->
<g id="edge13" class="edge">
<title>T11761:f1&#45;&gt;T11763:f0</title>
<path fill="none" stroke="#5b00c0" d="M138,-243C138,-217.04 171.09,-220.26 179.88,-202.06"/>
<polygon fill="#5b00c0" stroke="#5b00c0" points="183.36,-202.51 182,-192 176.51,-201.06 183.36,-202.51"/>
<text text-anchor="middle" x="182.5" y="-213.8" font-family="Times,serif" font-size="14.00" fill="#5b00c0">rw</text>
</g>
</g>
</svg>
