<?xml version="1.0" encoding="UTF-8" standalone="no"?>
<!DOCTYPE svg PUBLIC "-//W3C//DTD SVG 1.1//EN"
 "http://www.w3.org/Graphics/SVG/1.1/DTD/svg11.dtd">
<!-- Generated by graphviz version 2.43.0 (0)
 -->
<!-- Title: a_graph Pages: 1 -->
<svg width="556pt" height="200pt"
 viewBox="0.00 0.00 556.00 200.00" xmlns="http://www.w3.org/2000/svg" xmlns:xlink="http://www.w3.org/1999/xlink">
<g id="graph0" class="graph" transform="scale(1 1) rotate(0) translate(4 196)">
<title>a_graph</title>
<polygon fill="white" stroke="transparent" points="-4,4 -4,-196 552,-196 552,4 -4,4"/>
<!-- T11277 -->
<g id="node1" class="node">
<title>T11277</title>
<polygon fill="none" stroke="#0058ad" points="89,-162.5 89,-191.5 326,-191.5 326,-162.5 89,-162.5"/>
<text text-anchor="middle" x="127.5" y="-173.3" font-family="Times,serif" font-size="14.00" fill="#0058ad">r 433 12</text>
<polyline fill="none" stroke="#0058ad" points="166,-162.5 166,-191.5 "/>
<text text-anchor="middle" x="207.5" y="-173.3" font-family="Times,serif" font-size="14.00" fill="#0058ad">w 433 14</text>
<polyline fill="none" stroke="#0058ad" points="249,-162.5 249,-191.5 "/>
<text text-anchor="middle" x="287.5" y="-173.3" font-family="Times,serif" font-size="14.00" fill="#0058ad">r 434 nil</text>
</g>
<!-- T11249 -->
<g id="node4" class="node">
<title>T11249</title>
<polygon fill="none" stroke="#0058ad" points="179,-81.5 179,-110.5 478,-110.5 478,-81.5 179,-81.5"/>
<text text-anchor="middle" x="217.5" y="-92.3" font-family="Times,serif" font-size="14.00" fill="#0058ad">r 435 nil</text>
<polyline fill="none" stroke="#0058ad" points="256,-81.5 256,-110.5 "/>
<text text-anchor="middle" x="293" y="-92.3" font-family="Times,serif" font-size="14.00" fill="#0058ad">w 435 1</text>
<polyline fill="none" stroke="#0058ad" points="330,-81.5 330,-110.5 "/>
<text text-anchor="middle" x="367" y="-92.3" font-family="Times,serif" font-size="14.00" fill="#0058ad">w 434 1</text>
<polyline fill="none" stroke="#0058ad" points="404,-81.5 404,-110.5 "/>
<text text-anchor="middle" x="441" y="-92.3" font-family="Times,serif" font-size="14.00" fill="#0058ad">w 433 9</text>
</g>
<!-- T11277&#45;&gt;T11249 -->
<g id="edge1" class="edge">
<title>T11277:f2&#45;&gt;T11249:f2</title>
<path fill="none" stroke="#5b00c0" d="M327.5,-177C358.32,-177 366.05,-151.41 367.3,-121.34"/>
<polygon fill="#5b00c0" stroke="#5b00c0" points="370.81,-121.07 367.5,-111 363.81,-120.93 370.81,-121.07"/>
<text text-anchor="middle" x="376" y="-132.8" font-family="Times,serif" font-size="14.00" fill="#5b00c0">rw</text>
</g>
<!-- T11270 -->
<g id="node2" class="node">
<title>T11270</title>
<polygon fill="none" stroke="#0058ad" points="0,-0.5 0,-29.5 243,-29.5 243,-0.5 0,-0.5"/>
<text text-anchor="middle" x="41.5" y="-11.3" font-family="Times,serif" font-size="14.00" fill="#0058ad">w 420 15</text>
<polyline fill="none" stroke="#0058ad" points="83,-0.5 83,-29.5 "/>
<text text-anchor="middle" x="121.5" y="-11.3" font-family="Times,serif" font-size="14.00" fill="#0058ad">r 433 12</text>
<polyline fill="none" stroke="#0058ad" points="160,-0.5 160,-29.5 "/>
<text text-anchor="middle" x="201.5" y="-11.3" font-family="Times,serif" font-size="14.00" fill="#0058ad">w 435 11</text>
</g>
<!-- T11270&#45;&gt;T11277 -->
<g id="edge2" class="edge">
<title>T11270:f1&#45;&gt;T11277:f1</title>
<path fill="none" stroke="#5b00c0" d="M121.5,-30C121.5,-68.24 129.15,-79.28 150.5,-111 167.33,-136.01 199.13,-130.04 206.12,-152.06"/>
<polygon fill="#5b00c0" stroke="#5b00c0" points="202.66,-152.58 207.5,-162 209.59,-151.61 202.66,-152.58"/>
<text text-anchor="middle" x="160" y="-92.3" font-family="Times,serif" font-size="14.00" fill="#5b00c0">rw</text>
</g>
<!-- T11261 -->
<g id="node3" class="node">
<title>T11261</title>
<polygon fill="none" stroke="#0058ad" points="261,-0.5 261,-29.5 548,-29.5 548,-0.5 261,-0.5"/>
<text text-anchor="middle" x="298" y="-11.3" font-family="Times,serif" font-size="14.00" fill="#0058ad">w 435 7</text>
<polyline fill="none" stroke="#0058ad" points="335,-0.5 335,-29.5 "/>
<text text-anchor="middle" x="373.5" y="-11.3" font-family="Times,serif" font-size="14.00" fill="#0058ad">r 434 nil</text>
<polyline fill="none" stroke="#0058ad" points="412,-0.5 412,-29.5 "/>
<text text-anchor="middle" x="446" y="-11.3" font-family="Times,serif" font-size="14.00" fill="#0058ad">r 435 7</text>
<polyline fill="none" stroke="#0058ad" points="480,-0.5 480,-29.5 "/>
<text text-anchor="middle" x="514" y="-11.3" font-family="Times,serif" font-size="14.00" fill="#0058ad">r 435 7</text>
</g>
<!-- T11261&#45;&gt;T11249 -->
<g id="edge3" class="edge">
<title>T11261:f1&#45;&gt;T11249:f2</title>
<path fill="none" stroke="#5b00c0" d="M373.5,-30C373.5,-48.9 369.39,-55.82 367.97,-70.6"/>
<polygon fill="#5b00c0" stroke="#5b00c0" points="364.46,-70.85 367.5,-81 371.45,-71.17 364.46,-70.85"/>
<text text-anchor="middle" x="381" y="-51.8" font-family="Times,serif" font-size="14.00" fill="#5b00c0">rw</text>
</g>
<!-- T11249&#45;&gt;T11270 -->
<g id="edge5" class="edge">
<title>T11249:f0&#45;&gt;T11270:f2</title>
<path fill="none" stroke="#5b00c0" d="M217.5,-81C217.5,-61.14 206.32,-55.45 202.65,-40.23"/>
<polygon fill="#5b00c0" stroke="#5b00c0" points="206.1,-39.55 201.5,-30 199.14,-40.33 206.1,-39.55"/>
<text text-anchor="middle" x="223" y="-51.8" font-family="Times,serif" font-size="14.00" fill="#5b00c0">rw</text>
</g>
<!-- T11249&#45;&gt;T11261 -->
<g id="edge4" class="edge">
<title>T11249:f0&#45;&gt;T11261:f0</title>
<path fill="none" stroke="#5b00c0" d="M217.5,-81C217.5,-63.21 274.45,-54.14 292.25,-39.08"/>
<polygon fill="#5b00c0" stroke="#5b00c0" points="295.52,-40.41 297.5,-30 289.46,-36.91 295.52,-40.41"/>
<text text-anchor="middle" x="286" y="-51.8" font-family="Times,serif" font-size="14.00" fill="#5b00c0">rw</text>
</g>
</g>
</svg>
