<?xml version="1.0" encoding="UTF-8" standalone="no"?>
<!DOCTYPE svg PUBLIC "-//W3C//DTD SVG 1.1//EN"
 "http://www.w3.org/Graphics/SVG/1.1/DTD/svg11.dtd">
<!-- Generated by graphviz version 2.43.0 (0)
 -->
<!-- Title: a_graph Pages: 1 -->
<svg width="561pt" height="362pt"
 viewBox="0.00 0.00 561.00 362.00" xmlns="http://www.w3.org/2000/svg" xmlns:xlink="http://www.w3.org/1999/xlink">
<g id="graph0" class="graph" transform="scale(1 1) rotate(0) translate(4 358)">
<title>a_graph</title>
<polygon fill="white" stroke="transparent" points="-4,4 -4,-358 557,-358 557,4 -4,4"/>
<!-- T20190 -->
<g id="node1" class="node">
<title>T20190</title>
<polygon fill="none" stroke="#0058ad" points="0,-324.5 0,-353.5 314,-353.5 314,-324.5 0,-324.5"/>
<text text-anchor="middle" x="41.5" y="-335.3" font-family="Times,serif" font-size="14.00" fill="#0058ad">w 771 15</text>
<polyline fill="none" stroke="#0058ad" points="83,-324.5 83,-353.5 "/>
<text text-anchor="middle" x="120" y="-335.3" font-family="Times,serif" font-size="14.00" fill="#0058ad">w 773 1</text>
<polyline fill="none" stroke="#0058ad" points="157,-324.5 157,-353.5 "/>
<text text-anchor="middle" x="194" y="-335.3" font-family="Times,serif" font-size="14.00" fill="#0058ad">w 773 2</text>
<polyline fill="none" stroke="#0058ad" points="231,-324.5 231,-353.5 "/>
<text text-anchor="middle" x="272.5" y="-335.3" font-family="Times,serif" font-size="14.00" fill="#0058ad">w 771 16</text>
</g>
<!-- T20201 -->
<g id="node2" class="node">
<title>T20201</title>
<polygon fill="none" stroke="#0058ad" points="364.5,-243.5 364.5,-272.5 509.5,-272.5 509.5,-243.5 364.5,-243.5"/>
<text text-anchor="middle" x="403" y="-254.3" font-family="Times,serif" font-size="14.00" fill="#0058ad">r 774 nil</text>
<polyline fill="none" stroke="#0058ad" points="441.5,-243.5 441.5,-272.5 "/>
<text text-anchor="middle" x="475.5" y="-254.3" font-family="Times,serif" font-size="14.00" fill="#0058ad">r 773 2</text>
</g>
<!-- T20190&#45;&gt;T20201 -->
<g id="edge1" class="edge">
<title>T20190:f2&#45;&gt;T20201:f1</title>
<path fill="none" stroke="#c000a5" d="M194,-324C194,-200.24 460.25,-389.09 475.33,-283.04"/>
<polygon fill="#c000a5" stroke="#c000a5" points="478.83,-283.21 476,-273 471.85,-282.75 478.83,-283.21"/>
<text text-anchor="middle" x="483.5" y="-294.8" font-family="Times,serif" font-size="14.00" fill="#c000a5">wr</text>
</g>
<!-- T20207 -->
<g id="node3" class="node">
<title>T20207</title>
<polygon fill="none" stroke="#0058ad" points="215,-162.5 215,-191.5 517,-191.5 517,-162.5 215,-162.5"/>
<text text-anchor="middle" x="256.5" y="-173.3" font-family="Times,serif" font-size="14.00" fill="#0058ad">w 766 15</text>
<polyline fill="none" stroke="#0058ad" points="298,-162.5 298,-191.5 "/>
<text text-anchor="middle" x="332" y="-173.3" font-family="Times,serif" font-size="14.00" fill="#0058ad">r 772 6</text>
<polyline fill="none" stroke="#0058ad" points="366,-162.5 366,-191.5 "/>
<text text-anchor="middle" x="403" y="-173.3" font-family="Times,serif" font-size="14.00" fill="#0058ad">w 774 3</text>
<polyline fill="none" stroke="#0058ad" points="440,-162.5 440,-191.5 "/>
<text text-anchor="middle" x="478.5" y="-173.3" font-family="Times,serif" font-size="14.00" fill="#0058ad">r 766 15</text>
</g>
<!-- T20201&#45;&gt;T20207 -->
<g id="edge2" class="edge">
<title>T20201:f0&#45;&gt;T20207:f2</title>
<path fill="none" stroke="#5b00c0" d="M403,-243C403,-224.23 403,-217.12 403,-202.35"/>
<polygon fill="#5b00c0" stroke="#5b00c0" points="406.5,-202 403,-192 399.5,-202 406.5,-202"/>
<text text-anchor="middle" x="412.5" y="-213.8" font-family="Times,serif" font-size="14.00" fill="#5b00c0">rw</text>
</g>
<!-- T20211 -->
<g id="node4" class="node">
<title>T20211</title>
<polygon fill="none" stroke="#0058ad" points="369,-81.5 369,-110.5 511,-110.5 511,-81.5 369,-81.5"/>
<text text-anchor="middle" x="403" y="-92.3" font-family="Times,serif" font-size="14.00" fill="#0058ad">r 774 3</text>
<polyline fill="none" stroke="#0058ad" points="437,-81.5 437,-110.5 "/>
<text text-anchor="middle" x="474" y="-92.3" font-family="Times,serif" font-size="14.00" fill="#0058ad">w 774 5</text>
</g>
<!-- T20201&#45;&gt;T20211 -->
<g id="edge3" class="edge">
<title>T20201:f0&#45;&gt;T20211:f1</title>
<path fill="none" stroke="#5b00c0" d="M403,-243C403,-228.21 517.78,-204.3 526,-192 539.73,-171.45 532.42,-120.01 520.4,-102.19"/>
<polygon fill="#5b00c0" stroke="#5b00c0" points="522.13,-99.12 512,-96 517.97,-104.75 522.13,-99.12"/>
<text text-anchor="middle" x="543.5" y="-173.3" font-family="Times,serif" font-size="14.00" fill="#5b00c0">rw</text>
</g>
<!-- T20207&#45;&gt;T20211 -->
<g id="edge4" class="edge">
<title>T20207:f2&#45;&gt;T20211:f0</title>
<path fill="none" stroke="#c000a5" d="M403,-162C403,-143.23 403,-136.12 403,-121.35"/>
<polygon fill="#c000a5" stroke="#c000a5" points="406.5,-121 403,-111 399.5,-121 406.5,-121"/>
<text text-anchor="middle" x="412.5" y="-132.8" font-family="Times,serif" font-size="14.00" fill="#c000a5">wr</text>
</g>
<!-- T20217 -->
<g id="node5" class="node">
<title>T20217</title>
<polygon fill="none" stroke="#0058ad" points="251.5,-0.5 251.5,-29.5 532.5,-29.5 532.5,-0.5 251.5,-0.5"/>
<text text-anchor="middle" x="290" y="-11.3" font-family="Times,serif" font-size="14.00" fill="#0058ad">r 773 nil</text>
<polyline fill="none" stroke="#0058ad" points="328.5,-0.5 328.5,-29.5 "/>
<text text-anchor="middle" x="362.5" y="-11.3" font-family="Times,serif" font-size="14.00" fill="#0058ad">r 774 5</text>
<polyline fill="none" stroke="#0058ad" points="396.5,-0.5 396.5,-29.5 "/>
<text text-anchor="middle" x="430.5" y="-11.3" font-family="Times,serif" font-size="14.00" fill="#0058ad">r 774 5</text>
<polyline fill="none" stroke="#0058ad" points="464.5,-0.5 464.5,-29.5 "/>
<text text-anchor="middle" x="498.5" y="-11.3" font-family="Times,serif" font-size="14.00" fill="#0058ad">r 746 4</text>
</g>
<!-- T20211&#45;&gt;T20217 -->
<g id="edge5" class="edge">
<title>T20211:f1&#45;&gt;T20217:f1</title>
<path fill="none" stroke="#c000a5" d="M474,-81C474,-30.15 377.2,-77.04 363.58,-39.94"/>
<polygon fill="#c000a5" stroke="#c000a5" points="367.03,-39.32 362,-30 360.12,-40.43 367.03,-39.32"/>
<text text-anchor="middle" x="476.5" y="-51.8" font-family="Times,serif" font-size="14.00" fill="#c000a5">wr</text>
</g>
<!-- T20217&#45;&gt;T20190 -->
<g id="edge6" class="edge">
<title>T20217:f0&#45;&gt;T20190:f2</title>
<path fill="none" stroke="#5b00c0" d="M250,-15C202.16,-15 178,-47.16 178,-95 178,-259 178,-259 178,-259 178,-285.03 190.25,-292.5 193.31,-313.89"/>
<polygon fill="#5b00c0" stroke="#5b00c0" points="189.83,-314.26 194,-324 196.81,-313.79 189.83,-314.26"/>
<text text-anchor="middle" x="187.5" y="-173.3" font-family="Times,serif" font-size="14.00" fill="#5b00c0">rw</text>
</g>
</g>
</svg>
