<?xml version="1.0" encoding="UTF-8" standalone="no"?>
<!DOCTYPE svg PUBLIC "-//W3C//DTD SVG 1.1//EN"
 "http://www.w3.org/Graphics/SVG/1.1/DTD/svg11.dtd">
<!-- Generated by graphviz version 2.43.0 (0)
 -->
<!-- Title: a_graph Pages: 1 -->
<svg width="470pt" height="281pt"
 viewBox="0.00 0.00 469.50 281.00" xmlns="http://www.w3.org/2000/svg" xmlns:xlink="http://www.w3.org/1999/xlink">
<g id="graph0" class="graph" transform="scale(1 1) rotate(0) translate(4 277)">
<title>a_graph</title>
<polygon fill="white" stroke="transparent" points="-4,4 -4,-277 465.5,-277 465.5,4 -4,4"/>
<!-- T11299 -->
<g id="node1" class="node">
<title>T11299</title>
<polygon fill="none" stroke="#0058ad" points="136,-243.5 136,-272.5 355,-272.5 355,-243.5 136,-243.5"/>
<text text-anchor="middle" x="173" y="-254.3" font-family="Times,serif" font-size="14.00" fill="#0058ad">w 436 2</text>
<polyline fill="none" stroke="#0058ad" points="210,-243.5 210,-272.5 "/>
<text text-anchor="middle" x="244" y="-254.3" font-family="Times,serif" font-size="14.00" fill="#0058ad">r 436 2</text>
<polyline fill="none" stroke="#0058ad" points="278,-243.5 278,-272.5 "/>
<text text-anchor="middle" x="316.5" y="-254.3" font-family="Times,serif" font-size="14.00" fill="#0058ad">r 437 nil</text>
</g>
<!-- T11304 -->
<g id="node2" class="node">
<title>T11304</title>
<polygon fill="none" stroke="#0058ad" points="72.5,-162.5 72.5,-191.5 300.5,-191.5 300.5,-162.5 72.5,-162.5"/>
<text text-anchor="middle" x="111" y="-173.3" font-family="Times,serif" font-size="14.00" fill="#0058ad">r 437 nil</text>
<polyline fill="none" stroke="#0058ad" points="149.5,-162.5 149.5,-191.5 "/>
<text text-anchor="middle" x="188" y="-173.3" font-family="Times,serif" font-size="14.00" fill="#0058ad">r 437 nil</text>
<polyline fill="none" stroke="#0058ad" points="226.5,-162.5 226.5,-191.5 "/>
<text text-anchor="middle" x="263.5" y="-173.3" font-family="Times,serif" font-size="14.00" fill="#0058ad">w 437 5</text>
</g>
<!-- T11299&#45;&gt;T11304 -->
<g id="edge2" class="edge">
<title>T11299:f2&#45;&gt;T11304:f2</title>
<path fill="none" stroke="#5b00c0" d="M316.5,-243C316.5,-214.27 275.56,-221.9 265.64,-201.97"/>
<polygon fill="#5b00c0" stroke="#5b00c0" points="269.02,-201.04 263.5,-192 262.18,-202.51 269.02,-201.04"/>
<text text-anchor="middle" x="315" y="-213.8" font-family="Times,serif" font-size="14.00" fill="#5b00c0">rw</text>
</g>
<!-- T11300 -->
<g id="node3" class="node">
<title>T11300</title>
<polygon fill="none" stroke="#0058ad" points="109,-81.5 109,-110.5 408,-110.5 408,-81.5 109,-81.5"/>
<text text-anchor="middle" x="147.5" y="-92.3" font-family="Times,serif" font-size="14.00" fill="#0058ad">r 437 nil</text>
<polyline fill="none" stroke="#0058ad" points="186,-81.5 186,-110.5 "/>
<text text-anchor="middle" x="223" y="-92.3" font-family="Times,serif" font-size="14.00" fill="#0058ad">w 437 1</text>
<polyline fill="none" stroke="#0058ad" points="260,-81.5 260,-110.5 "/>
<text text-anchor="middle" x="297" y="-92.3" font-family="Times,serif" font-size="14.00" fill="#0058ad">w 437 2</text>
<polyline fill="none" stroke="#0058ad" points="334,-81.5 334,-110.5 "/>
<text text-anchor="middle" x="371" y="-92.3" font-family="Times,serif" font-size="14.00" fill="#0058ad">w 437 3</text>
</g>
<!-- T11299&#45;&gt;T11300 -->
<g id="edge1" class="edge">
<title>T11299:f2&#45;&gt;T11300:f3</title>
<path fill="none" stroke="#5b00c0" d="M356.5,-258C418.84,-258 376.35,-184.72 371.87,-121.11"/>
<polygon fill="#5b00c0" stroke="#5b00c0" points="375.36,-120.87 371.5,-111 368.37,-121.12 375.36,-120.87"/>
<text text-anchor="middle" x="394" y="-173.3" font-family="Times,serif" font-size="14.00" fill="#5b00c0">rw</text>
</g>
<!-- T11302 -->
<g id="node4" class="node">
<title>T11302</title>
<polygon fill="none" stroke="#0058ad" points="0,-0.5 0,-29.5 219,-29.5 219,-0.5 0,-0.5"/>
<text text-anchor="middle" x="38.5" y="-11.3" font-family="Times,serif" font-size="14.00" fill="#0058ad">r 436 nil</text>
<polyline fill="none" stroke="#0058ad" points="77,-0.5 77,-29.5 "/>
<text text-anchor="middle" x="114" y="-11.3" font-family="Times,serif" font-size="14.00" fill="#0058ad">w 437 4</text>
<polyline fill="none" stroke="#0058ad" points="151,-0.5 151,-29.5 "/>
<text text-anchor="middle" x="185" y="-11.3" font-family="Times,serif" font-size="14.00" fill="#0058ad">r 437 4</text>
</g>
<!-- T11299&#45;&gt;T11302 -->
<g id="edge3" class="edge">
<title>T11299:f2&#45;&gt;T11302:f1</title>
<path fill="none" stroke="#5b00c0" d="M356.5,-258C439.71,-258 471.23,-144.53 417.5,-81 407.62,-69.32 171.94,-51.31 123.25,-35.41"/>
<polygon fill="#5b00c0" stroke="#5b00c0" points="124.85,-32.28 114.5,-30 121.16,-38.24 124.85,-32.28"/>
<text text-anchor="middle" x="452" y="-132.8" font-family="Times,serif" font-size="14.00" fill="#5b00c0">rw</text>
</g>
<!-- T11304&#45;&gt;T11300 -->
<g id="edge4" class="edge">
<title>T11304:f0&#45;&gt;T11300:f3</title>
<path fill="none" stroke="#5b00c0" d="M110.5,-162C110.5,-146.91 106.98,-138.75 118.5,-129 137.75,-112.72 325.01,-133.71 364.29,-118.15"/>
<polygon fill="#5b00c0" stroke="#5b00c0" points="366.87,-120.53 371.5,-111 361.94,-115.56 366.87,-120.53"/>
<text text-anchor="middle" x="128" y="-132.8" font-family="Times,serif" font-size="14.00" fill="#5b00c0">rw</text>
</g>
<!-- T11304&#45;&gt;T11302 -->
<g id="edge5" class="edge">
<title>T11304:f0&#45;&gt;T11302:f1</title>
<path fill="none" stroke="#5b00c0" d="M71.5,-177C66.08,-177 46.72,-175.53 80.5,-81 88.38,-58.95 107.83,-57.25 113.14,-39.92"/>
<polygon fill="#5b00c0" stroke="#5b00c0" points="116.61,-40.38 114.5,-30 109.67,-39.43 116.61,-40.38"/>
<text text-anchor="middle" x="90" y="-92.3" font-family="Times,serif" font-size="14.00" fill="#5b00c0">rw</text>
</g>
<!-- T11300&#45;&gt;T11304 -->
<g id="edge6" class="edge">
<title>T11300:f0&#45;&gt;T11304:f2</title>
<path fill="none" stroke="#5b00c0" d="M147.5,-111C147.5,-163.36 247.76,-113.77 261.86,-151.79"/>
<polygon fill="#5b00c0" stroke="#5b00c0" points="258.46,-152.68 263.5,-162 265.37,-151.57 258.46,-152.68"/>
<text text-anchor="middle" x="265" y="-132.8" font-family="Times,serif" font-size="14.00" fill="#5b00c0">rw</text>
</g>
<!-- T11300&#45;&gt;T11302 -->
<g id="edge7" class="edge">
<title>T11300:f0&#45;&gt;T11302:f1</title>
<path fill="none" stroke="#5b00c0" d="M147.5,-81C147.5,-58.01 123.57,-56.77 116.47,-40.24"/>
<polygon fill="#5b00c0" stroke="#5b00c0" points="119.82,-39.16 114.5,-30 112.95,-40.48 119.82,-39.16"/>
<text text-anchor="middle" x="150" y="-51.8" font-family="Times,serif" font-size="14.00" fill="#5b00c0">rw</text>
</g>
<!-- T11302&#45;&gt;T11299 -->
<g id="edge8" class="edge">
<title>T11302:f0&#45;&gt;T11299:f0</title>
<path fill="none" stroke="#5b00c0" d="M38.5,-30C38.5,-136.41 25.44,-250.4 124.25,-257.64"/>
<polygon fill="#5b00c0" stroke="#5b00c0" points="124.38,-261.14 134.5,-258 124.63,-254.15 124.38,-261.14"/>
<text text-anchor="middle" x="49" y="-132.8" font-family="Times,serif" font-size="14.00" fill="#5b00c0">rw</text>
</g>
</g>
</svg>
