<?xml version="1.0" encoding="UTF-8" standalone="no"?>
<!DOCTYPE svg PUBLIC "-//W3C//DTD SVG 1.1//EN"
 "http://www.w3.org/Graphics/SVG/1.1/DTD/svg11.dtd">
<!-- Generated by graphviz version 2.43.0 (0)
 -->
<!-- Title: a_graph Pages: 1 -->
<svg width="881pt" height="362pt"
 viewBox="0.00 0.00 881.37 362.00" xmlns="http://www.w3.org/2000/svg" xmlns:xlink="http://www.w3.org/1999/xlink">
<g id="graph0" class="graph" transform="scale(1 1) rotate(0) translate(4 358)">
<title>a_graph</title>
<polygon fill="white" stroke="transparent" points="-4,4 -4,-358 877.37,-358 877.37,4 -4,4"/>
<!-- T12980 -->
<g id="node1" class="node">
<title>T12980</title>
<polygon fill="none" stroke="#0058ad" points="617.87,-324.5 617.87,-353.5 762.87,-353.5 762.87,-324.5 617.87,-324.5"/>
<text text-anchor="middle" x="656.37" y="-335.3" font-family="Times,serif" font-size="14.00" fill="#0058ad">r 497 nil</text>
<polyline fill="none" stroke="#0058ad" points="694.87,-324.5 694.87,-353.5 "/>
<text text-anchor="middle" x="728.87" y="-335.3" font-family="Times,serif" font-size="14.00" fill="#0058ad">r 498 5</text>
</g>
<!-- T12952 -->
<g id="node7" class="node">
<title>T12952</title>
<polygon fill="none" stroke="#0058ad" points="147.37,-243.5 147.37,-272.5 443.37,-272.5 443.37,-243.5 147.37,-243.5"/>
<text text-anchor="middle" x="185.87" y="-254.3" font-family="Times,serif" font-size="14.00" fill="#0058ad">r 498 nil</text>
<polyline fill="none" stroke="#0058ad" points="224.37,-243.5 224.37,-272.5 "/>
<text text-anchor="middle" x="258.37" y="-254.3" font-family="Times,serif" font-size="14.00" fill="#0058ad">r 481 6</text>
<polyline fill="none" stroke="#0058ad" points="292.37,-243.5 292.37,-272.5 "/>
<text text-anchor="middle" x="330.87" y="-254.3" font-family="Times,serif" font-size="14.00" fill="#0058ad">r 498 nil</text>
<polyline fill="none" stroke="#0058ad" points="369.37,-243.5 369.37,-272.5 "/>
<text text-anchor="middle" x="406.37" y="-254.3" font-family="Times,serif" font-size="14.00" fill="#0058ad">w 497 3</text>
</g>
<!-- T12980&#45;&gt;T12952 -->
<g id="edge1" class="edge">
<title>T12980:f0&#45;&gt;T12952:f3</title>
<path fill="none" stroke="#5b00c0" d="M616.37,-339C535.33,-339 529.25,-264.51 454.36,-258.4"/>
<polygon fill="#5b00c0" stroke="#5b00c0" points="454.5,-254.9 444.37,-258 454.22,-261.89 454.5,-254.9"/>
<text text-anchor="middle" x="547.87" y="-294.8" font-family="Times,serif" font-size="14.00" fill="#5b00c0">rw</text>
</g>
<!-- T12973 -->
<g id="node2" class="node">
<title>T12973</title>
<polygon fill="none" stroke="#0058ad" points="651.37,-0.5 651.37,-29.5 873.37,-29.5 873.37,-0.5 651.37,-0.5"/>
<text text-anchor="middle" x="689.87" y="-11.3" font-family="Times,serif" font-size="14.00" fill="#0058ad">r 492 13</text>
<polyline fill="none" stroke="#0058ad" points="728.37,-0.5 728.37,-29.5 "/>
<text text-anchor="middle" x="766.87" y="-11.3" font-family="Times,serif" font-size="14.00" fill="#0058ad">r 497 nil</text>
<polyline fill="none" stroke="#0058ad" points="805.37,-0.5 805.37,-29.5 "/>
<text text-anchor="middle" x="839.37" y="-11.3" font-family="Times,serif" font-size="14.00" fill="#0058ad">r 481 8</text>
</g>
<!-- T12973&#45;&gt;T12952 -->
<g id="edge2" class="edge">
<title>T12973:f1&#45;&gt;T12952:f3</title>
<path fill="none" stroke="#5b00c0" d="M767.37,-30C767.37,-202.37 625.64,-255.96 454.37,-257.94"/>
<polygon fill="#5b00c0" stroke="#5b00c0" points="454.35,-254.44 444.37,-258 454.39,-261.44 454.35,-254.44"/>
<text text-anchor="middle" x="755.87" y="-132.8" font-family="Times,serif" font-size="14.00" fill="#5b00c0">rw</text>
</g>
<!-- T12947 -->
<g id="node3" class="node">
<title>T12947</title>
<polygon fill="none" stroke="#0058ad" points="29.87,-81.5 29.87,-110.5 346.87,-110.5 346.87,-81.5 29.87,-81.5"/>
<text text-anchor="middle" x="68.37" y="-92.3" font-family="Times,serif" font-size="14.00" fill="#0058ad">r 497 nil</text>
<polyline fill="none" stroke="#0058ad" points="106.87,-81.5 106.87,-110.5 "/>
<text text-anchor="middle" x="148.37" y="-92.3" font-family="Times,serif" font-size="14.00" fill="#0058ad">w 496 15</text>
<polyline fill="none" stroke="#0058ad" points="189.87,-81.5 189.87,-110.5 "/>
<text text-anchor="middle" x="231.37" y="-92.3" font-family="Times,serif" font-size="14.00" fill="#0058ad">w 496 16</text>
<polyline fill="none" stroke="#0058ad" points="272.87,-81.5 272.87,-110.5 "/>
<text text-anchor="middle" x="309.87" y="-92.3" font-family="Times,serif" font-size="14.00" fill="#0058ad">w 498 1</text>
</g>
<!-- T12947&#45;&gt;T12952 -->
<g id="edge3" class="edge">
<title>T12947:f0&#45;&gt;T12952:f3</title>
<path fill="none" stroke="#5b00c0" d="M68.37,-111C68.37,-140.38 173.84,-114.44 199.37,-129 230.42,-146.71 221.48,-169.64 249.37,-192 275.57,-213.02 285.54,-214.25 317.37,-225 333.05,-230.3 382.89,-225.44 400.3,-234.66"/>
<polygon fill="#5b00c0" stroke="#5b00c0" points="397.65,-236.97 406.37,-243 403.31,-232.85 397.65,-236.97"/>
<text text-anchor="middle" x="258.87" y="-173.3" font-family="Times,serif" font-size="14.00" fill="#5b00c0">rw</text>
</g>
<!-- T12968 -->
<g id="node4" class="node">
<title>T12968</title>
<polygon fill="none" stroke="#0058ad" points="345.87,-0.5 345.87,-29.5 632.87,-29.5 632.87,-0.5 345.87,-0.5"/>
<text text-anchor="middle" x="382.87" y="-11.3" font-family="Times,serif" font-size="14.00" fill="#0058ad">w 498 5</text>
<polyline fill="none" stroke="#0058ad" points="419.87,-0.5 419.87,-29.5 "/>
<text text-anchor="middle" x="453.87" y="-11.3" font-family="Times,serif" font-size="14.00" fill="#0058ad">r 498 5</text>
<polyline fill="none" stroke="#0058ad" points="487.87,-0.5 487.87,-29.5 "/>
<text text-anchor="middle" x="521.87" y="-11.3" font-family="Times,serif" font-size="14.00" fill="#0058ad">r 498 5</text>
<polyline fill="none" stroke="#0058ad" points="555.87,-0.5 555.87,-29.5 "/>
<text text-anchor="middle" x="594.37" y="-11.3" font-family="Times,serif" font-size="14.00" fill="#0058ad">r 492 13</text>
</g>
<!-- T12968&#45;&gt;T12980 -->
<g id="edge4" class="edge">
<title>T12968:f0&#45;&gt;T12980:f1</title>
<path fill="none" stroke="#c000a5" d="M382.37,-30C382.37,-47.2 674.56,-44.34 691.37,-48 747.74,-60.27 812.37,-37.31 812.37,-95 812.37,-259 812.37,-259 812.37,-259 812.37,-296.74 806.95,-332.05 774.72,-338.09"/>
<polygon fill="#c000a5" stroke="#c000a5" points="774.02,-334.64 764.37,-339 774.63,-341.61 774.02,-334.64"/>
<text text-anchor="middle" x="821.87" y="-173.3" font-family="Times,serif" font-size="14.00" fill="#c000a5">wr</text>
</g>
<!-- T12964 -->
<g id="node5" class="node">
<title>T12964</title>
<polygon fill="none" stroke="#0058ad" points="420.87,-81.5 420.87,-110.5 737.87,-110.5 737.87,-81.5 420.87,-81.5"/>
<text text-anchor="middle" x="457.87" y="-92.3" font-family="Times,serif" font-size="14.00" fill="#0058ad">w 498 3</text>
<polyline fill="none" stroke="#0058ad" points="494.87,-81.5 494.87,-110.5 "/>
<text text-anchor="middle" x="536.37" y="-92.3" font-family="Times,serif" font-size="14.00" fill="#0058ad">w 492 12</text>
<polyline fill="none" stroke="#0058ad" points="577.87,-81.5 577.87,-110.5 "/>
<text text-anchor="middle" x="619.37" y="-92.3" font-family="Times,serif" font-size="14.00" fill="#0058ad">w 492 13</text>
<polyline fill="none" stroke="#0058ad" points="660.87,-81.5 660.87,-110.5 "/>
<text text-anchor="middle" x="699.37" y="-92.3" font-family="Times,serif" font-size="14.00" fill="#0058ad">r 492 13</text>
</g>
<!-- T12964&#45;&gt;T12973 -->
<g id="edge6" class="edge">
<title>T12964:f2&#45;&gt;T12973:f0</title>
<path fill="none" stroke="#c000a5" d="M619.37,-81C619.37,-64.91 668.28,-53.53 684.33,-38.99"/>
<polygon fill="#c000a5" stroke="#c000a5" points="687.53,-40.44 689.37,-30 681.42,-37.01 687.53,-40.44"/>
<text text-anchor="middle" x="677.87" y="-51.8" font-family="Times,serif" font-size="14.00" fill="#c000a5">wr</text>
</g>
<!-- T12964&#45;&gt;T12968 -->
<g id="edge5" class="edge">
<title>T12964:f2&#45;&gt;T12968:f3</title>
<path fill="none" stroke="#c000a5" d="M619.37,-81C619.37,-59.7 601.57,-56.01 596.01,-40.21"/>
<polygon fill="#c000a5" stroke="#c000a5" points="599.41,-39.32 594.37,-30 592.5,-40.43 599.41,-39.32"/>
<text text-anchor="middle" x="622.87" y="-51.8" font-family="Times,serif" font-size="14.00" fill="#c000a5">wr</text>
</g>
<!-- T12955 -->
<g id="node6" class="node">
<title>T12955</title>
<polygon fill="none" stroke="#0058ad" points="277.37,-162.5 277.37,-191.5 505.37,-191.5 505.37,-162.5 277.37,-162.5"/>
<text text-anchor="middle" x="311.37" y="-173.3" font-family="Times,serif" font-size="14.00" fill="#0058ad">r 497 3</text>
<polyline fill="none" stroke="#0058ad" points="345.37,-162.5 345.37,-191.5 "/>
<text text-anchor="middle" x="383.87" y="-173.3" font-family="Times,serif" font-size="14.00" fill="#0058ad">r 498 nil</text>
<polyline fill="none" stroke="#0058ad" points="422.37,-162.5 422.37,-191.5 "/>
<text text-anchor="middle" x="463.87" y="-173.3" font-family="Times,serif" font-size="14.00" fill="#0058ad">w 487 16</text>
</g>
<!-- T12955&#45;&gt;T12947 -->
<g id="edge8" class="edge">
<title>T12955:f1&#45;&gt;T12947:f3</title>
<path fill="none" stroke="#5b00c0" d="M383.37,-162C383.37,-145.29 364.2,-153.36 350.37,-144 334.7,-133.41 317.82,-133.5 312.26,-121.15"/>
<polygon fill="#5b00c0" stroke="#5b00c0" points="315.64,-120.19 310.37,-111 308.76,-121.47 315.64,-120.19"/>
<text text-anchor="middle" x="359.87" y="-132.8" font-family="Times,serif" font-size="14.00" fill="#5b00c0">rw</text>
</g>
<!-- T12955&#45;&gt;T12968 -->
<g id="edge9" class="edge">
<title>T12955:f1&#45;&gt;T12968:f0</title>
<path fill="none" stroke="#5b00c0" d="M383.37,-162C383.37,-106.88 382.48,-90.61 382.38,-40.19"/>
<polygon fill="#5b00c0" stroke="#5b00c0" points="385.88,-40 382.37,-30 378.88,-40 385.88,-40"/>
<text text-anchor="middle" x="392.87" y="-92.3" font-family="Times,serif" font-size="14.00" fill="#5b00c0">rw</text>
</g>
<!-- T12955&#45;&gt;T12964 -->
<g id="edge7" class="edge">
<title>T12955:f1&#45;&gt;T12964:f0</title>
<path fill="none" stroke="#5b00c0" d="M383.37,-162C383.37,-145.15 436.05,-134.64 452.51,-119.78"/>
<polygon fill="#5b00c0" stroke="#5b00c0" points="455.59,-121.44 457.37,-111 449.46,-118.06 455.59,-121.44"/>
<text text-anchor="middle" x="445.87" y="-132.8" font-family="Times,serif" font-size="14.00" fill="#5b00c0">rw</text>
</g>
<!-- T12952&#45;&gt;T12947 -->
<g id="edge11" class="edge">
<title>T12952:f0&#45;&gt;T12947:f3</title>
<path fill="none" stroke="#5b00c0" d="M185.37,-243C185.37,-191.95 163.97,-165.79 199.37,-129 214.05,-113.74 283.6,-129.37 304.44,-119.27"/>
<polygon fill="#5b00c0" stroke="#5b00c0" points="307.39,-121.17 310.37,-111 301.7,-117.09 307.39,-121.17"/>
<text text-anchor="middle" x="189.87" y="-173.3" font-family="Times,serif" font-size="14.00" fill="#5b00c0">rw</text>
</g>
<!-- T12952&#45;&gt;T12968 -->
<g id="edge12" class="edge">
<title>T12952:f0&#45;&gt;T12968:f0</title>
<path fill="none" stroke="#5b00c0" d="M146.37,-258C49.8,-258 -40.72,-155.79 20.37,-81 64.85,-26.54 253.64,-15.87 334.19,-15.05"/>
<polygon fill="#5b00c0" stroke="#5b00c0" points="334.38,-18.55 344.37,-15 334.35,-11.55 334.38,-18.55"/>
<text text-anchor="middle" x="10.87" y="-132.8" font-family="Times,serif" font-size="14.00" fill="#5b00c0">rw</text>
</g>
<!-- T12952&#45;&gt;T12964 -->
<g id="edge10" class="edge">
<title>T12952:f0&#45;&gt;T12964:f0</title>
<path fill="none" stroke="#5b00c0" d="M185.37,-243C185.37,-216.81 394.74,-230.38 420.37,-225 463.7,-215.9 488.76,-228.12 514.37,-192 522.08,-181.12 519.81,-174.17 514.37,-162 502.12,-134.6 467.07,-142.32 459.03,-121.12"/>
<polygon fill="#5b00c0" stroke="#5b00c0" points="462.44,-120.3 457.37,-111 455.53,-121.43 462.44,-120.3"/>
<text text-anchor="middle" x="528.87" y="-173.3" font-family="Times,serif" font-size="14.00" fill="#5b00c0">rw</text>
</g>
<!-- T12952&#45;&gt;T12955 -->
<g id="edge13" class="edge">
<title>T12952:f3&#45;&gt;T12955:f0</title>
<path fill="none" stroke="#c000a5" d="M406.37,-243C406.37,-199.01 326.31,-233.19 313.18,-202.02"/>
<polygon fill="#c000a5" stroke="#c000a5" points="316.59,-201.22 311.37,-192 309.7,-202.46 316.59,-201.22"/>
<text text-anchor="middle" x="406.87" y="-213.8" font-family="Times,serif" font-size="14.00" fill="#c000a5">wr</text>
</g>
</g>
</svg>
