<?xml version="1.0" encoding="UTF-8" standalone="no"?>
<!DOCTYPE svg PUBLIC "-//W3C//DTD SVG 1.1//EN"
 "http://www.w3.org/Graphics/SVG/1.1/DTD/svg11.dtd">
<!-- Generated by graphviz version 2.43.0 (0)
 -->
<!-- Title: a_graph Pages: 1 -->
<svg width="383pt" height="362pt"
 viewBox="0.00 0.00 382.50 362.00" xmlns="http://www.w3.org/2000/svg" xmlns:xlink="http://www.w3.org/1999/xlink">
<g id="graph0" class="graph" transform="scale(1 1) rotate(0) translate(4 358)">
<title>a_graph</title>
<polygon fill="white" stroke="transparent" points="-4,4 -4,-358 378.5,-358 378.5,4 -4,4"/>
<!-- T25676 -->
<g id="node1" class="node">
<title>T25676</title>
<polygon fill="none" stroke="#0058ad" points="90,-324.5 90,-353.5 164,-353.5 164,-324.5 90,-324.5"/>
<text text-anchor="middle" x="127" y="-335.3" font-family="Times,serif" font-size="14.00" fill="#0058ad">w 985 2</text>
</g>
<!-- T25680 -->
<g id="node3" class="node">
<title>T25680</title>
<polygon fill="none" stroke="#0058ad" points="85.5,-243.5 85.5,-272.5 230.5,-272.5 230.5,-243.5 85.5,-243.5"/>
<text text-anchor="middle" x="124" y="-254.3" font-family="Times,serif" font-size="14.00" fill="#0058ad">r 986 nil</text>
<polyline fill="none" stroke="#0058ad" points="162.5,-243.5 162.5,-272.5 "/>
<text text-anchor="middle" x="196.5" y="-254.3" font-family="Times,serif" font-size="14.00" fill="#0058ad">r 985 2</text>
</g>
<!-- T25676&#45;&gt;T25680 -->
<g id="edge1" class="edge">
<title>T25676:f0&#45;&gt;T25680:f1</title>
<path fill="none" stroke="#c000a5" d="M158.31,-324.31C174.04,-314.92 190.77,-301.14 195.61,-283.31"/>
<polygon fill="#c000a5" stroke="#c000a5" points="199.14,-283.38 197,-273 192.2,-282.44 199.14,-283.38"/>
<text text-anchor="middle" x="202.5" y="-294.8" font-family="Times,serif" font-size="14.00" fill="#c000a5">wr</text>
</g>
<!-- T25678 -->
<g id="node2" class="node">
<title>T25678</title>
<polygon fill="none" stroke="#0058ad" points="66.5,-0.5 66.5,-29.5 353.5,-29.5 353.5,-0.5 66.5,-0.5"/>
<text text-anchor="middle" x="105" y="-11.3" font-family="Times,serif" font-size="14.00" fill="#0058ad">r 985 nil</text>
<polyline fill="none" stroke="#0058ad" points="143.5,-0.5 143.5,-29.5 "/>
<text text-anchor="middle" x="180.5" y="-11.3" font-family="Times,serif" font-size="14.00" fill="#0058ad">w 985 3</text>
<polyline fill="none" stroke="#0058ad" points="217.5,-0.5 217.5,-29.5 "/>
<text text-anchor="middle" x="251.5" y="-11.3" font-family="Times,serif" font-size="14.00" fill="#0058ad">r 985 3</text>
<polyline fill="none" stroke="#0058ad" points="285.5,-0.5 285.5,-29.5 "/>
<text text-anchor="middle" x="319.5" y="-11.3" font-family="Times,serif" font-size="14.00" fill="#0058ad">r 984 2</text>
</g>
<!-- T25678&#45;&gt;T25676 -->
<g id="edge2" class="edge">
<title>T25678:f0&#45;&gt;T25676:f0</title>
<path fill="none" stroke="#5b00c0" d="M65,-15C19.19,-15 0,-49.19 0,-95 0,-259 0,-259 0,-259 0,-278.91 45.27,-303.57 81.75,-320.2"/>
<polygon fill="#5b00c0" stroke="#5b00c0" points="80.73,-323.57 91.29,-324.46 83.58,-317.18 80.73,-323.57"/>
<text text-anchor="middle" x="9.5" y="-173.3" font-family="Times,serif" font-size="14.00" fill="#5b00c0">rw</text>
</g>
<!-- T25670 -->
<g id="node5" class="node">
<title>T25670</title>
<polygon fill="none" stroke="#0058ad" points="28.5,-81.5 28.5,-110.5 321.5,-110.5 321.5,-81.5 28.5,-81.5"/>
<text text-anchor="middle" x="67" y="-92.3" font-family="Times,serif" font-size="14.00" fill="#0058ad">r 985 nil</text>
<polyline fill="none" stroke="#0058ad" points="105.5,-81.5 105.5,-110.5 "/>
<text text-anchor="middle" x="139.5" y="-92.3" font-family="Times,serif" font-size="14.00" fill="#0058ad">r 968 8</text>
<polyline fill="none" stroke="#0058ad" points="173.5,-81.5 173.5,-110.5 "/>
<text text-anchor="middle" x="210.5" y="-92.3" font-family="Times,serif" font-size="14.00" fill="#0058ad">w 985 1</text>
<polyline fill="none" stroke="#0058ad" points="247.5,-81.5 247.5,-110.5 "/>
<text text-anchor="middle" x="284.5" y="-92.3" font-family="Times,serif" font-size="14.00" fill="#0058ad">w 984 1</text>
</g>
<!-- T25678&#45;&gt;T25670 -->
<g id="edge3" class="edge">
<title>T25678:f0&#45;&gt;T25670:f2</title>
<path fill="none" stroke="#5b00c0" d="M105,-30C105,-52.77 185.43,-54.73 206.17,-72.14"/>
<polygon fill="#5b00c0" stroke="#5b00c0" points="203.14,-73.9 211,-81 209.29,-70.54 203.14,-73.9"/>
<text text-anchor="middle" x="195.5" y="-51.8" font-family="Times,serif" font-size="14.00" fill="#5b00c0">rw</text>
</g>
<!-- T25675 -->
<g id="node4" class="node">
<title>T25675</title>
<polygon fill="none" stroke="#0058ad" points="87.5,-162.5 87.5,-191.5 374.5,-191.5 374.5,-162.5 87.5,-162.5"/>
<text text-anchor="middle" x="124.5" y="-173.3" font-family="Times,serif" font-size="14.00" fill="#0058ad">w 986 1</text>
<polyline fill="none" stroke="#0058ad" points="161.5,-162.5 161.5,-191.5 "/>
<text text-anchor="middle" x="195.5" y="-173.3" font-family="Times,serif" font-size="14.00" fill="#0058ad">r 981 4</text>
<polyline fill="none" stroke="#0058ad" points="229.5,-162.5 229.5,-191.5 "/>
<text text-anchor="middle" x="268" y="-173.3" font-family="Times,serif" font-size="14.00" fill="#0058ad">r 985 nil</text>
<polyline fill="none" stroke="#0058ad" points="306.5,-162.5 306.5,-191.5 "/>
<text text-anchor="middle" x="340.5" y="-173.3" font-family="Times,serif" font-size="14.00" fill="#0058ad">r 951 4</text>
</g>
<!-- T25680&#45;&gt;T25675 -->
<g id="edge4" class="edge">
<title>T25680:f0&#45;&gt;T25675:f0</title>
<path fill="none" stroke="#5b00c0" d="M124,-243C124,-224.23 124,-217.12 124,-202.35"/>
<polygon fill="#5b00c0" stroke="#5b00c0" points="127.5,-202 124,-192 120.5,-202 127.5,-202"/>
<text text-anchor="middle" x="133.5" y="-213.8" font-family="Times,serif" font-size="14.00" fill="#5b00c0">rw</text>
</g>
<!-- T25675&#45;&gt;T25676 -->
<g id="edge5" class="edge">
<title>T25675:f2&#45;&gt;T25676:f0</title>
<path fill="none" stroke="#5b00c0" d="M268,-192C268,-247.69 260.41,-272.4 216,-306 199.39,-318.57 189.96,-316.55 172.67,-321.26"/>
<polygon fill="#5b00c0" stroke="#5b00c0" points="171.26,-318.03 162.83,-324.44 173.42,-324.69 171.26,-318.03"/>
<text text-anchor="middle" x="273.5" y="-254.3" font-family="Times,serif" font-size="14.00" fill="#5b00c0">rw</text>
</g>
<!-- T25675&#45;&gt;T25678 -->
<g id="edge7" class="edge">
<title>T25675:f2&#45;&gt;T25678:f1</title>
<path fill="none" stroke="#5b00c0" d="M268,-162C268,-143.99 323.24,-127.26 331,-111 336.74,-98.97 338.77,-91.83 331,-81 322.09,-68.58 216.03,-52.79 187.2,-37.32"/>
<polygon fill="#5b00c0" stroke="#5b00c0" points="189.51,-34.68 180,-30 184.52,-39.58 189.51,-34.68"/>
<text text-anchor="middle" x="345.5" y="-92.3" font-family="Times,serif" font-size="14.00" fill="#5b00c0">rw</text>
</g>
<!-- T25675&#45;&gt;T25670 -->
<g id="edge6" class="edge">
<title>T25675:f2&#45;&gt;T25670:f2</title>
<path fill="none" stroke="#5b00c0" d="M268,-162C268,-131.99 223.58,-141.71 213.16,-121.01"/>
<polygon fill="#5b00c0" stroke="#5b00c0" points="216.53,-120.03 211,-111 209.69,-121.51 216.53,-120.03"/>
<text text-anchor="middle" x="267.5" y="-132.8" font-family="Times,serif" font-size="14.00" fill="#5b00c0">rw</text>
</g>
<!-- T25670&#45;&gt;T25676 -->
<g id="edge8" class="edge">
<title>T25670:f0&#45;&gt;T25676:f0</title>
<path fill="none" stroke="#5b00c0" d="M67,-111C67,-183.11 50.82,-205.43 76,-273 82.08,-289.32 93.7,-304.87 104.32,-316.77"/>
<polygon fill="#5b00c0" stroke="#5b00c0" points="102.04,-319.47 111.42,-324.39 107.16,-314.69 102.04,-319.47"/>
<text text-anchor="middle" x="73.5" y="-213.8" font-family="Times,serif" font-size="14.00" fill="#5b00c0">rw</text>
</g>
<!-- T25670&#45;&gt;T25678 -->
<g id="edge9" class="edge">
<title>T25670:f0&#45;&gt;T25678:f1</title>
<path fill="none" stroke="#5b00c0" d="M67,-81C67,-57.61 87.05,-58.41 108,-48 133.61,-35.27 168.95,-55.89 177.88,-40.08"/>
<polygon fill="#5b00c0" stroke="#5b00c0" points="181.37,-40.51 180,-30 174.52,-39.07 181.37,-40.51"/>
<text text-anchor="middle" x="117.5" y="-51.8" font-family="Times,serif" font-size="14.00" fill="#5b00c0">rw</text>
</g>
</g>
</svg>
