<?xml version="1.0" encoding="UTF-8" standalone="no"?>
<!DOCTYPE svg PUBLIC "-//W3C//DTD SVG 1.1//EN"
 "http://www.w3.org/Graphics/SVG/1.1/DTD/svg11.dtd">
<!-- Generated by graphviz version 2.43.0 (0)
 -->
<!-- Title: a_graph Pages: 1 -->
<svg width="466pt" height="200pt"
 viewBox="0.00 0.00 466.00 200.00" xmlns="http://www.w3.org/2000/svg" xmlns:xlink="http://www.w3.org/1999/xlink">
<g id="graph0" class="graph" transform="scale(1 1) rotate(0) translate(4 196)">
<title>a_graph</title>
<polygon fill="white" stroke="transparent" points="-4,4 -4,-196 462,-196 462,4 -4,4"/>
<!-- T29411 -->
<g id="node1" class="node">
<title>T29411</title>
<polygon fill="none" stroke="#0058ad" points="0,-162.5 0,-191.5 252,-191.5 252,-162.5 0,-162.5"/>
<text text-anchor="middle" x="43" y="-173.3" font-family="Times,serif" font-size="14.00" fill="#0058ad">r 1126 nil</text>
<polyline fill="none" stroke="#0058ad" points="86,-162.5 86,-191.5 "/>
<text text-anchor="middle" x="127.5" y="-173.3" font-family="Times,serif" font-size="14.00" fill="#0058ad">w 1125 3</text>
<polyline fill="none" stroke="#0058ad" points="169,-162.5 169,-191.5 "/>
<text text-anchor="middle" x="210.5" y="-173.3" font-family="Times,serif" font-size="14.00" fill="#0058ad">w 1122 5</text>
</g>
<!-- T29417 -->
<g id="node3" class="node">
<title>T29417</title>
<polygon fill="none" stroke="#0058ad" points="114,-81.5 114,-110.5 458,-110.5 458,-81.5 114,-81.5"/>
<text text-anchor="middle" x="160" y="-92.3" font-family="Times,serif" font-size="14.00" fill="#0058ad">w 1120 15</text>
<polyline fill="none" stroke="#0058ad" points="206,-81.5 206,-110.5 "/>
<text text-anchor="middle" x="247.5" y="-92.3" font-family="Times,serif" font-size="14.00" fill="#0058ad">w 1126 4</text>
<polyline fill="none" stroke="#0058ad" points="289,-81.5 289,-110.5 "/>
<text text-anchor="middle" x="330.5" y="-92.3" font-family="Times,serif" font-size="14.00" fill="#0058ad">w 1126 5</text>
<polyline fill="none" stroke="#0058ad" points="372,-81.5 372,-110.5 "/>
<text text-anchor="middle" x="415" y="-92.3" font-family="Times,serif" font-size="14.00" fill="#0058ad">r 1125 nil</text>
</g>
<!-- T29411&#45;&gt;T29417 -->
<g id="edge1" class="edge">
<title>T29411:f0&#45;&gt;T29417:f2</title>
<path fill="none" stroke="#5b00c0" d="M43,-162C43,-161.55 270.44,-122.02 321.09,-112.87"/>
<polygon fill="#5b00c0" stroke="#5b00c0" points="321.82,-116.3 331,-111 320.52,-109.42 321.82,-116.3"/>
<text text-anchor="middle" x="239.5" y="-132.8" font-family="Times,serif" font-size="14.00" fill="#5b00c0">rw</text>
</g>
<!-- T29402 -->
<g id="node2" class="node">
<title>T29402</title>
<polygon fill="none" stroke="#0058ad" points="20,-0.5 20,-29.5 352,-29.5 352,-0.5 20,-0.5"/>
<text text-anchor="middle" x="58.5" y="-11.3" font-family="Times,serif" font-size="14.00" fill="#0058ad">r 1080 5</text>
<polyline fill="none" stroke="#0058ad" points="97,-0.5 97,-29.5 "/>
<text text-anchor="middle" x="140" y="-11.3" font-family="Times,serif" font-size="14.00" fill="#0058ad">r 1125 nil</text>
<polyline fill="none" stroke="#0058ad" points="183,-0.5 183,-29.5 "/>
<text text-anchor="middle" x="224.5" y="-11.3" font-family="Times,serif" font-size="14.00" fill="#0058ad">w 1125 1</text>
<polyline fill="none" stroke="#0058ad" points="266,-0.5 266,-29.5 "/>
<text text-anchor="middle" x="309" y="-11.3" font-family="Times,serif" font-size="14.00" fill="#0058ad">r 1124 14</text>
</g>
<!-- T29402&#45;&gt;T29411 -->
<g id="edge2" class="edge">
<title>T29402:f1&#45;&gt;T29411:f1</title>
<path fill="none" stroke="#5b00c0" d="M140,-30C140,-63.01 99.07,-50.68 86,-81 80.72,-93.24 81.5,-98.45 86,-111 94.6,-134.97 119.87,-133.64 126.43,-152.01"/>
<polygon fill="#5b00c0" stroke="#5b00c0" points="122.99,-152.67 128,-162 129.9,-151.58 122.99,-152.67"/>
<text text-anchor="middle" x="95.5" y="-92.3" font-family="Times,serif" font-size="14.00" fill="#5b00c0">rw</text>
</g>
<!-- T29417&#45;&gt;T29411 -->
<g id="edge4" class="edge">
<title>T29417:f3&#45;&gt;T29411:f1</title>
<path fill="none" stroke="#5b00c0" d="M415,-111C415,-236.88 144.03,-43.96 128.68,-151.79"/>
<polygon fill="#5b00c0" stroke="#5b00c0" points="125.17,-151.79 128,-162 132.15,-152.25 125.17,-151.79"/>
<text text-anchor="middle" x="421.5" y="-132.8" font-family="Times,serif" font-size="14.00" fill="#5b00c0">rw</text>
</g>
<!-- T29417&#45;&gt;T29402 -->
<g id="edge3" class="edge">
<title>T29417:f3&#45;&gt;T29402:f2</title>
<path fill="none" stroke="#5b00c0" d="M415,-81C415,2.68 240.98,-107.18 226.02,-40.13"/>
<polygon fill="#5b00c0" stroke="#5b00c0" points="229.49,-39.6 225,-30 222.52,-40.3 229.49,-39.6"/>
<text text-anchor="middle" x="418.5" y="-51.8" font-family="Times,serif" font-size="14.00" fill="#5b00c0">rw</text>
</g>
</g>
</svg>
