<?xml version="1.0" encoding="UTF-8" standalone="no"?>
<!DOCTYPE svg PUBLIC "-//W3C//DTD SVG 1.1//EN"
 "http://www.w3.org/Graphics/SVG/1.1/DTD/svg11.dtd">
<!-- Generated by graphviz version 2.43.0 (0)
 -->
<!-- Title: a_graph Pages: 1 -->
<svg width="358pt" height="200pt"
 viewBox="0.00 0.00 358.00 200.00" xmlns="http://www.w3.org/2000/svg" xmlns:xlink="http://www.w3.org/1999/xlink">
<g id="graph0" class="graph" transform="scale(1 1) rotate(0) translate(4 196)">
<title>a_graph</title>
<polygon fill="white" stroke="transparent" points="-4,4 -4,-196 354,-196 354,4 -4,4"/>
<!-- T10685 -->
<g id="node1" class="node">
<title>T10685</title>
<polygon fill="none" stroke="#0058ad" points="193,-162.5 193,-191.5 350,-191.5 350,-162.5 193,-162.5"/>
<text text-anchor="middle" x="230" y="-173.3" font-family="Times,serif" font-size="14.00" fill="#0058ad">w 413 3</text>
<polyline fill="none" stroke="#0058ad" points="267,-162.5 267,-191.5 "/>
<text text-anchor="middle" x="308.5" y="-173.3" font-family="Times,serif" font-size="14.00" fill="#0058ad">w 405 10</text>
</g>
<!-- T10701 -->
<g id="node3" class="node">
<title>T10701</title>
<polygon fill="none" stroke="#0058ad" points="0,-81.5 0,-110.5 219,-110.5 219,-81.5 0,-81.5"/>
<text text-anchor="middle" x="38.5" y="-92.3" font-family="Times,serif" font-size="14.00" fill="#0058ad">r 414 nil</text>
<polyline fill="none" stroke="#0058ad" points="77,-81.5 77,-110.5 "/>
<text text-anchor="middle" x="114" y="-92.3" font-family="Times,serif" font-size="14.00" fill="#0058ad">w 414 2</text>
<polyline fill="none" stroke="#0058ad" points="151,-81.5 151,-110.5 "/>
<text text-anchor="middle" x="185" y="-92.3" font-family="Times,serif" font-size="14.00" fill="#0058ad">r 413 3</text>
</g>
<!-- T10685&#45;&gt;T10701 -->
<g id="edge1" class="edge">
<title>T10685:f0&#45;&gt;T10701:f2</title>
<path fill="none" stroke="#c000a5" d="M229.5,-162C229.5,-136.04 196.41,-139.26 187.62,-121.06"/>
<polygon fill="#c000a5" stroke="#c000a5" points="190.99,-120.06 185.5,-111 184.14,-121.51 190.99,-120.06"/>
<text text-anchor="middle" x="230" y="-132.8" font-family="Times,serif" font-size="14.00" fill="#c000a5">wr</text>
</g>
<!-- T10695 -->
<g id="node2" class="node">
<title>T10695</title>
<polygon fill="none" stroke="#0058ad" points="65.5,-0.5 65.5,-29.5 293.5,-29.5 293.5,-0.5 65.5,-0.5"/>
<text text-anchor="middle" x="104" y="-11.3" font-family="Times,serif" font-size="14.00" fill="#0058ad">r 414 nil</text>
<polyline fill="none" stroke="#0058ad" points="142.5,-0.5 142.5,-29.5 "/>
<text text-anchor="middle" x="179.5" y="-11.3" font-family="Times,serif" font-size="14.00" fill="#0058ad">w 414 1</text>
<polyline fill="none" stroke="#0058ad" points="216.5,-0.5 216.5,-29.5 "/>
<text text-anchor="middle" x="255" y="-11.3" font-family="Times,serif" font-size="14.00" fill="#0058ad">r 413 nil</text>
</g>
<!-- T10695&#45;&gt;T10685 -->
<g id="edge3" class="edge">
<title>T10695:f2&#45;&gt;T10685:f0</title>
<path fill="none" stroke="#5b00c0" d="M255.5,-30C255.5,-81.05 259.25,-96.14 241.5,-144 239.83,-148.51 236.83,-150.6 234.25,-152.78"/>
<polygon fill="#5b00c0" stroke="#5b00c0" points="230.96,-151.51 229.5,-162 237.19,-154.71 230.96,-151.51"/>
<text text-anchor="middle" x="265" y="-92.3" font-family="Times,serif" font-size="14.00" fill="#5b00c0">rw</text>
</g>
<!-- T10695&#45;&gt;T10701 -->
<g id="edge2" class="edge">
<title>T10695:f0&#45;&gt;T10701:f1</title>
<path fill="none" stroke="#5b00c0" d="M103.5,-30C103.5,-49.38 111.19,-55.8 113.71,-70.92"/>
<polygon fill="#5b00c0" stroke="#5b00c0" points="110.23,-71.3 114.5,-81 117.21,-70.76 110.23,-71.3"/>
<text text-anchor="middle" x="122" y="-51.8" font-family="Times,serif" font-size="14.00" fill="#5b00c0">rw</text>
</g>
<!-- T10701&#45;&gt;T10695 -->
<g id="edge4" class="edge">
<title>T10701:f0&#45;&gt;T10695:f1</title>
<path fill="none" stroke="#5b00c0" d="M38.5,-81C38.5,-56.2 60.74,-57.86 83.5,-48 100.07,-40.82 155.52,-48.15 173.69,-38.32"/>
<polygon fill="#5b00c0" stroke="#5b00c0" points="176.64,-40.2 179.5,-30 170.9,-36.19 176.64,-40.2"/>
<text text-anchor="middle" x="93" y="-51.8" font-family="Times,serif" font-size="14.00" fill="#5b00c0">rw</text>
</g>
</g>
</svg>
