<?xml version="1.0" encoding="UTF-8" standalone="no"?>
<!DOCTYPE svg PUBLIC "-//W3C//DTD SVG 1.1//EN"
 "http://www.w3.org/Graphics/SVG/1.1/DTD/svg11.dtd">
<!-- Generated by graphviz version 2.43.0 (0)
 -->
<!-- Title: a_graph Pages: 1 -->
<svg width="1176pt" height="848pt"
 viewBox="0.00 0.00 1175.50 848.00" xmlns="http://www.w3.org/2000/svg" xmlns:xlink="http://www.w3.org/1999/xlink">
<g id="graph0" class="graph" transform="scale(1 1) rotate(0) translate(4 844)">
<title>a_graph</title>
<polygon fill="white" stroke="transparent" points="-4,4 -4,-844 1171.5,-844 1171.5,4 -4,4"/>
<!-- T9773 -->
<g id="node1" class="node">
<title>T9773</title>
<polygon fill="none" stroke="#0058ad" points="0,-810.5 0,-839.5 234,-839.5 234,-810.5 0,-810.5"/>
<text text-anchor="middle" x="41.5" y="-821.3" font-family="Times,serif" font-size="14.00" fill="#0058ad">w 332 11</text>
<polyline fill="none" stroke="#0058ad" points="83,-810.5 83,-839.5 "/>
<text text-anchor="middle" x="120" y="-821.3" font-family="Times,serif" font-size="14.00" fill="#0058ad">w 375 3</text>
<polyline fill="none" stroke="#0058ad" points="157,-810.5 157,-839.5 "/>
<text text-anchor="middle" x="195.5" y="-821.3" font-family="Times,serif" font-size="14.00" fill="#0058ad">r 365 nil</text>
</g>
<!-- T9515 -->
<g id="node12" class="node">
<title>T9515</title>
<polygon fill="none" stroke="#0058ad" points="235,-729.5 235,-758.5 543,-758.5 543,-729.5 235,-729.5"/>
<text text-anchor="middle" x="272" y="-740.3" font-family="Times,serif" font-size="14.00" fill="#0058ad">w 365 2</text>
<polyline fill="none" stroke="#0058ad" points="309,-729.5 309,-758.5 "/>
<text text-anchor="middle" x="350.5" y="-740.3" font-family="Times,serif" font-size="14.00" fill="#0058ad">w 366 16</text>
<polyline fill="none" stroke="#0058ad" points="392,-729.5 392,-758.5 "/>
<text text-anchor="middle" x="429" y="-740.3" font-family="Times,serif" font-size="14.00" fill="#0058ad">w 364 3</text>
<polyline fill="none" stroke="#0058ad" points="466,-729.5 466,-758.5 "/>
<text text-anchor="middle" x="504.5" y="-740.3" font-family="Times,serif" font-size="14.00" fill="#0058ad">r 367 nil</text>
</g>
<!-- T9773&#45;&gt;T9515 -->
<g id="edge1" class="edge">
<title>T9773:f2&#45;&gt;T9515:f0</title>
<path fill="none" stroke="#5b00c0" d="M235,-825C265.21,-825 271,-798.87 271.87,-769.17"/>
<polygon fill="#5b00c0" stroke="#5b00c0" points="275.37,-769.04 272,-759 268.37,-768.95 275.37,-769.04"/>
<text text-anchor="middle" x="281.5" y="-780.8" font-family="Times,serif" font-size="14.00" fill="#5b00c0">rw</text>
</g>
<!-- T9637 -->
<g id="node2" class="node">
<title>T9637</title>
<polygon fill="none" stroke="#0058ad" points="308.5,-486.5 308.5,-515.5 613.5,-515.5 613.5,-486.5 308.5,-486.5"/>
<text text-anchor="middle" x="347" y="-497.3" font-family="Times,serif" font-size="14.00" fill="#0058ad">r 371 nil</text>
<polyline fill="none" stroke="#0058ad" points="385.5,-486.5 385.5,-515.5 "/>
<text text-anchor="middle" x="424" y="-497.3" font-family="Times,serif" font-size="14.00" fill="#0058ad">r 371 nil</text>
<polyline fill="none" stroke="#0058ad" points="462.5,-486.5 462.5,-515.5 "/>
<text text-anchor="middle" x="499.5" y="-497.3" font-family="Times,serif" font-size="14.00" fill="#0058ad">w 371 4</text>
<polyline fill="none" stroke="#0058ad" points="536.5,-486.5 536.5,-515.5 "/>
<text text-anchor="middle" x="575" y="-497.3" font-family="Times,serif" font-size="14.00" fill="#0058ad">r 369 16</text>
</g>
<!-- T9673 -->
<g id="node10" class="node">
<title>T9673</title>
<polygon fill="none" stroke="#0058ad" points="228,-405.5 228,-434.5 388,-434.5 388,-405.5 228,-405.5"/>
<text text-anchor="middle" x="266.5" y="-416.3" font-family="Times,serif" font-size="14.00" fill="#0058ad">r 365 nil</text>
<polyline fill="none" stroke="#0058ad" points="305,-405.5 305,-434.5 "/>
<text text-anchor="middle" x="346.5" y="-416.3" font-family="Times,serif" font-size="14.00" fill="#0058ad">w 371 15</text>
</g>
<!-- T9637&#45;&gt;T9673 -->
<g id="edge2" class="edge">
<title>T9637:f0&#45;&gt;T9673:f1</title>
<path fill="none" stroke="#5b00c0" d="M347,-486C347,-467.23 347,-460.12 347,-445.35"/>
<polygon fill="#5b00c0" stroke="#5b00c0" points="350.5,-445 347,-435 343.5,-445 350.5,-445"/>
<text text-anchor="middle" x="356.5" y="-456.8" font-family="Times,serif" font-size="14.00" fill="#5b00c0">rw</text>
</g>
<!-- T9703 -->
<g id="node3" class="node">
<title>T9703</title>
<polygon fill="none" stroke="#0058ad" points="198,-243.5 198,-272.5 500,-272.5 500,-243.5 198,-243.5"/>
<text text-anchor="middle" x="239.5" y="-254.3" font-family="Times,serif" font-size="14.00" fill="#0058ad">w 372 12</text>
<polyline fill="none" stroke="#0058ad" points="281,-243.5 281,-272.5 "/>
<text text-anchor="middle" x="318" y="-254.3" font-family="Times,serif" font-size="14.00" fill="#0058ad">w 373 7</text>
<polyline fill="none" stroke="#0058ad" points="355,-243.5 355,-272.5 "/>
<text text-anchor="middle" x="393.5" y="-254.3" font-family="Times,serif" font-size="14.00" fill="#0058ad">r 372 12</text>
<polyline fill="none" stroke="#0058ad" points="432,-243.5 432,-272.5 "/>
<text text-anchor="middle" x="466" y="-254.3" font-family="Times,serif" font-size="14.00" fill="#0058ad">r 373 7</text>
</g>
<!-- T9727 -->
<g id="node4" class="node">
<title>T9727</title>
<polygon fill="none" stroke="#0058ad" points="178,-81.5 178,-110.5 406,-110.5 406,-81.5 178,-81.5"/>
<text text-anchor="middle" x="216.5" y="-92.3" font-family="Times,serif" font-size="14.00" fill="#0058ad">r 372 12</text>
<polyline fill="none" stroke="#0058ad" points="255,-81.5 255,-110.5 "/>
<text text-anchor="middle" x="292" y="-92.3" font-family="Times,serif" font-size="14.00" fill="#0058ad">w 367 5</text>
<polyline fill="none" stroke="#0058ad" points="329,-81.5 329,-110.5 "/>
<text text-anchor="middle" x="367.5" y="-92.3" font-family="Times,serif" font-size="14.00" fill="#0058ad">r 373 10</text>
</g>
<!-- T9703&#45;&gt;T9727 -->
<g id="edge3" class="edge">
<title>T9703:f0&#45;&gt;T9727:f0</title>
<path fill="none" stroke="#c000a5" d="M239,-243C239,-219.98 233.96,-214.67 230,-192 224.35,-159.67 217.55,-149.54 216.23,-121.32"/>
<polygon fill="#c000a5" stroke="#c000a5" points="219.72,-120.92 216,-111 212.72,-121.08 219.72,-120.92"/>
<text text-anchor="middle" x="239.5" y="-173.3" font-family="Times,serif" font-size="14.00" fill="#c000a5">wr</text>
</g>
<!-- T9713 -->
<g id="node6" class="node">
<title>T9713</title>
<polygon fill="none" stroke="#0058ad" points="258.5,-162.5 258.5,-191.5 495.5,-191.5 495.5,-162.5 258.5,-162.5"/>
<text text-anchor="middle" x="297" y="-173.3" font-family="Times,serif" font-size="14.00" fill="#0058ad">r 372 12</text>
<polyline fill="none" stroke="#0058ad" points="335.5,-162.5 335.5,-191.5 "/>
<text text-anchor="middle" x="374" y="-173.3" font-family="Times,serif" font-size="14.00" fill="#0058ad">r 372 12</text>
<polyline fill="none" stroke="#0058ad" points="412.5,-162.5 412.5,-191.5 "/>
<text text-anchor="middle" x="454" y="-173.3" font-family="Times,serif" font-size="14.00" fill="#0058ad">w 373 10</text>
</g>
<!-- T9703&#45;&gt;T9713 -->
<g id="edge4" class="edge">
<title>T9703:f0&#45;&gt;T9713:f0</title>
<path fill="none" stroke="#c000a5" d="M239,-243C239,-212.56 284.6,-222.99 294.94,-201.82"/>
<polygon fill="#c000a5" stroke="#c000a5" points="298.37,-202.51 297,-192 291.52,-201.07 298.37,-202.51"/>
<text text-anchor="middle" x="297.5" y="-213.8" font-family="Times,serif" font-size="14.00" fill="#c000a5">wr</text>
</g>
<!-- T9755 -->
<g id="node9" class="node">
<title>T9755</title>
<polygon fill="none" stroke="#0058ad" points="31,-0.5 31,-29.5 321,-29.5 321,-0.5 31,-0.5"/>
<text text-anchor="middle" x="69.5" y="-11.3" font-family="Times,serif" font-size="14.00" fill="#0058ad">r 376 nil</text>
<polyline fill="none" stroke="#0058ad" points="108,-0.5 108,-29.5 "/>
<text text-anchor="middle" x="146.5" y="-11.3" font-family="Times,serif" font-size="14.00" fill="#0058ad">r 375 nil</text>
<polyline fill="none" stroke="#0058ad" points="185,-0.5 185,-29.5 "/>
<text text-anchor="middle" x="219" y="-11.3" font-family="Times,serif" font-size="14.00" fill="#0058ad">r 367 5</text>
<polyline fill="none" stroke="#0058ad" points="253,-0.5 253,-29.5 "/>
<text text-anchor="middle" x="287" y="-11.3" font-family="Times,serif" font-size="14.00" fill="#0058ad">r 367 5</text>
</g>
<!-- T9727&#45;&gt;T9755 -->
<g id="edge5" class="edge">
<title>T9727:f1&#45;&gt;T9755:f2</title>
<path fill="none" stroke="#c000a5" d="M292,-81C292,-45.44 233.08,-64.56 221.11,-40.1"/>
<polygon fill="#c000a5" stroke="#c000a5" points="224.47,-39.08 219,-30 217.61,-40.5 224.47,-39.08"/>
<text text-anchor="middle" x="291.5" y="-51.8" font-family="Times,serif" font-size="14.00" fill="#c000a5">wr</text>
</g>
<!-- T9532 -->
<g id="node5" class="node">
<title>T9532</title>
<polygon fill="none" stroke="#0058ad" points="534.5,-648.5 534.5,-677.5 753.5,-677.5 753.5,-648.5 534.5,-648.5"/>
<text text-anchor="middle" x="573" y="-659.3" font-family="Times,serif" font-size="14.00" fill="#0058ad">r 369 nil</text>
<polyline fill="none" stroke="#0058ad" points="611.5,-648.5 611.5,-677.5 "/>
<text text-anchor="middle" x="645.5" y="-659.3" font-family="Times,serif" font-size="14.00" fill="#0058ad">r 364 3</text>
<polyline fill="none" stroke="#0058ad" points="679.5,-648.5 679.5,-677.5 "/>
<text text-anchor="middle" x="716.5" y="-659.3" font-family="Times,serif" font-size="14.00" fill="#0058ad">w 368 4</text>
</g>
<!-- T9557 -->
<g id="node8" class="node">
<title>T9557</title>
<polygon fill="none" stroke="#0058ad" points="177.5,-567.5 177.5,-596.5 476.5,-596.5 476.5,-567.5 177.5,-567.5"/>
<text text-anchor="middle" x="216" y="-578.3" font-family="Times,serif" font-size="14.00" fill="#0058ad">r 365 nil</text>
<polyline fill="none" stroke="#0058ad" points="254.5,-567.5 254.5,-596.5 "/>
<text text-anchor="middle" x="291.5" y="-578.3" font-family="Times,serif" font-size="14.00" fill="#0058ad">w 369 7</text>
<polyline fill="none" stroke="#0058ad" points="328.5,-567.5 328.5,-596.5 "/>
<text text-anchor="middle" x="365.5" y="-578.3" font-family="Times,serif" font-size="14.00" fill="#0058ad">w 369 8</text>
<polyline fill="none" stroke="#0058ad" points="402.5,-567.5 402.5,-596.5 "/>
<text text-anchor="middle" x="439.5" y="-578.3" font-family="Times,serif" font-size="14.00" fill="#0058ad">w 369 9</text>
</g>
<!-- T9532&#45;&gt;T9557 -->
<g id="edge6" class="edge">
<title>T9532:f0&#45;&gt;T9557:f3</title>
<path fill="none" stroke="#5b00c0" d="M533,-663C485.88,-663 445.99,-649.76 440.62,-607.17"/>
<polygon fill="#5b00c0" stroke="#5b00c0" points="444.1,-606.77 440,-597 437.11,-607.19 444.1,-606.77"/>
<text text-anchor="middle" x="457.5" y="-618.8" font-family="Times,serif" font-size="14.00" fill="#5b00c0">rw</text>
</g>
<!-- T9623 -->
<g id="node13" class="node">
<title>T9623</title>
<polygon fill="none" stroke="#0058ad" points="533.5,-567.5 533.5,-596.5 844.5,-596.5 844.5,-567.5 533.5,-567.5"/>
<text text-anchor="middle" x="575" y="-578.3" font-family="Times,serif" font-size="14.00" fill="#0058ad">w 369 16</text>
<polyline fill="none" stroke="#0058ad" points="616.5,-567.5 616.5,-596.5 "/>
<text text-anchor="middle" x="655" y="-578.3" font-family="Times,serif" font-size="14.00" fill="#0058ad">r 369 16</text>
<polyline fill="none" stroke="#0058ad" points="693.5,-567.5 693.5,-596.5 "/>
<text text-anchor="middle" x="732" y="-578.3" font-family="Times,serif" font-size="14.00" fill="#0058ad">r 369 16</text>
<polyline fill="none" stroke="#0058ad" points="770.5,-567.5 770.5,-596.5 "/>
<text text-anchor="middle" x="807.5" y="-578.3" font-family="Times,serif" font-size="14.00" fill="#0058ad">w 364 9</text>
</g>
<!-- T9532&#45;&gt;T9623 -->
<g id="edge7" class="edge">
<title>T9532:f0&#45;&gt;T9623:f0</title>
<path fill="none" stroke="#5b00c0" d="M573,-648C573,-629.21 574.37,-622.12 574.84,-607.36"/>
<polygon fill="#5b00c0" stroke="#5b00c0" points="578.35,-607.05 575,-597 571.35,-606.95 578.35,-607.05"/>
<text text-anchor="middle" x="583.5" y="-618.8" font-family="Times,serif" font-size="14.00" fill="#5b00c0">rw</text>
</g>
<!-- T9536 -->
<g id="node14" class="node">
<title>T9536</title>
<polygon fill="none" stroke="#0058ad" points="863,-567.5 863,-596.5 1073,-596.5 1073,-567.5 863,-567.5"/>
<text text-anchor="middle" x="900" y="-578.3" font-family="Times,serif" font-size="14.00" fill="#0058ad">w 369 2</text>
<polyline fill="none" stroke="#0058ad" points="937,-567.5 937,-596.5 "/>
<text text-anchor="middle" x="971" y="-578.3" font-family="Times,serif" font-size="14.00" fill="#0058ad">r 368 4</text>
<polyline fill="none" stroke="#0058ad" points="1005,-567.5 1005,-596.5 "/>
<text text-anchor="middle" x="1039" y="-578.3" font-family="Times,serif" font-size="14.00" fill="#0058ad">r 364 3</text>
</g>
<!-- T9532&#45;&gt;T9536 -->
<g id="edge8" class="edge">
<title>T9532:f2&#45;&gt;T9536:f1</title>
<path fill="none" stroke="#c000a5" d="M755,-663C815.34,-663 824.02,-631.7 882,-615 897.91,-610.42 947.61,-614.82 964.95,-605.41"/>
<polygon fill="#c000a5" stroke="#c000a5" points="968,-607.16 971,-597 962.32,-603.08 968,-607.16"/>
<text text-anchor="middle" x="891.5" y="-618.8" font-family="Times,serif" font-size="14.00" fill="#c000a5">wr</text>
</g>
<!-- T9713&#45;&gt;T9727 -->
<g id="edge9" class="edge">
<title>T9713:f2&#45;&gt;T9727:f2</title>
<path fill="none" stroke="#c000a5" d="M497,-177C547.56,-177 471.19,-105.51 417.13,-96.85"/>
<polygon fill="#c000a5" stroke="#c000a5" points="417.26,-93.35 407,-96 416.67,-100.33 417.26,-93.35"/>
<text text-anchor="middle" x="509.5" y="-132.8" font-family="Times,serif" font-size="14.00" fill="#c000a5">wr</text>
</g>
<!-- T9677 -->
<g id="node7" class="node">
<title>T9677</title>
<polygon fill="none" stroke="#0058ad" points="198.5,-324.5 198.5,-353.5 435.5,-353.5 435.5,-324.5 198.5,-324.5"/>
<text text-anchor="middle" x="240" y="-335.3" font-family="Times,serif" font-size="14.00" fill="#0058ad">w 332 10</text>
<polyline fill="none" stroke="#0058ad" points="281.5,-324.5 281.5,-353.5 "/>
<text text-anchor="middle" x="320" y="-335.3" font-family="Times,serif" font-size="14.00" fill="#0058ad">r 372 nil</text>
<polyline fill="none" stroke="#0058ad" points="358.5,-324.5 358.5,-353.5 "/>
<text text-anchor="middle" x="397" y="-335.3" font-family="Times,serif" font-size="14.00" fill="#0058ad">r 371 15</text>
</g>
<!-- T9677&#45;&gt;T9703 -->
<g id="edge10" class="edge">
<title>T9677:f1&#45;&gt;T9703:f0</title>
<path fill="none" stroke="#5b00c0" d="M320,-324C320,-285.45 253.48,-309.82 241,-283.07"/>
<polygon fill="#5b00c0" stroke="#5b00c0" points="244.38,-282.13 239,-273 237.52,-283.49 244.38,-282.13"/>
<text text-anchor="middle" x="319.5" y="-294.8" font-family="Times,serif" font-size="14.00" fill="#5b00c0">rw</text>
</g>
<!-- T9557&#45;&gt;T9515 -->
<g id="edge11" class="edge">
<title>T9557:f0&#45;&gt;T9515:f0</title>
<path fill="none" stroke="#5b00c0" d="M216,-597C216,-657.12 265.84,-664.57 271.48,-718.72"/>
<polygon fill="#5b00c0" stroke="#5b00c0" points="268,-719.19 272,-729 274.99,-718.84 268,-719.19"/>
<text text-anchor="middle" x="264.5" y="-659.3" font-family="Times,serif" font-size="14.00" fill="#5b00c0">rw</text>
</g>
<!-- T9755&#45;&gt;T9773 -->
<g id="edge12" class="edge">
<title>T9755:f1&#45;&gt;T9773:f1</title>
<path fill="none" stroke="#5b00c0" d="M146,-30C146,-67 94,-58 94,-95 94,-745 94,-745 94,-745 94,-772.35 114.08,-777.8 118.95,-799.84"/>
<polygon fill="#5b00c0" stroke="#5b00c0" points="115.49,-800.41 120,-810 122.45,-799.69 115.49,-800.41"/>
<text text-anchor="middle" x="103.5" y="-416.3" font-family="Times,serif" font-size="14.00" fill="#5b00c0">rw</text>
</g>
<!-- T9673&#45;&gt;T9677 -->
<g id="edge13" class="edge">
<title>T9673:f1&#45;&gt;T9677:f2</title>
<path fill="none" stroke="#c000a5" d="M389,-420C415.2,-420 401.23,-391.34 397.72,-364.24"/>
<polygon fill="#c000a5" stroke="#c000a5" points="401.2,-363.73 397,-354 394.21,-364.22 401.2,-363.73"/>
<text text-anchor="middle" x="411.5" y="-375.8" font-family="Times,serif" font-size="14.00" fill="#c000a5">wr</text>
</g>
<!-- T9673&#45;&gt;T9515 -->
<g id="edge14" class="edge">
<title>T9673:f0&#45;&gt;T9515:f0</title>
<path fill="none" stroke="#5b00c0" d="M227,-420C223.39,-420 128.47,-520.5 149,-597 167.64,-666.47 159.41,-737.05 223.94,-743.52"/>
<polygon fill="#5b00c0" stroke="#5b00c0" points="223.84,-747.02 234,-744 224.18,-740.03 223.84,-747.02"/>
<text text-anchor="middle" x="158.5" y="-578.3" font-family="Times,serif" font-size="14.00" fill="#5b00c0">rw</text>
</g>
<!-- T9541 -->
<g id="node11" class="node">
<title>T9541</title>
<polygon fill="none" stroke="#0058ad" points="874.5,-486.5 874.5,-515.5 1167.5,-515.5 1167.5,-486.5 874.5,-486.5"/>
<text text-anchor="middle" x="911.5" y="-497.3" font-family="Times,serif" font-size="14.00" fill="#0058ad">w 368 7</text>
<polyline fill="none" stroke="#0058ad" points="948.5,-486.5 948.5,-515.5 "/>
<text text-anchor="middle" x="987" y="-497.3" font-family="Times,serif" font-size="14.00" fill="#0058ad">r 367 nil</text>
<polyline fill="none" stroke="#0058ad" points="1025.5,-486.5 1025.5,-515.5 "/>
<text text-anchor="middle" x="1062.5" y="-497.3" font-family="Times,serif" font-size="14.00" fill="#0058ad">w 367 2</text>
<polyline fill="none" stroke="#0058ad" points="1099.5,-486.5 1099.5,-515.5 "/>
<text text-anchor="middle" x="1133.5" y="-497.3" font-family="Times,serif" font-size="14.00" fill="#0058ad">r 369 2</text>
</g>
<!-- T9541&#45;&gt;T9727 -->
<g id="edge15" class="edge">
<title>T9541:f1&#45;&gt;T9727:f1</title>
<path fill="none" stroke="#5b00c0" d="M987,-486C987,-382.98 528,-524.02 528,-421 528,-421 528,-421 528,-176 528,-70.82 307.41,-209.95 292.76,-120.99"/>
<polygon fill="#5b00c0" stroke="#5b00c0" points="296.25,-120.7 292,-111 289.27,-121.24 296.25,-120.7"/>
<text text-anchor="middle" x="537.5" y="-294.8" font-family="Times,serif" font-size="14.00" fill="#5b00c0">rw</text>
</g>
<!-- T9515&#45;&gt;T9727 -->
<g id="edge16" class="edge">
<title>T9515:f3&#45;&gt;T9727:f1</title>
<path fill="none" stroke="#5b00c0" d="M505,-729C505,-656.45 532.45,-621.87 485,-567 428.93,-502.16 376.14,-553.38 299,-516 234.92,-484.95 170,-492.2 170,-421 170,-421 170,-421 170,-216.5 170,-183.63 195.34,-183.73 220,-162 246.55,-138.6 283.81,-147.83 290.83,-121.05"/>
<polygon fill="#5b00c0" stroke="#5b00c0" points="294.32,-121.34 292,-111 287.37,-120.53 294.32,-121.34"/>
<text text-anchor="middle" x="180.5" y="-416.3" font-family="Times,serif" font-size="14.00" fill="#5b00c0">rw</text>
</g>
<!-- T9515&#45;&gt;T9532 -->
<g id="edge17" class="edge">
<title>T9515:f2&#45;&gt;T9532:f1</title>
<path fill="none" stroke="#c000a5" d="M429,-729C429,-708.6 499.12,-715.57 519,-711 572.17,-698.78 637.01,-731.59 645.15,-688.11"/>
<polygon fill="#c000a5" stroke="#c000a5" points="648.65,-688.26 646,-678 641.67,-687.67 648.65,-688.26"/>
<text text-anchor="middle" x="651.5" y="-699.8" font-family="Times,serif" font-size="14.00" fill="#c000a5">wr</text>
</g>
<!-- T9515&#45;&gt;T9541 -->
<g id="edge19" class="edge">
<title>T9515:f3&#45;&gt;T9541:f2</title>
<path fill="none" stroke="#5b00c0" d="M544,-744C601.03,-744 1008.98,-714.26 1053,-678 1092.36,-645.58 1091.04,-617.18 1082,-567 1078.41,-547.1 1067.55,-541.73 1064.08,-526.38"/>
<polygon fill="#5b00c0" stroke="#5b00c0" points="1067.51,-525.59 1063,-516 1060.55,-526.31 1067.51,-525.59"/>
<text text-anchor="middle" x="1096.5" y="-618.8" font-family="Times,serif" font-size="14.00" fill="#5b00c0">rw</text>
</g>
<!-- T9515&#45;&gt;T9536 -->
<g id="edge18" class="edge">
<title>T9515:f2&#45;&gt;T9536:f2</title>
<path fill="none" stroke="#c000a5" d="M429,-729C429,-702.7 639.16,-715.86 665,-711 832.27,-679.52 1030.68,-767.06 1038.75,-607.36"/>
<polygon fill="#c000a5" stroke="#c000a5" points="1042.25,-607.08 1039,-597 1035.26,-606.91 1042.25,-607.08"/>
<text text-anchor="middle" x="1039.5" y="-659.3" font-family="Times,serif" font-size="14.00" fill="#c000a5">wr</text>
</g>
<!-- T9623&#45;&gt;T9637 -->
<g id="edge20" class="edge">
<title>T9623:f0&#45;&gt;T9637:f3</title>
<path fill="none" stroke="#c000a5" d="M575,-567C575,-548.23 575,-541.12 575,-526.35"/>
<polygon fill="#c000a5" stroke="#c000a5" points="578.5,-526 575,-516 571.5,-526 578.5,-526"/>
<text text-anchor="middle" x="584.5" y="-537.8" font-family="Times,serif" font-size="14.00" fill="#c000a5">wr</text>
</g>
<!-- T9536&#45;&gt;T9541 -->
<g id="edge21" class="edge">
<title>T9536:f0&#45;&gt;T9541:f3</title>
<path fill="none" stroke="#c000a5" d="M900,-567C900,-464.2 1118.28,-611.69 1133.2,-526"/>
<polygon fill="#c000a5" stroke="#c000a5" points="1136.69,-526.25 1134,-516 1129.71,-525.69 1136.69,-526.25"/>
<text text-anchor="middle" x="1138.5" y="-537.8" font-family="Times,serif" font-size="14.00" fill="#c000a5">wr</text>
</g>
</g>
</svg>
