<?xml version="1.0" encoding="UTF-8" standalone="no"?>
<!DOCTYPE svg PUBLIC "-//W3C//DTD SVG 1.1//EN"
 "http://www.w3.org/Graphics/SVG/1.1/DTD/svg11.dtd">
<!-- Generated by graphviz version 2.43.0 (0)
 -->
<!-- Title: a_graph Pages: 1 -->
<svg width="887pt" height="1658pt"
 viewBox="0.00 0.00 886.50 1658.00" xmlns="http://www.w3.org/2000/svg" xmlns:xlink="http://www.w3.org/1999/xlink">
<g id="graph0" class="graph" transform="scale(1 1) rotate(0) translate(4 1654)">
<title>a_graph</title>
<polygon fill="white" stroke="transparent" points="-4,4 -4,-1654 882.5,-1654 882.5,4 -4,4"/>
<!-- T28461 -->
<g id="node1" class="node">
<title>T28461</title>
<polygon fill="none" stroke="#0058ad" points="3,-1620.5 3,-1649.5 172,-1649.5 172,-1620.5 3,-1620.5"/>
<text text-anchor="middle" x="46" y="-1631.3" font-family="Times,serif" font-size="14.00" fill="#0058ad">r 1074 13</text>
<polyline fill="none" stroke="#0058ad" points="89,-1620.5 89,-1649.5 "/>
<text text-anchor="middle" x="130.5" y="-1631.3" font-family="Times,serif" font-size="14.00" fill="#0058ad">w 1081 6</text>
</g>
<!-- T28477 -->
<g id="node14" class="node">
<title>T28477</title>
<polygon fill="none" stroke="#0058ad" points="82,-1458.5 82,-1487.5 411,-1487.5 411,-1458.5 82,-1458.5"/>
<text text-anchor="middle" x="120.5" y="-1469.3" font-family="Times,serif" font-size="14.00" fill="#0058ad">r 1081 6</text>
<polyline fill="none" stroke="#0058ad" points="159,-1458.5 159,-1487.5 "/>
<text text-anchor="middle" x="197.5" y="-1469.3" font-family="Times,serif" font-size="14.00" fill="#0058ad">r 1081 6</text>
<polyline fill="none" stroke="#0058ad" points="236,-1458.5 236,-1487.5 "/>
<text text-anchor="middle" x="277.5" y="-1469.3" font-family="Times,serif" font-size="14.00" fill="#0058ad">w 1081 9</text>
<polyline fill="none" stroke="#0058ad" points="319,-1458.5 319,-1487.5 "/>
<text text-anchor="middle" x="365" y="-1469.3" font-family="Times,serif" font-size="14.00" fill="#0058ad">w 1081 10</text>
</g>
<!-- T28461&#45;&gt;T28477 -->
<g id="edge1" class="edge">
<title>T28461:f1&#45;&gt;T28477:f0</title>
<path fill="none" stroke="#c000a5" d="M130.5,-1620C130.5,-1564.73 121.67,-1548.73 120.61,-1498.22"/>
<polygon fill="#c000a5" stroke="#c000a5" points="124.1,-1497.96 120.5,-1488 117.1,-1498.04 124.1,-1497.96"/>
<text text-anchor="middle" x="137" y="-1550.3" font-family="Times,serif" font-size="14.00" fill="#c000a5">wr</text>
</g>
<!-- T28465 -->
<g id="node19" class="node">
<title>T28465</title>
<polygon fill="none" stroke="#0058ad" points="247,-1539.5 247,-1568.5 478,-1568.5 478,-1539.5 247,-1539.5"/>
<text text-anchor="middle" x="285.5" y="-1550.3" font-family="Times,serif" font-size="14.00" fill="#0058ad">r 1081 6</text>
<polyline fill="none" stroke="#0058ad" points="324,-1539.5 324,-1568.5 "/>
<text text-anchor="middle" x="362.5" y="-1550.3" font-family="Times,serif" font-size="14.00" fill="#0058ad">r 1081 6</text>
<polyline fill="none" stroke="#0058ad" points="401,-1539.5 401,-1568.5 "/>
<text text-anchor="middle" x="439.5" y="-1550.3" font-family="Times,serif" font-size="14.00" fill="#0058ad">r 1081 6</text>
</g>
<!-- T28461&#45;&gt;T28465 -->
<g id="edge2" class="edge">
<title>T28461:f1&#45;&gt;T28465:f0</title>
<path fill="none" stroke="#c000a5" d="M173.5,-1635C217.9,-1635 200.69,-1566.16 235.47,-1555.41"/>
<polygon fill="#c000a5" stroke="#c000a5" points="236.08,-1558.85 245.5,-1554 235.11,-1551.92 236.08,-1558.85"/>
<text text-anchor="middle" x="222" y="-1590.8" font-family="Times,serif" font-size="14.00" fill="#c000a5">wr</text>
</g>
<!-- T28915 -->
<g id="node2" class="node">
<title>T28915</title>
<polygon fill="none" stroke="#0058ad" points="369,-891.5 369,-920.5 544,-920.5 544,-891.5 369,-891.5"/>
<text text-anchor="middle" x="410.5" y="-902.3" font-family="Times,serif" font-size="14.00" fill="#0058ad">w 1098 7</text>
<polyline fill="none" stroke="#0058ad" points="452,-891.5 452,-920.5 "/>
<text text-anchor="middle" x="498" y="-902.3" font-family="Times,serif" font-size="14.00" fill="#0058ad">w 1095 13</text>
</g>
<!-- T28922 -->
<g id="node3" class="node">
<title>T28922</title>
<polygon fill="none" stroke="#0058ad" points="372.5,-810.5 372.5,-839.5 698.5,-839.5 698.5,-810.5 372.5,-810.5"/>
<text text-anchor="middle" x="411" y="-821.3" font-family="Times,serif" font-size="14.00" fill="#0058ad">r 1098 7</text>
<polyline fill="none" stroke="#0058ad" points="449.5,-810.5 449.5,-839.5 "/>
<text text-anchor="middle" x="492.5" y="-821.3" font-family="Times,serif" font-size="14.00" fill="#0058ad">r 1095 13</text>
<polyline fill="none" stroke="#0058ad" points="535.5,-810.5 535.5,-839.5 "/>
<text text-anchor="middle" x="578.5" y="-821.3" font-family="Times,serif" font-size="14.00" fill="#0058ad">r 1024 nil</text>
<polyline fill="none" stroke="#0058ad" points="621.5,-810.5 621.5,-839.5 "/>
<text text-anchor="middle" x="660" y="-821.3" font-family="Times,serif" font-size="14.00" fill="#0058ad">r 1098 7</text>
</g>
<!-- T28915&#45;&gt;T28922 -->
<g id="edge3" class="edge">
<title>T28915:f0&#45;&gt;T28922:f0</title>
<path fill="none" stroke="#c000a5" d="M410.5,-891C410.5,-872.23 410.5,-865.12 410.5,-850.35"/>
<polygon fill="#c000a5" stroke="#c000a5" points="414,-850 410.5,-840 407,-850 414,-850"/>
<text text-anchor="middle" x="420" y="-861.8" font-family="Times,serif" font-size="14.00" fill="#c000a5">wr</text>
</g>
<!-- T28263 -->
<g id="node20" class="node">
<title>T28263</title>
<polygon fill="none" stroke="#0058ad" points="293.5,-729.5 293.5,-758.5 619.5,-758.5 619.5,-729.5 293.5,-729.5"/>
<text text-anchor="middle" x="332" y="-740.3" font-family="Times,serif" font-size="14.00" fill="#0058ad">r 1075 1</text>
<polyline fill="none" stroke="#0058ad" points="370.5,-729.5 370.5,-758.5 "/>
<text text-anchor="middle" x="412" y="-740.3" font-family="Times,serif" font-size="14.00" fill="#0058ad">w 1075 4</text>
<polyline fill="none" stroke="#0058ad" points="453.5,-729.5 453.5,-758.5 "/>
<text text-anchor="middle" x="495" y="-740.3" font-family="Times,serif" font-size="14.00" fill="#0058ad">w 1074 1</text>
<polyline fill="none" stroke="#0058ad" points="536.5,-729.5 536.5,-758.5 "/>
<text text-anchor="middle" x="578" y="-740.3" font-family="Times,serif" font-size="14.00" fill="#0058ad">w 1024 3</text>
</g>
<!-- T28922&#45;&gt;T28263 -->
<g id="edge4" class="edge">
<title>T28922:f2&#45;&gt;T28263:f3</title>
<path fill="none" stroke="#5b00c0" d="M578.5,-810C578.5,-791.23 578.5,-784.12 578.5,-769.35"/>
<polygon fill="#5b00c0" stroke="#5b00c0" points="582,-769 578.5,-759 575,-769 582,-769"/>
<text text-anchor="middle" x="588" y="-780.8" font-family="Times,serif" font-size="14.00" fill="#5b00c0">rw</text>
</g>
<!-- T28417 -->
<g id="node4" class="node">
<title>T28417</title>
<polygon fill="none" stroke="#0058ad" points="414.5,-243.5 414.5,-272.5 506.5,-272.5 506.5,-243.5 414.5,-243.5"/>
<text text-anchor="middle" x="460.5" y="-254.3" font-family="Times,serif" font-size="14.00" fill="#0058ad">w 1079 10</text>
</g>
<!-- T28432 -->
<g id="node13" class="node">
<title>T28432</title>
<polygon fill="none" stroke="#0058ad" points="165,-81.5 165,-110.5 506,-110.5 506,-81.5 165,-81.5"/>
<text text-anchor="middle" x="206.5" y="-92.3" font-family="Times,serif" font-size="14.00" fill="#0058ad">w 1080 3</text>
<polyline fill="none" stroke="#0058ad" points="248,-81.5 248,-110.5 "/>
<text text-anchor="middle" x="291" y="-92.3" font-family="Times,serif" font-size="14.00" fill="#0058ad">r 1074 10</text>
<polyline fill="none" stroke="#0058ad" points="334,-81.5 334,-110.5 "/>
<text text-anchor="middle" x="377" y="-92.3" font-family="Times,serif" font-size="14.00" fill="#0058ad">r 1079 10</text>
<polyline fill="none" stroke="#0058ad" points="420,-81.5 420,-110.5 "/>
<text text-anchor="middle" x="463" y="-92.3" font-family="Times,serif" font-size="14.00" fill="#0058ad">r 1079 10</text>
</g>
<!-- T28417&#45;&gt;T28432 -->
<g id="edge5" class="edge">
<title>T28417:f0&#45;&gt;T28432:f2</title>
<path fill="none" stroke="#c000a5" d="M461.07,-243.2C461.17,-223.31 458.92,-187.49 443.5,-162 426.33,-133.63 387.07,-144.87 378.97,-121.02"/>
<polygon fill="#c000a5" stroke="#c000a5" points="382.42,-120.38 377.5,-111 375.49,-121.4 382.42,-120.38"/>
<text text-anchor="middle" x="464" y="-173.3" font-family="Times,serif" font-size="14.00" fill="#c000a5">wr</text>
</g>
<!-- T28424 -->
<g id="node15" class="node">
<title>T28424</title>
<polygon fill="none" stroke="#0058ad" points="173,-162.5 173,-191.5 434,-191.5 434,-162.5 173,-162.5"/>
<text text-anchor="middle" x="219" y="-173.3" font-family="Times,serif" font-size="14.00" fill="#0058ad">w 1074 10</text>
<polyline fill="none" stroke="#0058ad" points="265,-162.5 265,-191.5 "/>
<text text-anchor="middle" x="308" y="-173.3" font-family="Times,serif" font-size="14.00" fill="#0058ad">r 1079 10</text>
<polyline fill="none" stroke="#0058ad" points="351,-162.5 351,-191.5 "/>
<text text-anchor="middle" x="392.5" y="-173.3" font-family="Times,serif" font-size="14.00" fill="#0058ad">w 1080 1</text>
</g>
<!-- T28417&#45;&gt;T28424 -->
<g id="edge6" class="edge">
<title>T28417:f0&#45;&gt;T28424:f1</title>
<path fill="none" stroke="#c000a5" d="M416.54,-243.41C380.24,-230.83 332,-212.74 314.87,-200"/>
<polygon fill="#c000a5" stroke="#c000a5" points="317.47,-197.64 308.5,-192 311.99,-202 317.47,-197.64"/>
<text text-anchor="middle" x="375" y="-213.8" font-family="Times,serif" font-size="14.00" fill="#c000a5">wr</text>
</g>
<!-- T28482 -->
<g id="node5" class="node">
<title>T28482</title>
<polygon fill="none" stroke="#0058ad" points="240,-1377.5 240,-1406.5 495,-1406.5 495,-1377.5 240,-1377.5"/>
<text text-anchor="middle" x="281.5" y="-1388.3" font-family="Times,serif" font-size="14.00" fill="#0058ad">w 1083 2</text>
<polyline fill="none" stroke="#0058ad" points="323,-1377.5 323,-1406.5 "/>
<text text-anchor="middle" x="366" y="-1388.3" font-family="Times,serif" font-size="14.00" fill="#0058ad">r 1081 10</text>
<polyline fill="none" stroke="#0058ad" points="409,-1377.5 409,-1406.5 "/>
<text text-anchor="middle" x="452" y="-1388.3" font-family="Times,serif" font-size="14.00" fill="#0058ad">r 1081 10</text>
</g>
<!-- T28491 -->
<g id="node22" class="node">
<title>T28491</title>
<polygon fill="none" stroke="#0058ad" points="151.5,-1296.5 151.5,-1325.5 489.5,-1325.5 489.5,-1296.5 151.5,-1296.5"/>
<text text-anchor="middle" x="197.5" y="-1307.3" font-family="Times,serif" font-size="14.00" fill="#0058ad">w 1081 12</text>
<polyline fill="none" stroke="#0058ad" points="243.5,-1296.5 243.5,-1325.5 "/>
<text text-anchor="middle" x="282" y="-1307.3" font-family="Times,serif" font-size="14.00" fill="#0058ad">r 1083 2</text>
<polyline fill="none" stroke="#0058ad" points="320.5,-1296.5 320.5,-1325.5 "/>
<text text-anchor="middle" x="363.5" y="-1307.3" font-family="Times,serif" font-size="14.00" fill="#0058ad">r 1082 nil</text>
<polyline fill="none" stroke="#0058ad" points="406.5,-1296.5 406.5,-1325.5 "/>
<text text-anchor="middle" x="448" y="-1307.3" font-family="Times,serif" font-size="14.00" fill="#0058ad">w 1080 9</text>
</g>
<!-- T28482&#45;&gt;T28491 -->
<g id="edge7" class="edge">
<title>T28482:f0&#45;&gt;T28491:f1</title>
<path fill="none" stroke="#c000a5" d="M281.5,-1377C281.5,-1358.23 281.5,-1351.12 281.5,-1336.35"/>
<polygon fill="#c000a5" stroke="#c000a5" points="285,-1336 281.5,-1326 278,-1336 285,-1336"/>
<text text-anchor="middle" x="292" y="-1347.8" font-family="Times,serif" font-size="14.00" fill="#c000a5">wr</text>
</g>
<!-- T28342 -->
<g id="node6" class="node">
<title>T28342</title>
<polygon fill="none" stroke="#0058ad" points="393,-567.5 393,-596.5 746,-596.5 746,-567.5 393,-567.5"/>
<text text-anchor="middle" x="439" y="-578.3" font-family="Times,serif" font-size="14.00" fill="#0058ad">w 1076 15</text>
<polyline fill="none" stroke="#0058ad" points="485,-567.5 485,-596.5 "/>
<text text-anchor="middle" x="531" y="-578.3" font-family="Times,serif" font-size="14.00" fill="#0058ad">w 1076 16</text>
<polyline fill="none" stroke="#0058ad" points="577,-567.5 577,-596.5 "/>
<text text-anchor="middle" x="620" y="-578.3" font-family="Times,serif" font-size="14.00" fill="#0058ad">r 1078 nil</text>
<polyline fill="none" stroke="#0058ad" points="663,-567.5 663,-596.5 "/>
<text text-anchor="middle" x="704.5" y="-578.3" font-family="Times,serif" font-size="14.00" fill="#0058ad">w 1078 1</text>
</g>
<!-- T28387 -->
<g id="node7" class="node">
<title>T28387</title>
<polygon fill="none" stroke="#0058ad" points="93.5,-486.5 93.5,-515.5 363.5,-515.5 363.5,-486.5 93.5,-486.5"/>
<text text-anchor="middle" x="139.5" y="-497.3" font-family="Times,serif" font-size="14.00" fill="#0058ad">w 1078 15</text>
<polyline fill="none" stroke="#0058ad" points="185.5,-486.5 185.5,-515.5 "/>
<text text-anchor="middle" x="228.5" y="-497.3" font-family="Times,serif" font-size="14.00" fill="#0058ad">r 1078 15</text>
<polyline fill="none" stroke="#0058ad" points="271.5,-486.5 271.5,-515.5 "/>
<text text-anchor="middle" x="317.5" y="-497.3" font-family="Times,serif" font-size="14.00" fill="#0058ad">w 1078 16</text>
</g>
<!-- T28342&#45;&gt;T28387 -->
<g id="edge9" class="edge">
<title>T28342:f2&#45;&gt;T28387:f2</title>
<path fill="none" stroke="#5b00c0" d="M620.5,-567C620.5,-537.04 378.87,-561.18 351.5,-549 344.36,-545.82 329.09,-534.98 321.69,-525.3"/>
<polygon fill="#5b00c0" stroke="#5b00c0" points="324.8,-523.68 317.5,-516 318.42,-526.56 324.8,-523.68"/>
<text text-anchor="middle" x="361" y="-537.8" font-family="Times,serif" font-size="14.00" fill="#5b00c0">rw</text>
</g>
<!-- T28368 -->
<g id="node11" class="node">
<title>T28368</title>
<polygon fill="none" stroke="#0058ad" points="565,-486.5 565,-515.5 808,-515.5 808,-486.5 565,-486.5"/>
<text text-anchor="middle" x="606.5" y="-497.3" font-family="Times,serif" font-size="14.00" fill="#0058ad">w 1078 7</text>
<polyline fill="none" stroke="#0058ad" points="648,-486.5 648,-515.5 "/>
<text text-anchor="middle" x="686.5" y="-497.3" font-family="Times,serif" font-size="14.00" fill="#0058ad">r 1074 7</text>
<polyline fill="none" stroke="#0058ad" points="725,-486.5 725,-515.5 "/>
<text text-anchor="middle" x="766.5" y="-497.3" font-family="Times,serif" font-size="14.00" fill="#0058ad">w 1078 8</text>
</g>
<!-- T28342&#45;&gt;T28368 -->
<g id="edge10" class="edge">
<title>T28342:f2&#45;&gt;T28368:f2</title>
<path fill="none" stroke="#5b00c0" d="M620.5,-567C620.5,-536.26 737.33,-547.21 761.97,-525.26"/>
<polygon fill="#5b00c0" stroke="#5b00c0" points="765.25,-526.52 766.5,-516 758.96,-523.44 765.25,-526.52"/>
<text text-anchor="middle" x="751" y="-537.8" font-family="Times,serif" font-size="14.00" fill="#5b00c0">rw</text>
</g>
<!-- T28380 -->
<g id="node18" class="node">
<title>T28380</title>
<polygon fill="none" stroke="#0058ad" points="355,-405.5 355,-434.5 616,-434.5 616,-405.5 355,-405.5"/>
<text text-anchor="middle" x="393.5" y="-416.3" font-family="Times,serif" font-size="14.00" fill="#0058ad">r 1078 8</text>
<polyline fill="none" stroke="#0058ad" points="432,-405.5 432,-434.5 "/>
<text text-anchor="middle" x="478" y="-416.3" font-family="Times,serif" font-size="14.00" fill="#0058ad">w 1078 11</text>
<polyline fill="none" stroke="#0058ad" points="524,-405.5 524,-434.5 "/>
<text text-anchor="middle" x="570" y="-416.3" font-family="Times,serif" font-size="14.00" fill="#0058ad">w 1077 13</text>
</g>
<!-- T28342&#45;&gt;T28380 -->
<g id="edge8" class="edge">
<title>T28342:f2&#45;&gt;T28380:f1</title>
<path fill="none" stroke="#5b00c0" d="M620.5,-567C620.5,-523.7 569.41,-545.26 537.5,-516 507.19,-488.21 481.97,-480.94 478.03,-445.28"/>
<polygon fill="#5b00c0" stroke="#5b00c0" points="481.51,-444.81 477.5,-435 474.52,-445.17 481.51,-444.81"/>
<text text-anchor="middle" x="547" y="-497.3" font-family="Times,serif" font-size="14.00" fill="#5b00c0">rw</text>
</g>
<!-- T28390 -->
<g id="node21" class="node">
<title>T28390</title>
<polygon fill="none" stroke="#0058ad" points="314.5,-324.5 314.5,-353.5 572.5,-353.5 572.5,-324.5 314.5,-324.5"/>
<text text-anchor="middle" x="357.5" y="-335.3" font-family="Times,serif" font-size="14.00" fill="#0058ad">r 1078 16</text>
<polyline fill="none" stroke="#0058ad" points="400.5,-324.5 400.5,-353.5 "/>
<text text-anchor="middle" x="443.5" y="-335.3" font-family="Times,serif" font-size="14.00" fill="#0058ad">r 1077 13</text>
<polyline fill="none" stroke="#0058ad" points="486.5,-324.5 486.5,-353.5 "/>
<text text-anchor="middle" x="529.5" y="-335.3" font-family="Times,serif" font-size="14.00" fill="#0058ad">r 1079 nil</text>
</g>
<!-- T28387&#45;&gt;T28390 -->
<g id="edge11" class="edge">
<title>T28387:f2&#45;&gt;T28390:f0</title>
<path fill="none" stroke="#c000a5" d="M317.5,-486C317.5,-424.47 256.03,-348.51 303.36,-339.82"/>
<polygon fill="#c000a5" stroke="#c000a5" points="303.82,-343.3 313.5,-339 303.25,-336.32 303.82,-343.3"/>
<text text-anchor="middle" x="316" y="-416.3" font-family="Times,serif" font-size="14.00" fill="#c000a5">wr</text>
</g>
<!-- T28893 -->
<g id="node8" class="node">
<title>T28893</title>
<polygon fill="none" stroke="#0058ad" points="333,-1053.5 333,-1082.5 496,-1082.5 496,-1053.5 333,-1053.5"/>
<text text-anchor="middle" x="376" y="-1064.3" font-family="Times,serif" font-size="14.00" fill="#0058ad">r 1098 nil</text>
<polyline fill="none" stroke="#0058ad" points="419,-1053.5 419,-1082.5 "/>
<text text-anchor="middle" x="457.5" y="-1064.3" font-family="Times,serif" font-size="14.00" fill="#0058ad">r 1095 8</text>
</g>
<!-- T28893&#45;&gt;T28915 -->
<g id="edge12" class="edge">
<title>T28893:f0&#45;&gt;T28915:f0</title>
<path fill="none" stroke="#5b00c0" d="M375.5,-1053C375.5,-991.4 310.42,-915.5 357.39,-906.82"/>
<polygon fill="#5b00c0" stroke="#5b00c0" points="357.82,-910.3 367.5,-906 357.25,-903.32 357.82,-910.3"/>
<text text-anchor="middle" x="374" y="-983.3" font-family="Times,serif" font-size="14.00" fill="#5b00c0">rw</text>
</g>
<!-- T28889 -->
<g id="node17" class="node">
<title>T28889</title>
<polygon fill="none" stroke="#0058ad" points="396,-972.5 396,-1001.5 725,-1001.5 725,-972.5 396,-972.5"/>
<text text-anchor="middle" x="439" y="-983.3" font-family="Times,serif" font-size="14.00" fill="#0058ad">r 1098 nil</text>
<polyline fill="none" stroke="#0058ad" points="482,-972.5 482,-1001.5 "/>
<text text-anchor="middle" x="523.5" y="-983.3" font-family="Times,serif" font-size="14.00" fill="#0058ad">w 1098 1</text>
<polyline fill="none" stroke="#0058ad" points="565,-972.5 565,-1001.5 "/>
<text text-anchor="middle" x="606.5" y="-983.3" font-family="Times,serif" font-size="14.00" fill="#0058ad">w 1098 2</text>
<polyline fill="none" stroke="#0058ad" points="648,-972.5 648,-1001.5 "/>
<text text-anchor="middle" x="686.5" y="-983.3" font-family="Times,serif" font-size="14.00" fill="#0058ad">r 1098 2</text>
</g>
<!-- T28893&#45;&gt;T28889 -->
<g id="edge13" class="edge">
<title>T28893:f0&#45;&gt;T28889:f2</title>
<path fill="none" stroke="#5b00c0" d="M375.5,-1053C375.5,-951.56 590.54,-1096.27 605.66,-1012.13"/>
<polygon fill="#5b00c0" stroke="#5b00c0" points="609.17,-1012.25 606.5,-1002 602.19,-1011.68 609.17,-1012.25"/>
<text text-anchor="middle" x="611" y="-1023.8" font-family="Times,serif" font-size="14.00" fill="#5b00c0">rw</text>
</g>
<!-- T28460 -->
<g id="node9" class="node">
<title>T28460</title>
<polygon fill="none" stroke="#0058ad" points="86.5,-1215.5 86.5,-1244.5 338.5,-1244.5 338.5,-1215.5 86.5,-1215.5"/>
<text text-anchor="middle" x="128" y="-1226.3" font-family="Times,serif" font-size="14.00" fill="#0058ad">w 1081 5</text>
<polyline fill="none" stroke="#0058ad" points="169.5,-1215.5 169.5,-1244.5 "/>
<text text-anchor="middle" x="212.5" y="-1226.3" font-family="Times,serif" font-size="14.00" fill="#0058ad">r 1082 nil</text>
<polyline fill="none" stroke="#0058ad" points="255.5,-1215.5 255.5,-1244.5 "/>
<text text-anchor="middle" x="297" y="-1226.3" font-family="Times,serif" font-size="14.00" fill="#0058ad">w 1082 1</text>
</g>
<!-- T28884 -->
<g id="node12" class="node">
<title>T28884</title>
<polygon fill="none" stroke="#0058ad" points="238,-1134.5 238,-1163.5 499,-1163.5 499,-1134.5 238,-1134.5"/>
<text text-anchor="middle" x="281" y="-1145.3" font-family="Times,serif" font-size="14.00" fill="#0058ad">r 1096 14</text>
<polyline fill="none" stroke="#0058ad" points="324,-1134.5 324,-1163.5 "/>
<text text-anchor="middle" x="370" y="-1145.3" font-family="Times,serif" font-size="14.00" fill="#0058ad">w 1082 10</text>
<polyline fill="none" stroke="#0058ad" points="416,-1134.5 416,-1163.5 "/>
<text text-anchor="middle" x="457.5" y="-1145.3" font-family="Times,serif" font-size="14.00" fill="#0058ad">w 1095 8</text>
</g>
<!-- T28460&#45;&gt;T28884 -->
<g id="edge14" class="edge">
<title>T28460:f1&#45;&gt;T28884:f1</title>
<path fill="none" stroke="#5b00c0" d="M212.5,-1215C212.5,-1199 331.32,-1186.27 362.88,-1171.14"/>
<polygon fill="#5b00c0" stroke="#5b00c0" points="365.6,-1173.39 370.5,-1164 360.81,-1168.28 365.6,-1173.39"/>
<text text-anchor="middle" x="333" y="-1185.8" font-family="Times,serif" font-size="14.00" fill="#5b00c0">rw</text>
</g>
<!-- T28356 -->
<g id="node10" class="node">
<title>T28356</title>
<polygon fill="none" stroke="#0058ad" points="606,-648.5 606,-677.5 855,-677.5 855,-648.5 606,-648.5"/>
<text text-anchor="middle" x="644.5" y="-659.3" font-family="Times,serif" font-size="14.00" fill="#0058ad">r 1074 1</text>
<polyline fill="none" stroke="#0058ad" points="683,-648.5 683,-677.5 "/>
<text text-anchor="middle" x="726" y="-659.3" font-family="Times,serif" font-size="14.00" fill="#0058ad">r 1078 nil</text>
<polyline fill="none" stroke="#0058ad" points="769,-648.5 769,-677.5 "/>
<text text-anchor="middle" x="812" y="-659.3" font-family="Times,serif" font-size="14.00" fill="#0058ad">r 1078 nil</text>
</g>
<!-- T28356&#45;&gt;T28342 -->
<g id="edge16" class="edge">
<title>T28356:f1&#45;&gt;T28342:f3</title>
<path fill="none" stroke="#5b00c0" d="M725.5,-648C725.5,-627.32 710.55,-622.68 705.88,-607.01"/>
<polygon fill="#5b00c0" stroke="#5b00c0" points="709.33,-606.43 704.5,-597 702.4,-607.38 709.33,-606.43"/>
<text text-anchor="middle" x="729" y="-618.8" font-family="Times,serif" font-size="14.00" fill="#5b00c0">rw</text>
</g>
<!-- T28356&#45;&gt;T28387 -->
<g id="edge17" class="edge">
<title>T28356:f1&#45;&gt;T28387:f2</title>
<path fill="none" stroke="#5b00c0" d="M725.5,-648C725.5,-637.9 374.12,-602.26 365.5,-597 332.84,-577.08 319.78,-560.86 317.78,-526.26"/>
<polygon fill="#5b00c0" stroke="#5b00c0" points="321.27,-525.9 317.5,-516 314.27,-526.09 321.27,-525.9"/>
<text text-anchor="middle" x="375" y="-578.3" font-family="Times,serif" font-size="14.00" fill="#5b00c0">rw</text>
</g>
<!-- T28356&#45;&gt;T28368 -->
<g id="edge18" class="edge">
<title>T28356:f1&#45;&gt;T28368:f2</title>
<path fill="none" stroke="#5b00c0" d="M725.5,-648C725.5,-615.45 773.28,-652.81 796.5,-630 827.94,-599.12 844.63,-518.93 819.25,-503.57"/>
<polygon fill="#5b00c0" stroke="#5b00c0" points="820.06,-500.16 809.5,-501 818.28,-506.93 820.06,-500.16"/>
<text text-anchor="middle" x="837" y="-578.3" font-family="Times,serif" font-size="14.00" fill="#5b00c0">rw</text>
</g>
<!-- T28356&#45;&gt;T28380 -->
<g id="edge15" class="edge">
<title>T28356:f1&#45;&gt;T28380:f1</title>
<path fill="none" stroke="#5b00c0" d="M725.5,-648C725.5,-627.6 797.38,-639.36 815.5,-630 834.5,-620.19 842.03,-616.63 850.5,-597 870.89,-549.75 859.87,-515.22 817.5,-486 788.57,-466.05 525.14,-471.97 483.14,-443.31"/>
<polygon fill="#5b00c0" stroke="#5b00c0" points="486.01,-441.31 477.5,-435 480.21,-445.24 486.01,-441.31"/>
<text text-anchor="middle" x="869" y="-537.8" font-family="Times,serif" font-size="14.00" fill="#5b00c0">rw</text>
</g>
<!-- T28368&#45;&gt;T28380 -->
<g id="edge19" class="edge">
<title>T28368:f2&#45;&gt;T28380:f0</title>
<path fill="none" stroke="#c000a5" d="M766.5,-486C766.5,-393.75 417.86,-502.05 354.5,-435 353.21,-433.63 352.04,-431.85 351.17,-429.99"/>
<polygon fill="#c000a5" stroke="#c000a5" points="354.63,-430.53 353.5,-420 347.82,-428.94 354.63,-430.53"/>
<text text-anchor="middle" x="769" y="-456.8" font-family="Times,serif" font-size="14.00" fill="#c000a5">wr</text>
</g>
<!-- T28884&#45;&gt;T28893 -->
<g id="edge20" class="edge">
<title>T28884:f2&#45;&gt;T28893:f1</title>
<path fill="none" stroke="#c000a5" d="M457.5,-1134C457.5,-1115.23 457.5,-1108.12 457.5,-1093.35"/>
<polygon fill="#c000a5" stroke="#c000a5" points="461,-1093 457.5,-1083 454,-1093 461,-1093"/>
<text text-anchor="middle" x="467" y="-1104.8" font-family="Times,serif" font-size="14.00" fill="#c000a5">wr</text>
</g>
<!-- T28442 -->
<g id="node16" class="node">
<title>T28442</title>
<polygon fill="none" stroke="#0058ad" points="0,-0.5 0,-29.5 261,-29.5 261,-0.5 0,-0.5"/>
<text text-anchor="middle" x="46" y="-11.3" font-family="Times,serif" font-size="14.00" fill="#0058ad">w 1074 13</text>
<polyline fill="none" stroke="#0058ad" points="92,-0.5 92,-29.5 "/>
<text text-anchor="middle" x="138" y="-11.3" font-family="Times,serif" font-size="14.00" fill="#0058ad">w 1079 16</text>
<polyline fill="none" stroke="#0058ad" points="184,-0.5 184,-29.5 "/>
<text text-anchor="middle" x="222.5" y="-11.3" font-family="Times,serif" font-size="14.00" fill="#0058ad">r 1080 3</text>
</g>
<!-- T28432&#45;&gt;T28442 -->
<g id="edge21" class="edge">
<title>T28432:f0&#45;&gt;T28442:f2</title>
<path fill="none" stroke="#c000a5" d="M206.5,-81C206.5,-61.14 217.68,-55.45 221.35,-40.23"/>
<polygon fill="#c000a5" stroke="#c000a5" points="224.86,-40.33 222.5,-30 217.9,-39.55 224.86,-40.33"/>
<text text-anchor="middle" x="228" y="-51.8" font-family="Times,serif" font-size="14.00" fill="#c000a5">wr</text>
</g>
<!-- T28477&#45;&gt;T28482 -->
<g id="edge22" class="edge">
<title>T28477:f3&#45;&gt;T28482:f1</title>
<path fill="none" stroke="#c000a5" d="M365.5,-1458C365.5,-1439.23 365.5,-1432.12 365.5,-1417.35"/>
<polygon fill="#c000a5" stroke="#c000a5" points="369,-1417 365.5,-1407 362,-1417 369,-1417"/>
<text text-anchor="middle" x="375" y="-1428.8" font-family="Times,serif" font-size="14.00" fill="#c000a5">wr</text>
</g>
<!-- T28424&#45;&gt;T28432 -->
<g id="edge23" class="edge">
<title>T28424:f0&#45;&gt;T28432:f1</title>
<path fill="none" stroke="#c000a5" d="M218.5,-162C218.5,-126.77 276.62,-145.33 288.42,-121.03"/>
<polygon fill="#c000a5" stroke="#c000a5" points="291.9,-121.5 290.5,-111 285.04,-120.08 291.9,-121.5"/>
<text text-anchor="middle" x="290" y="-132.8" font-family="Times,serif" font-size="14.00" fill="#c000a5">wr</text>
</g>
<!-- T28442&#45;&gt;T28461 -->
<g id="edge24" class="edge">
<title>T28442:f0&#45;&gt;T28461:f0</title>
<path fill="none" stroke="#c000a5" d="M45.5,-30C45.5,-58.89 45.5,-66.11 45.5,-95 45.5,-1555 45.5,-1555 45.5,-1555 45.5,-1580.16 45.5,-1588.89 45.5,-1609.82"/>
<polygon fill="#c000a5" stroke="#c000a5" points="42,-1610 45.5,-1620 49,-1610 42,-1610"/>
<text text-anchor="middle" x="55" y="-821.3" font-family="Times,serif" font-size="14.00" fill="#c000a5">wr</text>
</g>
<!-- T28889&#45;&gt;T28915 -->
<g id="edge25" class="edge">
<title>T28889:f0&#45;&gt;T28915:f0</title>
<path fill="none" stroke="#5b00c0" d="M438.5,-972C438.5,-949.98 418.2,-947.23 412.17,-930.93"/>
<polygon fill="#5b00c0" stroke="#5b00c0" points="415.61,-930.28 410.5,-921 408.7,-931.44 415.61,-930.28"/>
<text text-anchor="middle" x="441" y="-942.8" font-family="Times,serif" font-size="14.00" fill="#5b00c0">rw</text>
</g>
<!-- T28380&#45;&gt;T28390 -->
<g id="edge26" class="edge">
<title>T28380:f2&#45;&gt;T28390:f1</title>
<path fill="none" stroke="#c000a5" d="M570.5,-405C570.5,-347.98 458.88,-406.51 444.93,-363.93"/>
<polygon fill="#c000a5" stroke="#c000a5" points="448.39,-363.4 443.5,-354 441.46,-364.4 448.39,-363.4"/>
<text text-anchor="middle" x="573" y="-375.8" font-family="Times,serif" font-size="14.00" fill="#c000a5">wr</text>
</g>
<!-- T28465&#45;&gt;T28477 -->
<g id="edge27" class="edge">
<title>T28465:f0&#45;&gt;T28477:f3</title>
<path fill="none" stroke="#5b00c0" d="M285.5,-1539C285.5,-1500.79 351.2,-1524.58 363.52,-1497.99"/>
<polygon fill="#5b00c0" stroke="#5b00c0" points="366.99,-1498.49 365.5,-1488 360.13,-1497.13 366.99,-1498.49"/>
<text text-anchor="middle" x="365" y="-1509.8" font-family="Times,serif" font-size="14.00" fill="#5b00c0">rw</text>
</g>
<!-- T28263&#45;&gt;T28356 -->
<g id="edge29" class="edge">
<title>T28263:f2&#45;&gt;T28356:f0</title>
<path fill="none" stroke="#c000a5" d="M495.5,-729C495.5,-703.66 579.82,-696.16 597.5,-678 599.1,-676.35 599.67,-674.27 599.92,-672.18"/>
<polygon fill="#c000a5" stroke="#c000a5" points="603.17,-673.51 604.5,-663 596.9,-670.38 603.17,-673.51"/>
<text text-anchor="middle" x="563" y="-699.8" font-family="Times,serif" font-size="14.00" fill="#c000a5">wr</text>
</g>
<!-- T28357 -->
<g id="node23" class="node">
<title>T28357</title>
<polygon fill="none" stroke="#0058ad" points="425,-648.5 425,-677.5 588,-677.5 588,-648.5 425,-648.5"/>
<text text-anchor="middle" x="463.5" y="-659.3" font-family="Times,serif" font-size="14.00" fill="#0058ad">r 1074 1</text>
<polyline fill="none" stroke="#0058ad" points="502,-648.5 502,-677.5 "/>
<text text-anchor="middle" x="545" y="-659.3" font-family="Times,serif" font-size="14.00" fill="#0058ad">r 1078 nil</text>
</g>
<!-- T28263&#45;&gt;T28357 -->
<g id="edge28" class="edge">
<title>T28263:f2&#45;&gt;T28357:f0</title>
<path fill="none" stroke="#c000a5" d="M495.5,-729C495.5,-706.21 472.29,-704.66 465.41,-688.17"/>
<polygon fill="#c000a5" stroke="#c000a5" points="468.78,-687.18 463.5,-678 461.9,-688.47 468.78,-687.18"/>
<text text-anchor="middle" x="497" y="-699.8" font-family="Times,serif" font-size="14.00" fill="#c000a5">wr</text>
</g>
<!-- T28390&#45;&gt;T28417 -->
<g id="edge30" class="edge">
<title>T28390:f2&#45;&gt;T28417:f0</title>
<path fill="none" stroke="#5b00c0" d="M529.5,-324C529.5,-309.21 512.65,-315.73 501.5,-306 492.95,-298.54 484.62,-289.27 477.72,-280.87"/>
<polygon fill="#5b00c0" stroke="#5b00c0" points="480.31,-278.5 471.34,-272.85 474.83,-282.86 480.31,-278.5"/>
<text text-anchor="middle" x="511" y="-294.8" font-family="Times,serif" font-size="14.00" fill="#5b00c0">rw</text>
</g>
<!-- T28390&#45;&gt;T28442 -->
<g id="edge31" class="edge">
<title>T28390:f2&#45;&gt;T28442:f1</title>
<path fill="none" stroke="#5b00c0" d="M529.5,-324C529.5,-295.03 534.5,-287.97 534.5,-259 534.5,-259 534.5,-259 534.5,-95 534.5,-84.51 525.22,-84.94 515.5,-81 506.64,-77.41 205.51,-47.25 147.95,-33.69"/>
<polygon fill="#5b00c0" stroke="#5b00c0" points="149.09,-30.38 138.5,-30 146.54,-36.9 149.09,-30.38"/>
<text text-anchor="middle" x="544" y="-173.3" font-family="Times,serif" font-size="14.00" fill="#5b00c0">rw</text>
</g>
<!-- T28491&#45;&gt;T28460 -->
<g id="edge32" class="edge">
<title>T28491:f2&#45;&gt;T28460:f2</title>
<path fill="none" stroke="#5b00c0" d="M363.5,-1296C363.5,-1292.33 322,-1265.32 304.82,-1251.99"/>
<polygon fill="#5b00c0" stroke="#5b00c0" points="307.15,-1249.38 297.5,-1245 302.31,-1254.44 307.15,-1249.38"/>
<text text-anchor="middle" x="349" y="-1266.8" font-family="Times,serif" font-size="14.00" fill="#5b00c0">rw</text>
</g>
<!-- T28491&#45;&gt;T28884 -->
<g id="edge33" class="edge">
<title>T28491:f2&#45;&gt;T28884:f1</title>
<path fill="none" stroke="#5b00c0" d="M363.5,-1296C363.5,-1240.81 369.68,-1224.67 370.43,-1174.2"/>
<polygon fill="#5b00c0" stroke="#5b00c0" points="373.93,-1174.03 370.5,-1164 366.93,-1173.97 373.93,-1174.03"/>
<text text-anchor="middle" x="377" y="-1226.3" font-family="Times,serif" font-size="14.00" fill="#5b00c0">rw</text>
</g>
<!-- T28357&#45;&gt;T28342 -->
<g id="edge35" class="edge">
<title>T28357:f1&#45;&gt;T28342:f3</title>
<path fill="none" stroke="#5b00c0" d="M589.5,-663C597.06,-663 592.04,-653.22 597.5,-648 599.46,-646.12 670.88,-614.93 695.93,-602.18"/>
<polygon fill="#5b00c0" stroke="#5b00c0" points="697.75,-605.17 704.5,-597 694.13,-599.17 697.75,-605.17"/>
<text text-anchor="middle" x="677" y="-618.8" font-family="Times,serif" font-size="14.00" fill="#5b00c0">rw</text>
</g>
<!-- T28357&#45;&gt;T28387 -->
<g id="edge36" class="edge">
<title>T28357:f1&#45;&gt;T28387:f2</title>
<path fill="none" stroke="#5b00c0" d="M545.5,-648C545.5,-626.24 371.55,-635.5 350.5,-630 315.66,-620.89 296.1,-627.21 276.5,-597 269.24,-585.82 272.07,-579.58 276.5,-567 276.96,-565.7 300.27,-538.13 311.53,-524.06"/>
<polygon fill="#5b00c0" stroke="#5b00c0" points="314.36,-526.12 317.5,-516 308.73,-521.95 314.36,-526.12"/>
<text text-anchor="middle" x="286" y="-578.3" font-family="Times,serif" font-size="14.00" fill="#5b00c0">rw</text>
</g>
<!-- T28357&#45;&gt;T28368 -->
<g id="edge37" class="edge">
<title>T28357:f1&#45;&gt;T28368:f2</title>
<path fill="none" stroke="#5b00c0" d="M589.5,-663C597.06,-663 591.27,-652.28 597.5,-648 651.02,-611.22 691.18,-669.79 742.5,-630 780.7,-600.38 768.49,-571.83 766.7,-526.04"/>
<polygon fill="#5b00c0" stroke="#5b00c0" points="770.2,-525.93 766.5,-516 763.2,-526.07 770.2,-525.93"/>
<text text-anchor="middle" x="779" y="-578.3" font-family="Times,serif" font-size="14.00" fill="#5b00c0">rw</text>
</g>
<!-- T28357&#45;&gt;T28380 -->
<g id="edge34" class="edge">
<title>T28357:f1&#45;&gt;T28380:f1</title>
<path fill="none" stroke="#5b00c0" d="M545.5,-648C545.5,-572.94 428.84,-657.56 384.5,-597 376.62,-586.24 380.47,-579.71 384.5,-567 394.37,-535.87 463.31,-481.78 475.62,-445.26"/>
<polygon fill="#5b00c0" stroke="#5b00c0" points="479.14,-445.47 477.5,-435 472.26,-444.21 479.14,-445.47"/>
<text text-anchor="middle" x="415" y="-537.8" font-family="Times,serif" font-size="14.00" fill="#5b00c0">rw</text>
</g>
</g>
</svg>
