<?xml version="1.0" encoding="UTF-8" standalone="no"?>
<!DOCTYPE svg PUBLIC "-//W3C//DTD SVG 1.1//EN"
 "http://www.w3.org/Graphics/SVG/1.1/DTD/svg11.dtd">
<!-- Generated by graphviz version 2.43.0 (0)
 -->
<!-- Title: a_graph Pages: 1 -->
<svg width="355pt" height="119pt"
 viewBox="0.00 0.00 355.00 119.00" xmlns="http://www.w3.org/2000/svg" xmlns:xlink="http://www.w3.org/1999/xlink">
<g id="graph0" class="graph" transform="scale(1 1) rotate(0) translate(4 115)">
<title>a_graph</title>
<polygon fill="white" stroke="transparent" points="-4,4 -4,-115 351,-115 351,4 -4,4"/>
<!-- T20233 -->
<g id="node1" class="node">
<title>T20233</title>
<polygon fill="none" stroke="#0058ad" points="119,-81.5 119,-110.5 347,-110.5 347,-81.5 119,-81.5"/>
<text text-anchor="middle" x="157.5" y="-92.3" font-family="Times,serif" font-size="14.00" fill="#0058ad">r 774 nil</text>
<polyline fill="none" stroke="#0058ad" points="196,-81.5 196,-110.5 "/>
<text text-anchor="middle" x="233" y="-92.3" font-family="Times,serif" font-size="14.00" fill="#0058ad">w 773 2</text>
<polyline fill="none" stroke="#0058ad" points="270,-81.5 270,-110.5 "/>
<text text-anchor="middle" x="308.5" y="-92.3" font-family="Times,serif" font-size="14.00" fill="#0058ad">r 774 nil</text>
</g>
<!-- T20229 -->
<g id="node2" class="node">
<title>T20229</title>
<polygon fill="none" stroke="#0058ad" points="0,-0.5 0,-29.5 308,-29.5 308,-0.5 0,-0.5"/>
<text text-anchor="middle" x="41.5" y="-11.3" font-family="Times,serif" font-size="14.00" fill="#0058ad">w 772 16</text>
<polyline fill="none" stroke="#0058ad" points="83,-0.5 83,-29.5 "/>
<text text-anchor="middle" x="121.5" y="-11.3" font-family="Times,serif" font-size="14.00" fill="#0058ad">r 773 nil</text>
<polyline fill="none" stroke="#0058ad" points="160,-0.5 160,-29.5 "/>
<text text-anchor="middle" x="197" y="-11.3" font-family="Times,serif" font-size="14.00" fill="#0058ad">w 774 1</text>
<polyline fill="none" stroke="#0058ad" points="234,-0.5 234,-29.5 "/>
<text text-anchor="middle" x="271" y="-11.3" font-family="Times,serif" font-size="14.00" fill="#0058ad">w 774 2</text>
</g>
<!-- T20233&#45;&gt;T20229 -->
<g id="edge1" class="edge">
<title>T20233:f0&#45;&gt;T20229:f3</title>
<path fill="none" stroke="#5b00c0" d="M157,-81C157,-62.05 167.79,-57.82 184,-48 214.21,-29.7 259.99,-61.33 269.31,-39.94"/>
<polygon fill="#5b00c0" stroke="#5b00c0" points="272.77,-40.45 271,-30 265.87,-39.27 272.77,-40.45"/>
<text text-anchor="middle" x="193.5" y="-51.8" font-family="Times,serif" font-size="14.00" fill="#5b00c0">rw</text>
</g>
<!-- T20229&#45;&gt;T20233 -->
<g id="edge2" class="edge">
<title>T20229:f1&#45;&gt;T20233:f1</title>
<path fill="none" stroke="#5b00c0" d="M121,-30C121,-67.31 170.7,-29.31 203,-48 216.67,-55.91 227.6,-59.58 231.48,-70.78"/>
<polygon fill="#5b00c0" stroke="#5b00c0" points="228.07,-71.62 233,-81 234.99,-70.59 228.07,-71.62"/>
<text text-anchor="middle" x="235.5" y="-51.8" font-family="Times,serif" font-size="14.00" fill="#5b00c0">rw</text>
</g>
</g>
</svg>
