<?xml version="1.0" encoding="UTF-8" standalone="no"?>
<!DOCTYPE svg PUBLIC "-//W3C//DTD SVG 1.1//EN"
 "http://www.w3.org/Graphics/SVG/1.1/DTD/svg11.dtd">
<!-- Generated by graphviz version 2.43.0 (0)
 -->
<!-- Title: a_graph Pages: 1 -->
<svg width="809pt" height="863pt"
 viewBox="0.00 0.00 809.00 863.00" xmlns="http://www.w3.org/2000/svg" xmlns:xlink="http://www.w3.org/1999/xlink">
<g id="graph0" class="graph" transform="scale(1 1) rotate(0) translate(4 859)">
<title>a_graph</title>
<polygon fill="white" stroke="transparent" points="-4,4 -4,-859 805,-859 805,4 -4,4"/>
<!-- T29858 -->
<g id="node1" class="node">
<title>T29858</title>
<polygon fill="none" stroke="#0058ad" points="388,-825.5 388,-854.5 732,-854.5 732,-825.5 388,-825.5"/>
<text text-anchor="middle" x="431" y="-836.3" font-family="Times,serif" font-size="14.00" fill="#0058ad">r 1134 nil</text>
<polyline fill="none" stroke="#0058ad" points="474,-825.5 474,-854.5 "/>
<text text-anchor="middle" x="517" y="-836.3" font-family="Times,serif" font-size="14.00" fill="#0058ad">r 1134 nil</text>
<polyline fill="none" stroke="#0058ad" points="560,-825.5 560,-854.5 "/>
<text text-anchor="middle" x="603" y="-836.3" font-family="Times,serif" font-size="14.00" fill="#0058ad">r 1132 nil</text>
<polyline fill="none" stroke="#0058ad" points="646,-825.5 646,-854.5 "/>
<text text-anchor="middle" x="689" y="-836.3" font-family="Times,serif" font-size="14.00" fill="#0058ad">r 1128 15</text>
</g>
<!-- T29881 -->
<g id="node5" class="node">
<title>T29881</title>
<polygon fill="none" stroke="#0058ad" points="206.5,-744.5 206.5,-773.5 559.5,-773.5 559.5,-744.5 206.5,-744.5"/>
<text text-anchor="middle" x="249.5" y="-755.3" font-family="Times,serif" font-size="14.00" fill="#0058ad">r 1134 10</text>
<polyline fill="none" stroke="#0058ad" points="292.5,-744.5 292.5,-773.5 "/>
<text text-anchor="middle" x="338.5" y="-755.3" font-family="Times,serif" font-size="14.00" fill="#0058ad">w 1134 11</text>
<polyline fill="none" stroke="#0058ad" points="384.5,-744.5 384.5,-773.5 "/>
<text text-anchor="middle" x="430.5" y="-755.3" font-family="Times,serif" font-size="14.00" fill="#0058ad">w 1134 12</text>
<polyline fill="none" stroke="#0058ad" points="476.5,-744.5 476.5,-773.5 "/>
<text text-anchor="middle" x="518" y="-755.3" font-family="Times,serif" font-size="14.00" fill="#0058ad">w 1132 7</text>
</g>
<!-- T29858&#45;&gt;T29881 -->
<g id="edge1" class="edge">
<title>T29858:f0&#45;&gt;T29881:f2</title>
<path fill="none" stroke="#5b00c0" d="M431,-825C431,-806.23 431,-799.12 431,-784.35"/>
<polygon fill="#5b00c0" stroke="#5b00c0" points="434.5,-784 431,-774 427.5,-784 434.5,-784"/>
<text text-anchor="middle" x="440.5" y="-795.8" font-family="Times,serif" font-size="14.00" fill="#5b00c0">rw</text>
</g>
<!-- T29880 -->
<g id="node7" class="node">
<title>T29880</title>
<polygon fill="none" stroke="#0058ad" points="251.5,-0.5 251.5,-29.5 586.5,-29.5 586.5,-0.5 251.5,-0.5"/>
<text text-anchor="middle" x="290" y="-11.3" font-family="Times,serif" font-size="14.00" fill="#0058ad">r 1134 4</text>
<polyline fill="none" stroke="#0058ad" points="328.5,-0.5 328.5,-29.5 "/>
<text text-anchor="middle" x="370" y="-11.3" font-family="Times,serif" font-size="14.00" fill="#0058ad">w 1134 9</text>
<polyline fill="none" stroke="#0058ad" points="411.5,-0.5 411.5,-29.5 "/>
<text text-anchor="middle" x="457.5" y="-11.3" font-family="Times,serif" font-size="14.00" fill="#0058ad">w 1134 10</text>
<polyline fill="none" stroke="#0058ad" points="503.5,-0.5 503.5,-29.5 "/>
<text text-anchor="middle" x="545" y="-11.3" font-family="Times,serif" font-size="14.00" fill="#0058ad">w 1132 6</text>
</g>
<!-- T29858&#45;&gt;T29880 -->
<g id="edge3" class="edge">
<title>T29858:f0&#45;&gt;T29880:f2</title>
<path fill="none" stroke="#5b00c0" d="M431,-825C431,-789.48 744,-795.52 744,-760 744,-760 744,-760 744,-95 744,-39.79 682.55,-61.47 629,-48 613.01,-43.98 497.19,-47.72 465.82,-36.53"/>
<polygon fill="#5b00c0" stroke="#5b00c0" points="467.92,-33.73 458,-30 463.43,-39.1 467.92,-33.73"/>
<text text-anchor="middle" x="753.5" y="-431.3" font-family="Times,serif" font-size="14.00" fill="#5b00c0">rw</text>
</g>
<!-- T29863 -->
<g id="node9" class="node">
<title>T29863</title>
<polygon fill="none" stroke="#0058ad" points="201,-243.5 201,-272.5 361,-272.5 361,-243.5 201,-243.5"/>
<text text-anchor="middle" x="242.5" y="-254.3" font-family="Times,serif" font-size="14.00" fill="#0058ad">w 1134 2</text>
<polyline fill="none" stroke="#0058ad" points="284,-243.5 284,-272.5 "/>
<text text-anchor="middle" x="322.5" y="-254.3" font-family="Times,serif" font-size="14.00" fill="#0058ad">r 1134 2</text>
</g>
<!-- T29858&#45;&gt;T29863 -->
<g id="edge4" class="edge">
<title>T29858:f0&#45;&gt;T29863:f0</title>
<path fill="none" stroke="#5b00c0" d="M387,-840C309.38,-840 47,-837.62 47,-760 47,-760 47,-760 47,-353 47,-276.4 113.82,-259.41 189.73,-258.09"/>
<polygon fill="#5b00c0" stroke="#5b00c0" points="190.03,-261.58 200,-258 189.97,-254.58 190.03,-261.58"/>
<text text-anchor="middle" x="56.5" y="-552.8" font-family="Times,serif" font-size="14.00" fill="#5b00c0">rw</text>
</g>
<!-- T29868 -->
<g id="node13" class="node">
<title>T29868</title>
<polygon fill="none" stroke="#0058ad" points="203.5,-162.5 203.5,-191.5 446.5,-191.5 446.5,-162.5 203.5,-162.5"/>
<text text-anchor="middle" x="242" y="-173.3" font-family="Times,serif" font-size="14.00" fill="#0058ad">r 1134 2</text>
<polyline fill="none" stroke="#0058ad" points="280.5,-162.5 280.5,-191.5 "/>
<text text-anchor="middle" x="322" y="-173.3" font-family="Times,serif" font-size="14.00" fill="#0058ad">w 1134 4</text>
<polyline fill="none" stroke="#0058ad" points="363.5,-162.5 363.5,-191.5 "/>
<text text-anchor="middle" x="405" y="-173.3" font-family="Times,serif" font-size="14.00" fill="#0058ad">w 1132 5</text>
</g>
<!-- T29858&#45;&gt;T29868 -->
<g id="edge2" class="edge">
<title>T29858:f0&#45;&gt;T29868:f1</title>
<path fill="none" stroke="#5b00c0" d="M387,-840C315.29,-840 133.1,-832.3 66,-807 32.31,-794.29 0,-796.01 0,-760 0,-760 0,-760 0,-257 0,-252.91 258.79,-207.58 312.36,-194.95"/>
<polygon fill="#5b00c0" stroke="#5b00c0" points="313.46,-198.28 322,-192 311.41,-191.58 313.46,-198.28"/>
<text text-anchor="middle" x="9.5" y="-512.3" font-family="Times,serif" font-size="14.00" fill="#5b00c0">rw</text>
</g>
<!-- T29873 -->
<g id="node2" class="node">
<title>T29873</title>
<polygon fill="none" stroke="#0058ad" points="301,-81.5 301,-110.5 455,-110.5 455,-81.5 301,-81.5"/>
<text text-anchor="middle" x="339.5" y="-92.3" font-family="Times,serif" font-size="14.00" fill="#0058ad">r 1134 4</text>
<polyline fill="none" stroke="#0058ad" points="378,-81.5 378,-110.5 "/>
<text text-anchor="middle" x="416.5" y="-92.3" font-family="Times,serif" font-size="14.00" fill="#0058ad">r 1132 5</text>
</g>
<!-- T29873&#45;&gt;T29880 -->
<g id="edge5" class="edge">
<title>T29873:f0&#45;&gt;T29880:f2</title>
<path fill="none" stroke="#5b00c0" d="M339,-81C339,-55.71 430.92,-57.7 453.19,-39.02"/>
<polygon fill="#5b00c0" stroke="#5b00c0" points="456.38,-40.47 458,-30 450.21,-37.18 456.38,-40.47"/>
<text text-anchor="middle" x="441.5" y="-51.8" font-family="Times,serif" font-size="14.00" fill="#5b00c0">rw</text>
</g>
<!-- T29847 -->
<g id="node3" class="node">
<title>T29847</title>
<polygon fill="none" stroke="#0058ad" points="113,-420.5 113,-449.5 297,-449.5 297,-420.5 113,-420.5"/>
<text text-anchor="middle" x="159" y="-431.3" font-family="Times,serif" font-size="14.00" fill="#0058ad">w 1133 13</text>
<polyline fill="none" stroke="#0058ad" points="205,-420.5 205,-449.5 "/>
<text text-anchor="middle" x="251" y="-431.3" font-family="Times,serif" font-size="14.00" fill="#0058ad">w 1133 14</text>
</g>
<!-- T29853 -->
<g id="node4" class="node">
<title>T29853</title>
<polygon fill="none" stroke="#0058ad" points="138,-339.5 138,-368.5 488,-368.5 488,-339.5 138,-339.5"/>
<text text-anchor="middle" x="181" y="-350.3" font-family="Times,serif" font-size="14.00" fill="#0058ad">r 1133 14</text>
<polyline fill="none" stroke="#0058ad" points="224,-339.5 224,-368.5 "/>
<text text-anchor="middle" x="270" y="-350.3" font-family="Times,serif" font-size="14.00" fill="#0058ad">w 1133 16</text>
<polyline fill="none" stroke="#0058ad" points="316,-339.5 316,-368.5 "/>
<text text-anchor="middle" x="359" y="-350.3" font-family="Times,serif" font-size="14.00" fill="#0058ad">r 1133 16</text>
<polyline fill="none" stroke="#0058ad" points="402,-339.5 402,-368.5 "/>
<text text-anchor="middle" x="445" y="-350.3" font-family="Times,serif" font-size="14.00" fill="#0058ad">r 1134 nil</text>
</g>
<!-- T29847&#45;&gt;T29853 -->
<g id="edge6" class="edge">
<title>T29847:f1&#45;&gt;T29853:f0</title>
<path fill="none" stroke="#c000a5" d="M251,-420C251,-385.42 194.5,-402.88 183.02,-378.87"/>
<polygon fill="#c000a5" stroke="#c000a5" points="186.43,-378.1 181,-369 179.58,-379.5 186.43,-378.1"/>
<text text-anchor="middle" x="249.5" y="-390.8" font-family="Times,serif" font-size="14.00" fill="#c000a5">wr</text>
</g>
<!-- T29853&#45;&gt;T29881 -->
<g id="edge7" class="edge">
<title>T29853:f3&#45;&gt;T29881:f2</title>
<path fill="none" stroke="#5b00c0" d="M445,-369C445,-399.23 410.69,-391.72 400,-420 395.28,-432.47 392.52,-438.96 400,-450 412.08,-467.84 429.42,-453.12 445,-468 475.17,-496.81 479,-513.78 479,-555.5 479,-679 479,-679 479,-679 479,-704.52 461.52,-705.73 446,-726 442.54,-730.52 438.38,-732.37 435.32,-734.81"/>
<polygon fill="#5b00c0" stroke="#5b00c0" points="432.08,-733.46 431,-744 438.42,-736.44 432.08,-733.46"/>
<text text-anchor="middle" x="488.5" y="-552.8" font-family="Times,serif" font-size="14.00" fill="#5b00c0">rw</text>
</g>
<!-- T29853&#45;&gt;T29880 -->
<g id="edge9" class="edge">
<title>T29853:f3&#45;&gt;T29880:f2</title>
<path fill="none" stroke="#5b00c0" d="M489,-354C510.15,-354 483,-280.15 483,-259 483,-259 483,-259 483,-95 483,-67.8 463.69,-62.11 459.01,-40.12"/>
<polygon fill="#5b00c0" stroke="#5b00c0" points="462.48,-39.6 458,-30 455.51,-40.3 462.48,-39.6"/>
<text text-anchor="middle" x="492.5" y="-173.3" font-family="Times,serif" font-size="14.00" fill="#5b00c0">rw</text>
</g>
<!-- T29853&#45;&gt;T29863 -->
<g id="edge10" class="edge">
<title>T29853:f3&#45;&gt;T29863:f0</title>
<path fill="none" stroke="#5b00c0" d="M445,-339C445,-310.73 410.95,-329.53 384,-321 323.96,-302 250.54,-335.56 242.69,-283.01"/>
<polygon fill="#5b00c0" stroke="#5b00c0" points="246.18,-282.74 242,-273 239.19,-283.22 246.18,-282.74"/>
<text text-anchor="middle" x="393.5" y="-302.3" font-family="Times,serif" font-size="14.00" fill="#5b00c0">rw</text>
</g>
<!-- T29853&#45;&gt;T29868 -->
<g id="edge8" class="edge">
<title>T29853:f3&#45;&gt;T29868:f1</title>
<path fill="none" stroke="#5b00c0" d="M445,-339C445,-284.86 405.26,-284.09 370,-243 352.26,-222.33 328.82,-222.62 323.23,-202.16"/>
<polygon fill="#5b00c0" stroke="#5b00c0" points="326.68,-201.51 322,-192 319.73,-202.35 326.68,-201.51"/>
<text text-anchor="middle" x="411.5" y="-254.3" font-family="Times,serif" font-size="14.00" fill="#5b00c0">rw</text>
</g>
<!-- T29889 -->
<g id="node8" class="node">
<title>T29889</title>
<polygon fill="none" stroke="#0058ad" points="279,-663.5 279,-692.5 451,-692.5 451,-663.5 279,-663.5"/>
<text text-anchor="middle" x="322" y="-674.3" font-family="Times,serif" font-size="14.00" fill="#0058ad">r 1134 12</text>
<polyline fill="none" stroke="#0058ad" points="365,-663.5 365,-692.5 "/>
<text text-anchor="middle" x="408" y="-674.3" font-family="Times,serif" font-size="14.00" fill="#0058ad">r 1125 nil</text>
</g>
<!-- T29881&#45;&gt;T29889 -->
<g id="edge11" class="edge">
<title>T29881:f2&#45;&gt;T29889:f0</title>
<path fill="none" stroke="#c000a5" d="M431,-744C431,-694.48 337.58,-738.78 323.71,-703.19"/>
<polygon fill="#c000a5" stroke="#c000a5" points="327.11,-702.28 322,-693 320.21,-703.44 327.11,-702.28"/>
<text text-anchor="middle" x="432.5" y="-714.8" font-family="Times,serif" font-size="14.00" fill="#c000a5">wr</text>
</g>
<!-- T29815 -->
<g id="node6" class="node">
<title>T29815</title>
<polygon fill="none" stroke="#0058ad" points="113,-501.5 113,-530.5 451,-530.5 451,-501.5 113,-501.5"/>
<text text-anchor="middle" x="159" y="-512.3" font-family="Times,serif" font-size="14.00" fill="#0058ad">w 1131 16</text>
<polyline fill="none" stroke="#0058ad" points="205,-501.5 205,-530.5 "/>
<text text-anchor="middle" x="243.5" y="-512.3" font-family="Times,serif" font-size="14.00" fill="#0058ad">r 1125 3</text>
<polyline fill="none" stroke="#0058ad" points="282,-501.5 282,-530.5 "/>
<text text-anchor="middle" x="325" y="-512.3" font-family="Times,serif" font-size="14.00" fill="#0058ad">r 1133 nil</text>
<polyline fill="none" stroke="#0058ad" points="368,-501.5 368,-530.5 "/>
<text text-anchor="middle" x="409.5" y="-512.3" font-family="Times,serif" font-size="14.00" fill="#0058ad">w 1133 1</text>
</g>
<!-- T29815&#45;&gt;T29847 -->
<g id="edge14" class="edge">
<title>T29815:f2&#45;&gt;T29847:f1</title>
<path fill="none" stroke="#5b00c0" d="M325,-501C325,-497 277.55,-469.9 258.64,-456.7"/>
<polygon fill="#5b00c0" stroke="#5b00c0" points="260.83,-453.96 251,-450 256.21,-459.23 260.83,-453.96"/>
<text text-anchor="middle" x="307.5" y="-471.8" font-family="Times,serif" font-size="14.00" fill="#5b00c0">rw</text>
</g>
<!-- T29815&#45;&gt;T29853 -->
<g id="edge12" class="edge">
<title>T29815:f2&#45;&gt;T29853:f1</title>
<path fill="none" stroke="#5b00c0" d="M325,-501C325,-464.02 321.74,-453.46 306,-420 295.85,-398.42 276.56,-396.76 271.33,-379.11"/>
<polygon fill="#5b00c0" stroke="#5b00c0" points="274.78,-378.46 270,-369 267.84,-379.37 274.78,-378.46"/>
<text text-anchor="middle" x="327.5" y="-431.3" font-family="Times,serif" font-size="14.00" fill="#5b00c0">rw</text>
</g>
<!-- T29823 -->
<g id="node11" class="node">
<title>T29823</title>
<polygon fill="none" stroke="#0058ad" points="408.5,-420.5 408.5,-449.5 669.5,-449.5 669.5,-420.5 408.5,-420.5"/>
<text text-anchor="middle" x="451.5" y="-431.3" font-family="Times,serif" font-size="14.00" fill="#0058ad">r 1128 11</text>
<polyline fill="none" stroke="#0058ad" points="494.5,-420.5 494.5,-449.5 "/>
<text text-anchor="middle" x="540.5" y="-431.3" font-family="Times,serif" font-size="14.00" fill="#0058ad">w 1128 15</text>
<polyline fill="none" stroke="#0058ad" points="586.5,-420.5 586.5,-449.5 "/>
<text text-anchor="middle" x="628" y="-431.3" font-family="Times,serif" font-size="14.00" fill="#0058ad">w 1133 3</text>
</g>
<!-- T29815&#45;&gt;T29823 -->
<g id="edge13" class="edge">
<title>T29815:f2&#45;&gt;T29823:f2</title>
<path fill="none" stroke="#5b00c0" d="M325,-501C325,-469.86 577.08,-481.5 621.39,-457.88"/>
<polygon fill="#5b00c0" stroke="#5b00c0" points="624.25,-459.91 628,-450 618.89,-455.41 624.25,-459.91"/>
<text text-anchor="middle" x="586.5" y="-471.8" font-family="Times,serif" font-size="14.00" fill="#5b00c0">rw</text>
</g>
<!-- T29880&#45;&gt;T29881 -->
<g id="edge15" class="edge">
<title>T29880:f2&#45;&gt;T29881:f0</title>
<path fill="none" stroke="#c000a5" d="M458,-30C458,-50.32 296.03,-44.56 276,-48 189.84,-62.78 85,-7.58 85,-95 85,-679 85,-679 85,-679 85,-739.72 135.16,-757.19 194.93,-758.86"/>
<polygon fill="#c000a5" stroke="#c000a5" points="194.95,-762.36 205,-759 195.05,-755.36 194.95,-762.36"/>
<text text-anchor="middle" x="94.5" y="-390.8" font-family="Times,serif" font-size="14.00" fill="#c000a5">wr</text>
</g>
<!-- T29735 -->
<g id="node12" class="node">
<title>T29735</title>
<polygon fill="none" stroke="#0058ad" points="113,-582.5 113,-611.5 451,-611.5 451,-582.5 113,-582.5"/>
<text text-anchor="middle" x="159" y="-593.3" font-family="Times,serif" font-size="14.00" fill="#0058ad">w 1129 15</text>
<polyline fill="none" stroke="#0058ad" points="205,-582.5 205,-611.5 "/>
<text text-anchor="middle" x="248" y="-593.3" font-family="Times,serif" font-size="14.00" fill="#0058ad">r 1129 15</text>
<polyline fill="none" stroke="#0058ad" points="291,-582.5 291,-611.5 "/>
<text text-anchor="middle" x="329.5" y="-593.3" font-family="Times,serif" font-size="14.00" fill="#0058ad">r 1113 3</text>
<polyline fill="none" stroke="#0058ad" points="368,-582.5 368,-611.5 "/>
<text text-anchor="middle" x="409.5" y="-593.3" font-family="Times,serif" font-size="14.00" fill="#0058ad">w 1125 3</text>
</g>
<!-- T29889&#45;&gt;T29735 -->
<g id="edge16" class="edge">
<title>T29889:f1&#45;&gt;T29735:f3</title>
<path fill="none" stroke="#5b00c0" d="M408,-663C408,-644.21 409.37,-637.12 409.84,-622.36"/>
<polygon fill="#5b00c0" stroke="#5b00c0" points="413.35,-622.05 410,-612 406.35,-621.95 413.35,-622.05"/>
<text text-anchor="middle" x="418.5" y="-633.8" font-family="Times,serif" font-size="14.00" fill="#5b00c0">rw</text>
</g>
<!-- T29863&#45;&gt;T29868 -->
<g id="edge17" class="edge">
<title>T29863:f0&#45;&gt;T29868:f0</title>
<path fill="none" stroke="#c000a5" d="M242,-243C242,-224.23 242,-217.12 242,-202.35"/>
<polygon fill="#c000a5" stroke="#c000a5" points="245.5,-202 242,-192 238.5,-202 245.5,-202"/>
<text text-anchor="middle" x="251.5" y="-213.8" font-family="Times,serif" font-size="14.00" fill="#c000a5">wr</text>
</g>
<!-- T29861 -->
<g id="node10" class="node">
<title>T29861</title>
<polygon fill="none" stroke="#0058ad" points="498,-291.5 498,-320.5 670,-320.5 670,-291.5 498,-291.5"/>
<text text-anchor="middle" x="541" y="-302.3" font-family="Times,serif" font-size="14.00" fill="#0058ad">r 1128 15</text>
<polyline fill="none" stroke="#0058ad" points="584,-291.5 584,-320.5 "/>
<text text-anchor="middle" x="627" y="-302.3" font-family="Times,serif" font-size="14.00" fill="#0058ad">r 1132 nil</text>
</g>
<!-- T29861&#45;&gt;T29881 -->
<g id="edge18" class="edge">
<title>T29861:f1&#45;&gt;T29881:f3</title>
<path fill="none" stroke="#5b00c0" d="M671,-306C711.7,-306 698,-352.8 698,-393.5 698,-679 698,-679 698,-679 698,-746.07 637.84,-757.93 571.29,-758.93"/>
<polygon fill="#5b00c0" stroke="#5b00c0" points="570.97,-755.43 561,-759 571.02,-762.43 570.97,-755.43"/>
<text text-anchor="middle" x="707.5" y="-552.8" font-family="Times,serif" font-size="14.00" fill="#5b00c0">rw</text>
</g>
<!-- T29861&#45;&gt;T29880 -->
<g id="edge20" class="edge">
<title>T29861:f1&#45;&gt;T29880:f3</title>
<path fill="none" stroke="#5b00c0" d="M627,-291C627,-258.26 614,-251.24 614,-218.5 614,-218.5 614,-218.5 614,-95 614,-61.41 623.19,-23.6 597.94,-16.27"/>
<polygon fill="#5b00c0" stroke="#5b00c0" points="598.36,-12.79 588,-15 597.48,-19.74 598.36,-12.79"/>
<text text-anchor="middle" x="623.5" y="-173.3" font-family="Times,serif" font-size="14.00" fill="#5b00c0">rw</text>
</g>
<!-- T29861&#45;&gt;T29868 -->
<g id="edge19" class="edge">
<title>T29861:f1&#45;&gt;T29868:f2</title>
<path fill="none" stroke="#5b00c0" d="M627,-291C627,-269.05 600.44,-283.2 581,-273 524.03,-243.09 509.15,-234.68 461,-192 458.11,-189.44 456.95,-186.25 455.82,-183.47"/>
<polygon fill="#5b00c0" stroke="#5b00c0" points="457.94,-180.68 448,-177 453.47,-186.07 457.94,-180.68"/>
<text text-anchor="middle" x="590.5" y="-254.3" font-family="Times,serif" font-size="14.00" fill="#5b00c0">rw</text>
</g>
<!-- T29823&#45;&gt;T29858 -->
<g id="edge22" class="edge">
<title>T29823:f1&#45;&gt;T29858:f3</title>
<path fill="none" stroke="#c000a5" d="M541,-450C541,-560.94 782,-404.06 782,-515 782,-760 782,-760 782,-760 782,-760.73 758.6,-816.66 741.73,-834.56"/>
<polygon fill="#c000a5" stroke="#c000a5" points="739.63,-831.74 733,-840 743.34,-837.68 739.63,-831.74"/>
<text text-anchor="middle" x="791.5" y="-633.8" font-family="Times,serif" font-size="14.00" fill="#c000a5">wr</text>
</g>
<!-- T29823&#45;&gt;T29861 -->
<g id="edge21" class="edge">
<title>T29823:f1&#45;&gt;T29861:f0</title>
<path fill="none" stroke="#c000a5" d="M541,-420C541,-379.61 541,-367.03 541,-331.2"/>
<polygon fill="#c000a5" stroke="#c000a5" points="544.5,-331 541,-321 537.5,-331 544.5,-331"/>
<text text-anchor="middle" x="550.5" y="-390.8" font-family="Times,serif" font-size="14.00" fill="#c000a5">wr</text>
</g>
<!-- T29735&#45;&gt;T29815 -->
<g id="edge23" class="edge">
<title>T29735:f3&#45;&gt;T29815:f1</title>
<path fill="none" stroke="#c000a5" d="M410,-582C410,-508.18 258.91,-598.86 244.16,-541.11"/>
<polygon fill="#c000a5" stroke="#c000a5" points="247.61,-540.54 243,-531 240.66,-541.33 247.61,-540.54"/>
<text text-anchor="middle" x="414.5" y="-552.8" font-family="Times,serif" font-size="14.00" fill="#c000a5">wr</text>
</g>
<!-- T29868&#45;&gt;T29873 -->
<g id="edge25" class="edge">
<title>T29868:f1&#45;&gt;T29873:f0</title>
<path fill="none" stroke="#c000a5" d="M322,-162C322,-142.03 333.88,-136.5 337.78,-121.27"/>
<polygon fill="#c000a5" stroke="#c000a5" points="341.29,-121.34 339,-111 334.34,-120.52 341.29,-121.34"/>
<text text-anchor="middle" x="343.5" y="-132.8" font-family="Times,serif" font-size="14.00" fill="#c000a5">wr</text>
</g>
<!-- T29868&#45;&gt;T29880 -->
<g id="edge24" class="edge">
<title>T29868:f1&#45;&gt;T29880:f0</title>
<path fill="none" stroke="#c000a5" d="M322,-162C322,-130.57 284.74,-140.16 273,-111 260.61,-80.21 284.42,-68.98 289.19,-40.06"/>
<polygon fill="#c000a5" stroke="#c000a5" points="292.69,-40.25 290,-30 285.71,-39.69 292.69,-40.25"/>
<text text-anchor="middle" x="282.5" y="-92.3" font-family="Times,serif" font-size="14.00" fill="#c000a5">wr</text>
</g>
</g>
</svg>
