<?xml version="1.0" encoding="UTF-8" standalone="no"?>
<!DOCTYPE svg PUBLIC "-//W3C//DTD SVG 1.1//EN"
 "http://www.w3.org/Graphics/SVG/1.1/DTD/svg11.dtd">
<!-- Generated by graphviz version 2.43.0 (0)
 -->
<!-- Title: a_graph Pages: 1 -->
<svg width="301pt" height="119pt"
 viewBox="0.00 0.00 301.00 119.00" xmlns="http://www.w3.org/2000/svg" xmlns:xlink="http://www.w3.org/1999/xlink">
<g id="graph0" class="graph" transform="scale(1 1) rotate(0) translate(4 115)">
<title>a_graph</title>
<polygon fill="white" stroke="transparent" points="-4,4 -4,-115 297,-115 297,4 -4,4"/>
<!-- T11495 -->
<g id="node1" class="node">
<title>T11495</title>
<polygon fill="none" stroke="#0058ad" points="0,-81.5 0,-110.5 293,-110.5 293,-81.5 0,-81.5"/>
<text text-anchor="middle" x="38.5" y="-92.3" font-family="Times,serif" font-size="14.00" fill="#0058ad">r 441 nil</text>
<polyline fill="none" stroke="#0058ad" points="77,-81.5 77,-110.5 "/>
<text text-anchor="middle" x="111" y="-92.3" font-family="Times,serif" font-size="14.00" fill="#0058ad">r 436 7</text>
<polyline fill="none" stroke="#0058ad" points="145,-81.5 145,-110.5 "/>
<text text-anchor="middle" x="182" y="-92.3" font-family="Times,serif" font-size="14.00" fill="#0058ad">w 436 9</text>
<polyline fill="none" stroke="#0058ad" points="219,-81.5 219,-110.5 "/>
<text text-anchor="middle" x="256" y="-92.3" font-family="Times,serif" font-size="14.00" fill="#0058ad">w 441 1</text>
</g>
<!-- T11504 -->
<g id="node2" class="node">
<title>T11504</title>
<polygon fill="none" stroke="#0058ad" points="27.5,-0.5 27.5,-29.5 261.5,-29.5 261.5,-0.5 27.5,-0.5"/>
<text text-anchor="middle" x="66" y="-11.3" font-family="Times,serif" font-size="14.00" fill="#0058ad">r 441 nil</text>
<polyline fill="none" stroke="#0058ad" points="104.5,-0.5 104.5,-29.5 "/>
<text text-anchor="middle" x="141.5" y="-11.3" font-family="Times,serif" font-size="14.00" fill="#0058ad">w 441 2</text>
<polyline fill="none" stroke="#0058ad" points="178.5,-0.5 178.5,-29.5 "/>
<text text-anchor="middle" x="220" y="-11.3" font-family="Times,serif" font-size="14.00" fill="#0058ad">w 436 10</text>
</g>
<!-- T11495&#45;&gt;T11504 -->
<g id="edge1" class="edge">
<title>T11495:f0&#45;&gt;T11504:f1</title>
<path fill="none" stroke="#5b00c0" d="M38.5,-81C38.5,-33.91 126.03,-73.71 139.71,-40.2"/>
<polygon fill="#5b00c0" stroke="#5b00c0" points="143.22,-40.45 141.5,-30 136.33,-39.25 143.22,-40.45"/>
<text text-anchor="middle" x="143" y="-51.8" font-family="Times,serif" font-size="14.00" fill="#5b00c0">rw</text>
</g>
<!-- T11504&#45;&gt;T11495 -->
<g id="edge2" class="edge">
<title>T11504:f0&#45;&gt;T11495:f3</title>
<path fill="none" stroke="#5b00c0" d="M65.5,-30C65.5,-50.61 136.56,-42.76 156.5,-48 198.05,-58.92 247.58,-38.16 255.43,-70.89"/>
<polygon fill="#5b00c0" stroke="#5b00c0" points="251.97,-71.42 256.5,-81 258.93,-70.69 251.97,-71.42"/>
<text text-anchor="middle" x="261" y="-51.8" font-family="Times,serif" font-size="14.00" fill="#5b00c0">rw</text>
</g>
</g>
</svg>
