<?xml version="1.0" encoding="UTF-8" standalone="no"?>
<!DOCTYPE svg PUBLIC "-//W3C//DTD SVG 1.1//EN"
 "http://www.w3.org/Graphics/SVG/1.1/DTD/svg11.dtd">
<!-- Generated by graphviz version 2.43.0 (0)
 -->
<!-- Title: a_graph Pages: 1 -->
<svg width="340pt" height="119pt"
 viewBox="0.00 0.00 340.00 119.00" xmlns="http://www.w3.org/2000/svg" xmlns:xlink="http://www.w3.org/1999/xlink">
<g id="graph0" class="graph" transform="scale(1 1) rotate(0) translate(4 115)">
<title>a_graph</title>
<polygon fill="white" stroke="transparent" points="-4,4 -4,-115 336,-115 336,4 -4,4"/>
<!-- T26450 -->
<g id="node1" class="node">
<title>T26450</title>
<polygon fill="none" stroke="#0058ad" points="0,-81.5 0,-110.5 332,-110.5 332,-81.5 0,-81.5"/>
<text text-anchor="middle" x="43" y="-92.3" font-family="Times,serif" font-size="14.00" fill="#0058ad">r 1003 16</text>
<polyline fill="none" stroke="#0058ad" points="86,-81.5 86,-110.5 "/>
<text text-anchor="middle" x="129" y="-92.3" font-family="Times,serif" font-size="14.00" fill="#0058ad">r 1005 nil</text>
<polyline fill="none" stroke="#0058ad" points="172,-81.5 172,-110.5 "/>
<text text-anchor="middle" x="213.5" y="-92.3" font-family="Times,serif" font-size="14.00" fill="#0058ad">w 1005 1</text>
<polyline fill="none" stroke="#0058ad" points="255,-81.5 255,-110.5 "/>
<text text-anchor="middle" x="293.5" y="-92.3" font-family="Times,serif" font-size="14.00" fill="#0058ad">r 1005 1</text>
</g>
<!-- T26459 -->
<g id="node2" class="node">
<title>T26459</title>
<polygon fill="none" stroke="#0058ad" points="44,-0.5 44,-29.5 296,-29.5 296,-0.5 44,-0.5"/>
<text text-anchor="middle" x="87" y="-11.3" font-family="Times,serif" font-size="14.00" fill="#0058ad">r 1005 nil</text>
<polyline fill="none" stroke="#0058ad" points="130,-0.5 130,-29.5 "/>
<text text-anchor="middle" x="171.5" y="-11.3" font-family="Times,serif" font-size="14.00" fill="#0058ad">w 1006 1</text>
<polyline fill="none" stroke="#0058ad" points="213,-0.5 213,-29.5 "/>
<text text-anchor="middle" x="254.5" y="-11.3" font-family="Times,serif" font-size="14.00" fill="#0058ad">w 1005 2</text>
</g>
<!-- T26450&#45;&gt;T26459 -->
<g id="edge1" class="edge">
<title>T26450:f1&#45;&gt;T26459:f2</title>
<path fill="none" stroke="#5b00c0" d="M129,-81C129,-60.26 143.68,-57.73 162,-48 177.39,-39.82 231.07,-47.28 249.07,-38.13"/>
<polygon fill="#5b00c0" stroke="#5b00c0" points="251.93,-40.14 255,-30 246.28,-36.02 251.93,-40.14"/>
<text text-anchor="middle" x="171.5" y="-51.8" font-family="Times,serif" font-size="14.00" fill="#5b00c0">rw</text>
</g>
<!-- T26459&#45;&gt;T26450 -->
<g id="edge2" class="edge">
<title>T26459:f0&#45;&gt;T26450:f2</title>
<path fill="none" stroke="#5b00c0" d="M87,-30C87,-51.27 162.21,-38.04 181,-48 195.89,-55.89 208.37,-59.05 212.53,-71.08"/>
<polygon fill="#5b00c0" stroke="#5b00c0" points="209.07,-71.62 214,-81 215.99,-70.59 209.07,-71.62"/>
<text text-anchor="middle" x="217.5" y="-51.8" font-family="Times,serif" font-size="14.00" fill="#5b00c0">rw</text>
</g>
</g>
</svg>
