<?xml version="1.0" encoding="UTF-8" standalone="no"?>
<!DOCTYPE svg PUBLIC "-//W3C//DTD SVG 1.1//EN"
 "http://www.w3.org/Graphics/SVG/1.1/DTD/svg11.dtd">
<!-- Generated by graphviz version 2.43.0 (0)
 -->
<!-- Title: a_graph Pages: 1 -->
<svg width="332pt" height="119pt"
 viewBox="0.00 0.00 332.00 119.00" xmlns="http://www.w3.org/2000/svg" xmlns:xlink="http://www.w3.org/1999/xlink">
<g id="graph0" class="graph" transform="scale(1 1) rotate(0) translate(4 115)">
<title>a_graph</title>
<polygon fill="white" stroke="transparent" points="-4,4 -4,-115 328,-115 328,4 -4,4"/>
<!-- T18383 -->
<g id="node1" class="node">
<title>T18383</title>
<polygon fill="none" stroke="#0058ad" points="37,-81.5 37,-110.5 324,-110.5 324,-81.5 37,-81.5"/>
<text text-anchor="middle" x="75.5" y="-92.3" font-family="Times,serif" font-size="14.00" fill="#0058ad">r 706 nil</text>
<polyline fill="none" stroke="#0058ad" points="114,-81.5 114,-110.5 "/>
<text text-anchor="middle" x="151" y="-92.3" font-family="Times,serif" font-size="14.00" fill="#0058ad">w 706 1</text>
<polyline fill="none" stroke="#0058ad" points="188,-81.5 188,-110.5 "/>
<text text-anchor="middle" x="222" y="-92.3" font-family="Times,serif" font-size="14.00" fill="#0058ad">r 706 1</text>
<polyline fill="none" stroke="#0058ad" points="256,-81.5 256,-110.5 "/>
<text text-anchor="middle" x="290" y="-92.3" font-family="Times,serif" font-size="14.00" fill="#0058ad">r 706 1</text>
</g>
<!-- T18393 -->
<g id="node2" class="node">
<title>T18393</title>
<polygon fill="none" stroke="#0058ad" points="0,-0.5 0,-29.5 293,-29.5 293,-0.5 0,-0.5"/>
<text text-anchor="middle" x="38.5" y="-11.3" font-family="Times,serif" font-size="14.00" fill="#0058ad">r 706 nil</text>
<polyline fill="none" stroke="#0058ad" points="77,-0.5 77,-29.5 "/>
<text text-anchor="middle" x="114" y="-11.3" font-family="Times,serif" font-size="14.00" fill="#0058ad">w 706 5</text>
<polyline fill="none" stroke="#0058ad" points="151,-0.5 151,-29.5 "/>
<text text-anchor="middle" x="188" y="-11.3" font-family="Times,serif" font-size="14.00" fill="#0058ad">w 706 6</text>
<polyline fill="none" stroke="#0058ad" points="225,-0.5 225,-29.5 "/>
<text text-anchor="middle" x="259" y="-11.3" font-family="Times,serif" font-size="14.00" fill="#0058ad">r 706 6</text>
</g>
<!-- T18383&#45;&gt;T18393 -->
<g id="edge1" class="edge">
<title>T18383:f0&#45;&gt;T18393:f2</title>
<path fill="none" stroke="#5b00c0" d="M75.5,-81C75.5,-62.33 85.62,-57.82 101.5,-48 131.54,-29.43 177.45,-61.27 186.8,-39.94"/>
<polygon fill="#5b00c0" stroke="#5b00c0" points="190.27,-40.45 188.5,-30 183.37,-39.27 190.27,-40.45"/>
<text text-anchor="middle" x="111" y="-51.8" font-family="Times,serif" font-size="14.00" fill="#5b00c0">rw</text>
</g>
<!-- T18393&#45;&gt;T18383 -->
<g id="edge2" class="edge">
<title>T18393:f0&#45;&gt;T18383:f1</title>
<path fill="none" stroke="#5b00c0" d="M38.5,-30C38.5,-67.31 88.2,-29.31 120.5,-48 134.17,-55.91 145.1,-59.58 148.98,-70.78"/>
<polygon fill="#5b00c0" stroke="#5b00c0" points="145.57,-71.62 150.5,-81 152.49,-70.59 145.57,-71.62"/>
<text text-anchor="middle" x="154" y="-51.8" font-family="Times,serif" font-size="14.00" fill="#5b00c0">rw</text>
</g>
</g>
</svg>
