<?xml version="1.0" encoding="UTF-8" standalone="no"?>
<!DOCTYPE svg PUBLIC "-//W3C//DTD SVG 1.1//EN"
 "http://www.w3.org/Graphics/SVG/1.1/DTD/svg11.dtd">
<!-- Generated by graphviz version 2.43.0 (0)
 -->
<!-- Title: a_graph Pages: 1 -->
<svg width="331pt" height="200pt"
 viewBox="0.00 0.00 331.00 200.00" xmlns="http://www.w3.org/2000/svg" xmlns:xlink="http://www.w3.org/1999/xlink">
<g id="graph0" class="graph" transform="scale(1 1) rotate(0) translate(4 196)">
<title>a_graph</title>
<polygon fill="white" stroke="transparent" points="-4,4 -4,-196 327,-196 327,4 -4,4"/>
<!-- T25519 -->
<g id="node1" class="node">
<title>T25519</title>
<polygon fill="none" stroke="#0058ad" points="36,-162.5 36,-191.5 264,-191.5 264,-162.5 36,-162.5"/>
<text text-anchor="middle" x="74.5" y="-173.3" font-family="Times,serif" font-size="14.00" fill="#0058ad">r 967 nil</text>
<polyline fill="none" stroke="#0058ad" points="113,-162.5 113,-191.5 "/>
<text text-anchor="middle" x="151.5" y="-173.3" font-family="Times,serif" font-size="14.00" fill="#0058ad">r 967 nil</text>
<polyline fill="none" stroke="#0058ad" points="190,-162.5 190,-191.5 "/>
<text text-anchor="middle" x="227" y="-173.3" font-family="Times,serif" font-size="14.00" fill="#0058ad">w 967 5</text>
</g>
<!-- T25523 -->
<g id="node2" class="node">
<title>T25523</title>
<polygon fill="none" stroke="#0058ad" points="0,-81.5 0,-110.5 228,-110.5 228,-81.5 0,-81.5"/>
<text text-anchor="middle" x="37" y="-92.3" font-family="Times,serif" font-size="14.00" fill="#0058ad">w 967 6</text>
<polyline fill="none" stroke="#0058ad" points="74,-81.5 74,-110.5 "/>
<text text-anchor="middle" x="112.5" y="-92.3" font-family="Times,serif" font-size="14.00" fill="#0058ad">r 968 nil</text>
<polyline fill="none" stroke="#0058ad" points="151,-81.5 151,-110.5 "/>
<text text-anchor="middle" x="189.5" y="-92.3" font-family="Times,serif" font-size="14.00" fill="#0058ad">r 968 nil</text>
</g>
<!-- T25519&#45;&gt;T25523 -->
<g id="edge1" class="edge">
<title>T25519:f0&#45;&gt;T25523:f0</title>
<path fill="none" stroke="#5b00c0" d="M74,-162C74,-137.93 46.67,-138.25 38.99,-121.04"/>
<polygon fill="#5b00c0" stroke="#5b00c0" points="42.38,-120.13 37,-111 35.51,-121.49 42.38,-120.13"/>
<text text-anchor="middle" x="75.5" y="-132.8" font-family="Times,serif" font-size="14.00" fill="#5b00c0">rw</text>
</g>
<!-- T25515 -->
<g id="node3" class="node">
<title>T25515</title>
<polygon fill="none" stroke="#0058ad" points="75.5,-0.5 75.5,-29.5 226.5,-29.5 226.5,-0.5 75.5,-0.5"/>
<text text-anchor="middle" x="112.5" y="-11.3" font-family="Times,serif" font-size="14.00" fill="#0058ad">w 968 2</text>
<polyline fill="none" stroke="#0058ad" points="149.5,-0.5 149.5,-29.5 "/>
<text text-anchor="middle" x="188" y="-11.3" font-family="Times,serif" font-size="14.00" fill="#0058ad">r 967 nil</text>
</g>
<!-- T25523&#45;&gt;T25515 -->
<g id="edge2" class="edge">
<title>T25523:f1&#45;&gt;T25515:f0</title>
<path fill="none" stroke="#5b00c0" d="M112,-81C112,-62.23 112,-55.12 112,-40.35"/>
<polygon fill="#5b00c0" stroke="#5b00c0" points="115.5,-40 112,-30 108.5,-40 115.5,-40"/>
<text text-anchor="middle" x="121.5" y="-51.8" font-family="Times,serif" font-size="14.00" fill="#5b00c0">rw</text>
</g>
<!-- T25515&#45;&gt;T25519 -->
<g id="edge3" class="edge">
<title>T25515:f1&#45;&gt;T25519:f2</title>
<path fill="none" stroke="#5b00c0" d="M228,-15C298.25,-15 335.15,-161.57 275.03,-175.88"/>
<polygon fill="#5b00c0" stroke="#5b00c0" points="274.55,-172.41 265,-177 275.33,-179.37 274.55,-172.41"/>
<text text-anchor="middle" x="313.5" y="-92.3" font-family="Times,serif" font-size="14.00" fill="#5b00c0">rw</text>
</g>
<!-- T25515&#45;&gt;T25523 -->
<g id="edge4" class="edge">
<title>T25515:f1&#45;&gt;T25523:f0</title>
<path fill="none" stroke="#5b00c0" d="M188,-30C188,-52.36 109.83,-39.86 89,-48 67.29,-56.49 44.85,-54.6 38.66,-70.76"/>
<polygon fill="#5b00c0" stroke="#5b00c0" points="35.15,-70.57 37,-81 42.06,-71.69 35.15,-70.57"/>
<text text-anchor="middle" x="98.5" y="-51.8" font-family="Times,serif" font-size="14.00" fill="#5b00c0">rw</text>
</g>
</g>
</svg>
