<?xml version="1.0" encoding="UTF-8" standalone="no"?>
<!DOCTYPE svg PUBLIC "-//W3C//DTD SVG 1.1//EN"
 "http://www.w3.org/Graphics/SVG/1.1/DTD/svg11.dtd">
<!-- Generated by graphviz version 2.43.0 (0)
 -->
<!-- Title: a_graph Pages: 1 -->
<svg width="301pt" height="119pt"
 viewBox="0.00 0.00 301.00 119.00" xmlns="http://www.w3.org/2000/svg" xmlns:xlink="http://www.w3.org/1999/xlink">
<g id="graph0" class="graph" transform="scale(1 1) rotate(0) translate(4 115)">
<title>a_graph</title>
<polygon fill="white" stroke="transparent" points="-4,4 -4,-115 297,-115 297,4 -4,4"/>
<!-- T24761 -->
<g id="node1" class="node">
<title>T24761</title>
<polygon fill="none" stroke="#0058ad" points="0,-81.5 0,-110.5 293,-110.5 293,-81.5 0,-81.5"/>
<text text-anchor="middle" x="38.5" y="-92.3" font-family="Times,serif" font-size="14.00" fill="#0058ad">r 941 nil</text>
<polyline fill="none" stroke="#0058ad" points="77,-81.5 77,-110.5 "/>
<text text-anchor="middle" x="114" y="-92.3" font-family="Times,serif" font-size="14.00" fill="#0058ad">w 941 2</text>
<polyline fill="none" stroke="#0058ad" points="151,-81.5 151,-110.5 "/>
<text text-anchor="middle" x="188" y="-92.3" font-family="Times,serif" font-size="14.00" fill="#0058ad">w 941 3</text>
<polyline fill="none" stroke="#0058ad" points="225,-81.5 225,-110.5 "/>
<text text-anchor="middle" x="259" y="-92.3" font-family="Times,serif" font-size="14.00" fill="#0058ad">r 937 2</text>
</g>
<!-- T24760 -->
<g id="node2" class="node">
<title>T24760</title>
<polygon fill="none" stroke="#0058ad" points="3,-0.5 3,-29.5 222,-29.5 222,-0.5 3,-0.5"/>
<text text-anchor="middle" x="41.5" y="-11.3" font-family="Times,serif" font-size="14.00" fill="#0058ad">r 941 nil</text>
<polyline fill="none" stroke="#0058ad" points="80,-0.5 80,-29.5 "/>
<text text-anchor="middle" x="114" y="-11.3" font-family="Times,serif" font-size="14.00" fill="#0058ad">r 940 2</text>
<polyline fill="none" stroke="#0058ad" points="148,-0.5 148,-29.5 "/>
<text text-anchor="middle" x="185" y="-11.3" font-family="Times,serif" font-size="14.00" fill="#0058ad">w 941 1</text>
</g>
<!-- T24761&#45;&gt;T24760 -->
<g id="edge1" class="edge">
<title>T24761:f0&#45;&gt;T24760:f2</title>
<path fill="none" stroke="#5b00c0" d="M38.5,-81C38.5,-41.72 83.29,-60.6 120.5,-48 144.9,-39.74 175.37,-54.52 183.45,-39.82"/>
<polygon fill="#5b00c0" stroke="#5b00c0" points="186.88,-40.5 185.5,-30 180.03,-39.07 186.88,-40.5"/>
<text text-anchor="middle" x="130" y="-51.8" font-family="Times,serif" font-size="14.00" fill="#5b00c0">rw</text>
</g>
<!-- T24760&#45;&gt;T24761 -->
<g id="edge2" class="edge">
<title>T24760:f0&#45;&gt;T24761:f2</title>
<path fill="none" stroke="#5b00c0" d="M41.5,-30C41.5,-52.14 119,-39.64 139.5,-48 160.2,-56.44 181.18,-55.4 186.95,-71.11"/>
<polygon fill="#5b00c0" stroke="#5b00c0" points="183.49,-71.66 188.5,-81 190.41,-70.58 183.49,-71.66"/>
<text text-anchor="middle" x="191" y="-51.8" font-family="Times,serif" font-size="14.00" fill="#5b00c0">rw</text>
</g>
</g>
</svg>
