<?xml version="1.0" encoding="UTF-8" standalone="no"?>
<!DOCTYPE svg PUBLIC "-//W3C//DTD SVG 1.1//EN"
 "http://www.w3.org/Graphics/SVG/1.1/DTD/svg11.dtd">
<!-- Generated by graphviz version 2.43.0 (0)
 -->
<!-- Title: a_graph Pages: 1 -->
<svg width="315pt" height="119pt"
 viewBox="0.00 0.00 315.00 119.00" xmlns="http://www.w3.org/2000/svg" xmlns:xlink="http://www.w3.org/1999/xlink">
<g id="graph0" class="graph" transform="scale(1 1) rotate(0) translate(4 115)">
<title>a_graph</title>
<polygon fill="white" stroke="transparent" points="-4,4 -4,-115 311,-115 311,4 -4,4"/>
<!-- T12960 -->
<g id="node1" class="node">
<title>T12960</title>
<polygon fill="none" stroke="#0058ad" points="0,-81.5 0,-110.5 228,-110.5 228,-81.5 0,-81.5"/>
<text text-anchor="middle" x="38.5" y="-92.3" font-family="Times,serif" font-size="14.00" fill="#0058ad">r 488 12</text>
<polyline fill="none" stroke="#0058ad" points="77,-81.5 77,-110.5 "/>
<text text-anchor="middle" x="115.5" y="-92.3" font-family="Times,serif" font-size="14.00" fill="#0058ad">r 499 nil</text>
<polyline fill="none" stroke="#0058ad" points="154,-81.5 154,-110.5 "/>
<text text-anchor="middle" x="191" y="-92.3" font-family="Times,serif" font-size="14.00" fill="#0058ad">w 499 4</text>
</g>
<!-- T12931 -->
<g id="node2" class="node">
<title>T12931</title>
<polygon fill="none" stroke="#0058ad" points="5,-0.5 5,-29.5 307,-29.5 307,-0.5 5,-0.5"/>
<text text-anchor="middle" x="43.5" y="-11.3" font-family="Times,serif" font-size="14.00" fill="#0058ad">r 499 nil</text>
<polyline fill="none" stroke="#0058ad" points="82,-0.5 82,-29.5 "/>
<text text-anchor="middle" x="120.5" y="-11.3" font-family="Times,serif" font-size="14.00" fill="#0058ad">r 499 nil</text>
<polyline fill="none" stroke="#0058ad" points="159,-0.5 159,-29.5 "/>
<text text-anchor="middle" x="196" y="-11.3" font-family="Times,serif" font-size="14.00" fill="#0058ad">w 499 1</text>
<polyline fill="none" stroke="#0058ad" points="233,-0.5 233,-29.5 "/>
<text text-anchor="middle" x="270" y="-11.3" font-family="Times,serif" font-size="14.00" fill="#0058ad">w 499 2</text>
</g>
<!-- T12960&#45;&gt;T12931 -->
<g id="edge1" class="edge">
<title>T12960:f1&#45;&gt;T12931:f3</title>
<path fill="none" stroke="#5b00c0" d="M116,-81C116,-62.6 125.13,-57.31 141,-48 162.65,-35.3 243.76,-52.86 264.92,-38.87"/>
<polygon fill="#5b00c0" stroke="#5b00c0" points="268.07,-40.42 270,-30 261.99,-36.94 268.07,-40.42"/>
<text text-anchor="middle" x="150.5" y="-51.8" font-family="Times,serif" font-size="14.00" fill="#5b00c0">rw</text>
</g>
<!-- T12931&#45;&gt;T12960 -->
<g id="edge2" class="edge">
<title>T12931:f0&#45;&gt;T12960:f2</title>
<path fill="none" stroke="#5b00c0" d="M43,-30C43,-56.31 136.72,-35.74 160,-48 174.33,-55.54 185.67,-59.29 189.55,-70.94"/>
<polygon fill="#5b00c0" stroke="#5b00c0" points="186.11,-71.6 191,-81 193.04,-70.6 186.11,-71.6"/>
<text text-anchor="middle" x="194.5" y="-51.8" font-family="Times,serif" font-size="14.00" fill="#5b00c0">rw</text>
</g>
</g>
</svg>
