<?xml version="1.0" encoding="UTF-8" standalone="no"?>
<!DOCTYPE svg PUBLIC "-//W3C//DTD SVG 1.1//EN"
 "http://www.w3.org/Graphics/SVG/1.1/DTD/svg11.dtd">
<!-- Generated by graphviz version 2.43.0 (0)
 -->
<!-- Title: a_graph Pages: 1 -->
<svg width="744pt" height="782pt"
 viewBox="0.00 0.00 743.50 782.00" xmlns="http://www.w3.org/2000/svg" xmlns:xlink="http://www.w3.org/1999/xlink">
<g id="graph0" class="graph" transform="scale(1 1) rotate(0) translate(4 778)">
<title>a_graph</title>
<polygon fill="white" stroke="transparent" points="-4,4 -4,-778 739.5,-778 739.5,4 -4,4"/>
<!-- T1711 -->
<g id="node1" class="node">
<title>T1711</title>
<polygon fill="none" stroke="#0058ad" points="353,-744.5 353,-773.5 548,-773.5 548,-744.5 353,-744.5"/>
<text text-anchor="middle" x="387" y="-755.3" font-family="Times,serif" font-size="14.00" fill="#0058ad">r 71 nil</text>
<polyline fill="none" stroke="#0058ad" points="421,-744.5 421,-773.5 "/>
<text text-anchor="middle" x="455" y="-755.3" font-family="Times,serif" font-size="14.00" fill="#0058ad">r 71 nil</text>
<polyline fill="none" stroke="#0058ad" points="489,-744.5 489,-773.5 "/>
<text text-anchor="middle" x="518.5" y="-755.3" font-family="Times,serif" font-size="14.00" fill="#0058ad">r 65 2</text>
</g>
<!-- T1734 -->
<g id="node6" class="node">
<title>T1734</title>
<polygon fill="none" stroke="#0058ad" points="345.5,-663.5 345.5,-692.5 611.5,-692.5 611.5,-663.5 345.5,-663.5"/>
<text text-anchor="middle" x="379.5" y="-674.3" font-family="Times,serif" font-size="14.00" fill="#0058ad">r 65 nil</text>
<polyline fill="none" stroke="#0058ad" points="413.5,-663.5 413.5,-692.5 "/>
<text text-anchor="middle" x="443" y="-674.3" font-family="Times,serif" font-size="14.00" fill="#0058ad">r 71 7</text>
<polyline fill="none" stroke="#0058ad" points="472.5,-663.5 472.5,-692.5 "/>
<text text-anchor="middle" x="505" y="-674.3" font-family="Times,serif" font-size="14.00" fill="#0058ad">w 71 8</text>
<polyline fill="none" stroke="#0058ad" points="537.5,-663.5 537.5,-692.5 "/>
<text text-anchor="middle" x="574.5" y="-674.3" font-family="Times,serif" font-size="14.00" fill="#0058ad">w 68 10</text>
</g>
<!-- T1711&#45;&gt;T1734 -->
<g id="edge1" class="edge">
<title>T1711:f0&#45;&gt;T1734:f2</title>
<path fill="none" stroke="#5b00c0" d="M351.5,-759C344.82,-759 348.42,-749.29 352.5,-744 394.01,-690.27 494.17,-756.89 504.61,-703.14"/>
<polygon fill="#5b00c0" stroke="#5b00c0" points="508.12,-703.27 505.5,-693 501.14,-702.66 508.12,-703.27"/>
<text text-anchor="middle" x="511" y="-714.8" font-family="Times,serif" font-size="14.00" fill="#5b00c0">rw</text>
</g>
<!-- T1724 -->
<g id="node7" class="node">
<title>T1724</title>
<polygon fill="none" stroke="#0058ad" points="338,-162.5 338,-191.5 527,-191.5 527,-162.5 338,-162.5"/>
<text text-anchor="middle" x="370.5" y="-173.3" font-family="Times,serif" font-size="14.00" fill="#0058ad">w 71 3</text>
<polyline fill="none" stroke="#0058ad" points="403,-162.5 403,-191.5 "/>
<text text-anchor="middle" x="432.5" y="-173.3" font-family="Times,serif" font-size="14.00" fill="#0058ad">r 71 3</text>
<polyline fill="none" stroke="#0058ad" points="462,-162.5 462,-191.5 "/>
<text text-anchor="middle" x="494.5" y="-173.3" font-family="Times,serif" font-size="14.00" fill="#0058ad">w 4 13</text>
</g>
<!-- T1711&#45;&gt;T1724 -->
<g id="edge2" class="edge">
<title>T1711:f0&#45;&gt;T1724:f0</title>
<path fill="none" stroke="#5b00c0" d="M386.5,-744C386.5,-728.21 512.07,-729.36 527.5,-726 596.18,-711.05 678.5,-749.29 678.5,-679 678.5,-679 678.5,-679 678.5,-386 678.5,-277.86 608.9,-254.84 510.5,-210 485.41,-198.57 396.28,-217.56 375.06,-201.03"/>
<polygon fill="#5b00c0" stroke="#5b00c0" points="378.13,-199.35 370.5,-192 371.88,-202.5 378.13,-199.35"/>
<text text-anchor="middle" x="688" y="-471.8" font-family="Times,serif" font-size="14.00" fill="#5b00c0">rw</text>
</g>
<!-- T1730 -->
<g id="node11" class="node">
<title>T1730</title>
<polygon fill="none" stroke="#0058ad" points="314,-0.5 314,-29.5 497,-29.5 497,-0.5 314,-0.5"/>
<text text-anchor="middle" x="343.5" y="-11.3" font-family="Times,serif" font-size="14.00" fill="#0058ad">r 71 3</text>
<polyline fill="none" stroke="#0058ad" points="373,-0.5 373,-29.5 "/>
<text text-anchor="middle" x="402.5" y="-11.3" font-family="Times,serif" font-size="14.00" fill="#0058ad">r 71 3</text>
<polyline fill="none" stroke="#0058ad" points="432,-0.5 432,-29.5 "/>
<text text-anchor="middle" x="464.5" y="-11.3" font-family="Times,serif" font-size="14.00" fill="#0058ad">w 71 7</text>
</g>
<!-- T1711&#45;&gt;T1730 -->
<g id="edge3" class="edge">
<title>T1711:f0&#45;&gt;T1730:f2</title>
<path fill="none" stroke="#5b00c0" d="M386.5,-744C386.5,-718.81 588,-731.87 612.5,-726 661.82,-714.17 716.5,-729.72 716.5,-679 716.5,-679 716.5,-679 716.5,-95 716.5,-46.42 569.03,-18.41 508.7,-15.29"/>
<polygon fill="#5b00c0" stroke="#5b00c0" points="508.6,-11.79 498.5,-15 508.4,-18.78 508.6,-11.79"/>
<text text-anchor="middle" x="726" y="-383.3" font-family="Times,serif" font-size="14.00" fill="#5b00c0">rw</text>
</g>
<!-- T1716 -->
<g id="node2" class="node">
<title>T1716</title>
<polygon fill="none" stroke="#0058ad" points="99,-372.5 99,-401.5 356,-401.5 356,-372.5 99,-372.5"/>
<text text-anchor="middle" x="131.5" y="-383.3" font-family="Times,serif" font-size="14.00" fill="#0058ad">w 68 7</text>
<polyline fill="none" stroke="#0058ad" points="164,-372.5 164,-401.5 "/>
<text text-anchor="middle" x="198" y="-383.3" font-family="Times,serif" font-size="14.00" fill="#0058ad">r 71 nil</text>
<polyline fill="none" stroke="#0058ad" points="232,-372.5 232,-401.5 "/>
<text text-anchor="middle" x="264.5" y="-383.3" font-family="Times,serif" font-size="14.00" fill="#0058ad">w 68 8</text>
<polyline fill="none" stroke="#0058ad" points="297,-372.5 297,-401.5 "/>
<text text-anchor="middle" x="326.5" y="-383.3" font-family="Times,serif" font-size="14.00" fill="#0058ad">r 68 8</text>
</g>
<!-- T1716&#45;&gt;T1734 -->
<g id="edge4" class="edge">
<title>T1716:f1&#45;&gt;T1734:f2</title>
<path fill="none" stroke="#5b00c0" d="M197.5,-402C197.5,-465.05 204.77,-494.96 256.5,-531 287.85,-552.84 391.08,-537.44 427.5,-549 456.14,-558.09 468.42,-558 486.5,-582 506.58,-608.65 505.89,-623.05 505.57,-652.78"/>
<polygon fill="#5b00c0" stroke="#5b00c0" points="502.06,-652.98 505.5,-663 509.06,-653.02 502.06,-652.98"/>
<text text-anchor="middle" x="478" y="-552.8" font-family="Times,serif" font-size="14.00" fill="#5b00c0">rw</text>
</g>
<!-- T1716&#45;&gt;T1724 -->
<g id="edge5" class="edge">
<title>T1716:f1&#45;&gt;T1724:f0</title>
<path fill="none" stroke="#5b00c0" d="M197.5,-372C197.5,-350.87 225.8,-368.14 241.5,-354 305.11,-296.7 251.98,-186.52 326.25,-177.58"/>
<polygon fill="#5b00c0" stroke="#5b00c0" points="326.71,-181.06 336.5,-177 326.32,-174.07 326.71,-181.06"/>
<text text-anchor="middle" x="284" y="-294.8" font-family="Times,serif" font-size="14.00" fill="#5b00c0">rw</text>
</g>
<!-- T1716&#45;&gt;T1730 -->
<g id="edge6" class="edge">
<title>T1716:f1&#45;&gt;T1730:f2</title>
<path fill="none" stroke="#5b00c0" d="M197.5,-372C197.5,-337.13 227.5,-334.37 227.5,-299.5 227.5,-299.5 227.5,-299.5 227.5,-176 227.5,-162.11 418.8,-67.81 457.66,-37.59"/>
<polygon fill="#5b00c0" stroke="#5b00c0" points="460.4,-39.77 464.5,-30 455.2,-35.08 460.4,-39.77"/>
<text text-anchor="middle" x="237" y="-213.8" font-family="Times,serif" font-size="14.00" fill="#5b00c0">rw</text>
</g>
<!-- T1691 -->
<g id="node3" class="node">
<title>T1691</title>
<polygon fill="none" stroke="#0058ad" points="0,-501.5 0,-530.5 207,-530.5 207,-501.5 0,-501.5"/>
<text text-anchor="middle" x="34" y="-512.3" font-family="Times,serif" font-size="14.00" fill="#0058ad">r 70 10</text>
<polyline fill="none" stroke="#0058ad" points="68,-501.5 68,-530.5 "/>
<text text-anchor="middle" x="105" y="-512.3" font-family="Times,serif" font-size="14.00" fill="#0058ad">w 70 11</text>
<polyline fill="none" stroke="#0058ad" points="142,-501.5 142,-530.5 "/>
<text text-anchor="middle" x="174.5" y="-512.3" font-family="Times,serif" font-size="14.00" fill="#0058ad">w 65 2</text>
</g>
<!-- T1691&#45;&gt;T1711 -->
<g id="edge7" class="edge">
<title>T1691:f2&#45;&gt;T1711:f2</title>
<path fill="none" stroke="#c000a5" d="M174.5,-531C174.5,-539.43 169.98,-540.7 168.5,-549 163.6,-576.57 163.78,-584.24 167.5,-612 169.52,-627.07 165.89,-634.12 176.5,-645 228.33,-698.15 265.2,-672.32 336.5,-693 413.71,-715.4 509.83,-664.7 517.95,-733.93"/>
<polygon fill="#c000a5" stroke="#c000a5" points="514.46,-734.21 518.5,-744 521.45,-733.82 514.46,-734.21"/>
<text text-anchor="middle" x="186" y="-633.8" font-family="Times,serif" font-size="14.00" fill="#c000a5">wr</text>
</g>
<!-- T1601 -->
<g id="node4" class="node">
<title>T1601</title>
<polygon fill="none" stroke="#0058ad" points="211.5,-582.5 211.5,-611.5 477.5,-611.5 477.5,-582.5 211.5,-582.5"/>
<text text-anchor="middle" x="245.5" y="-593.3" font-family="Times,serif" font-size="14.00" fill="#0058ad">r 65 nil</text>
<polyline fill="none" stroke="#0058ad" points="279.5,-582.5 279.5,-611.5 "/>
<text text-anchor="middle" x="309" y="-593.3" font-family="Times,serif" font-size="14.00" fill="#0058ad">r 64 8</text>
<polyline fill="none" stroke="#0058ad" points="338.5,-582.5 338.5,-611.5 "/>
<text text-anchor="middle" x="371" y="-593.3" font-family="Times,serif" font-size="14.00" fill="#0058ad">w 65 1</text>
<polyline fill="none" stroke="#0058ad" points="403.5,-582.5 403.5,-611.5 "/>
<text text-anchor="middle" x="440.5" y="-593.3" font-family="Times,serif" font-size="14.00" fill="#0058ad">w 66 11</text>
</g>
<!-- T1601&#45;&gt;T1691 -->
<g id="edge9" class="edge">
<title>T1601:f0&#45;&gt;T1691:f2</title>
<path fill="none" stroke="#5b00c0" d="M245.5,-582C245.5,-575.37 227.7,-538.11 216.06,-522.69"/>
<polygon fill="#5b00c0" stroke="#5b00c0" points="218.31,-520 208.5,-516 213.67,-525.25 218.31,-520"/>
<text text-anchor="middle" x="248" y="-552.8" font-family="Times,serif" font-size="14.00" fill="#5b00c0">rw</text>
</g>
<!-- T1639 -->
<g id="node8" class="node">
<title>T1639</title>
<polygon fill="none" stroke="#0058ad" points="266,-501.5 266,-530.5 511,-530.5 511,-501.5 266,-501.5"/>
<text text-anchor="middle" x="295.5" y="-512.3" font-family="Times,serif" font-size="14.00" fill="#0058ad">r 67 1</text>
<polyline fill="none" stroke="#0058ad" points="325,-501.5 325,-530.5 "/>
<text text-anchor="middle" x="354.5" y="-512.3" font-family="Times,serif" font-size="14.00" fill="#0058ad">r 67 1</text>
<polyline fill="none" stroke="#0058ad" points="384,-501.5 384,-530.5 "/>
<text text-anchor="middle" x="413.5" y="-512.3" font-family="Times,serif" font-size="14.00" fill="#0058ad">r 65 1</text>
<polyline fill="none" stroke="#0058ad" points="443,-501.5 443,-530.5 "/>
<text text-anchor="middle" x="477" y="-512.3" font-family="Times,serif" font-size="14.00" fill="#0058ad">r 68 nil</text>
</g>
<!-- T1601&#45;&gt;T1639 -->
<g id="edge8" class="edge">
<title>T1601:f2&#45;&gt;T1639:f2</title>
<path fill="none" stroke="#c000a5" d="M371.5,-582C371.5,-556.54 403.08,-558.97 411.47,-540.91"/>
<polygon fill="#c000a5" stroke="#c000a5" points="414.93,-541.5 413.5,-531 408.07,-540.1 414.93,-541.5"/>
<text text-anchor="middle" x="414" y="-552.8" font-family="Times,serif" font-size="14.00" fill="#c000a5">wr</text>
</g>
<!-- T1703 -->
<g id="node5" class="node">
<title>T1703</title>
<polygon fill="none" stroke="#0058ad" points="235,-420.5 235,-449.5 510,-449.5 510,-420.5 235,-420.5"/>
<text text-anchor="middle" x="269" y="-431.3" font-family="Times,serif" font-size="14.00" fill="#0058ad">r 70 14</text>
<polyline fill="none" stroke="#0058ad" points="303,-420.5 303,-449.5 "/>
<text text-anchor="middle" x="340" y="-431.3" font-family="Times,serif" font-size="14.00" fill="#0058ad">w 70 16</text>
<polyline fill="none" stroke="#0058ad" points="377,-420.5 377,-449.5 "/>
<text text-anchor="middle" x="411" y="-431.3" font-family="Times,serif" font-size="14.00" fill="#0058ad">r 69 nil</text>
<polyline fill="none" stroke="#0058ad" points="445,-420.5 445,-449.5 "/>
<text text-anchor="middle" x="477.5" y="-431.3" font-family="Times,serif" font-size="14.00" fill="#0058ad">w 68 5</text>
</g>
<!-- T1702 -->
<g id="node9" class="node">
<title>T1702</title>
<polygon fill="none" stroke="#0058ad" points="294,-324.5 294,-353.5 557,-353.5 557,-324.5 294,-324.5"/>
<text text-anchor="middle" x="326.5" y="-335.3" font-family="Times,serif" font-size="14.00" fill="#0058ad">w 69 1</text>
<polyline fill="none" stroke="#0058ad" points="359,-324.5 359,-353.5 "/>
<text text-anchor="middle" x="391.5" y="-335.3" font-family="Times,serif" font-size="14.00" fill="#0058ad">w 68 4</text>
<polyline fill="none" stroke="#0058ad" points="424,-324.5 424,-353.5 "/>
<text text-anchor="middle" x="453.5" y="-335.3" font-family="Times,serif" font-size="14.00" fill="#0058ad">r 68 4</text>
<polyline fill="none" stroke="#0058ad" points="483,-324.5 483,-353.5 "/>
<text text-anchor="middle" x="520" y="-335.3" font-family="Times,serif" font-size="14.00" fill="#0058ad">w 70 15</text>
</g>
<!-- T1703&#45;&gt;T1702 -->
<g id="edge10" class="edge">
<title>T1703:f2&#45;&gt;T1702:f0</title>
<path fill="none" stroke="#5b00c0" d="M411.5,-420C411.5,-390.14 388.81,-389.33 364.5,-372 353.32,-364.04 338.07,-368.14 330.75,-363.48"/>
<polygon fill="#5b00c0" stroke="#5b00c0" points="333.79,-361.69 326.5,-354 327.4,-364.56 333.79,-361.69"/>
<text text-anchor="middle" x="417" y="-383.3" font-family="Times,serif" font-size="14.00" fill="#5b00c0">rw</text>
</g>
<!-- T1734&#45;&gt;T1691 -->
<g id="edge11" class="edge">
<title>T1734:f0&#45;&gt;T1691:f2</title>
<path fill="none" stroke="#5b00c0" d="M344.5,-678C267.17,-678 230.07,-673.74 183.5,-612 163.82,-585.91 172.33,-570.44 174.18,-541.06"/>
<polygon fill="#5b00c0" stroke="#5b00c0" points="177.68,-541.11 174.5,-531 170.68,-540.88 177.68,-541.11"/>
<text text-anchor="middle" x="193" y="-593.3" font-family="Times,serif" font-size="14.00" fill="#5b00c0">rw</text>
</g>
<!-- T1734&#45;&gt;T1601 -->
<g id="edge12" class="edge">
<title>T1734:f0&#45;&gt;T1601:f2</title>
<path fill="none" stroke="#5b00c0" d="M379.5,-663C379.5,-643.82 373.91,-637.1 372.08,-622.01"/>
<polygon fill="#5b00c0" stroke="#5b00c0" points="375.57,-621.78 371.5,-612 368.58,-622.18 375.57,-621.78"/>
<text text-anchor="middle" x="387" y="-633.8" font-family="Times,serif" font-size="14.00" fill="#5b00c0">rw</text>
</g>
<!-- T1727 -->
<g id="node10" class="node">
<title>T1727</title>
<polygon fill="none" stroke="#0058ad" points="400,-81.5 400,-110.5 459,-110.5 459,-81.5 400,-81.5"/>
<text text-anchor="middle" x="429.5" y="-92.3" font-family="Times,serif" font-size="14.00" fill="#0058ad">r 71 3</text>
</g>
<!-- T1724&#45;&gt;T1727 -->
<g id="edge13" class="edge">
<title>T1724:f0&#45;&gt;T1727:f0</title>
<path fill="none" stroke="#c000a5" d="M370.5,-162C370.5,-143.76 383.19,-128.24 396.79,-116.85"/>
<polygon fill="#c000a5" stroke="#c000a5" points="399.06,-119.52 404.82,-110.62 394.77,-113.98 399.06,-119.52"/>
<text text-anchor="middle" x="393" y="-132.8" font-family="Times,serif" font-size="14.00" fill="#c000a5">wr</text>
</g>
<!-- T1724&#45;&gt;T1730 -->
<g id="edge14" class="edge">
<title>T1724:f0&#45;&gt;T1730:f0</title>
<path fill="none" stroke="#c000a5" d="M336.5,-177C267.27,-177 242.17,-30.43 302.52,-16.12"/>
<polygon fill="#c000a5" stroke="#c000a5" points="302.95,-19.59 312.5,-15 302.17,-12.64 302.95,-19.59"/>
<text text-anchor="middle" x="283" y="-92.3" font-family="Times,serif" font-size="14.00" fill="#c000a5">wr</text>
</g>
<!-- T1639&#45;&gt;T1716 -->
<g id="edge18" class="edge">
<title>T1639:f3&#45;&gt;T1716:f2</title>
<path fill="none" stroke="#5b00c0" d="M477.5,-501C477.5,-472.43 243.59,-472.11 225.5,-450 217.06,-439.68 218.31,-431.23 225.5,-420 233.14,-408.07 250.92,-414.45 259.58,-410.73"/>
<polygon fill="#5b00c0" stroke="#5b00c0" points="262.64,-412.43 264.5,-402 256.54,-408.99 262.64,-412.43"/>
<text text-anchor="middle" x="445" y="-471.8" font-family="Times,serif" font-size="14.00" fill="#5b00c0">rw</text>
</g>
<!-- T1639&#45;&gt;T1703 -->
<g id="edge15" class="edge">
<title>T1639:f3&#45;&gt;T1703:f3</title>
<path fill="none" stroke="#5b00c0" d="M477.5,-501C477.5,-482.23 477.5,-475.12 477.5,-460.35"/>
<polygon fill="#5b00c0" stroke="#5b00c0" points="481,-460 477.5,-450 474,-460 481,-460"/>
<text text-anchor="middle" x="487" y="-471.8" font-family="Times,serif" font-size="14.00" fill="#5b00c0">rw</text>
</g>
<!-- T1639&#45;&gt;T1734 -->
<g id="edge17" class="edge">
<title>T1639:f3&#45;&gt;T1734:f3</title>
<path fill="none" stroke="#5b00c0" d="M512.5,-516C579.94,-516 575.18,-584.84 574.55,-652.59"/>
<polygon fill="#5b00c0" stroke="#5b00c0" points="571.05,-652.98 574.5,-663 578.05,-653.02 571.05,-652.98"/>
<text text-anchor="middle" x="585" y="-593.3" font-family="Times,serif" font-size="14.00" fill="#5b00c0">rw</text>
</g>
<!-- T1639&#45;&gt;T1702 -->
<g id="edge16" class="edge">
<title>T1639:f3&#45;&gt;T1702:f1</title>
<path fill="none" stroke="#5b00c0" d="M512.5,-516C555.25,-516 540.32,-456.76 518.5,-420 495.76,-381.69 470.3,-392.01 430.5,-372 417.71,-365.57 402.17,-369.4 395.2,-363.66"/>
<polygon fill="#5b00c0" stroke="#5b00c0" points="398.34,-362.09 391.5,-354 391.8,-364.59 398.34,-362.09"/>
<text text-anchor="middle" x="543" y="-431.3" font-family="Times,serif" font-size="14.00" fill="#5b00c0">rw</text>
</g>
<!-- T1708 -->
<g id="node12" class="node">
<title>T1708</title>
<polygon fill="none" stroke="#0058ad" points="326,-243.5 326,-272.5 527,-272.5 527,-243.5 326,-243.5"/>
<text text-anchor="middle" x="355.5" y="-254.3" font-family="Times,serif" font-size="14.00" fill="#0058ad">r 68 4</text>
<polyline fill="none" stroke="#0058ad" points="385,-243.5 385,-272.5 "/>
<text text-anchor="middle" x="422" y="-254.3" font-family="Times,serif" font-size="14.00" fill="#0058ad">w 58 12</text>
<polyline fill="none" stroke="#0058ad" points="459,-243.5 459,-272.5 "/>
<text text-anchor="middle" x="493" y="-254.3" font-family="Times,serif" font-size="14.00" fill="#0058ad">r 71 nil</text>
</g>
<!-- T1702&#45;&gt;T1708 -->
<g id="edge19" class="edge">
<title>T1702:f1&#45;&gt;T1708:f0</title>
<path fill="none" stroke="#c000a5" d="M391.5,-324C391.5,-300.16 364.91,-300.12 357.44,-282.97"/>
<polygon fill="#c000a5" stroke="#c000a5" points="360.84,-282.15 355.5,-273 353.97,-283.48 360.84,-282.15"/>
<text text-anchor="middle" x="394" y="-294.8" font-family="Times,serif" font-size="14.00" fill="#c000a5">wr</text>
</g>
<!-- T1727&#45;&gt;T1730 -->
<g id="edge20" class="edge">
<title>T1727:f0&#45;&gt;T1730:f2</title>
<path fill="none" stroke="#5b00c0" d="M442.53,-81.43C450.77,-70.95 460.43,-55.9 463.51,-39.99"/>
<polygon fill="#5b00c0" stroke="#5b00c0" points="466.99,-40.3 464.5,-30 460.03,-39.6 466.99,-40.3"/>
<text text-anchor="middle" x="471" y="-51.8" font-family="Times,serif" font-size="14.00" fill="#5b00c0">rw</text>
</g>
<!-- T1730&#45;&gt;T1734 -->
<g id="edge21" class="edge">
<title>T1730:f2&#45;&gt;T1734:f1</title>
<path fill="none" stroke="#c000a5" d="M498.5,-15C553.7,-15 593.5,-39.8 593.5,-95 593.5,-517 593.5,-517 593.5,-517 593.5,-549.75 546.77,-625.45 520.5,-645 495.52,-663.58 454.54,-636.19 444.68,-652.88"/>
<polygon fill="#c000a5" stroke="#c000a5" points="441.19,-652.49 442.5,-663 448.03,-653.96 441.19,-652.49"/>
<text text-anchor="middle" x="603" y="-335.3" font-family="Times,serif" font-size="14.00" fill="#c000a5">wr</text>
</g>
<!-- T1708&#45;&gt;T1734 -->
<g id="edge24" class="edge">
<title>T1708:f2&#45;&gt;T1734:f2</title>
<path fill="none" stroke="#5b00c0" d="M528.5,-258C537.32,-258 534.91,-267.14 541.5,-273 571.62,-299.79 597.64,-288.37 616.5,-324 666.43,-418.34 619.65,-457.95 607.5,-564 605.03,-585.56 609.96,-593.57 598.5,-612 585.59,-632.76 575.98,-633.33 554.5,-645 538.26,-653.83 516.79,-645.28 508.73,-653.19"/>
<polygon fill="#5b00c0" stroke="#5b00c0" points="505.31,-652.41 505.5,-663 511.95,-654.6 505.31,-652.41"/>
<text text-anchor="middle" x="638" y="-471.8" font-family="Times,serif" font-size="14.00" fill="#5b00c0">rw</text>
</g>
<!-- T1708&#45;&gt;T1724 -->
<g id="edge22" class="edge">
<title>T1708:f2&#45;&gt;T1724:f0</title>
<path fill="none" stroke="#5b00c0" d="M493.5,-243C493.5,-187.63 385.84,-243.02 371.97,-201.93"/>
<polygon fill="#5b00c0" stroke="#5b00c0" points="375.42,-201.38 370.5,-192 368.5,-202.4 375.42,-201.38"/>
<text text-anchor="middle" x="497" y="-213.8" font-family="Times,serif" font-size="14.00" fill="#5b00c0">rw</text>
</g>
<!-- T1708&#45;&gt;T1730 -->
<g id="edge23" class="edge">
<title>T1708:f2&#45;&gt;T1730:f2</title>
<path fill="none" stroke="#5b00c0" d="M528.5,-258C579.51,-258 556.33,-44.43 508.4,-17.73"/>
<polygon fill="#5b00c0" stroke="#5b00c0" points="509.07,-14.28 498.5,-15 507.21,-21.03 509.07,-14.28"/>
<text text-anchor="middle" x="565" y="-132.8" font-family="Times,serif" font-size="14.00" fill="#5b00c0">rw</text>
</g>
</g>
</svg>
