<?xml version="1.0" encoding="UTF-8" standalone="no"?>
<!DOCTYPE svg PUBLIC "-//W3C//DTD SVG 1.1//EN"
 "http://www.w3.org/Graphics/SVG/1.1/DTD/svg11.dtd">
<!-- Generated by graphviz version 2.43.0 (0)
 -->
<!-- Title: a_graph Pages: 1 -->
<svg width="461pt" height="200pt"
 viewBox="0.00 0.00 461.00 200.00" xmlns="http://www.w3.org/2000/svg" xmlns:xlink="http://www.w3.org/1999/xlink">
<g id="graph0" class="graph" transform="scale(1 1) rotate(0) translate(4 196)">
<title>a_graph</title>
<polygon fill="white" stroke="transparent" points="-4,4 -4,-196 457,-196 457,4 -4,4"/>
<!-- T28215 -->
<g id="node1" class="node">
<title>T28215</title>
<polygon fill="none" stroke="#0058ad" points="0,-162.5 0,-191.5 338,-191.5 338,-162.5 0,-162.5"/>
<text text-anchor="middle" x="41.5" y="-173.3" font-family="Times,serif" font-size="14.00" fill="#0058ad">w 1072 4</text>
<polyline fill="none" stroke="#0058ad" points="83,-162.5 83,-191.5 "/>
<text text-anchor="middle" x="124.5" y="-173.3" font-family="Times,serif" font-size="14.00" fill="#0058ad">w 1071 1</text>
<polyline fill="none" stroke="#0058ad" points="166,-162.5 166,-191.5 "/>
<text text-anchor="middle" x="209" y="-173.3" font-family="Times,serif" font-size="14.00" fill="#0058ad">r 1073 nil</text>
<polyline fill="none" stroke="#0058ad" points="252,-162.5 252,-191.5 "/>
<text text-anchor="middle" x="295" y="-173.3" font-family="Times,serif" font-size="14.00" fill="#0058ad">r 1073 nil</text>
</g>
<!-- T28234 -->
<g id="node2" class="node">
<title>T28234</title>
<polygon fill="none" stroke="#0058ad" points="121,-81.5 121,-110.5 453,-110.5 453,-81.5 121,-81.5"/>
<text text-anchor="middle" x="162.5" y="-92.3" font-family="Times,serif" font-size="14.00" fill="#0058ad">w 1073 7</text>
<polyline fill="none" stroke="#0058ad" points="204,-81.5 204,-110.5 "/>
<text text-anchor="middle" x="245.5" y="-92.3" font-family="Times,serif" font-size="14.00" fill="#0058ad">w 1073 8</text>
<polyline fill="none" stroke="#0058ad" points="287,-81.5 287,-110.5 "/>
<text text-anchor="middle" x="328.5" y="-92.3" font-family="Times,serif" font-size="14.00" fill="#0058ad">w 1073 9</text>
<polyline fill="none" stroke="#0058ad" points="370,-81.5 370,-110.5 "/>
<text text-anchor="middle" x="411.5" y="-92.3" font-family="Times,serif" font-size="14.00" fill="#0058ad">w 1072 8</text>
</g>
<!-- T28215&#45;&gt;T28234 -->
<g id="edge1" class="edge">
<title>T28215:f2&#45;&gt;T28234:f2</title>
<path fill="none" stroke="#5b00c0" d="M209,-162C209,-107.9 313.59,-160.87 327.48,-120.99"/>
<polygon fill="#5b00c0" stroke="#5b00c0" points="330.96,-121.41 329,-111 324.04,-120.36 330.96,-121.41"/>
<text text-anchor="middle" x="329.5" y="-132.8" font-family="Times,serif" font-size="14.00" fill="#5b00c0">rw</text>
</g>
<!-- T28237 -->
<g id="node3" class="node">
<title>T28237</title>
<polygon fill="none" stroke="#0058ad" points="27.5,-0.5 27.5,-29.5 374.5,-29.5 374.5,-0.5 27.5,-0.5"/>
<text text-anchor="middle" x="66" y="-11.3" font-family="Times,serif" font-size="14.00" fill="#0058ad">r 1073 9</text>
<polyline fill="none" stroke="#0058ad" points="104.5,-0.5 104.5,-29.5 "/>
<text text-anchor="middle" x="150.5" y="-11.3" font-family="Times,serif" font-size="14.00" fill="#0058ad">w 1069 14</text>
<polyline fill="none" stroke="#0058ad" points="196.5,-0.5 196.5,-29.5 "/>
<text text-anchor="middle" x="239.5" y="-11.3" font-family="Times,serif" font-size="14.00" fill="#0058ad">r 1071 nil</text>
<polyline fill="none" stroke="#0058ad" points="282.5,-0.5 282.5,-29.5 "/>
<text text-anchor="middle" x="328.5" y="-11.3" font-family="Times,serif" font-size="14.00" fill="#0058ad">w 1069 15</text>
</g>
<!-- T28234&#45;&gt;T28237 -->
<g id="edge2" class="edge">
<title>T28234:f2&#45;&gt;T28237:f0</title>
<path fill="none" stroke="#c000a5" d="M329,-81C329,-54.08 113.93,-58.48 72.77,-37.56"/>
<polygon fill="#c000a5" stroke="#c000a5" points="75.28,-35.12 66,-30 70.06,-39.79 75.28,-35.12"/>
<text text-anchor="middle" x="281.5" y="-51.8" font-family="Times,serif" font-size="14.00" fill="#c000a5">wr</text>
</g>
<!-- T28237&#45;&gt;T28215 -->
<g id="edge3" class="edge">
<title>T28237:f2&#45;&gt;T28215:f1</title>
<path fill="none" stroke="#5b00c0" d="M240,-30C240,-57.4 141.58,-34.04 118,-48 92.08,-63.34 84.88,-81.99 93,-111 99.09,-132.75 117.29,-135.21 122.56,-151.83"/>
<polygon fill="#5b00c0" stroke="#5b00c0" points="119.13,-152.59 124,-162 126.06,-151.61 119.13,-152.59"/>
<text text-anchor="middle" x="102.5" y="-92.3" font-family="Times,serif" font-size="14.00" fill="#5b00c0">rw</text>
</g>
</g>
</svg>
