<?xml version="1.0" encoding="UTF-8" standalone="no"?>
<!DOCTYPE svg PUBLIC "-//W3C//DTD SVG 1.1//EN"
 "http://www.w3.org/Graphics/SVG/1.1/DTD/svg11.dtd">
<!-- Generated by graphviz version 2.43.0 (0)
 -->
<!-- Title: a_graph Pages: 1 -->
<svg width="413pt" height="200pt"
 viewBox="0.00 0.00 412.50 200.00" xmlns="http://www.w3.org/2000/svg" xmlns:xlink="http://www.w3.org/1999/xlink">
<g id="graph0" class="graph" transform="scale(1 1) rotate(0) translate(4 196)">
<title>a_graph</title>
<polygon fill="white" stroke="transparent" points="-4,4 -4,-196 408.5,-196 408.5,4 -4,4"/>
<!-- T22380 -->
<g id="node1" class="node">
<title>T22380</title>
<polygon fill="none" stroke="#0058ad" points="58.5,-162.5 58.5,-191.5 351.5,-191.5 351.5,-162.5 58.5,-162.5"/>
<text text-anchor="middle" x="97" y="-173.3" font-family="Times,serif" font-size="14.00" fill="#0058ad">r 853 nil</text>
<polyline fill="none" stroke="#0058ad" points="135.5,-162.5 135.5,-191.5 "/>
<text text-anchor="middle" x="169.5" y="-173.3" font-family="Times,serif" font-size="14.00" fill="#0058ad">r 852 2</text>
<polyline fill="none" stroke="#0058ad" points="203.5,-162.5 203.5,-191.5 "/>
<text text-anchor="middle" x="240.5" y="-173.3" font-family="Times,serif" font-size="14.00" fill="#0058ad">w 852 4</text>
<polyline fill="none" stroke="#0058ad" points="277.5,-162.5 277.5,-191.5 "/>
<text text-anchor="middle" x="314.5" y="-173.3" font-family="Times,serif" font-size="14.00" fill="#0058ad">w 854 1</text>
</g>
<!-- T22402 -->
<g id="node3" class="node">
<title>T22402</title>
<polygon fill="none" stroke="#0058ad" points="0,-81.5 0,-110.5 148,-110.5 148,-81.5 0,-81.5"/>
<text text-anchor="middle" x="37" y="-92.3" font-family="Times,serif" font-size="14.00" fill="#0058ad">w 853 8</text>
<polyline fill="none" stroke="#0058ad" points="74,-81.5 74,-110.5 "/>
<text text-anchor="middle" x="111" y="-92.3" font-family="Times,serif" font-size="14.00" fill="#0058ad">w 853 9</text>
</g>
<!-- T22380&#45;&gt;T22402 -->
<g id="edge1" class="edge">
<title>T22380:f0&#45;&gt;T22402:f1</title>
<path fill="none" stroke="#5b00c0" d="M97,-162C97,-142.35 106.78,-136.34 109.99,-121.17"/>
<polygon fill="#5b00c0" stroke="#5b00c0" points="113.5,-121.3 111,-111 106.53,-120.61 113.5,-121.3"/>
<text text-anchor="middle" x="117.5" y="-132.8" font-family="Times,serif" font-size="14.00" fill="#5b00c0">rw</text>
</g>
<!-- T22406 -->
<g id="node2" class="node">
<title>T22406</title>
<polygon fill="none" stroke="#0058ad" points="185.5,-0.5 185.5,-29.5 404.5,-29.5 404.5,-0.5 185.5,-0.5"/>
<text text-anchor="middle" x="219.5" y="-11.3" font-family="Times,serif" font-size="14.00" fill="#0058ad">r 853 9</text>
<polyline fill="none" stroke="#0058ad" points="253.5,-0.5 253.5,-29.5 "/>
<text text-anchor="middle" x="292" y="-11.3" font-family="Times,serif" font-size="14.00" fill="#0058ad">r 854 nil</text>
<polyline fill="none" stroke="#0058ad" points="330.5,-0.5 330.5,-29.5 "/>
<text text-anchor="middle" x="367.5" y="-11.3" font-family="Times,serif" font-size="14.00" fill="#0058ad">w 852 5</text>
</g>
<!-- T22406&#45;&gt;T22380 -->
<g id="edge2" class="edge">
<title>T22406:f1&#45;&gt;T22380:f3</title>
<path fill="none" stroke="#5b00c0" d="M292,-30C292,-86.06 312.38,-100.78 314.77,-151.99"/>
<polygon fill="#5b00c0" stroke="#5b00c0" points="311.27,-152.08 315,-162 318.27,-151.92 311.27,-152.08"/>
<text text-anchor="middle" x="316.5" y="-92.3" font-family="Times,serif" font-size="14.00" fill="#5b00c0">rw</text>
</g>
<!-- T22402&#45;&gt;T22406 -->
<g id="edge3" class="edge">
<title>T22402:f1&#45;&gt;T22406:f0</title>
<path fill="none" stroke="#c000a5" d="M149,-96C184.08,-96 153.03,-31.18 174.16,-17.51"/>
<polygon fill="#c000a5" stroke="#c000a5" points="175.18,-20.86 184,-15 173.44,-14.08 175.18,-20.86"/>
<text text-anchor="middle" x="176.5" y="-51.8" font-family="Times,serif" font-size="14.00" fill="#c000a5">wr</text>
</g>
</g>
</svg>
