<?xml version="1.0" encoding="UTF-8" standalone="no"?>
<!DOCTYPE svg PUBLIC "-//W3C//DTD SVG 1.1//EN"
 "http://www.w3.org/Graphics/SVG/1.1/DTD/svg11.dtd">
<!-- Generated by graphviz version 2.43.0 (0)
 -->
<!-- Title: a_graph Pages: 1 -->
<svg width="416pt" height="119pt"
 viewBox="0.00 0.00 416.00 119.00" xmlns="http://www.w3.org/2000/svg" xmlns:xlink="http://www.w3.org/1999/xlink">
<g id="graph0" class="graph" transform="scale(1 1) rotate(0) translate(4 115)">
<title>a_graph</title>
<polygon fill="white" stroke="transparent" points="-4,4 -4,-115 412,-115 412,4 -4,4"/>
<!-- T29999 -->
<g id="node1" class="node">
<title>T29999</title>
<polygon fill="none" stroke="#0058ad" points="73,-81.5 73,-110.5 408,-110.5 408,-81.5 73,-81.5"/>
<text text-anchor="middle" x="116" y="-92.3" font-family="Times,serif" font-size="14.00" fill="#0058ad">r 1139 nil</text>
<polyline fill="none" stroke="#0058ad" points="159,-81.5 159,-110.5 "/>
<text text-anchor="middle" x="200.5" y="-92.3" font-family="Times,serif" font-size="14.00" fill="#0058ad">w 1113 7</text>
<polyline fill="none" stroke="#0058ad" points="242,-81.5 242,-110.5 "/>
<text text-anchor="middle" x="283.5" y="-92.3" font-family="Times,serif" font-size="14.00" fill="#0058ad">w 1139 1</text>
<polyline fill="none" stroke="#0058ad" points="325,-81.5 325,-110.5 "/>
<text text-anchor="middle" x="366.5" y="-92.3" font-family="Times,serif" font-size="14.00" fill="#0058ad">w 1140 2</text>
</g>
<!-- T30063 -->
<g id="node2" class="node">
<title>T30063</title>
<polygon fill="none" stroke="#0058ad" points="0,-0.5 0,-29.5 323,-29.5 323,-0.5 0,-0.5"/>
<text text-anchor="middle" x="38.5" y="-11.3" font-family="Times,serif" font-size="14.00" fill="#0058ad">r 1141 8</text>
<polyline fill="none" stroke="#0058ad" points="77,-0.5 77,-29.5 "/>
<text text-anchor="middle" x="120" y="-11.3" font-family="Times,serif" font-size="14.00" fill="#0058ad">r 1139 nil</text>
<polyline fill="none" stroke="#0058ad" points="163,-0.5 163,-29.5 "/>
<text text-anchor="middle" x="201.5" y="-11.3" font-family="Times,serif" font-size="14.00" fill="#0058ad">r 1141 8</text>
<polyline fill="none" stroke="#0058ad" points="240,-0.5 240,-29.5 "/>
<text text-anchor="middle" x="281.5" y="-11.3" font-family="Times,serif" font-size="14.00" fill="#0058ad">w 1139 3</text>
</g>
<!-- T29999&#45;&gt;T30063 -->
<g id="edge1" class="edge">
<title>T29999:f0&#45;&gt;T30063:f3</title>
<path fill="none" stroke="#5b00c0" d="M115.5,-81C115.5,-35.88 168.28,-60.96 211.5,-48 238.18,-40 271.23,-56.5 279.54,-40.07"/>
<polygon fill="#5b00c0" stroke="#5b00c0" points="283.02,-40.49 281.5,-30 276.15,-39.14 283.02,-40.49"/>
<text text-anchor="middle" x="221" y="-51.8" font-family="Times,serif" font-size="14.00" fill="#5b00c0">rw</text>
</g>
<!-- T30063&#45;&gt;T29999 -->
<g id="edge2" class="edge">
<title>T30063:f1&#45;&gt;T29999:f2</title>
<path fill="none" stroke="#5b00c0" d="M119.5,-30C119.5,-54.99 207.1,-39.22 230.5,-48 252.83,-56.37 275.92,-54.23 281.98,-71.08"/>
<polygon fill="#5b00c0" stroke="#5b00c0" points="278.52,-71.65 283.5,-81 285.44,-70.58 278.52,-71.65"/>
<text text-anchor="middle" x="285" y="-51.8" font-family="Times,serif" font-size="14.00" fill="#5b00c0">rw</text>
</g>
</g>
</svg>
