<?xml version="1.0" encoding="UTF-8" standalone="no"?>
<!DOCTYPE svg PUBLIC "-//W3C//DTD SVG 1.1//EN"
 "http://www.w3.org/Graphics/SVG/1.1/DTD/svg11.dtd">
<!-- Generated by graphviz version 2.43.0 (0)
 -->
<!-- Title: a_graph Pages: 1 -->
<svg width="227pt" height="119pt"
 viewBox="0.00 0.00 227.00 119.00" xmlns="http://www.w3.org/2000/svg" xmlns:xlink="http://www.w3.org/1999/xlink">
<g id="graph0" class="graph" transform="scale(1 1) rotate(0) translate(4 115)">
<title>a_graph</title>
<polygon fill="white" stroke="transparent" points="-4,4 -4,-115 223,-115 223,4 -4,4"/>
<!-- T23560 -->
<g id="node1" class="node">
<title>T23560</title>
<polygon fill="none" stroke="#0058ad" points="34,-81.5 34,-110.5 185,-110.5 185,-81.5 34,-81.5"/>
<text text-anchor="middle" x="72.5" y="-92.3" font-family="Times,serif" font-size="14.00" fill="#0058ad">r 897 nil</text>
<polyline fill="none" stroke="#0058ad" points="111,-81.5 111,-110.5 "/>
<text text-anchor="middle" x="148" y="-92.3" font-family="Times,serif" font-size="14.00" fill="#0058ad">w 897 1</text>
</g>
<!-- T23568 -->
<g id="node2" class="node">
<title>T23568</title>
<polygon fill="none" stroke="#0058ad" points="0,-0.5 0,-29.5 219,-29.5 219,-0.5 0,-0.5"/>
<text text-anchor="middle" x="38.5" y="-11.3" font-family="Times,serif" font-size="14.00" fill="#0058ad">r 897 nil</text>
<polyline fill="none" stroke="#0058ad" points="77,-0.5 77,-29.5 "/>
<text text-anchor="middle" x="111" y="-11.3" font-family="Times,serif" font-size="14.00" fill="#0058ad">r 502 6</text>
<polyline fill="none" stroke="#0058ad" points="145,-0.5 145,-29.5 "/>
<text text-anchor="middle" x="182" y="-11.3" font-family="Times,serif" font-size="14.00" fill="#0058ad">w 897 2</text>
</g>
<!-- T23560&#45;&gt;T23568 -->
<g id="edge1" class="edge">
<title>T23560:f0&#45;&gt;T23568:f2</title>
<path fill="none" stroke="#5b00c0" d="M72.5,-81C72.5,-62.05 83.34,-57.89 99.5,-48 128.05,-30.53 171.23,-59.57 180.64,-40.05"/>
<polygon fill="#5b00c0" stroke="#5b00c0" points="184.13,-40.47 182.5,-30 177.24,-39.2 184.13,-40.47"/>
<text text-anchor="middle" x="109" y="-51.8" font-family="Times,serif" font-size="14.00" fill="#5b00c0">rw</text>
</g>
<!-- T23568&#45;&gt;T23560 -->
<g id="edge2" class="edge">
<title>T23568:f0&#45;&gt;T23560:f1</title>
<path fill="none" stroke="#5b00c0" d="M38.5,-30C38.5,-66.44 87,-29.67 118.5,-48 132.15,-55.95 143.1,-59.6 146.98,-70.78"/>
<polygon fill="#5b00c0" stroke="#5b00c0" points="143.57,-71.62 148.5,-81 150.49,-70.59 143.57,-71.62"/>
<text text-anchor="middle" x="152" y="-51.8" font-family="Times,serif" font-size="14.00" fill="#5b00c0">rw</text>
</g>
</g>
</svg>
