<?xml version="1.0" encoding="UTF-8" standalone="no"?>
<!DOCTYPE svg PUBLIC "-//W3C//DTD SVG 1.1//EN"
 "http://www.w3.org/Graphics/SVG/1.1/DTD/svg11.dtd">
<!-- Generated by graphviz version 2.43.0 (0)
 -->
<!-- Title: a_graph Pages: 1 -->
<svg width="656pt" height="362pt"
 viewBox="0.00 0.00 656.00 362.00" xmlns="http://www.w3.org/2000/svg" xmlns:xlink="http://www.w3.org/1999/xlink">
<g id="graph0" class="graph" transform="scale(1 1) rotate(0) translate(4 358)">
<title>a_graph</title>
<polygon fill="white" stroke="transparent" points="-4,4 -4,-358 652,-358 652,4 -4,4"/>
<!-- T31188 -->
<g id="node1" class="node">
<title>T31188</title>
<polygon fill="none" stroke="#0058ad" points="331,-324.5 331,-353.5 648,-353.5 648,-324.5 331,-324.5"/>
<text text-anchor="middle" x="369.5" y="-335.3" font-family="Times,serif" font-size="14.00" fill="#0058ad">r 1184 2</text>
<polyline fill="none" stroke="#0058ad" points="408,-324.5 408,-353.5 "/>
<text text-anchor="middle" x="446.5" y="-335.3" font-family="Times,serif" font-size="14.00" fill="#0058ad">r 1184 2</text>
<polyline fill="none" stroke="#0058ad" points="485,-324.5 485,-353.5 "/>
<text text-anchor="middle" x="528" y="-335.3" font-family="Times,serif" font-size="14.00" fill="#0058ad">r 1185 nil</text>
<polyline fill="none" stroke="#0058ad" points="571,-324.5 571,-353.5 "/>
<text text-anchor="middle" x="609.5" y="-335.3" font-family="Times,serif" font-size="14.00" fill="#0058ad">r 1172 3</text>
</g>
<!-- T31180 -->
<g id="node2" class="node">
<title>T31180</title>
<polygon fill="none" stroke="#0058ad" points="14,-243.5 14,-272.5 343,-272.5 343,-243.5 14,-243.5"/>
<text text-anchor="middle" x="57" y="-254.3" font-family="Times,serif" font-size="14.00" fill="#0058ad">r 1184 nil</text>
<polyline fill="none" stroke="#0058ad" points="100,-243.5 100,-272.5 "/>
<text text-anchor="middle" x="138.5" y="-254.3" font-family="Times,serif" font-size="14.00" fill="#0058ad">r 1153 8</text>
<polyline fill="none" stroke="#0058ad" points="177,-243.5 177,-272.5 "/>
<text text-anchor="middle" x="218.5" y="-254.3" font-family="Times,serif" font-size="14.00" fill="#0058ad">w 1185 1</text>
<polyline fill="none" stroke="#0058ad" points="260,-243.5 260,-272.5 "/>
<text text-anchor="middle" x="301.5" y="-254.3" font-family="Times,serif" font-size="14.00" fill="#0058ad">w 1180 7</text>
</g>
<!-- T31188&#45;&gt;T31180 -->
<g id="edge2" class="edge">
<title>T31188:f2&#45;&gt;T31180:f2</title>
<path fill="none" stroke="#5b00c0" d="M528.5,-324C528.5,-308.28 277.18,-293.67 227.11,-278.18"/>
<polygon fill="#5b00c0" stroke="#5b00c0" points="228.87,-275.15 218.5,-273 225.27,-281.15 228.87,-275.15"/>
<text text-anchor="middle" x="446" y="-294.8" font-family="Times,serif" font-size="14.00" fill="#5b00c0">rw</text>
</g>
<!-- T31207 -->
<g id="node3" class="node">
<title>T31207</title>
<polygon fill="none" stroke="#0058ad" points="0,-0.5 0,-29.5 329,-29.5 329,-0.5 0,-0.5"/>
<text text-anchor="middle" x="43" y="-11.3" font-family="Times,serif" font-size="14.00" fill="#0058ad">r 1185 nil</text>
<polyline fill="none" stroke="#0058ad" points="86,-0.5 86,-29.5 "/>
<text text-anchor="middle" x="127.5" y="-11.3" font-family="Times,serif" font-size="14.00" fill="#0058ad">w 1184 9</text>
<polyline fill="none" stroke="#0058ad" points="169,-0.5 169,-29.5 "/>
<text text-anchor="middle" x="207.5" y="-11.3" font-family="Times,serif" font-size="14.00" fill="#0058ad">r 1184 9</text>
<polyline fill="none" stroke="#0058ad" points="246,-0.5 246,-29.5 "/>
<text text-anchor="middle" x="287.5" y="-11.3" font-family="Times,serif" font-size="14.00" fill="#0058ad">w 1185 4</text>
</g>
<!-- T31188&#45;&gt;T31207 -->
<g id="edge1" class="edge">
<title>T31188:f2&#45;&gt;T31207:f3</title>
<path fill="none" stroke="#5b00c0" d="M528.5,-324C528.5,-295.11 528.5,-287.89 528.5,-259 528.5,-259 528.5,-259 528.5,-95 528.5,-40.13 823.79,-15.34 340.59,-15"/>
<polygon fill="#5b00c0" stroke="#5b00c0" points="340.5,-11.5 330.5,-15 340.5,-18.5 340.5,-11.5"/>
<text text-anchor="middle" x="538" y="-173.3" font-family="Times,serif" font-size="14.00" fill="#5b00c0">rw</text>
</g>
<!-- T31180&#45;&gt;T31207 -->
<g id="edge5" class="edge">
<title>T31180:f0&#45;&gt;T31207:f1</title>
<path fill="none" stroke="#5b00c0" d="M56.5,-243C56.5,-191.48 27.25,-179.85 35.5,-129 41.58,-91.54 34.98,-74.13 62.5,-48 80.84,-30.58 114.51,-51.08 124.58,-39.91"/>
<polygon fill="#5b00c0" stroke="#5b00c0" points="128.03,-40.58 127.5,-30 121.31,-38.6 128.03,-40.58"/>
<text text-anchor="middle" x="45" y="-132.8" font-family="Times,serif" font-size="14.00" fill="#5b00c0">rw</text>
</g>
<!-- T31185 -->
<g id="node4" class="node">
<title>T31185</title>
<polygon fill="none" stroke="#0058ad" points="161.5,-81.5 161.5,-110.5 499.5,-110.5 499.5,-81.5 161.5,-81.5"/>
<text text-anchor="middle" x="203" y="-92.3" font-family="Times,serif" font-size="14.00" fill="#0058ad">w 1184 1</text>
<polyline fill="none" stroke="#0058ad" points="244.5,-81.5 244.5,-110.5 "/>
<text text-anchor="middle" x="287.5" y="-92.3" font-family="Times,serif" font-size="14.00" fill="#0058ad">r 1185 nil</text>
<polyline fill="none" stroke="#0058ad" points="330.5,-81.5 330.5,-110.5 "/>
<text text-anchor="middle" x="372" y="-92.3" font-family="Times,serif" font-size="14.00" fill="#0058ad">w 1184 2</text>
<polyline fill="none" stroke="#0058ad" points="413.5,-81.5 413.5,-110.5 "/>
<text text-anchor="middle" x="456.5" y="-92.3" font-family="Times,serif" font-size="14.00" fill="#0058ad">r 1185 nil</text>
</g>
<!-- T31180&#45;&gt;T31185 -->
<g id="edge3" class="edge">
<title>T31180:f0&#45;&gt;T31185:f2</title>
<path fill="none" stroke="#5b00c0" d="M56.5,-243C56.5,-216.37 269.3,-229.76 295.5,-225 346.98,-215.65 377.12,-233.86 408.5,-192 416.5,-181.33 411.79,-174.92 408.5,-162 404.37,-145.81 400.51,-142.38 390.5,-129 386.58,-123.76 381.18,-122.35 377.32,-119.9"/>
<polygon fill="#5b00c0" stroke="#5b00c0" points="380.34,-118.13 372.5,-111 374.18,-121.46 380.34,-118.13"/>
<text text-anchor="middle" x="422" y="-173.3" font-family="Times,serif" font-size="14.00" fill="#5b00c0">rw</text>
</g>
<!-- T31192 -->
<g id="node5" class="node">
<title>T31192</title>
<polygon fill="none" stroke="#0058ad" points="159.5,-162.5 159.5,-191.5 399.5,-191.5 399.5,-162.5 159.5,-162.5"/>
<text text-anchor="middle" x="202.5" y="-173.3" font-family="Times,serif" font-size="14.00" fill="#0058ad">r 1184 nil</text>
<polyline fill="none" stroke="#0058ad" points="245.5,-162.5 245.5,-191.5 "/>
<text text-anchor="middle" x="284" y="-173.3" font-family="Times,serif" font-size="14.00" fill="#0058ad">r 1185 1</text>
<polyline fill="none" stroke="#0058ad" points="322.5,-162.5 322.5,-191.5 "/>
<text text-anchor="middle" x="361" y="-173.3" font-family="Times,serif" font-size="14.00" fill="#0058ad">r 1185 1</text>
</g>
<!-- T31180&#45;&gt;T31192 -->
<g id="edge4" class="edge">
<title>T31180:f2&#45;&gt;T31192:f1</title>
<path fill="none" stroke="#c000a5" d="M218.5,-243C218.5,-209.84 271.31,-224.86 282.45,-201.86"/>
<polygon fill="#c000a5" stroke="#c000a5" points="285.89,-202.5 284.5,-192 279.04,-201.08 285.89,-202.5"/>
<text text-anchor="middle" x="282" y="-213.8" font-family="Times,serif" font-size="14.00" fill="#c000a5">wr</text>
</g>
<!-- T31207&#45;&gt;T31180 -->
<g id="edge6" class="edge">
<title>T31207:f0&#45;&gt;T31180:f2</title>
<path fill="none" stroke="#5b00c0" d="M42.5,-30C42.5,-41.96 55.59,-38.24 62.5,-48 113.4,-119.85 76.72,-178.52 151.5,-225 174,-238.99 207.31,-219.46 216.23,-233.26"/>
<polygon fill="#5b00c0" stroke="#5b00c0" points="212.82,-234.05 218.5,-243 219.64,-232.47 212.82,-234.05"/>
<text text-anchor="middle" x="107" y="-132.8" font-family="Times,serif" font-size="14.00" fill="#5b00c0">rw</text>
</g>
<!-- T31185&#45;&gt;T31188 -->
<g id="edge9" class="edge">
<title>T31185:f2&#45;&gt;T31188:f0</title>
<path fill="none" stroke="#c000a5" d="M372.5,-111C372.5,-129.29 395.26,-117.53 409.5,-129 424.04,-140.71 427.79,-144.99 435.5,-162 571.53,-462.07 478.85,-282.4 459.5,-306 436.37,-334.22 382.6,-293.71 371.52,-314.06"/>
<polygon fill="#c000a5" stroke="#c000a5" points="368.06,-313.5 369.5,-324 374.92,-314.9 368.06,-313.5"/>
<text text-anchor="middle" x="472" y="-213.8" font-family="Times,serif" font-size="14.00" fill="#c000a5">wr</text>
</g>
<!-- T31185&#45;&gt;T31180 -->
<g id="edge8" class="edge">
<title>T31185:f1&#45;&gt;T31180:f2</title>
<path fill="none" stroke="#5b00c0" d="M287.5,-111C287.5,-130.31 220.82,-122.89 202.5,-129 169.49,-140.01 150.21,-132.66 131.5,-162 124.33,-173.24 124.87,-180.43 131.5,-192 151.87,-227.55 207.69,-203.27 217.13,-233.07"/>
<polygon fill="#5b00c0" stroke="#5b00c0" points="213.67,-233.57 218.5,-243 220.6,-232.62 213.67,-233.57"/>
<text text-anchor="middle" x="141" y="-173.3" font-family="Times,serif" font-size="14.00" fill="#5b00c0">rw</text>
</g>
<!-- T31185&#45;&gt;T31207 -->
<g id="edge7" class="edge">
<title>T31185:f1&#45;&gt;T31207:f3</title>
<path fill="none" stroke="#5b00c0" d="M287.5,-81C287.5,-62.23 287.5,-55.12 287.5,-40.35"/>
<polygon fill="#5b00c0" stroke="#5b00c0" points="291,-40 287.5,-30 284,-40 291,-40"/>
<text text-anchor="middle" x="297" y="-51.8" font-family="Times,serif" font-size="14.00" fill="#5b00c0">rw</text>
</g>
<!-- T31192&#45;&gt;T31207 -->
<g id="edge11" class="edge">
<title>T31192:f0&#45;&gt;T31207:f1</title>
<path fill="none" stroke="#5b00c0" d="M158.5,-177C150.66,-177 135.2,-118.66 133.5,-111 126.49,-79.34 127.23,-68.32 127.46,-40.24"/>
<polygon fill="#5b00c0" stroke="#5b00c0" points="130.96,-40.01 127.5,-30 123.96,-39.98 130.96,-40.01"/>
<text text-anchor="middle" x="143" y="-92.3" font-family="Times,serif" font-size="14.00" fill="#5b00c0">rw</text>
</g>
<!-- T31192&#45;&gt;T31185 -->
<g id="edge10" class="edge">
<title>T31192:f0&#45;&gt;T31185:f2</title>
<path fill="none" stroke="#5b00c0" d="M202.5,-162C202.5,-86.97 356.3,-179.9 371.32,-121.27"/>
<polygon fill="#5b00c0" stroke="#5b00c0" points="374.84,-121.33 372.5,-111 367.88,-120.54 374.84,-121.33"/>
<text text-anchor="middle" x="377" y="-132.8" font-family="Times,serif" font-size="14.00" fill="#5b00c0">rw</text>
</g>
</g>
</svg>
