<?xml version="1.0" encoding="UTF-8" standalone="no"?>
<!DOCTYPE svg PUBLIC "-//W3C//DTD SVG 1.1//EN"
 "http://www.w3.org/Graphics/SVG/1.1/DTD/svg11.dtd">
<!-- Generated by graphviz version 2.43.0 (0)
 -->
<!-- Title: a_graph Pages: 1 -->
<svg width="428pt" height="200pt"
 viewBox="0.00 0.00 428.00 200.00" xmlns="http://www.w3.org/2000/svg" xmlns:xlink="http://www.w3.org/1999/xlink">
<g id="graph0" class="graph" transform="scale(1 1) rotate(0) translate(4 196)">
<title>a_graph</title>
<polygon fill="white" stroke="transparent" points="-4,4 -4,-196 424,-196 424,4 -4,4"/>
<!-- T26418 -->
<g id="node1" class="node">
<title>T26418</title>
<polygon fill="none" stroke="#0058ad" points="0,-162.5 0,-191.5 169,-191.5 169,-162.5 0,-162.5"/>
<text text-anchor="middle" x="43" y="-173.3" font-family="Times,serif" font-size="14.00" fill="#0058ad">r 1004 nil</text>
<polyline fill="none" stroke="#0058ad" points="86,-162.5 86,-191.5 "/>
<text text-anchor="middle" x="127.5" y="-173.3" font-family="Times,serif" font-size="14.00" fill="#0058ad">w 1003 9</text>
</g>
<!-- T26413 -->
<g id="node2" class="node">
<title>T26413</title>
<polygon fill="none" stroke="#0058ad" points="1,-81.5 1,-110.5 336,-110.5 336,-81.5 1,-81.5"/>
<text text-anchor="middle" x="42.5" y="-92.3" font-family="Times,serif" font-size="14.00" fill="#0058ad">w 1004 1</text>
<polyline fill="none" stroke="#0058ad" points="84,-81.5 84,-110.5 "/>
<text text-anchor="middle" x="127" y="-92.3" font-family="Times,serif" font-size="14.00" fill="#0058ad">r 1003 nil</text>
<polyline fill="none" stroke="#0058ad" points="170,-81.5 170,-110.5 "/>
<text text-anchor="middle" x="211.5" y="-92.3" font-family="Times,serif" font-size="14.00" fill="#0058ad">w 1003 7</text>
<polyline fill="none" stroke="#0058ad" points="253,-81.5 253,-110.5 "/>
<text text-anchor="middle" x="294.5" y="-92.3" font-family="Times,serif" font-size="14.00" fill="#0058ad">w 1003 8</text>
</g>
<!-- T26418&#45;&gt;T26413 -->
<g id="edge1" class="edge">
<title>T26418:f0&#45;&gt;T26413:f0</title>
<path fill="none" stroke="#5b00c0" d="M42.5,-162C42.5,-143.23 42.5,-136.12 42.5,-121.35"/>
<polygon fill="#5b00c0" stroke="#5b00c0" points="46,-121 42.5,-111 39,-121 46,-121"/>
<text text-anchor="middle" x="53" y="-132.8" font-family="Times,serif" font-size="14.00" fill="#5b00c0">rw</text>
</g>
<!-- T26413&#45;&gt;T26418 -->
<g id="edge3" class="edge">
<title>T26413:f1&#45;&gt;T26418:f1</title>
<path fill="none" stroke="#5b00c0" d="M126.5,-111C126.5,-129.77 127.19,-136.88 127.42,-151.65"/>
<polygon fill="#5b00c0" stroke="#5b00c0" points="123.92,-152.03 127.5,-162 130.92,-151.97 123.92,-152.03"/>
<text text-anchor="middle" x="136" y="-132.8" font-family="Times,serif" font-size="14.00" fill="#5b00c0">rw</text>
</g>
<!-- T26396 -->
<g id="node3" class="node">
<title>T26396</title>
<polygon fill="none" stroke="#0058ad" points="91,-0.5 91,-29.5 420,-29.5 420,-0.5 91,-0.5"/>
<text text-anchor="middle" x="129.5" y="-11.3" font-family="Times,serif" font-size="14.00" fill="#0058ad">r 1000 8</text>
<polyline fill="none" stroke="#0058ad" points="168,-0.5 168,-29.5 "/>
<text text-anchor="middle" x="209.5" y="-11.3" font-family="Times,serif" font-size="14.00" fill="#0058ad">w 1000 9</text>
<polyline fill="none" stroke="#0058ad" points="251,-0.5 251,-29.5 "/>
<text text-anchor="middle" x="294" y="-11.3" font-family="Times,serif" font-size="14.00" fill="#0058ad">r 1003 nil</text>
<polyline fill="none" stroke="#0058ad" points="337,-0.5 337,-29.5 "/>
<text text-anchor="middle" x="378.5" y="-11.3" font-family="Times,serif" font-size="14.00" fill="#0058ad">w 1003 1</text>
</g>
<!-- T26413&#45;&gt;T26396 -->
<g id="edge2" class="edge">
<title>T26413:f1&#45;&gt;T26396:f3</title>
<path fill="none" stroke="#5b00c0" d="M126.5,-81C126.5,-59.9 295.52,-69.77 315.5,-63 327.41,-58.96 328.43,-53.98 339.5,-48 352.1,-41.19 367.74,-45.21 374.77,-39.59"/>
<polygon fill="#5b00c0" stroke="#5b00c0" points="378.13,-40.59 378.5,-30 371.61,-38.05 378.13,-40.59"/>
<text text-anchor="middle" x="349" y="-51.8" font-family="Times,serif" font-size="14.00" fill="#5b00c0">rw</text>
</g>
<!-- T26396&#45;&gt;T26418 -->
<g id="edge5" class="edge">
<title>T26396:f2&#45;&gt;T26418:f1</title>
<path fill="none" stroke="#5b00c0" d="M294.5,-30C294.5,-59.55 340.66,-24.45 358.5,-48 375.76,-70.79 364.72,-89.84 345.5,-111 292.02,-169.89 256.75,-176.51 180.96,-176.97"/>
<polygon fill="#5b00c0" stroke="#5b00c0" points="180.49,-173.47 170.5,-177 180.51,-180.47 180.49,-173.47"/>
<text text-anchor="middle" x="374" y="-92.3" font-family="Times,serif" font-size="14.00" fill="#5b00c0">rw</text>
</g>
<!-- T26396&#45;&gt;T26413 -->
<g id="edge4" class="edge">
<title>T26396:f2&#45;&gt;T26413:f3</title>
<path fill="none" stroke="#5b00c0" d="M294.5,-30C294.5,-38.05 292.95,-39.96 292.5,-48 292.13,-54.66 292.13,-56.34 292.5,-63 292.68,-66.26 293.04,-68.52 293.41,-70.59"/>
<polygon fill="#5b00c0" stroke="#5b00c0" points="289.98,-71.42 294.5,-81 296.94,-70.69 289.98,-71.42"/>
<text text-anchor="middle" x="302" y="-51.8" font-family="Times,serif" font-size="14.00" fill="#5b00c0">rw</text>
</g>
</g>
</svg>
