<?xml version="1.0" encoding="UTF-8" standalone="no"?>
<!DOCTYPE svg PUBLIC "-//W3C//DTD SVG 1.1//EN"
 "http://www.w3.org/Graphics/SVG/1.1/DTD/svg11.dtd">
<!-- Generated by graphviz version 2.43.0 (0)
 -->
<!-- Title: a_graph Pages: 1 -->
<svg width="263pt" height="119pt"
 viewBox="0.00 0.00 263.00 119.00" xmlns="http://www.w3.org/2000/svg" xmlns:xlink="http://www.w3.org/1999/xlink">
<g id="graph0" class="graph" transform="scale(1 1) rotate(0) translate(4 115)">
<title>a_graph</title>
<polygon fill="white" stroke="transparent" points="-4,4 -4,-115 259,-115 259,4 -4,4"/>
<!-- T28111 -->
<g id="node1" class="node">
<title>T28111</title>
<polygon fill="none" stroke="#0058ad" points="43,-81.5 43,-110.5 212,-110.5 212,-81.5 43,-81.5"/>
<text text-anchor="middle" x="86" y="-92.3" font-family="Times,serif" font-size="14.00" fill="#0058ad">r 1067 nil</text>
<polyline fill="none" stroke="#0058ad" points="129,-81.5 129,-110.5 "/>
<text text-anchor="middle" x="170.5" y="-92.3" font-family="Times,serif" font-size="14.00" fill="#0058ad">w 1067 5</text>
</g>
<!-- T28075 -->
<g id="node2" class="node">
<title>T28075</title>
<polygon fill="none" stroke="#0058ad" points="0,-0.5 0,-29.5 255,-29.5 255,-0.5 0,-0.5"/>
<text text-anchor="middle" x="43" y="-11.3" font-family="Times,serif" font-size="14.00" fill="#0058ad">r 1067 nil</text>
<polyline fill="none" stroke="#0058ad" points="86,-0.5 86,-29.5 "/>
<text text-anchor="middle" x="129" y="-11.3" font-family="Times,serif" font-size="14.00" fill="#0058ad">r 1058 12</text>
<polyline fill="none" stroke="#0058ad" points="172,-0.5 172,-29.5 "/>
<text text-anchor="middle" x="213.5" y="-11.3" font-family="Times,serif" font-size="14.00" fill="#0058ad">w 1067 1</text>
</g>
<!-- T28111&#45;&gt;T28075 -->
<g id="edge1" class="edge">
<title>T28111:f0&#45;&gt;T28075:f2</title>
<path fill="none" stroke="#5b00c0" d="M85.5,-81C85.5,-60.26 100.16,-57.69 118.5,-48 134.23,-39.68 189.06,-47.53 207.44,-38.27"/>
<polygon fill="#5b00c0" stroke="#5b00c0" points="210.41,-40.14 213.5,-30 204.77,-36 210.41,-40.14"/>
<text text-anchor="middle" x="128" y="-51.8" font-family="Times,serif" font-size="14.00" fill="#5b00c0">rw</text>
</g>
<!-- T28075&#45;&gt;T28111 -->
<g id="edge2" class="edge">
<title>T28075:f0&#45;&gt;T28111:f1</title>
<path fill="none" stroke="#5b00c0" d="M42.5,-30C42.5,-51.49 118.5,-37.96 137.5,-48 152.4,-55.88 164.87,-59.05 169.03,-71.08"/>
<polygon fill="#5b00c0" stroke="#5b00c0" points="165.57,-71.62 170.5,-81 172.49,-70.59 165.57,-71.62"/>
<text text-anchor="middle" x="174" y="-51.8" font-family="Times,serif" font-size="14.00" fill="#5b00c0">rw</text>
</g>
</g>
</svg>
