<?xml version="1.0" encoding="UTF-8" standalone="no"?>
<!DOCTYPE svg PUBLIC "-//W3C//DTD SVG 1.1//EN"
 "http://www.w3.org/Graphics/SVG/1.1/DTD/svg11.dtd">
<!-- Generated by graphviz version 2.43.0 (0)
 -->
<!-- Title: a_graph Pages: 1 -->
<svg width="331pt" height="119pt"
 viewBox="0.00 0.00 331.00 119.00" xmlns="http://www.w3.org/2000/svg" xmlns:xlink="http://www.w3.org/1999/xlink">
<g id="graph0" class="graph" transform="scale(1 1) rotate(0) translate(4 115)">
<title>a_graph</title>
<polygon fill="white" stroke="transparent" points="-4,4 -4,-115 327,-115 327,4 -4,4"/>
<!-- T29202 -->
<g id="node1" class="node">
<title>T29202</title>
<polygon fill="none" stroke="#0058ad" points="0,-81.5 0,-110.5 323,-110.5 323,-81.5 0,-81.5"/>
<text text-anchor="middle" x="38.5" y="-92.3" font-family="Times,serif" font-size="14.00" fill="#0058ad">r 1106 1</text>
<polyline fill="none" stroke="#0058ad" points="77,-81.5 77,-110.5 "/>
<text text-anchor="middle" x="120" y="-92.3" font-family="Times,serif" font-size="14.00" fill="#0058ad">r 1109 nil</text>
<polyline fill="none" stroke="#0058ad" points="163,-81.5 163,-110.5 "/>
<text text-anchor="middle" x="204.5" y="-92.3" font-family="Times,serif" font-size="14.00" fill="#0058ad">w 1109 3</text>
<polyline fill="none" stroke="#0058ad" points="246,-81.5 246,-110.5 "/>
<text text-anchor="middle" x="284.5" y="-92.3" font-family="Times,serif" font-size="14.00" fill="#0058ad">r 1109 3</text>
</g>
<!-- T29192 -->
<g id="node2" class="node">
<title>T29192</title>
<polygon fill="none" stroke="#0058ad" points="31,-0.5 31,-29.5 292,-29.5 292,-0.5 31,-0.5"/>
<text text-anchor="middle" x="74" y="-11.3" font-family="Times,serif" font-size="14.00" fill="#0058ad">r 1109 nil</text>
<polyline fill="none" stroke="#0058ad" points="117,-0.5 117,-29.5 "/>
<text text-anchor="middle" x="163" y="-11.3" font-family="Times,serif" font-size="14.00" fill="#0058ad">w 1041 14</text>
<polyline fill="none" stroke="#0058ad" points="209,-0.5 209,-29.5 "/>
<text text-anchor="middle" x="250.5" y="-11.3" font-family="Times,serif" font-size="14.00" fill="#0058ad">w 1109 1</text>
</g>
<!-- T29202&#45;&gt;T29192 -->
<g id="edge1" class="edge">
<title>T29202:f1&#45;&gt;T29192:f2</title>
<path fill="none" stroke="#5b00c0" d="M119.5,-81C119.5,-60.26 134.14,-57.64 152.5,-48 168.89,-39.39 226.36,-48.07 244.78,-38.22"/>
<polygon fill="#5b00c0" stroke="#5b00c0" points="247.65,-40.21 250.5,-30 241.91,-36.2 247.65,-40.21"/>
<text text-anchor="middle" x="162" y="-51.8" font-family="Times,serif" font-size="14.00" fill="#5b00c0">rw</text>
</g>
<!-- T29192&#45;&gt;T29202 -->
<g id="edge2" class="edge">
<title>T29192:f0&#45;&gt;T29202:f2</title>
<path fill="none" stroke="#5b00c0" d="M73.5,-30C73.5,-52.14 151.9,-37.71 171.5,-48 186.42,-55.83 198.88,-59.03 203.03,-71.08"/>
<polygon fill="#5b00c0" stroke="#5b00c0" points="199.57,-71.62 204.5,-81 206.49,-70.59 199.57,-71.62"/>
<text text-anchor="middle" x="208" y="-51.8" font-family="Times,serif" font-size="14.00" fill="#5b00c0">rw</text>
</g>
</g>
</svg>
