<?xml version="1.0" encoding="UTF-8" standalone="no"?>
<!DOCTYPE svg PUBLIC "-//W3C//DTD SVG 1.1//EN"
 "http://www.w3.org/Graphics/SVG/1.1/DTD/svg11.dtd">
<!-- Generated by graphviz version 2.43.0 (0)
 -->
<!-- Title: a_graph Pages: 1 -->
<svg width="410pt" height="281pt"
 viewBox="0.00 0.00 410.26 281.00" xmlns="http://www.w3.org/2000/svg" xmlns:xlink="http://www.w3.org/1999/xlink">
<g id="graph0" class="graph" transform="scale(1 1) rotate(0) translate(4 277)">
<title>a_graph</title>
<polygon fill="white" stroke="transparent" points="-4,4 -4,-277 406.26,-277 406.26,4 -4,4"/>
<!-- T16201 -->
<g id="node1" class="node">
<title>T16201</title>
<polygon fill="none" stroke="#0058ad" points="69.76,-243.5 69.76,-272.5 362.76,-272.5 362.76,-243.5 69.76,-243.5"/>
<text text-anchor="middle" x="108.26" y="-254.3" font-family="Times,serif" font-size="14.00" fill="#0058ad">r 623 nil</text>
<polyline fill="none" stroke="#0058ad" points="146.76,-243.5 146.76,-272.5 "/>
<text text-anchor="middle" x="183.76" y="-254.3" font-family="Times,serif" font-size="14.00" fill="#0058ad">w 623 1</text>
<polyline fill="none" stroke="#0058ad" points="220.76,-243.5 220.76,-272.5 "/>
<text text-anchor="middle" x="254.76" y="-254.3" font-family="Times,serif" font-size="14.00" fill="#0058ad">r 623 1</text>
<polyline fill="none" stroke="#0058ad" points="288.76,-243.5 288.76,-272.5 "/>
<text text-anchor="middle" x="325.76" y="-254.3" font-family="Times,serif" font-size="14.00" fill="#0058ad">w 623 2</text>
</g>
<!-- T16205 -->
<g id="node4" class="node">
<title>T16205</title>
<polygon fill="none" stroke="#0058ad" points="116.26,-162.5 116.26,-191.5 338.26,-191.5 338.26,-162.5 116.26,-162.5"/>
<text text-anchor="middle" x="154.76" y="-173.3" font-family="Times,serif" font-size="14.00" fill="#0058ad">r 622 nil</text>
<polyline fill="none" stroke="#0058ad" points="193.26,-162.5 193.26,-191.5 "/>
<text text-anchor="middle" x="227.26" y="-173.3" font-family="Times,serif" font-size="14.00" fill="#0058ad">r 623 2</text>
<polyline fill="none" stroke="#0058ad" points="261.26,-162.5 261.26,-191.5 "/>
<text text-anchor="middle" x="299.76" y="-173.3" font-family="Times,serif" font-size="14.00" fill="#0058ad">r 622 nil</text>
</g>
<!-- T16201&#45;&gt;T16205 -->
<g id="edge1" class="edge">
<title>T16201:f3&#45;&gt;T16205:f1</title>
<path fill="none" stroke="#c000a5" d="M326.26,-243C326.26,-197.37 242.12,-234.59 228.98,-201.91"/>
<polygon fill="#c000a5" stroke="#c000a5" points="232.42,-201.25 227.26,-192 225.52,-202.45 232.42,-201.25"/>
<text text-anchor="middle" x="326.76" y="-213.8" font-family="Times,serif" font-size="14.00" fill="#c000a5">wr</text>
</g>
<!-- T16192 -->
<g id="node2" class="node">
<title>T16192</title>
<polygon fill="none" stroke="#0058ad" points="40.26,-81.5 40.26,-110.5 342.26,-110.5 342.26,-81.5 40.26,-81.5"/>
<text text-anchor="middle" x="78.76" y="-92.3" font-family="Times,serif" font-size="14.00" fill="#0058ad">r 620 14</text>
<polyline fill="none" stroke="#0058ad" points="117.26,-81.5 117.26,-110.5 "/>
<text text-anchor="middle" x="154.26" y="-92.3" font-family="Times,serif" font-size="14.00" fill="#0058ad">w 622 1</text>
<polyline fill="none" stroke="#0058ad" points="191.26,-81.5 191.26,-110.5 "/>
<text text-anchor="middle" x="232.76" y="-92.3" font-family="Times,serif" font-size="14.00" fill="#0058ad">w 600 11</text>
<polyline fill="none" stroke="#0058ad" points="274.26,-81.5 274.26,-110.5 "/>
<text text-anchor="middle" x="308.26" y="-92.3" font-family="Times,serif" font-size="14.00" fill="#0058ad">r 622 1</text>
</g>
<!-- T16220 -->
<g id="node3" class="node">
<title>T16220</title>
<polygon fill="none" stroke="#0058ad" points="43.26,-0.5 43.26,-29.5 339.26,-29.5 339.26,-0.5 43.26,-0.5"/>
<text text-anchor="middle" x="80.26" y="-11.3" font-family="Times,serif" font-size="14.00" fill="#0058ad">w 622 9</text>
<polyline fill="none" stroke="#0058ad" points="117.26,-0.5 117.26,-29.5 "/>
<text text-anchor="middle" x="155.76" y="-11.3" font-family="Times,serif" font-size="14.00" fill="#0058ad">r 623 nil</text>
<polyline fill="none" stroke="#0058ad" points="194.26,-0.5 194.26,-29.5 "/>
<text text-anchor="middle" x="232.76" y="-11.3" font-family="Times,serif" font-size="14.00" fill="#0058ad">r 600 11</text>
<polyline fill="none" stroke="#0058ad" points="271.26,-0.5 271.26,-29.5 "/>
<text text-anchor="middle" x="305.26" y="-11.3" font-family="Times,serif" font-size="14.00" fill="#0058ad">r 622 9</text>
</g>
<!-- T16192&#45;&gt;T16220 -->
<g id="edge2" class="edge">
<title>T16192:f2&#45;&gt;T16220:f2</title>
<path fill="none" stroke="#c000a5" d="M233.26,-81C233.26,-62.23 233.26,-55.12 233.26,-40.35"/>
<polygon fill="#c000a5" stroke="#c000a5" points="236.76,-40 233.26,-30 229.76,-40 236.76,-40"/>
<text text-anchor="middle" x="242.76" y="-51.8" font-family="Times,serif" font-size="14.00" fill="#c000a5">wr</text>
</g>
<!-- T16220&#45;&gt;T16201 -->
<g id="edge3" class="edge">
<title>T16220:f1&#45;&gt;T16201:f3</title>
<path fill="none" stroke="#5b00c0" d="M155.26,-30C155.26,-52.8 234.2,-42.24 256.26,-48 299.51,-59.29 324.03,-45.56 351.26,-81 412.08,-160.15 386.09,-228.55 371.32,-250.58"/>
<polygon fill="#5b00c0" stroke="#5b00c0" points="368.62,-248.34 364.26,-258 373.69,-253.17 368.62,-248.34"/>
<text text-anchor="middle" x="392.76" y="-132.8" font-family="Times,serif" font-size="14.00" fill="#5b00c0">rw</text>
</g>
<!-- T16205&#45;&gt;T16192 -->
<g id="edge5" class="edge">
<title>T16205:f0&#45;&gt;T16192:f1</title>
<path fill="none" stroke="#5b00c0" d="M154.26,-162C154.26,-143.23 154.26,-136.12 154.26,-121.35"/>
<polygon fill="#5b00c0" stroke="#5b00c0" points="157.76,-121 154.26,-111 150.76,-121 157.76,-121"/>
<text text-anchor="middle" x="163.76" y="-132.8" font-family="Times,serif" font-size="14.00" fill="#5b00c0">rw</text>
</g>
<!-- T16205&#45;&gt;T16220 -->
<g id="edge4" class="edge">
<title>T16205:f0&#45;&gt;T16220:f0</title>
<path fill="none" stroke="#5b00c0" d="M115.26,-177C60.89,-177 38.35,-158.7 12.26,-111 -7.43,-75 -3.36,-24.2 32.02,-16.11"/>
<polygon fill="#5b00c0" stroke="#5b00c0" points="32.69,-19.55 42.26,-15 31.94,-12.59 32.69,-19.55"/>
<text text-anchor="middle" x="21.76" y="-92.3" font-family="Times,serif" font-size="14.00" fill="#5b00c0">rw</text>
</g>
</g>
</svg>
