<?xml version="1.0" encoding="UTF-8" standalone="no"?>
<!DOCTYPE svg PUBLIC "-//W3C//DTD SVG 1.1//EN"
 "http://www.w3.org/Graphics/SVG/1.1/DTD/svg11.dtd">
<!-- Generated by graphviz version 2.43.0 (0)
 -->
<!-- Title: a_graph Pages: 1 -->
<svg width="352pt" height="119pt"
 viewBox="0.00 0.00 351.50 119.00" xmlns="http://www.w3.org/2000/svg" xmlns:xlink="http://www.w3.org/1999/xlink">
<g id="graph0" class="graph" transform="scale(1 1) rotate(0) translate(4 115)">
<title>a_graph</title>
<polygon fill="white" stroke="transparent" points="-4,4 -4,-115 347.5,-115 347.5,4 -4,4"/>
<!-- T19334 -->
<g id="node1" class="node">
<title>T19334</title>
<polygon fill="none" stroke="#0058ad" points="115.5,-81.5 115.5,-110.5 343.5,-110.5 343.5,-81.5 115.5,-81.5"/>
<text text-anchor="middle" x="154" y="-92.3" font-family="Times,serif" font-size="14.00" fill="#0058ad">r 741 nil</text>
<polyline fill="none" stroke="#0058ad" points="192.5,-81.5 192.5,-110.5 "/>
<text text-anchor="middle" x="231" y="-92.3" font-family="Times,serif" font-size="14.00" fill="#0058ad">r 741 nil</text>
<polyline fill="none" stroke="#0058ad" points="269.5,-81.5 269.5,-110.5 "/>
<text text-anchor="middle" x="306.5" y="-92.3" font-family="Times,serif" font-size="14.00" fill="#0058ad">w 741 2</text>
</g>
<!-- T19333 -->
<g id="node2" class="node">
<title>T19333</title>
<polygon fill="none" stroke="#0058ad" points="0,-0.5 0,-29.5 305,-29.5 305,-0.5 0,-0.5"/>
<text text-anchor="middle" x="38.5" y="-11.3" font-family="Times,serif" font-size="14.00" fill="#0058ad">r 737 16</text>
<polyline fill="none" stroke="#0058ad" points="77,-0.5 77,-29.5 "/>
<text text-anchor="middle" x="115.5" y="-11.3" font-family="Times,serif" font-size="14.00" fill="#0058ad">r 737 16</text>
<polyline fill="none" stroke="#0058ad" points="154,-0.5 154,-29.5 "/>
<text text-anchor="middle" x="192.5" y="-11.3" font-family="Times,serif" font-size="14.00" fill="#0058ad">r 741 nil</text>
<polyline fill="none" stroke="#0058ad" points="231,-0.5 231,-29.5 "/>
<text text-anchor="middle" x="268" y="-11.3" font-family="Times,serif" font-size="14.00" fill="#0058ad">w 741 1</text>
</g>
<!-- T19334&#45;&gt;T19333 -->
<g id="edge1" class="edge">
<title>T19334:f0&#45;&gt;T19333:f3</title>
<path fill="none" stroke="#5b00c0" d="M153.5,-81C153.5,-69.15 236.13,-50.79 261.31,-36.96"/>
<polygon fill="#5b00c0" stroke="#5b00c0" points="263.74,-39.47 268.5,-30 258.88,-34.43 263.74,-39.47"/>
<text text-anchor="middle" x="240" y="-51.8" font-family="Times,serif" font-size="14.00" fill="#5b00c0">rw</text>
</g>
<!-- T19333&#45;&gt;T19334 -->
<g id="edge2" class="edge">
<title>T19333:f2&#45;&gt;T19334:f2</title>
<path fill="none" stroke="#5b00c0" d="M192.5,-30C192.5,-58.27 227.71,-36.42 253.5,-48 275.06,-57.68 298.33,-54.68 304.77,-70.71"/>
<polygon fill="#5b00c0" stroke="#5b00c0" points="301.39,-71.72 306.5,-81 308.29,-70.56 301.39,-71.72"/>
<text text-anchor="middle" x="307" y="-51.8" font-family="Times,serif" font-size="14.00" fill="#5b00c0">rw</text>
</g>
</g>
</svg>
