<?xml version="1.0" encoding="UTF-8" standalone="no"?>
<!DOCTYPE svg PUBLIC "-//W3C//DTD SVG 1.1//EN"
 "http://www.w3.org/Graphics/SVG/1.1/DTD/svg11.dtd">
<!-- Generated by graphviz version 2.43.0 (0)
 -->
<!-- Title: a_graph Pages: 1 -->
<svg width="573pt" height="767pt"
 viewBox="0.00 0.00 573.00 767.00" xmlns="http://www.w3.org/2000/svg" xmlns:xlink="http://www.w3.org/1999/xlink">
<g id="graph0" class="graph" transform="scale(1 1) rotate(0) translate(4 763)">
<title>a_graph</title>
<polygon fill="white" stroke="transparent" points="-4,4 -4,-763 569,-763 569,4 -4,4"/>
<!-- T27849 -->
<g id="node1" class="node">
<title>T27849</title>
<polygon fill="none" stroke="#0058ad" points="150.5,-729.5 150.5,-758.5 473.5,-758.5 473.5,-729.5 150.5,-729.5"/>
<text text-anchor="middle" x="192" y="-740.3" font-family="Times,serif" font-size="14.00" fill="#0058ad">w 1059 7</text>
<polyline fill="none" stroke="#0058ad" points="233.5,-729.5 233.5,-758.5 "/>
<text text-anchor="middle" x="272" y="-740.3" font-family="Times,serif" font-size="14.00" fill="#0058ad">r 1059 7</text>
<polyline fill="none" stroke="#0058ad" points="310.5,-729.5 310.5,-758.5 "/>
<text text-anchor="middle" x="353.5" y="-740.3" font-family="Times,serif" font-size="14.00" fill="#0058ad">r 1037 10</text>
<polyline fill="none" stroke="#0058ad" points="396.5,-729.5 396.5,-758.5 "/>
<text text-anchor="middle" x="435" y="-740.3" font-family="Times,serif" font-size="14.00" fill="#0058ad">r 1059 7</text>
</g>
<!-- T27855 -->
<g id="node4" class="node">
<title>T27855</title>
<polygon fill="none" stroke="#0058ad" points="127.5,-567.5 127.5,-596.5 364.5,-596.5 364.5,-567.5 127.5,-567.5"/>
<text text-anchor="middle" x="166" y="-578.3" font-family="Times,serif" font-size="14.00" fill="#0058ad">r 1059 7</text>
<polyline fill="none" stroke="#0058ad" points="204.5,-567.5 204.5,-596.5 "/>
<text text-anchor="middle" x="243" y="-578.3" font-family="Times,serif" font-size="14.00" fill="#0058ad">r 1059 7</text>
<polyline fill="none" stroke="#0058ad" points="281.5,-567.5 281.5,-596.5 "/>
<text text-anchor="middle" x="323" y="-578.3" font-family="Times,serif" font-size="14.00" fill="#0058ad">w 1060 1</text>
</g>
<!-- T27849&#45;&gt;T27855 -->
<g id="edge2" class="edge">
<title>T27849:f0&#45;&gt;T27855:f0</title>
<path fill="none" stroke="#c000a5" d="M149,-744C86.57,-744 157.98,-670.81 165.39,-607.13"/>
<polygon fill="#c000a5" stroke="#c000a5" points="168.89,-607.19 166,-597 161.9,-606.77 168.89,-607.19"/>
<text text-anchor="middle" x="163.5" y="-659.3" font-family="Times,serif" font-size="14.00" fill="#c000a5">wr</text>
</g>
<!-- T27852 -->
<g id="node7" class="node">
<title>T27852</title>
<polygon fill="none" stroke="#0058ad" points="192,-648.5 192,-677.5 518,-677.5 518,-648.5 192,-648.5"/>
<text text-anchor="middle" x="230.5" y="-659.3" font-family="Times,serif" font-size="14.00" fill="#0058ad">r 1059 7</text>
<polyline fill="none" stroke="#0058ad" points="269,-648.5 269,-677.5 "/>
<text text-anchor="middle" x="312" y="-659.3" font-family="Times,serif" font-size="14.00" fill="#0058ad">r 1060 nil</text>
<polyline fill="none" stroke="#0058ad" points="355,-648.5 355,-677.5 "/>
<text text-anchor="middle" x="398" y="-659.3" font-family="Times,serif" font-size="14.00" fill="#0058ad">r 1060 nil</text>
<polyline fill="none" stroke="#0058ad" points="441,-648.5 441,-677.5 "/>
<text text-anchor="middle" x="479.5" y="-659.3" font-family="Times,serif" font-size="14.00" fill="#0058ad">r 1059 7</text>
</g>
<!-- T27849&#45;&gt;T27852 -->
<g id="edge1" class="edge">
<title>T27849:f0&#45;&gt;T27852:f0</title>
<path fill="none" stroke="#c000a5" d="M192,-729C192,-704.71 220.06,-705.38 227.96,-688.11"/>
<polygon fill="#c000a5" stroke="#c000a5" points="231.45,-688.5 230,-678 224.59,-687.11 231.45,-688.5"/>
<text text-anchor="middle" x="230.5" y="-699.8" font-family="Times,serif" font-size="14.00" fill="#c000a5">wr</text>
</g>
<!-- T27803 -->
<g id="node2" class="node">
<title>T27803</title>
<polygon fill="none" stroke="#0058ad" points="201.5,-405.5 201.5,-434.5 376.5,-434.5 376.5,-405.5 201.5,-405.5"/>
<text text-anchor="middle" x="247.5" y="-416.3" font-family="Times,serif" font-size="14.00" fill="#0058ad">w 1057 10</text>
<polyline fill="none" stroke="#0058ad" points="293.5,-405.5 293.5,-434.5 "/>
<text text-anchor="middle" x="335" y="-416.3" font-family="Times,serif" font-size="14.00" fill="#0058ad">w 1058 1</text>
</g>
<!-- T27807 -->
<g id="node3" class="node">
<title>T27807</title>
<polygon fill="none" stroke="#0058ad" points="127,-324.5 127,-353.5 465,-353.5 465,-324.5 127,-324.5"/>
<text text-anchor="middle" x="170" y="-335.3" font-family="Times,serif" font-size="14.00" fill="#0058ad">r 1056 12</text>
<polyline fill="none" stroke="#0058ad" points="213,-324.5 213,-353.5 "/>
<text text-anchor="middle" x="254.5" y="-335.3" font-family="Times,serif" font-size="14.00" fill="#0058ad">w 1037 9</text>
<polyline fill="none" stroke="#0058ad" points="296,-324.5 296,-353.5 "/>
<text text-anchor="middle" x="334.5" y="-335.3" font-family="Times,serif" font-size="14.00" fill="#0058ad">r 1058 1</text>
<polyline fill="none" stroke="#0058ad" points="373,-324.5 373,-353.5 "/>
<text text-anchor="middle" x="419" y="-335.3" font-family="Times,serif" font-size="14.00" fill="#0058ad">w 1056 13</text>
</g>
<!-- T27803&#45;&gt;T27807 -->
<g id="edge3" class="edge">
<title>T27803:f1&#45;&gt;T27807:f2</title>
<path fill="none" stroke="#c000a5" d="M335,-405C335,-386.23 335,-379.12 335,-364.35"/>
<polygon fill="#c000a5" stroke="#c000a5" points="338.5,-364 335,-354 331.5,-364 338.5,-364"/>
<text text-anchor="middle" x="344.5" y="-375.8" font-family="Times,serif" font-size="14.00" fill="#c000a5">wr</text>
</g>
<!-- T27828 -->
<g id="node5" class="node">
<title>T27828</title>
<polygon fill="none" stroke="#0058ad" points="67.5,-243.5 67.5,-272.5 230.5,-272.5 230.5,-243.5 67.5,-243.5"/>
<text text-anchor="middle" x="106" y="-254.3" font-family="Times,serif" font-size="14.00" fill="#0058ad">r 1037 9</text>
<polyline fill="none" stroke="#0058ad" points="144.5,-243.5 144.5,-272.5 "/>
<text text-anchor="middle" x="187.5" y="-254.3" font-family="Times,serif" font-size="14.00" fill="#0058ad">r 1059 nil</text>
</g>
<!-- T27807&#45;&gt;T27828 -->
<g id="edge4" class="edge">
<title>T27807:f1&#45;&gt;T27828:f0</title>
<path fill="none" stroke="#c000a5" d="M254,-324C254,-292.75 134.54,-304.56 110.27,-282.06"/>
<polygon fill="#c000a5" stroke="#c000a5" points="113.43,-280.55 106,-273 107.1,-283.54 113.43,-280.55"/>
<text text-anchor="middle" x="238.5" y="-294.8" font-family="Times,serif" font-size="14.00" fill="#c000a5">wr</text>
</g>
<!-- T27865 -->
<g id="node8" class="node">
<title>T27865</title>
<polygon fill="none" stroke="#0058ad" points="257.5,-486.5 257.5,-515.5 420.5,-515.5 420.5,-486.5 257.5,-486.5"/>
<text text-anchor="middle" x="300.5" y="-497.3" font-family="Times,serif" font-size="14.00" fill="#0058ad">r 1058 nil</text>
<polyline fill="none" stroke="#0058ad" points="343.5,-486.5 343.5,-515.5 "/>
<text text-anchor="middle" x="382" y="-497.3" font-family="Times,serif" font-size="14.00" fill="#0058ad">r 1060 1</text>
</g>
<!-- T27855&#45;&gt;T27865 -->
<g id="edge5" class="edge">
<title>T27855:f2&#45;&gt;T27865:f1</title>
<path fill="none" stroke="#c000a5" d="M366,-582C392.88,-582 384.57,-553.59 382.43,-526.05"/>
<polygon fill="#c000a5" stroke="#c000a5" points="385.93,-525.84 382,-516 378.93,-526.14 385.93,-525.84"/>
<text text-anchor="middle" x="393.5" y="-537.8" font-family="Times,serif" font-size="14.00" fill="#c000a5">wr</text>
</g>
<!-- T27828&#45;&gt;T27849 -->
<g id="edge9" class="edge">
<title>T27828:f1&#45;&gt;T27849:f0</title>
<path fill="none" stroke="#5b00c0" d="M188,-273C188,-301.27 149.33,-273.66 127,-291 107.79,-305.91 99,-313.69 99,-338 99,-664 99,-664 99,-664 99,-665.61 123.7,-720.94 140.49,-738.63"/>
<polygon fill="#5b00c0" stroke="#5b00c0" points="138.68,-741.62 149,-744 142.41,-735.7 138.68,-741.62"/>
<text text-anchor="middle" x="108.5" y="-497.3" font-family="Times,serif" font-size="14.00" fill="#5b00c0">rw</text>
</g>
<!-- T27829 -->
<g id="node6" class="node">
<title>T27829</title>
<polygon fill="none" stroke="#0058ad" points="0,-81.5 0,-110.5 160,-110.5 160,-81.5 0,-81.5"/>
<text text-anchor="middle" x="38.5" y="-92.3" font-family="Times,serif" font-size="14.00" fill="#0058ad">r 1041 5</text>
<polyline fill="none" stroke="#0058ad" points="77,-81.5 77,-110.5 "/>
<text text-anchor="middle" x="118.5" y="-92.3" font-family="Times,serif" font-size="14.00" fill="#0058ad">w 1059 2</text>
</g>
<!-- T27828&#45;&gt;T27829 -->
<g id="edge7" class="edge">
<title>T27828:f1&#45;&gt;T27829:f1</title>
<path fill="none" stroke="#5b00c0" d="M188,-243C188,-232.87 179.65,-233.41 174,-225 144.58,-181.23 121.98,-168.78 119.27,-121.04"/>
<polygon fill="#5b00c0" stroke="#5b00c0" points="122.77,-120.9 119,-111 115.77,-121.09 122.77,-120.9"/>
<text text-anchor="middle" x="159.5" y="-173.3" font-family="Times,serif" font-size="14.00" fill="#5b00c0">rw</text>
</g>
<!-- T27825 -->
<g id="node9" class="node">
<title>T27825</title>
<polygon fill="none" stroke="#0058ad" points="216.5,-162.5 216.5,-191.5 477.5,-191.5 477.5,-162.5 216.5,-162.5"/>
<text text-anchor="middle" x="259.5" y="-173.3" font-family="Times,serif" font-size="14.00" fill="#0058ad">r 1059 nil</text>
<polyline fill="none" stroke="#0058ad" points="302.5,-162.5 302.5,-191.5 "/>
<text text-anchor="middle" x="344" y="-173.3" font-family="Times,serif" font-size="14.00" fill="#0058ad">w 1059 1</text>
<polyline fill="none" stroke="#0058ad" points="385.5,-162.5 385.5,-191.5 "/>
<text text-anchor="middle" x="431.5" y="-173.3" font-family="Times,serif" font-size="14.00" fill="#0058ad">w 1037 10</text>
</g>
<!-- T27828&#45;&gt;T27825 -->
<g id="edge8" class="edge">
<title>T27828:f1&#45;&gt;T27825:f1</title>
<path fill="none" stroke="#5b00c0" d="M232,-258C286.17,-258 337.21,-250.77 343.38,-202.26"/>
<polygon fill="#5b00c0" stroke="#5b00c0" points="346.89,-202.19 344,-192 339.9,-201.77 346.89,-202.19"/>
<text text-anchor="middle" x="350.5" y="-213.8" font-family="Times,serif" font-size="14.00" fill="#5b00c0">rw</text>
</g>
<!-- T27833 -->
<g id="node10" class="node">
<title>T27833</title>
<polygon fill="none" stroke="#0058ad" points="78.5,-0.5 78.5,-29.5 401.5,-29.5 401.5,-0.5 78.5,-0.5"/>
<text text-anchor="middle" x="117" y="-11.3" font-family="Times,serif" font-size="14.00" fill="#0058ad">r 1059 2</text>
<polyline fill="none" stroke="#0058ad" points="155.5,-0.5 155.5,-29.5 "/>
<text text-anchor="middle" x="194" y="-11.3" font-family="Times,serif" font-size="14.00" fill="#0058ad">r 1059 2</text>
<polyline fill="none" stroke="#0058ad" points="232.5,-0.5 232.5,-29.5 "/>
<text text-anchor="middle" x="274" y="-11.3" font-family="Times,serif" font-size="14.00" fill="#0058ad">w 1059 3</text>
<polyline fill="none" stroke="#0058ad" points="315.5,-0.5 315.5,-29.5 "/>
<text text-anchor="middle" x="358.5" y="-11.3" font-family="Times,serif" font-size="14.00" fill="#0058ad">r 1058 nil</text>
</g>
<!-- T27828&#45;&gt;T27833 -->
<g id="edge6" class="edge">
<title>T27828:f1&#45;&gt;T27833:f2</title>
<path fill="none" stroke="#5b00c0" d="M188,-243C188,-192.33 172.12,-176.42 190,-129 199.07,-104.96 258.61,-68.1 271.53,-39.94"/>
<polygon fill="#5b00c0" stroke="#5b00c0" points="274.99,-40.55 274,-30 268.19,-38.86 274.99,-40.55"/>
<text text-anchor="middle" x="199.5" y="-132.8" font-family="Times,serif" font-size="14.00" fill="#5b00c0">rw</text>
</g>
<!-- T27829&#45;&gt;T27833 -->
<g id="edge10" class="edge">
<title>T27829:f1&#45;&gt;T27833:f0</title>
<path fill="none" stroke="#c000a5" d="M119,-81C119,-62.21 117.63,-55.12 117.16,-40.36"/>
<polygon fill="#c000a5" stroke="#c000a5" points="120.65,-39.95 117,-30 113.65,-40.05 120.65,-39.95"/>
<text text-anchor="middle" x="128.5" y="-51.8" font-family="Times,serif" font-size="14.00" fill="#c000a5">wr</text>
</g>
<!-- T27852&#45;&gt;T27855 -->
<g id="edge11" class="edge">
<title>T27852:f1&#45;&gt;T27855:f2</title>
<path fill="none" stroke="#5b00c0" d="M312,-648C312,-628.62 319.69,-622.2 322.21,-607.08"/>
<polygon fill="#5b00c0" stroke="#5b00c0" points="325.71,-607.24 323,-597 318.73,-606.7 325.71,-607.24"/>
<text text-anchor="middle" x="329.5" y="-618.8" font-family="Times,serif" font-size="14.00" fill="#5b00c0">rw</text>
</g>
<!-- T27865&#45;&gt;T27803 -->
<g id="edge12" class="edge">
<title>T27865:f0&#45;&gt;T27803:f1</title>
<path fill="none" stroke="#5b00c0" d="M300,-486C300,-462.37 325.85,-461.99 333.12,-444.91"/>
<polygon fill="#5b00c0" stroke="#5b00c0" points="336.57,-445.48 335,-435 329.7,-444.17 336.57,-445.48"/>
<text text-anchor="middle" x="335.5" y="-456.8" font-family="Times,serif" font-size="14.00" fill="#5b00c0">rw</text>
</g>
<!-- T27825&#45;&gt;T27849 -->
<g id="edge15" class="edge">
<title>T27825:f2&#45;&gt;T27849:f2</title>
<path fill="none" stroke="#c000a5" d="M479,-177C525.38,-177 546,-210.62 546,-257 546,-664 546,-664 546,-664 546,-750.4 369.43,-648.01 354.94,-718.92"/>
<polygon fill="#c000a5" stroke="#c000a5" points="351.45,-718.72 354,-729 358.42,-719.37 351.45,-718.72"/>
<text text-anchor="middle" x="555.5" y="-456.8" font-family="Times,serif" font-size="14.00" fill="#c000a5">wr</text>
</g>
<!-- T27825&#45;&gt;T27829 -->
<g id="edge14" class="edge">
<title>T27825:f0&#45;&gt;T27829:f1</title>
<path fill="none" stroke="#5b00c0" d="M259,-162C259,-160.65 193.54,-116.69 169.61,-101.28"/>
<polygon fill="#5b00c0" stroke="#5b00c0" points="171.36,-98.24 161,-96 167.7,-104.21 171.36,-98.24"/>
<text text-anchor="middle" x="242.5" y="-132.8" font-family="Times,serif" font-size="14.00" fill="#5b00c0">rw</text>
</g>
<!-- T27825&#45;&gt;T27833 -->
<g id="edge13" class="edge">
<title>T27825:f0&#45;&gt;T27833:f2</title>
<path fill="none" stroke="#5b00c0" d="M259,-162C259,-106.53 272.24,-90.89 273.84,-40.25"/>
<polygon fill="#5b00c0" stroke="#5b00c0" points="277.35,-40.05 274,-30 270.35,-39.94 277.35,-40.05"/>
<text text-anchor="middle" x="278.5" y="-92.3" font-family="Times,serif" font-size="14.00" fill="#5b00c0">rw</text>
</g>
<!-- T27833&#45;&gt;T27803 -->
<g id="edge16" class="edge">
<title>T27833:f3&#45;&gt;T27803:f1</title>
<path fill="none" stroke="#5b00c0" d="M403,-15C460.96,-15 506,-37.04 506,-95 506,-340 506,-340 506,-340 506,-403.68 451.12,-418.55 388.17,-419.89"/>
<polygon fill="#5b00c0" stroke="#5b00c0" points="387.96,-416.4 378,-420 388.04,-423.4 387.96,-416.4"/>
<text text-anchor="middle" x="515.5" y="-213.8" font-family="Times,serif" font-size="14.00" fill="#5b00c0">rw</text>
</g>
</g>
</svg>
