<?xml version="1.0" encoding="UTF-8" standalone="no"?>
<!DOCTYPE svg PUBLIC "-//W3C//DTD SVG 1.1//EN"
 "http://www.w3.org/Graphics/SVG/1.1/DTD/svg11.dtd">
<!-- Generated by graphviz version 2.43.0 (0)
 -->
<!-- Title: a_graph Pages: 1 -->
<svg width="337pt" height="200pt"
 viewBox="0.00 0.00 337.00 200.00" xmlns="http://www.w3.org/2000/svg" xmlns:xlink="http://www.w3.org/1999/xlink">
<g id="graph0" class="graph" transform="scale(1 1) rotate(0) translate(4 196)">
<title>a_graph</title>
<polygon fill="white" stroke="transparent" points="-4,4 -4,-196 333,-196 333,4 -4,4"/>
<!-- T1406 -->
<g id="node1" class="node">
<title>T1406</title>
<polygon fill="none" stroke="#0058ad" points="61,-162.5 61,-191.5 256,-191.5 256,-162.5 61,-162.5"/>
<text text-anchor="middle" x="90.5" y="-173.3" font-family="Times,serif" font-size="14.00" fill="#0058ad">r 58 2</text>
<polyline fill="none" stroke="#0058ad" points="120,-162.5 120,-191.5 "/>
<text text-anchor="middle" x="154" y="-173.3" font-family="Times,serif" font-size="14.00" fill="#0058ad">r 55 10</text>
<polyline fill="none" stroke="#0058ad" points="188,-162.5 188,-191.5 "/>
<text text-anchor="middle" x="222" y="-173.3" font-family="Times,serif" font-size="14.00" fill="#0058ad">r 60 nil</text>
</g>
<!-- T1433 -->
<g id="node2" class="node">
<title>T1433</title>
<polygon fill="none" stroke="#0058ad" points="54,-81.5 54,-110.5 329,-110.5 329,-81.5 54,-81.5"/>
<text text-anchor="middle" x="88" y="-92.3" font-family="Times,serif" font-size="14.00" fill="#0058ad">r 60 nil</text>
<polyline fill="none" stroke="#0058ad" points="122,-81.5 122,-110.5 "/>
<text text-anchor="middle" x="159" y="-92.3" font-family="Times,serif" font-size="14.00" fill="#0058ad">w 55 15</text>
<polyline fill="none" stroke="#0058ad" points="196,-81.5 196,-110.5 "/>
<text text-anchor="middle" x="230" y="-92.3" font-family="Times,serif" font-size="14.00" fill="#0058ad">r 58 nil</text>
<polyline fill="none" stroke="#0058ad" points="264,-81.5 264,-110.5 "/>
<text text-anchor="middle" x="296.5" y="-92.3" font-family="Times,serif" font-size="14.00" fill="#0058ad">w 60 2</text>
</g>
<!-- T1406&#45;&gt;T1433 -->
<g id="edge1" class="edge">
<title>T1406:f2&#45;&gt;T1433:f3</title>
<path fill="none" stroke="#5b00c0" d="M257.5,-177C288.11,-177 295.2,-151.23 296.32,-121.28"/>
<polygon fill="#5b00c0" stroke="#5b00c0" points="299.83,-121.06 296.5,-111 292.83,-120.94 299.83,-121.06"/>
<text text-anchor="middle" x="305" y="-132.8" font-family="Times,serif" font-size="14.00" fill="#5b00c0">rw</text>
</g>
<!-- T1397 -->
<g id="node3" class="node">
<title>T1397</title>
<polygon fill="none" stroke="#0058ad" points="0,-0.5 0,-29.5 65,-29.5 65,-0.5 0,-0.5"/>
<text text-anchor="middle" x="32.5" y="-11.3" font-family="Times,serif" font-size="14.00" fill="#0058ad">w 58 2</text>
</g>
<!-- T1433&#45;&gt;T1397 -->
<g id="edge2" class="edge">
<title>T1433:f2&#45;&gt;T1397:f0</title>
<path fill="none" stroke="#5b00c0" d="M230.5,-81C230.5,-7.14 144.41,-53.39 72.99,-32.79"/>
<polygon fill="#5b00c0" stroke="#5b00c0" points="74.06,-29.46 63.47,-29.6 71.83,-36.1 74.06,-29.46"/>
<text text-anchor="middle" x="237" y="-51.8" font-family="Times,serif" font-size="14.00" fill="#5b00c0">rw</text>
</g>
<!-- T1397&#45;&gt;T1406 -->
<g id="edge3" class="edge">
<title>T1397:f0&#45;&gt;T1406:f0</title>
<path fill="none" stroke="#c000a5" d="M28.8,-29.66C20.09,-67.13 2.37,-164.24 49.55,-175.86"/>
<polygon fill="#c000a5" stroke="#c000a5" points="49.17,-179.34 59.5,-177 49.96,-172.38 49.17,-179.34"/>
<text text-anchor="middle" x="29" y="-92.3" font-family="Times,serif" font-size="14.00" fill="#c000a5">wr</text>
</g>
</g>
</svg>
