<?xml version="1.0" encoding="UTF-8" standalone="no"?>
<!DOCTYPE svg PUBLIC "-//W3C//DTD SVG 1.1//EN"
 "http://www.w3.org/Graphics/SVG/1.1/DTD/svg11.dtd">
<!-- Generated by graphviz version 2.43.0 (0)
 -->
<!-- Title: a_graph Pages: 1 -->
<svg width="585pt" height="605pt"
 viewBox="0.00 0.00 585.00 605.00" xmlns="http://www.w3.org/2000/svg" xmlns:xlink="http://www.w3.org/1999/xlink">
<g id="graph0" class="graph" transform="scale(1 1) rotate(0) translate(4 601)">
<title>a_graph</title>
<polygon fill="white" stroke="transparent" points="-4,4 -4,-601 581,-601 581,4 -4,4"/>
<!-- T17896 -->
<g id="node1" class="node">
<title>T17896</title>
<polygon fill="none" stroke="#0058ad" points="128.5,-567.5 128.5,-596.5 347.5,-596.5 347.5,-567.5 128.5,-567.5"/>
<text text-anchor="middle" x="162.5" y="-578.3" font-family="Times,serif" font-size="14.00" fill="#0058ad">r 687 3</text>
<polyline fill="none" stroke="#0058ad" points="196.5,-567.5 196.5,-596.5 "/>
<text text-anchor="middle" x="235" y="-578.3" font-family="Times,serif" font-size="14.00" fill="#0058ad">r 686 nil</text>
<polyline fill="none" stroke="#0058ad" points="273.5,-567.5 273.5,-596.5 "/>
<text text-anchor="middle" x="310.5" y="-578.3" font-family="Times,serif" font-size="14.00" fill="#0058ad">w 685 3</text>
</g>
<!-- T17878 -->
<g id="node2" class="node">
<title>T17878</title>
<polygon fill="none" stroke="#0058ad" points="46.5,-486.5 46.5,-515.5 345.5,-515.5 345.5,-486.5 46.5,-486.5"/>
<text text-anchor="middle" x="85" y="-497.3" font-family="Times,serif" font-size="14.00" fill="#0058ad">r 624 11</text>
<polyline fill="none" stroke="#0058ad" points="123.5,-486.5 123.5,-515.5 "/>
<text text-anchor="middle" x="160.5" y="-497.3" font-family="Times,serif" font-size="14.00" fill="#0058ad">w 685 1</text>
<polyline fill="none" stroke="#0058ad" points="197.5,-486.5 197.5,-515.5 "/>
<text text-anchor="middle" x="234.5" y="-497.3" font-family="Times,serif" font-size="14.00" fill="#0058ad">w 686 3</text>
<polyline fill="none" stroke="#0058ad" points="271.5,-486.5 271.5,-515.5 "/>
<text text-anchor="middle" x="308.5" y="-497.3" font-family="Times,serif" font-size="14.00" fill="#0058ad">w 684 9</text>
</g>
<!-- T17896&#45;&gt;T17878 -->
<g id="edge2" class="edge">
<title>T17896:f1&#45;&gt;T17878:f2</title>
<path fill="none" stroke="#5b00c0" d="M235,-567C235,-548.23 235,-541.12 235,-526.35"/>
<polygon fill="#5b00c0" stroke="#5b00c0" points="238.5,-526 235,-516 231.5,-526 238.5,-526"/>
<text text-anchor="middle" x="244.5" y="-537.8" font-family="Times,serif" font-size="14.00" fill="#5b00c0">rw</text>
</g>
<!-- T17873 -->
<g id="node8" class="node">
<title>T17873</title>
<polygon fill="none" stroke="#0058ad" points="182,-81.5 182,-110.5 484,-110.5 484,-81.5 182,-81.5"/>
<text text-anchor="middle" x="219" y="-92.3" font-family="Times,serif" font-size="14.00" fill="#0058ad">w 686 1</text>
<polyline fill="none" stroke="#0058ad" points="256,-81.5 256,-110.5 "/>
<text text-anchor="middle" x="293" y="-92.3" font-family="Times,serif" font-size="14.00" fill="#0058ad">w 686 2</text>
<polyline fill="none" stroke="#0058ad" points="330,-81.5 330,-110.5 "/>
<text text-anchor="middle" x="368.5" y="-92.3" font-family="Times,serif" font-size="14.00" fill="#0058ad">r 687 nil</text>
<polyline fill="none" stroke="#0058ad" points="407,-81.5 407,-110.5 "/>
<text text-anchor="middle" x="445.5" y="-92.3" font-family="Times,serif" font-size="14.00" fill="#0058ad">r 687 nil</text>
</g>
<!-- T17896&#45;&gt;T17873 -->
<g id="edge1" class="edge">
<title>T17896:f1&#45;&gt;T17873:f1</title>
<path fill="none" stroke="#5b00c0" d="M235,-567C235,-530.39 558,-538.61 558,-502 558,-502 558,-502 558,-176 558,-103.59 472.54,-145.38 402,-129 381.64,-124.27 316.91,-132.35 298.15,-119.69"/>
<polygon fill="#5b00c0" stroke="#5b00c0" points="301.11,-117.82 293,-111 295.09,-121.39 301.11,-117.82"/>
<text text-anchor="middle" x="567.5" y="-335.3" font-family="Times,serif" font-size="14.00" fill="#5b00c0">rw</text>
</g>
<!-- T17885 -->
<g id="node4" class="node">
<title>T17885</title>
<polygon fill="none" stroke="#0058ad" points="293,-405.5 293,-434.5 521,-434.5 521,-405.5 293,-405.5"/>
<text text-anchor="middle" x="327" y="-416.3" font-family="Times,serif" font-size="14.00" fill="#0058ad">r 684 9</text>
<polyline fill="none" stroke="#0058ad" points="361,-405.5 361,-434.5 "/>
<text text-anchor="middle" x="399.5" y="-416.3" font-family="Times,serif" font-size="14.00" fill="#0058ad">r 687 nil</text>
<polyline fill="none" stroke="#0058ad" points="438,-405.5 438,-434.5 "/>
<text text-anchor="middle" x="479.5" y="-416.3" font-family="Times,serif" font-size="14.00" fill="#0058ad">w 684 10</text>
</g>
<!-- T17878&#45;&gt;T17885 -->
<g id="edge3" class="edge">
<title>T17878:f3&#45;&gt;T17885:f0</title>
<path fill="none" stroke="#c000a5" d="M309,-486C309,-465.91 321.58,-460.57 325.71,-445.31"/>
<polygon fill="#c000a5" stroke="#c000a5" points="329.23,-445.36 327,-435 322.28,-444.49 329.23,-445.36"/>
<text text-anchor="middle" x="332.5" y="-456.8" font-family="Times,serif" font-size="14.00" fill="#c000a5">wr</text>
</g>
<!-- T17876 -->
<g id="node3" class="node">
<title>T17876</title>
<polygon fill="none" stroke="#0058ad" points="374,-324.5 374,-353.5 448,-353.5 448,-324.5 374,-324.5"/>
<text text-anchor="middle" x="411" y="-335.3" font-family="Times,serif" font-size="14.00" fill="#0058ad">w 687 1</text>
</g>
<!-- T17879 -->
<g id="node5" class="node">
<title>T17879</title>
<polygon fill="none" stroke="#0058ad" points="158,-243.5 158,-272.5 442,-272.5 442,-243.5 158,-243.5"/>
<text text-anchor="middle" x="195" y="-254.3" font-family="Times,serif" font-size="14.00" fill="#0058ad">w 685 2</text>
<polyline fill="none" stroke="#0058ad" points="232,-243.5 232,-272.5 "/>
<text text-anchor="middle" x="266" y="-254.3" font-family="Times,serif" font-size="14.00" fill="#0058ad">r 687 1</text>
<polyline fill="none" stroke="#0058ad" points="300,-243.5 300,-272.5 "/>
<text text-anchor="middle" x="337" y="-254.3" font-family="Times,serif" font-size="14.00" fill="#0058ad">w 687 2</text>
<polyline fill="none" stroke="#0058ad" points="374,-243.5 374,-272.5 "/>
<text text-anchor="middle" x="408" y="-254.3" font-family="Times,serif" font-size="14.00" fill="#0058ad">r 684 8</text>
</g>
<!-- T17876&#45;&gt;T17879 -->
<g id="edge4" class="edge">
<title>T17876:f0&#45;&gt;T17879:f1</title>
<path fill="none" stroke="#c000a5" d="M396.57,-324.19C385.18,-313.37 368.37,-299.21 351,-291 336.82,-284.29 289.57,-289.35 272.35,-281.12"/>
<polygon fill="#c000a5" stroke="#c000a5" points="274.92,-278.72 266,-273 269.4,-283.03 274.92,-278.72"/>
<text text-anchor="middle" x="383.5" y="-294.8" font-family="Times,serif" font-size="14.00" fill="#c000a5">wr</text>
</g>
<!-- T17885&#45;&gt;T17876 -->
<g id="edge7" class="edge">
<title>T17885:f1&#45;&gt;T17876:f0</title>
<path fill="none" stroke="#5b00c0" d="M399,-405C399,-391.13 401.6,-375.88 404.38,-363.53"/>
<polygon fill="#5b00c0" stroke="#5b00c0" points="407.84,-364.09 406.8,-353.54 401.04,-362.43 407.84,-364.09"/>
<text text-anchor="middle" x="411.5" y="-375.8" font-family="Times,serif" font-size="14.00" fill="#5b00c0">rw</text>
</g>
<!-- T17885&#45;&gt;T17879 -->
<g id="edge6" class="edge">
<title>T17885:f1&#45;&gt;T17879:f2</title>
<path fill="none" stroke="#5b00c0" d="M399,-405C399,-372.31 360.44,-383.33 346,-354 331.62,-324.81 335.81,-311.93 336.81,-283.34"/>
<polygon fill="#5b00c0" stroke="#5b00c0" points="340.32,-283.06 337,-273 333.32,-282.94 340.32,-283.06"/>
<text text-anchor="middle" x="355.5" y="-335.3" font-family="Times,serif" font-size="14.00" fill="#5b00c0">rw</text>
</g>
<!-- T17882 -->
<g id="node7" class="node">
<title>T17882</title>
<polygon fill="none" stroke="#0058ad" points="220,-0.5 220,-29.5 362,-29.5 362,-0.5 220,-0.5"/>
<text text-anchor="middle" x="257" y="-11.3" font-family="Times,serif" font-size="14.00" fill="#0058ad">w 687 3</text>
<polyline fill="none" stroke="#0058ad" points="294,-0.5 294,-29.5 "/>
<text text-anchor="middle" x="328" y="-11.3" font-family="Times,serif" font-size="14.00" fill="#0058ad">r 687 3</text>
</g>
<!-- T17885&#45;&gt;T17882 -->
<g id="edge5" class="edge">
<title>T17885:f1&#45;&gt;T17882:f0</title>
<path fill="none" stroke="#5b00c0" d="M399,-405C399,-397.76 512,-347.24 512,-340 512,-340 512,-340 512,-95 512,-84.51 502.38,-85.7 493,-81 447.75,-58.33 433.42,-58.92 384,-48 359.75,-42.64 281.38,-54.59 261.58,-38.92"/>
<polygon fill="#5b00c0" stroke="#5b00c0" points="264.68,-37.3 257,-30 258.45,-40.49 264.68,-37.3"/>
<text text-anchor="middle" x="521.5" y="-213.8" font-family="Times,serif" font-size="14.00" fill="#5b00c0">rw</text>
</g>
<!-- T17887 -->
<g id="node6" class="node">
<title>T17887</title>
<polygon fill="none" stroke="#0058ad" points="28,-162.5 28,-191.5 324,-191.5 324,-162.5 28,-162.5"/>
<text text-anchor="middle" x="62" y="-173.3" font-family="Times,serif" font-size="14.00" fill="#0058ad">r 684 8</text>
<polyline fill="none" stroke="#0058ad" points="96,-162.5 96,-191.5 "/>
<text text-anchor="middle" x="134.5" y="-173.3" font-family="Times,serif" font-size="14.00" fill="#0058ad">r 686 nil</text>
<polyline fill="none" stroke="#0058ad" points="173,-162.5 173,-191.5 "/>
<text text-anchor="middle" x="214.5" y="-173.3" font-family="Times,serif" font-size="14.00" fill="#0058ad">w 684 11</text>
<polyline fill="none" stroke="#0058ad" points="256,-162.5 256,-191.5 "/>
<text text-anchor="middle" x="290" y="-173.3" font-family="Times,serif" font-size="14.00" fill="#0058ad">r 687 3</text>
</g>
<!-- T17879&#45;&gt;T17887 -->
<g id="edge8" class="edge">
<title>T17879:f3&#45;&gt;T17887:f2</title>
<path fill="none" stroke="#5b00c0" d="M408,-243C408,-225.86 349.59,-229.31 333,-225 284,-212.27 224.12,-241.76 215.94,-202.21"/>
<polygon fill="#5b00c0" stroke="#5b00c0" points="219.4,-201.64 215,-192 212.43,-202.28 219.4,-201.64"/>
<text text-anchor="middle" x="342.5" y="-213.8" font-family="Times,serif" font-size="14.00" fill="#5b00c0">rw</text>
</g>
<!-- T17887&#45;&gt;T17878 -->
<g id="edge10" class="edge">
<title>T17887:f1&#45;&gt;T17878:f2</title>
<path fill="none" stroke="#5b00c0" d="M134,-192C134,-220.94 130,-228.06 130,-257 130,-421 130,-421 130,-421 130,-472.03 220.75,-436.92 233.52,-475.83"/>
<polygon fill="#5b00c0" stroke="#5b00c0" points="230.09,-476.61 235,-486 237.02,-475.6 230.09,-476.61"/>
<text text-anchor="middle" x="139.5" y="-335.3" font-family="Times,serif" font-size="14.00" fill="#5b00c0">rw</text>
</g>
<!-- T17887&#45;&gt;T17873 -->
<g id="edge9" class="edge">
<title>T17887:f1&#45;&gt;T17873:f1</title>
<path fill="none" stroke="#5b00c0" d="M134,-162C134,-91.56 277.26,-175.76 291.81,-121.02"/>
<polygon fill="#5b00c0" stroke="#5b00c0" points="295.3,-121.34 293,-111 288.35,-120.52 295.3,-121.34"/>
<text text-anchor="middle" x="296.5" y="-132.8" font-family="Times,serif" font-size="14.00" fill="#5b00c0">rw</text>
</g>
<!-- T17882&#45;&gt;T17896 -->
<g id="edge12" class="edge">
<title>T17882:f0&#45;&gt;T17896:f0</title>
<path fill="none" stroke="#c000a5" d="M219,-15C167.19,-15 0,-43.19 0,-95 0,-502 0,-502 0,-502 0,-565.32 54.32,-580.51 116.89,-581.89"/>
<polygon fill="#c000a5" stroke="#c000a5" points="116.96,-585.39 127,-582 117.04,-578.39 116.96,-585.39"/>
<text text-anchor="middle" x="9.5" y="-294.8" font-family="Times,serif" font-size="14.00" fill="#c000a5">wr</text>
</g>
<!-- T17882&#45;&gt;T17887 -->
<g id="edge11" class="edge">
<title>T17882:f0&#45;&gt;T17887:f3</title>
<path fill="none" stroke="#c000a5" d="M219,-15C208.9,-15 119.63,-61.41 154,-111 188.62,-160.95 278.59,-104.84 289.01,-151.95"/>
<polygon fill="#c000a5" stroke="#c000a5" points="285.54,-152.39 290,-162 292.5,-151.71 285.54,-152.39"/>
<text text-anchor="middle" x="163.5" y="-92.3" font-family="Times,serif" font-size="14.00" fill="#c000a5">wr</text>
</g>
<!-- T17873&#45;&gt;T17876 -->
<g id="edge15" class="edge">
<title>T17873:f2&#45;&gt;T17876:f0</title>
<path fill="none" stroke="#5b00c0" d="M369,-111C369,-121.13 377.28,-120.63 383,-129 416.28,-177.71 435.33,-186.12 451,-243 454.54,-255.85 454.59,-260.16 451,-273 446.65,-288.58 437.51,-304.14 429.06,-316.23"/>
<polygon fill="#5b00c0" stroke="#5b00c0" points="426.18,-314.24 423.11,-324.38 431.84,-318.37 426.18,-314.24"/>
<text text-anchor="middle" x="454.5" y="-213.8" font-family="Times,serif" font-size="14.00" fill="#5b00c0">rw</text>
</g>
<!-- T17873&#45;&gt;T17879 -->
<g id="edge14" class="edge">
<title>T17873:f2&#45;&gt;T17879:f2</title>
<path fill="none" stroke="#5b00c0" d="M369,-111C369,-162.23 372.95,-178.25 352,-225 349.67,-230.2 345.4,-231.98 342.01,-234.23"/>
<polygon fill="#5b00c0" stroke="#5b00c0" points="338.92,-232.58 337,-243 345,-236.06 338.92,-232.58"/>
<text text-anchor="middle" x="377.5" y="-173.3" font-family="Times,serif" font-size="14.00" fill="#5b00c0">rw</text>
</g>
<!-- T17873&#45;&gt;T17882 -->
<g id="edge13" class="edge">
<title>T17873:f2&#45;&gt;T17882:f0</title>
<path fill="none" stroke="#5b00c0" d="M369,-81C369,-30.15 272.2,-77.04 258.58,-39.94"/>
<polygon fill="#5b00c0" stroke="#5b00c0" points="262.03,-39.32 257,-30 255.12,-40.43 262.03,-39.32"/>
<text text-anchor="middle" x="370.5" y="-51.8" font-family="Times,serif" font-size="14.00" fill="#5b00c0">rw</text>
</g>
</g>
</svg>
