<?xml version="1.0" encoding="UTF-8" standalone="no"?>
<!DOCTYPE svg PUBLIC "-//W3C//DTD SVG 1.1//EN"
 "http://www.w3.org/Graphics/SVG/1.1/DTD/svg11.dtd">
<!-- Generated by graphviz version 2.43.0 (0)
 -->
<!-- Title: a_graph Pages: 1 -->
<svg width="500pt" height="362pt"
 viewBox="0.00 0.00 500.00 362.00" xmlns="http://www.w3.org/2000/svg" xmlns:xlink="http://www.w3.org/1999/xlink">
<g id="graph0" class="graph" transform="scale(1 1) rotate(0) translate(4 358)">
<title>a_graph</title>
<polygon fill="white" stroke="transparent" points="-4,4 -4,-358 496,-358 496,4 -4,4"/>
<!-- T17006 -->
<g id="node1" class="node">
<title>T17006</title>
<polygon fill="none" stroke="#0058ad" points="205,-324.5 205,-353.5 492,-353.5 492,-324.5 205,-324.5"/>
<text text-anchor="middle" x="243.5" y="-335.3" font-family="Times,serif" font-size="14.00" fill="#0058ad">r 655 nil</text>
<polyline fill="none" stroke="#0058ad" points="282,-324.5 282,-353.5 "/>
<text text-anchor="middle" x="316" y="-335.3" font-family="Times,serif" font-size="14.00" fill="#0058ad">r 653 6</text>
<polyline fill="none" stroke="#0058ad" points="350,-324.5 350,-353.5 "/>
<text text-anchor="middle" x="387" y="-335.3" font-family="Times,serif" font-size="14.00" fill="#0058ad">w 655 1</text>
<polyline fill="none" stroke="#0058ad" points="424,-324.5 424,-353.5 "/>
<text text-anchor="middle" x="458" y="-335.3" font-family="Times,serif" font-size="14.00" fill="#0058ad">r 653 6</text>
</g>
<!-- T17018 -->
<g id="node2" class="node">
<title>T17018</title>
<polygon fill="none" stroke="#0058ad" points="0,-243.5 0,-272.5 151,-272.5 151,-243.5 0,-243.5"/>
<text text-anchor="middle" x="37" y="-254.3" font-family="Times,serif" font-size="14.00" fill="#0058ad">w 655 6</text>
<polyline fill="none" stroke="#0058ad" points="74,-243.5 74,-272.5 "/>
<text text-anchor="middle" x="112.5" y="-254.3" font-family="Times,serif" font-size="14.00" fill="#0058ad">r 651 nil</text>
</g>
<!-- T17006&#45;&gt;T17018 -->
<g id="edge1" class="edge">
<title>T17006:f0&#45;&gt;T17018:f0</title>
<path fill="none" stroke="#5b00c0" d="M203.5,-339C167.03,-339 57.7,-317.2 39.18,-282.97"/>
<polygon fill="#5b00c0" stroke="#5b00c0" points="42.48,-281.75 36.5,-273 35.71,-283.57 42.48,-281.75"/>
<text text-anchor="middle" x="75" y="-294.8" font-family="Times,serif" font-size="14.00" fill="#5b00c0">rw</text>
</g>
<!-- T16995 -->
<g id="node4" class="node">
<title>T16995</title>
<polygon fill="none" stroke="#0058ad" points="6.5,-162.5 6.5,-191.5 240.5,-191.5 240.5,-162.5 6.5,-162.5"/>
<text text-anchor="middle" x="43.5" y="-173.3" font-family="Times,serif" font-size="14.00" fill="#0058ad">w 651 1</text>
<polyline fill="none" stroke="#0058ad" points="80.5,-162.5 80.5,-191.5 "/>
<text text-anchor="middle" x="122" y="-173.3" font-family="Times,serif" font-size="14.00" fill="#0058ad">w 652 15</text>
<polyline fill="none" stroke="#0058ad" points="163.5,-162.5 163.5,-191.5 "/>
<text text-anchor="middle" x="202" y="-173.3" font-family="Times,serif" font-size="14.00" fill="#0058ad">r 652 15</text>
</g>
<!-- T17018&#45;&gt;T16995 -->
<g id="edge2" class="edge">
<title>T17018:f1&#45;&gt;T16995:f0</title>
<path fill="none" stroke="#5b00c0" d="M112.5,-243C112.5,-208.89 57.29,-225.51 45.64,-202.1"/>
<polygon fill="#5b00c0" stroke="#5b00c0" points="49,-201.06 43.5,-192 42.15,-202.51 49,-201.06"/>
<text text-anchor="middle" x="111" y="-213.8" font-family="Times,serif" font-size="14.00" fill="#5b00c0">rw</text>
</g>
<!-- T17002 -->
<g id="node3" class="node">
<title>T17002</title>
<polygon fill="none" stroke="#0058ad" points="8,-0.5 8,-29.5 319,-29.5 319,-0.5 8,-0.5"/>
<text text-anchor="middle" x="46.5" y="-11.3" font-family="Times,serif" font-size="14.00" fill="#0058ad">r 652 15</text>
<polyline fill="none" stroke="#0058ad" points="85,-0.5 85,-29.5 "/>
<text text-anchor="middle" x="123.5" y="-11.3" font-family="Times,serif" font-size="14.00" fill="#0058ad">r 652 15</text>
<polyline fill="none" stroke="#0058ad" points="162,-0.5 162,-29.5 "/>
<text text-anchor="middle" x="199" y="-11.3" font-family="Times,serif" font-size="14.00" fill="#0058ad">w 653 6</text>
<polyline fill="none" stroke="#0058ad" points="236,-0.5 236,-29.5 "/>
<text text-anchor="middle" x="277.5" y="-11.3" font-family="Times,serif" font-size="14.00" fill="#0058ad">w 652 16</text>
</g>
<!-- T17002&#45;&gt;T17006 -->
<g id="edge3" class="edge">
<title>T17002:f2&#45;&gt;T17006:f1</title>
<path fill="none" stroke="#c000a5" d="M199.5,-30C199.5,-51.27 272.96,-42.5 293.5,-48 418.21,-81.41 407.5,-68.79 407.5,-95 407.5,-259 407.5,-259 407.5,-259 407.5,-305.15 329.31,-278.9 317.1,-313.74"/>
<polygon fill="#c000a5" stroke="#c000a5" points="313.58,-313.58 315.5,-324 320.5,-314.66 313.58,-313.58"/>
<text text-anchor="middle" x="417" y="-173.3" font-family="Times,serif" font-size="14.00" fill="#c000a5">wr</text>
</g>
<!-- T16995&#45;&gt;T17002 -->
<g id="edge5" class="edge">
<title>T16995:f1&#45;&gt;T17002:f0</title>
<path fill="none" stroke="#c000a5" d="M121.5,-162C121.5,-124.93 73.65,-143.32 55.5,-111 39.56,-82.63 45,-69.09 46.27,-40.37"/>
<polygon fill="#c000a5" stroke="#c000a5" points="49.77,-40.08 46.5,-30 42.78,-39.92 49.77,-40.08"/>
<text text-anchor="middle" x="65" y="-92.3" font-family="Times,serif" font-size="14.00" fill="#c000a5">wr</text>
</g>
<!-- T16999 -->
<g id="node5" class="node">
<title>T16999</title>
<polygon fill="none" stroke="#0058ad" points="83.5,-81.5 83.5,-110.5 379.5,-110.5 379.5,-81.5 83.5,-81.5"/>
<text text-anchor="middle" x="122" y="-92.3" font-family="Times,serif" font-size="14.00" fill="#0058ad">r 652 15</text>
<polyline fill="none" stroke="#0058ad" points="160.5,-81.5 160.5,-110.5 "/>
<text text-anchor="middle" x="199" y="-92.3" font-family="Times,serif" font-size="14.00" fill="#0058ad">r 652 15</text>
<polyline fill="none" stroke="#0058ad" points="237.5,-81.5 237.5,-110.5 "/>
<text text-anchor="middle" x="271.5" y="-92.3" font-family="Times,serif" font-size="14.00" fill="#0058ad">r 653 3</text>
<polyline fill="none" stroke="#0058ad" points="305.5,-81.5 305.5,-110.5 "/>
<text text-anchor="middle" x="342.5" y="-92.3" font-family="Times,serif" font-size="14.00" fill="#0058ad">w 653 5</text>
</g>
<!-- T16995&#45;&gt;T16999 -->
<g id="edge4" class="edge">
<title>T16995:f1&#45;&gt;T16999:f0</title>
<path fill="none" stroke="#c000a5" d="M121.5,-162C121.5,-143.23 121.5,-136.12 121.5,-121.35"/>
<polygon fill="#c000a5" stroke="#c000a5" points="125,-121 121.5,-111 118,-121 125,-121"/>
<text text-anchor="middle" x="131" y="-132.8" font-family="Times,serif" font-size="14.00" fill="#c000a5">wr</text>
</g>
<!-- T16999&#45;&gt;T17002 -->
<g id="edge6" class="edge">
<title>T16999:f0&#45;&gt;T17002:f3</title>
<path fill="none" stroke="#5b00c0" d="M121.5,-81C121.5,-11.9 261.48,-93.4 276.24,-40.19"/>
<polygon fill="#5b00c0" stroke="#5b00c0" points="279.75,-40.35 277.5,-30 272.8,-39.5 279.75,-40.35"/>
<text text-anchor="middle" x="280" y="-51.8" font-family="Times,serif" font-size="14.00" fill="#5b00c0">rw</text>
</g>
</g>
</svg>
