<?xml version="1.0" encoding="UTF-8" standalone="no"?>
<!DOCTYPE svg PUBLIC "-//W3C//DTD SVG 1.1//EN"
 "http://www.w3.org/Graphics/SVG/1.1/DTD/svg11.dtd">
<!-- Generated by graphviz version 2.43.0 (0)
 -->
<!-- Title: a_graph Pages: 1 -->
<svg width="322pt" height="119pt"
 viewBox="0.00 0.00 321.50 119.00" xmlns="http://www.w3.org/2000/svg" xmlns:xlink="http://www.w3.org/1999/xlink">
<g id="graph0" class="graph" transform="scale(1 1) rotate(0) translate(4 115)">
<title>a_graph</title>
<polygon fill="white" stroke="transparent" points="-4,4 -4,-115 317.5,-115 317.5,4 -4,4"/>
<!-- T17833 -->
<g id="node1" class="node">
<title>T17833</title>
<polygon fill="none" stroke="#0058ad" points="2.5,-81.5 2.5,-110.5 313.5,-110.5 313.5,-81.5 2.5,-81.5"/>
<text text-anchor="middle" x="41" y="-92.3" font-family="Times,serif" font-size="14.00" fill="#0058ad">r 684 nil</text>
<polyline fill="none" stroke="#0058ad" points="79.5,-81.5 79.5,-110.5 "/>
<text text-anchor="middle" x="121" y="-92.3" font-family="Times,serif" font-size="14.00" fill="#0058ad">w 680 12</text>
<polyline fill="none" stroke="#0058ad" points="162.5,-81.5 162.5,-110.5 "/>
<text text-anchor="middle" x="201" y="-92.3" font-family="Times,serif" font-size="14.00" fill="#0058ad">r 684 nil</text>
<polyline fill="none" stroke="#0058ad" points="239.5,-81.5 239.5,-110.5 "/>
<text text-anchor="middle" x="276.5" y="-92.3" font-family="Times,serif" font-size="14.00" fill="#0058ad">w 684 2</text>
</g>
<!-- T17827 -->
<g id="node2" class="node">
<title>T17827</title>
<polygon fill="none" stroke="#0058ad" points="0,-0.5 0,-29.5 234,-29.5 234,-0.5 0,-0.5"/>
<text text-anchor="middle" x="41.5" y="-11.3" font-family="Times,serif" font-size="14.00" fill="#0058ad">w 682 16</text>
<polyline fill="none" stroke="#0058ad" points="83,-0.5 83,-29.5 "/>
<text text-anchor="middle" x="121.5" y="-11.3" font-family="Times,serif" font-size="14.00" fill="#0058ad">r 684 nil</text>
<polyline fill="none" stroke="#0058ad" points="160,-0.5 160,-29.5 "/>
<text text-anchor="middle" x="197" y="-11.3" font-family="Times,serif" font-size="14.00" fill="#0058ad">w 684 1</text>
</g>
<!-- T17833&#45;&gt;T17827 -->
<g id="edge1" class="edge">
<title>T17833:f0&#45;&gt;T17827:f2</title>
<path fill="none" stroke="#5b00c0" d="M41,-81C41,-48.09 168.02,-62.74 192.83,-39.12"/>
<polygon fill="#5b00c0" stroke="#5b00c0" points="196.02,-40.55 197,-30 189.66,-37.64 196.02,-40.55"/>
<text text-anchor="middle" x="179.5" y="-51.8" font-family="Times,serif" font-size="14.00" fill="#5b00c0">rw</text>
</g>
<!-- T17827&#45;&gt;T17833 -->
<g id="edge2" class="edge">
<title>T17827:f1&#45;&gt;T17833:f3</title>
<path fill="none" stroke="#5b00c0" d="M122,-30C122,-62.55 162.01,-38.03 193,-48 227.45,-59.09 268.12,-44.38 275.74,-70.87"/>
<polygon fill="#5b00c0" stroke="#5b00c0" points="272.29,-71.51 277,-81 279.24,-70.64 272.29,-71.51"/>
<text text-anchor="middle" x="279.5" y="-51.8" font-family="Times,serif" font-size="14.00" fill="#5b00c0">rw</text>
</g>
</g>
</svg>
