<?xml version="1.0" encoding="UTF-8" standalone="no"?>
<!DOCTYPE svg PUBLIC "-//W3C//DTD SVG 1.1//EN"
 "http://www.w3.org/Graphics/SVG/1.1/DTD/svg11.dtd">
<!-- Generated by graphviz version 2.43.0 (0)
 -->
<!-- Title: a_graph Pages: 1 -->
<svg width="386pt" height="200pt"
 viewBox="0.00 0.00 386.00 200.00" xmlns="http://www.w3.org/2000/svg" xmlns:xlink="http://www.w3.org/1999/xlink">
<g id="graph0" class="graph" transform="scale(1 1) rotate(0) translate(4 196)">
<title>a_graph</title>
<polygon fill="white" stroke="transparent" points="-4,4 -4,-196 382,-196 382,4 -4,4"/>
<!-- T16385 -->
<g id="node1" class="node">
<title>T16385</title>
<polygon fill="none" stroke="#0058ad" points="76,-162.5 76,-191.5 378,-191.5 378,-162.5 76,-162.5"/>
<text text-anchor="middle" x="114.5" y="-173.3" font-family="Times,serif" font-size="14.00" fill="#0058ad">r 632 nil</text>
<polyline fill="none" stroke="#0058ad" points="153,-162.5 153,-191.5 "/>
<text text-anchor="middle" x="187" y="-173.3" font-family="Times,serif" font-size="14.00" fill="#0058ad">r 626 6</text>
<polyline fill="none" stroke="#0058ad" points="221,-162.5 221,-191.5 "/>
<text text-anchor="middle" x="258" y="-173.3" font-family="Times,serif" font-size="14.00" fill="#0058ad">w 630 1</text>
<polyline fill="none" stroke="#0058ad" points="295,-162.5 295,-191.5 "/>
<text text-anchor="middle" x="336.5" y="-173.3" font-family="Times,serif" font-size="14.00" fill="#0058ad">w 626 10</text>
</g>
<!-- T16391 -->
<g id="node2" class="node">
<title>T16391</title>
<polygon fill="none" stroke="#0058ad" points="0,-81.5 0,-110.5 148,-110.5 148,-81.5 0,-81.5"/>
<text text-anchor="middle" x="37" y="-92.3" font-family="Times,serif" font-size="14.00" fill="#0058ad">w 631 3</text>
<polyline fill="none" stroke="#0058ad" points="74,-81.5 74,-110.5 "/>
<text text-anchor="middle" x="111" y="-92.3" font-family="Times,serif" font-size="14.00" fill="#0058ad">w 632 4</text>
</g>
<!-- T16385&#45;&gt;T16391 -->
<g id="edge1" class="edge">
<title>T16385:f0&#45;&gt;T16391:f1</title>
<path fill="none" stroke="#5b00c0" d="M114,-162C114,-143.2 111.94,-136.13 111.24,-121.36"/>
<polygon fill="#5b00c0" stroke="#5b00c0" points="114.73,-120.92 111,-111 107.73,-121.08 114.73,-120.92"/>
<text text-anchor="middle" x="123.5" y="-132.8" font-family="Times,serif" font-size="14.00" fill="#5b00c0">rw</text>
</g>
<!-- T16397 -->
<g id="node3" class="node">
<title>T16397</title>
<polygon fill="none" stroke="#0058ad" points="77.5,-0.5 77.5,-29.5 296.5,-29.5 296.5,-0.5 77.5,-0.5"/>
<text text-anchor="middle" x="111.5" y="-11.3" font-family="Times,serif" font-size="14.00" fill="#0058ad">r 631 3</text>
<polyline fill="none" stroke="#0058ad" points="145.5,-0.5 145.5,-29.5 "/>
<text text-anchor="middle" x="182.5" y="-11.3" font-family="Times,serif" font-size="14.00" fill="#0058ad">w 632 5</text>
<polyline fill="none" stroke="#0058ad" points="219.5,-0.5 219.5,-29.5 "/>
<text text-anchor="middle" x="258" y="-11.3" font-family="Times,serif" font-size="14.00" fill="#0058ad">r 630 nil</text>
</g>
<!-- T16385&#45;&gt;T16397 -->
<g id="edge2" class="edge">
<title>T16385:f0&#45;&gt;T16397:f1</title>
<path fill="none" stroke="#5b00c0" d="M114,-162C114,-149.02 128.38,-153.71 137,-144 170.82,-105.88 180.75,-86.98 181.88,-40.1"/>
<polygon fill="#5b00c0" stroke="#5b00c0" points="185.39,-40.04 182,-30 178.39,-39.96 185.39,-40.04"/>
<text text-anchor="middle" x="186.5" y="-92.3" font-family="Times,serif" font-size="14.00" fill="#5b00c0">rw</text>
</g>
<!-- T16391&#45;&gt;T16397 -->
<g id="edge3" class="edge">
<title>T16391:f0&#45;&gt;T16397:f0</title>
<path fill="none" stroke="#c000a5" d="M37,-81C37,-50.65 40.91,-22.01 65.83,-16.11"/>
<polygon fill="#c000a5" stroke="#c000a5" points="66.44,-19.56 76,-15 65.68,-12.6 66.44,-19.56"/>
<text text-anchor="middle" x="49.5" y="-51.8" font-family="Times,serif" font-size="14.00" fill="#c000a5">wr</text>
</g>
<!-- T16397&#45;&gt;T16385 -->
<g id="edge4" class="edge">
<title>T16397:f2&#45;&gt;T16385:f2</title>
<path fill="none" stroke="#5b00c0" d="M258,-30C258,-85.11 258,-101.4 258,-151.81"/>
<polygon fill="#5b00c0" stroke="#5b00c0" points="254.5,-152 258,-162 261.5,-152 254.5,-152"/>
<text text-anchor="middle" x="267.5" y="-92.3" font-family="Times,serif" font-size="14.00" fill="#5b00c0">rw</text>
</g>
</g>
</svg>
