<?xml version="1.0" encoding="UTF-8" standalone="no"?>
<!DOCTYPE svg PUBLIC "-//W3C//DTD SVG 1.1//EN"
 "http://www.w3.org/Graphics/SVG/1.1/DTD/svg11.dtd">
<!-- Generated by graphviz version 2.43.0 (0)
 -->
<!-- Title: a_graph Pages: 1 -->
<svg width="235pt" height="200pt"
 viewBox="0.00 0.00 235.00 200.00" xmlns="http://www.w3.org/2000/svg" xmlns:xlink="http://www.w3.org/1999/xlink">
<g id="graph0" class="graph" transform="scale(1 1) rotate(0) translate(4 196)">
<title>a_graph</title>
<polygon fill="white" stroke="transparent" points="-4,4 -4,-196 231,-196 231,4 -4,4"/>
<!-- T12735 -->
<g id="node1" class="node">
<title>T12735</title>
<polygon fill="none" stroke="#0058ad" points="2,-162.5 2,-191.5 227,-191.5 227,-162.5 2,-162.5"/>
<text text-anchor="middle" x="39" y="-173.3" font-family="Times,serif" font-size="14.00" fill="#0058ad">w 490 1</text>
<polyline fill="none" stroke="#0058ad" points="76,-162.5 76,-191.5 "/>
<text text-anchor="middle" x="114.5" y="-173.3" font-family="Times,serif" font-size="14.00" fill="#0058ad">r 489 nil</text>
<polyline fill="none" stroke="#0058ad" points="153,-162.5 153,-191.5 "/>
<text text-anchor="middle" x="190" y="-173.3" font-family="Times,serif" font-size="14.00" fill="#0058ad">w 489 1</text>
</g>
<!-- T12765 -->
<g id="node3" class="node">
<title>T12765</title>
<polygon fill="none" stroke="#0058ad" points="0,-81.5 0,-110.5 151,-110.5 151,-81.5 0,-81.5"/>
<text text-anchor="middle" x="38.5" y="-92.3" font-family="Times,serif" font-size="14.00" fill="#0058ad">r 492 nil</text>
<polyline fill="none" stroke="#0058ad" points="77,-81.5 77,-110.5 "/>
<text text-anchor="middle" x="114" y="-92.3" font-family="Times,serif" font-size="14.00" fill="#0058ad">w 489 8</text>
</g>
<!-- T12735&#45;&gt;T12765 -->
<g id="edge1" class="edge">
<title>T12735:f1&#45;&gt;T12765:f1</title>
<path fill="none" stroke="#5b00c0" d="M114.5,-162C114.5,-143.23 114.5,-136.12 114.5,-121.35"/>
<polygon fill="#5b00c0" stroke="#5b00c0" points="118,-121 114.5,-111 111,-121 118,-121"/>
<text text-anchor="middle" x="124" y="-132.8" font-family="Times,serif" font-size="14.00" fill="#5b00c0">rw</text>
</g>
<!-- T12757 -->
<g id="node2" class="node">
<title>T12757</title>
<polygon fill="none" stroke="#0058ad" points="8,-0.5 8,-29.5 227,-29.5 227,-0.5 8,-0.5"/>
<text text-anchor="middle" x="42" y="-11.3" font-family="Times,serif" font-size="14.00" fill="#0058ad">r 234 9</text>
<polyline fill="none" stroke="#0058ad" points="76,-0.5 76,-29.5 "/>
<text text-anchor="middle" x="114.5" y="-11.3" font-family="Times,serif" font-size="14.00" fill="#0058ad">r 489 nil</text>
<polyline fill="none" stroke="#0058ad" points="153,-0.5 153,-29.5 "/>
<text text-anchor="middle" x="190" y="-11.3" font-family="Times,serif" font-size="14.00" fill="#0058ad">w 492 1</text>
</g>
<!-- T12757&#45;&gt;T12735 -->
<g id="edge2" class="edge">
<title>T12757:f1&#45;&gt;T12735:f2</title>
<path fill="none" stroke="#5b00c0" d="M114.5,-30C114.5,-58.69 157.9,-26.15 176.5,-48 207.33,-84.21 192.87,-107.59 190.74,-151.9"/>
<polygon fill="#5b00c0" stroke="#5b00c0" points="187.24,-151.92 190.5,-162 194.24,-152.09 187.24,-151.92"/>
<text text-anchor="middle" x="205" y="-92.3" font-family="Times,serif" font-size="14.00" fill="#5b00c0">rw</text>
</g>
<!-- T12757&#45;&gt;T12765 -->
<g id="edge3" class="edge">
<title>T12757:f1&#45;&gt;T12765:f1</title>
<path fill="none" stroke="#5b00c0" d="M114.5,-30C114.5,-48.77 114.5,-55.88 114.5,-70.65"/>
<polygon fill="#5b00c0" stroke="#5b00c0" points="111,-71 114.5,-81 118,-71 111,-71"/>
<text text-anchor="middle" x="124" y="-51.8" font-family="Times,serif" font-size="14.00" fill="#5b00c0">rw</text>
</g>
<!-- T12765&#45;&gt;T12757 -->
<g id="edge4" class="edge">
<title>T12765:f0&#45;&gt;T12757:f2</title>
<path fill="none" stroke="#5b00c0" d="M38.5,-81C38.5,-59.29 114.36,-71.08 134.5,-63 145.83,-58.45 147.02,-54.26 157.5,-48 167.81,-41.84 180.35,-43.87 186.58,-39.29"/>
<polygon fill="#5b00c0" stroke="#5b00c0" points="189.84,-40.57 190.5,-30 183.39,-37.86 189.84,-40.57"/>
<text text-anchor="middle" x="167" y="-51.8" font-family="Times,serif" font-size="14.00" fill="#5b00c0">rw</text>
</g>
</g>
</svg>
