<?xml version="1.0" encoding="UTF-8" standalone="no"?>
<!DOCTYPE svg PUBLIC "-//W3C//DTD SVG 1.1//EN"
 "http://www.w3.org/Graphics/SVG/1.1/DTD/svg11.dtd">
<!-- Generated by graphviz version 2.43.0 (0)
 -->
<!-- Title: a_graph Pages: 1 -->
<svg width="416pt" height="281pt"
 viewBox="0.00 0.00 416.44 281.00" xmlns="http://www.w3.org/2000/svg" xmlns:xlink="http://www.w3.org/1999/xlink">
<g id="graph0" class="graph" transform="scale(1 1) rotate(0) translate(4 277)">
<title>a_graph</title>
<polygon fill="white" stroke="transparent" points="-4,4 -4,-277 412.44,-277 412.44,4 -4,4"/>
<!-- T18943 -->
<g id="node1" class="node">
<title>T18943</title>
<polygon fill="none" stroke="#0058ad" points="49.44,-243.5 49.44,-272.5 200.44,-272.5 200.44,-243.5 49.44,-243.5"/>
<text text-anchor="middle" x="86.44" y="-254.3" font-family="Times,serif" font-size="14.00" fill="#0058ad">w 727 4</text>
<polyline fill="none" stroke="#0058ad" points="123.44,-243.5 123.44,-272.5 "/>
<text text-anchor="middle" x="161.94" y="-254.3" font-family="Times,serif" font-size="14.00" fill="#0058ad">r 728 nil</text>
</g>
<!-- T18949 -->
<g id="node3" class="node">
<title>T18949</title>
<polygon fill="none" stroke="#0058ad" points="73.44,-81.5 73.44,-110.5 224.44,-110.5 224.44,-81.5 73.44,-81.5"/>
<text text-anchor="middle" x="111.94" y="-92.3" font-family="Times,serif" font-size="14.00" fill="#0058ad">r 727 nil</text>
<polyline fill="none" stroke="#0058ad" points="150.44,-81.5 150.44,-110.5 "/>
<text text-anchor="middle" x="187.44" y="-92.3" font-family="Times,serif" font-size="14.00" fill="#0058ad">w 728 3</text>
</g>
<!-- T18943&#45;&gt;T18949 -->
<g id="edge1" class="edge">
<title>T18943:f1&#45;&gt;T18949:f1</title>
<path fill="none" stroke="#5b00c0" d="M161.94,-243C161.94,-207 152.26,-196.94 160.94,-162 166.15,-141 181.79,-137.39 186.55,-121.37"/>
<polygon fill="#5b00c0" stroke="#5b00c0" points="190.08,-121.38 187.94,-111 183.14,-120.45 190.08,-121.38"/>
<text text-anchor="middle" x="170.44" y="-173.3" font-family="Times,serif" font-size="14.00" fill="#5b00c0">rw</text>
</g>
<!-- T18947 -->
<g id="node4" class="node">
<title>T18947</title>
<polygon fill="none" stroke="#0058ad" points="189.44,-162.5 189.44,-191.5 408.44,-191.5 408.44,-162.5 189.44,-162.5"/>
<text text-anchor="middle" x="227.94" y="-173.3" font-family="Times,serif" font-size="14.00" fill="#0058ad">r 728 nil</text>
<polyline fill="none" stroke="#0058ad" points="266.44,-162.5 266.44,-191.5 "/>
<text text-anchor="middle" x="303.44" y="-173.3" font-family="Times,serif" font-size="14.00" fill="#0058ad">w 728 2</text>
<polyline fill="none" stroke="#0058ad" points="340.44,-162.5 340.44,-191.5 "/>
<text text-anchor="middle" x="374.44" y="-173.3" font-family="Times,serif" font-size="14.00" fill="#0058ad">r 728 2</text>
</g>
<!-- T18943&#45;&gt;T18947 -->
<g id="edge2" class="edge">
<title>T18943:f1&#45;&gt;T18947:f1</title>
<path fill="none" stroke="#5b00c0" d="M201.94,-258C252.35,-258 297.53,-247.54 303.31,-202.21"/>
<polygon fill="#5b00c0" stroke="#5b00c0" points="306.82,-202.19 303.94,-192 299.83,-201.77 306.82,-202.19"/>
<text text-anchor="middle" x="310.44" y="-213.8" font-family="Times,serif" font-size="14.00" fill="#5b00c0">rw</text>
</g>
<!-- T18933 -->
<g id="node2" class="node">
<title>T18933</title>
<polygon fill="none" stroke="#0058ad" points="0.44,-0.5 0.44,-29.5 151.44,-29.5 151.44,-0.5 0.44,-0.5"/>
<text text-anchor="middle" x="38.94" y="-11.3" font-family="Times,serif" font-size="14.00" fill="#0058ad">r 727 nil</text>
<polyline fill="none" stroke="#0058ad" points="77.44,-0.5 77.44,-29.5 "/>
<text text-anchor="middle" x="114.44" y="-11.3" font-family="Times,serif" font-size="14.00" fill="#0058ad">w 727 1</text>
</g>
<!-- T18933&#45;&gt;T18943 -->
<g id="edge3" class="edge">
<title>T18933:f0&#45;&gt;T18943:f0</title>
<path fill="none" stroke="#5b00c0" d="M38.94,-30C38.94,-127.85 -47.09,-249.13 37.95,-257.54"/>
<polygon fill="#5b00c0" stroke="#5b00c0" points="37.78,-261.03 47.94,-258 38.11,-254.04 37.78,-261.03"/>
<text text-anchor="middle" x="29.44" y="-132.8" font-family="Times,serif" font-size="14.00" fill="#5b00c0">rw</text>
</g>
<!-- T18949&#45;&gt;T18943 -->
<g id="edge4" class="edge">
<title>T18949:f0&#45;&gt;T18943:f0</title>
<path fill="none" stroke="#5b00c0" d="M111.94,-111C111.94,-167.29 88.89,-181.59 86.19,-232.96"/>
<polygon fill="#5b00c0" stroke="#5b00c0" points="82.69,-232.91 85.94,-243 89.69,-233.09 82.69,-232.91"/>
<text text-anchor="middle" x="114.44" y="-173.3" font-family="Times,serif" font-size="14.00" fill="#5b00c0">rw</text>
</g>
<!-- T18949&#45;&gt;T18933 -->
<g id="edge5" class="edge">
<title>T18949:f0&#45;&gt;T18933:f1</title>
<path fill="none" stroke="#5b00c0" d="M111.94,-81C111.94,-62.2 113.99,-55.13 114.7,-40.36"/>
<polygon fill="#5b00c0" stroke="#5b00c0" points="118.21,-40.08 114.94,-30 111.21,-39.92 118.21,-40.08"/>
<text text-anchor="middle" x="124.44" y="-51.8" font-family="Times,serif" font-size="14.00" fill="#5b00c0">rw</text>
</g>
<!-- T18947&#45;&gt;T18949 -->
<g id="edge6" class="edge">
<title>T18947:f0&#45;&gt;T18949:f1</title>
<path fill="none" stroke="#5b00c0" d="M227.94,-162C227.94,-137.24 198.39,-138.65 190.09,-121.25"/>
<polygon fill="#5b00c0" stroke="#5b00c0" points="193.41,-120.07 187.94,-111 186.56,-121.51 193.41,-120.07"/>
<text text-anchor="middle" x="229.44" y="-132.8" font-family="Times,serif" font-size="14.00" fill="#5b00c0">rw</text>
</g>
</g>
</svg>
