<?xml version="1.0" encoding="UTF-8" standalone="no"?>
<!DOCTYPE svg PUBLIC "-//W3C//DTD SVG 1.1//EN"
 "http://www.w3.org/Graphics/SVG/1.1/DTD/svg11.dtd">
<!-- Generated by graphviz version 2.43.0 (0)
 -->
<!-- Title: a_graph Pages: 1 -->
<svg width="456pt" height="200pt"
 viewBox="0.00 0.00 456.00 200.00" xmlns="http://www.w3.org/2000/svg" xmlns:xlink="http://www.w3.org/1999/xlink">
<g id="graph0" class="graph" transform="scale(1 1) rotate(0) translate(4 196)">
<title>a_graph</title>
<polygon fill="white" stroke="transparent" points="-4,4 -4,-196 452,-196 452,4 -4,4"/>
<!-- T32523 -->
<g id="node1" class="node">
<title>T32523</title>
<polygon fill="none" stroke="#0058ad" points="119,-162.5 119,-191.5 448,-191.5 448,-162.5 119,-162.5"/>
<text text-anchor="middle" x="160.5" y="-173.3" font-family="Times,serif" font-size="14.00" fill="#0058ad">w 1232 1</text>
<polyline fill="none" stroke="#0058ad" points="202,-162.5 202,-191.5 "/>
<text text-anchor="middle" x="243.5" y="-173.3" font-family="Times,serif" font-size="14.00" fill="#0058ad">w 1234 1</text>
<polyline fill="none" stroke="#0058ad" points="285,-162.5 285,-191.5 "/>
<text text-anchor="middle" x="328" y="-173.3" font-family="Times,serif" font-size="14.00" fill="#0058ad">r 1195 16</text>
<polyline fill="none" stroke="#0058ad" points="371,-162.5 371,-191.5 "/>
<text text-anchor="middle" x="409.5" y="-173.3" font-family="Times,serif" font-size="14.00" fill="#0058ad">r 1234 1</text>
</g>
<!-- T32529 -->
<g id="node2" class="node">
<title>T32529</title>
<polygon fill="none" stroke="#0058ad" points="0,-81.5 0,-110.5 255,-110.5 255,-81.5 0,-81.5"/>
<text text-anchor="middle" x="46" y="-92.3" font-family="Times,serif" font-size="14.00" fill="#0058ad">w 1227 14</text>
<polyline fill="none" stroke="#0058ad" points="92,-81.5 92,-110.5 "/>
<text text-anchor="middle" x="130.5" y="-92.3" font-family="Times,serif" font-size="14.00" fill="#0058ad">r 1234 1</text>
<polyline fill="none" stroke="#0058ad" points="169,-81.5 169,-110.5 "/>
<text text-anchor="middle" x="212" y="-92.3" font-family="Times,serif" font-size="14.00" fill="#0058ad">r 1233 nil</text>
</g>
<!-- T32523&#45;&gt;T32529 -->
<g id="edge1" class="edge">
<title>T32523:f1&#45;&gt;T32529:f1</title>
<path fill="none" stroke="#c000a5" d="M243.5,-162C243.5,-110.77 145.83,-158.34 132.1,-121.01"/>
<polygon fill="#c000a5" stroke="#c000a5" points="135.53,-120.32 130.5,-111 128.62,-121.43 135.53,-120.32"/>
<text text-anchor="middle" x="246" y="-132.8" font-family="Times,serif" font-size="14.00" fill="#c000a5">wr</text>
</g>
<!-- T32531 -->
<g id="node3" class="node">
<title>T32531</title>
<polygon fill="none" stroke="#0058ad" points="167,-0.5 167,-29.5 336,-29.5 336,-0.5 167,-0.5"/>
<text text-anchor="middle" x="208.5" y="-11.3" font-family="Times,serif" font-size="14.00" fill="#0058ad">w 1233 1</text>
<polyline fill="none" stroke="#0058ad" points="250,-0.5 250,-29.5 "/>
<text text-anchor="middle" x="293" y="-11.3" font-family="Times,serif" font-size="14.00" fill="#0058ad">r 1234 nil</text>
</g>
<!-- T32529&#45;&gt;T32531 -->
<g id="edge2" class="edge">
<title>T32529:f2&#45;&gt;T32531:f0</title>
<path fill="none" stroke="#5b00c0" d="M212.5,-81C212.5,-62.17 209.76,-55.14 208.81,-40.37"/>
<polygon fill="#5b00c0" stroke="#5b00c0" points="212.3,-39.89 208.5,-30 205.3,-40.1 212.3,-39.89"/>
<text text-anchor="middle" x="221" y="-51.8" font-family="Times,serif" font-size="14.00" fill="#5b00c0">rw</text>
</g>
<!-- T32531&#45;&gt;T32523 -->
<g id="edge3" class="edge">
<title>T32531:f1&#45;&gt;T32523:f1</title>
<path fill="none" stroke="#5b00c0" d="M293.5,-30C293.5,-82.87 285.23,-97.81 259.5,-144 256.65,-149.11 252.13,-150.82 248.62,-153.06"/>
<polygon fill="#5b00c0" stroke="#5b00c0" points="245.44,-151.58 243.5,-162 251.51,-155.06 245.44,-151.58"/>
<text text-anchor="middle" x="298" y="-92.3" font-family="Times,serif" font-size="14.00" fill="#5b00c0">rw</text>
</g>
</g>
</svg>
