<?xml version="1.0" encoding="UTF-8" standalone="no"?>
<!DOCTYPE svg PUBLIC "-//W3C//DTD SVG 1.1//EN"
 "http://www.w3.org/Graphics/SVG/1.1/DTD/svg11.dtd">
<!-- Generated by graphviz version 2.43.0 (0)
 -->
<!-- Title: a_graph Pages: 1 -->
<svg width="316pt" height="119pt"
 viewBox="0.00 0.00 316.00 119.00" xmlns="http://www.w3.org/2000/svg" xmlns:xlink="http://www.w3.org/1999/xlink">
<g id="graph0" class="graph" transform="scale(1 1) rotate(0) translate(4 115)">
<title>a_graph</title>
<polygon fill="white" stroke="transparent" points="-4,4 -4,-115 312,-115 312,4 -4,4"/>
<!-- T5881 -->
<g id="node1" class="node">
<title>T5881</title>
<polygon fill="none" stroke="#0058ad" points="36,-81.5 36,-110.5 264,-110.5 264,-81.5 36,-81.5"/>
<text text-anchor="middle" x="74.5" y="-92.3" font-family="Times,serif" font-size="14.00" fill="#0058ad">r 229 nil</text>
<polyline fill="none" stroke="#0058ad" points="113,-81.5 113,-110.5 "/>
<text text-anchor="middle" x="151.5" y="-92.3" font-family="Times,serif" font-size="14.00" fill="#0058ad">r 229 nil</text>
<polyline fill="none" stroke="#0058ad" points="190,-81.5 190,-110.5 "/>
<text text-anchor="middle" x="227" y="-92.3" font-family="Times,serif" font-size="14.00" fill="#0058ad">w 229 4</text>
</g>
<!-- T5863 -->
<g id="node2" class="node">
<title>T5863</title>
<polygon fill="none" stroke="#0058ad" points="0,-0.5 0,-29.5 308,-29.5 308,-0.5 0,-0.5"/>
<text text-anchor="middle" x="37" y="-11.3" font-family="Times,serif" font-size="14.00" fill="#0058ad">w 226 4</text>
<polyline fill="none" stroke="#0058ad" points="74,-0.5 74,-29.5 "/>
<text text-anchor="middle" x="112.5" y="-11.3" font-family="Times,serif" font-size="14.00" fill="#0058ad">r 229 nil</text>
<polyline fill="none" stroke="#0058ad" points="151,-0.5 151,-29.5 "/>
<text text-anchor="middle" x="188" y="-11.3" font-family="Times,serif" font-size="14.00" fill="#0058ad">w 229 1</text>
<polyline fill="none" stroke="#0058ad" points="225,-0.5 225,-29.5 "/>
<text text-anchor="middle" x="266.5" y="-11.3" font-family="Times,serif" font-size="14.00" fill="#0058ad">w 221 11</text>
</g>
<!-- T5881&#45;&gt;T5863 -->
<g id="edge1" class="edge">
<title>T5881:f0&#45;&gt;T5863:f2</title>
<path fill="none" stroke="#5b00c0" d="M74,-81C74,-69.29 155.16,-50.91 180.52,-37.12"/>
<polygon fill="#5b00c0" stroke="#5b00c0" points="183.17,-39.43 188,-30 178.34,-34.36 183.17,-39.43"/>
<text text-anchor="middle" x="161.5" y="-51.8" font-family="Times,serif" font-size="14.00" fill="#5b00c0">rw</text>
</g>
<!-- T5863&#45;&gt;T5881 -->
<g id="edge2" class="edge">
<title>T5863:f1&#45;&gt;T5881:f2</title>
<path fill="none" stroke="#5b00c0" d="M112,-30C112,-59.12 148.43,-36.08 175,-48 196.27,-57.54 219.02,-54.91 225.31,-70.83"/>
<polygon fill="#5b00c0" stroke="#5b00c0" points="221.91,-71.71 227,-81 228.81,-70.56 221.91,-71.71"/>
<text text-anchor="middle" x="227.5" y="-51.8" font-family="Times,serif" font-size="14.00" fill="#5b00c0">rw</text>
</g>
</g>
</svg>
