<?xml version="1.0" encoding="UTF-8" standalone="no"?>
<!DOCTYPE svg PUBLIC "-//W3C//DTD SVG 1.1//EN"
 "http://www.w3.org/Graphics/SVG/1.1/DTD/svg11.dtd">
<!-- Generated by graphviz version 2.43.0 (0)
 -->
<!-- Title: a_graph Pages: 1 -->
<svg width="950pt" height="782pt"
 viewBox="0.00 0.00 949.55 782.00" xmlns="http://www.w3.org/2000/svg" xmlns:xlink="http://www.w3.org/1999/xlink">
<g id="graph0" class="graph" transform="scale(1 1) rotate(0) translate(4 778)">
<title>a_graph</title>
<polygon fill="white" stroke="transparent" points="-4,4 -4,-778 945.55,-778 945.55,4 -4,4"/>
<!-- T10203 -->
<g id="node1" class="node">
<title>T10203</title>
<polygon fill="none" stroke="#0058ad" points="648.55,-744.5 648.55,-773.5 941.55,-773.5 941.55,-744.5 648.55,-744.5"/>
<text text-anchor="middle" x="685.55" y="-755.3" font-family="Times,serif" font-size="14.00" fill="#0058ad">w 389 4</text>
<polyline fill="none" stroke="#0058ad" points="722.55,-744.5 722.55,-773.5 "/>
<text text-anchor="middle" x="756.55" y="-755.3" font-family="Times,serif" font-size="14.00" fill="#0058ad">r 383 4</text>
<polyline fill="none" stroke="#0058ad" points="790.55,-744.5 790.55,-773.5 "/>
<text text-anchor="middle" x="832.05" y="-755.3" font-family="Times,serif" font-size="14.00" fill="#0058ad">w 392 14</text>
<polyline fill="none" stroke="#0058ad" points="873.55,-744.5 873.55,-773.5 "/>
<text text-anchor="middle" x="907.55" y="-755.3" font-family="Times,serif" font-size="14.00" fill="#0058ad">r 383 4</text>
</g>
<!-- T10213 -->
<g id="node5" class="node">
<title>T10213</title>
<polygon fill="none" stroke="#0058ad" points="583.05,-663.5 583.05,-692.5 725.05,-692.5 725.05,-663.5 583.05,-663.5"/>
<text text-anchor="middle" x="617.05" y="-674.3" font-family="Times,serif" font-size="14.00" fill="#0058ad">r 389 4</text>
<polyline fill="none" stroke="#0058ad" points="651.05,-663.5 651.05,-692.5 "/>
<text text-anchor="middle" x="688.05" y="-674.3" font-family="Times,serif" font-size="14.00" fill="#0058ad">w 366 8</text>
</g>
<!-- T10203&#45;&gt;T10213 -->
<g id="edge1" class="edge">
<title>T10203:f0&#45;&gt;T10213:f0</title>
<path fill="none" stroke="#c000a5" d="M685.05,-744C685.05,-710.21 630.64,-726.29 619.16,-703.02"/>
<polygon fill="#c000a5" stroke="#c000a5" points="622.54,-702.06 617.05,-693 615.69,-703.51 622.54,-702.06"/>
<text text-anchor="middle" x="684.55" y="-714.8" font-family="Times,serif" font-size="14.00" fill="#c000a5">wr</text>
</g>
<!-- T10309 -->
<g id="node2" class="node">
<title>T10309</title>
<polygon fill="none" stroke="#0058ad" points="18.55,-162.5 18.55,-191.5 323.55,-191.5 323.55,-162.5 18.55,-162.5"/>
<text text-anchor="middle" x="57.05" y="-173.3" font-family="Times,serif" font-size="14.00" fill="#0058ad">r 396 nil</text>
<polyline fill="none" stroke="#0058ad" points="95.55,-162.5 95.55,-191.5 "/>
<text text-anchor="middle" x="134.05" y="-173.3" font-family="Times,serif" font-size="14.00" fill="#0058ad">r 394 12</text>
<polyline fill="none" stroke="#0058ad" points="172.55,-162.5 172.55,-191.5 "/>
<text text-anchor="middle" x="214.05" y="-173.3" font-family="Times,serif" font-size="14.00" fill="#0058ad">w 394 13</text>
<polyline fill="none" stroke="#0058ad" points="255.55,-162.5 255.55,-191.5 "/>
<text text-anchor="middle" x="289.55" y="-173.3" font-family="Times,serif" font-size="14.00" fill="#0058ad">r 378 6</text>
</g>
<!-- T10311 -->
<g id="node4" class="node">
<title>T10311</title>
<polygon fill="none" stroke="#0058ad" points="73.05,-81.5 73.05,-110.5 387.05,-110.5 387.05,-81.5 73.05,-81.5"/>
<text text-anchor="middle" x="111.55" y="-92.3" font-family="Times,serif" font-size="14.00" fill="#0058ad">r 394 13</text>
<polyline fill="none" stroke="#0058ad" points="150.05,-81.5 150.05,-110.5 "/>
<text text-anchor="middle" x="188.55" y="-92.3" font-family="Times,serif" font-size="14.00" fill="#0058ad">r 396 nil</text>
<polyline fill="none" stroke="#0058ad" points="227.05,-81.5 227.05,-110.5 "/>
<text text-anchor="middle" x="265.55" y="-92.3" font-family="Times,serif" font-size="14.00" fill="#0058ad">r 394 13</text>
<polyline fill="none" stroke="#0058ad" points="304.05,-81.5 304.05,-110.5 "/>
<text text-anchor="middle" x="345.55" y="-92.3" font-family="Times,serif" font-size="14.00" fill="#0058ad">w 394 14</text>
</g>
<!-- T10309&#45;&gt;T10311 -->
<g id="edge3" class="edge">
<title>T10309:f2&#45;&gt;T10311:f0</title>
<path fill="none" stroke="#c000a5" d="M214.05,-162C214.05,-114.91 126.52,-154.71 112.84,-121.2"/>
<polygon fill="#c000a5" stroke="#c000a5" points="116.23,-120.25 111.05,-111 109.33,-121.45 116.23,-120.25"/>
<text text-anchor="middle" x="215.55" y="-132.8" font-family="Times,serif" font-size="14.00" fill="#c000a5">wr</text>
</g>
<!-- T10319 -->
<g id="node11" class="node">
<title>T10319</title>
<polygon fill="none" stroke="#0058ad" points="74.05,-0.5 74.05,-29.5 370.05,-29.5 370.05,-0.5 74.05,-0.5"/>
<text text-anchor="middle" x="112.55" y="-11.3" font-family="Times,serif" font-size="14.00" fill="#0058ad">r 396 nil</text>
<polyline fill="none" stroke="#0058ad" points="151.05,-0.5 151.05,-29.5 "/>
<text text-anchor="middle" x="188.05" y="-11.3" font-family="Times,serif" font-size="14.00" fill="#0058ad">w 396 8</text>
<polyline fill="none" stroke="#0058ad" points="225.05,-0.5 225.05,-29.5 "/>
<text text-anchor="middle" x="263.55" y="-11.3" font-family="Times,serif" font-size="14.00" fill="#0058ad">r 376 nil</text>
<polyline fill="none" stroke="#0058ad" points="302.05,-0.5 302.05,-29.5 "/>
<text text-anchor="middle" x="336.05" y="-11.3" font-family="Times,serif" font-size="14.00" fill="#0058ad">r 396 8</text>
</g>
<!-- T10309&#45;&gt;T10319 -->
<g id="edge2" class="edge">
<title>T10309:f0&#45;&gt;T10319:f1</title>
<path fill="none" stroke="#5b00c0" d="M57.05,-162C57.05,-125.61 24.08,-110.74 45.05,-81 62.44,-56.33 163.15,-61.98 184.19,-39.3"/>
<polygon fill="#5b00c0" stroke="#5b00c0" points="187.45,-40.58 188.05,-30 180.99,-37.9 187.45,-40.58"/>
<text text-anchor="middle" x="54.55" y="-92.3" font-family="Times,serif" font-size="14.00" fill="#5b00c0">rw</text>
</g>
<!-- T10352 -->
<g id="node3" class="node">
<title>T10352</title>
<polygon fill="none" stroke="#0058ad" points="428.55,-582.5 428.55,-611.5 721.55,-611.5 721.55,-582.5 428.55,-582.5"/>
<text text-anchor="middle" x="465.55" y="-593.3" font-family="Times,serif" font-size="14.00" fill="#0058ad">w 378 9</text>
<polyline fill="none" stroke="#0058ad" points="502.55,-582.5 502.55,-611.5 "/>
<text text-anchor="middle" x="541.05" y="-593.3" font-family="Times,serif" font-size="14.00" fill="#0058ad">r 399 nil</text>
<polyline fill="none" stroke="#0058ad" points="579.55,-582.5 579.55,-611.5 "/>
<text text-anchor="middle" x="616.55" y="-593.3" font-family="Times,serif" font-size="14.00" fill="#0058ad">w 376 3</text>
<polyline fill="none" stroke="#0058ad" points="653.55,-582.5 653.55,-611.5 "/>
<text text-anchor="middle" x="687.55" y="-593.3" font-family="Times,serif" font-size="14.00" fill="#0058ad">r 366 8</text>
</g>
<!-- T10361 -->
<g id="node8" class="node">
<title>T10361</title>
<polygon fill="none" stroke="#0058ad" points="211.55,-501.5 211.55,-530.5 510.55,-530.5 510.55,-501.5 211.55,-501.5"/>
<text text-anchor="middle" x="250.05" y="-512.3" font-family="Times,serif" font-size="14.00" fill="#0058ad">r 399 nil</text>
<polyline fill="none" stroke="#0058ad" points="288.55,-501.5 288.55,-530.5 "/>
<text text-anchor="middle" x="325.55" y="-512.3" font-family="Times,serif" font-size="14.00" fill="#0058ad">w 399 2</text>
<polyline fill="none" stroke="#0058ad" points="362.55,-501.5 362.55,-530.5 "/>
<text text-anchor="middle" x="399.55" y="-512.3" font-family="Times,serif" font-size="14.00" fill="#0058ad">w 399 3</text>
<polyline fill="none" stroke="#0058ad" points="436.55,-501.5 436.55,-530.5 "/>
<text text-anchor="middle" x="473.55" y="-512.3" font-family="Times,serif" font-size="14.00" fill="#0058ad">w 399 4</text>
</g>
<!-- T10352&#45;&gt;T10361 -->
<g id="edge4" class="edge">
<title>T10352:f1&#45;&gt;T10361:f3</title>
<path fill="none" stroke="#5b00c0" d="M541.05,-582C541.05,-567.58 525.63,-572.6 514.05,-564 498.87,-552.73 481.68,-553.25 475.99,-541.08"/>
<polygon fill="#5b00c0" stroke="#5b00c0" points="479.38,-540.16 474.05,-531 472.5,-541.48 479.38,-540.16"/>
<text text-anchor="middle" x="523.55" y="-552.8" font-family="Times,serif" font-size="14.00" fill="#5b00c0">rw</text>
</g>
<!-- T10399 -->
<g id="node9" class="node">
<title>T10399</title>
<polygon fill="none" stroke="#0058ad" points="428.05,-420.5 428.05,-449.5 588.05,-449.5 588.05,-420.5 428.05,-420.5"/>
<text text-anchor="middle" x="469.55" y="-431.3" font-family="Times,serif" font-size="14.00" fill="#0058ad">w 399 11</text>
<polyline fill="none" stroke="#0058ad" points="511.05,-420.5 511.05,-449.5 "/>
<text text-anchor="middle" x="549.55" y="-431.3" font-family="Times,serif" font-size="14.00" fill="#0058ad">r 376 nil</text>
</g>
<!-- T10352&#45;&gt;T10399 -->
<g id="edge5" class="edge">
<title>T10352:f1&#45;&gt;T10399:f0</title>
<path fill="none" stroke="#5b00c0" d="M541.05,-582C541.05,-572.49 522.02,-504.4 520.05,-501 505.93,-476.62 477.24,-480.46 470.49,-459.99"/>
<polygon fill="#5b00c0" stroke="#5b00c0" points="473.94,-459.4 469.05,-450 467.02,-460.4 473.94,-459.4"/>
<text text-anchor="middle" x="537.55" y="-512.3" font-family="Times,serif" font-size="14.00" fill="#5b00c0">rw</text>
</g>
<!-- T10311&#45;&gt;T10319 -->
<g id="edge6" class="edge">
<title>T10311:f1&#45;&gt;T10319:f1</title>
<path fill="none" stroke="#5b00c0" d="M188.05,-81C188.05,-62.23 188.05,-55.12 188.05,-40.35"/>
<polygon fill="#5b00c0" stroke="#5b00c0" points="191.55,-40 188.05,-30 184.55,-40 191.55,-40"/>
<text text-anchor="middle" x="197.55" y="-51.8" font-family="Times,serif" font-size="14.00" fill="#5b00c0">rw</text>
</g>
<!-- T10213&#45;&gt;T10352 -->
<g id="edge7" class="edge">
<title>T10213:f1&#45;&gt;T10352:f3</title>
<path fill="none" stroke="#c000a5" d="M688.05,-663C688.05,-644.23 688.05,-637.12 688.05,-622.35"/>
<polygon fill="#c000a5" stroke="#c000a5" points="691.55,-622 688.05,-612 684.55,-622 691.55,-622"/>
<text text-anchor="middle" x="697.55" y="-633.8" font-family="Times,serif" font-size="14.00" fill="#c000a5">wr</text>
</g>
<!-- T10171 -->
<g id="node6" class="node">
<title>T10171</title>
<polygon fill="none" stroke="#0058ad" points="381.55,-339.5 381.55,-368.5 680.55,-368.5 680.55,-339.5 381.55,-339.5"/>
<text text-anchor="middle" x="418.55" y="-350.3" font-family="Times,serif" font-size="14.00" fill="#0058ad">w 391 6</text>
<polyline fill="none" stroke="#0058ad" points="455.55,-339.5 455.55,-368.5 "/>
<text text-anchor="middle" x="492.55" y="-350.3" font-family="Times,serif" font-size="14.00" fill="#0058ad">w 376 1</text>
<polyline fill="none" stroke="#0058ad" points="529.55,-339.5 529.55,-368.5 "/>
<text text-anchor="middle" x="568.05" y="-350.3" font-family="Times,serif" font-size="14.00" fill="#0058ad">r 389 nil</text>
<polyline fill="none" stroke="#0058ad" points="606.55,-339.5 606.55,-368.5 "/>
<text text-anchor="middle" x="643.55" y="-350.3" font-family="Times,serif" font-size="14.00" fill="#0058ad">w 392 4</text>
</g>
<!-- T10171&#45;&gt;T10203 -->
<g id="edge10" class="edge">
<title>T10171:f2&#45;&gt;T10203:f0</title>
<path fill="none" stroke="#5b00c0" d="M568.05,-369C568.05,-456.15 753.05,-346.85 753.05,-434 753.05,-679 753.05,-679 753.05,-679 753.05,-696.8 703.74,-716.26 689.1,-734.55"/>
<polygon fill="#5b00c0" stroke="#5b00c0" points="685.78,-733.43 685.05,-744 692.21,-736.19 685.78,-733.43"/>
<text text-anchor="middle" x="762.55" y="-552.8" font-family="Times,serif" font-size="14.00" fill="#5b00c0">rw</text>
</g>
<!-- T10305 -->
<g id="node7" class="node">
<title>T10305</title>
<polygon fill="none" stroke="#0058ad" points="443.55,-258.5 443.55,-287.5 686.55,-287.5 686.55,-258.5 443.55,-258.5"/>
<text text-anchor="middle" x="485.05" y="-269.3" font-family="Times,serif" font-size="14.00" fill="#0058ad">w 394 12</text>
<polyline fill="none" stroke="#0058ad" points="526.55,-258.5 526.55,-287.5 "/>
<text text-anchor="middle" x="568.05" y="-269.3" font-family="Times,serif" font-size="14.00" fill="#0058ad">w 389 14</text>
<polyline fill="none" stroke="#0058ad" points="609.55,-258.5 609.55,-287.5 "/>
<text text-anchor="middle" x="648.05" y="-269.3" font-family="Times,serif" font-size="14.00" fill="#0058ad">r 394 12</text>
</g>
<!-- T10171&#45;&gt;T10305 -->
<g id="edge9" class="edge">
<title>T10171:f2&#45;&gt;T10305:f1</title>
<path fill="none" stroke="#5b00c0" d="M568.05,-339C568.05,-320.23 568.05,-313.12 568.05,-298.35"/>
<polygon fill="#5b00c0" stroke="#5b00c0" points="571.55,-298 568.05,-288 564.55,-298 571.55,-298"/>
<text text-anchor="middle" x="577.55" y="-309.8" font-family="Times,serif" font-size="14.00" fill="#5b00c0">rw</text>
</g>
<!-- T10318 -->
<g id="node10" class="node">
<title>T10318</title>
<polygon fill="none" stroke="#0058ad" points="54.05,-210.5 54.05,-239.5 214.05,-239.5 214.05,-210.5 54.05,-210.5"/>
<text text-anchor="middle" x="95.55" y="-221.3" font-family="Times,serif" font-size="14.00" fill="#0058ad">w 389 15</text>
<polyline fill="none" stroke="#0058ad" points="137.05,-210.5 137.05,-239.5 "/>
<text text-anchor="middle" x="175.55" y="-221.3" font-family="Times,serif" font-size="14.00" fill="#0058ad">r 396 nil</text>
</g>
<!-- T10171&#45;&gt;T10318 -->
<g id="edge8" class="edge">
<title>T10171:f2&#45;&gt;T10318:f0</title>
<path fill="none" stroke="#5b00c0" d="M568.05,-339C568.05,-318.24 402.46,-324.84 382.05,-321 255.23,-297.16 103.3,-368.6 95.37,-250.05"/>
<polygon fill="#5b00c0" stroke="#5b00c0" points="98.87,-249.88 95.05,-240 91.87,-250.11 98.87,-249.88"/>
<text text-anchor="middle" x="391.55" y="-309.8" font-family="Times,serif" font-size="14.00" fill="#5b00c0">rw</text>
</g>
<!-- T10305&#45;&gt;T10309 -->
<g id="edge11" class="edge">
<title>T10305:f0&#45;&gt;T10309:f1</title>
<path fill="none" stroke="#c000a5" d="M485.05,-258C485.05,-253.53 200.49,-207.63 143.81,-194.9"/>
<polygon fill="#c000a5" stroke="#c000a5" points="144.63,-191.5 134.05,-192 142.64,-198.21 144.63,-191.5"/>
<text text-anchor="middle" x="399.55" y="-221.3" font-family="Times,serif" font-size="14.00" fill="#c000a5">wr</text>
</g>
<!-- T10361&#45;&gt;T10399 -->
<g id="edge12" class="edge">
<title>T10361:f0&#45;&gt;T10399:f0</title>
<path fill="none" stroke="#5b00c0" d="M250.05,-501C250.05,-461.97 366.75,-438.47 416.9,-435.35"/>
<polygon fill="#5b00c0" stroke="#5b00c0" points="417.18,-438.85 427.05,-435 416.94,-431.85 417.18,-438.85"/>
<text text-anchor="middle" x="290.55" y="-471.8" font-family="Times,serif" font-size="14.00" fill="#5b00c0">rw</text>
</g>
<!-- T10399&#45;&gt;T10352 -->
<g id="edge14" class="edge">
<title>T10399:f1&#45;&gt;T10352:f2</title>
<path fill="none" stroke="#5b00c0" d="M589.05,-435C652.18,-435 620.69,-507.52 617.33,-571.77"/>
<polygon fill="#5b00c0" stroke="#5b00c0" points="613.83,-571.91 617.05,-582 620.82,-572.1 613.83,-571.91"/>
<text text-anchor="middle" x="635.55" y="-512.3" font-family="Times,serif" font-size="14.00" fill="#5b00c0">rw</text>
</g>
<!-- T10399&#45;&gt;T10171 -->
<g id="edge13" class="edge">
<title>T10399:f1&#45;&gt;T10171:f1</title>
<path fill="none" stroke="#5b00c0" d="M550.05,-420C550.05,-389.56 504.45,-399.99 494.12,-378.82"/>
<polygon fill="#5b00c0" stroke="#5b00c0" points="497.53,-378.07 492.05,-369 490.68,-379.51 497.53,-378.07"/>
<text text-anchor="middle" x="549.55" y="-390.8" font-family="Times,serif" font-size="14.00" fill="#5b00c0">rw</text>
</g>
<!-- T10318&#45;&gt;T10319 -->
<g id="edge15" class="edge">
<title>T10318:f1&#45;&gt;T10319:f1</title>
<path fill="none" stroke="#5b00c0" d="M176.05,-210C176.05,-172.67 33.99,-219.77 9.05,-192 -13.01,-167.43 11.23,-111.28 35.05,-81 52.44,-58.89 62.77,-58.02 89.05,-48 106.52,-41.34 163.96,-48.86 182.34,-38.45"/>
<polygon fill="#5b00c0" stroke="#5b00c0" points="185.35,-40.25 188.05,-30 179.55,-36.33 185.35,-40.25"/>
<text text-anchor="middle" x="17.55" y="-132.8" font-family="Times,serif" font-size="14.00" fill="#5b00c0">rw</text>
</g>
<!-- T10319&#45;&gt;T10352 -->
<g id="edge17" class="edge">
<title>T10319:f2&#45;&gt;T10352:f2</title>
<path fill="none" stroke="#5b00c0" d="M264.05,-30C264.05,-42.66 715.05,-82.34 715.05,-95 715.05,-517 715.05,-517 715.05,-517 715.05,-539.87 640.02,-552.47 621.26,-572.78"/>
<polygon fill="#5b00c0" stroke="#5b00c0" points="618.02,-571.45 617.05,-582 624.39,-574.36 618.02,-571.45"/>
<text text-anchor="middle" x="724.55" y="-309.8" font-family="Times,serif" font-size="14.00" fill="#5b00c0">rw</text>
</g>
<!-- T10319&#45;&gt;T10171 -->
<g id="edge16" class="edge">
<title>T10319:f2&#45;&gt;T10171:f1</title>
<path fill="none" stroke="#5b00c0" d="M264.05,-30C264.05,-103.06 415.05,-21.94 415.05,-95 415.05,-274 415.05,-274 415.05,-274 415.05,-314.94 479.39,-297.93 490.44,-328.9"/>
<polygon fill="#5b00c0" stroke="#5b00c0" points="487.02,-329.68 492.05,-339 493.93,-328.57 487.02,-329.68"/>
<text text-anchor="middle" x="424.55" y="-173.3" font-family="Times,serif" font-size="14.00" fill="#5b00c0">rw</text>
</g>
</g>
</svg>
