<?xml version="1.0" encoding="UTF-8" standalone="no"?>
<!DOCTYPE svg PUBLIC "-//W3C//DTD SVG 1.1//EN"
 "http://www.w3.org/Graphics/SVG/1.1/DTD/svg11.dtd">
<!-- Generated by graphviz version 2.43.0 (0)
 -->
<!-- Title: a_graph Pages: 1 -->
<svg width="374pt" height="119pt"
 viewBox="0.00 0.00 373.50 119.00" xmlns="http://www.w3.org/2000/svg" xmlns:xlink="http://www.w3.org/1999/xlink">
<g id="graph0" class="graph" transform="scale(1 1) rotate(0) translate(4 115)">
<title>a_graph</title>
<polygon fill="white" stroke="transparent" points="-4,4 -4,-115 369.5,-115 369.5,4 -4,4"/>
<!-- T10592 -->
<g id="node1" class="node">
<title>T10592</title>
<polygon fill="none" stroke="#0058ad" points="78.5,-81.5 78.5,-110.5 365.5,-110.5 365.5,-81.5 78.5,-81.5"/>
<text text-anchor="middle" x="117" y="-92.3" font-family="Times,serif" font-size="14.00" fill="#0058ad">r 407 nil</text>
<polyline fill="none" stroke="#0058ad" points="155.5,-81.5 155.5,-110.5 "/>
<text text-anchor="middle" x="192.5" y="-92.3" font-family="Times,serif" font-size="14.00" fill="#0058ad">w 407 1</text>
<polyline fill="none" stroke="#0058ad" points="229.5,-81.5 229.5,-110.5 "/>
<text text-anchor="middle" x="263.5" y="-92.3" font-family="Times,serif" font-size="14.00" fill="#0058ad">r 407 1</text>
<polyline fill="none" stroke="#0058ad" points="297.5,-81.5 297.5,-110.5 "/>
<text text-anchor="middle" x="331.5" y="-92.3" font-family="Times,serif" font-size="14.00" fill="#0058ad">r 407 1</text>
</g>
<!-- T10611 -->
<g id="node2" class="node">
<title>T10611</title>
<polygon fill="none" stroke="#0058ad" points="0,-0.5 0,-29.5 308,-29.5 308,-0.5 0,-0.5"/>
<text text-anchor="middle" x="38.5" y="-11.3" font-family="Times,serif" font-size="14.00" fill="#0058ad">r 407 nil</text>
<polyline fill="none" stroke="#0058ad" points="77,-0.5 77,-29.5 "/>
<text text-anchor="middle" x="114" y="-11.3" font-family="Times,serif" font-size="14.00" fill="#0058ad">w 407 6</text>
<polyline fill="none" stroke="#0058ad" points="151,-0.5 151,-29.5 "/>
<text text-anchor="middle" x="192.5" y="-11.3" font-family="Times,serif" font-size="14.00" fill="#0058ad">w 366 14</text>
<polyline fill="none" stroke="#0058ad" points="234,-0.5 234,-29.5 "/>
<text text-anchor="middle" x="271" y="-11.3" font-family="Times,serif" font-size="14.00" fill="#0058ad">w 407 7</text>
</g>
<!-- T10592&#45;&gt;T10611 -->
<g id="edge1" class="edge">
<title>T10592:f0&#45;&gt;T10611:f3</title>
<path fill="none" stroke="#5b00c0" d="M117,-81C117,-62.33 126.81,-57.3 143,-48 164.6,-35.59 244.99,-52.77 265.97,-38.82"/>
<polygon fill="#5b00c0" stroke="#5b00c0" points="269.08,-40.42 271,-30 263,-36.95 269.08,-40.42"/>
<text text-anchor="middle" x="152.5" y="-51.8" font-family="Times,serif" font-size="14.00" fill="#5b00c0">rw</text>
</g>
<!-- T10611&#45;&gt;T10592 -->
<g id="edge2" class="edge">
<title>T10611:f0&#45;&gt;T10592:f1</title>
<path fill="none" stroke="#5b00c0" d="M38,-30C38,-57.84 137.41,-34.93 162,-48 176.08,-55.49 186.93,-59.46 190.63,-71.05"/>
<polygon fill="#5b00c0" stroke="#5b00c0" points="187.16,-71.57 192,-81 194.1,-70.62 187.16,-71.57"/>
<text text-anchor="middle" x="195.5" y="-51.8" font-family="Times,serif" font-size="14.00" fill="#5b00c0">rw</text>
</g>
</g>
</svg>
