<?xml version="1.0" encoding="UTF-8" standalone="no"?>
<!DOCTYPE svg PUBLIC "-//W3C//DTD SVG 1.1//EN"
 "http://www.w3.org/Graphics/SVG/1.1/DTD/svg11.dtd">
<!-- Generated by graphviz version 2.43.0 (0)
 -->
<!-- Title: a_graph Pages: 1 -->
<svg width="584pt" height="281pt"
 viewBox="0.00 0.00 583.88 281.00" xmlns="http://www.w3.org/2000/svg" xmlns:xlink="http://www.w3.org/1999/xlink">
<g id="graph0" class="graph" transform="scale(1 1) rotate(0) translate(4 277)">
<title>a_graph</title>
<polygon fill="white" stroke="transparent" points="-4,4 -4,-277 579.88,-277 579.88,4 -4,4"/>
<!-- T30793 -->
<g id="node1" class="node">
<title>T30793</title>
<polygon fill="none" stroke="#0058ad" points="246.88,-243.5 246.88,-272.5 575.88,-272.5 575.88,-243.5 246.88,-243.5"/>
<text text-anchor="middle" x="289.88" y="-254.3" font-family="Times,serif" font-size="14.00" fill="#0058ad">r 1169 nil</text>
<polyline fill="none" stroke="#0058ad" points="332.88,-243.5 332.88,-272.5 "/>
<text text-anchor="middle" x="374.38" y="-254.3" font-family="Times,serif" font-size="14.00" fill="#0058ad">w 1169 1</text>
<polyline fill="none" stroke="#0058ad" points="415.88,-243.5 415.88,-272.5 "/>
<text text-anchor="middle" x="457.38" y="-254.3" font-family="Times,serif" font-size="14.00" fill="#0058ad">w 1168 2</text>
<polyline fill="none" stroke="#0058ad" points="498.88,-243.5 498.88,-272.5 "/>
<text text-anchor="middle" x="537.38" y="-254.3" font-family="Times,serif" font-size="14.00" fill="#0058ad">r 1169 1</text>
</g>
<!-- T30796 -->
<g id="node2" class="node">
<title>T30796</title>
<polygon fill="none" stroke="#0058ad" points="33.88,-162.5 33.88,-191.5 374.88,-191.5 374.88,-162.5 33.88,-162.5"/>
<text text-anchor="middle" x="76.88" y="-173.3" font-family="Times,serif" font-size="14.00" fill="#0058ad">r 1169 nil</text>
<polyline fill="none" stroke="#0058ad" points="119.88,-162.5 119.88,-191.5 "/>
<text text-anchor="middle" x="162.88" y="-173.3" font-family="Times,serif" font-size="14.00" fill="#0058ad">r 1169 nil</text>
<polyline fill="none" stroke="#0058ad" points="205.88,-162.5 205.88,-191.5 "/>
<text text-anchor="middle" x="247.38" y="-173.3" font-family="Times,serif" font-size="14.00" fill="#0058ad">w 1169 2</text>
<polyline fill="none" stroke="#0058ad" points="288.88,-162.5 288.88,-191.5 "/>
<text text-anchor="middle" x="331.88" y="-173.3" font-family="Times,serif" font-size="14.00" fill="#0058ad">r 1113 15</text>
</g>
<!-- T30793&#45;&gt;T30796 -->
<g id="edge2" class="edge">
<title>T30793:f0&#45;&gt;T30796:f2</title>
<path fill="none" stroke="#5b00c0" d="M289.38,-243C289.38,-217.54 257.8,-219.97 249.41,-201.91"/>
<polygon fill="#5b00c0" stroke="#5b00c0" points="252.81,-201.1 247.38,-192 245.95,-202.5 252.81,-201.1"/>
<text text-anchor="middle" x="288.88" y="-213.8" font-family="Times,serif" font-size="14.00" fill="#5b00c0">rw</text>
</g>
<!-- T30815 -->
<g id="node3" class="node">
<title>T30815</title>
<polygon fill="none" stroke="#0058ad" points="119.88,-0.5 119.88,-29.5 448.88,-29.5 448.88,-0.5 119.88,-0.5"/>
<text text-anchor="middle" x="161.38" y="-11.3" font-family="Times,serif" font-size="14.00" fill="#0058ad">w 1167 5</text>
<polyline fill="none" stroke="#0058ad" points="202.88,-0.5 202.88,-29.5 "/>
<text text-anchor="middle" x="241.38" y="-11.3" font-family="Times,serif" font-size="14.00" fill="#0058ad">r 1169 7</text>
<polyline fill="none" stroke="#0058ad" points="279.88,-0.5 279.88,-29.5 "/>
<text text-anchor="middle" x="321.38" y="-11.3" font-family="Times,serif" font-size="14.00" fill="#0058ad">w 1169 9</text>
<polyline fill="none" stroke="#0058ad" points="362.88,-0.5 362.88,-29.5 "/>
<text text-anchor="middle" x="405.88" y="-11.3" font-family="Times,serif" font-size="14.00" fill="#0058ad">r 1168 nil</text>
</g>
<!-- T30793&#45;&gt;T30815 -->
<g id="edge1" class="edge">
<title>T30793:f0&#45;&gt;T30815:f2</title>
<path fill="none" stroke="#5b00c0" d="M289.38,-243C289.38,-219.04 372.08,-212.56 384.38,-192 391.23,-180.56 387.33,-175 384.38,-162 370.81,-102.07 326.6,-95.58 321.8,-40.13"/>
<polygon fill="#5b00c0" stroke="#5b00c0" points="325.3,-39.85 321.38,-30 318.3,-40.14 325.3,-39.85"/>
<text text-anchor="middle" x="387.88" y="-132.8" font-family="Times,serif" font-size="14.00" fill="#5b00c0">rw</text>
</g>
<!-- T30809 -->
<g id="node4" class="node">
<title>T30809</title>
<polygon fill="none" stroke="#0058ad" points="34.88,-81.5 34.88,-110.5 117.88,-110.5 117.88,-81.5 34.88,-81.5"/>
<text text-anchor="middle" x="76.38" y="-92.3" font-family="Times,serif" font-size="14.00" fill="#0058ad">w 1169 7</text>
</g>
<!-- T30793&#45;&gt;T30809 -->
<g id="edge3" class="edge">
<title>T30793:f0&#45;&gt;T30809:f0</title>
<path fill="none" stroke="#5b00c0" d="M245.38,-258C190.28,-258 39.76,-235.84 6.38,-192 -13.12,-166.38 17.19,-136.31 43.81,-116.74"/>
<polygon fill="#5b00c0" stroke="#5b00c0" points="46.11,-119.4 52.26,-110.78 42.07,-113.69 46.11,-119.4"/>
<text text-anchor="middle" x="15.88" y="-173.3" font-family="Times,serif" font-size="14.00" fill="#5b00c0">rw</text>
</g>
<!-- T30796&#45;&gt;T30793 -->
<g id="edge4" class="edge">
<title>T30796:f0&#45;&gt;T30793:f1</title>
<path fill="none" stroke="#5b00c0" d="M76.38,-192C76.38,-217.19 278,-203.66 302.38,-210 332.72,-217.9 366.13,-209.98 373.07,-233.02"/>
<polygon fill="#5b00c0" stroke="#5b00c0" points="369.61,-233.54 374.38,-243 376.55,-232.63 369.61,-233.54"/>
<text text-anchor="middle" x="377.88" y="-213.8" font-family="Times,serif" font-size="14.00" fill="#5b00c0">rw</text>
</g>
<!-- T30796&#45;&gt;T30815 -->
<g id="edge5" class="edge">
<title>T30796:f0&#45;&gt;T30815:f2</title>
<path fill="none" stroke="#5b00c0" d="M76.38,-162C76.38,-148.11 274.14,-65.11 314.31,-37.18"/>
<polygon fill="#5b00c0" stroke="#5b00c0" points="316.86,-39.58 321.38,-30 311.87,-34.67 316.86,-39.58"/>
<text text-anchor="middle" x="235.88" y="-92.3" font-family="Times,serif" font-size="14.00" fill="#5b00c0">rw</text>
</g>
<!-- T30796&#45;&gt;T30809 -->
<g id="edge6" class="edge">
<title>T30796:f0&#45;&gt;T30809:f0</title>
<path fill="none" stroke="#5b00c0" d="M76.38,-162C76.38,-148.35 76.38,-133.12 76.38,-120.73"/>
<polygon fill="#5b00c0" stroke="#5b00c0" points="79.88,-120.68 76.38,-110.68 72.88,-120.68 79.88,-120.68"/>
<text text-anchor="middle" x="85.88" y="-132.8" font-family="Times,serif" font-size="14.00" fill="#5b00c0">rw</text>
</g>
<!-- T30815&#45;&gt;T30793 -->
<g id="edge7" class="edge">
<title>T30815:f3&#45;&gt;T30793:f2</title>
<path fill="none" stroke="#5b00c0" d="M450.38,-15C548.4,-15 463.43,-133.35 457.68,-232.82"/>
<polygon fill="#5b00c0" stroke="#5b00c0" points="454.18,-232.9 457.38,-243 461.18,-233.11 454.18,-232.9"/>
<text text-anchor="middle" x="489.88" y="-132.8" font-family="Times,serif" font-size="14.00" fill="#5b00c0">rw</text>
</g>
<!-- T30809&#45;&gt;T30815 -->
<g id="edge8" class="edge">
<title>T30809:f0&#45;&gt;T30815:f1</title>
<path fill="none" stroke="#c000a5" d="M115.48,-81.37C154.17,-66.79 210.67,-45.15 232.4,-35.14"/>
<polygon fill="#c000a5" stroke="#c000a5" points="234.44,-38 241.38,-30 230.96,-31.93 234.44,-38"/>
<text text-anchor="middle" x="210.88" y="-51.8" font-family="Times,serif" font-size="14.00" fill="#c000a5">wr</text>
</g>
</g>
</svg>
