<?xml version="1.0" encoding="UTF-8" standalone="no"?>
<!DOCTYPE svg PUBLIC "-//W3C//DTD SVG 1.1//EN"
 "http://www.w3.org/Graphics/SVG/1.1/DTD/svg11.dtd">
<!-- Generated by graphviz version 2.43.0 (0)
 -->
<!-- Title: a_graph Pages: 1 -->
<svg width="425pt" height="281pt"
 viewBox="0.00 0.00 424.94 281.00" xmlns="http://www.w3.org/2000/svg" xmlns:xlink="http://www.w3.org/1999/xlink">
<g id="graph0" class="graph" transform="scale(1 1) rotate(0) translate(4 277)">
<title>a_graph</title>
<polygon fill="white" stroke="transparent" points="-4,4 -4,-277 420.94,-277 420.94,4 -4,4"/>
<!-- T557 -->
<g id="node1" class="node">
<title>T557</title>
<polygon fill="none" stroke="#0058ad" points="38.44,-243.5 38.44,-272.5 171.44,-272.5 171.44,-243.5 38.44,-243.5"/>
<text text-anchor="middle" x="72.44" y="-254.3" font-family="Times,serif" font-size="14.00" fill="#0058ad">r 29 nil</text>
<polyline fill="none" stroke="#0058ad" points="106.44,-243.5 106.44,-272.5 "/>
<text text-anchor="middle" x="138.94" y="-254.3" font-family="Times,serif" font-size="14.00" fill="#0058ad">w 28 1</text>
</g>
<!-- T556 -->
<g id="node3" class="node">
<title>T556</title>
<polygon fill="none" stroke="#0058ad" points="123.94,-162.5 123.94,-191.5 383.94,-191.5 383.94,-162.5 123.94,-162.5"/>
<text text-anchor="middle" x="157.94" y="-173.3" font-family="Times,serif" font-size="14.00" fill="#0058ad">r 29 nil</text>
<polyline fill="none" stroke="#0058ad" points="191.94,-162.5 191.94,-191.5 "/>
<text text-anchor="middle" x="224.44" y="-173.3" font-family="Times,serif" font-size="14.00" fill="#0058ad">w 29 1</text>
<polyline fill="none" stroke="#0058ad" points="256.94,-162.5 256.94,-191.5 "/>
<text text-anchor="middle" x="286.44" y="-173.3" font-family="Times,serif" font-size="14.00" fill="#0058ad">r 29 1</text>
<polyline fill="none" stroke="#0058ad" points="315.94,-162.5 315.94,-191.5 "/>
<text text-anchor="middle" x="349.94" y="-173.3" font-family="Times,serif" font-size="14.00" fill="#0058ad">r 28 nil</text>
</g>
<!-- T557&#45;&gt;T556 -->
<g id="edge2" class="edge">
<title>T557:f0&#45;&gt;T556:f1</title>
<path fill="none" stroke="#5b00c0" d="M71.94,-243C71.94,-210.99 194.64,-224.09 219.56,-201.24"/>
<polygon fill="#5b00c0" stroke="#5b00c0" points="222.82,-202.54 223.94,-192 216.5,-199.53 222.82,-202.54"/>
<text text-anchor="middle" x="208.44" y="-213.8" font-family="Times,serif" font-size="14.00" fill="#5b00c0">rw</text>
</g>
<!-- T569 -->
<g id="node4" class="node">
<title>T569</title>
<polygon fill="none" stroke="#0058ad" points="125.44,-81.5 125.44,-110.5 332.44,-110.5 332.44,-81.5 125.44,-81.5"/>
<text text-anchor="middle" x="162.44" y="-92.3" font-family="Times,serif" font-size="14.00" fill="#0058ad">w 26 14</text>
<polyline fill="none" stroke="#0058ad" points="199.44,-81.5 199.44,-110.5 "/>
<text text-anchor="middle" x="231.94" y="-92.3" font-family="Times,serif" font-size="14.00" fill="#0058ad">w 29 6</text>
<polyline fill="none" stroke="#0058ad" points="264.44,-81.5 264.44,-110.5 "/>
<text text-anchor="middle" x="298.44" y="-92.3" font-family="Times,serif" font-size="14.00" fill="#0058ad">r 28 nil</text>
</g>
<!-- T557&#45;&gt;T569 -->
<g id="edge1" class="edge">
<title>T557:f0&#45;&gt;T569:f1</title>
<path fill="none" stroke="#5b00c0" d="M36.94,-258C20.48,-258 -54.18,-234.57 73.94,-129 98.23,-108.99 204.59,-138.37 227.56,-120.08"/>
<polygon fill="#5b00c0" stroke="#5b00c0" points="230.75,-121.53 231.94,-111 224.44,-118.48 230.75,-121.53"/>
<text text-anchor="middle" x="45.44" y="-173.3" font-family="Times,serif" font-size="14.00" fill="#5b00c0">rw</text>
</g>
<!-- T572 -->
<g id="node2" class="node">
<title>T572</title>
<polygon fill="none" stroke="#0058ad" points="60.94,-0.5 60.94,-29.5 196.94,-29.5 196.94,-0.5 60.94,-0.5"/>
<text text-anchor="middle" x="94.94" y="-11.3" font-family="Times,serif" font-size="14.00" fill="#0058ad">r 28 nil</text>
<polyline fill="none" stroke="#0058ad" points="128.94,-0.5 128.94,-29.5 "/>
<text text-anchor="middle" x="162.94" y="-11.3" font-family="Times,serif" font-size="14.00" fill="#0058ad">r 26 14</text>
</g>
<!-- T572&#45;&gt;T557 -->
<g id="edge3" class="edge">
<title>T572:f0&#45;&gt;T557:f1</title>
<path fill="none" stroke="#5b00c0" d="M94.94,-30C94.94,-102.55 94.8,-122.31 114.94,-192 120.81,-212.31 133.86,-216.82 137.8,-232.78"/>
<polygon fill="#5b00c0" stroke="#5b00c0" points="134.35,-233.45 138.94,-243 141.31,-232.67 134.35,-233.45"/>
<text text-anchor="middle" x="112.44" y="-132.8" font-family="Times,serif" font-size="14.00" fill="#5b00c0">rw</text>
</g>
<!-- T556&#45;&gt;T557 -->
<g id="edge4" class="edge">
<title>T556:f3&#45;&gt;T557:f1</title>
<path fill="none" stroke="#5b00c0" d="M349.94,-192C349.94,-231.03 233.24,-254.53 183.1,-257.65"/>
<polygon fill="#5b00c0" stroke="#5b00c0" points="182.82,-254.15 172.94,-258 183.06,-261.15 182.82,-254.15"/>
<text text-anchor="middle" x="349.44" y="-213.8" font-family="Times,serif" font-size="14.00" fill="#5b00c0">rw</text>
</g>
<!-- T556&#45;&gt;T569 -->
<g id="edge5" class="edge">
<title>T556:f0&#45;&gt;T569:f1</title>
<path fill="none" stroke="#5b00c0" d="M157.94,-162C157.94,-125.96 218.2,-145.96 229.97,-120.86"/>
<polygon fill="#5b00c0" stroke="#5b00c0" points="233.41,-121.49 231.94,-111 226.55,-120.12 233.41,-121.49"/>
<text text-anchor="middle" x="231.44" y="-132.8" font-family="Times,serif" font-size="14.00" fill="#5b00c0">rw</text>
</g>
<!-- T569&#45;&gt;T557 -->
<g id="edge6" class="edge">
<title>T569:f2&#45;&gt;T557:f1</title>
<path fill="none" stroke="#5b00c0" d="M333.94,-96C384.03,-96 411,-145.29 392.94,-192 385.8,-210.49 380.32,-215.45 362.94,-225 328.1,-244.15 231.26,-256.17 183.23,-257.81"/>
<polygon fill="#5b00c0" stroke="#5b00c0" points="182.88,-254.31 172.94,-258 183.01,-261.31 182.88,-254.31"/>
<text text-anchor="middle" x="407.44" y="-173.3" font-family="Times,serif" font-size="14.00" fill="#5b00c0">rw</text>
</g>
<!-- T569&#45;&gt;T572 -->
<g id="edge7" class="edge">
<title>T569:f0&#45;&gt;T572:f1</title>
<path fill="none" stroke="#c000a5" d="M161.94,-81C161.94,-62.23 162.63,-55.12 162.87,-40.35"/>
<polygon fill="#c000a5" stroke="#c000a5" points="166.37,-40.03 162.94,-30 159.37,-39.97 166.37,-40.03"/>
<text text-anchor="middle" x="172.44" y="-51.8" font-family="Times,serif" font-size="14.00" fill="#c000a5">wr</text>
</g>
</g>
</svg>
