<?xml version="1.0" encoding="UTF-8" standalone="no"?>
<!DOCTYPE svg PUBLIC "-//W3C//DTD SVG 1.1//EN"
 "http://www.w3.org/Graphics/SVG/1.1/DTD/svg11.dtd">
<!-- Generated by graphviz version 2.43.0 (0)
 -->
<!-- Title: a_graph Pages: 1 -->
<svg width="323pt" height="119pt"
 viewBox="0.00 0.00 322.50 119.00" xmlns="http://www.w3.org/2000/svg" xmlns:xlink="http://www.w3.org/1999/xlink">
<g id="graph0" class="graph" transform="scale(1 1) rotate(0) translate(4 115)">
<title>a_graph</title>
<polygon fill="white" stroke="transparent" points="-4,4 -4,-115 318.5,-115 318.5,4 -4,4"/>
<!-- T17963 -->
<g id="node1" class="node">
<title>T17963</title>
<polygon fill="none" stroke="#0058ad" points="0,-81.5 0,-110.5 311,-110.5 311,-81.5 0,-81.5"/>
<text text-anchor="middle" x="41.5" y="-92.3" font-family="Times,serif" font-size="14.00" fill="#0058ad">w 687 14</text>
<polyline fill="none" stroke="#0058ad" points="83,-81.5 83,-110.5 "/>
<text text-anchor="middle" x="121.5" y="-92.3" font-family="Times,serif" font-size="14.00" fill="#0058ad">r 689 nil</text>
<polyline fill="none" stroke="#0058ad" points="160,-81.5 160,-110.5 "/>
<text text-anchor="middle" x="198.5" y="-92.3" font-family="Times,serif" font-size="14.00" fill="#0058ad">r 689 nil</text>
<polyline fill="none" stroke="#0058ad" points="237,-81.5 237,-110.5 "/>
<text text-anchor="middle" x="274" y="-92.3" font-family="Times,serif" font-size="14.00" fill="#0058ad">w 689 2</text>
</g>
<!-- T17961 -->
<g id="node2" class="node">
<title>T17961</title>
<polygon fill="none" stroke="#0058ad" points="12.5,-0.5 12.5,-29.5 314.5,-29.5 314.5,-0.5 12.5,-0.5"/>
<text text-anchor="middle" x="46.5" y="-11.3" font-family="Times,serif" font-size="14.00" fill="#0058ad">r 686 4</text>
<polyline fill="none" stroke="#0058ad" points="80.5,-0.5 80.5,-29.5 "/>
<text text-anchor="middle" x="119" y="-11.3" font-family="Times,serif" font-size="14.00" fill="#0058ad">r 689 nil</text>
<polyline fill="none" stroke="#0058ad" points="157.5,-0.5 157.5,-29.5 "/>
<text text-anchor="middle" x="199" y="-11.3" font-family="Times,serif" font-size="14.00" fill="#0058ad">w 674 12</text>
<polyline fill="none" stroke="#0058ad" points="240.5,-0.5 240.5,-29.5 "/>
<text text-anchor="middle" x="277.5" y="-11.3" font-family="Times,serif" font-size="14.00" fill="#0058ad">w 689 1</text>
</g>
<!-- T17963&#45;&gt;T17961 -->
<g id="edge1" class="edge">
<title>T17963:f1&#45;&gt;T17961:f3</title>
<path fill="none" stroke="#5b00c0" d="M121.5,-81C121.5,-40.89 167.3,-60.22 205.5,-48 232.74,-39.28 266.88,-56.95 275.47,-40.29"/>
<polygon fill="#5b00c0" stroke="#5b00c0" points="279,-40.49 277.5,-30 272.13,-39.13 279,-40.49"/>
<text text-anchor="middle" x="215" y="-51.8" font-family="Times,serif" font-size="14.00" fill="#5b00c0">rw</text>
</g>
<!-- T17961&#45;&gt;T17963 -->
<g id="edge2" class="edge">
<title>T17961:f1&#45;&gt;T17963:f3</title>
<path fill="none" stroke="#5b00c0" d="M118.5,-30C118.5,-53.89 202.27,-39.23 224.5,-48 245.59,-56.32 267.02,-55.09 272.92,-70.99"/>
<polygon fill="#5b00c0" stroke="#5b00c0" points="269.48,-71.67 274.5,-81 276.39,-70.58 269.48,-71.67"/>
<text text-anchor="middle" x="276" y="-51.8" font-family="Times,serif" font-size="14.00" fill="#5b00c0">rw</text>
</g>
</g>
</svg>
