<?xml version="1.0" encoding="UTF-8" standalone="no"?>
<!DOCTYPE svg PUBLIC "-//W3C//DTD SVG 1.1//EN"
 "http://www.w3.org/Graphics/SVG/1.1/DTD/svg11.dtd">
<!-- Generated by graphviz version 2.43.0 (0)
 -->
<!-- Title: a_graph Pages: 1 -->
<svg width="319pt" height="119pt"
 viewBox="0.00 0.00 319.00 119.00" xmlns="http://www.w3.org/2000/svg" xmlns:xlink="http://www.w3.org/1999/xlink">
<g id="graph0" class="graph" transform="scale(1 1) rotate(0) translate(4 115)">
<title>a_graph</title>
<polygon fill="white" stroke="transparent" points="-4,4 -4,-115 315,-115 315,4 -4,4"/>
<!-- T21909 -->
<g id="node1" class="node">
<title>T21909</title>
<polygon fill="none" stroke="#0058ad" points="80,-81.5 80,-110.5 231,-110.5 231,-81.5 80,-81.5"/>
<text text-anchor="middle" x="118.5" y="-92.3" font-family="Times,serif" font-size="14.00" fill="#0058ad">r 835 nil</text>
<polyline fill="none" stroke="#0058ad" points="157,-81.5 157,-110.5 "/>
<text text-anchor="middle" x="194" y="-92.3" font-family="Times,serif" font-size="14.00" fill="#0058ad">w 835 1</text>
</g>
<!-- T21933 -->
<g id="node2" class="node">
<title>T21933</title>
<polygon fill="none" stroke="#0058ad" points="0,-0.5 0,-29.5 311,-29.5 311,-0.5 0,-0.5"/>
<text text-anchor="middle" x="38.5" y="-11.3" font-family="Times,serif" font-size="14.00" fill="#0058ad">r 835 nil</text>
<polyline fill="none" stroke="#0058ad" points="77,-0.5 77,-29.5 "/>
<text text-anchor="middle" x="118.5" y="-11.3" font-family="Times,serif" font-size="14.00" fill="#0058ad">w 832 12</text>
<polyline fill="none" stroke="#0058ad" points="160,-0.5 160,-29.5 "/>
<text text-anchor="middle" x="198.5" y="-11.3" font-family="Times,serif" font-size="14.00" fill="#0058ad">r 831 11</text>
<polyline fill="none" stroke="#0058ad" points="237,-0.5 237,-29.5 "/>
<text text-anchor="middle" x="274" y="-11.3" font-family="Times,serif" font-size="14.00" fill="#0058ad">w 835 7</text>
</g>
<!-- T21909&#45;&gt;T21933 -->
<g id="edge1" class="edge">
<title>T21909:f0&#45;&gt;T21933:f3</title>
<path fill="none" stroke="#5b00c0" d="M118.5,-81C118.5,-62.05 128.98,-57.28 145.5,-48 167.38,-35.71 248.32,-52.96 269.44,-38.89"/>
<polygon fill="#5b00c0" stroke="#5b00c0" points="272.59,-40.42 274.5,-30 266.51,-36.96 272.59,-40.42"/>
<text text-anchor="middle" x="155" y="-51.8" font-family="Times,serif" font-size="14.00" fill="#5b00c0">rw</text>
</g>
<!-- T21933&#45;&gt;T21909 -->
<g id="edge2" class="edge">
<title>T21933:f0&#45;&gt;T21909:f1</title>
<path fill="none" stroke="#5b00c0" d="M38.5,-30C38.5,-58.28 139.51,-34.75 164.5,-48 178.59,-55.47 189.43,-59.45 193.13,-71.05"/>
<polygon fill="#5b00c0" stroke="#5b00c0" points="189.67,-71.57 194.5,-81 196.6,-70.62 189.67,-71.57"/>
<text text-anchor="middle" x="198" y="-51.8" font-family="Times,serif" font-size="14.00" fill="#5b00c0">rw</text>
</g>
</g>
</svg>
