<?xml version="1.0" encoding="UTF-8" standalone="no"?>
<!DOCTYPE svg PUBLIC "-//W3C//DTD SVG 1.1//EN"
 "http://www.w3.org/Graphics/SVG/1.1/DTD/svg11.dtd">
<!-- Generated by graphviz version 2.43.0 (0)
 -->
<!-- Title: a_graph Pages: 1 -->
<svg width="652pt" height="362pt"
 viewBox="0.00 0.00 651.64 362.00" xmlns="http://www.w3.org/2000/svg" xmlns:xlink="http://www.w3.org/1999/xlink">
<g id="graph0" class="graph" transform="scale(1 1) rotate(0) translate(4 358)">
<title>a_graph</title>
<polygon fill="white" stroke="transparent" points="-4,4 -4,-358 647.64,-358 647.64,4 -4,4"/>
<!-- T24909 -->
<g id="node1" class="node">
<title>T24909</title>
<polygon fill="none" stroke="#0058ad" points="156.5,-324.5 156.5,-353.5 307.5,-353.5 307.5,-324.5 156.5,-324.5"/>
<text text-anchor="middle" x="195" y="-335.3" font-family="Times,serif" font-size="14.00" fill="#0058ad">r 946 nil</text>
<polyline fill="none" stroke="#0058ad" points="233.5,-324.5 233.5,-353.5 "/>
<text text-anchor="middle" x="270.5" y="-335.3" font-family="Times,serif" font-size="14.00" fill="#0058ad">w 945 4</text>
</g>
<!-- T24895 -->
<g id="node2" class="node">
<title>T24895</title>
<polygon fill="none" stroke="#0058ad" points="200,-243.5 200,-272.5 490,-272.5 490,-243.5 200,-243.5"/>
<text text-anchor="middle" x="237" y="-254.3" font-family="Times,serif" font-size="14.00" fill="#0058ad">w 946 1</text>
<polyline fill="none" stroke="#0058ad" points="274,-243.5 274,-272.5 "/>
<text text-anchor="middle" x="311" y="-254.3" font-family="Times,serif" font-size="14.00" fill="#0058ad">w 946 2</text>
<polyline fill="none" stroke="#0058ad" points="348,-243.5 348,-272.5 "/>
<text text-anchor="middle" x="385" y="-254.3" font-family="Times,serif" font-size="14.00" fill="#0058ad">w 946 3</text>
<polyline fill="none" stroke="#0058ad" points="422,-243.5 422,-272.5 "/>
<text text-anchor="middle" x="456" y="-254.3" font-family="Times,serif" font-size="14.00" fill="#0058ad">r 946 3</text>
</g>
<!-- T24909&#45;&gt;T24895 -->
<g id="edge1" class="edge">
<title>T24909:f0&#45;&gt;T24895:f2</title>
<path fill="none" stroke="#5b00c0" d="M195,-324C195,-240.32 369.02,-350.18 383.98,-283.13"/>
<polygon fill="#5b00c0" stroke="#5b00c0" points="387.48,-283.3 385,-273 380.51,-282.6 387.48,-283.3"/>
<text text-anchor="middle" x="388.5" y="-294.8" font-family="Times,serif" font-size="14.00" fill="#5b00c0">rw</text>
</g>
<!-- T24904 -->
<g id="node5" class="node">
<title>T24904</title>
<polygon fill="none" stroke="#0058ad" points="203.5,-81.5 203.5,-110.5 496.5,-110.5 496.5,-81.5 203.5,-81.5"/>
<text text-anchor="middle" x="242" y="-92.3" font-family="Times,serif" font-size="14.00" fill="#0058ad">r 945 nil</text>
<polyline fill="none" stroke="#0058ad" points="280.5,-81.5 280.5,-110.5 "/>
<text text-anchor="middle" x="314.5" y="-92.3" font-family="Times,serif" font-size="14.00" fill="#0058ad">r 946 3</text>
<polyline fill="none" stroke="#0058ad" points="348.5,-81.5 348.5,-110.5 "/>
<text text-anchor="middle" x="385.5" y="-92.3" font-family="Times,serif" font-size="14.00" fill="#0058ad">w 946 4</text>
<polyline fill="none" stroke="#0058ad" points="422.5,-81.5 422.5,-110.5 "/>
<text text-anchor="middle" x="459.5" y="-92.3" font-family="Times,serif" font-size="14.00" fill="#0058ad">w 946 5</text>
</g>
<!-- T24909&#45;&gt;T24904 -->
<g id="edge2" class="edge">
<title>T24909:f0&#45;&gt;T24904:f3</title>
<path fill="none" stroke="#5b00c0" d="M195,-324C195,-300.91 379.41,-310.75 402,-306 513.65,-282.51 576.12,-291.47 632,-192 678.3,-109.6 566.73,-97.26 508.25,-96.1"/>
<polygon fill="#5b00c0" stroke="#5b00c0" points="508.03,-92.6 498,-96 507.96,-99.6 508.03,-92.6"/>
<text text-anchor="middle" x="629.5" y="-213.8" font-family="Times,serif" font-size="14.00" fill="#5b00c0">rw</text>
</g>
<!-- T24897 -->
<g id="node4" class="node">
<title>T24897</title>
<polygon fill="none" stroke="#0058ad" points="351,-162.5 351,-191.5 623,-191.5 623,-162.5 351,-162.5"/>
<text text-anchor="middle" x="385" y="-173.3" font-family="Times,serif" font-size="14.00" fill="#0058ad">r 946 3</text>
<polyline fill="none" stroke="#0058ad" points="419,-162.5 419,-191.5 "/>
<text text-anchor="middle" x="453" y="-173.3" font-family="Times,serif" font-size="14.00" fill="#0058ad">r 946 3</text>
<polyline fill="none" stroke="#0058ad" points="487,-162.5 487,-191.5 "/>
<text text-anchor="middle" x="521" y="-173.3" font-family="Times,serif" font-size="14.00" fill="#0058ad">r 946 3</text>
<polyline fill="none" stroke="#0058ad" points="555,-162.5 555,-191.5 "/>
<text text-anchor="middle" x="589" y="-173.3" font-family="Times,serif" font-size="14.00" fill="#0058ad">r 946 3</text>
</g>
<!-- T24895&#45;&gt;T24897 -->
<g id="edge4" class="edge">
<title>T24895:f2&#45;&gt;T24897:f0</title>
<path fill="none" stroke="#c000a5" d="M385,-243C385,-224.23 385,-217.12 385,-202.35"/>
<polygon fill="#c000a5" stroke="#c000a5" points="388.5,-202 385,-192 381.5,-202 388.5,-202"/>
<text text-anchor="middle" x="394.5" y="-213.8" font-family="Times,serif" font-size="14.00" fill="#c000a5">wr</text>
</g>
<!-- T24895&#45;&gt;T24904 -->
<g id="edge3" class="edge">
<title>T24895:f2&#45;&gt;T24904:f1</title>
<path fill="none" stroke="#c000a5" d="M385,-243C385,-207.32 340,-223.37 323,-192 307.5,-163.39 312.59,-150.04 313.78,-121.36"/>
<polygon fill="#c000a5" stroke="#c000a5" points="317.29,-121.07 314,-111 310.29,-120.92 317.29,-121.07"/>
<text text-anchor="middle" x="332.5" y="-173.3" font-family="Times,serif" font-size="14.00" fill="#c000a5">wr</text>
</g>
<!-- T24896 -->
<g id="node3" class="node">
<title>T24896</title>
<polygon fill="none" stroke="#0058ad" points="0,-0.5 0,-29.5 308,-29.5 308,-0.5 0,-0.5"/>
<text text-anchor="middle" x="38.5" y="-11.3" font-family="Times,serif" font-size="14.00" fill="#0058ad">r 945 nil</text>
<polyline fill="none" stroke="#0058ad" points="77,-0.5 77,-29.5 "/>
<text text-anchor="middle" x="118.5" y="-11.3" font-family="Times,serif" font-size="14.00" fill="#0058ad">w 937 12</text>
<polyline fill="none" stroke="#0058ad" points="160,-0.5 160,-29.5 "/>
<text text-anchor="middle" x="197" y="-11.3" font-family="Times,serif" font-size="14.00" fill="#0058ad">w 945 1</text>
<polyline fill="none" stroke="#0058ad" points="234,-0.5 234,-29.5 "/>
<text text-anchor="middle" x="271" y="-11.3" font-family="Times,serif" font-size="14.00" fill="#0058ad">w 945 2</text>
</g>
<!-- T24896&#45;&gt;T24909 -->
<g id="edge5" class="edge">
<title>T24896:f0&#45;&gt;T24909:f1</title>
<path fill="none" stroke="#5b00c0" d="M38,-30C38,-68.72 96,-56.28 96,-95 96,-259 96,-259 96,-259 96,-301.78 139.85,-291.22 180,-306 195.94,-311.87 247.43,-306.29 265.03,-315.69"/>
<polygon fill="#5b00c0" stroke="#5b00c0" points="262.32,-317.92 271,-324 268.01,-313.84 262.32,-317.92"/>
<text text-anchor="middle" x="105.5" y="-173.3" font-family="Times,serif" font-size="14.00" fill="#5b00c0">rw</text>
</g>
<!-- T24897&#45;&gt;T24904 -->
<g id="edge6" class="edge">
<title>T24897:f0&#45;&gt;T24904:f3</title>
<path fill="none" stroke="#5b00c0" d="M385,-162C385,-125.63 446.07,-146.19 457.99,-120.94"/>
<polygon fill="#5b00c0" stroke="#5b00c0" points="461.45,-121.49 460,-111 454.59,-120.11 461.45,-121.49"/>
<text text-anchor="middle" x="458.5" y="-132.8" font-family="Times,serif" font-size="14.00" fill="#5b00c0">rw</text>
</g>
<!-- T24904&#45;&gt;T24909 -->
<g id="edge7" class="edge">
<title>T24904:f0&#45;&gt;T24909:f1</title>
<path fill="none" stroke="#5b00c0" d="M202,-96C113.45,-96 142.75,-248.01 196,-306 216.11,-327.9 257.74,-299.57 268.45,-314.02"/>
<polygon fill="#5b00c0" stroke="#5b00c0" points="265.13,-315.18 271,-324 271.91,-313.44 265.13,-315.18"/>
<text text-anchor="middle" x="163.5" y="-213.8" font-family="Times,serif" font-size="14.00" fill="#5b00c0">rw</text>
</g>
<!-- T24904&#45;&gt;T24896 -->
<g id="edge8" class="edge">
<title>T24904:f0&#45;&gt;T24896:f3</title>
<path fill="none" stroke="#5b00c0" d="M242,-81C242,-58.8 263.03,-56.33 269.27,-39.99"/>
<polygon fill="#5b00c0" stroke="#5b00c0" points="272.75,-40.45 271,-30 265.85,-39.26 272.75,-40.45"/>
<text text-anchor="middle" x="272.5" y="-51.8" font-family="Times,serif" font-size="14.00" fill="#5b00c0">rw</text>
</g>
</g>
</svg>
