<?xml version="1.0" encoding="UTF-8" standalone="no"?>
<!DOCTYPE svg PUBLIC "-//W3C//DTD SVG 1.1//EN"
 "http://www.w3.org/Graphics/SVG/1.1/DTD/svg11.dtd">
<!-- Generated by graphviz version 2.43.0 (0)
 -->
<!-- Title: a_graph Pages: 1 -->
<svg width="334pt" height="119pt"
 viewBox="0.00 0.00 333.50 119.00" xmlns="http://www.w3.org/2000/svg" xmlns:xlink="http://www.w3.org/1999/xlink">
<g id="graph0" class="graph" transform="scale(1 1) rotate(0) translate(4 115)">
<title>a_graph</title>
<polygon fill="white" stroke="transparent" points="-4,4 -4,-115 329.5,-115 329.5,4 -4,4"/>
<!-- T23343 -->
<g id="node1" class="node">
<title>T23343</title>
<polygon fill="none" stroke="#0058ad" points="29.5,-81.5 29.5,-110.5 325.5,-110.5 325.5,-81.5 29.5,-81.5"/>
<text text-anchor="middle" x="68" y="-92.3" font-family="Times,serif" font-size="14.00" fill="#0058ad">r 890 nil</text>
<polyline fill="none" stroke="#0058ad" points="106.5,-81.5 106.5,-110.5 "/>
<text text-anchor="middle" x="140.5" y="-92.3" font-family="Times,serif" font-size="14.00" fill="#0058ad">r 887 8</text>
<polyline fill="none" stroke="#0058ad" points="174.5,-81.5 174.5,-110.5 "/>
<text text-anchor="middle" x="213" y="-92.3" font-family="Times,serif" font-size="14.00" fill="#0058ad">r 890 nil</text>
<polyline fill="none" stroke="#0058ad" points="251.5,-81.5 251.5,-110.5 "/>
<text text-anchor="middle" x="288.5" y="-92.3" font-family="Times,serif" font-size="14.00" fill="#0058ad">w 890 2</text>
</g>
<!-- T23338 -->
<g id="node2" class="node">
<title>T23338</title>
<polygon fill="none" stroke="#0058ad" points="0,-0.5 0,-29.5 287,-29.5 287,-0.5 0,-0.5"/>
<text text-anchor="middle" x="34" y="-11.3" font-family="Times,serif" font-size="14.00" fill="#0058ad">r 884 2</text>
<polyline fill="none" stroke="#0058ad" points="68,-0.5 68,-29.5 "/>
<text text-anchor="middle" x="106.5" y="-11.3" font-family="Times,serif" font-size="14.00" fill="#0058ad">r 890 nil</text>
<polyline fill="none" stroke="#0058ad" points="145,-0.5 145,-29.5 "/>
<text text-anchor="middle" x="179" y="-11.3" font-family="Times,serif" font-size="14.00" fill="#0058ad">r 887 7</text>
<polyline fill="none" stroke="#0058ad" points="213,-0.5 213,-29.5 "/>
<text text-anchor="middle" x="250" y="-11.3" font-family="Times,serif" font-size="14.00" fill="#0058ad">w 890 1</text>
</g>
<!-- T23343&#45;&gt;T23338 -->
<g id="edge1" class="edge">
<title>T23343:f0&#45;&gt;T23338:f3</title>
<path fill="none" stroke="#5b00c0" d="M67.5,-81C67.5,-71.85 205.12,-48.15 241.67,-35.14"/>
<polygon fill="#5b00c0" stroke="#5b00c0" points="243.62,-38.06 250.5,-30 240.1,-32.01 243.62,-38.06"/>
<text text-anchor="middle" x="200" y="-51.8" font-family="Times,serif" font-size="14.00" fill="#5b00c0">rw</text>
</g>
<!-- T23338&#45;&gt;T23343 -->
<g id="edge2" class="edge">
<title>T23338:f1&#45;&gt;T23343:f3</title>
<path fill="none" stroke="#5b00c0" d="M106.5,-30C106.5,-54.11 190.4,-41.09 213.5,-48 244.71,-57.33 280.1,-47.23 287.21,-71.07"/>
<polygon fill="#5b00c0" stroke="#5b00c0" points="283.75,-71.53 288.5,-81 290.69,-70.63 283.75,-71.53"/>
<text text-anchor="middle" x="291" y="-51.8" font-family="Times,serif" font-size="14.00" fill="#5b00c0">rw</text>
</g>
</g>
</svg>
