<?xml version="1.0" encoding="UTF-8" standalone="no"?>
<!DOCTYPE svg PUBLIC "-//W3C//DTD SVG 1.1//EN"
 "http://www.w3.org/Graphics/SVG/1.1/DTD/svg11.dtd">
<!-- Generated by graphviz version 2.43.0 (0)
 -->
<!-- Title: a_graph Pages: 1 -->
<svg width="528pt" height="281pt"
 viewBox="0.00 0.00 528.00 281.00" xmlns="http://www.w3.org/2000/svg" xmlns:xlink="http://www.w3.org/1999/xlink">
<g id="graph0" class="graph" transform="scale(1 1) rotate(0) translate(4 277)">
<title>a_graph</title>
<polygon fill="white" stroke="transparent" points="-4,4 -4,-277 524,-277 524,4 -4,4"/>
<!-- T31130 -->
<g id="node1" class="node">
<title>T31130</title>
<polygon fill="none" stroke="#0058ad" points="141.5,-243.5 141.5,-272.5 387.5,-272.5 387.5,-243.5 141.5,-243.5"/>
<text text-anchor="middle" x="184.5" y="-254.3" font-family="Times,serif" font-size="14.00" fill="#0058ad">r 1180 nil</text>
<polyline fill="none" stroke="#0058ad" points="227.5,-243.5 227.5,-272.5 "/>
<text text-anchor="middle" x="269" y="-254.3" font-family="Times,serif" font-size="14.00" fill="#0058ad">w 1182 9</text>
<polyline fill="none" stroke="#0058ad" points="310.5,-243.5 310.5,-272.5 "/>
<text text-anchor="middle" x="349" y="-254.3" font-family="Times,serif" font-size="14.00" fill="#0058ad">r 1181 9</text>
</g>
<!-- T31078 -->
<g id="node5" class="node">
<title>T31078</title>
<polygon fill="none" stroke="#0058ad" points="64.5,-162.5 64.5,-191.5 378.5,-191.5 378.5,-162.5 64.5,-162.5"/>
<text text-anchor="middle" x="106" y="-173.3" font-family="Times,serif" font-size="14.00" fill="#0058ad">w 1180 1</text>
<polyline fill="none" stroke="#0058ad" points="147.5,-162.5 147.5,-191.5 "/>
<text text-anchor="middle" x="186" y="-173.3" font-family="Times,serif" font-size="14.00" fill="#0058ad">r 1179 7</text>
<polyline fill="none" stroke="#0058ad" points="224.5,-162.5 224.5,-191.5 "/>
<text text-anchor="middle" x="263" y="-173.3" font-family="Times,serif" font-size="14.00" fill="#0058ad">r 1179 7</text>
<polyline fill="none" stroke="#0058ad" points="301.5,-162.5 301.5,-191.5 "/>
<text text-anchor="middle" x="340" y="-173.3" font-family="Times,serif" font-size="14.00" fill="#0058ad">r 1179 7</text>
</g>
<!-- T31130&#45;&gt;T31078 -->
<g id="edge1" class="edge">
<title>T31130:f0&#45;&gt;T31078:f0</title>
<path fill="none" stroke="#5b00c0" d="M140.5,-258C110.67,-258 106.19,-231.53 105.59,-202.07"/>
<polygon fill="#5b00c0" stroke="#5b00c0" points="109.09,-201.97 105.5,-192 102.09,-202.03 109.09,-201.97"/>
<text text-anchor="middle" x="116" y="-213.8" font-family="Times,serif" font-size="14.00" fill="#5b00c0">rw</text>
</g>
<!-- T31113 -->
<g id="node2" class="node">
<title>T31113</title>
<polygon fill="none" stroke="#0058ad" points="0,-0.5 0,-29.5 169,-29.5 169,-0.5 0,-0.5"/>
<text text-anchor="middle" x="41.5" y="-11.3" font-family="Times,serif" font-size="14.00" fill="#0058ad">w 1181 7</text>
<polyline fill="none" stroke="#0058ad" points="83,-0.5 83,-29.5 "/>
<text text-anchor="middle" x="126" y="-11.3" font-family="Times,serif" font-size="14.00" fill="#0058ad">r 1180 nil</text>
</g>
<!-- T31113&#45;&gt;T31078 -->
<g id="edge2" class="edge">
<title>T31113:f1&#45;&gt;T31078:f0</title>
<path fill="none" stroke="#5b00c0" d="M126.5,-30C126.5,-48.29 105.39,-38.94 89.5,-48 66.37,-61.19 52.12,-57.55 39.5,-81 20.37,-116.55 19.52,-167.73 53.54,-175.89"/>
<polygon fill="#5b00c0" stroke="#5b00c0" points="53.17,-179.37 63.5,-177 53.95,-172.41 53.17,-179.37"/>
<text text-anchor="middle" x="49" y="-92.3" font-family="Times,serif" font-size="14.00" fill="#5b00c0">rw</text>
</g>
<!-- T31126 -->
<g id="node3" class="node">
<title>T31126</title>
<polygon fill="none" stroke="#0058ad" points="283,-0.5 283,-29.5 520,-29.5 520,-0.5 283,-0.5"/>
<text text-anchor="middle" x="321.5" y="-11.3" font-family="Times,serif" font-size="14.00" fill="#0058ad">r 1182 2</text>
<polyline fill="none" stroke="#0058ad" points="360,-0.5 360,-29.5 "/>
<text text-anchor="middle" x="401.5" y="-11.3" font-family="Times,serif" font-size="14.00" fill="#0058ad">w 1181 9</text>
<polyline fill="none" stroke="#0058ad" points="443,-0.5 443,-29.5 "/>
<text text-anchor="middle" x="481.5" y="-11.3" font-family="Times,serif" font-size="14.00" fill="#0058ad">r 1182 2</text>
</g>
<!-- T31126&#45;&gt;T31130 -->
<g id="edge3" class="edge">
<title>T31126:f1&#45;&gt;T31130:f2</title>
<path fill="none" stroke="#c000a5" d="M401.5,-30C401.5,-39.61 410.71,-38.8 413.5,-48 415.43,-54.38 413.85,-56.34 413.5,-63 409.15,-146.68 470.51,-249.2 398.49,-257.47"/>
<polygon fill="#c000a5" stroke="#c000a5" points="398.3,-253.97 388.5,-258 398.67,-260.96 398.3,-253.97"/>
<text text-anchor="middle" x="432" y="-132.8" font-family="Times,serif" font-size="14.00" fill="#c000a5">wr</text>
</g>
<!-- T31083 -->
<g id="node4" class="node">
<title>T31083</title>
<polygon fill="none" stroke="#0058ad" points="67.5,-81.5 67.5,-110.5 399.5,-110.5 399.5,-81.5 67.5,-81.5"/>
<text text-anchor="middle" x="106" y="-92.3" font-family="Times,serif" font-size="14.00" fill="#0058ad">r 1180 1</text>
<polyline fill="none" stroke="#0058ad" points="144.5,-81.5 144.5,-110.5 "/>
<text text-anchor="middle" x="183" y="-92.3" font-family="Times,serif" font-size="14.00" fill="#0058ad">r 1179 7</text>
<polyline fill="none" stroke="#0058ad" points="221.5,-81.5 221.5,-110.5 "/>
<text text-anchor="middle" x="267.5" y="-92.3" font-family="Times,serif" font-size="14.00" fill="#0058ad">w 1179 13</text>
<polyline fill="none" stroke="#0058ad" points="313.5,-81.5 313.5,-110.5 "/>
<text text-anchor="middle" x="356.5" y="-92.3" font-family="Times,serif" font-size="14.00" fill="#0058ad">r 1181 nil</text>
</g>
<!-- T31083&#45;&gt;T31113 -->
<g id="edge5" class="edge">
<title>T31083:f3&#45;&gt;T31113:f0</title>
<path fill="none" stroke="#5b00c0" d="M356.5,-81C356.5,-48.52 92.19,-62.5 47.79,-37.83"/>
<polygon fill="#5b00c0" stroke="#5b00c0" points="50.49,-35.6 41.5,-30 45.04,-39.99 50.49,-35.6"/>
<text text-anchor="middle" x="313" y="-51.8" font-family="Times,serif" font-size="14.00" fill="#5b00c0">rw</text>
</g>
<!-- T31083&#45;&gt;T31126 -->
<g id="edge4" class="edge">
<title>T31083:f3&#45;&gt;T31126:f1</title>
<path fill="none" stroke="#5b00c0" d="M356.5,-81C356.5,-54.79 390.34,-58.42 399.33,-40.13"/>
<polygon fill="#5b00c0" stroke="#5b00c0" points="402.83,-40.51 401.5,-30 395.98,-39.04 402.83,-40.51"/>
<text text-anchor="middle" x="401" y="-51.8" font-family="Times,serif" font-size="14.00" fill="#5b00c0">rw</text>
</g>
<!-- T31078&#45;&gt;T31083 -->
<g id="edge6" class="edge">
<title>T31078:f0&#45;&gt;T31083:f0</title>
<path fill="none" stroke="#c000a5" d="M105.5,-162C105.5,-143.23 105.5,-136.12 105.5,-121.35"/>
<polygon fill="#c000a5" stroke="#c000a5" points="109,-121 105.5,-111 102,-121 109,-121"/>
<text text-anchor="middle" x="115" y="-132.8" font-family="Times,serif" font-size="14.00" fill="#c000a5">wr</text>
</g>
</g>
</svg>
