<?xml version="1.0" encoding="UTF-8" standalone="no"?>
<!DOCTYPE svg PUBLIC "-//W3C//DTD SVG 1.1//EN"
 "http://www.w3.org/Graphics/SVG/1.1/DTD/svg11.dtd">
<!-- Generated by graphviz version 2.43.0 (0)
 -->
<!-- Title: a_graph Pages: 1 -->
<svg width="340pt" height="119pt"
 viewBox="0.00 0.00 340.00 119.00" xmlns="http://www.w3.org/2000/svg" xmlns:xlink="http://www.w3.org/1999/xlink">
<g id="graph0" class="graph" transform="scale(1 1) rotate(0) translate(4 115)">
<title>a_graph</title>
<polygon fill="white" stroke="transparent" points="-4,4 -4,-115 336,-115 336,4 -4,4"/>
<!-- T22053 -->
<g id="node1" class="node">
<title>T22053</title>
<polygon fill="none" stroke="#0058ad" points="0,-81.5 0,-110.5 293,-110.5 293,-81.5 0,-81.5"/>
<text text-anchor="middle" x="38.5" y="-92.3" font-family="Times,serif" font-size="14.00" fill="#0058ad">r 842 nil</text>
<polyline fill="none" stroke="#0058ad" points="77,-81.5 77,-110.5 "/>
<text text-anchor="middle" x="114" y="-92.3" font-family="Times,serif" font-size="14.00" fill="#0058ad">w 842 1</text>
<polyline fill="none" stroke="#0058ad" points="151,-81.5 151,-110.5 "/>
<text text-anchor="middle" x="185" y="-92.3" font-family="Times,serif" font-size="14.00" fill="#0058ad">r 839 1</text>
<polyline fill="none" stroke="#0058ad" points="219,-81.5 219,-110.5 "/>
<text text-anchor="middle" x="256" y="-92.3" font-family="Times,serif" font-size="14.00" fill="#0058ad">w 842 2</text>
</g>
<!-- T22065 -->
<g id="node2" class="node">
<title>T22065</title>
<polygon fill="none" stroke="#0058ad" points="27,-0.5 27,-29.5 332,-29.5 332,-0.5 27,-0.5"/>
<text text-anchor="middle" x="65.5" y="-11.3" font-family="Times,serif" font-size="14.00" fill="#0058ad">r 842 nil</text>
<polyline fill="none" stroke="#0058ad" points="104,-0.5 104,-29.5 "/>
<text text-anchor="middle" x="141" y="-11.3" font-family="Times,serif" font-size="14.00" fill="#0058ad">w 842 3</text>
<polyline fill="none" stroke="#0058ad" points="178,-0.5 178,-29.5 "/>
<text text-anchor="middle" x="216.5" y="-11.3" font-family="Times,serif" font-size="14.00" fill="#0058ad">r 840 10</text>
<polyline fill="none" stroke="#0058ad" points="255,-0.5 255,-29.5 "/>
<text text-anchor="middle" x="293.5" y="-11.3" font-family="Times,serif" font-size="14.00" fill="#0058ad">r 841 nil</text>
</g>
<!-- T22053&#45;&gt;T22065 -->
<g id="edge1" class="edge">
<title>T22053:f0&#45;&gt;T22065:f1</title>
<path fill="none" stroke="#5b00c0" d="M38.5,-81C38.5,-34.28 125.19,-73.43 138.73,-40.13"/>
<polygon fill="#5b00c0" stroke="#5b00c0" points="142.23,-40.45 140.5,-30 135.33,-39.25 142.23,-40.45"/>
<text text-anchor="middle" x="142" y="-51.8" font-family="Times,serif" font-size="14.00" fill="#5b00c0">rw</text>
</g>
<!-- T22065&#45;&gt;T22053 -->
<g id="edge2" class="edge">
<title>T22065:f0&#45;&gt;T22053:f3</title>
<path fill="none" stroke="#5b00c0" d="M65.5,-30C65.5,-50.4 135.77,-42.82 155.5,-48 197.43,-59 247.49,-37.82 255.42,-70.8"/>
<polygon fill="#5b00c0" stroke="#5b00c0" points="251.97,-71.42 256.5,-81 258.93,-70.69 251.97,-71.42"/>
<text text-anchor="middle" x="261" y="-51.8" font-family="Times,serif" font-size="14.00" fill="#5b00c0">rw</text>
</g>
</g>
</svg>
