<?xml version="1.0" encoding="UTF-8" standalone="no"?>
<!DOCTYPE svg PUBLIC "-//W3C//DTD SVG 1.1//EN"
 "http://www.w3.org/Graphics/SVG/1.1/DTD/svg11.dtd">
<!-- Generated by graphviz version 2.43.0 (0)
 -->
<!-- Title: a_graph Pages: 1 -->
<svg width="405pt" height="281pt"
 viewBox="0.00 0.00 405.00 281.00" xmlns="http://www.w3.org/2000/svg" xmlns:xlink="http://www.w3.org/1999/xlink">
<g id="graph0" class="graph" transform="scale(1 1) rotate(0) translate(4 277)">
<title>a_graph</title>
<polygon fill="white" stroke="transparent" points="-4,4 -4,-277 401,-277 401,4 -4,4"/>
<!-- T2167 -->
<g id="node1" class="node">
<title>T2167</title>
<polygon fill="none" stroke="#0058ad" points="134,-243.5 134,-272.5 397,-272.5 397,-243.5 134,-243.5"/>
<text text-anchor="middle" x="168" y="-254.3" font-family="Times,serif" font-size="14.00" fill="#0058ad">r 89 nil</text>
<polyline fill="none" stroke="#0058ad" points="202,-243.5 202,-272.5 "/>
<text text-anchor="middle" x="234.5" y="-254.3" font-family="Times,serif" font-size="14.00" fill="#0058ad">w 86 2</text>
<polyline fill="none" stroke="#0058ad" points="267,-243.5 267,-272.5 "/>
<text text-anchor="middle" x="299.5" y="-254.3" font-family="Times,serif" font-size="14.00" fill="#0058ad">w 89 1</text>
<polyline fill="none" stroke="#0058ad" points="332,-243.5 332,-272.5 "/>
<text text-anchor="middle" x="364.5" y="-254.3" font-family="Times,serif" font-size="14.00" fill="#0058ad">w 89 2</text>
</g>
<!-- T2188 -->
<g id="node3" class="node">
<title>T2188</title>
<polygon fill="none" stroke="#0058ad" points="67,-162.5 67,-191.5 200,-191.5 200,-162.5 67,-162.5"/>
<text text-anchor="middle" x="101" y="-173.3" font-family="Times,serif" font-size="14.00" fill="#0058ad">r 88 nil</text>
<polyline fill="none" stroke="#0058ad" points="135,-162.5 135,-191.5 "/>
<text text-anchor="middle" x="167.5" y="-173.3" font-family="Times,serif" font-size="14.00" fill="#0058ad">w 89 6</text>
</g>
<!-- T2167&#45;&gt;T2188 -->
<g id="edge2" class="edge">
<title>T2167:f0&#45;&gt;T2188:f1</title>
<path fill="none" stroke="#5b00c0" d="M167.5,-243C167.5,-224.23 167.5,-217.12 167.5,-202.35"/>
<polygon fill="#5b00c0" stroke="#5b00c0" points="171,-202 167.5,-192 164,-202 171,-202"/>
<text text-anchor="middle" x="177" y="-213.8" font-family="Times,serif" font-size="14.00" fill="#5b00c0">rw</text>
</g>
<!-- T2168 -->
<g id="node4" class="node">
<title>T2168</title>
<polygon fill="none" stroke="#0058ad" points="2,-0.5 2,-29.5 259,-29.5 259,-0.5 2,-0.5"/>
<text text-anchor="middle" x="34.5" y="-11.3" font-family="Times,serif" font-size="14.00" fill="#0058ad">w 89 3</text>
<polyline fill="none" stroke="#0058ad" points="67,-0.5 67,-29.5 "/>
<text text-anchor="middle" x="101" y="-11.3" font-family="Times,serif" font-size="14.00" fill="#0058ad">r 88 nil</text>
<polyline fill="none" stroke="#0058ad" points="135,-0.5 135,-29.5 "/>
<text text-anchor="middle" x="164.5" y="-11.3" font-family="Times,serif" font-size="14.00" fill="#0058ad">r 89 3</text>
<polyline fill="none" stroke="#0058ad" points="194,-0.5 194,-29.5 "/>
<text text-anchor="middle" x="226.5" y="-11.3" font-family="Times,serif" font-size="14.00" fill="#0058ad">w 89 4</text>
</g>
<!-- T2167&#45;&gt;T2168 -->
<g id="edge1" class="edge">
<title>T2167:f0&#45;&gt;T2168:f3</title>
<path fill="none" stroke="#5b00c0" d="M167.5,-243C167.5,-230.02 182.11,-234.9 190.5,-225 201.3,-212.25 203.48,-207.94 208.5,-192 229.19,-126.27 226.81,-104.56 226.52,-40.25"/>
<polygon fill="#5b00c0" stroke="#5b00c0" points="230.02,-39.99 226.5,-30 223.02,-40.01 230.02,-39.99"/>
<text text-anchor="middle" x="234" y="-132.8" font-family="Times,serif" font-size="14.00" fill="#5b00c0">rw</text>
</g>
<!-- T2161 -->
<g id="node2" class="node">
<title>T2161</title>
<polygon fill="none" stroke="#0058ad" points="0,-81.5 0,-110.5 201,-110.5 201,-81.5 0,-81.5"/>
<text text-anchor="middle" x="34" y="-92.3" font-family="Times,serif" font-size="14.00" fill="#0058ad">r 82 nil</text>
<polyline fill="none" stroke="#0058ad" points="68,-81.5 68,-110.5 "/>
<text text-anchor="middle" x="100.5" y="-92.3" font-family="Times,serif" font-size="14.00" fill="#0058ad">w 88 2</text>
<polyline fill="none" stroke="#0058ad" points="133,-81.5 133,-110.5 "/>
<text text-anchor="middle" x="167" y="-92.3" font-family="Times,serif" font-size="14.00" fill="#0058ad">r 89 nil</text>
</g>
<!-- T2161&#45;&gt;T2167 -->
<g id="edge5" class="edge">
<title>T2161:f2&#45;&gt;T2167:f3</title>
<path fill="none" stroke="#5b00c0" d="M202.5,-96C296.31,-96 359.91,-142.34 364.26,-232.92"/>
<polygon fill="#5b00c0" stroke="#5b00c0" points="360.76,-233.09 364.5,-243 367.76,-232.92 360.76,-233.09"/>
<text text-anchor="middle" x="366" y="-173.3" font-family="Times,serif" font-size="14.00" fill="#5b00c0">rw</text>
</g>
<!-- T2161&#45;&gt;T2188 -->
<g id="edge4" class="edge">
<title>T2161:f2&#45;&gt;T2188:f1</title>
<path fill="none" stroke="#5b00c0" d="M167.5,-111C167.5,-129.77 167.5,-136.88 167.5,-151.65"/>
<polygon fill="#5b00c0" stroke="#5b00c0" points="164,-152 167.5,-162 171,-152 164,-152"/>
<text text-anchor="middle" x="177" y="-132.8" font-family="Times,serif" font-size="14.00" fill="#5b00c0">rw</text>
</g>
<!-- T2161&#45;&gt;T2168 -->
<g id="edge3" class="edge">
<title>T2161:f2&#45;&gt;T2168:f3</title>
<path fill="none" stroke="#5b00c0" d="M167.5,-81C167.5,-61.47 181.51,-60.51 196.5,-48 204.71,-41.15 215.81,-42.56 221.95,-39.06"/>
<polygon fill="#5b00c0" stroke="#5b00c0" points="225.14,-40.51 226.5,-30 218.88,-37.36 225.14,-40.51"/>
<text text-anchor="middle" x="206" y="-51.8" font-family="Times,serif" font-size="14.00" fill="#5b00c0">rw</text>
</g>
<!-- T2188&#45;&gt;T2161 -->
<g id="edge6" class="edge">
<title>T2188:f0&#45;&gt;T2161:f1</title>
<path fill="none" stroke="#5b00c0" d="M100.5,-162C100.5,-143.23 100.5,-136.12 100.5,-121.35"/>
<polygon fill="#5b00c0" stroke="#5b00c0" points="104,-121 100.5,-111 97,-121 104,-121"/>
<text text-anchor="middle" x="110" y="-132.8" font-family="Times,serif" font-size="14.00" fill="#5b00c0">rw</text>
</g>
<!-- T2168&#45;&gt;T2161 -->
<g id="edge7" class="edge">
<title>T2168:f1&#45;&gt;T2161:f1</title>
<path fill="none" stroke="#5b00c0" d="M100.5,-30C100.5,-48.77 100.5,-55.88 100.5,-70.65"/>
<polygon fill="#5b00c0" stroke="#5b00c0" points="97,-71 100.5,-81 104,-71 97,-71"/>
<text text-anchor="middle" x="110" y="-51.8" font-family="Times,serif" font-size="14.00" fill="#5b00c0">rw</text>
</g>
</g>
</svg>
