<?xml version="1.0" encoding="UTF-8" standalone="no"?>
<!DOCTYPE svg PUBLIC "-//W3C//DTD SVG 1.1//EN"
 "http://www.w3.org/Graphics/SVG/1.1/DTD/svg11.dtd">
<!-- Generated by graphviz version 2.43.0 (0)
 -->
<!-- Title: a_graph Pages: 1 -->
<svg width="305pt" height="119pt"
 viewBox="0.00 0.00 305.00 119.00" xmlns="http://www.w3.org/2000/svg" xmlns:xlink="http://www.w3.org/1999/xlink">
<g id="graph0" class="graph" transform="scale(1 1) rotate(0) translate(4 115)">
<title>a_graph</title>
<polygon fill="white" stroke="transparent" points="-4,4 -4,-115 301,-115 301,4 -4,4"/>
<!-- T25740 -->
<g id="node1" class="node">
<title>T25740</title>
<polygon fill="none" stroke="#0058ad" points="0,-81.5 0,-110.5 293,-110.5 293,-81.5 0,-81.5"/>
<text text-anchor="middle" x="34" y="-92.3" font-family="Times,serif" font-size="14.00" fill="#0058ad">r 976 6</text>
<polyline fill="none" stroke="#0058ad" points="68,-81.5 68,-110.5 "/>
<text text-anchor="middle" x="105" y="-92.3" font-family="Times,serif" font-size="14.00" fill="#0058ad">w 976 7</text>
<polyline fill="none" stroke="#0058ad" points="142,-81.5 142,-110.5 "/>
<text text-anchor="middle" x="180.5" y="-92.3" font-family="Times,serif" font-size="14.00" fill="#0058ad">r 978 nil</text>
<polyline fill="none" stroke="#0058ad" points="219,-81.5 219,-110.5 "/>
<text text-anchor="middle" x="256" y="-92.3" font-family="Times,serif" font-size="14.00" fill="#0058ad">w 978 1</text>
</g>
<!-- T25743 -->
<g id="node2" class="node">
<title>T25743</title>
<polygon fill="none" stroke="#0058ad" points="146,-0.5 146,-29.5 297,-29.5 297,-0.5 146,-0.5"/>
<text text-anchor="middle" x="184.5" y="-11.3" font-family="Times,serif" font-size="14.00" fill="#0058ad">r 978 nil</text>
<polyline fill="none" stroke="#0058ad" points="223,-0.5 223,-29.5 "/>
<text text-anchor="middle" x="260" y="-11.3" font-family="Times,serif" font-size="14.00" fill="#0058ad">w 978 2</text>
</g>
<!-- T25740&#45;&gt;T25743 -->
<g id="edge1" class="edge">
<title>T25740:f2&#45;&gt;T25743:f1</title>
<path fill="none" stroke="#5b00c0" d="M180.5,-81C180.5,-62.33 191.22,-58.74 206.5,-48 223.48,-36.07 248.94,-48.62 257.54,-39.56"/>
<polygon fill="#5b00c0" stroke="#5b00c0" points="260.88,-40.59 260.5,-30 254.2,-38.52 260.88,-40.59"/>
<text text-anchor="middle" x="216" y="-51.8" font-family="Times,serif" font-size="14.00" fill="#5b00c0">rw</text>
</g>
<!-- T25743&#45;&gt;T25740 -->
<g id="edge2" class="edge">
<title>T25743:f0&#45;&gt;T25740:f3</title>
<path fill="none" stroke="#5b00c0" d="M184.5,-30C184.5,-49.9 209.25,-36.52 225.5,-48 238.6,-57.25 250.51,-59.94 254.8,-70.83"/>
<polygon fill="#5b00c0" stroke="#5b00c0" points="251.4,-71.71 256.5,-81 258.31,-70.56 251.4,-71.71"/>
<text text-anchor="middle" x="259" y="-51.8" font-family="Times,serif" font-size="14.00" fill="#5b00c0">rw</text>
</g>
</g>
</svg>
