<?xml version="1.0" encoding="UTF-8" standalone="no"?>
<!DOCTYPE svg PUBLIC "-//W3C//DTD SVG 1.1//EN"
 "http://www.w3.org/Graphics/SVG/1.1/DTD/svg11.dtd">
<!-- Generated by graphviz version 2.43.0 (0)
 -->
<!-- Title: a_graph Pages: 1 -->
<svg width="301pt" height="119pt"
 viewBox="0.00 0.00 301.00 119.00" xmlns="http://www.w3.org/2000/svg" xmlns:xlink="http://www.w3.org/1999/xlink">
<g id="graph0" class="graph" transform="scale(1 1) rotate(0) translate(4 115)">
<title>a_graph</title>
<polygon fill="white" stroke="transparent" points="-4,4 -4,-115 297,-115 297,4 -4,4"/>
<!-- T30374 -->
<g id="node1" class="node">
<title>T30374</title>
<polygon fill="none" stroke="#0058ad" points="41,-81.5 41,-110.5 293,-110.5 293,-81.5 41,-81.5"/>
<text text-anchor="middle" x="84" y="-92.3" font-family="Times,serif" font-size="14.00" fill="#0058ad">r 1154 nil</text>
<polyline fill="none" stroke="#0058ad" points="127,-81.5 127,-110.5 "/>
<text text-anchor="middle" x="168.5" y="-92.3" font-family="Times,serif" font-size="14.00" fill="#0058ad">w 1151 7</text>
<polyline fill="none" stroke="#0058ad" points="210,-81.5 210,-110.5 "/>
<text text-anchor="middle" x="251.5" y="-92.3" font-family="Times,serif" font-size="14.00" fill="#0058ad">w 1154 1</text>
</g>
<!-- T30375 -->
<g id="node2" class="node">
<title>T30375</title>
<polygon fill="none" stroke="#0058ad" points="0,-0.5 0,-29.5 252,-29.5 252,-0.5 0,-0.5"/>
<text text-anchor="middle" x="41.5" y="-11.3" font-family="Times,serif" font-size="14.00" fill="#0058ad">w 1149 7</text>
<polyline fill="none" stroke="#0058ad" points="83,-0.5 83,-29.5 "/>
<text text-anchor="middle" x="126" y="-11.3" font-family="Times,serif" font-size="14.00" fill="#0058ad">r 1154 nil</text>
<polyline fill="none" stroke="#0058ad" points="169,-0.5 169,-29.5 "/>
<text text-anchor="middle" x="210.5" y="-11.3" font-family="Times,serif" font-size="14.00" fill="#0058ad">w 1154 2</text>
</g>
<!-- T30374&#45;&gt;T30375 -->
<g id="edge1" class="edge">
<title>T30374:f0&#45;&gt;T30375:f2</title>
<path fill="none" stroke="#5b00c0" d="M84,-81C84,-68.05 176.1,-51.2 203.44,-37.09"/>
<polygon fill="#5b00c0" stroke="#5b00c0" points="206.1,-39.39 211,-30 201.31,-34.29 206.1,-39.39"/>
<text text-anchor="middle" x="182.5" y="-51.8" font-family="Times,serif" font-size="14.00" fill="#5b00c0">rw</text>
</g>
<!-- T30375&#45;&gt;T30374 -->
<g id="edge2" class="edge">
<title>T30375:f1&#45;&gt;T30374:f2</title>
<path fill="none" stroke="#5b00c0" d="M126,-30C126,-62.12 166.31,-35.72 196,-48 218.94,-57.49 243.81,-53.7 250.35,-70.79"/>
<polygon fill="#5b00c0" stroke="#5b00c0" points="246.95,-71.69 252,-81 253.86,-70.57 246.95,-71.69"/>
<text text-anchor="middle" x="253.5" y="-51.8" font-family="Times,serif" font-size="14.00" fill="#5b00c0">rw</text>
</g>
</g>
</svg>
