<?xml version="1.0" encoding="UTF-8" standalone="no"?>
<!DOCTYPE svg PUBLIC "-//W3C//DTD SVG 1.1//EN"
 "http://www.w3.org/Graphics/SVG/1.1/DTD/svg11.dtd">
<!-- Generated by graphviz version 2.43.0 (0)
 -->
<!-- Title: a_graph Pages: 1 -->
<svg width="306pt" height="200pt"
 viewBox="0.00 0.00 305.50 200.00" xmlns="http://www.w3.org/2000/svg" xmlns:xlink="http://www.w3.org/1999/xlink">
<g id="graph0" class="graph" transform="scale(1 1) rotate(0) translate(4 196)">
<title>a_graph</title>
<polygon fill="white" stroke="transparent" points="-4,4 -4,-196 301.5,-196 301.5,4 -4,4"/>
<!-- T3542 -->
<g id="node1" class="node">
<title>T3542</title>
<polygon fill="none" stroke="#0058ad" points="2.5,-162.5 2.5,-191.5 153.5,-191.5 153.5,-162.5 2.5,-162.5"/>
<text text-anchor="middle" x="39.5" y="-173.3" font-family="Times,serif" font-size="14.00" fill="#0058ad">w 139 2</text>
<polyline fill="none" stroke="#0058ad" points="76.5,-162.5 76.5,-191.5 "/>
<text text-anchor="middle" x="115" y="-173.3" font-family="Times,serif" font-size="14.00" fill="#0058ad">r 140 nil</text>
</g>
<!-- T3538 -->
<g id="node2" class="node">
<title>T3538</title>
<polygon fill="none" stroke="#0058ad" points="78.5,-81.5 78.5,-110.5 297.5,-110.5 297.5,-81.5 78.5,-81.5"/>
<text text-anchor="middle" x="115.5" y="-92.3" font-family="Times,serif" font-size="14.00" fill="#0058ad">w 140 1</text>
<polyline fill="none" stroke="#0058ad" points="152.5,-81.5 152.5,-110.5 "/>
<text text-anchor="middle" x="186.5" y="-92.3" font-family="Times,serif" font-size="14.00" fill="#0058ad">r 140 1</text>
<polyline fill="none" stroke="#0058ad" points="220.5,-81.5 220.5,-110.5 "/>
<text text-anchor="middle" x="259" y="-92.3" font-family="Times,serif" font-size="14.00" fill="#0058ad">r 139 nil</text>
</g>
<!-- T3542&#45;&gt;T3538 -->
<g id="edge1" class="edge">
<title>T3542:f1&#45;&gt;T3538:f0</title>
<path fill="none" stroke="#5b00c0" d="M115,-162C115,-143.23 115,-136.12 115,-121.35"/>
<polygon fill="#5b00c0" stroke="#5b00c0" points="118.5,-121 115,-111 111.5,-121 118.5,-121"/>
<text text-anchor="middle" x="124.5" y="-132.8" font-family="Times,serif" font-size="14.00" fill="#5b00c0">rw</text>
</g>
<!-- T3538&#45;&gt;T3542 -->
<g id="edge2" class="edge">
<title>T3538:f2&#45;&gt;T3542:f0</title>
<path fill="none" stroke="#5b00c0" d="M259,-111C259,-129.66 109.64,-122.91 92,-129 81.75,-132.53 55.17,-142.22 44.03,-152.9"/>
<polygon fill="#5b00c0" stroke="#5b00c0" points="40.77,-151.55 39,-162 46.9,-154.94 40.77,-151.55"/>
<text text-anchor="middle" x="101.5" y="-132.8" font-family="Times,serif" font-size="14.00" fill="#5b00c0">rw</text>
</g>
<!-- T3535 -->
<g id="node3" class="node">
<title>T3535</title>
<polygon fill="none" stroke="#0058ad" points="0,-0.5 0,-29.5 296,-29.5 296,-0.5 0,-0.5"/>
<text text-anchor="middle" x="38.5" y="-11.3" font-family="Times,serif" font-size="14.00" fill="#0058ad">r 139 nil</text>
<polyline fill="none" stroke="#0058ad" points="77,-0.5 77,-29.5 "/>
<text text-anchor="middle" x="111" y="-11.3" font-family="Times,serif" font-size="14.00" fill="#0058ad">r 115 5</text>
<polyline fill="none" stroke="#0058ad" points="145,-0.5 145,-29.5 "/>
<text text-anchor="middle" x="183.5" y="-11.3" font-family="Times,serif" font-size="14.00" fill="#0058ad">r 140 nil</text>
<polyline fill="none" stroke="#0058ad" points="222,-0.5 222,-29.5 "/>
<text text-anchor="middle" x="259" y="-11.3" font-family="Times,serif" font-size="14.00" fill="#0058ad">w 139 1</text>
</g>
<!-- T3538&#45;&gt;T3535 -->
<g id="edge3" class="edge">
<title>T3538:f2&#45;&gt;T3535:f3</title>
<path fill="none" stroke="#5b00c0" d="M259,-81C259,-62.23 259,-55.12 259,-40.35"/>
<polygon fill="#5b00c0" stroke="#5b00c0" points="262.5,-40 259,-30 255.5,-40 262.5,-40"/>
<text text-anchor="middle" x="268.5" y="-51.8" font-family="Times,serif" font-size="14.00" fill="#5b00c0">rw</text>
</g>
<!-- T3535&#45;&gt;T3542 -->
<g id="edge5" class="edge">
<title>T3535:f0&#45;&gt;T3542:f0</title>
<path fill="none" stroke="#5b00c0" d="M38,-30C38,-85.12 38.88,-101.39 38.99,-151.81"/>
<polygon fill="#5b00c0" stroke="#5b00c0" points="35.49,-152 39,-162 42.49,-152 35.49,-152"/>
<text text-anchor="middle" x="48.5" y="-92.3" font-family="Times,serif" font-size="14.00" fill="#5b00c0">rw</text>
</g>
<!-- T3535&#45;&gt;T3538 -->
<g id="edge4" class="edge">
<title>T3535:f2&#45;&gt;T3538:f0</title>
<path fill="none" stroke="#5b00c0" d="M184,-30C184,-64.11 128.79,-47.49 117.14,-70.9"/>
<polygon fill="#5b00c0" stroke="#5b00c0" points="113.65,-70.49 115,-81 120.5,-71.94 113.65,-70.49"/>
<text text-anchor="middle" x="182.5" y="-51.8" font-family="Times,serif" font-size="14.00" fill="#5b00c0">rw</text>
</g>
</g>
</svg>
