<?xml version="1.0" encoding="UTF-8" standalone="no"?>
<!DOCTYPE svg PUBLIC "-//W3C//DTD SVG 1.1//EN"
 "http://www.w3.org/Graphics/SVG/1.1/DTD/svg11.dtd">
<!-- Generated by graphviz version 2.43.0 (0)
 -->
<!-- Title: a_graph Pages: 1 -->
<svg width="521pt" height="281pt"
 viewBox="0.00 0.00 520.50 281.00" xmlns="http://www.w3.org/2000/svg" xmlns:xlink="http://www.w3.org/1999/xlink">
<g id="graph0" class="graph" transform="scale(1 1) rotate(0) translate(4 277)">
<title>a_graph</title>
<polygon fill="white" stroke="transparent" points="-4,4 -4,-277 516.5,-277 516.5,4 -4,4"/>
<!-- T22019 -->
<g id="node1" class="node">
<title>T22019</title>
<polygon fill="none" stroke="#0058ad" points="0,-243.5 0,-272.5 240,-272.5 240,-243.5 0,-243.5"/>
<text text-anchor="middle" x="41.5" y="-254.3" font-family="Times,serif" font-size="14.00" fill="#0058ad">w 822 14</text>
<polyline fill="none" stroke="#0058ad" points="83,-243.5 83,-272.5 "/>
<text text-anchor="middle" x="124.5" y="-254.3" font-family="Times,serif" font-size="14.00" fill="#0058ad">w 831 16</text>
<polyline fill="none" stroke="#0058ad" points="166,-243.5 166,-272.5 "/>
<text text-anchor="middle" x="203" y="-254.3" font-family="Times,serif" font-size="14.00" fill="#0058ad">w 840 1</text>
</g>
<!-- T22025 -->
<g id="node3" class="node">
<title>T22025</title>
<polygon fill="none" stroke="#0058ad" points="118.5,-162.5 118.5,-191.5 263.5,-191.5 263.5,-162.5 118.5,-162.5"/>
<text text-anchor="middle" x="152.5" y="-173.3" font-family="Times,serif" font-size="14.00" fill="#0058ad">r 840 1</text>
<polyline fill="none" stroke="#0058ad" points="186.5,-162.5 186.5,-191.5 "/>
<text text-anchor="middle" x="225" y="-173.3" font-family="Times,serif" font-size="14.00" fill="#0058ad">r 839 nil</text>
</g>
<!-- T22019&#45;&gt;T22025 -->
<g id="edge1" class="edge">
<title>T22019:f2&#45;&gt;T22025:f0</title>
<path fill="none" stroke="#c000a5" d="M203,-243C203,-214.83 163.6,-221.54 154.06,-201.82"/>
<polygon fill="#c000a5" stroke="#c000a5" points="157.48,-201.07 152,-192 150.63,-202.51 157.48,-201.07"/>
<text text-anchor="middle" x="203.5" y="-213.8" font-family="Times,serif" font-size="14.00" fill="#c000a5">wr</text>
</g>
<!-- T22018 -->
<g id="node2" class="node">
<title>T22018</title>
<polygon fill="none" stroke="#0058ad" points="207.5,-0.5 207.5,-29.5 512.5,-29.5 512.5,-0.5 207.5,-0.5"/>
<text text-anchor="middle" x="241.5" y="-11.3" font-family="Times,serif" font-size="14.00" fill="#0058ad">r 839 1</text>
<polyline fill="none" stroke="#0058ad" points="275.5,-0.5 275.5,-29.5 "/>
<text text-anchor="middle" x="314" y="-11.3" font-family="Times,serif" font-size="14.00" fill="#0058ad">r 840 nil</text>
<polyline fill="none" stroke="#0058ad" points="352.5,-0.5 352.5,-29.5 "/>
<text text-anchor="middle" x="394" y="-11.3" font-family="Times,serif" font-size="14.00" fill="#0058ad">w 831 15</text>
<polyline fill="none" stroke="#0058ad" points="435.5,-0.5 435.5,-29.5 "/>
<text text-anchor="middle" x="474" y="-11.3" font-family="Times,serif" font-size="14.00" fill="#0058ad">r 840 nil</text>
</g>
<!-- T22018&#45;&gt;T22019 -->
<g id="edge2" class="edge">
<title>T22018:f1&#45;&gt;T22019:f2</title>
<path fill="none" stroke="#5b00c0" d="M314,-30C314,-54.19 328.71,-57.19 333,-81 335.36,-94.12 336.68,-98.18 333,-111 312.73,-181.61 317.54,-251.16 251.3,-257.53"/>
<polygon fill="#5b00c0" stroke="#5b00c0" points="250.83,-254.04 241,-258 251.15,-261.04 250.83,-254.04"/>
<text text-anchor="middle" x="337.5" y="-132.8" font-family="Times,serif" font-size="14.00" fill="#5b00c0">rw</text>
</g>
<!-- T22003 -->
<g id="node4" class="node">
<title>T22003</title>
<polygon fill="none" stroke="#0058ad" points="12.5,-81.5 12.5,-110.5 323.5,-110.5 323.5,-81.5 12.5,-81.5"/>
<text text-anchor="middle" x="51" y="-92.3" font-family="Times,serif" font-size="14.00" fill="#0058ad">r 838 14</text>
<polyline fill="none" stroke="#0058ad" points="89.5,-81.5 89.5,-110.5 "/>
<text text-anchor="middle" x="126.5" y="-92.3" font-family="Times,serif" font-size="14.00" fill="#0058ad">w 839 1</text>
<polyline fill="none" stroke="#0058ad" points="163.5,-81.5 163.5,-110.5 "/>
<text text-anchor="middle" x="205" y="-92.3" font-family="Times,serif" font-size="14.00" fill="#0058ad">w 831 14</text>
<polyline fill="none" stroke="#0058ad" points="246.5,-81.5 246.5,-110.5 "/>
<text text-anchor="middle" x="285" y="-92.3" font-family="Times,serif" font-size="14.00" fill="#0058ad">r 838 14</text>
</g>
<!-- T22025&#45;&gt;T22003 -->
<g id="edge3" class="edge">
<title>T22025:f1&#45;&gt;T22003:f1</title>
<path fill="none" stroke="#5b00c0" d="M225,-162C225,-116.37 140.86,-153.59 127.72,-120.91"/>
<polygon fill="#5b00c0" stroke="#5b00c0" points="131.16,-120.25 126,-111 124.26,-121.45 131.16,-120.25"/>
<text text-anchor="middle" x="226.5" y="-132.8" font-family="Times,serif" font-size="14.00" fill="#5b00c0">rw</text>
</g>
<!-- T22003&#45;&gt;T22018 -->
<g id="edge4" class="edge">
<title>T22003:f1&#45;&gt;T22018:f0</title>
<path fill="none" stroke="#c000a5" d="M126,-81C126,-38.33 155.06,-18.1 195.95,-15.33"/>
<polygon fill="#c000a5" stroke="#c000a5" points="196.12,-18.83 206,-15 195.89,-11.83 196.12,-18.83"/>
<text text-anchor="middle" x="143.5" y="-51.8" font-family="Times,serif" font-size="14.00" fill="#c000a5">wr</text>
</g>
</g>
</svg>
