<?xml version="1.0" encoding="UTF-8" standalone="no"?>
<!DOCTYPE svg PUBLIC "-//W3C//DTD SVG 1.1//EN"
 "http://www.w3.org/Graphics/SVG/1.1/DTD/svg11.dtd">
<!-- Generated by graphviz version 2.43.0 (0)
 -->
<!-- Title: a_graph Pages: 1 -->
<svg width="1209pt" height="686pt"
 viewBox="0.00 0.00 1208.50 686.00" xmlns="http://www.w3.org/2000/svg" xmlns:xlink="http://www.w3.org/1999/xlink">
<g id="graph0" class="graph" transform="scale(1 1) rotate(0) translate(4 682)">
<title>a_graph</title>
<polygon fill="white" stroke="transparent" points="-4,4 -4,-682 1204.5,-682 1204.5,4 -4,4"/>
<!-- T31633 -->
<g id="node1" class="node">
<title>T31633</title>
<polygon fill="none" stroke="#0058ad" points="859.5,-648.5 859.5,-677.5 1200.5,-677.5 1200.5,-648.5 859.5,-648.5"/>
<text text-anchor="middle" x="902.5" y="-659.3" font-family="Times,serif" font-size="14.00" fill="#0058ad">r 1197 14</text>
<polyline fill="none" stroke="#0058ad" points="945.5,-648.5 945.5,-677.5 "/>
<text text-anchor="middle" x="991.5" y="-659.3" font-family="Times,serif" font-size="14.00" fill="#0058ad">w 1201 12</text>
<polyline fill="none" stroke="#0058ad" points="1037.5,-648.5 1037.5,-677.5 "/>
<text text-anchor="middle" x="1076" y="-659.3" font-family="Times,serif" font-size="14.00" fill="#0058ad">r 1196 8</text>
<polyline fill="none" stroke="#0058ad" points="1114.5,-648.5 1114.5,-677.5 "/>
<text text-anchor="middle" x="1157.5" y="-659.3" font-family="Times,serif" font-size="14.00" fill="#0058ad">r 1201 12</text>
</g>
<!-- T31637 -->
<g id="node11" class="node">
<title>T31637</title>
<polygon fill="none" stroke="#0058ad" points="659,-567.5 659,-596.5 997,-596.5 997,-567.5 659,-567.5"/>
<text text-anchor="middle" x="702" y="-578.3" font-family="Times,serif" font-size="14.00" fill="#0058ad">r 1195 nil</text>
<polyline fill="none" stroke="#0058ad" points="745,-567.5 745,-596.5 "/>
<text text-anchor="middle" x="791" y="-578.3" font-family="Times,serif" font-size="14.00" fill="#0058ad">w 1197 16</text>
<polyline fill="none" stroke="#0058ad" points="837,-567.5 837,-596.5 "/>
<text text-anchor="middle" x="875.5" y="-578.3" font-family="Times,serif" font-size="14.00" fill="#0058ad">r 1196 8</text>
<polyline fill="none" stroke="#0058ad" points="914,-567.5 914,-596.5 "/>
<text text-anchor="middle" x="955.5" y="-578.3" font-family="Times,serif" font-size="14.00" fill="#0058ad">w 1196 9</text>
</g>
<!-- T31633&#45;&gt;T31637 -->
<g id="edge1" class="edge">
<title>T31633:f2&#45;&gt;T31637:f3</title>
<path fill="none" stroke="#5b00c0" d="M1076,-648C1076,-606.05 1048.19,-585.28 1008.15,-582.36"/>
<polygon fill="#5b00c0" stroke="#5b00c0" points="1008.12,-578.86 998,-582 1007.87,-585.85 1008.12,-578.86"/>
<text text-anchor="middle" x="1082.5" y="-618.8" font-family="Times,serif" font-size="14.00" fill="#5b00c0">rw</text>
</g>
<!-- T31548 -->
<g id="node2" class="node">
<title>T31548</title>
<polygon fill="none" stroke="#0058ad" points="660.5,-324.5 660.5,-353.5 921.5,-353.5 921.5,-324.5 660.5,-324.5"/>
<text text-anchor="middle" x="706.5" y="-335.3" font-family="Times,serif" font-size="14.00" fill="#0058ad">w 1198 12</text>
<polyline fill="none" stroke="#0058ad" points="752.5,-324.5 752.5,-353.5 "/>
<text text-anchor="middle" x="791" y="-335.3" font-family="Times,serif" font-size="14.00" fill="#0058ad">r 1196 3</text>
<polyline fill="none" stroke="#0058ad" points="829.5,-324.5 829.5,-353.5 "/>
<text text-anchor="middle" x="875.5" y="-335.3" font-family="Times,serif" font-size="14.00" fill="#0058ad">w 1198 13</text>
</g>
<!-- T31560 -->
<g id="node12" class="node">
<title>T31560</title>
<polygon fill="none" stroke="#0058ad" points="725,-243.5 725,-272.5 983,-272.5 983,-243.5 725,-243.5"/>
<text text-anchor="middle" x="768" y="-254.3" font-family="Times,serif" font-size="14.00" fill="#0058ad">r 1198 13</text>
<polyline fill="none" stroke="#0058ad" points="811,-243.5 811,-272.5 "/>
<text text-anchor="middle" x="854" y="-254.3" font-family="Times,serif" font-size="14.00" fill="#0058ad">r 1199 nil</text>
<polyline fill="none" stroke="#0058ad" points="897,-243.5 897,-272.5 "/>
<text text-anchor="middle" x="940" y="-254.3" font-family="Times,serif" font-size="14.00" fill="#0058ad">r 1198 13</text>
</g>
<!-- T31548&#45;&gt;T31560 -->
<g id="edge2" class="edge">
<title>T31548:f2&#45;&gt;T31560:f0</title>
<path fill="none" stroke="#c000a5" d="M876,-324C876,-274.86 783.44,-318.49 769.7,-283.12"/>
<polygon fill="#c000a5" stroke="#c000a5" points="773.11,-282.28 768,-273 766.2,-283.44 773.11,-282.28"/>
<text text-anchor="middle" x="878.5" y="-294.8" font-family="Times,serif" font-size="14.00" fill="#c000a5">wr</text>
</g>
<!-- T31647 -->
<g id="node3" class="node">
<title>T31647</title>
<polygon fill="none" stroke="#0058ad" points="812.5,-162.5 812.5,-191.5 895.5,-191.5 895.5,-162.5 812.5,-162.5"/>
<text text-anchor="middle" x="854" y="-173.3" font-family="Times,serif" font-size="14.00" fill="#0058ad">w 1199 5</text>
</g>
<!-- T31654 -->
<g id="node6" class="node">
<title>T31654</title>
<polygon fill="none" stroke="#0058ad" points="566,-81.5 566,-110.5 910,-110.5 910,-81.5 566,-81.5"/>
<text text-anchor="middle" x="612" y="-92.3" font-family="Times,serif" font-size="14.00" fill="#0058ad">w 1201 16</text>
<polyline fill="none" stroke="#0058ad" points="658,-81.5 658,-110.5 "/>
<text text-anchor="middle" x="696.5" y="-92.3" font-family="Times,serif" font-size="14.00" fill="#0058ad">r 1199 5</text>
<polyline fill="none" stroke="#0058ad" points="735,-81.5 735,-110.5 "/>
<text text-anchor="middle" x="776.5" y="-92.3" font-family="Times,serif" font-size="14.00" fill="#0058ad">w 1202 3</text>
<polyline fill="none" stroke="#0058ad" points="818,-81.5 818,-110.5 "/>
<text text-anchor="middle" x="864" y="-92.3" font-family="Times,serif" font-size="14.00" fill="#0058ad">w 1196 11</text>
</g>
<!-- T31647&#45;&gt;T31654 -->
<g id="edge3" class="edge">
<title>T31647:f0&#45;&gt;T31654:f1</title>
<path fill="none" stroke="#c000a5" d="M814.32,-162.38C813.88,-162.25 813.44,-162.13 813,-162 761.98,-147.41 704.02,-165.13 696.76,-121.03"/>
<polygon fill="#c000a5" stroke="#c000a5" points="700.25,-120.71 696,-111 693.27,-121.24 700.25,-120.71"/>
<text text-anchor="middle" x="719.5" y="-132.8" font-family="Times,serif" font-size="14.00" fill="#c000a5">wr</text>
</g>
<!-- T31657 -->
<g id="node4" class="node">
<title>T31657</title>
<polygon fill="none" stroke="#0058ad" points="109.5,-0.5 109.5,-29.5 358.5,-29.5 358.5,-0.5 109.5,-0.5"/>
<text text-anchor="middle" x="152.5" y="-11.3" font-family="Times,serif" font-size="14.00" fill="#0058ad">r 1195 nil</text>
<polyline fill="none" stroke="#0058ad" points="195.5,-0.5 195.5,-29.5 "/>
<text text-anchor="middle" x="238.5" y="-11.3" font-family="Times,serif" font-size="14.00" fill="#0058ad">r 1203 nil</text>
<polyline fill="none" stroke="#0058ad" points="281.5,-0.5 281.5,-29.5 "/>
<text text-anchor="middle" x="320" y="-11.3" font-family="Times,serif" font-size="14.00" fill="#0058ad">r 1202 3</text>
</g>
<!-- T31522 -->
<g id="node10" class="node">
<title>T31522</title>
<polygon fill="none" stroke="#0058ad" points="128,-486.5 128,-515.5 442,-515.5 442,-486.5 128,-486.5"/>
<text text-anchor="middle" x="166.5" y="-497.3" font-family="Times,serif" font-size="14.00" fill="#0058ad">r 1198 4</text>
<polyline fill="none" stroke="#0058ad" points="205,-486.5 205,-515.5 "/>
<text text-anchor="middle" x="243.5" y="-497.3" font-family="Times,serif" font-size="14.00" fill="#0058ad">r 1198 4</text>
<polyline fill="none" stroke="#0058ad" points="282,-486.5 282,-515.5 "/>
<text text-anchor="middle" x="323.5" y="-497.3" font-family="Times,serif" font-size="14.00" fill="#0058ad">w 1195 1</text>
<polyline fill="none" stroke="#0058ad" points="365,-486.5 365,-515.5 "/>
<text text-anchor="middle" x="403.5" y="-497.3" font-family="Times,serif" font-size="14.00" fill="#0058ad">r 1197 3</text>
</g>
<!-- T31657&#45;&gt;T31522 -->
<g id="edge4" class="edge">
<title>T31657:f0&#45;&gt;T31522:f2</title>
<path fill="none" stroke="#5b00c0" d="M108,-15C48.27,-15 0,-35.27 0,-95 0,-421 0,-421 0,-421 0,-494.26 86.18,-453.55 158,-468 173.63,-471.15 284.99,-468.48 316,-479.44"/>
<polygon fill="#5b00c0" stroke="#5b00c0" points="314.05,-482.36 324,-486 318.49,-476.95 314.05,-482.36"/>
<text text-anchor="middle" x="9.5" y="-254.3" font-family="Times,serif" font-size="14.00" fill="#5b00c0">rw</text>
</g>
<!-- T31593 -->
<g id="node5" class="node">
<title>T31593</title>
<polygon fill="none" stroke="#0058ad" points="212.5,-81.5 212.5,-110.5 547.5,-110.5 547.5,-81.5 212.5,-81.5"/>
<text text-anchor="middle" x="254" y="-92.3" font-family="Times,serif" font-size="14.00" fill="#0058ad">w 1196 6</text>
<polyline fill="none" stroke="#0058ad" points="295.5,-81.5 295.5,-110.5 "/>
<text text-anchor="middle" x="337" y="-92.3" font-family="Times,serif" font-size="14.00" fill="#0058ad">w 1200 8</text>
<polyline fill="none" stroke="#0058ad" points="378.5,-81.5 378.5,-110.5 "/>
<text text-anchor="middle" x="420" y="-92.3" font-family="Times,serif" font-size="14.00" fill="#0058ad">w 1200 9</text>
<polyline fill="none" stroke="#0058ad" points="461.5,-81.5 461.5,-110.5 "/>
<text text-anchor="middle" x="504.5" y="-92.3" font-family="Times,serif" font-size="14.00" fill="#0058ad">r 1195 nil</text>
</g>
<!-- T31593&#45;&gt;T31522 -->
<g id="edge5" class="edge">
<title>T31593:f3&#45;&gt;T31522:f2</title>
<path fill="none" stroke="#5b00c0" d="M505,-111C505,-196.47 324,-90.53 324,-176 324,-421 324,-421 324,-421 324,-446.16 324,-454.89 324,-475.82"/>
<polygon fill="#5b00c0" stroke="#5b00c0" points="320.5,-476 324,-486 327.5,-476 320.5,-476"/>
<text text-anchor="middle" x="333.5" y="-294.8" font-family="Times,serif" font-size="14.00" fill="#5b00c0">rw</text>
</g>
<!-- T31654&#45;&gt;T31657 -->
<g id="edge6" class="edge">
<title>T31654:f2&#45;&gt;T31657:f2</title>
<path fill="none" stroke="#c000a5" d="M777,-81C777,-36.56 444.91,-17.09 370.02,-15.16"/>
<polygon fill="#c000a5" stroke="#c000a5" points="370.05,-11.66 360,-15 369.94,-18.66 370.05,-11.66"/>
<text text-anchor="middle" x="767.5" y="-51.8" font-family="Times,serif" font-size="14.00" fill="#c000a5">wr</text>
</g>
<!-- T31535 -->
<g id="node7" class="node">
<title>T31535</title>
<polygon fill="none" stroke="#0058ad" points="352,-405.5 352,-434.5 604,-434.5 604,-405.5 352,-405.5"/>
<text text-anchor="middle" x="390.5" y="-416.3" font-family="Times,serif" font-size="14.00" fill="#0058ad">r 1195 1</text>
<polyline fill="none" stroke="#0058ad" points="429,-405.5 429,-434.5 "/>
<text text-anchor="middle" x="470.5" y="-416.3" font-family="Times,serif" font-size="14.00" fill="#0058ad">w 1196 3</text>
<polyline fill="none" stroke="#0058ad" points="512,-405.5 512,-434.5 "/>
<text text-anchor="middle" x="558" y="-416.3" font-family="Times,serif" font-size="14.00" fill="#0058ad">w 1187 16</text>
</g>
<!-- T31535&#45;&gt;T31548 -->
<g id="edge7" class="edge">
<title>T31535:f1&#45;&gt;T31548:f1</title>
<path fill="none" stroke="#c000a5" d="M470,-405C470,-384.35 634.64,-390.44 655,-387 712.61,-377.26 782.01,-411.59 790.2,-364.21"/>
<polygon fill="#c000a5" stroke="#c000a5" points="793.71,-364.24 791,-354 786.73,-363.7 793.71,-364.24"/>
<text text-anchor="middle" x="797.5" y="-375.8" font-family="Times,serif" font-size="14.00" fill="#c000a5">wr</text>
</g>
<!-- T31519 -->
<g id="node8" class="node">
<title>T31519</title>
<polygon fill="none" stroke="#0058ad" points="28,-81.5 28,-110.5 194,-110.5 194,-81.5 28,-81.5"/>
<text text-anchor="middle" x="69.5" y="-92.3" font-family="Times,serif" font-size="14.00" fill="#0058ad">w 1196 2</text>
<polyline fill="none" stroke="#0058ad" points="111,-81.5 111,-110.5 "/>
<text text-anchor="middle" x="152.5" y="-92.3" font-family="Times,serif" font-size="14.00" fill="#0058ad">w 1198 4</text>
</g>
<!-- T31519&#45;&gt;T31522 -->
<g id="edge8" class="edge">
<title>T31519:f1&#45;&gt;T31522:f0</title>
<path fill="none" stroke="#c000a5" d="M153,-111C153,-139.94 157,-147.06 157,-176 157,-421 157,-421 157,-421 157,-446.41 163.83,-454.74 165.59,-475.75"/>
<polygon fill="#c000a5" stroke="#c000a5" points="162.1,-476.15 166,-486 169.1,-475.87 162.1,-476.15"/>
<text text-anchor="middle" x="166.5" y="-294.8" font-family="Times,serif" font-size="14.00" fill="#c000a5">wr</text>
</g>
<!-- T31549 -->
<g id="node9" class="node">
<title>T31549</title>
<polygon fill="none" stroke="#0058ad" points="465.5,-162.5 465.5,-191.5 794.5,-191.5 794.5,-162.5 465.5,-162.5"/>
<text text-anchor="middle" x="508.5" y="-173.3" font-family="Times,serif" font-size="14.00" fill="#0058ad">r 1196 nil</text>
<polyline fill="none" stroke="#0058ad" points="551.5,-162.5 551.5,-191.5 "/>
<text text-anchor="middle" x="593" y="-173.3" font-family="Times,serif" font-size="14.00" fill="#0058ad">w 1199 1</text>
<polyline fill="none" stroke="#0058ad" points="634.5,-162.5 634.5,-191.5 "/>
<text text-anchor="middle" x="676" y="-173.3" font-family="Times,serif" font-size="14.00" fill="#0058ad">w 1172 7</text>
<polyline fill="none" stroke="#0058ad" points="717.5,-162.5 717.5,-191.5 "/>
<text text-anchor="middle" x="756" y="-173.3" font-family="Times,serif" font-size="14.00" fill="#0058ad">r 1197 5</text>
</g>
<!-- T31549&#45;&gt;T31593 -->
<g id="edge10" class="edge">
<title>T31549:f0&#45;&gt;T31593:f0</title>
<path fill="none" stroke="#5b00c0" d="M464,-177C418.52,-177 276.1,-162.23 256.29,-120.85"/>
<polygon fill="#5b00c0" stroke="#5b00c0" points="259.68,-119.95 254,-111 252.86,-121.53 259.68,-119.95"/>
<text text-anchor="middle" x="291.5" y="-132.8" font-family="Times,serif" font-size="14.00" fill="#5b00c0">rw</text>
</g>
<!-- T31549&#45;&gt;T31654 -->
<g id="edge11" class="edge">
<title>T31549:f0&#45;&gt;T31654:f3</title>
<path fill="none" stroke="#5b00c0" d="M508,-162C508,-135.04 723.46,-148.77 750,-144 798.06,-135.35 854.84,-159.64 863,-121.44"/>
<polygon fill="#5b00c0" stroke="#5b00c0" points="866.53,-121.29 864,-111 859.57,-120.62 866.53,-121.29"/>
<text text-anchor="middle" x="869.5" y="-132.8" font-family="Times,serif" font-size="14.00" fill="#5b00c0">rw</text>
</g>
<!-- T31549&#45;&gt;T31535 -->
<g id="edge9" class="edge">
<title>T31549:f0&#45;&gt;T31535:f1</title>
<path fill="none" stroke="#5b00c0" d="M464,-177C366,-177 463.1,-295.36 469.66,-394.82"/>
<polygon fill="#5b00c0" stroke="#5b00c0" points="466.16,-395.12 470,-405 473.16,-394.89 466.16,-395.12"/>
<text text-anchor="middle" x="457.5" y="-294.8" font-family="Times,serif" font-size="14.00" fill="#5b00c0">rw</text>
</g>
<!-- T31549&#45;&gt;T31519 -->
<g id="edge12" class="edge">
<title>T31549:f0&#45;&gt;T31519:f0</title>
<path fill="none" stroke="#5b00c0" d="M464,-177C422.63,-177 116.78,-158.41 73.97,-120.05"/>
<polygon fill="#5b00c0" stroke="#5b00c0" points="76.88,-118.08 69,-111 70.75,-121.45 76.88,-118.08"/>
<text text-anchor="middle" x="147.5" y="-132.8" font-family="Times,serif" font-size="14.00" fill="#5b00c0">rw</text>
</g>
<!-- T31549&#45;&gt;T31637 -->
<g id="edge14" class="edge">
<title>T31549:f0&#45;&gt;T31637:f3</title>
<path fill="none" stroke="#5b00c0" d="M508,-192C508,-254.22 632,-194.78 632,-257 632,-502 632,-502 632,-502 632,-645.28 940.37,-431.08 955.43,-556.9"/>
<polygon fill="#5b00c0" stroke="#5b00c0" points="951.94,-557.21 956,-567 958.93,-556.82 951.94,-557.21"/>
<text text-anchor="middle" x="641.5" y="-375.8" font-family="Times,serif" font-size="14.00" fill="#5b00c0">rw</text>
</g>
<!-- T31618 -->
<g id="node13" class="node">
<title>T31618</title>
<polygon fill="none" stroke="#0058ad" points="928.5,-81.5 928.5,-110.5 1171.5,-110.5 1171.5,-81.5 928.5,-81.5"/>
<text text-anchor="middle" x="970" y="-92.3" font-family="Times,serif" font-size="14.00" fill="#0058ad">w 1201 5</text>
<polyline fill="none" stroke="#0058ad" points="1011.5,-81.5 1011.5,-110.5 "/>
<text text-anchor="middle" x="1050" y="-92.3" font-family="Times,serif" font-size="14.00" fill="#0058ad">r 1201 5</text>
<polyline fill="none" stroke="#0058ad" points="1088.5,-81.5 1088.5,-110.5 "/>
<text text-anchor="middle" x="1130" y="-92.3" font-family="Times,serif" font-size="14.00" fill="#0058ad">w 1196 8</text>
</g>
<!-- T31549&#45;&gt;T31618 -->
<g id="edge13" class="edge">
<title>T31549:f0&#45;&gt;T31618:f2</title>
<path fill="none" stroke="#5b00c0" d="M508,-162C508,-141.14 862.23,-145.88 883,-144 883.19,-143.98 1073.85,-118.67 1120.02,-112.39"/>
<polygon fill="#5b00c0" stroke="#5b00c0" points="1120.58,-115.85 1130,-111 1119.61,-108.92 1120.58,-115.85"/>
<text text-anchor="middle" x="1000.5" y="-132.8" font-family="Times,serif" font-size="14.00" fill="#5b00c0">rw</text>
</g>
<!-- T31522&#45;&gt;T31535 -->
<g id="edge15" class="edge">
<title>T31522:f2&#45;&gt;T31535:f0</title>
<path fill="none" stroke="#c000a5" d="M324,-486C324,-470.65 369.26,-458.46 384.82,-444.2"/>
<polygon fill="#c000a5" stroke="#c000a5" points="388.14,-445.43 390,-435 382.04,-442 388.14,-445.43"/>
<text text-anchor="middle" x="380.5" y="-456.8" font-family="Times,serif" font-size="14.00" fill="#c000a5">wr</text>
</g>
<!-- T31637&#45;&gt;T31522 -->
<g id="edge16" class="edge">
<title>T31637:f0&#45;&gt;T31522:f2</title>
<path fill="none" stroke="#5b00c0" d="M658,-582C623.13,-582 368.7,-558.06 329.16,-524.68"/>
<polygon fill="#5b00c0" stroke="#5b00c0" points="332.12,-522.81 324,-516 326.1,-526.38 332.12,-522.81"/>
<text text-anchor="middle" x="406.5" y="-537.8" font-family="Times,serif" font-size="14.00" fill="#5b00c0">rw</text>
</g>
<!-- T31560&#45;&gt;T31647 -->
<g id="edge18" class="edge">
<title>T31560:f1&#45;&gt;T31647:f0</title>
<path fill="none" stroke="#5b00c0" d="M854,-243C854,-229.35 854,-214.12 854,-201.73"/>
<polygon fill="#5b00c0" stroke="#5b00c0" points="857.5,-201.68 854,-191.68 850.5,-201.68 857.5,-201.68"/>
<text text-anchor="middle" x="863.5" y="-213.8" font-family="Times,serif" font-size="14.00" fill="#5b00c0">rw</text>
</g>
<!-- T31560&#45;&gt;T31549 -->
<g id="edge17" class="edge">
<title>T31560:f1&#45;&gt;T31549:f1</title>
<path fill="none" stroke="#5b00c0" d="M854,-243C854,-229.84 646.97,-211.39 601.68,-197.07"/>
<polygon fill="#5b00c0" stroke="#5b00c0" points="603.4,-194.02 593,-192 599.87,-200.06 603.4,-194.02"/>
<text text-anchor="middle" x="779.5" y="-213.8" font-family="Times,serif" font-size="14.00" fill="#5b00c0">rw</text>
</g>
<!-- T31618&#45;&gt;T31633 -->
<g id="edge19" class="edge">
<title>T31618:f2&#45;&gt;T31633:f2</title>
<path fill="none" stroke="#c000a5" d="M1130,-111C1130,-139.92 1127,-147.08 1127,-176 1127,-583 1127,-583 1127,-583 1127,-608.02 1112.32,-611.03 1096,-630 1091.37,-635.38 1085.19,-636.5 1080.93,-639.03"/>
<polygon fill="#c000a5" stroke="#c000a5" points="1077.75,-637.55 1076,-648 1083.88,-640.92 1077.75,-637.55"/>
<text text-anchor="middle" x="1136.5" y="-375.8" font-family="Times,serif" font-size="14.00" fill="#c000a5">wr</text>
</g>
<!-- T31618&#45;&gt;T31637 -->
<g id="edge20" class="edge">
<title>T31618:f2&#45;&gt;T31637:f2</title>
<path fill="none" stroke="#c000a5" d="M1130,-111C1130,-124.35 1029,-162.65 1029,-176 1029,-502 1029,-502 1029,-502 1029,-572.13 891.14,-501.12 877.14,-556.92"/>
<polygon fill="#c000a5" stroke="#c000a5" points="873.65,-556.67 876,-567 880.6,-557.46 873.65,-556.67"/>
<text text-anchor="middle" x="1038.5" y="-335.3" font-family="Times,serif" font-size="14.00" fill="#c000a5">wr</text>
</g>
</g>
</svg>
