<?xml version="1.0" encoding="UTF-8" standalone="no"?>
<!DOCTYPE svg PUBLIC "-//W3C//DTD SVG 1.1//EN"
 "http://www.w3.org/Graphics/SVG/1.1/DTD/svg11.dtd">
<!-- Generated by graphviz version 2.43.0 (0)
 -->
<!-- Title: a_graph Pages: 1 -->
<svg width="316pt" height="119pt"
 viewBox="0.00 0.00 316.00 119.00" xmlns="http://www.w3.org/2000/svg" xmlns:xlink="http://www.w3.org/1999/xlink">
<g id="graph0" class="graph" transform="scale(1 1) rotate(0) translate(4 115)">
<title>a_graph</title>
<polygon fill="white" stroke="transparent" points="-4,4 -4,-115 312,-115 312,4 -4,4"/>
<!-- T2815 -->
<g id="node1" class="node">
<title>T2815</title>
<polygon fill="none" stroke="#0058ad" points="27.5,-81.5 27.5,-110.5 302.5,-110.5 302.5,-81.5 27.5,-81.5"/>
<text text-anchor="middle" x="52.5" y="-92.3" font-family="Times,serif" font-size="14.00" fill="#0058ad">r 2 6</text>
<polyline fill="none" stroke="#0058ad" points="77.5,-81.5 77.5,-110.5 "/>
<text text-anchor="middle" x="116" y="-92.3" font-family="Times,serif" font-size="14.00" fill="#0058ad">r 111 nil</text>
<polyline fill="none" stroke="#0058ad" points="154.5,-81.5 154.5,-110.5 "/>
<text text-anchor="middle" x="191.5" y="-92.3" font-family="Times,serif" font-size="14.00" fill="#0058ad">w 107 6</text>
<polyline fill="none" stroke="#0058ad" points="228.5,-81.5 228.5,-110.5 "/>
<text text-anchor="middle" x="265.5" y="-92.3" font-family="Times,serif" font-size="14.00" fill="#0058ad">w 111 2</text>
</g>
<!-- T2814 -->
<g id="node2" class="node">
<title>T2814</title>
<polygon fill="none" stroke="#0058ad" points="0,-0.5 0,-29.5 308,-29.5 308,-0.5 0,-0.5"/>
<text text-anchor="middle" x="37" y="-11.3" font-family="Times,serif" font-size="14.00" fill="#0058ad">w 107 5</text>
<polyline fill="none" stroke="#0058ad" points="74,-0.5 74,-29.5 "/>
<text text-anchor="middle" x="112.5" y="-11.3" font-family="Times,serif" font-size="14.00" fill="#0058ad">r 111 nil</text>
<polyline fill="none" stroke="#0058ad" points="151,-0.5 151,-29.5 "/>
<text text-anchor="middle" x="192.5" y="-11.3" font-family="Times,serif" font-size="14.00" fill="#0058ad">w 109 16</text>
<polyline fill="none" stroke="#0058ad" points="234,-0.5 234,-29.5 "/>
<text text-anchor="middle" x="271" y="-11.3" font-family="Times,serif" font-size="14.00" fill="#0058ad">w 111 1</text>
</g>
<!-- T2815&#45;&gt;T2814 -->
<g id="edge1" class="edge">
<title>T2815:f1&#45;&gt;T2814:f3</title>
<path fill="none" stroke="#5b00c0" d="M116,-81C116,-41.72 160.61,-60.07 198,-48 225.83,-39.02 260.85,-57.56 269.17,-39.95"/>
<polygon fill="#5b00c0" stroke="#5b00c0" points="272.63,-40.47 271,-30 265.75,-39.2 272.63,-40.47"/>
<text text-anchor="middle" x="207.5" y="-51.8" font-family="Times,serif" font-size="14.00" fill="#5b00c0">rw</text>
</g>
<!-- T2814&#45;&gt;T2815 -->
<g id="edge2" class="edge">
<title>T2814:f1&#45;&gt;T2815:f3</title>
<path fill="none" stroke="#5b00c0" d="M112,-30C112,-53.67 195.03,-39.19 217,-48 237.75,-56.32 258.69,-55.36 264.45,-71.11"/>
<polygon fill="#5b00c0" stroke="#5b00c0" points="261,-71.66 266,-81 267.91,-70.58 261,-71.66"/>
<text text-anchor="middle" x="267.5" y="-51.8" font-family="Times,serif" font-size="14.00" fill="#5b00c0">rw</text>
</g>
</g>
</svg>
