<?xml version="1.0" encoding="UTF-8" standalone="no"?>
<!DOCTYPE svg PUBLIC "-//W3C//DTD SVG 1.1//EN"
 "http://www.w3.org/Graphics/SVG/1.1/DTD/svg11.dtd">
<!-- Generated by graphviz version 2.43.0 (0)
 -->
<!-- Title: a_graph Pages: 1 -->
<svg width="307pt" height="119pt"
 viewBox="0.00 0.00 307.00 119.00" xmlns="http://www.w3.org/2000/svg" xmlns:xlink="http://www.w3.org/1999/xlink">
<g id="graph0" class="graph" transform="scale(1 1) rotate(0) translate(4 115)">
<title>a_graph</title>
<polygon fill="white" stroke="transparent" points="-4,4 -4,-115 303,-115 303,4 -4,4"/>
<!-- T3663 -->
<g id="node1" class="node">
<title>T3663</title>
<polygon fill="none" stroke="#0058ad" points="6,-81.5 6,-110.5 299,-110.5 299,-81.5 6,-81.5"/>
<text text-anchor="middle" x="40" y="-92.3" font-family="Times,serif" font-size="14.00" fill="#0058ad">r 144 5</text>
<polyline fill="none" stroke="#0058ad" points="74,-81.5 74,-110.5 "/>
<text text-anchor="middle" x="112.5" y="-92.3" font-family="Times,serif" font-size="14.00" fill="#0058ad">r 146 nil</text>
<polyline fill="none" stroke="#0058ad" points="151,-81.5 151,-110.5 "/>
<text text-anchor="middle" x="188" y="-92.3" font-family="Times,serif" font-size="14.00" fill="#0058ad">w 146 1</text>
<polyline fill="none" stroke="#0058ad" points="225,-81.5 225,-110.5 "/>
<text text-anchor="middle" x="262" y="-92.3" font-family="Times,serif" font-size="14.00" fill="#0058ad">w 144 6</text>
</g>
<!-- T3669 -->
<g id="node2" class="node">
<title>T3669</title>
<polygon fill="none" stroke="#0058ad" points="0,-0.5 0,-29.5 299,-29.5 299,-0.5 0,-0.5"/>
<text text-anchor="middle" x="38.5" y="-11.3" font-family="Times,serif" font-size="14.00" fill="#0058ad">r 146 nil</text>
<polyline fill="none" stroke="#0058ad" points="77,-0.5 77,-29.5 "/>
<text text-anchor="middle" x="114" y="-11.3" font-family="Times,serif" font-size="14.00" fill="#0058ad">w 146 4</text>
<polyline fill="none" stroke="#0058ad" points="151,-0.5 151,-29.5 "/>
<text text-anchor="middle" x="188" y="-11.3" font-family="Times,serif" font-size="14.00" fill="#0058ad">w 144 8</text>
<polyline fill="none" stroke="#0058ad" points="225,-0.5 225,-29.5 "/>
<text text-anchor="middle" x="262" y="-11.3" font-family="Times,serif" font-size="14.00" fill="#0058ad">w 146 5</text>
</g>
<!-- T3663&#45;&gt;T3669 -->
<g id="edge1" class="edge">
<title>T3663:f1&#45;&gt;T3669:f3</title>
<path fill="none" stroke="#5b00c0" d="M112.5,-81C112.5,-62.05 123.01,-57.34 139.5,-48 160.25,-36.25 236.84,-51.96 257.4,-38.7"/>
<polygon fill="#5b00c0" stroke="#5b00c0" points="260.46,-40.4 262.5,-30 254.42,-36.85 260.46,-40.4"/>
<text text-anchor="middle" x="149" y="-51.8" font-family="Times,serif" font-size="14.00" fill="#5b00c0">rw</text>
</g>
<!-- T3669&#45;&gt;T3663 -->
<g id="edge2" class="edge">
<title>T3669:f0&#45;&gt;T3663:f2</title>
<path fill="none" stroke="#5b00c0" d="M38.5,-30C38.5,-56.96 134.72,-35.29 158.5,-48 172.57,-55.52 183.42,-59.47 187.12,-71.06"/>
<polygon fill="#5b00c0" stroke="#5b00c0" points="183.66,-71.57 188.5,-81 190.6,-70.61 183.66,-71.57"/>
<text text-anchor="middle" x="192" y="-51.8" font-family="Times,serif" font-size="14.00" fill="#5b00c0">rw</text>
</g>
</g>
</svg>
