<?xml version="1.0" encoding="UTF-8" standalone="no"?>
<!DOCTYPE svg PUBLIC "-//W3C//DTD SVG 1.1//EN"
 "http://www.w3.org/Graphics/SVG/1.1/DTD/svg11.dtd">
<!-- Generated by graphviz version 2.43.0 (0)
 -->
<!-- Title: a_graph Pages: 1 -->
<svg width="197pt" height="119pt"
 viewBox="0.00 0.00 197.00 119.00" xmlns="http://www.w3.org/2000/svg" xmlns:xlink="http://www.w3.org/1999/xlink">
<g id="graph0" class="graph" transform="scale(1 1) rotate(0) translate(4 115)">
<title>a_graph</title>
<polygon fill="white" stroke="transparent" points="-4,4 -4,-115 193,-115 193,4 -4,4"/>
<!-- T84 -->
<g id="node1" class="node">
<title>T84</title>
<polygon fill="none" stroke="#0058ad" points="0,-81.5 0,-110.5 189,-110.5 189,-81.5 0,-81.5"/>
<text text-anchor="middle" x="32.5" y="-92.3" font-family="Times,serif" font-size="14.00" fill="#0058ad">w 10 8</text>
<polyline fill="none" stroke="#0058ad" points="65,-81.5 65,-110.5 "/>
<text text-anchor="middle" x="93" y="-92.3" font-family="Times,serif" font-size="14.00" fill="#0058ad">w 7 5</text>
<polyline fill="none" stroke="#0058ad" points="121,-81.5 121,-110.5 "/>
<text text-anchor="middle" x="155" y="-92.3" font-family="Times,serif" font-size="14.00" fill="#0058ad">r 11 nil</text>
</g>
<!-- T82 -->
<g id="node2" class="node">
<title>T82</title>
<polygon fill="none" stroke="#0058ad" points="59.5,-0.5 59.5,-29.5 183.5,-29.5 183.5,-0.5 59.5,-0.5"/>
<text text-anchor="middle" x="92" y="-11.3" font-family="Times,serif" font-size="14.00" fill="#0058ad">w 11 1</text>
<polyline fill="none" stroke="#0058ad" points="124.5,-0.5 124.5,-29.5 "/>
<text text-anchor="middle" x="154" y="-11.3" font-family="Times,serif" font-size="14.00" fill="#0058ad">r 7 nil</text>
</g>
<!-- T84&#45;&gt;T82 -->
<g id="edge1" class="edge">
<title>T84:f2&#45;&gt;T82:f0</title>
<path fill="none" stroke="#5b00c0" d="M155.5,-81C155.5,-59.62 137.45,-61.04 120.5,-48 112.23,-41.64 101.63,-42.69 95.8,-39.03"/>
<polygon fill="#5b00c0" stroke="#5b00c0" points="98.96,-37.52 91.5,-30 92.64,-40.53 98.96,-37.52"/>
<text text-anchor="middle" x="156" y="-51.8" font-family="Times,serif" font-size="14.00" fill="#5b00c0">rw</text>
</g>
<!-- T82&#45;&gt;T84 -->
<g id="edge2" class="edge">
<title>T82:f1&#45;&gt;T84:f1</title>
<path fill="none" stroke="#5b00c0" d="M154.5,-30C154.5,-56.57 114.77,-27.81 97.5,-48 90.34,-56.37 91.06,-62.32 91.9,-70.9"/>
<polygon fill="#5b00c0" stroke="#5b00c0" points="88.41,-71.23 92.5,-81 95.4,-70.81 88.41,-71.23"/>
<text text-anchor="middle" x="107" y="-51.8" font-family="Times,serif" font-size="14.00" fill="#5b00c0">rw</text>
</g>
</g>
</svg>
