<?xml version="1.0" encoding="UTF-8" standalone="no"?>
<!DOCTYPE svg PUBLIC "-//W3C//DTD SVG 1.1//EN"
 "http://www.w3.org/Graphics/SVG/1.1/DTD/svg11.dtd">
<!-- Generated by graphviz version 2.43.0 (0)
 -->
<!-- Title: a_graph Pages: 1 -->
<svg width="262pt" height="119pt"
 viewBox="0.00 0.00 262.00 119.00" xmlns="http://www.w3.org/2000/svg" xmlns:xlink="http://www.w3.org/1999/xlink">
<g id="graph0" class="graph" transform="scale(1 1) rotate(0) translate(4 115)">
<title>a_graph</title>
<polygon fill="white" stroke="transparent" points="-4,4 -4,-115 258,-115 258,4 -4,4"/>
<!-- T114 -->
<g id="node1" class="node">
<title>T114</title>
<polygon fill="none" stroke="#0058ad" points="60.5,-81.5 60.5,-110.5 243.5,-110.5 243.5,-81.5 60.5,-81.5"/>
<text text-anchor="middle" x="94.5" y="-92.3" font-family="Times,serif" font-size="14.00" fill="#0058ad">r 12 nil</text>
<polyline fill="none" stroke="#0058ad" points="128.5,-81.5 128.5,-110.5 "/>
<text text-anchor="middle" x="161" y="-92.3" font-family="Times,serif" font-size="14.00" fill="#0058ad">w 12 1</text>
<polyline fill="none" stroke="#0058ad" points="193.5,-81.5 193.5,-110.5 "/>
<text text-anchor="middle" x="218.5" y="-92.3" font-family="Times,serif" font-size="14.00" fill="#0058ad">r 7 5</text>
</g>
<!-- T110 -->
<g id="node2" class="node">
<title>T110</title>
<polygon fill="none" stroke="#0058ad" points="0,-0.5 0,-29.5 254,-29.5 254,-0.5 0,-0.5"/>
<text text-anchor="middle" x="34" y="-11.3" font-family="Times,serif" font-size="14.00" fill="#0058ad">r 12 nil</text>
<polyline fill="none" stroke="#0058ad" points="68,-0.5 68,-29.5 "/>
<text text-anchor="middle" x="100.5" y="-11.3" font-family="Times,serif" font-size="14.00" fill="#0058ad">w 12 2</text>
<polyline fill="none" stroke="#0058ad" points="133,-0.5 133,-29.5 "/>
<text text-anchor="middle" x="161" y="-11.3" font-family="Times,serif" font-size="14.00" fill="#0058ad">w 6 7</text>
<polyline fill="none" stroke="#0058ad" points="189,-0.5 189,-29.5 "/>
<text text-anchor="middle" x="221.5" y="-11.3" font-family="Times,serif" font-size="14.00" fill="#0058ad">w 12 3</text>
</g>
<!-- T114&#45;&gt;T110 -->
<g id="edge1" class="edge">
<title>T114:f0&#45;&gt;T110:f3</title>
<path fill="none" stroke="#5b00c0" d="M94,-81C94,-63.85 99.8,-57.62 114,-48 131.07,-36.43 196.8,-49.02 216.43,-38.31"/>
<polygon fill="#5b00c0" stroke="#5b00c0" points="219.34,-40.26 222,-30 213.53,-36.36 219.34,-40.26"/>
<text text-anchor="middle" x="123.5" y="-51.8" font-family="Times,serif" font-size="14.00" fill="#5b00c0">rw</text>
</g>
<!-- T110&#45;&gt;T114 -->
<g id="edge2" class="edge">
<title>T110:f0&#45;&gt;T114:f1</title>
<path fill="none" stroke="#5b00c0" d="M34,-30C34,-52.36 113.63,-36.82 133,-48 146.27,-55.66 156.17,-59.85 159.65,-70.97"/>
<polygon fill="#5b00c0" stroke="#5b00c0" points="156.19,-71.56 161,-81 163.13,-70.62 156.19,-71.56"/>
<text text-anchor="middle" x="164.5" y="-51.8" font-family="Times,serif" font-size="14.00" fill="#5b00c0">rw</text>
</g>
</g>
</svg>
