<?xml version="1.0" encoding="UTF-8" standalone="no"?>
<!DOCTYPE svg PUBLIC "-//W3C//DTD SVG 1.1//EN"
 "http://www.w3.org/Graphics/SVG/1.1/DTD/svg11.dtd">
<!-- Generated by graphviz version 2.43.0 (0)
 -->
<!-- Title: a_graph Pages: 1 -->
<svg width="378pt" height="119pt"
 viewBox="0.00 0.00 378.00 119.00" xmlns="http://www.w3.org/2000/svg" xmlns:xlink="http://www.w3.org/1999/xlink">
<g id="graph0" class="graph" transform="scale(1 1) rotate(0) translate(4 115)">
<title>a_graph</title>
<polygon fill="white" stroke="transparent" points="-4,4 -4,-115 374,-115 374,4 -4,4"/>
<!-- T32645 -->
<g id="node1" class="node">
<title>T32645</title>
<polygon fill="none" stroke="#0058ad" points="0,-81.5 0,-110.5 335,-110.5 335,-81.5 0,-81.5"/>
<text text-anchor="middle" x="41.5" y="-92.3" font-family="Times,serif" font-size="14.00" fill="#0058ad">w 1232 4</text>
<polyline fill="none" stroke="#0058ad" points="83,-81.5 83,-110.5 "/>
<text text-anchor="middle" x="126" y="-92.3" font-family="Times,serif" font-size="14.00" fill="#0058ad">r 1240 nil</text>
<polyline fill="none" stroke="#0058ad" points="169,-81.5 169,-110.5 "/>
<text text-anchor="middle" x="210.5" y="-92.3" font-family="Times,serif" font-size="14.00" fill="#0058ad">w 1240 1</text>
<polyline fill="none" stroke="#0058ad" points="252,-81.5 252,-110.5 "/>
<text text-anchor="middle" x="293.5" y="-92.3" font-family="Times,serif" font-size="14.00" fill="#0058ad">w 1240 2</text>
</g>
<!-- T32650 -->
<g id="node2" class="node">
<title>T32650</title>
<polygon fill="none" stroke="#0058ad" points="41,-0.5 41,-29.5 370,-29.5 370,-0.5 41,-0.5"/>
<text text-anchor="middle" x="82.5" y="-11.3" font-family="Times,serif" font-size="14.00" fill="#0058ad">w 1237 9</text>
<polyline fill="none" stroke="#0058ad" points="124,-0.5 124,-29.5 "/>
<text text-anchor="middle" x="167" y="-11.3" font-family="Times,serif" font-size="14.00" fill="#0058ad">r 1240 nil</text>
<polyline fill="none" stroke="#0058ad" points="210,-0.5 210,-29.5 "/>
<text text-anchor="middle" x="251.5" y="-11.3" font-family="Times,serif" font-size="14.00" fill="#0058ad">w 1240 3</text>
<polyline fill="none" stroke="#0058ad" points="293,-0.5 293,-29.5 "/>
<text text-anchor="middle" x="331.5" y="-11.3" font-family="Times,serif" font-size="14.00" fill="#0058ad">r 1240 3</text>
</g>
<!-- T32645&#45;&gt;T32650 -->
<g id="edge1" class="edge">
<title>T32645:f1&#45;&gt;T32650:f2</title>
<path fill="none" stroke="#5b00c0" d="M125.5,-81C125.5,-68.14 216.87,-51.15 244,-37.06"/>
<polygon fill="#5b00c0" stroke="#5b00c0" points="246.62,-39.4 251.5,-30 241.82,-34.31 246.62,-39.4"/>
<text text-anchor="middle" x="221" y="-51.8" font-family="Times,serif" font-size="14.00" fill="#5b00c0">rw</text>
</g>
<!-- T32650&#45;&gt;T32645 -->
<g id="edge2" class="edge">
<title>T32650:f1&#45;&gt;T32645:f3</title>
<path fill="none" stroke="#5b00c0" d="M166.5,-30C166.5,-61.26 205.52,-36.28 234.5,-48 258.65,-57.77 285.28,-52.82 291.93,-70.92"/>
<polygon fill="#5b00c0" stroke="#5b00c0" points="288.5,-71.66 293.5,-81 295.42,-70.58 288.5,-71.66"/>
<text text-anchor="middle" x="295" y="-51.8" font-family="Times,serif" font-size="14.00" fill="#5b00c0">rw</text>
</g>
</g>
</svg>
