<?xml version="1.0" encoding="UTF-8" standalone="no"?>
<!DOCTYPE svg PUBLIC "-//W3C//DTD SVG 1.1//EN"
 "http://www.w3.org/Graphics/SVG/1.1/DTD/svg11.dtd">
<!-- Generated by graphviz version 2.43.0 (0)
 -->
<!-- Title: a_graph Pages: 1 -->
<svg width="304pt" height="119pt"
 viewBox="0.00 0.00 304.00 119.00" xmlns="http://www.w3.org/2000/svg" xmlns:xlink="http://www.w3.org/1999/xlink">
<g id="graph0" class="graph" transform="scale(1 1) rotate(0) translate(4 115)">
<title>a_graph</title>
<polygon fill="white" stroke="transparent" points="-4,4 -4,-115 300,-115 300,4 -4,4"/>
<!-- T7227 -->
<g id="node1" class="node">
<title>T7227</title>
<polygon fill="none" stroke="#0058ad" points="71.5,-81.5 71.5,-110.5 222.5,-110.5 222.5,-81.5 71.5,-81.5"/>
<text text-anchor="middle" x="110" y="-92.3" font-family="Times,serif" font-size="14.00" fill="#0058ad">r 278 nil</text>
<polyline fill="none" stroke="#0058ad" points="148.5,-81.5 148.5,-110.5 "/>
<text text-anchor="middle" x="185.5" y="-92.3" font-family="Times,serif" font-size="14.00" fill="#0058ad">w 278 1</text>
</g>
<!-- T7229 -->
<g id="node2" class="node">
<title>T7229</title>
<polygon fill="none" stroke="#0058ad" points="0,-0.5 0,-29.5 296,-29.5 296,-0.5 0,-0.5"/>
<text text-anchor="middle" x="38.5" y="-11.3" font-family="Times,serif" font-size="14.00" fill="#0058ad">r 278 nil</text>
<polyline fill="none" stroke="#0058ad" points="77,-0.5 77,-29.5 "/>
<text text-anchor="middle" x="115.5" y="-11.3" font-family="Times,serif" font-size="14.00" fill="#0058ad">r 279 nil</text>
<polyline fill="none" stroke="#0058ad" points="154,-0.5 154,-29.5 "/>
<text text-anchor="middle" x="188" y="-11.3" font-family="Times,serif" font-size="14.00" fill="#0058ad">r 275 6</text>
<polyline fill="none" stroke="#0058ad" points="222,-0.5 222,-29.5 "/>
<text text-anchor="middle" x="259" y="-11.3" font-family="Times,serif" font-size="14.00" fill="#0058ad">w 278 2</text>
</g>
<!-- T7227&#45;&gt;T7229 -->
<g id="edge1" class="edge">
<title>T7227:f0&#45;&gt;T7229:f3</title>
<path fill="none" stroke="#5b00c0" d="M110,-81C110,-62.05 120.51,-57.35 137,-48 157.58,-36.33 233.55,-51.82 253.94,-38.64"/>
<polygon fill="#5b00c0" stroke="#5b00c0" points="256.96,-40.4 259,-30 250.92,-36.86 256.96,-40.4"/>
<text text-anchor="middle" x="146.5" y="-51.8" font-family="Times,serif" font-size="14.00" fill="#5b00c0">rw</text>
</g>
<!-- T7229&#45;&gt;T7227 -->
<g id="edge2" class="edge">
<title>T7229:f0&#45;&gt;T7227:f1</title>
<path fill="none" stroke="#5b00c0" d="M38,-30C38,-56.53 132.62,-35.47 156,-48 170.06,-55.54 180.92,-59.48 184.62,-71.06"/>
<polygon fill="#5b00c0" stroke="#5b00c0" points="181.16,-71.57 186,-81 188.09,-70.61 181.16,-71.57"/>
<text text-anchor="middle" x="189.5" y="-51.8" font-family="Times,serif" font-size="14.00" fill="#5b00c0">rw</text>
</g>
</g>
</svg>
