<?xml version="1.0" encoding="UTF-8" standalone="no"?>
<!DOCTYPE svg PUBLIC "-//W3C//DTD SVG 1.1//EN"
 "http://www.w3.org/Graphics/SVG/1.1/DTD/svg11.dtd">
<!-- Generated by graphviz version 2.43.0 (0)
 -->
<!-- Title: a_graph Pages: 1 -->
<svg width="559pt" height="362pt"
 viewBox="0.00 0.00 559.00 362.00" xmlns="http://www.w3.org/2000/svg" xmlns:xlink="http://www.w3.org/1999/xlink">
<g id="graph0" class="graph" transform="scale(1 1) rotate(0) translate(4 358)">
<title>a_graph</title>
<polygon fill="white" stroke="transparent" points="-4,4 -4,-358 555,-358 555,4 -4,4"/>
<!-- T24729 -->
<g id="node1" class="node">
<title>T24729</title>
<polygon fill="none" stroke="#0058ad" points="0,-324.5 0,-353.5 293,-353.5 293,-324.5 0,-324.5"/>
<text text-anchor="middle" x="38.5" y="-335.3" font-family="Times,serif" font-size="14.00" fill="#0058ad">r 889 11</text>
<polyline fill="none" stroke="#0058ad" points="77,-324.5 77,-353.5 "/>
<text text-anchor="middle" x="114" y="-335.3" font-family="Times,serif" font-size="14.00" fill="#0058ad">w 938 5</text>
<polyline fill="none" stroke="#0058ad" points="151,-324.5 151,-353.5 "/>
<text text-anchor="middle" x="188" y="-335.3" font-family="Times,serif" font-size="14.00" fill="#0058ad">w 938 6</text>
<polyline fill="none" stroke="#0058ad" points="225,-324.5 225,-353.5 "/>
<text text-anchor="middle" x="259" y="-335.3" font-family="Times,serif" font-size="14.00" fill="#0058ad">r 939 4</text>
</g>
<!-- T24731 -->
<g id="node5" class="node">
<title>T24731</title>
<polygon fill="none" stroke="#0058ad" points="200.5,-243.5 200.5,-272.5 484.5,-272.5 484.5,-243.5 200.5,-243.5"/>
<text text-anchor="middle" x="234.5" y="-254.3" font-family="Times,serif" font-size="14.00" fill="#0058ad">r 939 4</text>
<polyline fill="none" stroke="#0058ad" points="268.5,-243.5 268.5,-272.5 "/>
<text text-anchor="middle" x="302.5" y="-254.3" font-family="Times,serif" font-size="14.00" fill="#0058ad">r 938 6</text>
<polyline fill="none" stroke="#0058ad" points="336.5,-243.5 336.5,-272.5 "/>
<text text-anchor="middle" x="373.5" y="-254.3" font-family="Times,serif" font-size="14.00" fill="#0058ad">w 939 7</text>
<polyline fill="none" stroke="#0058ad" points="410.5,-243.5 410.5,-272.5 "/>
<text text-anchor="middle" x="447.5" y="-254.3" font-family="Times,serif" font-size="14.00" fill="#0058ad">w 939 8</text>
</g>
<!-- T24729&#45;&gt;T24731 -->
<g id="edge1" class="edge">
<title>T24729:f2&#45;&gt;T24731:f1</title>
<path fill="none" stroke="#c000a5" d="M188.5,-324C188.5,-272.4 287.03,-320.64 300.89,-283.08"/>
<polygon fill="#c000a5" stroke="#c000a5" points="304.38,-283.43 302.5,-273 297.46,-282.32 304.38,-283.43"/>
<text text-anchor="middle" x="304" y="-294.8" font-family="Times,serif" font-size="14.00" fill="#c000a5">wr</text>
</g>
<!-- T24691 -->
<g id="node2" class="node">
<title>T24691</title>
<polygon fill="none" stroke="#0058ad" points="245.5,-81.5 245.5,-110.5 387.5,-110.5 387.5,-81.5 245.5,-81.5"/>
<text text-anchor="middle" x="282.5" y="-92.3" font-family="Times,serif" font-size="14.00" fill="#0058ad">w 937 1</text>
<polyline fill="none" stroke="#0058ad" points="319.5,-81.5 319.5,-110.5 "/>
<text text-anchor="middle" x="353.5" y="-92.3" font-family="Times,serif" font-size="14.00" fill="#0058ad">r 936 9</text>
</g>
<!-- T24695 -->
<g id="node4" class="node">
<title>T24695</title>
<polygon fill="none" stroke="#0058ad" points="159.5,-0.5 159.5,-29.5 387.5,-29.5 387.5,-0.5 159.5,-0.5"/>
<text text-anchor="middle" x="198" y="-11.3" font-family="Times,serif" font-size="14.00" fill="#0058ad">r 938 nil</text>
<polyline fill="none" stroke="#0058ad" points="236.5,-0.5 236.5,-29.5 "/>
<text text-anchor="middle" x="270.5" y="-11.3" font-family="Times,serif" font-size="14.00" fill="#0058ad">r 936 9</text>
<polyline fill="none" stroke="#0058ad" points="304.5,-0.5 304.5,-29.5 "/>
<text text-anchor="middle" x="346" y="-11.3" font-family="Times,serif" font-size="14.00" fill="#0058ad">w 936 10</text>
</g>
<!-- T24691&#45;&gt;T24695 -->
<g id="edge2" class="edge">
<title>T24691:f1&#45;&gt;T24695:f2</title>
<path fill="none" stroke="#5b00c0" d="M353.5,-81C353.5,-61.87 348.61,-55.07 347,-39.99"/>
<polygon fill="#5b00c0" stroke="#5b00c0" points="350.5,-39.81 346.5,-30 343.51,-40.16 350.5,-39.81"/>
<text text-anchor="middle" x="361" y="-51.8" font-family="Times,serif" font-size="14.00" fill="#5b00c0">rw</text>
</g>
<!-- T24739 -->
<g id="node3" class="node">
<title>T24739</title>
<polygon fill="none" stroke="#0058ad" points="258,-162.5 258,-191.5 551,-191.5 551,-162.5 258,-162.5"/>
<text text-anchor="middle" x="296.5" y="-173.3" font-family="Times,serif" font-size="14.00" fill="#0058ad">r 937 nil</text>
<polyline fill="none" stroke="#0058ad" points="335,-162.5 335,-191.5 "/>
<text text-anchor="middle" x="372" y="-173.3" font-family="Times,serif" font-size="14.00" fill="#0058ad">w 940 1</text>
<polyline fill="none" stroke="#0058ad" points="409,-162.5 409,-191.5 "/>
<text text-anchor="middle" x="443" y="-173.3" font-family="Times,serif" font-size="14.00" fill="#0058ad">r 939 8</text>
<polyline fill="none" stroke="#0058ad" points="477,-162.5 477,-191.5 "/>
<text text-anchor="middle" x="514" y="-173.3" font-family="Times,serif" font-size="14.00" fill="#0058ad">w 940 2</text>
</g>
<!-- T24739&#45;&gt;T24691 -->
<g id="edge3" class="edge">
<title>T24739:f0&#45;&gt;T24691:f0</title>
<path fill="none" stroke="#5b00c0" d="M296.5,-162C296.5,-142.35 286.72,-136.34 283.51,-121.17"/>
<polygon fill="#5b00c0" stroke="#5b00c0" points="286.97,-120.61 282.5,-111 280,-121.3 286.97,-120.61"/>
<text text-anchor="middle" x="302" y="-132.8" font-family="Times,serif" font-size="14.00" fill="#5b00c0">rw</text>
</g>
<!-- T24695&#45;&gt;T24729 -->
<g id="edge4" class="edge">
<title>T24695:f0&#45;&gt;T24729:f2</title>
<path fill="none" stroke="#5b00c0" d="M197.5,-30C197.5,-60.95 172.5,-64.05 172.5,-95 172.5,-259 172.5,-259 172.5,-259 172.5,-285.03 184.75,-292.5 187.81,-313.89"/>
<polygon fill="#5b00c0" stroke="#5b00c0" points="184.33,-314.26 188.5,-324 191.31,-313.79 184.33,-314.26"/>
<text text-anchor="middle" x="182" y="-173.3" font-family="Times,serif" font-size="14.00" fill="#5b00c0">rw</text>
</g>
<!-- T24731&#45;&gt;T24739 -->
<g id="edge5" class="edge">
<title>T24731:f3&#45;&gt;T24739:f2</title>
<path fill="none" stroke="#c000a5" d="M447.5,-243C447.5,-224.17 444.76,-217.14 443.81,-202.37"/>
<polygon fill="#c000a5" stroke="#c000a5" points="447.3,-201.89 443.5,-192 440.3,-202.1 447.3,-201.89"/>
<text text-anchor="middle" x="455" y="-213.8" font-family="Times,serif" font-size="14.00" fill="#c000a5">wr</text>
</g>
</g>
</svg>
