<?xml version="1.0" encoding="UTF-8" standalone="no"?>
<!DOCTYPE svg PUBLIC "-//W3C//DTD SVG 1.1//EN"
 "http://www.w3.org/Graphics/SVG/1.1/DTD/svg11.dtd">
<!-- Generated by graphviz version 2.43.0 (0)
 -->
<!-- Title: a_graph Pages: 1 -->
<svg width="1035pt" height="605pt"
 viewBox="0.00 0.00 1034.50 605.00" xmlns="http://www.w3.org/2000/svg" xmlns:xlink="http://www.w3.org/1999/xlink">
<g id="graph0" class="graph" transform="scale(1 1) rotate(0) translate(4 601)">
<title>a_graph</title>
<polygon fill="white" stroke="transparent" points="-4,4 -4,-601 1030.5,-601 1030.5,4 -4,4"/>
<!-- T24535 -->
<g id="node1" class="node">
<title>T24535</title>
<polygon fill="none" stroke="#0058ad" points="700,-567.5 700,-596.5 981,-596.5 981,-567.5 700,-567.5"/>
<text text-anchor="middle" x="734" y="-578.3" font-family="Times,serif" font-size="14.00" fill="#0058ad">r 924 7</text>
<polyline fill="none" stroke="#0058ad" points="768,-567.5 768,-596.5 "/>
<text text-anchor="middle" x="806.5" y="-578.3" font-family="Times,serif" font-size="14.00" fill="#0058ad">r 932 nil</text>
<polyline fill="none" stroke="#0058ad" points="845,-567.5 845,-596.5 "/>
<text text-anchor="middle" x="879" y="-578.3" font-family="Times,serif" font-size="14.00" fill="#0058ad">r 931 4</text>
<polyline fill="none" stroke="#0058ad" points="913,-567.5 913,-596.5 "/>
<text text-anchor="middle" x="947" y="-578.3" font-family="Times,serif" font-size="14.00" fill="#0058ad">r 911 8</text>
</g>
<!-- T24561 -->
<g id="node9" class="node">
<title>T24561</title>
<polygon fill="none" stroke="#0058ad" points="382.5,-486.5 382.5,-515.5 610.5,-515.5 610.5,-486.5 382.5,-486.5"/>
<text text-anchor="middle" x="424" y="-497.3" font-family="Times,serif" font-size="14.00" fill="#0058ad">w 932 11</text>
<polyline fill="none" stroke="#0058ad" points="465.5,-486.5 465.5,-515.5 "/>
<text text-anchor="middle" x="499.5" y="-497.3" font-family="Times,serif" font-size="14.00" fill="#0058ad">r 911 7</text>
<polyline fill="none" stroke="#0058ad" points="533.5,-486.5 533.5,-515.5 "/>
<text text-anchor="middle" x="572" y="-497.3" font-family="Times,serif" font-size="14.00" fill="#0058ad">r 891 nil</text>
</g>
<!-- T24535&#45;&gt;T24561 -->
<g id="edge1" class="edge">
<title>T24535:f1&#45;&gt;T24561:f0</title>
<path fill="none" stroke="#5b00c0" d="M806.5,-567C806.5,-398.96 439.78,-675.37 424.02,-526.43"/>
<polygon fill="#5b00c0" stroke="#5b00c0" points="427.5,-525.81 423.5,-516 420.5,-526.16 427.5,-525.81"/>
<text text-anchor="middle" x="814" y="-537.8" font-family="Times,serif" font-size="14.00" fill="#5b00c0">rw</text>
</g>
<!-- T24485 -->
<g id="node2" class="node">
<title>T24485</title>
<polygon fill="none" stroke="#0058ad" points="538.5,-324.5 538.5,-353.5 680.5,-353.5 680.5,-324.5 538.5,-324.5"/>
<text text-anchor="middle" x="572.5" y="-335.3" font-family="Times,serif" font-size="14.00" fill="#0058ad">r 891 2</text>
<polyline fill="none" stroke="#0058ad" points="606.5,-324.5 606.5,-353.5 "/>
<text text-anchor="middle" x="643.5" y="-335.3" font-family="Times,serif" font-size="14.00" fill="#0058ad">w 929 6</text>
</g>
<!-- T24499 -->
<g id="node10" class="node">
<title>T24499</title>
<polygon fill="none" stroke="#0058ad" points="535.5,-243.5 535.5,-272.5 677.5,-272.5 677.5,-243.5 535.5,-243.5"/>
<text text-anchor="middle" x="572.5" y="-254.3" font-family="Times,serif" font-size="14.00" fill="#0058ad">w 930 7</text>
<polyline fill="none" stroke="#0058ad" points="609.5,-243.5 609.5,-272.5 "/>
<text text-anchor="middle" x="643.5" y="-254.3" font-family="Times,serif" font-size="14.00" fill="#0058ad">r 929 6</text>
</g>
<!-- T24485&#45;&gt;T24499 -->
<g id="edge2" class="edge">
<title>T24485:f1&#45;&gt;T24499:f1</title>
<path fill="none" stroke="#c000a5" d="M643.5,-324C643.5,-305.23 643.5,-298.12 643.5,-283.35"/>
<polygon fill="#c000a5" stroke="#c000a5" points="647,-283 643.5,-273 640,-283 647,-283"/>
<text text-anchor="middle" x="653" y="-294.8" font-family="Times,serif" font-size="14.00" fill="#c000a5">wr</text>
</g>
<!-- T24530 -->
<g id="node3" class="node">
<title>T24530</title>
<polygon fill="none" stroke="#0058ad" points="704,-0.5 704,-29.5 997,-29.5 997,-0.5 704,-0.5"/>
<text text-anchor="middle" x="738" y="-11.3" font-family="Times,serif" font-size="14.00" fill="#0058ad">r 931 2</text>
<polyline fill="none" stroke="#0058ad" points="772,-0.5 772,-29.5 "/>
<text text-anchor="middle" x="813.5" y="-11.3" font-family="Times,serif" font-size="14.00" fill="#0058ad">w 929 10</text>
<polyline fill="none" stroke="#0058ad" points="855,-0.5 855,-29.5 "/>
<text text-anchor="middle" x="889" y="-11.3" font-family="Times,serif" font-size="14.00" fill="#0058ad">r 931 2</text>
<polyline fill="none" stroke="#0058ad" points="923,-0.5 923,-29.5 "/>
<text text-anchor="middle" x="960" y="-11.3" font-family="Times,serif" font-size="14.00" fill="#0058ad">w 931 4</text>
</g>
<!-- T24530&#45;&gt;T24535 -->
<g id="edge3" class="edge">
<title>T24530:f3&#45;&gt;T24535:f2</title>
<path fill="none" stroke="#c000a5" d="M998.5,-15C1034.28,-15 1007.5,-59.22 1007.5,-95 1007.5,-502 1007.5,-502 1007.5,-502 1007.5,-562.07 894.06,-510.1 880.77,-557.04"/>
<polygon fill="#c000a5" stroke="#c000a5" points="877.29,-556.64 879.5,-567 884.23,-557.52 877.29,-556.64"/>
<text text-anchor="middle" x="1017" y="-294.8" font-family="Times,serif" font-size="14.00" fill="#c000a5">wr</text>
</g>
<!-- T23502 -->
<g id="node4" class="node">
<title>T23502</title>
<polygon fill="none" stroke="#0058ad" points="535.5,-405.5 535.5,-434.5 677.5,-434.5 677.5,-405.5 535.5,-405.5"/>
<text text-anchor="middle" x="572.5" y="-416.3" font-family="Times,serif" font-size="14.00" fill="#0058ad">w 891 2</text>
<polyline fill="none" stroke="#0058ad" points="609.5,-405.5 609.5,-434.5 "/>
<text text-anchor="middle" x="643.5" y="-416.3" font-family="Times,serif" font-size="14.00" fill="#0058ad">r 895 6</text>
</g>
<!-- T23502&#45;&gt;T24485 -->
<g id="edge4" class="edge">
<title>T23502:f0&#45;&gt;T24485:f0</title>
<path fill="none" stroke="#c000a5" d="M572.5,-405C572.5,-386.23 572.5,-379.12 572.5,-364.35"/>
<polygon fill="#c000a5" stroke="#c000a5" points="576,-364 572.5,-354 569,-364 576,-364"/>
<text text-anchor="middle" x="582" y="-375.8" font-family="Times,serif" font-size="14.00" fill="#c000a5">wr</text>
</g>
<!-- T24534 -->
<g id="node5" class="node">
<title>T24534</title>
<polygon fill="none" stroke="#0058ad" points="0,-81.5 0,-110.5 293,-110.5 293,-81.5 0,-81.5"/>
<text text-anchor="middle" x="37" y="-92.3" font-family="Times,serif" font-size="14.00" fill="#0058ad">w 931 5</text>
<polyline fill="none" stroke="#0058ad" points="74,-81.5 74,-110.5 "/>
<text text-anchor="middle" x="112.5" y="-92.3" font-family="Times,serif" font-size="14.00" fill="#0058ad">r 932 nil</text>
<polyline fill="none" stroke="#0058ad" points="151,-81.5 151,-110.5 "/>
<text text-anchor="middle" x="188" y="-92.3" font-family="Times,serif" font-size="14.00" fill="#0058ad">w 931 6</text>
<polyline fill="none" stroke="#0058ad" points="225,-81.5 225,-110.5 "/>
<text text-anchor="middle" x="259" y="-92.3" font-family="Times,serif" font-size="14.00" fill="#0058ad">r 924 8</text>
</g>
<!-- T24534&#45;&gt;T24561 -->
<g id="edge5" class="edge">
<title>T24534:f1&#45;&gt;T24561:f0</title>
<path fill="none" stroke="#5b00c0" d="M112.5,-111C112.5,-177.19 246.5,-109.81 246.5,-176 246.5,-421 246.5,-421 246.5,-421 246.5,-487.34 305.54,-499.86 371.32,-500.92"/>
<polygon fill="#5b00c0" stroke="#5b00c0" points="371.47,-504.42 381.5,-501 371.53,-497.42 371.47,-504.42"/>
<text text-anchor="middle" x="256" y="-294.8" font-family="Times,serif" font-size="14.00" fill="#5b00c0">rw</text>
</g>
<!-- T24521 -->
<g id="node6" class="node">
<title>T24521</title>
<polygon fill="none" stroke="#0058ad" points="622.5,-81.5 622.5,-110.5 924.5,-110.5 924.5,-81.5 622.5,-81.5"/>
<text text-anchor="middle" x="659.5" y="-92.3" font-family="Times,serif" font-size="14.00" fill="#0058ad">w 931 2</text>
<polyline fill="none" stroke="#0058ad" points="696.5,-81.5 696.5,-110.5 "/>
<text text-anchor="middle" x="738" y="-92.3" font-family="Times,serif" font-size="14.00" fill="#0058ad">w 930 11</text>
<polyline fill="none" stroke="#0058ad" points="779.5,-81.5 779.5,-110.5 "/>
<text text-anchor="middle" x="813.5" y="-92.3" font-family="Times,serif" font-size="14.00" fill="#0058ad">r 924 7</text>
<polyline fill="none" stroke="#0058ad" points="847.5,-81.5 847.5,-110.5 "/>
<text text-anchor="middle" x="886" y="-92.3" font-family="Times,serif" font-size="14.00" fill="#0058ad">r 930 11</text>
</g>
<!-- T24521&#45;&gt;T24530 -->
<g id="edge6" class="edge">
<title>T24521:f0&#45;&gt;T24530:f0</title>
<path fill="none" stroke="#c000a5" d="M659.5,-81C659.5,-49.68 665.89,-21.58 692.3,-16"/>
<polygon fill="#c000a5" stroke="#c000a5" points="692.89,-19.46 702.5,-15 692.21,-12.5 692.89,-19.46"/>
<text text-anchor="middle" x="672" y="-51.8" font-family="Times,serif" font-size="14.00" fill="#c000a5">wr</text>
</g>
<!-- T24538 -->
<g id="node7" class="node">
<title>T24538</title>
<polygon fill="none" stroke="#0058ad" points="311,-81.5 311,-110.5 604,-110.5 604,-81.5 311,-81.5"/>
<text text-anchor="middle" x="348" y="-92.3" font-family="Times,serif" font-size="14.00" fill="#0058ad">w 931 7</text>
<polyline fill="none" stroke="#0058ad" points="385,-81.5 385,-110.5 "/>
<text text-anchor="middle" x="423.5" y="-92.3" font-family="Times,serif" font-size="14.00" fill="#0058ad">r 932 nil</text>
<polyline fill="none" stroke="#0058ad" points="462,-81.5 462,-110.5 "/>
<text text-anchor="middle" x="499" y="-92.3" font-family="Times,serif" font-size="14.00" fill="#0058ad">w 924 9</text>
<polyline fill="none" stroke="#0058ad" points="536,-81.5 536,-110.5 "/>
<text text-anchor="middle" x="570" y="-92.3" font-family="Times,serif" font-size="14.00" fill="#0058ad">r 929 8</text>
</g>
<!-- T24538&#45;&gt;T24561 -->
<g id="edge7" class="edge">
<title>T24538:f1&#45;&gt;T24561:f0</title>
<path fill="none" stroke="#5b00c0" d="M423.5,-111C423.5,-139.89 423.5,-147.11 423.5,-176 423.5,-421 423.5,-421 423.5,-421 423.5,-446.16 423.5,-454.89 423.5,-475.82"/>
<polygon fill="#5b00c0" stroke="#5b00c0" points="420,-476 423.5,-486 427,-476 420,-476"/>
<text text-anchor="middle" x="433" y="-294.8" font-family="Times,serif" font-size="14.00" fill="#5b00c0">rw</text>
</g>
<!-- T24505 -->
<g id="node8" class="node">
<title>T24505</title>
<polygon fill="none" stroke="#0058ad" points="539,-162.5 539,-191.5 758,-191.5 758,-162.5 539,-162.5"/>
<text text-anchor="middle" x="573" y="-173.3" font-family="Times,serif" font-size="14.00" fill="#0058ad">r 930 7</text>
<polyline fill="none" stroke="#0058ad" points="607,-162.5 607,-191.5 "/>
<text text-anchor="middle" x="645.5" y="-173.3" font-family="Times,serif" font-size="14.00" fill="#0058ad">r 931 nil</text>
<polyline fill="none" stroke="#0058ad" points="684,-162.5 684,-191.5 "/>
<text text-anchor="middle" x="721" y="-173.3" font-family="Times,serif" font-size="14.00" fill="#0058ad">w 930 9</text>
</g>
<!-- T24505&#45;&gt;T24530 -->
<g id="edge11" class="edge">
<title>T24505:f1&#45;&gt;T24530:f3</title>
<path fill="none" stroke="#5b00c0" d="M645.5,-162C645.5,-129.5 908.9,-132.24 933.5,-111 959.53,-88.53 960.56,-71.43 960.52,-40.18"/>
<polygon fill="#5b00c0" stroke="#5b00c0" points="964.02,-39.99 960.5,-30 957.02,-40.01 964.02,-39.99"/>
<text text-anchor="middle" x="965" y="-92.3" font-family="Times,serif" font-size="14.00" fill="#5b00c0">rw</text>
</g>
<!-- T24505&#45;&gt;T24534 -->
<g id="edge10" class="edge">
<title>T24505:f1&#45;&gt;T24534:f2</title>
<path fill="none" stroke="#5b00c0" d="M645.5,-162C645.5,-143.78 500.61,-146.02 482.5,-144 467.89,-142.37 244.16,-130.4 197.13,-116.13"/>
<polygon fill="#5b00c0" stroke="#5b00c0" points="198.88,-113.1 188.5,-111 195.31,-119.12 198.88,-113.1"/>
<text text-anchor="middle" x="492" y="-132.8" font-family="Times,serif" font-size="14.00" fill="#5b00c0">rw</text>
</g>
<!-- T24505&#45;&gt;T24521 -->
<g id="edge8" class="edge">
<title>T24505:f1&#45;&gt;T24521:f0</title>
<path fill="none" stroke="#5b00c0" d="M645.5,-162C645.5,-142.35 655.28,-136.34 658.49,-121.17"/>
<polygon fill="#5b00c0" stroke="#5b00c0" points="662,-121.3 659.5,-111 655.03,-120.61 662,-121.3"/>
<text text-anchor="middle" x="665" y="-132.8" font-family="Times,serif" font-size="14.00" fill="#5b00c0">rw</text>
</g>
<!-- T24505&#45;&gt;T24538 -->
<g id="edge9" class="edge">
<title>T24505:f1&#45;&gt;T24538:f0</title>
<path fill="none" stroke="#5b00c0" d="M645.5,-162C645.5,-146.02 521.24,-131.74 505.5,-129 490.61,-126.41 385.57,-128.01 355.51,-117.46"/>
<polygon fill="#5b00c0" stroke="#5b00c0" points="357.48,-114.55 347.5,-111 353.09,-120 357.48,-114.55"/>
<text text-anchor="middle" x="606" y="-132.8" font-family="Times,serif" font-size="14.00" fill="#5b00c0">rw</text>
</g>
<!-- T24561&#45;&gt;T23502 -->
<g id="edge12" class="edge">
<title>T24561:f2&#45;&gt;T23502:f0</title>
<path fill="none" stroke="#5b00c0" d="M572.5,-486C572.5,-467.23 572.5,-460.12 572.5,-445.35"/>
<polygon fill="#5b00c0" stroke="#5b00c0" points="576,-445 572.5,-435 569,-445 576,-445"/>
<text text-anchor="middle" x="582" y="-456.8" font-family="Times,serif" font-size="14.00" fill="#5b00c0">rw</text>
</g>
<!-- T24499&#45;&gt;T24505 -->
<g id="edge13" class="edge">
<title>T24499:f0&#45;&gt;T24505:f0</title>
<path fill="none" stroke="#c000a5" d="M572.5,-243C572.5,-224.23 572.5,-217.12 572.5,-202.35"/>
<polygon fill="#c000a5" stroke="#c000a5" points="576,-202 572.5,-192 569,-202 576,-202"/>
<text text-anchor="middle" x="582" y="-213.8" font-family="Times,serif" font-size="14.00" fill="#c000a5">wr</text>
</g>
</g>
</svg>
