<?xml version="1.0" encoding="UTF-8" standalone="no"?>
<!DOCTYPE svg PUBLIC "-//W3C//DTD SVG 1.1//EN"
 "http://www.w3.org/Graphics/SVG/1.1/DTD/svg11.dtd">
<!-- Generated by graphviz version 2.43.0 (0)
 -->
<!-- Title: a_graph Pages: 1 -->
<svg width="351pt" height="119pt"
 viewBox="0.00 0.00 350.50 119.00" xmlns="http://www.w3.org/2000/svg" xmlns:xlink="http://www.w3.org/1999/xlink">
<g id="graph0" class="graph" transform="scale(1 1) rotate(0) translate(4 115)">
<title>a_graph</title>
<polygon fill="white" stroke="transparent" points="-4,4 -4,-115 346.5,-115 346.5,4 -4,4"/>
<!-- T23658 -->
<g id="node1" class="node">
<title>T23658</title>
<polygon fill="none" stroke="#0058ad" points="0,-81.5 0,-110.5 293,-110.5 293,-81.5 0,-81.5"/>
<text text-anchor="middle" x="37" y="-92.3" font-family="Times,serif" font-size="14.00" fill="#0058ad">w 902 4</text>
<polyline fill="none" stroke="#0058ad" points="74,-81.5 74,-110.5 "/>
<text text-anchor="middle" x="111" y="-92.3" font-family="Times,serif" font-size="14.00" fill="#0058ad">w 902 5</text>
<polyline fill="none" stroke="#0058ad" points="148,-81.5 148,-110.5 "/>
<text text-anchor="middle" x="182" y="-92.3" font-family="Times,serif" font-size="14.00" fill="#0058ad">r 888 6</text>
<polyline fill="none" stroke="#0058ad" points="216,-81.5 216,-110.5 "/>
<text text-anchor="middle" x="254.5" y="-92.3" font-family="Times,serif" font-size="14.00" fill="#0058ad">r 901 nil</text>
</g>
<!-- T23662 -->
<g id="node2" class="node">
<title>T23662</title>
<polygon fill="none" stroke="#0058ad" points="46.5,-0.5 46.5,-29.5 342.5,-29.5 342.5,-0.5 46.5,-0.5"/>
<text text-anchor="middle" x="80.5" y="-11.3" font-family="Times,serif" font-size="14.00" fill="#0058ad">r 899 6</text>
<polyline fill="none" stroke="#0058ad" points="114.5,-0.5 114.5,-29.5 "/>
<text text-anchor="middle" x="153" y="-11.3" font-family="Times,serif" font-size="14.00" fill="#0058ad">r 902 nil</text>
<polyline fill="none" stroke="#0058ad" points="191.5,-0.5 191.5,-29.5 "/>
<text text-anchor="middle" x="228.5" y="-11.3" font-family="Times,serif" font-size="14.00" fill="#0058ad">w 901 5</text>
<polyline fill="none" stroke="#0058ad" points="265.5,-0.5 265.5,-29.5 "/>
<text text-anchor="middle" x="304" y="-11.3" font-family="Times,serif" font-size="14.00" fill="#0058ad">r 902 nil</text>
</g>
<!-- T23658&#45;&gt;T23662 -->
<g id="edge1" class="edge">
<title>T23658:f3&#45;&gt;T23662:f2</title>
<path fill="none" stroke="#5b00c0" d="M254.5,-81C254.5,-59.53 235.99,-56.1 230.21,-40.26"/>
<polygon fill="#5b00c0" stroke="#5b00c0" points="233.59,-39.29 228.5,-30 226.69,-40.44 233.59,-39.29"/>
<text text-anchor="middle" x="257" y="-51.8" font-family="Times,serif" font-size="14.00" fill="#5b00c0">rw</text>
</g>
<!-- T23662&#45;&gt;T23658 -->
<g id="edge2" class="edge">
<title>T23662:f1&#45;&gt;T23658:f1</title>
<path fill="none" stroke="#5b00c0" d="M152.5,-30C152.5,-55.46 120.92,-53.03 112.53,-71.09"/>
<polygon fill="#5b00c0" stroke="#5b00c0" points="109.07,-70.5 110.5,-81 115.93,-71.9 109.07,-70.5"/>
<text text-anchor="middle" x="153" y="-51.8" font-family="Times,serif" font-size="14.00" fill="#5b00c0">rw</text>
</g>
</g>
</svg>
