<?xml version="1.0" encoding="UTF-8" standalone="no"?>
<!DOCTYPE svg PUBLIC "-//W3C//DTD SVG 1.1//EN"
 "http://www.w3.org/Graphics/SVG/1.1/DTD/svg11.dtd">
<!-- Generated by graphviz version 2.43.0 (0)
 -->
<!-- Title: a_graph Pages: 1 -->
<svg width="237pt" height="119pt"
 viewBox="0.00 0.00 237.00 119.00" xmlns="http://www.w3.org/2000/svg" xmlns:xlink="http://www.w3.org/1999/xlink">
<g id="graph0" class="graph" transform="scale(1 1) rotate(0) translate(4 115)">
<title>a_graph</title>
<polygon fill="white" stroke="transparent" points="-4,4 -4,-115 233,-115 233,4 -4,4"/>
<!-- T2512 -->
<g id="node1" class="node">
<title>T2512</title>
<polygon fill="none" stroke="#0058ad" points="0,-81.5 0,-110.5 225,-110.5 225,-81.5 0,-81.5"/>
<text text-anchor="middle" x="37" y="-92.3" font-family="Times,serif" font-size="14.00" fill="#0058ad">w 97 11</text>
<polyline fill="none" stroke="#0058ad" points="74,-81.5 74,-110.5 "/>
<text text-anchor="middle" x="112.5" y="-92.3" font-family="Times,serif" font-size="14.00" fill="#0058ad">r 101 nil</text>
<polyline fill="none" stroke="#0058ad" points="151,-81.5 151,-110.5 "/>
<text text-anchor="middle" x="188" y="-92.3" font-family="Times,serif" font-size="14.00" fill="#0058ad">w 101 1</text>
</g>
<!-- T2515 -->
<g id="node2" class="node">
<title>T2515</title>
<polygon fill="none" stroke="#0058ad" points="78,-0.5 78,-29.5 229,-29.5 229,-0.5 78,-0.5"/>
<text text-anchor="middle" x="116.5" y="-11.3" font-family="Times,serif" font-size="14.00" fill="#0058ad">r 101 nil</text>
<polyline fill="none" stroke="#0058ad" points="155,-0.5 155,-29.5 "/>
<text text-anchor="middle" x="192" y="-11.3" font-family="Times,serif" font-size="14.00" fill="#0058ad">w 101 2</text>
</g>
<!-- T2512&#45;&gt;T2515 -->
<g id="edge1" class="edge">
<title>T2512:f1&#45;&gt;T2515:f1</title>
<path fill="none" stroke="#5b00c0" d="M112.5,-81C112.5,-62.33 123.22,-58.74 138.5,-48 155.48,-36.07 180.94,-48.62 189.54,-39.56"/>
<polygon fill="#5b00c0" stroke="#5b00c0" points="192.88,-40.59 192.5,-30 186.2,-38.52 192.88,-40.59"/>
<text text-anchor="middle" x="148" y="-51.8" font-family="Times,serif" font-size="14.00" fill="#5b00c0">rw</text>
</g>
<!-- T2515&#45;&gt;T2512 -->
<g id="edge2" class="edge">
<title>T2515:f0&#45;&gt;T2512:f2</title>
<path fill="none" stroke="#5b00c0" d="M116.5,-30C116.5,-49.9 141.25,-36.52 157.5,-48 170.6,-57.25 182.51,-59.94 186.8,-70.83"/>
<polygon fill="#5b00c0" stroke="#5b00c0" points="183.4,-71.71 188.5,-81 190.31,-70.56 183.4,-71.71"/>
<text text-anchor="middle" x="191" y="-51.8" font-family="Times,serif" font-size="14.00" fill="#5b00c0">rw</text>
</g>
</g>
</svg>
