<?xml version="1.0" encoding="UTF-8" standalone="no"?>
<!DOCTYPE svg PUBLIC "-//W3C//DTD SVG 1.1//EN"
 "http://www.w3.org/Graphics/SVG/1.1/DTD/svg11.dtd">
<!-- Generated by graphviz version 2.43.0 (0)
 -->
<!-- Title: a_graph Pages: 1 -->
<svg width="576pt" height="281pt"
 viewBox="0.00 0.00 576.00 281.00" xmlns="http://www.w3.org/2000/svg" xmlns:xlink="http://www.w3.org/1999/xlink">
<g id="graph0" class="graph" transform="scale(1 1) rotate(0) translate(4 277)">
<title>a_graph</title>
<polygon fill="white" stroke="transparent" points="-4,4 -4,-277 572,-277 572,4 -4,4"/>
<!-- T20080 -->
<g id="node1" class="node">
<title>T20080</title>
<polygon fill="none" stroke="#0058ad" points="43.5,-243.5 43.5,-272.5 345.5,-272.5 345.5,-243.5 43.5,-243.5"/>
<text text-anchor="middle" x="85" y="-254.3" font-family="Times,serif" font-size="14.00" fill="#0058ad">w 754 14</text>
<polyline fill="none" stroke="#0058ad" points="126.5,-243.5 126.5,-272.5 "/>
<text text-anchor="middle" x="165" y="-254.3" font-family="Times,serif" font-size="14.00" fill="#0058ad">r 767 nil</text>
<polyline fill="none" stroke="#0058ad" points="203.5,-243.5 203.5,-272.5 "/>
<text text-anchor="middle" x="240.5" y="-254.3" font-family="Times,serif" font-size="14.00" fill="#0058ad">w 767 1</text>
<polyline fill="none" stroke="#0058ad" points="277.5,-243.5 277.5,-272.5 "/>
<text text-anchor="middle" x="311.5" y="-254.3" font-family="Times,serif" font-size="14.00" fill="#0058ad">r 765 2</text>
</g>
<!-- T20095 -->
<g id="node3" class="node">
<title>T20095</title>
<polygon fill="none" stroke="#0058ad" points="123.5,-162.5 123.5,-191.5 351.5,-191.5 351.5,-162.5 123.5,-162.5"/>
<text text-anchor="middle" x="165" y="-173.3" font-family="Times,serif" font-size="14.00" fill="#0058ad">w 754 15</text>
<polyline fill="none" stroke="#0058ad" points="206.5,-162.5 206.5,-191.5 "/>
<text text-anchor="middle" x="240.5" y="-173.3" font-family="Times,serif" font-size="14.00" fill="#0058ad">r 767 1</text>
<polyline fill="none" stroke="#0058ad" points="274.5,-162.5 274.5,-191.5 "/>
<text text-anchor="middle" x="313" y="-173.3" font-family="Times,serif" font-size="14.00" fill="#0058ad">r 766 nil</text>
</g>
<!-- T20080&#45;&gt;T20095 -->
<g id="edge1" class="edge">
<title>T20080:f2&#45;&gt;T20095:f1</title>
<path fill="none" stroke="#c000a5" d="M240.5,-243C240.5,-224.23 240.5,-217.12 240.5,-202.35"/>
<polygon fill="#c000a5" stroke="#c000a5" points="244,-202 240.5,-192 237,-202 244,-202"/>
<text text-anchor="middle" x="250" y="-213.8" font-family="Times,serif" font-size="14.00" fill="#c000a5">wr</text>
</g>
<!-- T20071 -->
<g id="node2" class="node">
<title>T20071</title>
<polygon fill="none" stroke="#0058ad" points="122,-81.5 122,-110.5 427,-110.5 427,-81.5 122,-81.5"/>
<text text-anchor="middle" x="160.5" y="-92.3" font-family="Times,serif" font-size="14.00" fill="#0058ad">r 763 11</text>
<polyline fill="none" stroke="#0058ad" points="199,-81.5 199,-110.5 "/>
<text text-anchor="middle" x="237.5" y="-92.3" font-family="Times,serif" font-size="14.00" fill="#0058ad">r 766 nil</text>
<polyline fill="none" stroke="#0058ad" points="276,-81.5 276,-110.5 "/>
<text text-anchor="middle" x="313" y="-92.3" font-family="Times,serif" font-size="14.00" fill="#0058ad">w 766 1</text>
<polyline fill="none" stroke="#0058ad" points="350,-81.5 350,-110.5 "/>
<text text-anchor="middle" x="388.5" y="-92.3" font-family="Times,serif" font-size="14.00" fill="#0058ad">r 763 11</text>
</g>
<!-- T20077 -->
<g id="node4" class="node">
<title>T20077</title>
<polygon fill="none" stroke="#0058ad" points="349,-0.5 349,-29.5 568,-29.5 568,-0.5 349,-0.5"/>
<text text-anchor="middle" x="387.5" y="-11.3" font-family="Times,serif" font-size="14.00" fill="#0058ad">r 767 nil</text>
<polyline fill="none" stroke="#0058ad" points="426,-0.5 426,-29.5 "/>
<text text-anchor="middle" x="463" y="-11.3" font-family="Times,serif" font-size="14.00" fill="#0058ad">w 766 3</text>
<polyline fill="none" stroke="#0058ad" points="500,-0.5 500,-29.5 "/>
<text text-anchor="middle" x="534" y="-11.3" font-family="Times,serif" font-size="14.00" fill="#0058ad">r 766 3</text>
</g>
<!-- T20071&#45;&gt;T20077 -->
<g id="edge2" class="edge">
<title>T20071:f1&#45;&gt;T20077:f1</title>
<path fill="none" stroke="#5b00c0" d="M237.5,-81C237.5,-57.97 418.34,-55.93 456.49,-37.33"/>
<polygon fill="#5b00c0" stroke="#5b00c0" points="459.12,-39.65 463.5,-30 454.06,-34.81 459.12,-39.65"/>
<text text-anchor="middle" x="418" y="-51.8" font-family="Times,serif" font-size="14.00" fill="#5b00c0">rw</text>
</g>
<!-- T20086 -->
<g id="node5" class="node">
<title>T20086</title>
<polygon fill="none" stroke="#0058ad" points="0,-0.5 0,-29.5 151,-29.5 151,-0.5 0,-0.5"/>
<text text-anchor="middle" x="38.5" y="-11.3" font-family="Times,serif" font-size="14.00" fill="#0058ad">r 767 nil</text>
<polyline fill="none" stroke="#0058ad" points="77,-0.5 77,-29.5 "/>
<text text-anchor="middle" x="114" y="-11.3" font-family="Times,serif" font-size="14.00" fill="#0058ad">w 766 4</text>
</g>
<!-- T20071&#45;&gt;T20086 -->
<g id="edge3" class="edge">
<title>T20071:f1&#45;&gt;T20086:f1</title>
<path fill="none" stroke="#5b00c0" d="M237.5,-81C237.5,-36.63 205.51,-17.78 162.69,-15.29"/>
<polygon fill="#5b00c0" stroke="#5b00c0" points="162.6,-11.78 152.5,-15 162.4,-18.78 162.6,-11.78"/>
<text text-anchor="middle" x="244" y="-51.8" font-family="Times,serif" font-size="14.00" fill="#5b00c0">rw</text>
</g>
<!-- T20095&#45;&gt;T20071 -->
<g id="edge6" class="edge">
<title>T20095:f2&#45;&gt;T20071:f2</title>
<path fill="none" stroke="#5b00c0" d="M313.5,-162C313.5,-143.23 313.5,-136.12 313.5,-121.35"/>
<polygon fill="#5b00c0" stroke="#5b00c0" points="317,-121 313.5,-111 310,-121 317,-121"/>
<text text-anchor="middle" x="323" y="-132.8" font-family="Times,serif" font-size="14.00" fill="#5b00c0">rw</text>
</g>
<!-- T20095&#45;&gt;T20077 -->
<g id="edge4" class="edge">
<title>T20095:f2&#45;&gt;T20077:f1</title>
<path fill="none" stroke="#5b00c0" d="M352.5,-177C430.85,-177 460.9,-117.34 463.34,-40.46"/>
<polygon fill="#5b00c0" stroke="#5b00c0" points="466.84,-40.05 463.5,-30 459.84,-39.94 466.84,-40.05"/>
<text text-anchor="middle" x="468" y="-92.3" font-family="Times,serif" font-size="14.00" fill="#5b00c0">rw</text>
</g>
<!-- T20095&#45;&gt;T20086 -->
<g id="edge5" class="edge">
<title>T20095:f2&#45;&gt;T20086:f1</title>
<path fill="none" stroke="#5b00c0" d="M313.5,-162C313.5,-112.03 125.57,-150.14 94.5,-111 73.7,-84.79 106.72,-70.12 113.37,-40.26"/>
<polygon fill="#5b00c0" stroke="#5b00c0" points="116.88,-40.32 114.5,-30 109.93,-39.56 116.88,-40.32"/>
<text text-anchor="middle" x="104" y="-92.3" font-family="Times,serif" font-size="14.00" fill="#5b00c0">rw</text>
</g>
<!-- T20077&#45;&gt;T20080 -->
<g id="edge7" class="edge">
<title>T20077:f0&#45;&gt;T20080:f2</title>
<path fill="none" stroke="#5b00c0" d="M387.5,-30C387.5,-69.92 447.58,-19.46 475.5,-48 495.17,-68.11 491.86,-84.85 481.5,-111 474.09,-129.71 466.48,-131.77 450.5,-144 414.5,-171.55 401.4,-172.45 360.5,-192 349.42,-197.3 270.9,-219.85 247.24,-235.42"/>
<polygon fill="#5b00c0" stroke="#5b00c0" points="244.53,-233.2 240.5,-243 249.76,-237.85 244.53,-233.2"/>
<text text-anchor="middle" x="479" y="-132.8" font-family="Times,serif" font-size="14.00" fill="#5b00c0">rw</text>
</g>
<!-- T20086&#45;&gt;T20080 -->
<g id="edge8" class="edge">
<title>T20086:f0&#45;&gt;T20080:f2</title>
<path fill="none" stroke="#5b00c0" d="M38.5,-30C38.5,-109.53 56.77,-137.3 114.5,-192 133.86,-210.34 217.24,-212.5 236.51,-233.54"/>
<polygon fill="#5b00c0" stroke="#5b00c0" points="233.39,-235.15 240.5,-243 239.84,-232.43 233.39,-235.15"/>
<text text-anchor="middle" x="79" y="-132.8" font-family="Times,serif" font-size="14.00" fill="#5b00c0">rw</text>
</g>
</g>
</svg>
