<?xml version="1.0" encoding="UTF-8" standalone="no"?>
<!DOCTYPE svg PUBLIC "-//W3C//DTD SVG 1.1//EN"
 "http://www.w3.org/Graphics/SVG/1.1/DTD/svg11.dtd">
<!-- Generated by graphviz version 2.43.0 (0)
 -->
<!-- Title: a_graph Pages: 1 -->
<svg width="233pt" height="119pt"
 viewBox="0.00 0.00 233.00 119.00" xmlns="http://www.w3.org/2000/svg" xmlns:xlink="http://www.w3.org/1999/xlink">
<g id="graph0" class="graph" transform="scale(1 1) rotate(0) translate(4 115)">
<title>a_graph</title>
<polygon fill="white" stroke="transparent" points="-4,4 -4,-115 229,-115 229,4 -4,4"/>
<!-- T2927 -->
<g id="node1" class="node">
<title>T2927</title>
<polygon fill="none" stroke="#0058ad" points="73,-81.5 73,-110.5 224,-110.5 224,-81.5 73,-81.5"/>
<text text-anchor="middle" x="111.5" y="-92.3" font-family="Times,serif" font-size="14.00" fill="#0058ad">r 117 nil</text>
<polyline fill="none" stroke="#0058ad" points="150,-81.5 150,-110.5 "/>
<text text-anchor="middle" x="187" y="-92.3" font-family="Times,serif" font-size="14.00" fill="#0058ad">w 117 2</text>
</g>
<!-- T2925 -->
<g id="node2" class="node">
<title>T2925</title>
<polygon fill="none" stroke="#0058ad" points="0,-0.5 0,-29.5 225,-29.5 225,-0.5 0,-0.5"/>
<text text-anchor="middle" x="37" y="-11.3" font-family="Times,serif" font-size="14.00" fill="#0058ad">w 114 5</text>
<polyline fill="none" stroke="#0058ad" points="74,-0.5 74,-29.5 "/>
<text text-anchor="middle" x="112.5" y="-11.3" font-family="Times,serif" font-size="14.00" fill="#0058ad">r 117 nil</text>
<polyline fill="none" stroke="#0058ad" points="151,-0.5 151,-29.5 "/>
<text text-anchor="middle" x="188" y="-11.3" font-family="Times,serif" font-size="14.00" fill="#0058ad">w 117 1</text>
</g>
<!-- T2927&#45;&gt;T2925 -->
<g id="edge1" class="edge">
<title>T2927:f0&#45;&gt;T2925:f2</title>
<path fill="none" stroke="#5b00c0" d="M111.5,-81C111.5,-62.05 123.03,-58.94 138.5,-48 154.02,-37.03 176.94,-47.35 185.3,-39.5"/>
<polygon fill="#5b00c0" stroke="#5b00c0" points="188.62,-40.59 188.5,-30 181.99,-38.36 188.62,-40.59"/>
<text text-anchor="middle" x="148" y="-51.8" font-family="Times,serif" font-size="14.00" fill="#5b00c0">rw</text>
</g>
<!-- T2925&#45;&gt;T2927 -->
<g id="edge2" class="edge">
<title>T2925:f1&#45;&gt;T2927:f1</title>
<path fill="none" stroke="#5b00c0" d="M112.5,-30C112.5,-51.54 139.8,-35.72 157.5,-48 170.48,-57.01 181.82,-60.03 185.9,-70.91"/>
<polygon fill="#5b00c0" stroke="#5b00c0" points="182.47,-71.67 187.5,-81 189.39,-70.57 182.47,-71.67"/>
<text text-anchor="middle" x="189" y="-51.8" font-family="Times,serif" font-size="14.00" fill="#5b00c0">rw</text>
</g>
</g>
</svg>
