<?xml version="1.0" encoding="UTF-8" standalone="no"?>
<!DOCTYPE svg PUBLIC "-//W3C//DTD SVG 1.1//EN"
 "http://www.w3.org/Graphics/SVG/1.1/DTD/svg11.dtd">
<!-- Generated by graphviz version 2.43.0 (0)
 -->
<!-- Title: a_graph Pages: 1 -->
<svg width="823pt" height="362pt"
 viewBox="0.00 0.00 823.12 362.00" xmlns="http://www.w3.org/2000/svg" xmlns:xlink="http://www.w3.org/1999/xlink">
<g id="graph0" class="graph" transform="scale(1 1) rotate(0) translate(4 358)">
<title>a_graph</title>
<polygon fill="white" stroke="transparent" points="-4,4 -4,-358 819.12,-358 819.12,4 -4,4"/>
<!-- T6289 -->
<g id="node1" class="node">
<title>T6289</title>
<polygon fill="none" stroke="#0058ad" points="528.12,-324.5 528.12,-353.5 815.12,-353.5 815.12,-324.5 528.12,-324.5"/>
<text text-anchor="middle" x="566.62" y="-335.3" font-family="Times,serif" font-size="14.00" fill="#0058ad">r 245 nil</text>
<polyline fill="none" stroke="#0058ad" points="605.12,-324.5 605.12,-353.5 "/>
<text text-anchor="middle" x="642.12" y="-335.3" font-family="Times,serif" font-size="14.00" fill="#0058ad">w 244 3</text>
<polyline fill="none" stroke="#0058ad" points="679.12,-324.5 679.12,-353.5 "/>
<text text-anchor="middle" x="713.12" y="-335.3" font-family="Times,serif" font-size="14.00" fill="#0058ad">r 244 3</text>
<polyline fill="none" stroke="#0058ad" points="747.12,-324.5 747.12,-353.5 "/>
<text text-anchor="middle" x="781.12" y="-335.3" font-family="Times,serif" font-size="14.00" fill="#0058ad">r 244 3</text>
</g>
<!-- T6288 -->
<g id="node4" class="node">
<title>T6288</title>
<polygon fill="none" stroke="#0058ad" points="197.62,-243.5 197.62,-272.5 425.62,-272.5 425.62,-243.5 197.62,-243.5"/>
<text text-anchor="middle" x="234.62" y="-254.3" font-family="Times,serif" font-size="14.00" fill="#0058ad">w 245 2</text>
<polyline fill="none" stroke="#0058ad" points="271.62,-243.5 271.62,-272.5 "/>
<text text-anchor="middle" x="310.12" y="-254.3" font-family="Times,serif" font-size="14.00" fill="#0058ad">r 237 11</text>
<polyline fill="none" stroke="#0058ad" points="348.62,-243.5 348.62,-272.5 "/>
<text text-anchor="middle" x="387.12" y="-254.3" font-family="Times,serif" font-size="14.00" fill="#0058ad">r 244 nil</text>
</g>
<!-- T6289&#45;&gt;T6288 -->
<g id="edge2" class="edge">
<title>T6289:f0&#45;&gt;T6288:f0</title>
<path fill="none" stroke="#5b00c0" d="M566.62,-324C566.62,-178.36 250.63,-410.43 235.21,-283.24"/>
<polygon fill="#5b00c0" stroke="#5b00c0" points="238.69,-282.78 234.62,-273 231.7,-283.18 238.69,-282.78"/>
<text text-anchor="middle" x="572.12" y="-294.8" font-family="Times,serif" font-size="14.00" fill="#5b00c0">rw</text>
</g>
<!-- T6283 -->
<g id="node5" class="node">
<title>T6283</title>
<polygon fill="none" stroke="#0058ad" points="359.62,-0.5 359.62,-29.5 587.62,-29.5 587.62,-0.5 359.62,-0.5"/>
<text text-anchor="middle" x="398.12" y="-11.3" font-family="Times,serif" font-size="14.00" fill="#0058ad">r 245 nil</text>
<polyline fill="none" stroke="#0058ad" points="436.62,-0.5 436.62,-29.5 "/>
<text text-anchor="middle" x="475.12" y="-11.3" font-family="Times,serif" font-size="14.00" fill="#0058ad">r 244 nil</text>
<polyline fill="none" stroke="#0058ad" points="513.62,-0.5 513.62,-29.5 "/>
<text text-anchor="middle" x="550.62" y="-11.3" font-family="Times,serif" font-size="14.00" fill="#0058ad">w 245 1</text>
</g>
<!-- T6289&#45;&gt;T6283 -->
<g id="edge1" class="edge">
<title>T6289:f0&#45;&gt;T6283:f2</title>
<path fill="none" stroke="#5b00c0" d="M566.62,-324C566.62,-313 579.47,-316.19 583.62,-306 606.65,-249.5 648.24,-40.63 598.58,-17.15"/>
<polygon fill="#5b00c0" stroke="#5b00c0" points="599.14,-13.69 588.62,-15 597.66,-20.53 599.14,-13.69"/>
<text text-anchor="middle" x="625.12" y="-173.3" font-family="Times,serif" font-size="14.00" fill="#5b00c0">rw</text>
</g>
<!-- T6281 -->
<g id="node2" class="node">
<title>T6281</title>
<polygon fill="none" stroke="#0058ad" points="271.62,-162.5 271.62,-191.5 573.62,-191.5 573.62,-162.5 271.62,-162.5"/>
<text text-anchor="middle" x="308.62" y="-173.3" font-family="Times,serif" font-size="14.00" fill="#0058ad">w 244 2</text>
<polyline fill="none" stroke="#0058ad" points="345.62,-162.5 345.62,-191.5 "/>
<text text-anchor="middle" x="379.62" y="-173.3" font-family="Times,serif" font-size="14.00" fill="#0058ad">r 244 2</text>
<polyline fill="none" stroke="#0058ad" points="413.62,-162.5 413.62,-191.5 "/>
<text text-anchor="middle" x="452.12" y="-173.3" font-family="Times,serif" font-size="14.00" fill="#0058ad">r 245 nil</text>
<polyline fill="none" stroke="#0058ad" points="490.62,-162.5 490.62,-191.5 "/>
<text text-anchor="middle" x="532.12" y="-173.3" font-family="Times,serif" font-size="14.00" fill="#0058ad">w 237 14</text>
</g>
<!-- T6285 -->
<g id="node3" class="node">
<title>T6285</title>
<polygon fill="none" stroke="#0058ad" points="269.12,-81.5 269.12,-110.5 414.12,-110.5 414.12,-81.5 269.12,-81.5"/>
<text text-anchor="middle" x="307.62" y="-92.3" font-family="Times,serif" font-size="14.00" fill="#0058ad">r 245 nil</text>
<polyline fill="none" stroke="#0058ad" points="346.12,-81.5 346.12,-110.5 "/>
<text text-anchor="middle" x="380.12" y="-92.3" font-family="Times,serif" font-size="14.00" fill="#0058ad">r 244 2</text>
</g>
<!-- T6281&#45;&gt;T6285 -->
<g id="edge5" class="edge">
<title>T6281:f0&#45;&gt;T6285:f1</title>
<path fill="none" stroke="#c000a5" d="M308.62,-162C308.62,-126.77 366.74,-145.33 378.54,-121.03"/>
<polygon fill="#c000a5" stroke="#c000a5" points="382.02,-121.5 380.62,-111 375.17,-120.08 382.02,-121.5"/>
<text text-anchor="middle" x="380.12" y="-132.8" font-family="Times,serif" font-size="14.00" fill="#c000a5">wr</text>
</g>
<!-- T6281&#45;&gt;T6288 -->
<g id="edge6" class="edge">
<title>T6281:f2&#45;&gt;T6288:f0</title>
<path fill="none" stroke="#5b00c0" d="M452.62,-192C452.62,-220.06 354.87,-203.27 327.62,-210 309.66,-214.43 255.8,-219.27 239.41,-233.84"/>
<polygon fill="#5b00c0" stroke="#5b00c0" points="236.15,-232.52 234.62,-243 242.36,-235.76 236.15,-232.52"/>
<text text-anchor="middle" x="337.12" y="-213.8" font-family="Times,serif" font-size="14.00" fill="#5b00c0">rw</text>
</g>
<!-- T6281&#45;&gt;T6283 -->
<g id="edge4" class="edge">
<title>T6281:f2&#45;&gt;T6283:f2</title>
<path fill="none" stroke="#5b00c0" d="M452.62,-162C452.62,-145.31 554.62,-75.55 565.62,-63 577.19,-49.8 597.29,-29.75 597.21,-20.29"/>
<polygon fill="#5b00c0" stroke="#5b00c0" points="598.97,-17.27 588.62,-15 595.3,-23.23 598.97,-17.27"/>
<text text-anchor="middle" x="551.12" y="-92.3" font-family="Times,serif" font-size="14.00" fill="#5b00c0">rw</text>
</g>
<!-- T6282 -->
<g id="node6" class="node">
<title>T6282</title>
<polygon fill="none" stroke="#0058ad" points="28.62,-81.5 28.62,-110.5 250.62,-110.5 250.62,-81.5 28.62,-81.5"/>
<text text-anchor="middle" x="67.12" y="-92.3" font-family="Times,serif" font-size="14.00" fill="#0058ad">r 245 nil</text>
<polyline fill="none" stroke="#0058ad" points="105.62,-81.5 105.62,-110.5 "/>
<text text-anchor="middle" x="139.62" y="-92.3" font-family="Times,serif" font-size="14.00" fill="#0058ad">r 244 2</text>
<polyline fill="none" stroke="#0058ad" points="173.62,-81.5 173.62,-110.5 "/>
<text text-anchor="middle" x="212.12" y="-92.3" font-family="Times,serif" font-size="14.00" fill="#0058ad">r 237 14</text>
</g>
<!-- T6281&#45;&gt;T6282 -->
<g id="edge3" class="edge">
<title>T6281:f0&#45;&gt;T6282:f1</title>
<path fill="none" stroke="#c000a5" d="M308.62,-162C308.62,-126.45 169.82,-145.67 143.8,-120.38"/>
<polygon fill="#c000a5" stroke="#c000a5" points="146.89,-118.71 139.62,-111 140.49,-121.56 146.89,-118.71"/>
<text text-anchor="middle" x="294.12" y="-132.8" font-family="Times,serif" font-size="14.00" fill="#c000a5">wr</text>
</g>
<!-- T6285&#45;&gt;T6288 -->
<g id="edge8" class="edge">
<title>T6285:f0&#45;&gt;T6288:f0</title>
<path fill="none" stroke="#5b00c0" d="M267.62,-96C260.07,-96 263.37,-104.44 259.62,-111 254.97,-119.14 251.83,-120.19 248.62,-129 232.37,-173.59 234.24,-189.68 234.58,-232.74"/>
<polygon fill="#5b00c0" stroke="#5b00c0" points="231.08,-233.01 234.62,-243 238.08,-232.99 231.08,-233.01"/>
<text text-anchor="middle" x="248.12" y="-173.3" font-family="Times,serif" font-size="14.00" fill="#5b00c0">rw</text>
</g>
<!-- T6285&#45;&gt;T6283 -->
<g id="edge7" class="edge">
<title>T6285:f0&#45;&gt;T6283:f2</title>
<path fill="none" stroke="#5b00c0" d="M307.62,-81C307.62,-58.8 485.9,-70.96 506.62,-63 525.7,-55.67 543.63,-54.62 549,-40.19"/>
<polygon fill="#5b00c0" stroke="#5b00c0" points="552.5,-40.43 550.62,-30 545.59,-39.32 552.5,-40.43"/>
<text text-anchor="middle" x="552.12" y="-51.8" font-family="Times,serif" font-size="14.00" fill="#5b00c0">rw</text>
</g>
<!-- T6288&#45;&gt;T6289 -->
<g id="edge9" class="edge">
<title>T6288:f2&#45;&gt;T6289:f1</title>
<path fill="none" stroke="#5b00c0" d="M426.62,-258C472.46,-258 610.63,-287.04 637.18,-315"/>
<polygon fill="#5b00c0" stroke="#5b00c0" points="634.06,-316.58 641.62,-324 640.34,-313.48 634.06,-316.58"/>
<text text-anchor="middle" x="633.12" y="-294.8" font-family="Times,serif" font-size="14.00" fill="#5b00c0">rw</text>
</g>
<!-- T6288&#45;&gt;T6281 -->
<g id="edge10" class="edge">
<title>T6288:f2&#45;&gt;T6281:f0</title>
<path fill="none" stroke="#5b00c0" d="M387.62,-243C387.62,-219.61 366.44,-222.43 346.62,-210 334.75,-202.55 319.31,-206.66 312.33,-201.3"/>
<polygon fill="#5b00c0" stroke="#5b00c0" points="315.58,-199.99 308.62,-192 309.08,-202.59 315.58,-199.99"/>
<text text-anchor="middle" x="388.12" y="-213.8" font-family="Times,serif" font-size="14.00" fill="#5b00c0">rw</text>
</g>
<!-- T6283&#45;&gt;T6289 -->
<g id="edge13" class="edge">
<title>T6283:f1&#45;&gt;T6289:f1</title>
<path fill="none" stroke="#5b00c0" d="M475.62,-30C475.62,-72.92 524.01,-54.32 557.62,-81 597.5,-112.65 617.69,-115.59 638.62,-162 662.24,-214.36 644.84,-233.58 646.62,-291 646.83,-297.66 647.52,-299.39 646.62,-306 646.13,-309.6 645.11,-311.91 644.12,-314.06"/>
<polygon fill="#5b00c0" stroke="#5b00c0" points="640.67,-313.45 641.62,-324 647.45,-315.16 640.67,-313.45"/>
<text text-anchor="middle" x="658.12" y="-173.3" font-family="Times,serif" font-size="14.00" fill="#5b00c0">rw</text>
</g>
<!-- T6283&#45;&gt;T6281 -->
<g id="edge11" class="edge">
<title>T6283:f1&#45;&gt;T6281:f0</title>
<path fill="none" stroke="#5b00c0" d="M475.62,-30C475.62,-31.34 424.44,-109.94 423.62,-111 411.56,-126.73 410.81,-134.14 393.62,-144 363.79,-161.11 319.67,-131.39 310.38,-151.96"/>
<polygon fill="#5b00c0" stroke="#5b00c0" points="306.9,-151.55 308.62,-162 313.79,-152.75 306.9,-151.55"/>
<text text-anchor="middle" x="452.12" y="-92.3" font-family="Times,serif" font-size="14.00" fill="#5b00c0">rw</text>
</g>
<!-- T6283&#45;&gt;T6288 -->
<g id="edge12" class="edge">
<title>T6283:f0&#45;&gt;T6288:f0</title>
<path fill="none" stroke="#5b00c0" d="M358.62,-15C281.87,-15 68.43,-21.77 19.62,-81 -48.99,-164.26 77.3,-252.49 186.45,-257.75"/>
<polygon fill="#5b00c0" stroke="#5b00c0" points="186.54,-261.26 196.62,-258 186.71,-254.26 186.54,-261.26"/>
<text text-anchor="middle" x="11.12" y="-132.8" font-family="Times,serif" font-size="14.00" fill="#5b00c0">rw</text>
</g>
<!-- T6282&#45;&gt;T6288 -->
<g id="edge15" class="edge">
<title>T6282:f0&#45;&gt;T6288:f0</title>
<path fill="none" stroke="#5b00c0" d="M66.62,-111C66.62,-194.81 106.13,-253.29 186.6,-257.73"/>
<polygon fill="#5b00c0" stroke="#5b00c0" points="186.53,-261.23 196.62,-258 186.72,-254.23 186.53,-261.23"/>
<text text-anchor="middle" x="92.12" y="-173.3" font-family="Times,serif" font-size="14.00" fill="#5b00c0">rw</text>
</g>
<!-- T6282&#45;&gt;T6283 -->
<g id="edge14" class="edge">
<title>T6282:f0&#45;&gt;T6283:f2</title>
<path fill="none" stroke="#5b00c0" d="M66.62,-81C66.62,-56.07 477.95,-56.74 542.22,-35.81"/>
<polygon fill="#5b00c0" stroke="#5b00c0" points="544.39,-38.57 550.62,-30 540.41,-32.81 544.39,-38.57"/>
<text text-anchor="middle" x="443.12" y="-51.8" font-family="Times,serif" font-size="14.00" fill="#5b00c0">rw</text>
</g>
</g>
</svg>
