<?xml version="1.0" encoding="UTF-8" standalone="no"?>
<!DOCTYPE svg PUBLIC "-//W3C//DTD SVG 1.1//EN"
 "http://www.w3.org/Graphics/SVG/1.1/DTD/svg11.dtd">
<!-- Generated by graphviz version 2.43.0 (0)
 -->
<!-- Title: a_graph Pages: 1 -->
<svg width="402pt" height="119pt"
 viewBox="0.00 0.00 402.00 119.00" xmlns="http://www.w3.org/2000/svg" xmlns:xlink="http://www.w3.org/1999/xlink">
<g id="graph0" class="graph" transform="scale(1 1) rotate(0) translate(4 115)">
<title>a_graph</title>
<polygon fill="white" stroke="transparent" points="-4,4 -4,-115 398,-115 398,4 -4,4"/>
<!-- T3878 -->
<g id="node1" class="node">
<title>T3878</title>
<polygon fill="none" stroke="#0058ad" points="78.5,-81.5 78.5,-110.5 312.5,-110.5 312.5,-81.5 78.5,-81.5"/>
<text text-anchor="middle" x="115.5" y="-92.3" font-family="Times,serif" font-size="14.00" fill="#0058ad">w 153 1</text>
<polyline fill="none" stroke="#0058ad" points="152.5,-81.5 152.5,-110.5 "/>
<text text-anchor="middle" x="194" y="-92.3" font-family="Times,serif" font-size="14.00" fill="#0058ad">w 145 11</text>
<polyline fill="none" stroke="#0058ad" points="235.5,-81.5 235.5,-110.5 "/>
<text text-anchor="middle" x="274" y="-92.3" font-family="Times,serif" font-size="14.00" fill="#0058ad">r 154 nil</text>
</g>
<!-- T3885 -->
<g id="node2" class="node">
<title>T3885</title>
<polygon fill="none" stroke="#0058ad" points="0,-0.5 0,-29.5 151,-29.5 151,-0.5 0,-0.5"/>
<text text-anchor="middle" x="37" y="-11.3" font-family="Times,serif" font-size="14.00" fill="#0058ad">w 154 5</text>
<polyline fill="none" stroke="#0058ad" points="74,-0.5 74,-29.5 "/>
<text text-anchor="middle" x="112.5" y="-11.3" font-family="Times,serif" font-size="14.00" fill="#0058ad">r 153 nil</text>
</g>
<!-- T3878&#45;&gt;T3885 -->
<g id="edge1" class="edge">
<title>T3878:f2&#45;&gt;T3885:f0</title>
<path fill="none" stroke="#5b00c0" d="M274.5,-81C274.5,-57.11 191.26,-70.28 168.5,-63 153.92,-58.34 152.06,-52.72 137.5,-48 119.29,-42.1 60.43,-49.49 42.04,-38.51"/>
<polygon fill="#5b00c0" stroke="#5b00c0" points="44.89,-36.47 36.5,-30 39.02,-40.29 44.89,-36.47"/>
<text text-anchor="middle" x="178" y="-51.8" font-family="Times,serif" font-size="14.00" fill="#5b00c0">rw</text>
</g>
<!-- T3879 -->
<g id="node3" class="node">
<title>T3879</title>
<polygon fill="none" stroke="#0058ad" points="169,-0.5 169,-29.5 394,-29.5 394,-0.5 169,-0.5"/>
<text text-anchor="middle" x="206" y="-11.3" font-family="Times,serif" font-size="14.00" fill="#0058ad">w 154 1</text>
<polyline fill="none" stroke="#0058ad" points="243,-0.5 243,-29.5 "/>
<text text-anchor="middle" x="280" y="-11.3" font-family="Times,serif" font-size="14.00" fill="#0058ad">w 154 2</text>
<polyline fill="none" stroke="#0058ad" points="317,-0.5 317,-29.5 "/>
<text text-anchor="middle" x="355.5" y="-11.3" font-family="Times,serif" font-size="14.00" fill="#0058ad">r 153 nil</text>
</g>
<!-- T3878&#45;&gt;T3879 -->
<g id="edge2" class="edge">
<title>T3878:f2&#45;&gt;T3879:f1</title>
<path fill="none" stroke="#5b00c0" d="M274.5,-81C274.5,-62.14 277.93,-55.16 279.11,-40.38"/>
<polygon fill="#5b00c0" stroke="#5b00c0" points="282.62,-40.13 279.5,-30 275.62,-39.86 282.62,-40.13"/>
<text text-anchor="middle" x="287" y="-51.8" font-family="Times,serif" font-size="14.00" fill="#5b00c0">rw</text>
</g>
<!-- T3885&#45;&gt;T3878 -->
<g id="edge3" class="edge">
<title>T3885:f1&#45;&gt;T3878:f0</title>
<path fill="none" stroke="#5b00c0" d="M112.5,-30C112.5,-34.21 114.15,-57.14 115,-71"/>
<polygon fill="#5b00c0" stroke="#5b00c0" points="111.51,-71.19 115.5,-81 118.5,-70.84 111.51,-71.19"/>
<text text-anchor="middle" x="123" y="-51.8" font-family="Times,serif" font-size="14.00" fill="#5b00c0">rw</text>
</g>
<!-- T3879&#45;&gt;T3878 -->
<g id="edge4" class="edge">
<title>T3879:f2&#45;&gt;T3878:f0</title>
<path fill="none" stroke="#5b00c0" d="M355.5,-30C355.5,-53.24 275.25,-43.28 252.5,-48 251.7,-48.17 156.5,-70.43 125.29,-78.3"/>
<polygon fill="#5b00c0" stroke="#5b00c0" points="124.21,-74.97 115.5,-81 126.07,-81.72 124.21,-74.97"/>
<text text-anchor="middle" x="262" y="-51.8" font-family="Times,serif" font-size="14.00" fill="#5b00c0">rw</text>
</g>
</g>
</svg>
