<?xml version="1.0" encoding="UTF-8" standalone="no"?>
<!DOCTYPE svg PUBLIC "-//W3C//DTD SVG 1.1//EN"
 "http://www.w3.org/Graphics/SVG/1.1/DTD/svg11.dtd">
<!-- Generated by graphviz version 2.43.0 (0)
 -->
<!-- Title: a_graph Pages: 1 -->
<svg width="461pt" height="605pt"
 viewBox="0.00 0.00 460.50 605.00" xmlns="http://www.w3.org/2000/svg" xmlns:xlink="http://www.w3.org/1999/xlink">
<g id="graph0" class="graph" transform="scale(1 1) rotate(0) translate(4 601)">
<title>a_graph</title>
<polygon fill="white" stroke="transparent" points="-4,4 -4,-601 456.5,-601 456.5,4 -4,4"/>
<!-- T2463 -->
<g id="node1" class="node">
<title>T2463</title>
<polygon fill="none" stroke="#0058ad" points="76,-567.5 76,-596.5 271,-596.5 271,-567.5 76,-567.5"/>
<text text-anchor="middle" x="108.5" y="-578.3" font-family="Times,serif" font-size="14.00" fill="#0058ad">w 99 3</text>
<polyline fill="none" stroke="#0058ad" points="141,-567.5 141,-596.5 "/>
<text text-anchor="middle" x="173.5" y="-578.3" font-family="Times,serif" font-size="14.00" fill="#0058ad">w 99 4</text>
<polyline fill="none" stroke="#0058ad" points="206,-567.5 206,-596.5 "/>
<text text-anchor="middle" x="238.5" y="-578.3" font-family="Times,serif" font-size="14.00" fill="#0058ad">w 99 5</text>
</g>
<!-- T2467 -->
<g id="node2" class="node">
<title>T2467</title>
<polygon fill="none" stroke="#0058ad" points="149.5,-486.5 149.5,-515.5 267.5,-515.5 267.5,-486.5 149.5,-486.5"/>
<text text-anchor="middle" x="179" y="-497.3" font-family="Times,serif" font-size="14.00" fill="#0058ad">r 81 8</text>
<polyline fill="none" stroke="#0058ad" points="208.5,-486.5 208.5,-515.5 "/>
<text text-anchor="middle" x="238" y="-497.3" font-family="Times,serif" font-size="14.00" fill="#0058ad">r 99 5</text>
</g>
<!-- T2463&#45;&gt;T2467 -->
<g id="edge1" class="edge">
<title>T2463:f2&#45;&gt;T2467:f1</title>
<path fill="none" stroke="#c000a5" d="M238.5,-567C238.5,-548.23 238.5,-541.12 238.5,-526.35"/>
<polygon fill="#c000a5" stroke="#c000a5" points="242,-526 238.5,-516 235,-526 242,-526"/>
<text text-anchor="middle" x="248" y="-537.8" font-family="Times,serif" font-size="14.00" fill="#c000a5">wr</text>
</g>
<!-- T2473 -->
<g id="node4" class="node">
<title>T2473</title>
<polygon fill="none" stroke="#0058ad" points="83.5,-405.5 83.5,-434.5 343.5,-434.5 343.5,-405.5 83.5,-405.5"/>
<text text-anchor="middle" x="113" y="-416.3" font-family="Times,serif" font-size="14.00" fill="#0058ad">r 99 5</text>
<polyline fill="none" stroke="#0058ad" points="142.5,-405.5 142.5,-434.5 "/>
<text text-anchor="middle" x="175" y="-416.3" font-family="Times,serif" font-size="14.00" fill="#0058ad">w 99 7</text>
<polyline fill="none" stroke="#0058ad" points="207.5,-405.5 207.5,-434.5 "/>
<text text-anchor="middle" x="241.5" y="-416.3" font-family="Times,serif" font-size="14.00" fill="#0058ad">r 97 nil</text>
<polyline fill="none" stroke="#0058ad" points="275.5,-405.5 275.5,-434.5 "/>
<text text-anchor="middle" x="309.5" y="-416.3" font-family="Times,serif" font-size="14.00" fill="#0058ad">r 97 nil</text>
</g>
<!-- T2463&#45;&gt;T2473 -->
<g id="edge2" class="edge">
<title>T2463:f2&#45;&gt;T2473:f0</title>
<path fill="none" stroke="#c000a5" d="M238.5,-567C238.5,-510.27 155.16,-561.66 121.5,-516 102.11,-489.69 110.38,-474.4 112.19,-445.05"/>
<polygon fill="#c000a5" stroke="#c000a5" points="115.69,-445.1 112.5,-435 108.69,-444.89 115.69,-445.1"/>
<text text-anchor="middle" x="131" y="-497.3" font-family="Times,serif" font-size="14.00" fill="#c000a5">wr</text>
</g>
<!-- T2467&#45;&gt;T2473 -->
<g id="edge3" class="edge">
<title>T2467:f1&#45;&gt;T2473:f1</title>
<path fill="none" stroke="#5b00c0" d="M238.5,-486C238.5,-453.61 187.73,-467.31 176.63,-445"/>
<polygon fill="#5b00c0" stroke="#5b00c0" points="180.01,-444.05 174.5,-435 173.16,-445.51 180.01,-444.05"/>
<text text-anchor="middle" x="237" y="-456.8" font-family="Times,serif" font-size="14.00" fill="#5b00c0">rw</text>
</g>
<!-- T2469 -->
<g id="node3" class="node">
<title>T2469</title>
<polygon fill="none" stroke="#0058ad" points="142,-243.5 142,-272.5 269,-272.5 269,-243.5 142,-243.5"/>
<text text-anchor="middle" x="176" y="-254.3" font-family="Times,serif" font-size="14.00" fill="#0058ad">r 98 nil</text>
<polyline fill="none" stroke="#0058ad" points="210,-243.5 210,-272.5 "/>
<text text-anchor="middle" x="239.5" y="-254.3" font-family="Times,serif" font-size="14.00" fill="#0058ad">r 97 3</text>
</g>
<!-- T2457 -->
<g id="node6" class="node">
<title>T2457</title>
<polygon fill="none" stroke="#0058ad" points="0,-162.5 0,-191.5 269,-191.5 269,-162.5 0,-162.5"/>
<text text-anchor="middle" x="34" y="-173.3" font-family="Times,serif" font-size="14.00" fill="#0058ad">r 96 12</text>
<polyline fill="none" stroke="#0058ad" points="68,-162.5 68,-191.5 "/>
<text text-anchor="middle" x="100.5" y="-173.3" font-family="Times,serif" font-size="14.00" fill="#0058ad">w 98 1</text>
<polyline fill="none" stroke="#0058ad" points="133,-162.5 133,-191.5 "/>
<text text-anchor="middle" x="167" y="-173.3" font-family="Times,serif" font-size="14.00" fill="#0058ad">r 99 nil</text>
<polyline fill="none" stroke="#0058ad" points="201,-162.5 201,-191.5 "/>
<text text-anchor="middle" x="235" y="-173.3" font-family="Times,serif" font-size="14.00" fill="#0058ad">r 99 nil</text>
</g>
<!-- T2469&#45;&gt;T2457 -->
<g id="edge4" class="edge">
<title>T2469:f0&#45;&gt;T2457:f1</title>
<path fill="none" stroke="#5b00c0" d="M175.5,-243C175.5,-217.11 148.94,-224.51 127.5,-210 119.48,-204.57 110.05,-204.82 104.72,-201.2"/>
<polygon fill="#5b00c0" stroke="#5b00c0" points="107.85,-199.63 100.5,-192 101.49,-202.55 107.85,-199.63"/>
<text text-anchor="middle" x="176" y="-213.8" font-family="Times,serif" font-size="14.00" fill="#5b00c0">rw</text>
</g>
<!-- T2461 -->
<g id="node5" class="node">
<title>T2461</title>
<polygon fill="none" stroke="#0058ad" points="142,-324.5 142,-353.5 343,-353.5 343,-324.5 142,-324.5"/>
<text text-anchor="middle" x="176" y="-335.3" font-family="Times,serif" font-size="14.00" fill="#0058ad">r 98 nil</text>
<polyline fill="none" stroke="#0058ad" points="210,-324.5 210,-353.5 "/>
<text text-anchor="middle" x="242.5" y="-335.3" font-family="Times,serif" font-size="14.00" fill="#0058ad">w 97 3</text>
<polyline fill="none" stroke="#0058ad" points="275,-324.5 275,-353.5 "/>
<text text-anchor="middle" x="309" y="-335.3" font-family="Times,serif" font-size="14.00" fill="#0058ad">r 86 13</text>
</g>
<!-- T2473&#45;&gt;T2461 -->
<g id="edge5" class="edge">
<title>T2473:f2&#45;&gt;T2461:f1</title>
<path fill="none" stroke="#5b00c0" d="M241.5,-405C241.5,-386.23 242.19,-379.12 242.42,-364.35"/>
<polygon fill="#5b00c0" stroke="#5b00c0" points="245.92,-364.03 242.5,-354 238.92,-363.97 245.92,-364.03"/>
<text text-anchor="middle" x="251" y="-375.8" font-family="Times,serif" font-size="14.00" fill="#5b00c0">rw</text>
</g>
<!-- T2461&#45;&gt;T2469 -->
<g id="edge6" class="edge">
<title>T2461:f1&#45;&gt;T2469:f1</title>
<path fill="none" stroke="#c000a5" d="M242.5,-324C242.5,-305.2 240.44,-298.13 239.74,-283.36"/>
<polygon fill="#c000a5" stroke="#c000a5" points="243.23,-282.92 239.5,-273 236.23,-283.08 243.23,-282.92"/>
<text text-anchor="middle" x="251" y="-294.8" font-family="Times,serif" font-size="14.00" fill="#c000a5">wr</text>
</g>
<!-- T2461&#45;&gt;T2457 -->
<g id="edge7" class="edge">
<title>T2461:f0&#45;&gt;T2457:f1</title>
<path fill="none" stroke="#5b00c0" d="M140.5,-339C114.24,-339 103.83,-329.18 91.5,-306 88.37,-300.11 91.2,-297.66 91.5,-291 91.92,-281.78 97.93,-226.51 99.89,-202.17"/>
<polygon fill="#5b00c0" stroke="#5b00c0" points="103.39,-202.19 100.5,-192 96.4,-201.77 103.39,-202.19"/>
<text text-anchor="middle" x="106" y="-254.3" font-family="Times,serif" font-size="14.00" fill="#5b00c0">rw</text>
</g>
<!-- T2457&#45;&gt;T2463 -->
<g id="edge9" class="edge">
<title>T2457:f2&#45;&gt;T2463:f2</title>
<path fill="none" stroke="#5b00c0" d="M167.5,-192C167.5,-223.37 278.38,-198.35 307.5,-210 340.26,-223.11 371.5,-221.71 371.5,-257 371.5,-502 371.5,-502 371.5,-502 371.5,-555.15 334.05,-579.04 282.61,-581.74"/>
<polygon fill="#5b00c0" stroke="#5b00c0" points="282.41,-578.24 272.5,-582 282.59,-585.24 282.41,-578.24"/>
<text text-anchor="middle" x="381" y="-375.8" font-family="Times,serif" font-size="14.00" fill="#5b00c0">rw</text>
</g>
<!-- T2457&#45;&gt;T2473 -->
<g id="edge11" class="edge">
<title>T2457:f2&#45;&gt;T2473:f1</title>
<path fill="none" stroke="#5b00c0" d="M167.5,-192C167.5,-211.49 138.09,-193.63 127.5,-210 92.73,-263.78 109.71,-294.15 132.5,-354 141.56,-377.8 166.49,-376.59 172.95,-395"/>
<polygon fill="#5b00c0" stroke="#5b00c0" points="169.51,-395.65 174.5,-405 176.43,-394.58 169.51,-395.65"/>
<text text-anchor="middle" x="124" y="-294.8" font-family="Times,serif" font-size="14.00" fill="#5b00c0">rw</text>
</g>
<!-- T2466 -->
<g id="node7" class="node">
<title>T2466</title>
<polygon fill="none" stroke="#0058ad" points="137,-81.5 137,-110.5 202,-110.5 202,-81.5 137,-81.5"/>
<text text-anchor="middle" x="169.5" y="-92.3" font-family="Times,serif" font-size="14.00" fill="#0058ad">w 99 6</text>
</g>
<!-- T2457&#45;&gt;T2466 -->
<g id="edge8" class="edge">
<title>T2457:f2&#45;&gt;T2466:f0</title>
<path fill="none" stroke="#5b00c0" d="M167.5,-162C167.5,-148.35 167.93,-133.11 168.4,-120.72"/>
<polygon fill="#5b00c0" stroke="#5b00c0" points="171.9,-120.81 168.8,-110.68 164.9,-120.53 171.9,-120.81"/>
<text text-anchor="middle" x="178" y="-132.8" font-family="Times,serif" font-size="14.00" fill="#5b00c0">rw</text>
</g>
<!-- T2493 -->
<g id="node8" class="node">
<title>T2493</title>
<polygon fill="none" stroke="#0058ad" points="242.5,-81.5 242.5,-110.5 452.5,-110.5 452.5,-81.5 242.5,-81.5"/>
<text text-anchor="middle" x="276.5" y="-92.3" font-family="Times,serif" font-size="14.00" fill="#0058ad">r 97 nil</text>
<polyline fill="none" stroke="#0058ad" points="310.5,-81.5 310.5,-110.5 "/>
<text text-anchor="middle" x="347.5" y="-92.3" font-family="Times,serif" font-size="14.00" fill="#0058ad">w 99 13</text>
<polyline fill="none" stroke="#0058ad" points="384.5,-81.5 384.5,-110.5 "/>
<text text-anchor="middle" x="418.5" y="-92.3" font-family="Times,serif" font-size="14.00" fill="#0058ad">r 97 nil</text>
</g>
<!-- T2457&#45;&gt;T2493 -->
<g id="edge10" class="edge">
<title>T2457:f2&#45;&gt;T2493:f1</title>
<path fill="none" stroke="#5b00c0" d="M167.5,-162C167.5,-150.62 253.53,-132.04 264.5,-129 279.28,-124.9 324.83,-128.04 341.4,-119.24"/>
<polygon fill="#5b00c0" stroke="#5b00c0" points="344.36,-121.12 347.5,-111 338.74,-116.95 344.36,-121.12"/>
<text text-anchor="middle" x="274" y="-132.8" font-family="Times,serif" font-size="14.00" fill="#5b00c0">rw</text>
</g>
<!-- T2472 -->
<g id="node9" class="node">
<title>T2472</title>
<polygon fill="none" stroke="#0058ad" points="8,-0.5 8,-29.5 191,-29.5 191,-0.5 8,-0.5"/>
<text text-anchor="middle" x="36" y="-11.3" font-family="Times,serif" font-size="14.00" fill="#0058ad">w 2 5</text>
<polyline fill="none" stroke="#0058ad" points="64,-0.5 64,-29.5 "/>
<text text-anchor="middle" x="93.5" y="-11.3" font-family="Times,serif" font-size="14.00" fill="#0058ad">r 99 6</text>
<polyline fill="none" stroke="#0058ad" points="123,-0.5 123,-29.5 "/>
<text text-anchor="middle" x="157" y="-11.3" font-family="Times,serif" font-size="14.00" fill="#0058ad">r 98 nil</text>
</g>
<!-- T2466&#45;&gt;T2472 -->
<g id="edge12" class="edge">
<title>T2466:f0&#45;&gt;T2472:f1</title>
<path fill="none" stroke="#c000a5" d="M152.25,-81.3C136.14,-67.53 112.84,-47.55 101,-37.05"/>
<polygon fill="#c000a5" stroke="#c000a5" points="103.19,-34.29 93.5,-30 98.39,-39.4 103.19,-34.29"/>
<text text-anchor="middle" x="139" y="-51.8" font-family="Times,serif" font-size="14.00" fill="#c000a5">wr</text>
</g>
<!-- T2493&#45;&gt;T2461 -->
<g id="edge13" class="edge">
<title>T2493:f0&#45;&gt;T2461:f1</title>
<path fill="none" stroke="#5b00c0" d="M276.5,-111C276.5,-119.58 281.92,-120.56 283.5,-129 284.73,-135.55 283.63,-137.33 283.5,-144 282.39,-201.37 291.02,-217.01 278.5,-273 275.02,-288.55 274.05,-293.25 264.5,-306 259.88,-312.16 252.72,-312.81 247.83,-315.23"/>
<polygon fill="#5b00c0" stroke="#5b00c0" points="244.71,-313.64 242.5,-324 250.69,-317.27 244.71,-313.64"/>
<text text-anchor="middle" x="294" y="-213.8" font-family="Times,serif" font-size="14.00" fill="#5b00c0">rw</text>
</g>
<!-- T2472&#45;&gt;T2457 -->
<g id="edge14" class="edge">
<title>T2472:f2&#45;&gt;T2457:f1</title>
<path fill="none" stroke="#5b00c0" d="M157.5,-30C157.5,-51.13 126.56,-31.39 113.5,-48 84.13,-85.34 98.2,-107.79 100.26,-151.92"/>
<polygon fill="#5b00c0" stroke="#5b00c0" points="96.77,-152.09 100.5,-162 103.76,-151.92 96.77,-152.09"/>
<text text-anchor="middle" x="107" y="-92.3" font-family="Times,serif" font-size="14.00" fill="#5b00c0">rw</text>
</g>
</g>
</svg>
