<?xml version="1.0" encoding="UTF-8" standalone="no"?>
<!DOCTYPE svg PUBLIC "-//W3C//DTD SVG 1.1//EN"
 "http://www.w3.org/Graphics/SVG/1.1/DTD/svg11.dtd">
<!-- Generated by graphviz version 2.43.0 (0)
 -->
<!-- Title: a_graph Pages: 1 -->
<svg width="803pt" height="362pt"
 viewBox="0.00 0.00 803.00 362.00" xmlns="http://www.w3.org/2000/svg" xmlns:xlink="http://www.w3.org/1999/xlink">
<g id="graph0" class="graph" transform="scale(1 1) rotate(0) translate(4 358)">
<title>a_graph</title>
<polygon fill="white" stroke="transparent" points="-4,4 -4,-358 799,-358 799,4 -4,4"/>
<!-- T29029 -->
<g id="node1" class="node">
<title>T29029</title>
<polygon fill="none" stroke="#0058ad" points="251.5,-324.5 251.5,-353.5 491.5,-353.5 491.5,-324.5 251.5,-324.5"/>
<text text-anchor="middle" x="294.5" y="-335.3" font-family="Times,serif" font-size="14.00" fill="#0058ad">r 1099 11</text>
<polyline fill="none" stroke="#0058ad" points="337.5,-324.5 337.5,-353.5 "/>
<text text-anchor="middle" x="376" y="-335.3" font-family="Times,serif" font-size="14.00" fill="#0058ad">r 1101 2</text>
<polyline fill="none" stroke="#0058ad" points="414.5,-324.5 414.5,-353.5 "/>
<text text-anchor="middle" x="453" y="-335.3" font-family="Times,serif" font-size="14.00" fill="#0058ad">r 1101 2</text>
</g>
<!-- T29031 -->
<g id="node4" class="node">
<title>T29031</title>
<polygon fill="none" stroke="#0058ad" points="0,-243.5 0,-272.5 347,-272.5 347,-243.5 0,-243.5"/>
<text text-anchor="middle" x="43" y="-254.3" font-family="Times,serif" font-size="14.00" fill="#0058ad">r 1099 11</text>
<polyline fill="none" stroke="#0058ad" points="86,-243.5 86,-272.5 "/>
<text text-anchor="middle" x="132" y="-254.3" font-family="Times,serif" font-size="14.00" fill="#0058ad">w 1099 12</text>
<polyline fill="none" stroke="#0058ad" points="178,-243.5 178,-272.5 "/>
<text text-anchor="middle" x="216.5" y="-254.3" font-family="Times,serif" font-size="14.00" fill="#0058ad">r 1101 2</text>
<polyline fill="none" stroke="#0058ad" points="255,-243.5 255,-272.5 "/>
<text text-anchor="middle" x="301" y="-254.3" font-family="Times,serif" font-size="14.00" fill="#0058ad">w 1099 13</text>
</g>
<!-- T29029&#45;&gt;T29031 -->
<g id="edge1" class="edge">
<title>T29029:f0&#45;&gt;T29031:f3</title>
<path fill="none" stroke="#5b00c0" d="M294.5,-324C294.5,-304.87 299.39,-298.07 301,-282.99"/>
<polygon fill="#5b00c0" stroke="#5b00c0" points="304.49,-283.16 301.5,-273 297.5,-282.81 304.49,-283.16"/>
<text text-anchor="middle" x="310" y="-294.8" font-family="Times,serif" font-size="14.00" fill="#5b00c0">rw</text>
</g>
<!-- T29039 -->
<g id="node2" class="node">
<title>T29039</title>
<polygon fill="none" stroke="#0058ad" points="412,-162.5 412,-191.5 747,-191.5 747,-162.5 412,-162.5"/>
<text text-anchor="middle" x="455" y="-173.3" font-family="Times,serif" font-size="14.00" fill="#0058ad">r 1099 13</text>
<polyline fill="none" stroke="#0058ad" points="498,-162.5 498,-191.5 "/>
<text text-anchor="middle" x="541" y="-173.3" font-family="Times,serif" font-size="14.00" fill="#0058ad">r 1102 nil</text>
<polyline fill="none" stroke="#0058ad" points="584,-162.5 584,-191.5 "/>
<text text-anchor="middle" x="627" y="-173.3" font-family="Times,serif" font-size="14.00" fill="#0058ad">r 1099 13</text>
<polyline fill="none" stroke="#0058ad" points="670,-162.5 670,-191.5 "/>
<text text-anchor="middle" x="708.5" y="-173.3" font-family="Times,serif" font-size="14.00" fill="#0058ad">r 1101 4</text>
</g>
<!-- T29027 -->
<g id="node5" class="node">
<title>T29027</title>
<polygon fill="none" stroke="#0058ad" points="413,-81.5 413,-110.5 582,-110.5 582,-81.5 413,-81.5"/>
<text text-anchor="middle" x="456" y="-92.3" font-family="Times,serif" font-size="14.00" fill="#0058ad">r 1101 nil</text>
<polyline fill="none" stroke="#0058ad" points="499,-81.5 499,-110.5 "/>
<text text-anchor="middle" x="540.5" y="-92.3" font-family="Times,serif" font-size="14.00" fill="#0058ad">w 1102 1</text>
</g>
<!-- T29039&#45;&gt;T29027 -->
<g id="edge2" class="edge">
<title>T29039:f1&#45;&gt;T29027:f1</title>
<path fill="none" stroke="#5b00c0" d="M540.5,-162C540.5,-143.23 540.5,-136.12 540.5,-121.35"/>
<polygon fill="#5b00c0" stroke="#5b00c0" points="544,-121 540.5,-111 537,-121 544,-121"/>
<text text-anchor="middle" x="550" y="-132.8" font-family="Times,serif" font-size="14.00" fill="#5b00c0">rw</text>
</g>
<!-- T29038 -->
<g id="node3" class="node">
<title>T29038</title>
<polygon fill="none" stroke="#0058ad" points="466,-0.5 466,-29.5 795,-29.5 795,-0.5 466,-0.5"/>
<text text-anchor="middle" x="509" y="-11.3" font-family="Times,serif" font-size="14.00" fill="#0058ad">r 1084 15</text>
<polyline fill="none" stroke="#0058ad" points="552,-0.5 552,-29.5 "/>
<text text-anchor="middle" x="593.5" y="-11.3" font-family="Times,serif" font-size="14.00" fill="#0058ad">w 1101 3</text>
<polyline fill="none" stroke="#0058ad" points="635,-0.5 635,-29.5 "/>
<text text-anchor="middle" x="676.5" y="-11.3" font-family="Times,serif" font-size="14.00" fill="#0058ad">w 1101 4</text>
<polyline fill="none" stroke="#0058ad" points="718,-0.5 718,-29.5 "/>
<text text-anchor="middle" x="756.5" y="-11.3" font-family="Times,serif" font-size="14.00" fill="#0058ad">r 1101 4</text>
</g>
<!-- T29038&#45;&gt;T29039 -->
<g id="edge3" class="edge">
<title>T29038:f2&#45;&gt;T29039:f3</title>
<path fill="none" stroke="#c000a5" d="M676.5,-30C676.5,-57.12 702.33,-117.69 707.58,-151.61"/>
<polygon fill="#c000a5" stroke="#c000a5" points="704.13,-152.35 708.5,-162 711.1,-151.73 704.13,-152.35"/>
<text text-anchor="middle" x="706" y="-92.3" font-family="Times,serif" font-size="14.00" fill="#c000a5">wr</text>
</g>
<!-- T29031&#45;&gt;T29039 -->
<g id="edge4" class="edge">
<title>T29031:f3&#45;&gt;T29039:f0</title>
<path fill="none" stroke="#c000a5" d="M348.5,-258C400.42,-258 447.97,-248.81 453.88,-202.18"/>
<polygon fill="#c000a5" stroke="#c000a5" points="457.39,-202.19 454.5,-192 450.4,-201.77 457.39,-202.19"/>
<text text-anchor="middle" x="461" y="-213.8" font-family="Times,serif" font-size="14.00" fill="#c000a5">wr</text>
</g>
<!-- T29027&#45;&gt;T29038 -->
<g id="edge6" class="edge">
<title>T29027:f0&#45;&gt;T29038:f2</title>
<path fill="none" stroke="#5b00c0" d="M455.5,-81C455.5,-34.34 644.91,-73.56 673.03,-39.65"/>
<polygon fill="#5b00c0" stroke="#5b00c0" points="676.41,-40.59 676.5,-30 669.82,-38.22 676.41,-40.59"/>
<text text-anchor="middle" x="667" y="-51.8" font-family="Times,serif" font-size="14.00" fill="#5b00c0">rw</text>
</g>
<!-- T29025 -->
<g id="node6" class="node">
<title>T29025</title>
<polygon fill="none" stroke="#0058ad" points="333,-0.5 333,-29.5 416,-29.5 416,-0.5 333,-0.5"/>
<text text-anchor="middle" x="374.5" y="-11.3" font-family="Times,serif" font-size="14.00" fill="#0058ad">w 1101 2</text>
</g>
<!-- T29027&#45;&gt;T29025 -->
<g id="edge5" class="edge">
<title>T29027:f0&#45;&gt;T29025:f0</title>
<path fill="none" stroke="#5b00c0" d="M455.5,-81C455.5,-60.42 439.6,-45.12 421.88,-34.46"/>
<polygon fill="#5b00c0" stroke="#5b00c0" points="423.55,-31.38 413.1,-29.6 420.15,-37.51 423.55,-31.38"/>
<text text-anchor="middle" x="459" y="-51.8" font-family="Times,serif" font-size="14.00" fill="#5b00c0">rw</text>
</g>
<!-- T29025&#45;&gt;T29029 -->
<g id="edge7" class="edge">
<title>T29025:f0&#45;&gt;T29029:f1</title>
<path fill="none" stroke="#c000a5" d="M374.5,-29.74C374.5,-45.8 374.5,-72.22 374.5,-95 374.5,-259 374.5,-259 374.5,-259 374.5,-284.18 376.02,-292.88 376.41,-313.81"/>
<polygon fill="#c000a5" stroke="#c000a5" points="372.91,-314.03 376.5,-324 379.91,-313.97 372.91,-314.03"/>
<text text-anchor="middle" x="384" y="-173.3" font-family="Times,serif" font-size="14.00" fill="#c000a5">wr</text>
</g>
<!-- T29025&#45;&gt;T29031 -->
<g id="edge8" class="edge">
<title>T29025:f0&#45;&gt;T29031:f2</title>
<path fill="none" stroke="#c000a5" d="M354.49,-29.62C313.47,-61.39 223.15,-141.28 216.85,-232.94"/>
<polygon fill="#c000a5" stroke="#c000a5" points="213.35,-232.89 216.5,-243 220.34,-233.13 213.35,-232.89"/>
<text text-anchor="middle" x="267" y="-132.8" font-family="Times,serif" font-size="14.00" fill="#c000a5">wr</text>
</g>
</g>
</svg>
