<?xml version="1.0" encoding="UTF-8" standalone="no"?>
<!DOCTYPE svg PUBLIC "-//W3C//DTD SVG 1.1//EN"
 "http://www.w3.org/Graphics/SVG/1.1/DTD/svg11.dtd">
<!-- Generated by graphviz version 2.43.0 (0)
 -->
<!-- Title: a_graph Pages: 1 -->
<svg width="301pt" height="119pt"
 viewBox="0.00 0.00 301.00 119.00" xmlns="http://www.w3.org/2000/svg" xmlns:xlink="http://www.w3.org/1999/xlink">
<g id="graph0" class="graph" transform="scale(1 1) rotate(0) translate(4 115)">
<title>a_graph</title>
<polygon fill="white" stroke="transparent" points="-4,4 -4,-115 297,-115 297,4 -4,4"/>
<!-- T19174 -->
<g id="node1" class="node">
<title>T19174</title>
<polygon fill="none" stroke="#0058ad" points="74,-81.5 74,-110.5 293,-110.5 293,-81.5 74,-81.5"/>
<text text-anchor="middle" x="108" y="-92.3" font-family="Times,serif" font-size="14.00" fill="#0058ad">r 732 6</text>
<polyline fill="none" stroke="#0058ad" points="142,-81.5 142,-110.5 "/>
<text text-anchor="middle" x="180.5" y="-92.3" font-family="Times,serif" font-size="14.00" fill="#0058ad">r 735 nil</text>
<polyline fill="none" stroke="#0058ad" points="219,-81.5 219,-110.5 "/>
<text text-anchor="middle" x="256" y="-92.3" font-family="Times,serif" font-size="14.00" fill="#0058ad">w 735 1</text>
</g>
<!-- T19176 -->
<g id="node2" class="node">
<title>T19176</title>
<polygon fill="none" stroke="#0058ad" points="0,-0.5 0,-29.5 293,-29.5 293,-0.5 0,-0.5"/>
<text text-anchor="middle" x="34" y="-11.3" font-family="Times,serif" font-size="14.00" fill="#0058ad">r 732 4</text>
<polyline fill="none" stroke="#0058ad" points="68,-0.5 68,-29.5 "/>
<text text-anchor="middle" x="105" y="-11.3" font-family="Times,serif" font-size="14.00" fill="#0058ad">w 732 7</text>
<polyline fill="none" stroke="#0058ad" points="142,-0.5 142,-29.5 "/>
<text text-anchor="middle" x="180.5" y="-11.3" font-family="Times,serif" font-size="14.00" fill="#0058ad">r 735 nil</text>
<polyline fill="none" stroke="#0058ad" points="219,-0.5 219,-29.5 "/>
<text text-anchor="middle" x="256" y="-11.3" font-family="Times,serif" font-size="14.00" fill="#0058ad">w 735 2</text>
</g>
<!-- T19174&#45;&gt;T19176 -->
<g id="edge1" class="edge">
<title>T19174:f1&#45;&gt;T19176:f3</title>
<path fill="none" stroke="#5b00c0" d="M180.5,-81C180.5,-62.33 191.35,-58.92 206.5,-48 221.92,-36.89 244.9,-47.3 253.29,-39.48"/>
<polygon fill="#5b00c0" stroke="#5b00c0" points="256.61,-40.59 256.5,-30 249.98,-38.35 256.61,-40.59"/>
<text text-anchor="middle" x="216" y="-51.8" font-family="Times,serif" font-size="14.00" fill="#5b00c0">rw</text>
</g>
<!-- T19176&#45;&gt;T19174 -->
<g id="edge2" class="edge">
<title>T19176:f2&#45;&gt;T19174:f2</title>
<path fill="none" stroke="#5b00c0" d="M180.5,-30C180.5,-51.54 207.7,-35.86 225.5,-48 238.75,-57.04 250.57,-59.85 254.82,-70.8"/>
<polygon fill="#5b00c0" stroke="#5b00c0" points="251.42,-71.7 256.5,-81 258.33,-70.56 251.42,-71.7"/>
<text text-anchor="middle" x="258" y="-51.8" font-family="Times,serif" font-size="14.00" fill="#5b00c0">rw</text>
</g>
</g>
</svg>
