<?xml version="1.0" encoding="UTF-8" standalone="no"?>
<!DOCTYPE svg PUBLIC "-//W3C//DTD SVG 1.1//EN"
 "http://www.w3.org/Graphics/SVG/1.1/DTD/svg11.dtd">
<!-- Generated by graphviz version 2.43.0 (0)
 -->
<!-- Title: a_graph Pages: 1 -->
<svg width="570pt" height="200pt"
 viewBox="0.00 0.00 570.00 200.00" xmlns="http://www.w3.org/2000/svg" xmlns:xlink="http://www.w3.org/1999/xlink">
<g id="graph0" class="graph" transform="scale(1 1) rotate(0) translate(4 196)">
<title>a_graph</title>
<polygon fill="white" stroke="transparent" points="-4,4 -4,-196 566,-196 566,4 -4,4"/>
<!-- T32274 -->
<g id="node1" class="node">
<title>T32274</title>
<polygon fill="none" stroke="#0058ad" points="230,-162.5 230,-191.5 562,-191.5 562,-162.5 230,-162.5"/>
<text text-anchor="middle" x="268.5" y="-173.3" font-family="Times,serif" font-size="14.00" fill="#0058ad">r 1224 3</text>
<polyline fill="none" stroke="#0058ad" points="307,-162.5 307,-191.5 "/>
<text text-anchor="middle" x="348.5" y="-173.3" font-family="Times,serif" font-size="14.00" fill="#0058ad">w 1213 8</text>
<polyline fill="none" stroke="#0058ad" points="390,-162.5 390,-191.5 "/>
<text text-anchor="middle" x="433" y="-173.3" font-family="Times,serif" font-size="14.00" fill="#0058ad">r 1225 nil</text>
<polyline fill="none" stroke="#0058ad" points="476,-162.5 476,-191.5 "/>
<text text-anchor="middle" x="519" y="-173.3" font-family="Times,serif" font-size="14.00" fill="#0058ad">r 1220 16</text>
</g>
<!-- T32288 -->
<g id="node2" class="node">
<title>T32288</title>
<polygon fill="none" stroke="#0058ad" points="305.5,-81.5 305.5,-110.5 474.5,-110.5 474.5,-81.5 305.5,-81.5"/>
<text text-anchor="middle" x="348.5" y="-92.3" font-family="Times,serif" font-size="14.00" fill="#0058ad">r 1224 nil</text>
<polyline fill="none" stroke="#0058ad" points="391.5,-81.5 391.5,-110.5 "/>
<text text-anchor="middle" x="433" y="-92.3" font-family="Times,serif" font-size="14.00" fill="#0058ad">w 1225 7</text>
</g>
<!-- T32274&#45;&gt;T32288 -->
<g id="edge1" class="edge">
<title>T32274:f2&#45;&gt;T32288:f1</title>
<path fill="none" stroke="#5b00c0" d="M433,-162C433,-143.23 433,-136.12 433,-121.35"/>
<polygon fill="#5b00c0" stroke="#5b00c0" points="436.5,-121 433,-111 429.5,-121 436.5,-121"/>
<text text-anchor="middle" x="442.5" y="-132.8" font-family="Times,serif" font-size="14.00" fill="#5b00c0">rw</text>
</g>
<!-- T32261 -->
<g id="node3" class="node">
<title>T32261</title>
<polygon fill="none" stroke="#0058ad" points="0,-0.5 0,-29.5 338,-29.5 338,-0.5 0,-0.5"/>
<text text-anchor="middle" x="43" y="-11.3" font-family="Times,serif" font-size="14.00" fill="#0058ad">r 1220 13</text>
<polyline fill="none" stroke="#0058ad" points="86,-0.5 86,-29.5 "/>
<text text-anchor="middle" x="127.5" y="-11.3" font-family="Times,serif" font-size="14.00" fill="#0058ad">w 1224 2</text>
<polyline fill="none" stroke="#0058ad" points="169,-0.5 169,-29.5 "/>
<text text-anchor="middle" x="212" y="-11.3" font-family="Times,serif" font-size="14.00" fill="#0058ad">r 1223 15</text>
<polyline fill="none" stroke="#0058ad" points="255,-0.5 255,-29.5 "/>
<text text-anchor="middle" x="296.5" y="-11.3" font-family="Times,serif" font-size="14.00" fill="#0058ad">w 1224 3</text>
</g>
<!-- T32288&#45;&gt;T32261 -->
<g id="edge2" class="edge">
<title>T32288:f0&#45;&gt;T32261:f3</title>
<path fill="none" stroke="#5b00c0" d="M348,-81C348,-52.83 308.6,-59.54 299.06,-39.82"/>
<polygon fill="#5b00c0" stroke="#5b00c0" points="302.48,-39.07 297,-30 295.63,-40.51 302.48,-39.07"/>
<text text-anchor="middle" x="347.5" y="-51.8" font-family="Times,serif" font-size="14.00" fill="#5b00c0">rw</text>
</g>
<!-- T32261&#45;&gt;T32274 -->
<g id="edge3" class="edge">
<title>T32261:f3&#45;&gt;T32274:f0</title>
<path fill="none" stroke="#c000a5" d="M297,-30C297,-54.19 283.74,-57.5 278,-81 270.26,-112.66 268.36,-123.53 268.05,-151.72"/>
<polygon fill="#c000a5" stroke="#c000a5" points="264.55,-151.98 268,-162 271.55,-152.02 264.55,-151.98"/>
<text text-anchor="middle" x="287.5" y="-92.3" font-family="Times,serif" font-size="14.00" fill="#c000a5">wr</text>
</g>
</g>
</svg>
