<?xml version="1.0" encoding="UTF-8" standalone="no"?>
<!DOCTYPE svg PUBLIC "-//W3C//DTD SVG 1.1//EN"
 "http://www.w3.org/Graphics/SVG/1.1/DTD/svg11.dtd">
<!-- Generated by graphviz version 2.43.0 (0)
 -->
<!-- Title: a_graph Pages: 1 -->
<svg width="412pt" height="362pt"
 viewBox="0.00 0.00 412.00 362.00" xmlns="http://www.w3.org/2000/svg" xmlns:xlink="http://www.w3.org/1999/xlink">
<g id="graph0" class="graph" transform="scale(1 1) rotate(0) translate(4 358)">
<title>a_graph</title>
<polygon fill="white" stroke="transparent" points="-4,4 -4,-358 408,-358 408,4 -4,4"/>
<!-- T7165 -->
<g id="node1" class="node">
<title>T7165</title>
<polygon fill="none" stroke="#0058ad" points="26,-324.5 26,-353.5 328,-353.5 328,-324.5 26,-324.5"/>
<text text-anchor="middle" x="63" y="-335.3" font-family="Times,serif" font-size="14.00" fill="#0058ad">w 276 6</text>
<polyline fill="none" stroke="#0058ad" points="100,-324.5 100,-353.5 "/>
<text text-anchor="middle" x="138.5" y="-335.3" font-family="Times,serif" font-size="14.00" fill="#0058ad">r 277 nil</text>
<polyline fill="none" stroke="#0058ad" points="177,-324.5 177,-353.5 "/>
<text text-anchor="middle" x="215.5" y="-335.3" font-family="Times,serif" font-size="14.00" fill="#0058ad">r 277 nil</text>
<polyline fill="none" stroke="#0058ad" points="254,-324.5 254,-353.5 "/>
<text text-anchor="middle" x="291" y="-335.3" font-family="Times,serif" font-size="14.00" fill="#0058ad">w 277 3</text>
</g>
<!-- T7181 -->
<g id="node2" class="node">
<title>T7181</title>
<polygon fill="none" stroke="#0058ad" points="28.5,-243.5 28.5,-272.5 179.5,-272.5 179.5,-243.5 28.5,-243.5"/>
<text text-anchor="middle" x="62.5" y="-254.3" font-family="Times,serif" font-size="14.00" fill="#0058ad">r 276 5</text>
<polyline fill="none" stroke="#0058ad" points="96.5,-243.5 96.5,-272.5 "/>
<text text-anchor="middle" x="138" y="-254.3" font-family="Times,serif" font-size="14.00" fill="#0058ad">w 277 10</text>
</g>
<!-- T7165&#45;&gt;T7181 -->
<g id="edge1" class="edge">
<title>T7165:f1&#45;&gt;T7181:f1</title>
<path fill="none" stroke="#5b00c0" d="M138,-324C138,-305.23 138,-298.12 138,-283.35"/>
<polygon fill="#5b00c0" stroke="#5b00c0" points="141.5,-283 138,-273 134.5,-283 141.5,-283"/>
<text text-anchor="middle" x="147.5" y="-294.8" font-family="Times,serif" font-size="14.00" fill="#5b00c0">rw</text>
</g>
<!-- T7164 -->
<g id="node4" class="node">
<title>T7164</title>
<polygon fill="none" stroke="#0058ad" points="10,-0.5 10,-29.5 158,-29.5 158,-0.5 10,-0.5"/>
<text text-anchor="middle" x="47" y="-11.3" font-family="Times,serif" font-size="14.00" fill="#0058ad">w 276 5</text>
<polyline fill="none" stroke="#0058ad" points="84,-0.5 84,-29.5 "/>
<text text-anchor="middle" x="121" y="-11.3" font-family="Times,serif" font-size="14.00" fill="#0058ad">w 277 2</text>
</g>
<!-- T7165&#45;&gt;T7164 -->
<g id="edge2" class="edge">
<title>T7165:f1&#45;&gt;T7164:f1</title>
<path fill="none" stroke="#5b00c0" d="M138,-324C138,-256.2 0,-326.8 0,-259 0,-259 0,-259 0,-95 0,-66.39 19.23,-62.32 44,-48 70.63,-32.61 109.61,-57.28 118.94,-40.14"/>
<polygon fill="#5b00c0" stroke="#5b00c0" points="122.44,-40.5 121,-30 115.58,-39.1 122.44,-40.5"/>
<text text-anchor="middle" x="9.5" y="-173.3" font-family="Times,serif" font-size="14.00" fill="#5b00c0">rw</text>
</g>
<!-- T7203 -->
<g id="node3" class="node">
<title>T7203</title>
<polygon fill="none" stroke="#0058ad" points="75,-162.5 75,-191.5 229,-191.5 229,-162.5 75,-162.5"/>
<text text-anchor="middle" x="113.5" y="-173.3" font-family="Times,serif" font-size="14.00" fill="#0058ad">r 277 10</text>
<polyline fill="none" stroke="#0058ad" points="152,-162.5 152,-191.5 "/>
<text text-anchor="middle" x="190.5" y="-173.3" font-family="Times,serif" font-size="14.00" fill="#0058ad">r 275 nil</text>
</g>
<!-- T7181&#45;&gt;T7203 -->
<g id="edge3" class="edge">
<title>T7181:f1&#45;&gt;T7203:f0</title>
<path fill="none" stroke="#c000a5" d="M138,-243C138,-221.7 120.2,-218.01 114.64,-202.21"/>
<polygon fill="#c000a5" stroke="#c000a5" points="118.04,-201.32 113,-192 111.13,-202.43 118.04,-201.32"/>
<text text-anchor="middle" x="141.5" y="-213.8" font-family="Times,serif" font-size="14.00" fill="#c000a5">wr</text>
</g>
<!-- T7162 -->
<g id="node5" class="node">
<title>T7162</title>
<polygon fill="none" stroke="#0058ad" points="108,-81.5 108,-110.5 404,-110.5 404,-81.5 108,-81.5"/>
<text text-anchor="middle" x="145" y="-92.3" font-family="Times,serif" font-size="14.00" fill="#0058ad">w 275 6</text>
<polyline fill="none" stroke="#0058ad" points="182,-81.5 182,-110.5 "/>
<text text-anchor="middle" x="216" y="-92.3" font-family="Times,serif" font-size="14.00" fill="#0058ad">r 276 4</text>
<polyline fill="none" stroke="#0058ad" points="250,-81.5 250,-110.5 "/>
<text text-anchor="middle" x="288.5" y="-92.3" font-family="Times,serif" font-size="14.00" fill="#0058ad">r 277 nil</text>
<polyline fill="none" stroke="#0058ad" points="327,-81.5 327,-110.5 "/>
<text text-anchor="middle" x="365.5" y="-92.3" font-family="Times,serif" font-size="14.00" fill="#0058ad">r 277 nil</text>
</g>
<!-- T7203&#45;&gt;T7162 -->
<g id="edge4" class="edge">
<title>T7203:f1&#45;&gt;T7162:f0</title>
<path fill="none" stroke="#5b00c0" d="M191,-162C191,-135.53 156.41,-139.57 147.22,-121.21"/>
<polygon fill="#5b00c0" stroke="#5b00c0" points="150.54,-120.03 145,-111 143.7,-121.52 150.54,-120.03"/>
<text text-anchor="middle" x="191.5" y="-132.8" font-family="Times,serif" font-size="14.00" fill="#5b00c0">rw</text>
</g>
<!-- T7164&#45;&gt;T7181 -->
<g id="edge5" class="edge">
<title>T7164:f0&#45;&gt;T7181:f0</title>
<path fill="none" stroke="#c000a5" d="M47,-30C47,-121.47 60.94,-146.33 61.94,-232.99"/>
<polygon fill="#c000a5" stroke="#c000a5" points="58.44,-233.02 62,-243 65.44,-232.98 58.44,-233.02"/>
<text text-anchor="middle" x="65.5" y="-132.8" font-family="Times,serif" font-size="14.00" fill="#c000a5">wr</text>
</g>
<!-- T7162&#45;&gt;T7165 -->
<g id="edge6" class="edge">
<title>T7162:f2&#45;&gt;T7165:f3</title>
<path fill="none" stroke="#5b00c0" d="M289,-111C289,-119.75 295.18,-120.44 297,-129 298.38,-135.52 297.07,-137.33 297,-144 296.78,-165.34 296.63,-170.67 296,-192 294.38,-247.13 291.39,-263.36 291.03,-313.8"/>
<polygon fill="#5b00c0" stroke="#5b00c0" points="287.53,-313.99 291,-324 294.53,-314.01 287.53,-313.99"/>
<text text-anchor="middle" x="304.5" y="-213.8" font-family="Times,serif" font-size="14.00" fill="#5b00c0">rw</text>
</g>
<!-- T7162&#45;&gt;T7181 -->
<g id="edge7" class="edge">
<title>T7162:f2&#45;&gt;T7181:f1</title>
<path fill="none" stroke="#5b00c0" d="M289,-111C289,-148.37 231.66,-241.77 190.95,-256.13"/>
<polygon fill="#5b00c0" stroke="#5b00c0" points="190.18,-252.72 181,-258 191.47,-259.6 190.18,-252.72"/>
<text text-anchor="middle" x="282.5" y="-173.3" font-family="Times,serif" font-size="14.00" fill="#5b00c0">rw</text>
</g>
<!-- T7162&#45;&gt;T7164 -->
<g id="edge8" class="edge">
<title>T7162:f2&#45;&gt;T7164:f1</title>
<path fill="none" stroke="#5b00c0" d="M289,-81C289,-19.62 230.49,-15.3 169.24,-15.02"/>
<polygon fill="#5b00c0" stroke="#5b00c0" points="169.01,-11.52 159,-15 168.99,-18.52 169.01,-11.52"/>
<text text-anchor="middle" x="295.5" y="-51.8" font-family="Times,serif" font-size="14.00" fill="#5b00c0">rw</text>
</g>
</g>
</svg>
