<?xml version="1.0" encoding="UTF-8" standalone="no"?>
<!DOCTYPE svg PUBLIC "-//W3C//DTD SVG 1.1//EN"
 "http://www.w3.org/Graphics/SVG/1.1/DTD/svg11.dtd">
<!-- Generated by graphviz version 2.43.0 (0)
 -->
<!-- Title: a_graph Pages: 1 -->
<svg width="510pt" height="443pt"
 viewBox="0.00 0.00 510.00 443.00" xmlns="http://www.w3.org/2000/svg" xmlns:xlink="http://www.w3.org/1999/xlink">
<g id="graph0" class="graph" transform="scale(1 1) rotate(0) translate(4 439)">
<title>a_graph</title>
<polygon fill="white" stroke="transparent" points="-4,4 -4,-439 506,-439 506,4 -4,4"/>
<!-- T28953 -->
<g id="node1" class="node">
<title>T28953</title>
<polygon fill="none" stroke="#0058ad" points="64.5,-405.5 64.5,-434.5 405.5,-434.5 405.5,-405.5 64.5,-405.5"/>
<text text-anchor="middle" x="106" y="-416.3" font-family="Times,serif" font-size="14.00" fill="#0058ad">w 1099 3</text>
<polyline fill="none" stroke="#0058ad" points="147.5,-405.5 147.5,-434.5 "/>
<text text-anchor="middle" x="190.5" y="-416.3" font-family="Times,serif" font-size="14.00" fill="#0058ad">r 1100 nil</text>
<polyline fill="none" stroke="#0058ad" points="233.5,-405.5 233.5,-434.5 "/>
<text text-anchor="middle" x="276.5" y="-416.3" font-family="Times,serif" font-size="14.00" fill="#0058ad">r 1100 nil</text>
<polyline fill="none" stroke="#0058ad" points="319.5,-405.5 319.5,-434.5 "/>
<text text-anchor="middle" x="362.5" y="-416.3" font-family="Times,serif" font-size="14.00" fill="#0058ad">r 1100 nil</text>
</g>
<!-- T28952 -->
<g id="node3" class="node">
<title>T28952</title>
<polygon fill="none" stroke="#0058ad" points="212.5,-324.5 212.5,-353.5 449.5,-353.5 449.5,-324.5 212.5,-324.5"/>
<text text-anchor="middle" x="254" y="-335.3" font-family="Times,serif" font-size="14.00" fill="#0058ad">w 1100 2</text>
<polyline fill="none" stroke="#0058ad" points="295.5,-324.5 295.5,-353.5 "/>
<text text-anchor="middle" x="334" y="-335.3" font-family="Times,serif" font-size="14.00" fill="#0058ad">r 1097 9</text>
<polyline fill="none" stroke="#0058ad" points="372.5,-324.5 372.5,-353.5 "/>
<text text-anchor="middle" x="411" y="-335.3" font-family="Times,serif" font-size="14.00" fill="#0058ad">r 1097 9</text>
</g>
<!-- T28953&#45;&gt;T28952 -->
<g id="edge1" class="edge">
<title>T28953:f1&#45;&gt;T28952:f0</title>
<path fill="none" stroke="#5b00c0" d="M190,-405C190,-378.31 182.64,-348.28 200.76,-340.77"/>
<polygon fill="#5b00c0" stroke="#5b00c0" points="201.74,-344.15 211,-339 200.55,-337.26 201.74,-344.15"/>
<text text-anchor="middle" x="198.5" y="-375.8" font-family="Times,serif" font-size="14.00" fill="#5b00c0">rw</text>
</g>
<!-- T28951 -->
<g id="node6" class="node">
<title>T28951</title>
<polygon fill="none" stroke="#0058ad" points="66.5,-81.5 66.5,-110.5 407.5,-110.5 407.5,-81.5 66.5,-81.5"/>
<text text-anchor="middle" x="109.5" y="-92.3" font-family="Times,serif" font-size="14.00" fill="#0058ad">r 1098 14</text>
<polyline fill="none" stroke="#0058ad" points="152.5,-81.5 152.5,-110.5 "/>
<text text-anchor="middle" x="195.5" y="-92.3" font-family="Times,serif" font-size="14.00" fill="#0058ad">r 1099 nil</text>
<polyline fill="none" stroke="#0058ad" points="238.5,-81.5 238.5,-110.5 "/>
<text text-anchor="middle" x="281.5" y="-92.3" font-family="Times,serif" font-size="14.00" fill="#0058ad">r 1098 14</text>
<polyline fill="none" stroke="#0058ad" points="324.5,-81.5 324.5,-110.5 "/>
<text text-anchor="middle" x="366" y="-92.3" font-family="Times,serif" font-size="14.00" fill="#0058ad">w 1100 1</text>
</g>
<!-- T28953&#45;&gt;T28951 -->
<g id="edge2" class="edge">
<title>T28953:f1&#45;&gt;T28951:f3</title>
<path fill="none" stroke="#5b00c0" d="M190,-405C190,-371.65 483,-373.35 483,-340 483,-340 483,-340 483,-176 483,-131.07 461,-100.65 419.14,-96.49"/>
<polygon fill="#5b00c0" stroke="#5b00c0" points="419.16,-92.99 409,-96 418.82,-99.98 419.16,-92.99"/>
<text text-anchor="middle" x="492.5" y="-254.3" font-family="Times,serif" font-size="14.00" fill="#5b00c0">rw</text>
</g>
<!-- T28973 -->
<g id="node2" class="node">
<title>T28973</title>
<polygon fill="none" stroke="#0058ad" points="185.5,-0.5 185.5,-29.5 354.5,-29.5 354.5,-0.5 185.5,-0.5"/>
<text text-anchor="middle" x="227" y="-11.3" font-family="Times,serif" font-size="14.00" fill="#0058ad">w 1099 6</text>
<polyline fill="none" stroke="#0058ad" points="268.5,-0.5 268.5,-29.5 "/>
<text text-anchor="middle" x="311.5" y="-11.3" font-family="Times,serif" font-size="14.00" fill="#0058ad">r 1100 nil</text>
</g>
<!-- T28973&#45;&gt;T28952 -->
<g id="edge3" class="edge">
<title>T28973:f1&#45;&gt;T28952:f0</title>
<path fill="none" stroke="#5b00c0" d="M356,-15C406.28,-15 436,-44.72 436,-95 436,-259 436,-259 436,-259 436,-268.35 297.9,-302.59 262.29,-318.35"/>
<polygon fill="#5b00c0" stroke="#5b00c0" points="260.3,-315.48 254,-324 264.24,-321.27 260.3,-315.48"/>
<text text-anchor="middle" x="445.5" y="-173.3" font-family="Times,serif" font-size="14.00" fill="#5b00c0">rw</text>
</g>
<!-- T28973&#45;&gt;T28951 -->
<g id="edge4" class="edge">
<title>T28973:f1&#45;&gt;T28951:f3</title>
<path fill="none" stroke="#5b00c0" d="M312,-30C312,-59.01 353.71,-50.92 363.82,-70.95"/>
<polygon fill="#5b00c0" stroke="#5b00c0" points="360.46,-71.97 366,-81 367.3,-70.48 360.46,-71.97"/>
<text text-anchor="middle" x="364.5" y="-51.8" font-family="Times,serif" font-size="14.00" fill="#5b00c0">rw</text>
</g>
<!-- T28955 -->
<g id="node4" class="node">
<title>T28955</title>
<polygon fill="none" stroke="#0058ad" points="39.5,-243.5 39.5,-272.5 288.5,-272.5 288.5,-243.5 39.5,-243.5"/>
<text text-anchor="middle" x="82.5" y="-254.3" font-family="Times,serif" font-size="14.00" fill="#0058ad">r 1099 nil</text>
<polyline fill="none" stroke="#0058ad" points="125.5,-243.5 125.5,-272.5 "/>
<text text-anchor="middle" x="168.5" y="-254.3" font-family="Times,serif" font-size="14.00" fill="#0058ad">r 1099 nil</text>
<polyline fill="none" stroke="#0058ad" points="211.5,-243.5 211.5,-272.5 "/>
<text text-anchor="middle" x="250" y="-254.3" font-family="Times,serif" font-size="14.00" fill="#0058ad">r 1100 2</text>
</g>
<!-- T28952&#45;&gt;T28955 -->
<g id="edge5" class="edge">
<title>T28952:f0&#45;&gt;T28955:f2</title>
<path fill="none" stroke="#c000a5" d="M254,-324C254,-305.17 251.26,-298.14 250.31,-283.37"/>
<polygon fill="#c000a5" stroke="#c000a5" points="253.8,-282.89 250,-273 246.8,-283.1 253.8,-282.89"/>
<text text-anchor="middle" x="261.5" y="-294.8" font-family="Times,serif" font-size="14.00" fill="#c000a5">wr</text>
</g>
<!-- T28955&#45;&gt;T28953 -->
<g id="edge6" class="edge">
<title>T28955:f0&#45;&gt;T28953:f0</title>
<path fill="none" stroke="#5b00c0" d="M82,-273C82,-329.13 103.27,-343.72 105.76,-394.98"/>
<polygon fill="#5b00c0" stroke="#5b00c0" points="102.26,-395.09 106,-405 109.26,-394.92 102.26,-395.09"/>
<text text-anchor="middle" x="108.5" y="-335.3" font-family="Times,serif" font-size="14.00" fill="#5b00c0">rw</text>
</g>
<!-- T28955&#45;&gt;T28973 -->
<g id="edge8" class="edge">
<title>T28955:f0&#45;&gt;T28973:f0</title>
<path fill="none" stroke="#5b00c0" d="M38,-258C32.33,-258 -9.68,-178.24 57,-81 91.01,-31.41 117.36,-16.6 173.88,-15.13"/>
<polygon fill="#5b00c0" stroke="#5b00c0" points="174.04,-18.62 184,-15 173.96,-11.62 174.04,-18.62"/>
<text text-anchor="middle" x="41.5" y="-132.8" font-family="Times,serif" font-size="14.00" fill="#5b00c0">rw</text>
</g>
<!-- T28958 -->
<g id="node5" class="node">
<title>T28958</title>
<polygon fill="none" stroke="#0058ad" points="149.5,-162.5 149.5,-191.5 318.5,-191.5 318.5,-162.5 149.5,-162.5"/>
<text text-anchor="middle" x="192.5" y="-173.3" font-family="Times,serif" font-size="14.00" fill="#0058ad">r 1100 nil</text>
<polyline fill="none" stroke="#0058ad" points="235.5,-162.5 235.5,-191.5 "/>
<text text-anchor="middle" x="277" y="-173.3" font-family="Times,serif" font-size="14.00" fill="#0058ad">w 1099 4</text>
</g>
<!-- T28955&#45;&gt;T28958 -->
<g id="edge7" class="edge">
<title>T28955:f0&#45;&gt;T28958:f1</title>
<path fill="none" stroke="#5b00c0" d="M82,-243C82,-157.27 260.6,-270.97 275.95,-202.38"/>
<polygon fill="#5b00c0" stroke="#5b00c0" points="279.48,-202.3 277,-192 272.51,-201.6 279.48,-202.3"/>
<text text-anchor="middle" x="280.5" y="-213.8" font-family="Times,serif" font-size="14.00" fill="#5b00c0">rw</text>
</g>
<!-- T28958&#45;&gt;T28952 -->
<g id="edge9" class="edge">
<title>T28958:f0&#45;&gt;T28952:f0</title>
<path fill="none" stroke="#5b00c0" d="M192,-192C192,-238.03 262.34,-176.58 294,-210 313.3,-230.37 306.41,-246.23 298,-273 292.64,-290.06 286.99,-292.74 275,-306 269.97,-311.55 263.28,-312.46 258.81,-315.1"/>
<polygon fill="#5b00c0" stroke="#5b00c0" points="255.67,-313.54 254,-324 261.83,-316.87 255.67,-313.54"/>
<text text-anchor="middle" x="315.5" y="-254.3" font-family="Times,serif" font-size="14.00" fill="#5b00c0">rw</text>
</g>
<!-- T28958&#45;&gt;T28951 -->
<g id="edge10" class="edge">
<title>T28958:f0&#45;&gt;T28951:f3</title>
<path fill="none" stroke="#5b00c0" d="M192,-162C192,-141.26 206.38,-138.14 225,-129 249.92,-116.77 339.96,-136.53 361.39,-120.05"/>
<polygon fill="#5b00c0" stroke="#5b00c0" points="364.59,-121.5 366,-111 358.35,-118.33 364.59,-121.5"/>
<text text-anchor="middle" x="234.5" y="-132.8" font-family="Times,serif" font-size="14.00" fill="#5b00c0">rw</text>
</g>
<!-- T28951&#45;&gt;T28953 -->
<g id="edge11" class="edge">
<title>T28951:f1&#45;&gt;T28953:f0</title>
<path fill="none" stroke="#5b00c0" d="M195,-111C195,-149.43 54.5,-106.98 23,-129 3.94,-142.32 0,-152.74 0,-176 0,-340 0,-340 0,-340 0,-381.72 15.08,-414.51 52.89,-419.38"/>
<polygon fill="#5b00c0" stroke="#5b00c0" points="52.8,-422.88 63,-420 53.23,-415.89 52.8,-422.88"/>
<text text-anchor="middle" x="9.5" y="-254.3" font-family="Times,serif" font-size="14.00" fill="#5b00c0">rw</text>
</g>
<!-- T28951&#45;&gt;T28973 -->
<g id="edge13" class="edge">
<title>T28951:f1&#45;&gt;T28973:f0</title>
<path fill="none" stroke="#5b00c0" d="M195,-81C195,-58.21 218.21,-56.66 225.09,-40.17"/>
<polygon fill="#5b00c0" stroke="#5b00c0" points="228.6,-40.47 227,-30 221.72,-39.18 228.6,-40.47"/>
<text text-anchor="middle" x="228.5" y="-51.8" font-family="Times,serif" font-size="14.00" fill="#5b00c0">rw</text>
</g>
<!-- T28951&#45;&gt;T28958 -->
<g id="edge12" class="edge">
<title>T28951:f1&#45;&gt;T28958:f1</title>
<path fill="none" stroke="#5b00c0" d="M195,-111C195,-134.2 224.45,-116.51 244,-129 258.06,-137.99 270.86,-140.45 275.32,-151.87"/>
<polygon fill="#5b00c0" stroke="#5b00c0" points="271.91,-152.71 277,-162 278.82,-151.56 271.91,-152.71"/>
<text text-anchor="middle" x="278.5" y="-132.8" font-family="Times,serif" font-size="14.00" fill="#5b00c0">rw</text>
</g>
</g>
</svg>
