<?xml version="1.0" encoding="UTF-8" standalone="no"?>
<!DOCTYPE svg PUBLIC "-//W3C//DTD SVG 1.1//EN"
 "http://www.w3.org/Graphics/SVG/1.1/DTD/svg11.dtd">
<!-- Generated by graphviz version 2.43.0 (0)
 -->
<!-- Title: a_graph Pages: 1 -->
<svg width="365pt" height="281pt"
 viewBox="0.00 0.00 364.50 281.00" xmlns="http://www.w3.org/2000/svg" xmlns:xlink="http://www.w3.org/1999/xlink">
<g id="graph0" class="graph" transform="scale(1 1) rotate(0) translate(4 277)">
<title>a_graph</title>
<polygon fill="white" stroke="transparent" points="-4,4 -4,-277 360.5,-277 360.5,4 -4,4"/>
<!-- T25921 -->
<g id="node1" class="node">
<title>T25921</title>
<polygon fill="none" stroke="#0058ad" points="30.5,-243.5 30.5,-272.5 252.5,-272.5 252.5,-243.5 30.5,-243.5"/>
<text text-anchor="middle" x="69" y="-254.3" font-family="Times,serif" font-size="14.00" fill="#0058ad">r 947 14</text>
<polyline fill="none" stroke="#0058ad" points="107.5,-243.5 107.5,-272.5 "/>
<text text-anchor="middle" x="146" y="-254.3" font-family="Times,serif" font-size="14.00" fill="#0058ad">r 975 nil</text>
<polyline fill="none" stroke="#0058ad" points="184.5,-243.5 184.5,-272.5 "/>
<text text-anchor="middle" x="218.5" y="-254.3" font-family="Times,serif" font-size="14.00" fill="#0058ad">r 983 2</text>
</g>
<!-- T25890 -->
<g id="node3" class="node">
<title>T25890</title>
<polygon fill="none" stroke="#0058ad" points="0,-162.5 0,-191.5 299,-191.5 299,-162.5 0,-162.5"/>
<text text-anchor="middle" x="37" y="-173.3" font-family="Times,serif" font-size="14.00" fill="#0058ad">w 975 2</text>
<polyline fill="none" stroke="#0058ad" points="74,-162.5 74,-191.5 "/>
<text text-anchor="middle" x="111" y="-173.3" font-family="Times,serif" font-size="14.00" fill="#0058ad">w 981 8</text>
<polyline fill="none" stroke="#0058ad" points="148,-162.5 148,-191.5 "/>
<text text-anchor="middle" x="185" y="-173.3" font-family="Times,serif" font-size="14.00" fill="#0058ad">w 981 9</text>
<polyline fill="none" stroke="#0058ad" points="222,-162.5 222,-191.5 "/>
<text text-anchor="middle" x="260.5" y="-173.3" font-family="Times,serif" font-size="14.00" fill="#0058ad">r 980 15</text>
</g>
<!-- T25921&#45;&gt;T25890 -->
<g id="edge1" class="edge">
<title>T25921:f1&#45;&gt;T25890:f0</title>
<path fill="none" stroke="#5b00c0" d="M146.5,-243C146.5,-193.11 52.22,-238.07 38.23,-202.26"/>
<polygon fill="#5b00c0" stroke="#5b00c0" points="41.61,-201.28 36.5,-192 34.71,-202.44 41.61,-201.28"/>
<text text-anchor="middle" x="149" y="-213.8" font-family="Times,serif" font-size="14.00" fill="#5b00c0">rw</text>
</g>
<!-- T25897 -->
<g id="node2" class="node">
<title>T25897</title>
<polygon fill="none" stroke="#0058ad" points="183.5,-0.5 183.5,-29.5 331.5,-29.5 331.5,-0.5 183.5,-0.5"/>
<text text-anchor="middle" x="220.5" y="-11.3" font-family="Times,serif" font-size="14.00" fill="#0058ad">w 983 1</text>
<polyline fill="none" stroke="#0058ad" points="257.5,-0.5 257.5,-29.5 "/>
<text text-anchor="middle" x="294.5" y="-11.3" font-family="Times,serif" font-size="14.00" fill="#0058ad">w 983 2</text>
</g>
<!-- T25897&#45;&gt;T25921 -->
<g id="edge2" class="edge">
<title>T25897:f1&#45;&gt;T25921:f2</title>
<path fill="none" stroke="#c000a5" d="M332.5,-15C341.03,-15 360.31,-242.59 263.56,-257.26"/>
<polygon fill="#c000a5" stroke="#c000a5" points="263.22,-253.77 253.5,-258 263.73,-260.76 263.22,-253.77"/>
<text text-anchor="middle" x="347" y="-132.8" font-family="Times,serif" font-size="14.00" fill="#c000a5">wr</text>
</g>
<!-- T25895 -->
<g id="node4" class="node">
<title>T25895</title>
<polygon fill="none" stroke="#0058ad" points="70.5,-81.5 70.5,-110.5 298.5,-110.5 298.5,-81.5 70.5,-81.5"/>
<text text-anchor="middle" x="112" y="-92.3" font-family="Times,serif" font-size="14.00" fill="#0058ad">w 947 16</text>
<polyline fill="none" stroke="#0058ad" points="153.5,-81.5 153.5,-110.5 "/>
<text text-anchor="middle" x="187.5" y="-92.3" font-family="Times,serif" font-size="14.00" fill="#0058ad">r 981 9</text>
<polyline fill="none" stroke="#0058ad" points="221.5,-81.5 221.5,-110.5 "/>
<text text-anchor="middle" x="260" y="-92.3" font-family="Times,serif" font-size="14.00" fill="#0058ad">r 983 nil</text>
</g>
<!-- T25890&#45;&gt;T25895 -->
<g id="edge3" class="edge">
<title>T25890:f2&#45;&gt;T25895:f1</title>
<path fill="none" stroke="#c000a5" d="M185.5,-162C185.5,-143.21 186.87,-136.12 187.34,-121.36"/>
<polygon fill="#c000a5" stroke="#c000a5" points="190.85,-121.05 187.5,-111 183.85,-120.95 190.85,-121.05"/>
<text text-anchor="middle" x="197" y="-132.8" font-family="Times,serif" font-size="14.00" fill="#c000a5">wr</text>
</g>
<!-- T25895&#45;&gt;T25897 -->
<g id="edge4" class="edge">
<title>T25895:f2&#45;&gt;T25897:f1</title>
<path fill="none" stroke="#5b00c0" d="M260.5,-81C260.5,-57.59 285.61,-56.87 292.67,-39.84"/>
<polygon fill="#5b00c0" stroke="#5b00c0" points="296.11,-40.47 294.5,-30 289.23,-39.19 296.11,-40.47"/>
<text text-anchor="middle" x="296" y="-51.8" font-family="Times,serif" font-size="14.00" fill="#5b00c0">rw</text>
</g>
</g>
</svg>
