<?xml version="1.0" encoding="UTF-8" standalone="no"?>
<!DOCTYPE svg PUBLIC "-//W3C//DTD SVG 1.1//EN"
 "http://www.w3.org/Graphics/SVG/1.1/DTD/svg11.dtd">
<!-- Generated by graphviz version 2.43.0 (0)
 -->
<!-- Title: a_graph Pages: 1 -->
<svg width="266pt" height="119pt"
 viewBox="0.00 0.00 265.50 119.00" xmlns="http://www.w3.org/2000/svg" xmlns:xlink="http://www.w3.org/1999/xlink">
<g id="graph0" class="graph" transform="scale(1 1) rotate(0) translate(4 115)">
<title>a_graph</title>
<polygon fill="white" stroke="transparent" points="-4,4 -4,-115 261.5,-115 261.5,4 -4,4"/>
<!-- T2069 -->
<g id="node1" class="node">
<title>T2069</title>
<polygon fill="none" stroke="#0058ad" points="0.5,-81.5 0.5,-110.5 257.5,-110.5 257.5,-81.5 0.5,-81.5"/>
<text text-anchor="middle" x="34.5" y="-92.3" font-family="Times,serif" font-size="14.00" fill="#0058ad">r 83 nil</text>
<polyline fill="none" stroke="#0058ad" points="68.5,-81.5 68.5,-110.5 "/>
<text text-anchor="middle" x="101" y="-92.3" font-family="Times,serif" font-size="14.00" fill="#0058ad">w 81 1</text>
<polyline fill="none" stroke="#0058ad" points="133.5,-81.5 133.5,-110.5 "/>
<text text-anchor="middle" x="166" y="-92.3" font-family="Times,serif" font-size="14.00" fill="#0058ad">w 83 5</text>
<polyline fill="none" stroke="#0058ad" points="198.5,-81.5 198.5,-110.5 "/>
<text text-anchor="middle" x="228" y="-92.3" font-family="Times,serif" font-size="14.00" fill="#0058ad">r 83 5</text>
</g>
<!-- T2063 -->
<g id="node2" class="node">
<title>T2063</title>
<polygon fill="none" stroke="#0058ad" points="0,-0.5 0,-29.5 198,-29.5 198,-0.5 0,-0.5"/>
<text text-anchor="middle" x="34" y="-11.3" font-family="Times,serif" font-size="14.00" fill="#0058ad">r 83 nil</text>
<polyline fill="none" stroke="#0058ad" points="68,-0.5 68,-29.5 "/>
<text text-anchor="middle" x="100.5" y="-11.3" font-family="Times,serif" font-size="14.00" fill="#0058ad">w 83 1</text>
<polyline fill="none" stroke="#0058ad" points="133,-0.5 133,-29.5 "/>
<text text-anchor="middle" x="165.5" y="-11.3" font-family="Times,serif" font-size="14.00" fill="#0058ad">w 83 2</text>
</g>
<!-- T2069&#45;&gt;T2063 -->
<g id="edge1" class="edge">
<title>T2069:f0&#45;&gt;T2063:f2</title>
<path fill="none" stroke="#5b00c0" d="M34,-81C34,-47.01 71.21,-60.05 103,-48 126.19,-39.21 155.57,-53.46 163.78,-39.89"/>
<polygon fill="#5b00c0" stroke="#5b00c0" points="167.23,-40.52 166,-30 160.4,-38.99 167.23,-40.52"/>
<text text-anchor="middle" x="112.5" y="-51.8" font-family="Times,serif" font-size="14.00" fill="#5b00c0">rw</text>
</g>
<!-- T2063&#45;&gt;T2069 -->
<g id="edge2" class="edge">
<title>T2063:f0&#45;&gt;T2069:f2</title>
<path fill="none" stroke="#5b00c0" d="M34,-30C34,-49.96 103.8,-39.81 122,-48 140.64,-56.38 158.86,-56.73 164.34,-70.9"/>
<polygon fill="#5b00c0" stroke="#5b00c0" points="160.93,-71.7 166,-81 167.83,-70.56 160.93,-71.7"/>
<text text-anchor="middle" x="168.5" y="-51.8" font-family="Times,serif" font-size="14.00" fill="#5b00c0">rw</text>
</g>
</g>
</svg>
