<?xml version="1.0" encoding="UTF-8" standalone="no"?>
<!DOCTYPE svg PUBLIC "-//W3C//DTD SVG 1.1//EN"
 "http://www.w3.org/Graphics/SVG/1.1/DTD/svg11.dtd">
<!-- Generated by graphviz version 2.43.0 (0)
 -->
<!-- Title: a_graph Pages: 1 -->
<svg width="356pt" height="119pt"
 viewBox="0.00 0.00 356.00 119.00" xmlns="http://www.w3.org/2000/svg" xmlns:xlink="http://www.w3.org/1999/xlink">
<g id="graph0" class="graph" transform="scale(1 1) rotate(0) translate(4 115)">
<title>a_graph</title>
<polygon fill="white" stroke="transparent" points="-4,4 -4,-115 352,-115 352,4 -4,4"/>
<!-- T3304 -->
<g id="node1" class="node">
<title>T3304</title>
<polygon fill="none" stroke="#0058ad" points="37,-81.5 37,-110.5 348,-110.5 348,-81.5 37,-81.5"/>
<text text-anchor="middle" x="75.5" y="-92.3" font-family="Times,serif" font-size="14.00" fill="#0058ad">r 132 nil</text>
<polyline fill="none" stroke="#0058ad" points="114,-81.5 114,-110.5 "/>
<text text-anchor="middle" x="151" y="-92.3" font-family="Times,serif" font-size="14.00" fill="#0058ad">w 132 3</text>
<polyline fill="none" stroke="#0058ad" points="188,-81.5 188,-110.5 "/>
<text text-anchor="middle" x="229.5" y="-92.3" font-family="Times,serif" font-size="14.00" fill="#0058ad">w 126 11</text>
<polyline fill="none" stroke="#0058ad" points="271,-81.5 271,-110.5 "/>
<text text-anchor="middle" x="309.5" y="-92.3" font-family="Times,serif" font-size="14.00" fill="#0058ad">r 128 14</text>
</g>
<!-- T3301 -->
<g id="node2" class="node">
<title>T3301</title>
<polygon fill="none" stroke="#0058ad" points="0,-0.5 0,-29.5 225,-29.5 225,-0.5 0,-0.5"/>
<text text-anchor="middle" x="38.5" y="-11.3" font-family="Times,serif" font-size="14.00" fill="#0058ad">r 132 nil</text>
<polyline fill="none" stroke="#0058ad" points="77,-0.5 77,-29.5 "/>
<text text-anchor="middle" x="114" y="-11.3" font-family="Times,serif" font-size="14.00" fill="#0058ad">w 132 1</text>
<polyline fill="none" stroke="#0058ad" points="151,-0.5 151,-29.5 "/>
<text text-anchor="middle" x="188" y="-11.3" font-family="Times,serif" font-size="14.00" fill="#0058ad">w 132 2</text>
</g>
<!-- T3304&#45;&gt;T3301 -->
<g id="edge1" class="edge">
<title>T3304:f0&#45;&gt;T3301:f2</title>
<path fill="none" stroke="#5b00c0" d="M75.5,-81C75.5,-62.33 85.62,-57.82 101.5,-48 131.54,-29.43 177.45,-61.27 186.8,-39.94"/>
<polygon fill="#5b00c0" stroke="#5b00c0" points="190.27,-40.45 188.5,-30 183.37,-39.27 190.27,-40.45"/>
<text text-anchor="middle" x="111" y="-51.8" font-family="Times,serif" font-size="14.00" fill="#5b00c0">rw</text>
</g>
<!-- T3301&#45;&gt;T3304 -->
<g id="edge2" class="edge">
<title>T3301:f0&#45;&gt;T3304:f1</title>
<path fill="none" stroke="#5b00c0" d="M38.5,-30C38.5,-67.31 88.2,-29.31 120.5,-48 134.17,-55.91 145.1,-59.58 148.98,-70.78"/>
<polygon fill="#5b00c0" stroke="#5b00c0" points="145.57,-71.62 150.5,-81 152.49,-70.59 145.57,-71.62"/>
<text text-anchor="middle" x="154" y="-51.8" font-family="Times,serif" font-size="14.00" fill="#5b00c0">rw</text>
</g>
</g>
</svg>
