<?xml version="1.0" encoding="UTF-8" standalone="no"?>
<!DOCTYPE svg PUBLIC "-//W3C//DTD SVG 1.1//EN"
 "http://www.w3.org/Graphics/SVG/1.1/DTD/svg11.dtd">
<!-- Generated by graphviz version 2.43.0 (0)
 -->
<!-- Title: a_graph Pages: 1 -->
<svg width="349pt" height="200pt"
 viewBox="0.00 0.00 348.50 200.00" xmlns="http://www.w3.org/2000/svg" xmlns:xlink="http://www.w3.org/1999/xlink">
<g id="graph0" class="graph" transform="scale(1 1) rotate(0) translate(4 196)">
<title>a_graph</title>
<polygon fill="white" stroke="transparent" points="-4,4 -4,-196 344.5,-196 344.5,4 -4,4"/>
<!-- T12131 -->
<g id="node1" class="node">
<title>T12131</title>
<polygon fill="none" stroke="#0058ad" points="151,-162.5 151,-191.5 311,-191.5 311,-162.5 151,-162.5"/>
<text text-anchor="middle" x="189.5" y="-173.3" font-family="Times,serif" font-size="14.00" fill="#0058ad">r 463 nil</text>
<polyline fill="none" stroke="#0058ad" points="228,-162.5 228,-191.5 "/>
<text text-anchor="middle" x="269.5" y="-173.3" font-family="Times,serif" font-size="14.00" fill="#0058ad">w 464 12</text>
</g>
<!-- T12105 -->
<g id="node2" class="node">
<title>T12105</title>
<polygon fill="none" stroke="#0058ad" points="0,-81.5 0,-110.5 228,-110.5 228,-81.5 0,-81.5"/>
<text text-anchor="middle" x="38.5" y="-92.3" font-family="Times,serif" font-size="14.00" fill="#0058ad">r 462 12</text>
<polyline fill="none" stroke="#0058ad" points="77,-81.5 77,-110.5 "/>
<text text-anchor="middle" x="115.5" y="-92.3" font-family="Times,serif" font-size="14.00" fill="#0058ad">r 460 13</text>
<polyline fill="none" stroke="#0058ad" points="154,-81.5 154,-110.5 "/>
<text text-anchor="middle" x="191" y="-92.3" font-family="Times,serif" font-size="14.00" fill="#0058ad">w 463 1</text>
</g>
<!-- T12131&#45;&gt;T12105 -->
<g id="edge1" class="edge">
<title>T12131:f0&#45;&gt;T12105:f2</title>
<path fill="none" stroke="#5b00c0" d="M189,-162C189,-143.21 190.37,-136.12 190.84,-121.36"/>
<polygon fill="#5b00c0" stroke="#5b00c0" points="194.35,-121.05 191,-111 187.35,-120.95 194.35,-121.05"/>
<text text-anchor="middle" x="199.5" y="-132.8" font-family="Times,serif" font-size="14.00" fill="#5b00c0">rw</text>
</g>
<!-- T12109 -->
<g id="node3" class="node">
<title>T12109</title>
<polygon fill="none" stroke="#0058ad" points="103.5,-0.5 103.5,-29.5 340.5,-29.5 340.5,-0.5 103.5,-0.5"/>
<text text-anchor="middle" x="142" y="-11.3" font-family="Times,serif" font-size="14.00" fill="#0058ad">r 464 nil</text>
<polyline fill="none" stroke="#0058ad" points="180.5,-0.5 180.5,-29.5 "/>
<text text-anchor="middle" x="219" y="-11.3" font-family="Times,serif" font-size="14.00" fill="#0058ad">r 460 13</text>
<polyline fill="none" stroke="#0058ad" points="257.5,-0.5 257.5,-29.5 "/>
<text text-anchor="middle" x="299" y="-11.3" font-family="Times,serif" font-size="14.00" fill="#0058ad">w 460 16</text>
</g>
<!-- T12105&#45;&gt;T12109 -->
<g id="edge2" class="edge">
<title>T12105:f1&#45;&gt;T12109:f2</title>
<path fill="none" stroke="#5b00c0" d="M116,-81C116,-80.43 251.15,-43.66 289.16,-32.91"/>
<polygon fill="#5b00c0" stroke="#5b00c0" points="290.41,-36.2 299,-30 288.42,-29.48 290.41,-36.2"/>
<text text-anchor="middle" x="243.5" y="-51.8" font-family="Times,serif" font-size="14.00" fill="#5b00c0">rw</text>
</g>
<!-- T12109&#45;&gt;T12131 -->
<g id="edge3" class="edge">
<title>T12109:f0&#45;&gt;T12131:f1</title>
<path fill="none" stroke="#5b00c0" d="M142,-30C142,-55.21 236.35,-30 254,-48 287.37,-82.04 272.45,-107.19 270.25,-151.84"/>
<polygon fill="#5b00c0" stroke="#5b00c0" points="266.75,-151.92 270,-162 273.75,-152.09 266.75,-151.92"/>
<text text-anchor="middle" x="284.5" y="-92.3" font-family="Times,serif" font-size="14.00" fill="#5b00c0">rw</text>
</g>
</g>
</svg>
