<?xml version="1.0" encoding="UTF-8" standalone="no"?>
<!DOCTYPE svg PUBLIC "-//W3C//DTD SVG 1.1//EN"
 "http://www.w3.org/Graphics/SVG/1.1/DTD/svg11.dtd">
<!-- Generated by graphviz version 2.43.0 (0)
 -->
<!-- Title: a_graph Pages: 1 -->
<svg width="242pt" height="119pt"
 viewBox="0.00 0.00 242.00 119.00" xmlns="http://www.w3.org/2000/svg" xmlns:xlink="http://www.w3.org/1999/xlink">
<g id="graph0" class="graph" transform="scale(1 1) rotate(0) translate(4 115)">
<title>a_graph</title>
<polygon fill="white" stroke="transparent" points="-4,4 -4,-115 238,-115 238,4 -4,4"/>
<!-- T23763 -->
<g id="node1" class="node">
<title>T23763</title>
<polygon fill="none" stroke="#0058ad" points="40.5,-81.5 40.5,-110.5 191.5,-110.5 191.5,-81.5 40.5,-81.5"/>
<text text-anchor="middle" x="79" y="-92.3" font-family="Times,serif" font-size="14.00" fill="#0058ad">r 904 nil</text>
<polyline fill="none" stroke="#0058ad" points="117.5,-81.5 117.5,-110.5 "/>
<text text-anchor="middle" x="154.5" y="-92.3" font-family="Times,serif" font-size="14.00" fill="#0058ad">w 904 1</text>
</g>
<!-- T23769 -->
<g id="node2" class="node">
<title>T23769</title>
<polygon fill="none" stroke="#0058ad" points="0,-0.5 0,-29.5 234,-29.5 234,-0.5 0,-0.5"/>
<text text-anchor="middle" x="38.5" y="-11.3" font-family="Times,serif" font-size="14.00" fill="#0058ad">r 904 nil</text>
<polyline fill="none" stroke="#0058ad" points="77,-0.5 77,-29.5 "/>
<text text-anchor="middle" x="118.5" y="-11.3" font-family="Times,serif" font-size="14.00" fill="#0058ad">w 903 10</text>
<polyline fill="none" stroke="#0058ad" points="160,-0.5 160,-29.5 "/>
<text text-anchor="middle" x="197" y="-11.3" font-family="Times,serif" font-size="14.00" fill="#0058ad">w 904 3</text>
</g>
<!-- T23763&#45;&gt;T23769 -->
<g id="edge1" class="edge">
<title>T23763:f0&#45;&gt;T23769:f2</title>
<path fill="none" stroke="#5b00c0" d="M79,-81C79,-62.05 89.75,-57.75 106,-48 120.57,-39.26 172.94,-46.7 190.9,-38.05"/>
<polygon fill="#5b00c0" stroke="#5b00c0" points="193.75,-40.08 197,-30 188.17,-35.86 193.75,-40.08"/>
<text text-anchor="middle" x="115.5" y="-51.8" font-family="Times,serif" font-size="14.00" fill="#5b00c0">rw</text>
</g>
<!-- T23769&#45;&gt;T23763 -->
<g id="edge2" class="edge">
<title>T23769:f0&#45;&gt;T23763:f1</title>
<path fill="none" stroke="#5b00c0" d="M38,-30C38,-69.49 90.7,-28.43 125,-48 138.72,-55.83 149.62,-59.55 153.49,-70.77"/>
<polygon fill="#5b00c0" stroke="#5b00c0" points="150.08,-71.62 155,-81 157,-70.6 150.08,-71.62"/>
<text text-anchor="middle" x="158.5" y="-51.8" font-family="Times,serif" font-size="14.00" fill="#5b00c0">rw</text>
</g>
</g>
</svg>
