<?xml version="1.0" encoding="UTF-8" standalone="no"?>
<!DOCTYPE svg PUBLIC "-//W3C//DTD SVG 1.1//EN"
 "http://www.w3.org/Graphics/SVG/1.1/DTD/svg11.dtd">
<!-- Generated by graphviz version 2.43.0 (0)
 -->
<!-- Title: a_graph Pages: 1 -->
<svg width="1708pt" height="782pt"
 viewBox="0.00 0.00 1707.84 782.00" xmlns="http://www.w3.org/2000/svg" xmlns:xlink="http://www.w3.org/1999/xlink">
<g id="graph0" class="graph" transform="scale(1 1) rotate(0) translate(4 778)">
<title>a_graph</title>
<polygon fill="white" stroke="transparent" points="-4,4 -4,-778 1703.84,-778 1703.84,4 -4,4"/>
<!-- T18287 -->
<g id="node1" class="node">
<title>T18287</title>
<polygon fill="none" stroke="#0058ad" points="616.84,-744.5 616.84,-773.5 918.84,-773.5 918.84,-744.5 616.84,-744.5"/>
<text text-anchor="middle" x="655.34" y="-755.3" font-family="Times,serif" font-size="14.00" fill="#0058ad">r 703 nil</text>
<polyline fill="none" stroke="#0058ad" points="693.84,-744.5 693.84,-773.5 "/>
<text text-anchor="middle" x="730.84" y="-755.3" font-family="Times,serif" font-size="14.00" fill="#0058ad">w 702 3</text>
<polyline fill="none" stroke="#0058ad" points="767.84,-744.5 767.84,-773.5 "/>
<text text-anchor="middle" x="806.34" y="-755.3" font-family="Times,serif" font-size="14.00" fill="#0058ad">r 701 nil</text>
<polyline fill="none" stroke="#0058ad" points="844.84,-744.5 844.84,-773.5 "/>
<text text-anchor="middle" x="881.84" y="-755.3" font-family="Times,serif" font-size="14.00" fill="#0058ad">w 703 1</text>
</g>
<!-- T18433 -->
<g id="node12" class="node">
<title>T18433</title>
<polygon fill="none" stroke="#0058ad" points="98.84,-663.5 98.84,-692.5 264.84,-692.5 264.84,-663.5 98.84,-663.5"/>
<text text-anchor="middle" x="140.34" y="-674.3" font-family="Times,serif" font-size="14.00" fill="#0058ad">w 708 10</text>
<polyline fill="none" stroke="#0058ad" points="181.84,-663.5 181.84,-692.5 "/>
<text text-anchor="middle" x="223.34" y="-674.3" font-family="Times,serif" font-size="14.00" fill="#0058ad">w 703 10</text>
</g>
<!-- T18287&#45;&gt;T18433 -->
<g id="edge3" class="edge">
<title>T18287:f0&#45;&gt;T18433:f1</title>
<path fill="none" stroke="#5b00c0" d="M615.84,-759C459.6,-759 426.88,-681.44 275.95,-678.11"/>
<polygon fill="#5b00c0" stroke="#5b00c0" points="275.87,-674.61 265.84,-678 275.8,-681.61 275.87,-674.61"/>
<text text-anchor="middle" x="468.34" y="-714.8" font-family="Times,serif" font-size="14.00" fill="#5b00c0">rw</text>
</g>
<!-- T18441 -->
<g id="node17" class="node">
<title>T18441</title>
<polygon fill="none" stroke="#0058ad" points="310.84,-615.5 310.84,-644.5 538.84,-644.5 538.84,-615.5 310.84,-615.5"/>
<text text-anchor="middle" x="352.34" y="-626.3" font-family="Times,serif" font-size="14.00" fill="#0058ad">w 703 11</text>
<polyline fill="none" stroke="#0058ad" points="393.84,-615.5 393.84,-644.5 "/>
<text text-anchor="middle" x="432.34" y="-626.3" font-family="Times,serif" font-size="14.00" fill="#0058ad">r 707 nil</text>
<polyline fill="none" stroke="#0058ad" points="470.84,-615.5 470.84,-644.5 "/>
<text text-anchor="middle" x="504.84" y="-626.3" font-family="Times,serif" font-size="14.00" fill="#0058ad">r 709 1</text>
</g>
<!-- T18287&#45;&gt;T18441 -->
<g id="edge1" class="edge">
<title>T18287:f0&#45;&gt;T18441:f0</title>
<path fill="none" stroke="#5b00c0" d="M615.84,-759C601.48,-759 399.82,-679.88 359.01,-652.22"/>
<polygon fill="#5b00c0" stroke="#5b00c0" points="361.37,-649.63 351.84,-645 356.4,-654.56 361.37,-649.63"/>
<text text-anchor="middle" x="531.34" y="-714.8" font-family="Times,serif" font-size="14.00" fill="#5b00c0">rw</text>
</g>
<!-- T18424 -->
<g id="node20" class="node">
<title>T18424</title>
<polygon fill="none" stroke="#0058ad" points="601.84,-324.5 601.84,-353.5 909.84,-353.5 909.84,-324.5 601.84,-324.5"/>
<text text-anchor="middle" x="643.34" y="-335.3" font-family="Times,serif" font-size="14.00" fill="#0058ad">w 706 13</text>
<polyline fill="none" stroke="#0058ad" points="684.84,-324.5 684.84,-353.5 "/>
<text text-anchor="middle" x="723.34" y="-335.3" font-family="Times,serif" font-size="14.00" fill="#0058ad">r 705 nil</text>
<polyline fill="none" stroke="#0058ad" points="761.84,-324.5 761.84,-353.5 "/>
<text text-anchor="middle" x="798.84" y="-335.3" font-family="Times,serif" font-size="14.00" fill="#0058ad">w 703 9</text>
<polyline fill="none" stroke="#0058ad" points="835.84,-324.5 835.84,-353.5 "/>
<text text-anchor="middle" x="872.84" y="-335.3" font-family="Times,serif" font-size="14.00" fill="#0058ad">w 708 6</text>
</g>
<!-- T18287&#45;&gt;T18424 -->
<g id="edge2" class="edge">
<title>T18287:f0&#45;&gt;T18424:f2</title>
<path fill="none" stroke="#5b00c0" d="M654.84,-744C654.84,-695.38 742.84,-727.62 742.84,-679 742.84,-679 742.84,-679 742.84,-419 742.84,-384.74 788.04,-390.35 797.22,-364.19"/>
<polygon fill="#5b00c0" stroke="#5b00c0" points="800.73,-364.42 798.84,-354 793.81,-363.33 800.73,-364.42"/>
<text text-anchor="middle" x="752.34" y="-537.8" font-family="Times,serif" font-size="14.00" fill="#5b00c0">rw</text>
</g>
<!-- T18561 -->
<g id="node2" class="node">
<title>T18561</title>
<polygon fill="none" stroke="#0058ad" points="358.34,-324.5 358.34,-353.5 583.34,-353.5 583.34,-324.5 358.34,-324.5"/>
<text text-anchor="middle" x="395.34" y="-335.3" font-family="Times,serif" font-size="14.00" fill="#0058ad">w 713 2</text>
<polyline fill="none" stroke="#0058ad" points="432.34,-324.5 432.34,-353.5 "/>
<text text-anchor="middle" x="469.34" y="-335.3" font-family="Times,serif" font-size="14.00" fill="#0058ad">w 712 8</text>
<polyline fill="none" stroke="#0058ad" points="506.34,-324.5 506.34,-353.5 "/>
<text text-anchor="middle" x="544.84" y="-335.3" font-family="Times,serif" font-size="14.00" fill="#0058ad">r 705 nil</text>
</g>
<!-- T18527 -->
<g id="node21" class="node">
<title>T18527</title>
<polygon fill="none" stroke="#0058ad" points="433.34,-243.5 433.34,-272.5 744.34,-272.5 744.34,-243.5 433.34,-243.5"/>
<text text-anchor="middle" x="471.84" y="-254.3" font-family="Times,serif" font-size="14.00" fill="#0058ad">r 707 nil</text>
<polyline fill="none" stroke="#0058ad" points="510.34,-243.5 510.34,-272.5 "/>
<text text-anchor="middle" x="551.84" y="-254.3" font-family="Times,serif" font-size="14.00" fill="#0058ad">w 710 12</text>
<polyline fill="none" stroke="#0058ad" points="593.34,-243.5 593.34,-272.5 "/>
<text text-anchor="middle" x="630.34" y="-254.3" font-family="Times,serif" font-size="14.00" fill="#0058ad">w 705 1</text>
<polyline fill="none" stroke="#0058ad" points="667.34,-243.5 667.34,-272.5 "/>
<text text-anchor="middle" x="705.84" y="-254.3" font-family="Times,serif" font-size="14.00" fill="#0058ad">r 711 nil</text>
</g>
<!-- T18561&#45;&gt;T18527 -->
<g id="edge4" class="edge">
<title>T18561:f2&#45;&gt;T18527:f2</title>
<path fill="none" stroke="#5b00c0" d="M584.84,-339C592.39,-339 588.79,-330.38 592.84,-324 605.84,-303.49 624.56,-301.44 629.56,-283.33"/>
<polygon fill="#5b00c0" stroke="#5b00c0" points="633.09,-283.35 630.84,-273 626.14,-282.5 633.09,-283.35"/>
<text text-anchor="middle" x="636.34" y="-294.8" font-family="Times,serif" font-size="14.00" fill="#5b00c0">rw</text>
</g>
<!-- T18414 -->
<g id="node3" class="node">
<title>T18414</title>
<polygon fill="none" stroke="#0058ad" points="361.84,-486.5 361.84,-515.5 583.84,-515.5 583.84,-486.5 361.84,-486.5"/>
<text text-anchor="middle" x="398.84" y="-497.3" font-family="Times,serif" font-size="14.00" fill="#0058ad">w 706 9</text>
<polyline fill="none" stroke="#0058ad" points="435.84,-486.5 435.84,-515.5 "/>
<text text-anchor="middle" x="472.84" y="-497.3" font-family="Times,serif" font-size="14.00" fill="#0058ad">w 692 3</text>
<polyline fill="none" stroke="#0058ad" points="509.84,-486.5 509.84,-515.5 "/>
<text text-anchor="middle" x="546.84" y="-497.3" font-family="Times,serif" font-size="14.00" fill="#0058ad">w 708 3</text>
</g>
<!-- T18523 -->
<g id="node4" class="node">
<title>T18523</title>
<polygon fill="none" stroke="#0058ad" points="362.84,-405.5 362.84,-434.5 658.84,-434.5 658.84,-405.5 362.84,-405.5"/>
<text text-anchor="middle" x="396.84" y="-416.3" font-family="Times,serif" font-size="14.00" fill="#0058ad">r 692 3</text>
<polyline fill="none" stroke="#0058ad" points="430.84,-405.5 430.84,-434.5 "/>
<text text-anchor="middle" x="469.34" y="-416.3" font-family="Times,serif" font-size="14.00" fill="#0058ad">r 712 nil</text>
<polyline fill="none" stroke="#0058ad" points="507.84,-405.5 507.84,-434.5 "/>
<text text-anchor="middle" x="544.84" y="-416.3" font-family="Times,serif" font-size="14.00" fill="#0058ad">w 712 2</text>
<polyline fill="none" stroke="#0058ad" points="581.84,-405.5 581.84,-434.5 "/>
<text text-anchor="middle" x="620.34" y="-416.3" font-family="Times,serif" font-size="14.00" fill="#0058ad">r 711 nil</text>
</g>
<!-- T18414&#45;&gt;T18523 -->
<g id="edge5" class="edge">
<title>T18414:f1&#45;&gt;T18523:f0</title>
<path fill="none" stroke="#c000a5" d="M472.84,-486C472.84,-449.29 410.95,-470.43 398.87,-445.02"/>
<polygon fill="#c000a5" stroke="#c000a5" points="402.25,-444.1 396.84,-435 395.39,-445.5 402.25,-444.1"/>
<text text-anchor="middle" x="473.34" y="-456.8" font-family="Times,serif" font-size="14.00" fill="#c000a5">wr</text>
</g>
<!-- T18523&#45;&gt;T18561 -->
<g id="edge6" class="edge">
<title>T18523:f1&#45;&gt;T18561:f1</title>
<path fill="none" stroke="#5b00c0" d="M468.84,-405C468.84,-386.23 468.84,-379.12 468.84,-364.35"/>
<polygon fill="#5b00c0" stroke="#5b00c0" points="472.34,-364 468.84,-354 465.34,-364 472.34,-364"/>
<text text-anchor="middle" x="478.34" y="-375.8" font-family="Times,serif" font-size="14.00" fill="#5b00c0">rw</text>
</g>
<!-- T18541 -->
<g id="node5" class="node">
<title>T18541</title>
<polygon fill="none" stroke="#0058ad" points="197.84,-324.5 197.84,-353.5 339.84,-353.5 339.84,-324.5 197.84,-324.5"/>
<text text-anchor="middle" x="234.84" y="-335.3" font-family="Times,serif" font-size="14.00" fill="#0058ad">w 712 5</text>
<polyline fill="none" stroke="#0058ad" points="271.84,-324.5 271.84,-353.5 "/>
<text text-anchor="middle" x="305.84" y="-335.3" font-family="Times,serif" font-size="14.00" fill="#0058ad">r 712 5</text>
</g>
<!-- T18523&#45;&gt;T18541 -->
<g id="edge7" class="edge">
<title>T18523:f1&#45;&gt;T18541:f0</title>
<path fill="none" stroke="#5b00c0" d="M468.84,-405C468.84,-381.14 280.77,-380.46 241.84,-361.4"/>
<polygon fill="#5b00c0" stroke="#5b00c0" points="244.25,-358.86 234.84,-354 239.17,-363.67 244.25,-358.86"/>
<text text-anchor="middle" x="422.34" y="-375.8" font-family="Times,serif" font-size="14.00" fill="#5b00c0">rw</text>
</g>
<!-- T18544 -->
<g id="node13" class="node">
<title>T18544</title>
<polygon fill="none" stroke="#0058ad" points="124.84,-243.5 124.84,-272.5 414.84,-272.5 414.84,-243.5 124.84,-243.5"/>
<text text-anchor="middle" x="163.34" y="-254.3" font-family="Times,serif" font-size="14.00" fill="#0058ad">r 707 nil</text>
<polyline fill="none" stroke="#0058ad" points="201.84,-243.5 201.84,-272.5 "/>
<text text-anchor="middle" x="235.84" y="-254.3" font-family="Times,serif" font-size="14.00" fill="#0058ad">r 712 5</text>
<polyline fill="none" stroke="#0058ad" points="269.84,-243.5 269.84,-272.5 "/>
<text text-anchor="middle" x="303.84" y="-254.3" font-family="Times,serif" font-size="14.00" fill="#0058ad">r 712 5</text>
<polyline fill="none" stroke="#0058ad" points="337.84,-243.5 337.84,-272.5 "/>
<text text-anchor="middle" x="376.34" y="-254.3" font-family="Times,serif" font-size="14.00" fill="#0058ad">r 711 nil</text>
</g>
<!-- T18541&#45;&gt;T18544 -->
<g id="edge8" class="edge">
<title>T18541:f0&#45;&gt;T18544:f1</title>
<path fill="none" stroke="#c000a5" d="M234.84,-324C234.84,-305.23 235.52,-298.12 235.76,-283.35"/>
<polygon fill="#c000a5" stroke="#c000a5" points="239.26,-283.03 235.84,-273 232.26,-282.97 239.26,-283.03"/>
<text text-anchor="middle" x="245.34" y="-294.8" font-family="Times,serif" font-size="14.00" fill="#c000a5">wr</text>
</g>
<!-- T18437 -->
<g id="node6" class="node">
<title>T18437</title>
<polygon fill="none" stroke="#0058ad" points="762.34,-243.5 762.34,-272.5 975.34,-272.5 975.34,-243.5 762.34,-243.5"/>
<text text-anchor="middle" x="796.34" y="-254.3" font-family="Times,serif" font-size="14.00" fill="#0058ad">r 703 9</text>
<polyline fill="none" stroke="#0058ad" points="830.34,-243.5 830.34,-272.5 "/>
<text text-anchor="middle" x="868.84" y="-254.3" font-family="Times,serif" font-size="14.00" fill="#0058ad">r 707 nil</text>
<polyline fill="none" stroke="#0058ad" points="907.34,-243.5 907.34,-272.5 "/>
<text text-anchor="middle" x="941.34" y="-254.3" font-family="Times,serif" font-size="14.00" fill="#0058ad">r 709 1</text>
</g>
<!-- T18396 -->
<g id="node16" class="node">
<title>T18396</title>
<polygon fill="none" stroke="#0058ad" points="252.84,-162.5 252.84,-191.5 400.84,-191.5 400.84,-162.5 252.84,-162.5"/>
<text text-anchor="middle" x="289.84" y="-173.3" font-family="Times,serif" font-size="14.00" fill="#0058ad">w 707 1</text>
<polyline fill="none" stroke="#0058ad" points="326.84,-162.5 326.84,-191.5 "/>
<text text-anchor="middle" x="363.84" y="-173.3" font-family="Times,serif" font-size="14.00" fill="#0058ad">w 708 1</text>
</g>
<!-- T18437&#45;&gt;T18396 -->
<g id="edge9" class="edge">
<title>T18437:f1&#45;&gt;T18396:f0</title>
<path fill="none" stroke="#5b00c0" d="M868.84,-243C868.84,-212.98 368.39,-222.61 298.02,-198.16"/>
<polygon fill="#5b00c0" stroke="#5b00c0" points="299.93,-195.22 289.84,-192 295.72,-200.81 299.93,-195.22"/>
<text text-anchor="middle" x="768.34" y="-213.8" font-family="Times,serif" font-size="14.00" fill="#5b00c0">rw</text>
</g>
<!-- T18461 -->
<g id="node7" class="node">
<title>T18461</title>
<polygon fill="none" stroke="#0058ad" points="896.84,-567.5 896.84,-596.5 1210.84,-596.5 1210.84,-567.5 896.84,-567.5"/>
<text text-anchor="middle" x="935.34" y="-578.3" font-family="Times,serif" font-size="14.00" fill="#0058ad">r 708 11</text>
<polyline fill="none" stroke="#0058ad" points="973.84,-567.5 973.84,-596.5 "/>
<text text-anchor="middle" x="1012.34" y="-578.3" font-family="Times,serif" font-size="14.00" fill="#0058ad">r 703 10</text>
<polyline fill="none" stroke="#0058ad" points="1050.84,-567.5 1050.84,-596.5 "/>
<text text-anchor="middle" x="1089.34" y="-578.3" font-family="Times,serif" font-size="14.00" fill="#0058ad">r 692 nil</text>
<polyline fill="none" stroke="#0058ad" points="1127.84,-567.5 1127.84,-596.5 "/>
<text text-anchor="middle" x="1169.34" y="-578.3" font-family="Times,serif" font-size="14.00" fill="#0058ad">w 708 13</text>
</g>
<!-- T18461&#45;&gt;T18414 -->
<g id="edge10" class="edge">
<title>T18461:f2&#45;&gt;T18414:f1</title>
<path fill="none" stroke="#5b00c0" d="M1089.84,-567C1089.84,-545.42 723.32,-551.04 701.84,-549 603.07,-539.61 481.71,-613.35 473.3,-526.18"/>
<polygon fill="#5b00c0" stroke="#5b00c0" points="476.79,-525.83 472.84,-516 469.79,-526.15 476.79,-525.83"/>
<text text-anchor="middle" x="711.34" y="-537.8" font-family="Times,serif" font-size="14.00" fill="#5b00c0">rw</text>
</g>
<!-- T18207 -->
<g id="node18" class="node">
<title>T18207</title>
<polygon fill="none" stroke="#0058ad" points="1041.84,-486.5 1041.84,-515.5 1275.84,-515.5 1275.84,-486.5 1041.84,-486.5"/>
<text text-anchor="middle" x="1080.34" y="-497.3" font-family="Times,serif" font-size="14.00" fill="#0058ad">r 698 10</text>
<polyline fill="none" stroke="#0058ad" points="1118.84,-486.5 1118.84,-515.5 "/>
<text text-anchor="middle" x="1155.84" y="-497.3" font-family="Times,serif" font-size="14.00" fill="#0058ad">w 692 2</text>
<polyline fill="none" stroke="#0058ad" points="1192.84,-486.5 1192.84,-515.5 "/>
<text text-anchor="middle" x="1234.34" y="-497.3" font-family="Times,serif" font-size="14.00" fill="#0058ad">w 698 12</text>
</g>
<!-- T18461&#45;&gt;T18207 -->
<g id="edge11" class="edge">
<title>T18461:f2&#45;&gt;T18207:f1</title>
<path fill="none" stroke="#5b00c0" d="M1089.84,-567C1089.84,-533.84 1142.65,-548.86 1153.79,-525.86"/>
<polygon fill="#5b00c0" stroke="#5b00c0" points="1157.23,-526.5 1155.84,-516 1150.38,-525.08 1157.23,-526.5"/>
<text text-anchor="middle" x="1154.34" y="-537.8" font-family="Times,serif" font-size="14.00" fill="#5b00c0">rw</text>
</g>
<!-- T18273 -->
<g id="node8" class="node">
<title>T18273</title>
<polygon fill="none" stroke="#0058ad" points="1242.84,-162.5 1242.84,-191.5 1470.84,-191.5 1470.84,-162.5 1242.84,-162.5"/>
<text text-anchor="middle" x="1281.34" y="-173.3" font-family="Times,serif" font-size="14.00" fill="#0058ad">r 700 12</text>
<polyline fill="none" stroke="#0058ad" points="1319.84,-162.5 1319.84,-191.5 "/>
<text text-anchor="middle" x="1353.84" y="-173.3" font-family="Times,serif" font-size="14.00" fill="#0058ad">r 686 8</text>
<polyline fill="none" stroke="#0058ad" points="1387.84,-162.5 1387.84,-191.5 "/>
<text text-anchor="middle" x="1429.34" y="-173.3" font-family="Times,serif" font-size="14.00" fill="#0058ad">w 700 13</text>
</g>
<!-- T18277 -->
<g id="node19" class="node">
<title>T18277</title>
<polygon fill="none" stroke="#0058ad" points="1379.84,-81.5 1379.84,-110.5 1699.84,-110.5 1699.84,-81.5 1379.84,-81.5"/>
<text text-anchor="middle" x="1418.34" y="-92.3" font-family="Times,serif" font-size="14.00" fill="#0058ad">r 700 13</text>
<polyline fill="none" stroke="#0058ad" points="1456.84,-81.5 1456.84,-110.5 "/>
<text text-anchor="middle" x="1498.34" y="-92.3" font-family="Times,serif" font-size="14.00" fill="#0058ad">w 686 13</text>
<polyline fill="none" stroke="#0058ad" points="1539.84,-81.5 1539.84,-110.5 "/>
<text text-anchor="middle" x="1578.34" y="-92.3" font-family="Times,serif" font-size="14.00" fill="#0058ad">r 702 nil</text>
<polyline fill="none" stroke="#0058ad" points="1616.84,-81.5 1616.84,-110.5 "/>
<text text-anchor="middle" x="1658.34" y="-92.3" font-family="Times,serif" font-size="14.00" fill="#0058ad">w 686 14</text>
</g>
<!-- T18273&#45;&gt;T18277 -->
<g id="edge12" class="edge">
<title>T18273:f2&#45;&gt;T18277:f0</title>
<path fill="none" stroke="#c000a5" d="M1429.84,-162C1429.84,-142.53 1421.45,-136.25 1418.7,-121.1"/>
<polygon fill="#c000a5" stroke="#c000a5" points="1422.17,-120.67 1417.84,-111 1415.2,-121.26 1422.17,-120.67"/>
<text text-anchor="middle" x="1435.34" y="-132.8" font-family="Times,serif" font-size="14.00" fill="#c000a5">wr</text>
</g>
<!-- T18222 -->
<g id="node9" class="node">
<title>T18222</title>
<polygon fill="none" stroke="#0058ad" points="1158.84,-405.5 1158.84,-434.5 1380.84,-434.5 1380.84,-405.5 1158.84,-405.5"/>
<text text-anchor="middle" x="1192.84" y="-416.3" font-family="Times,serif" font-size="14.00" fill="#0058ad">r 693 5</text>
<polyline fill="none" stroke="#0058ad" points="1226.84,-405.5 1226.84,-434.5 "/>
<text text-anchor="middle" x="1265.34" y="-416.3" font-family="Times,serif" font-size="14.00" fill="#0058ad">r 698 12</text>
<polyline fill="none" stroke="#0058ad" points="1303.84,-405.5 1303.84,-434.5 "/>
<text text-anchor="middle" x="1342.34" y="-416.3" font-family="Times,serif" font-size="14.00" fill="#0058ad">r 700 nil</text>
</g>
<!-- T18222&#45;&gt;T18273 -->
<g id="edge13" class="edge">
<title>T18222:f2&#45;&gt;T18273:f2</title>
<path fill="none" stroke="#5b00c0" d="M1381.84,-420C1493.41,-420 1581.36,-191.95 1482.04,-177.7"/>
<polygon fill="#5b00c0" stroke="#5b00c0" points="1482.05,-174.19 1471.84,-177 1481.57,-181.17 1482.05,-174.19"/>
<text text-anchor="middle" x="1524.34" y="-294.8" font-family="Times,serif" font-size="14.00" fill="#5b00c0">rw</text>
</g>
<!-- T18267 -->
<g id="node11" class="node">
<title>T18267</title>
<polygon fill="none" stroke="#0058ad" points="1031.84,-324.5 1031.84,-353.5 1333.84,-353.5 1333.84,-324.5 1031.84,-324.5"/>
<text text-anchor="middle" x="1070.34" y="-335.3" font-family="Times,serif" font-size="14.00" fill="#0058ad">r 701 nil</text>
<polyline fill="none" stroke="#0058ad" points="1108.84,-324.5 1108.84,-353.5 "/>
<text text-anchor="middle" x="1145.84" y="-335.3" font-family="Times,serif" font-size="14.00" fill="#0058ad">w 700 9</text>
<polyline fill="none" stroke="#0058ad" points="1182.84,-324.5 1182.84,-353.5 "/>
<text text-anchor="middle" x="1216.84" y="-335.3" font-family="Times,serif" font-size="14.00" fill="#0058ad">r 700 9</text>
<polyline fill="none" stroke="#0058ad" points="1250.84,-324.5 1250.84,-353.5 "/>
<text text-anchor="middle" x="1292.34" y="-335.3" font-family="Times,serif" font-size="14.00" fill="#0058ad">w 700 10</text>
</g>
<!-- T18222&#45;&gt;T18267 -->
<g id="edge15" class="edge">
<title>T18222:f2&#45;&gt;T18267:f3</title>
<path fill="none" stroke="#5b00c0" d="M1342.84,-405C1342.84,-377.23 1304.55,-383.31 1294.98,-364"/>
<polygon fill="#5b00c0" stroke="#5b00c0" points="1298.36,-363.04 1292.84,-354 1291.51,-364.51 1298.36,-363.04"/>
<text text-anchor="middle" x="1342.34" y="-375.8" font-family="Times,serif" font-size="14.00" fill="#5b00c0">rw</text>
</g>
<!-- T18270 -->
<g id="node14" class="node">
<title>T18270</title>
<polygon fill="none" stroke="#0058ad" points="1162.84,-243.5 1162.84,-272.5 1476.84,-272.5 1476.84,-243.5 1162.84,-243.5"/>
<text text-anchor="middle" x="1201.34" y="-254.3" font-family="Times,serif" font-size="14.00" fill="#0058ad">r 700 10</text>
<polyline fill="none" stroke="#0058ad" points="1239.84,-243.5 1239.84,-272.5 "/>
<text text-anchor="middle" x="1281.34" y="-254.3" font-family="Times,serif" font-size="14.00" fill="#0058ad">w 700 12</text>
<polyline fill="none" stroke="#0058ad" points="1322.84,-243.5 1322.84,-272.5 "/>
<text text-anchor="middle" x="1361.34" y="-254.3" font-family="Times,serif" font-size="14.00" fill="#0058ad">r 700 12</text>
<polyline fill="none" stroke="#0058ad" points="1399.84,-243.5 1399.84,-272.5 "/>
<text text-anchor="middle" x="1438.34" y="-254.3" font-family="Times,serif" font-size="14.00" fill="#0058ad">r 701 nil</text>
</g>
<!-- T18222&#45;&gt;T18270 -->
<g id="edge14" class="edge">
<title>T18222:f2&#45;&gt;T18270:f1</title>
<path fill="none" stroke="#5b00c0" d="M1342.84,-405C1342.84,-395.13 1352.8,-396.39 1355.84,-387 1362.24,-367.2 1344.99,-327.49 1342.84,-324 1331.25,-305.26 1323.02,-304.79 1305.84,-291 1298.83,-285.38 1290.25,-285.28 1285.18,-282.01"/>
<polygon fill="#5b00c0" stroke="#5b00c0" points="1288.33,-280.48 1280.84,-273 1282.03,-283.53 1288.33,-280.48"/>
<text text-anchor="middle" x="1362.34" y="-335.3" font-family="Times,serif" font-size="14.00" fill="#5b00c0">rw</text>
</g>
<!-- T18435 -->
<g id="node10" class="node">
<title>T18435</title>
<polygon fill="none" stroke="#0058ad" points="36.34,-81.5 36.34,-110.5 323.34,-110.5 323.34,-81.5 36.34,-81.5"/>
<text text-anchor="middle" x="74.84" y="-92.3" font-family="Times,serif" font-size="14.00" fill="#0058ad">r 708 10</text>
<polyline fill="none" stroke="#0058ad" points="113.34,-81.5 113.34,-110.5 "/>
<text text-anchor="middle" x="150.34" y="-92.3" font-family="Times,serif" font-size="14.00" fill="#0058ad">w 709 2</text>
<polyline fill="none" stroke="#0058ad" points="187.34,-81.5 187.34,-110.5 "/>
<text text-anchor="middle" x="221.34" y="-92.3" font-family="Times,serif" font-size="14.00" fill="#0058ad">r 709 2</text>
<polyline fill="none" stroke="#0058ad" points="255.34,-81.5 255.34,-110.5 "/>
<text text-anchor="middle" x="289.34" y="-92.3" font-family="Times,serif" font-size="14.00" fill="#0058ad">r 707 1</text>
</g>
<!-- T18445 -->
<g id="node15" class="node">
<title>T18445</title>
<polygon fill="none" stroke="#0058ad" points="115.84,-0.5 115.84,-29.5 411.84,-29.5 411.84,-0.5 115.84,-0.5"/>
<text text-anchor="middle" x="149.84" y="-11.3" font-family="Times,serif" font-size="14.00" fill="#0058ad">r 709 2</text>
<polyline fill="none" stroke="#0058ad" points="183.84,-0.5 183.84,-29.5 "/>
<text text-anchor="middle" x="222.34" y="-11.3" font-family="Times,serif" font-size="14.00" fill="#0058ad">r 708 10</text>
<polyline fill="none" stroke="#0058ad" points="260.84,-0.5 260.84,-29.5 "/>
<text text-anchor="middle" x="294.84" y="-11.3" font-family="Times,serif" font-size="14.00" fill="#0058ad">r 709 2</text>
<polyline fill="none" stroke="#0058ad" points="328.84,-0.5 328.84,-29.5 "/>
<text text-anchor="middle" x="370.34" y="-11.3" font-family="Times,serif" font-size="14.00" fill="#0058ad">w 708 11</text>
</g>
<!-- T18435&#45;&gt;T18445 -->
<g id="edge16" class="edge">
<title>T18435:f1&#45;&gt;T18445:f0</title>
<path fill="none" stroke="#c000a5" d="M149.84,-81C149.84,-62.23 149.84,-55.12 149.84,-40.35"/>
<polygon fill="#c000a5" stroke="#c000a5" points="153.34,-40 149.84,-30 146.34,-40 153.34,-40"/>
<text text-anchor="middle" x="159.34" y="-51.8" font-family="Times,serif" font-size="14.00" fill="#c000a5">wr</text>
</g>
<!-- T18267&#45;&gt;T18270 -->
<g id="edge17" class="edge">
<title>T18267:f3&#45;&gt;T18270:f0</title>
<path fill="none" stroke="#c000a5" d="M1292.84,-324C1292.84,-281.27 1215.97,-313.11 1202.76,-283.19"/>
<polygon fill="#c000a5" stroke="#c000a5" points="1206.13,-282.18 1200.84,-273 1199.25,-283.48 1206.13,-282.18"/>
<text text-anchor="middle" x="1292.34" y="-294.8" font-family="Times,serif" font-size="14.00" fill="#c000a5">wr</text>
</g>
<!-- T18433&#45;&gt;T18461 -->
<g id="edge18" class="edge">
<title>T18433:f1&#45;&gt;T18461:f1</title>
<path fill="none" stroke="#c000a5" d="M265.84,-678C305.08,-678 931.57,-643.16 1004.86,-604.3"/>
<polygon fill="#c000a5" stroke="#c000a5" points="1007.45,-606.65 1011.84,-597 1002.39,-601.81 1007.45,-606.65"/>
<text text-anchor="middle" x="973.34" y="-626.3" font-family="Times,serif" font-size="14.00" fill="#c000a5">wr</text>
</g>
<!-- T18433&#45;&gt;T18435 -->
<g id="edge20" class="edge">
<title>T18433:f0&#45;&gt;T18435:f0</title>
<path fill="none" stroke="#c000a5" d="M97.84,-678C51.49,-678 54.84,-629.35 54.84,-583 54.84,-583 54.84,-583 54.84,-176 54.84,-149.55 70.15,-142.76 73.98,-121.23"/>
<polygon fill="#c000a5" stroke="#c000a5" points="77.49,-121.26 74.84,-111 70.51,-120.67 77.49,-121.26"/>
<text text-anchor="middle" x="64.34" y="-375.8" font-family="Times,serif" font-size="14.00" fill="#c000a5">wr</text>
</g>
<!-- T18433&#45;&gt;T18445 -->
<g id="edge19" class="edge">
<title>T18433:f0&#45;&gt;T18445:f1</title>
<path fill="none" stroke="#c000a5" d="M97.84,-678C39.67,-678 7.84,-641.16 7.84,-583 7.84,-583 7.84,-583 7.84,-95 7.84,-62.3 -49.14,-98.11 145.84,-48 159.23,-44.56 199.54,-46.19 215.36,-38.22"/>
<polygon fill="#c000a5" stroke="#c000a5" points="218.39,-40.02 221.84,-30 212.9,-35.69 218.39,-40.02"/>
<text text-anchor="middle" x="17.34" y="-335.3" font-family="Times,serif" font-size="14.00" fill="#c000a5">wr</text>
</g>
<!-- T18544&#45;&gt;T18396 -->
<g id="edge21" class="edge">
<title>T18544:f0&#45;&gt;T18396:f0</title>
<path fill="none" stroke="#5b00c0" d="M162.84,-243C162.84,-197.22 197.2,-179.52 241.6,-177.25"/>
<polygon fill="#5b00c0" stroke="#5b00c0" points="241.93,-180.75 251.84,-177 241.75,-173.75 241.93,-180.75"/>
<text text-anchor="middle" x="180.34" y="-213.8" font-family="Times,serif" font-size="14.00" fill="#5b00c0">rw</text>
</g>
<!-- T18270&#45;&gt;T18273 -->
<g id="edge22" class="edge">
<title>T18270:f1&#45;&gt;T18273:f0</title>
<path fill="none" stroke="#c000a5" d="M1280.84,-243C1280.84,-224.23 1280.84,-217.12 1280.84,-202.35"/>
<polygon fill="#c000a5" stroke="#c000a5" points="1284.34,-202 1280.84,-192 1277.34,-202 1284.34,-202"/>
<text text-anchor="middle" x="1290.34" y="-213.8" font-family="Times,serif" font-size="14.00" fill="#c000a5">wr</text>
</g>
<!-- T18445&#45;&gt;T18461 -->
<g id="edge23" class="edge">
<title>T18445:f3&#45;&gt;T18461:f0</title>
<path fill="none" stroke="#c000a5" d="M412.84,-15C479.1,-15 1003.84,-28.73 1003.84,-95 1003.84,-502 1003.84,-502 1003.84,-502 1003.84,-540.35 946.68,-527.83 936.41,-557.04"/>
<polygon fill="#c000a5" stroke="#c000a5" points="932.94,-556.58 934.84,-567 939.85,-557.67 932.94,-556.58"/>
<text text-anchor="middle" x="1013.34" y="-294.8" font-family="Times,serif" font-size="14.00" fill="#c000a5">wr</text>
</g>
<!-- T18396&#45;&gt;T18435 -->
<g id="edge24" class="edge">
<title>T18396:f0&#45;&gt;T18435:f3</title>
<path fill="none" stroke="#c000a5" d="M289.84,-162C289.84,-143.23 289.84,-136.12 289.84,-121.35"/>
<polygon fill="#c000a5" stroke="#c000a5" points="293.34,-121 289.84,-111 286.34,-121 293.34,-121"/>
<text text-anchor="middle" x="299.34" y="-132.8" font-family="Times,serif" font-size="14.00" fill="#c000a5">wr</text>
</g>
<!-- T18441&#45;&gt;T18396 -->
<g id="edge25" class="edge">
<title>T18441:f1&#45;&gt;T18396:f0</title>
<path fill="none" stroke="#5b00c0" d="M432.84,-615C432.84,-595.15 202.26,-368.62 188.84,-354 156.06,-318.3 133.21,-318.24 115.84,-273 90.5,-207.04 170.13,-179.5 241.79,-177.16"/>
<polygon fill="#5b00c0" stroke="#5b00c0" points="241.89,-180.66 251.84,-177 241.78,-173.66 241.89,-180.66"/>
<text text-anchor="middle" x="278.34" y="-416.3" font-family="Times,serif" font-size="14.00" fill="#5b00c0">rw</text>
</g>
<!-- T18207&#45;&gt;T18222 -->
<g id="edge26" class="edge">
<title>T18207:f2&#45;&gt;T18222:f1</title>
<path fill="none" stroke="#c000a5" d="M1234.84,-486C1234.84,-463.61 1256.59,-461.44 1263.05,-445.05"/>
<polygon fill="#c000a5" stroke="#c000a5" points="1266.53,-445.46 1264.84,-435 1259.64,-444.23 1266.53,-445.46"/>
<text text-anchor="middle" x="1266.34" y="-456.8" font-family="Times,serif" font-size="14.00" fill="#c000a5">wr</text>
</g>
<!-- T18277&#45;&gt;T18287 -->
<g id="edge27" class="edge">
<title>T18277:f2&#45;&gt;T18287:f1</title>
<path fill="none" stroke="#5b00c0" d="M1578.84,-111C1578.84,-140.38 1566.84,-146.62 1566.84,-176 1566.84,-679 1566.84,-679 1566.84,-679 1566.84,-861.7 763.17,-569.49 731.78,-733.64"/>
<polygon fill="#5b00c0" stroke="#5b00c0" points="728.26,-733.72 730.84,-744 735.23,-734.36 728.26,-733.72"/>
<text text-anchor="middle" x="1576.34" y="-416.3" font-family="Times,serif" font-size="14.00" fill="#5b00c0">rw</text>
</g>
<!-- T18424&#45;&gt;T18437 -->
<g id="edge29" class="edge">
<title>T18424:f2&#45;&gt;T18437:f0</title>
<path fill="none" stroke="#c000a5" d="M798.84,-324C798.84,-305.2 796.78,-298.13 796.07,-283.36"/>
<polygon fill="#c000a5" stroke="#c000a5" points="799.56,-282.92 795.84,-273 792.56,-283.08 799.56,-282.92"/>
<text text-anchor="middle" x="808.34" y="-294.8" font-family="Times,serif" font-size="14.00" fill="#c000a5">wr</text>
</g>
<!-- T18424&#45;&gt;T18527 -->
<g id="edge28" class="edge">
<title>T18424:f1&#45;&gt;T18527:f2</title>
<path fill="none" stroke="#5b00c0" d="M722.84,-324C722.84,-303.91 654.89,-297.95 635.78,-281.83"/>
<polygon fill="#5b00c0" stroke="#5b00c0" points="638.78,-280.02 630.84,-273 632.67,-283.44 638.78,-280.02"/>
<text text-anchor="middle" x="708.34" y="-294.8" font-family="Times,serif" font-size="14.00" fill="#5b00c0">rw</text>
</g>
<!-- T18527&#45;&gt;T18396 -->
<g id="edge30" class="edge">
<title>T18527:f0&#45;&gt;T18396:f0</title>
<path fill="none" stroke="#5b00c0" d="M431.84,-258C424.28,-258 429.5,-247.99 423.84,-243 378.82,-203.34 299.8,-249.63 290.7,-202.02"/>
<polygon fill="#5b00c0" stroke="#5b00c0" points="294.18,-201.66 289.84,-192 287.21,-202.26 294.18,-201.66"/>
<text text-anchor="middle" x="327.34" y="-213.8" font-family="Times,serif" font-size="14.00" fill="#5b00c0">rw</text>
</g>
</g>
</svg>
