<?xml version="1.0" encoding="UTF-8" standalone="no"?>
<!DOCTYPE svg PUBLIC "-//W3C//DTD SVG 1.1//EN"
 "http://www.w3.org/Graphics/SVG/1.1/DTD/svg11.dtd">
<!-- Generated by graphviz version 2.43.0 (0)
 -->
<!-- Title: a_graph Pages: 1 -->
<svg width="426pt" height="200pt"
 viewBox="0.00 0.00 426.00 200.00" xmlns="http://www.w3.org/2000/svg" xmlns:xlink="http://www.w3.org/1999/xlink">
<g id="graph0" class="graph" transform="scale(1 1) rotate(0) translate(4 196)">
<title>a_graph</title>
<polygon fill="white" stroke="transparent" points="-4,4 -4,-196 422,-196 422,4 -4,4"/>
<!-- T28530 -->
<g id="node1" class="node">
<title>T28530</title>
<polygon fill="none" stroke="#0058ad" points="172,-162.5 172,-191.5 418,-191.5 418,-162.5 172,-162.5"/>
<text text-anchor="middle" x="215" y="-173.3" font-family="Times,serif" font-size="14.00" fill="#0058ad">r 1086 nil</text>
<polyline fill="none" stroke="#0058ad" points="258,-162.5 258,-191.5 "/>
<text text-anchor="middle" x="299.5" y="-173.3" font-family="Times,serif" font-size="14.00" fill="#0058ad">w 1084 1</text>
<polyline fill="none" stroke="#0058ad" points="341,-162.5 341,-191.5 "/>
<text text-anchor="middle" x="379.5" y="-173.3" font-family="Times,serif" font-size="14.00" fill="#0058ad">r 1085 4</text>
</g>
<!-- T28563 -->
<g id="node3" class="node">
<title>T28563</title>
<polygon fill="none" stroke="#0058ad" points="0,-81.5 0,-110.5 258,-110.5 258,-81.5 0,-81.5"/>
<text text-anchor="middle" x="41.5" y="-92.3" font-family="Times,serif" font-size="14.00" fill="#0058ad">w 1083 9</text>
<polyline fill="none" stroke="#0058ad" points="83,-81.5 83,-110.5 "/>
<text text-anchor="middle" x="129" y="-92.3" font-family="Times,serif" font-size="14.00" fill="#0058ad">w 1085 14</text>
<polyline fill="none" stroke="#0058ad" points="175,-81.5 175,-110.5 "/>
<text text-anchor="middle" x="216.5" y="-92.3" font-family="Times,serif" font-size="14.00" fill="#0058ad">w 1086 8</text>
</g>
<!-- T28530&#45;&gt;T28563 -->
<g id="edge1" class="edge">
<title>T28530:f0&#45;&gt;T28563:f2</title>
<path fill="none" stroke="#5b00c0" d="M215,-162C215,-143.21 216.37,-136.12 216.84,-121.36"/>
<polygon fill="#5b00c0" stroke="#5b00c0" points="220.35,-121.05 217,-111 213.35,-120.95 220.35,-121.05"/>
<text text-anchor="middle" x="226.5" y="-132.8" font-family="Times,serif" font-size="14.00" fill="#5b00c0">rw</text>
</g>
<!-- T28577 -->
<g id="node2" class="node">
<title>T28577</title>
<polygon fill="none" stroke="#0058ad" points="101,-0.5 101,-29.5 347,-29.5 347,-0.5 101,-0.5"/>
<text text-anchor="middle" x="144" y="-11.3" font-family="Times,serif" font-size="14.00" fill="#0058ad">r 1084 nil</text>
<polyline fill="none" stroke="#0058ad" points="187,-0.5 187,-29.5 "/>
<text text-anchor="middle" x="228.5" y="-11.3" font-family="Times,serif" font-size="14.00" fill="#0058ad">w 1087 4</text>
<polyline fill="none" stroke="#0058ad" points="270,-0.5 270,-29.5 "/>
<text text-anchor="middle" x="308.5" y="-11.3" font-family="Times,serif" font-size="14.00" fill="#0058ad">r 1083 9</text>
</g>
<!-- T28577&#45;&gt;T28530 -->
<g id="edge2" class="edge">
<title>T28577:f0&#45;&gt;T28530:f1</title>
<path fill="none" stroke="#5b00c0" d="M144,-30C144,-59.38 253.41,-28.06 275,-48 310.57,-80.86 301.51,-106.52 300.15,-151.99"/>
<polygon fill="#5b00c0" stroke="#5b00c0" points="296.65,-151.95 300,-162 303.65,-152.06 296.65,-151.95"/>
<text text-anchor="middle" x="312.5" y="-92.3" font-family="Times,serif" font-size="14.00" fill="#5b00c0">rw</text>
</g>
<!-- T28563&#45;&gt;T28577 -->
<g id="edge3" class="edge">
<title>T28563:f0&#45;&gt;T28577:f2</title>
<path fill="none" stroke="#c000a5" d="M41,-81C41,-53.53 261.11,-58.86 302.38,-37.54"/>
<polygon fill="#c000a5" stroke="#c000a5" points="305.03,-39.82 309,-30 299.77,-35.2 305.03,-39.82"/>
<text text-anchor="middle" x="261.5" y="-51.8" font-family="Times,serif" font-size="14.00" fill="#c000a5">wr</text>
</g>
</g>
</svg>
