<?xml version="1.0" encoding="UTF-8" standalone="no"?>
<!DOCTYPE svg PUBLIC "-//W3C//DTD SVG 1.1//EN"
 "http://www.w3.org/Graphics/SVG/1.1/DTD/svg11.dtd">
<!-- Generated by graphviz version 2.43.0 (0)
 -->
<!-- Title: a_graph Pages: 1 -->
<svg width="1432pt" height="1106pt"
 viewBox="0.00 0.00 1431.50 1106.00" xmlns="http://www.w3.org/2000/svg" xmlns:xlink="http://www.w3.org/1999/xlink">
<g id="graph0" class="graph" transform="scale(1 1) rotate(0) translate(4 1102)">
<title>a_graph</title>
<polygon fill="white" stroke="transparent" points="-4,4 -4,-1102 1427.5,-1102 1427.5,4 -4,4"/>
<!-- T5837 -->
<g id="node1" class="node">
<title>T5837</title>
<polygon fill="none" stroke="#0058ad" points="1272.5,-1068.5 1272.5,-1097.5 1423.5,-1097.5 1423.5,-1068.5 1272.5,-1068.5"/>
<text text-anchor="middle" x="1311" y="-1079.3" font-family="Times,serif" font-size="14.00" fill="#0058ad">r 228 nil</text>
<polyline fill="none" stroke="#0058ad" points="1349.5,-1068.5 1349.5,-1097.5 "/>
<text text-anchor="middle" x="1386.5" y="-1079.3" font-family="Times,serif" font-size="14.00" fill="#0058ad">w 228 3</text>
</g>
<!-- T5859 -->
<g id="node10" class="node">
<title>T5859</title>
<polygon fill="none" stroke="#0058ad" points="992.5,-987.5 992.5,-1016.5 1235.5,-1016.5 1235.5,-987.5 992.5,-987.5"/>
<text text-anchor="middle" x="1031" y="-998.3" font-family="Times,serif" font-size="14.00" fill="#0058ad">r 229 nil</text>
<polyline fill="none" stroke="#0058ad" points="1069.5,-987.5 1069.5,-1016.5 "/>
<text text-anchor="middle" x="1111" y="-998.3" font-family="Times,serif" font-size="14.00" fill="#0058ad">w 228 10</text>
<polyline fill="none" stroke="#0058ad" points="1152.5,-987.5 1152.5,-1016.5 "/>
<text text-anchor="middle" x="1194" y="-998.3" font-family="Times,serif" font-size="14.00" fill="#0058ad">w 228 11</text>
</g>
<!-- T5837&#45;&gt;T5859 -->
<g id="edge2" class="edge">
<title>T5837:f0&#45;&gt;T5859:f2</title>
<path fill="none" stroke="#5b00c0" d="M1271,-1083C1229.45,-1083 1199.07,-1065.22 1194.58,-1027.12"/>
<polygon fill="#5b00c0" stroke="#5b00c0" points="1198.06,-1026.79 1194,-1017 1191.07,-1027.18 1198.06,-1026.79"/>
<text text-anchor="middle" x="1210.5" y="-1038.8" font-family="Times,serif" font-size="14.00" fill="#5b00c0">rw</text>
</g>
<!-- T5852 -->
<g id="node16" class="node">
<title>T5852</title>
<polygon fill="none" stroke="#0058ad" points="669.5,-420.5 669.5,-449.5 820.5,-449.5 820.5,-420.5 669.5,-420.5"/>
<text text-anchor="middle" x="706.5" y="-431.3" font-family="Times,serif" font-size="14.00" fill="#0058ad">w 228 9</text>
<polyline fill="none" stroke="#0058ad" points="743.5,-420.5 743.5,-449.5 "/>
<text text-anchor="middle" x="782" y="-431.3" font-family="Times,serif" font-size="14.00" fill="#0058ad">r 229 nil</text>
</g>
<!-- T5837&#45;&gt;T5852 -->
<g id="edge3" class="edge">
<title>T5837:f0&#45;&gt;T5852:f0</title>
<path fill="none" stroke="#5b00c0" d="M1271,-1083C1235.31,-1083 1264,-1038.69 1264,-1003 1264,-1003 1264,-1003 1264,-798.5 1264,-711.67 1106.26,-638.76 1085,-630 1027.41,-606.26 1006.95,-624.89 946,-612 872.53,-596.46 855.11,-588.14 784,-564 745.23,-550.84 721.19,-564.74 698,-531 692.02,-522.3 700.94,-480.34 704.58,-460.04"/>
<polygon fill="#5b00c0" stroke="#5b00c0" points="708.06,-460.39 706,-450 701.13,-459.41 708.06,-460.39"/>
<text text-anchor="middle" x="1268.5" y="-755.3" font-family="Times,serif" font-size="14.00" fill="#5b00c0">rw</text>
</g>
<!-- T5861 -->
<g id="node20" class="node">
<title>T5861</title>
<polygon fill="none" stroke="#0058ad" points="1016.5,-420.5 1016.5,-449.5 1259.5,-449.5 1259.5,-420.5 1016.5,-420.5"/>
<text text-anchor="middle" x="1058" y="-431.3" font-family="Times,serif" font-size="14.00" fill="#0058ad">w 228 12</text>
<polyline fill="none" stroke="#0058ad" points="1099.5,-420.5 1099.5,-449.5 "/>
<text text-anchor="middle" x="1141" y="-431.3" font-family="Times,serif" font-size="14.00" fill="#0058ad">w 228 13</text>
<polyline fill="none" stroke="#0058ad" points="1182.5,-420.5 1182.5,-449.5 "/>
<text text-anchor="middle" x="1221" y="-431.3" font-family="Times,serif" font-size="14.00" fill="#0058ad">r 228 13</text>
</g>
<!-- T5837&#45;&gt;T5861 -->
<g id="edge4" class="edge">
<title>T5837:f0&#45;&gt;T5861:f1</title>
<path fill="none" stroke="#5b00c0" d="M1311,-1068C1311,-1057.87 1319.03,-1058.19 1325,-1050 1339.88,-1029.57 1357,-1028.27 1357,-1003 1357,-1003 1357,-1003 1357,-798.5 1357,-720.26 1343.25,-698.81 1306,-630 1283.62,-588.66 1269.58,-583.81 1238,-549 1229.07,-539.15 1163.27,-484 1145.44,-459.2"/>
<polygon fill="#5b00c0" stroke="#5b00c0" points="1148.5,-457.48 1141,-450 1142.2,-460.53 1148.5,-457.48"/>
<text text-anchor="middle" x="1365.5" y="-755.3" font-family="Times,serif" font-size="14.00" fill="#5b00c0">rw</text>
</g>
<!-- T5853 -->
<g id="node21" class="node">
<title>T5853</title>
<polygon fill="none" stroke="#0058ad" points="1034.5,-324.5 1034.5,-353.5 1185.5,-353.5 1185.5,-324.5 1034.5,-324.5"/>
<text text-anchor="middle" x="1073" y="-335.3" font-family="Times,serif" font-size="14.00" fill="#0058ad">r 229 nil</text>
<polyline fill="none" stroke="#0058ad" points="1111.5,-324.5 1111.5,-353.5 "/>
<text text-anchor="middle" x="1148.5" y="-335.3" font-family="Times,serif" font-size="14.00" fill="#0058ad">w 228 8</text>
</g>
<!-- T5837&#45;&gt;T5853 -->
<g id="edge1" class="edge">
<title>T5837:f0&#45;&gt;T5853:f1</title>
<path fill="none" stroke="#5b00c0" d="M1311,-1068C1311,-1039.11 1311,-1031.89 1311,-1003 1311,-1003 1311,-1003 1311,-798.5 1311,-651.44 1386.04,-602.69 1327,-468 1294.42,-393.69 1273.39,-343.27 1197.1,-339.26"/>
<polygon fill="#5b00c0" stroke="#5b00c0" points="1197.09,-335.76 1187,-339 1196.91,-342.75 1197.09,-335.76"/>
<text text-anchor="middle" x="1329.5" y="-714.8" font-family="Times,serif" font-size="14.00" fill="#5b00c0">rw</text>
</g>
<!-- T5878 -->
<g id="node2" class="node">
<title>T5878</title>
<polygon fill="none" stroke="#0058ad" points="549.5,-825.5 549.5,-854.5 694.5,-854.5 694.5,-825.5 549.5,-825.5"/>
<text text-anchor="middle" x="588" y="-836.3" font-family="Times,serif" font-size="14.00" fill="#0058ad">r 230 nil</text>
<polyline fill="none" stroke="#0058ad" points="626.5,-825.5 626.5,-854.5 "/>
<text text-anchor="middle" x="660.5" y="-836.3" font-family="Times,serif" font-size="14.00" fill="#0058ad">r 229 2</text>
</g>
<!-- T5922 -->
<g id="node3" class="node">
<title>T5922</title>
<polygon fill="none" stroke="#0058ad" points="184,-744.5 184,-773.5 486,-773.5 486,-744.5 184,-744.5"/>
<text text-anchor="middle" x="218" y="-755.3" font-family="Times,serif" font-size="14.00" fill="#0058ad">r 226 1</text>
<polyline fill="none" stroke="#0058ad" points="252,-744.5 252,-773.5 "/>
<text text-anchor="middle" x="293.5" y="-755.3" font-family="Times,serif" font-size="14.00" fill="#0058ad">w 230 11</text>
<polyline fill="none" stroke="#0058ad" points="335,-744.5 335,-773.5 "/>
<text text-anchor="middle" x="373.5" y="-755.3" font-family="Times,serif" font-size="14.00" fill="#0058ad">r 227 nil</text>
<polyline fill="none" stroke="#0058ad" points="412,-744.5 412,-773.5 "/>
<text text-anchor="middle" x="449" y="-755.3" font-family="Times,serif" font-size="14.00" fill="#0058ad">w 227 2</text>
</g>
<!-- T5878&#45;&gt;T5922 -->
<g id="edge6" class="edge">
<title>T5878:f0&#45;&gt;T5922:f1</title>
<path fill="none" stroke="#5b00c0" d="M548,-840C544.92,-840 331.78,-808.33 329,-807 312.93,-799.32 299,-796.64 294.51,-783.94"/>
<polygon fill="#5b00c0" stroke="#5b00c0" points="297.96,-783.36 293,-774 291.04,-784.41 297.96,-783.36"/>
<text text-anchor="middle" x="338.5" y="-795.8" font-family="Times,serif" font-size="14.00" fill="#5b00c0">rw</text>
</g>
<!-- T5897 -->
<g id="node4" class="node">
<title>T5897</title>
<polygon fill="none" stroke="#0058ad" points="310.5,-162.5 310.5,-191.5 597.5,-191.5 597.5,-162.5 310.5,-162.5"/>
<text text-anchor="middle" x="349" y="-173.3" font-family="Times,serif" font-size="14.00" fill="#0058ad">r 230 nil</text>
<polyline fill="none" stroke="#0058ad" points="387.5,-162.5 387.5,-191.5 "/>
<text text-anchor="middle" x="421.5" y="-173.3" font-family="Times,serif" font-size="14.00" fill="#0058ad">r 208 7</text>
<polyline fill="none" stroke="#0058ad" points="455.5,-162.5 455.5,-191.5 "/>
<text text-anchor="middle" x="492.5" y="-173.3" font-family="Times,serif" font-size="14.00" fill="#0058ad">w 230 3</text>
<polyline fill="none" stroke="#0058ad" points="529.5,-162.5 529.5,-191.5 "/>
<text text-anchor="middle" x="563.5" y="-173.3" font-family="Times,serif" font-size="14.00" fill="#0058ad">r 226 1</text>
</g>
<!-- T5878&#45;&gt;T5897 -->
<g id="edge7" class="edge">
<title>T5878:f0&#45;&gt;T5897:f2</title>
<path fill="none" stroke="#5b00c0" d="M588,-825C588,-675.19 567.87,-631.9 495,-501 481.12,-476.07 468.64,-475.58 456,-450 419.9,-376.92 418.76,-353.79 408,-273 406.24,-259.78 401.43,-254.6 408,-243 427.76,-208.11 481.96,-230.98 491.54,-202.15"/>
<polygon fill="#5b00c0" stroke="#5b00c0" points="495.04,-202.4 493,-192 488.12,-201.4 495.04,-202.4"/>
<text text-anchor="middle" x="520.5" y="-512.3" font-family="Times,serif" font-size="14.00" fill="#5b00c0">rw</text>
</g>
<!-- T5936 -->
<g id="node7" class="node">
<title>T5936</title>
<polygon fill="none" stroke="#0058ad" points="58.5,-81.5 58.5,-110.5 369.5,-110.5 369.5,-81.5 58.5,-81.5"/>
<text text-anchor="middle" x="95.5" y="-92.3" font-family="Times,serif" font-size="14.00" fill="#0058ad">w 227 5</text>
<polyline fill="none" stroke="#0058ad" points="132.5,-81.5 132.5,-110.5 "/>
<text text-anchor="middle" x="171" y="-92.3" font-family="Times,serif" font-size="14.00" fill="#0058ad">r 229 13</text>
<polyline fill="none" stroke="#0058ad" points="209.5,-81.5 209.5,-110.5 "/>
<text text-anchor="middle" x="248" y="-92.3" font-family="Times,serif" font-size="14.00" fill="#0058ad">r 226 nil</text>
<polyline fill="none" stroke="#0058ad" points="286.5,-81.5 286.5,-110.5 "/>
<text text-anchor="middle" x="328" y="-92.3" font-family="Times,serif" font-size="14.00" fill="#0058ad">w 230 16</text>
</g>
<!-- T5878&#45;&gt;T5936 -->
<g id="edge9" class="edge">
<title>T5878:f0&#45;&gt;T5936:f3</title>
<path fill="none" stroke="#5b00c0" d="M548,-840C500.42,-840 489.17,-831.24 442,-825 374.74,-816.1 184.17,-826.33 141,-774 40.86,-652.62 94.93,-572.17 135,-420 168.89,-291.3 211.97,-271.92 287,-162 297.37,-146.8 300.32,-143.22 312,-129 315.82,-124.35 320.41,-122.62 323.69,-120.09"/>
<polygon fill="#5b00c0" stroke="#5b00c0" points="326.88,-121.54 328,-111 320.55,-118.54 326.88,-121.54"/>
<text text-anchor="middle" x="131.5" y="-471.8" font-family="Times,serif" font-size="14.00" fill="#5b00c0">rw</text>
</g>
<!-- T5886 -->
<g id="node8" class="node">
<title>T5886</title>
<polygon fill="none" stroke="#0058ad" points="790,-81.5 790,-110.5 1074,-110.5 1074,-81.5 790,-81.5"/>
<text text-anchor="middle" x="827" y="-92.3" font-family="Times,serif" font-size="14.00" fill="#0058ad">w 230 2</text>
<polyline fill="none" stroke="#0058ad" points="864,-81.5 864,-110.5 "/>
<text text-anchor="middle" x="901" y="-92.3" font-family="Times,serif" font-size="14.00" fill="#0058ad">w 229 5</text>
<polyline fill="none" stroke="#0058ad" points="938,-81.5 938,-110.5 "/>
<text text-anchor="middle" x="972" y="-92.3" font-family="Times,serif" font-size="14.00" fill="#0058ad">r 230 2</text>
<polyline fill="none" stroke="#0058ad" points="1006,-81.5 1006,-110.5 "/>
<text text-anchor="middle" x="1040" y="-92.3" font-family="Times,serif" font-size="14.00" fill="#0058ad">r 229 5</text>
</g>
<!-- T5878&#45;&gt;T5886 -->
<g id="edge8" class="edge">
<title>T5878:f0&#45;&gt;T5886:f0</title>
<path fill="none" stroke="#5b00c0" d="M588,-825C588,-815.13 595.82,-815.4 601,-807 647.52,-731.53 624.75,-686.59 693,-630 810.22,-532.8 930.21,-653.24 1021,-531 1028.95,-520.3 1027.81,-512.47 1021,-501 1012.47,-486.63 1002.53,-491.24 988,-483 962.87,-468.75 946.33,-475.08 932,-450 925.38,-438.42 924.61,-431.1 932,-420 943.48,-402.75 963.52,-419.25 975,-402 982.39,-390.9 976.67,-385.23 975,-372 962.9,-276.39 949.5,-254.06 921,-162 916.38,-147.09 920.74,-139.28 909,-129 884.22,-107.3 839.28,-138.97 829.09,-121.01"/>
<polygon fill="#5b00c0" stroke="#5b00c0" points="832.47,-120.07 827,-111 825.62,-121.5 832.47,-120.07"/>
<text text-anchor="middle" x="997.5" y="-471.8" font-family="Times,serif" font-size="14.00" fill="#5b00c0">rw</text>
</g>
<!-- T5901 -->
<g id="node13" class="node">
<title>T5901</title>
<polygon fill="none" stroke="#0058ad" points="1102,-81.5 1102,-110.5 1318,-110.5 1318,-81.5 1102,-81.5"/>
<text text-anchor="middle" x="1139" y="-92.3" font-family="Times,serif" font-size="14.00" fill="#0058ad">w 230 4</text>
<polyline fill="none" stroke="#0058ad" points="1176,-81.5 1176,-110.5 "/>
<text text-anchor="middle" x="1213" y="-92.3" font-family="Times,serif" font-size="14.00" fill="#0058ad">w 229 7</text>
<polyline fill="none" stroke="#0058ad" points="1250,-81.5 1250,-110.5 "/>
<text text-anchor="middle" x="1284" y="-92.3" font-family="Times,serif" font-size="14.00" fill="#0058ad">r 230 4</text>
</g>
<!-- T5878&#45;&gt;T5901 -->
<g id="edge5" class="edge">
<title>T5878:f0&#45;&gt;T5901:f0</title>
<path fill="none" stroke="#5b00c0" d="M588,-825C588,-798.04 1039.1,-738.46 1063,-726 1156.12,-677.46 1168.63,-645.38 1235,-564 1304.23,-479.12 1326.17,-427.73 1291,-324 1278.29,-286.52 1275.16,-276.44 1254,-243 1218.58,-187.03 1203.45,-177.19 1158,-129 1153.26,-123.98 1147.45,-122.67 1143.51,-120.01"/>
<polygon fill="#5b00c0" stroke="#5b00c0" points="1146.61,-118.37 1139,-111 1140.35,-121.51 1146.61,-118.37"/>
<text text-anchor="middle" x="1305.5" y="-471.8" font-family="Times,serif" font-size="14.00" fill="#5b00c0">rw</text>
</g>
<!-- T5889 -->
<g id="node6" class="node">
<title>T5889</title>
<polygon fill="none" stroke="#0058ad" points="235.5,-663.5 235.5,-692.5 454.5,-692.5 454.5,-663.5 235.5,-663.5"/>
<text text-anchor="middle" x="269.5" y="-674.3" font-family="Times,serif" font-size="14.00" fill="#0058ad">r 230 2</text>
<polyline fill="none" stroke="#0058ad" points="303.5,-663.5 303.5,-692.5 "/>
<text text-anchor="middle" x="342" y="-674.3" font-family="Times,serif" font-size="14.00" fill="#0058ad">r 226 nil</text>
<polyline fill="none" stroke="#0058ad" points="380.5,-663.5 380.5,-692.5 "/>
<text text-anchor="middle" x="417.5" y="-674.3" font-family="Times,serif" font-size="14.00" fill="#0058ad">w 227 1</text>
</g>
<!-- T5922&#45;&gt;T5889 -->
<g id="edge10" class="edge">
<title>T5922:f2&#45;&gt;T5889:f2</title>
<path fill="none" stroke="#5b00c0" d="M374,-744C374,-701.46 433.21,-729.54 455,-693 455.91,-691.48 456.88,-689.7 457.68,-687.92"/>
<polygon fill="#5b00c0" stroke="#5b00c0" points="461.12,-687.27 456,-678 454.22,-688.44 461.12,-687.27"/>
<text text-anchor="middle" x="439.5" y="-714.8" font-family="Times,serif" font-size="14.00" fill="#5b00c0">rw</text>
</g>
<!-- T5922&#45;&gt;T5936 -->
<g id="edge11" class="edge">
<title>T5922:f2&#45;&gt;T5936:f0</title>
<path fill="none" stroke="#5b00c0" d="M374,-744C374,-725.34 309.57,-732.27 292,-726 261.49,-715.11 247.86,-717.79 227,-693 212.27,-675.5 106,-322.37 106,-299.5 106,-299.5 106,-299.5 106,-176 106,-150.36 97.58,-142.26 95.47,-121"/>
<polygon fill="#5b00c0" stroke="#5b00c0" points="98.97,-120.82 95,-111 91.98,-121.15 98.97,-120.82"/>
<text text-anchor="middle" x="156.5" y="-431.3" font-family="Times,serif" font-size="14.00" fill="#5b00c0">rw</text>
</g>
<!-- T5897&#45;&gt;T5922 -->
<g id="edge13" class="edge">
<title>T5897:f0&#45;&gt;T5922:f1</title>
<path fill="none" stroke="#5b00c0" d="M349,-192C349,-201.15 342.93,-201.74 339,-210 299.49,-293.02 297.19,-317.06 262,-402 228.69,-482.39 202.47,-496.76 185,-582 172.13,-644.79 149.52,-678.91 193,-726 220.76,-756.07 280.33,-709.33 291.26,-733.92"/>
<polygon fill="#5b00c0" stroke="#5b00c0" points="287.85,-734.74 293,-744 294.75,-733.55 287.85,-734.74"/>
<text text-anchor="middle" x="238.5" y="-471.8" font-family="Times,serif" font-size="14.00" fill="#5b00c0">rw</text>
</g>
<!-- T5897&#45;&gt;T5936 -->
<g id="edge15" class="edge">
<title>T5897:f0&#45;&gt;T5936:f3</title>
<path fill="none" stroke="#5b00c0" d="M309,-177C302.32,-177 308.65,-168.54 310,-162 314.05,-142.32 323.91,-136.7 327.03,-121.35"/>
<polygon fill="#5b00c0" stroke="#5b00c0" points="330.55,-121.28 328,-111 323.58,-120.63 330.55,-121.28"/>
<text text-anchor="middle" x="333.5" y="-132.8" font-family="Times,serif" font-size="14.00" fill="#5b00c0">rw</text>
</g>
<!-- T5897&#45;&gt;T5886 -->
<g id="edge14" class="edge">
<title>T5897:f0&#45;&gt;T5886:f0</title>
<path fill="none" stroke="#5b00c0" d="M349,-162C349,-115.07 700.9,-97.77 778.93,-96.13"/>
<polygon fill="#5b00c0" stroke="#5b00c0" points="779.05,-99.63 789,-96 778.96,-92.63 779.05,-99.63"/>
<text text-anchor="middle" x="424.5" y="-132.8" font-family="Times,serif" font-size="14.00" fill="#5b00c0">rw</text>
</g>
<!-- T5897&#45;&gt;T5901 -->
<g id="edge12" class="edge">
<title>T5897:f0&#45;&gt;T5901:f0</title>
<path fill="none" stroke="#5b00c0" d="M349,-162C349,-141.56 1064.04,-118.62 1083,-111 1088.28,-108.88 1090.06,-104.59 1092.28,-101.14"/>
<polygon fill="#5b00c0" stroke="#5b00c0" points="1094.16,-104.09 1101,-96 1090.61,-98.07 1094.16,-104.09"/>
<text text-anchor="middle" x="761.5" y="-132.8" font-family="Times,serif" font-size="14.00" fill="#5b00c0">rw</text>
</g>
<!-- T5865 -->
<g id="node5" class="node">
<title>T5865</title>
<polygon fill="none" stroke="#0058ad" points="570,-906.5 570,-935.5 866,-935.5 866,-906.5 570,-906.5"/>
<text text-anchor="middle" x="608.5" y="-917.3" font-family="Times,serif" font-size="14.00" fill="#0058ad">r 228 13</text>
<polyline fill="none" stroke="#0058ad" points="647,-906.5 647,-935.5 "/>
<text text-anchor="middle" x="685.5" y="-917.3" font-family="Times,serif" font-size="14.00" fill="#0058ad">r 228 13</text>
<polyline fill="none" stroke="#0058ad" points="724,-906.5 724,-935.5 "/>
<text text-anchor="middle" x="761" y="-917.3" font-family="Times,serif" font-size="14.00" fill="#0058ad">w 229 2</text>
<polyline fill="none" stroke="#0058ad" points="798,-906.5 798,-935.5 "/>
<text text-anchor="middle" x="832" y="-917.3" font-family="Times,serif" font-size="14.00" fill="#0058ad">r 229 2</text>
</g>
<!-- T5865&#45;&gt;T5878 -->
<g id="edge16" class="edge">
<title>T5865:f2&#45;&gt;T5878:f1</title>
<path fill="none" stroke="#c000a5" d="M761,-906C761,-873.45 717.77,-904.99 690,-888 676.73,-879.88 666.19,-876.14 662.46,-865.08"/>
<polygon fill="#c000a5" stroke="#c000a5" points="665.9,-864.39 661,-855 658.97,-865.4 665.9,-864.39"/>
<text text-anchor="middle" x="699.5" y="-876.8" font-family="Times,serif" font-size="14.00" fill="#c000a5">wr</text>
</g>
<!-- T5877 -->
<g id="node15" class="node">
<title>T5877</title>
<polygon fill="none" stroke="#0058ad" points="287.5,-825.5 287.5,-854.5 432.5,-854.5 432.5,-825.5 287.5,-825.5"/>
<text text-anchor="middle" x="326" y="-836.3" font-family="Times,serif" font-size="14.00" fill="#0058ad">r 227 nil</text>
<polyline fill="none" stroke="#0058ad" points="364.5,-825.5 364.5,-854.5 "/>
<text text-anchor="middle" x="398.5" y="-836.3" font-family="Times,serif" font-size="14.00" fill="#0058ad">r 229 2</text>
</g>
<!-- T5865&#45;&gt;T5877 -->
<g id="edge17" class="edge">
<title>T5865:f2&#45;&gt;T5877:f1</title>
<path fill="none" stroke="#c000a5" d="M761,-906C761,-879.69 669.84,-892.93 644,-888 553.36,-870.69 531.3,-842.16 444.09,-840.12"/>
<polygon fill="#c000a5" stroke="#c000a5" points="444.04,-836.61 434,-840 443.96,-843.61 444.04,-836.61"/>
<text text-anchor="middle" x="653.5" y="-876.8" font-family="Times,serif" font-size="14.00" fill="#c000a5">wr</text>
</g>
<!-- T5804 -->
<g id="node18" class="node">
<title>T5804</title>
<polygon fill="none" stroke="#0058ad" points="265,-582.5 265,-611.5 407,-611.5 407,-582.5 265,-582.5"/>
<text text-anchor="middle" x="299" y="-593.3" font-family="Times,serif" font-size="14.00" fill="#0058ad">r 208 7</text>
<polyline fill="none" stroke="#0058ad" points="333,-582.5 333,-611.5 "/>
<text text-anchor="middle" x="370" y="-593.3" font-family="Times,serif" font-size="14.00" fill="#0058ad">w 226 1</text>
</g>
<!-- T5889&#45;&gt;T5804 -->
<g id="edge18" class="edge">
<title>T5889:f1&#45;&gt;T5804:f1</title>
<path fill="none" stroke="#5b00c0" d="M342,-663C342,-640.98 362.3,-638.23 368.33,-621.93"/>
<polygon fill="#5b00c0" stroke="#5b00c0" points="371.8,-622.44 370,-612 364.89,-621.28 371.8,-622.44"/>
<text text-anchor="middle" x="372.5" y="-633.8" font-family="Times,serif" font-size="14.00" fill="#5b00c0">rw</text>
</g>
<!-- T5936&#45;&gt;T5804 -->
<g id="edge19" class="edge">
<title>T5936:f2&#45;&gt;T5804:f1</title>
<path fill="none" stroke="#5b00c0" d="M248,-111C248,-150.58 193.29,-126.9 175,-162 168.84,-173.82 171.94,-179.02 175,-192 201.03,-302.26 239.77,-317.96 289,-420 319.68,-483.57 319.21,-503.76 356,-564 358.81,-568.6 362.58,-570.53 365.51,-572.85"/>
<polygon fill="#5b00c0" stroke="#5b00c0" points="362.45,-574.57 370,-582 368.73,-571.48 362.45,-574.57"/>
<text text-anchor="middle" x="261.5" y="-335.3" font-family="Times,serif" font-size="14.00" fill="#5b00c0">rw</text>
</g>
<!-- T5886&#45;&gt;T5889 -->
<g id="edge20" class="edge">
<title>T5886:f0&#45;&gt;T5889:f0</title>
<path fill="none" stroke="#c000a5" d="M789,-96C589.14,-96 344.39,-100.03 302,-162 277.16,-198.31 262.59,-448.22 256,-582 255.34,-595.32 254.34,-598.77 256,-612 258.43,-631.4 265.88,-637.66 268.26,-652.85"/>
<polygon fill="#c000a5" stroke="#c000a5" points="264.78,-653.28 269,-663 271.76,-652.77 264.78,-653.28"/>
<text text-anchor="middle" x="278.5" y="-383.3" font-family="Times,serif" font-size="14.00" fill="#c000a5">wr</text>
</g>
<!-- T5849 -->
<g id="node9" class="node">
<title>T5849</title>
<polygon fill="none" stroke="#0058ad" points="814.5,-372.5 814.5,-401.5 965.5,-401.5 965.5,-372.5 814.5,-372.5"/>
<text text-anchor="middle" x="853" y="-383.3" font-family="Times,serif" font-size="14.00" fill="#0058ad">r 223 14</text>
<polyline fill="none" stroke="#0058ad" points="891.5,-372.5 891.5,-401.5 "/>
<text text-anchor="middle" x="928.5" y="-383.3" font-family="Times,serif" font-size="14.00" fill="#0058ad">w 218 4</text>
</g>
<!-- T5895 -->
<g id="node14" class="node">
<title>T5895</title>
<polygon fill="none" stroke="#0058ad" points="595.5,-243.5 595.5,-272.5 882.5,-272.5 882.5,-243.5 595.5,-243.5"/>
<text text-anchor="middle" x="634" y="-254.3" font-family="Times,serif" font-size="14.00" fill="#0058ad">r 230 nil</text>
<polyline fill="none" stroke="#0058ad" points="672.5,-243.5 672.5,-272.5 "/>
<text text-anchor="middle" x="706.5" y="-254.3" font-family="Times,serif" font-size="14.00" fill="#0058ad">r 226 1</text>
<polyline fill="none" stroke="#0058ad" points="740.5,-243.5 740.5,-272.5 "/>
<text text-anchor="middle" x="777.5" y="-254.3" font-family="Times,serif" font-size="14.00" fill="#0058ad">w 229 6</text>
<polyline fill="none" stroke="#0058ad" points="814.5,-243.5 814.5,-272.5 "/>
<text text-anchor="middle" x="848.5" y="-254.3" font-family="Times,serif" font-size="14.00" fill="#0058ad">r 218 4</text>
</g>
<!-- T5849&#45;&gt;T5895 -->
<g id="edge21" class="edge">
<title>T5849:f1&#45;&gt;T5895:f3</title>
<path fill="none" stroke="#c000a5" d="M929,-372C929,-321.15 937.26,-265.88 894.03,-258.77"/>
<polygon fill="#c000a5" stroke="#c000a5" points="894.24,-255.27 884,-258 893.7,-262.25 894.24,-255.27"/>
<text text-anchor="middle" x="938.5" y="-335.3" font-family="Times,serif" font-size="14.00" fill="#c000a5">wr</text>
</g>
<!-- T5859&#45;&gt;T5865 -->
<g id="edge22" class="edge">
<title>T5859:f0&#45;&gt;T5865:f2</title>
<path fill="none" stroke="#5b00c0" d="M991,-1002C941.25,-1002 783.28,-990.77 763.12,-945.79"/>
<polygon fill="#5b00c0" stroke="#5b00c0" points="766.54,-945.03 761,-936 759.7,-946.51 766.54,-945.03"/>
<text text-anchor="middle" x="796.5" y="-957.8" font-family="Times,serif" font-size="14.00" fill="#5b00c0">rw</text>
</g>
<!-- T5859&#45;&gt;T5886 -->
<g id="edge25" class="edge">
<title>T5859:f0&#45;&gt;T5886:f1</title>
<path fill="none" stroke="#5b00c0" d="M1031,-987C1031,-936.21 1125,-972.79 1125,-922 1125,-922 1125,-922 1125,-717.5 1125,-633.22 1171.63,-622.98 1212,-549 1236.32,-504.43 1255.89,-499.05 1269,-450 1272.44,-437.12 1272.97,-432.73 1269,-420 1245.59,-344.84 1135.12,-168.46 1067,-129 1038.28,-112.36 928.11,-140.78 905.19,-120.4"/>
<polygon fill="#5b00c0" stroke="#5b00c0" points="908.27,-118.71 901,-111 901.88,-121.56 908.27,-118.71"/>
<text text-anchor="middle" x="1221.5" y="-552.8" font-family="Times,serif" font-size="14.00" fill="#5b00c0">rw</text>
</g>
<!-- T5931 -->
<g id="node12" class="node">
<title>T5931</title>
<polygon fill="none" stroke="#0058ad" points="417,-243.5 417,-272.5 577,-272.5 577,-243.5 417,-243.5"/>
<text text-anchor="middle" x="458.5" y="-254.3" font-family="Times,serif" font-size="14.00" fill="#0058ad">w 229 13</text>
<polyline fill="none" stroke="#0058ad" points="500,-243.5 500,-272.5 "/>
<text text-anchor="middle" x="538.5" y="-254.3" font-family="Times,serif" font-size="14.00" fill="#0058ad">r 229 13</text>
</g>
<!-- T5859&#45;&gt;T5931 -->
<g id="edge24" class="edge">
<title>T5859:f0&#45;&gt;T5931:f0</title>
<path fill="none" stroke="#5b00c0" d="M991,-1002C865.15,-1002 0,-934.73 0,-922 0,-922 0,-922 0,-474.5 0,-373.44 293.19,-264.79 405.98,-258.31"/>
<polygon fill="#5b00c0" stroke="#5b00c0" points="406.11,-261.8 416,-258 405.9,-254.81 406.11,-261.8"/>
<text text-anchor="middle" x="9.5" y="-633.8" font-family="Times,serif" font-size="14.00" fill="#5b00c0">rw</text>
</g>
<!-- T5859&#45;&gt;T5901 -->
<g id="edge23" class="edge">
<title>T5859:f0&#45;&gt;T5901:f1</title>
<path fill="none" stroke="#5b00c0" d="M1031,-987C1031,-962.67 1119.37,-983.37 1139,-969 1157.93,-955.15 1163,-945.45 1163,-922 1163,-922 1163,-922 1163,-798.5 1163,-587.39 1402,-599.11 1402,-388 1402,-388 1402,-388 1402,-176 1402,-156.31 1253.39,-137.89 1219.73,-118.49"/>
<polygon fill="#5b00c0" stroke="#5b00c0" points="1222.29,-116.1 1213,-111 1217.08,-120.78 1222.29,-116.1"/>
<text text-anchor="middle" x="1341.5" y="-552.8" font-family="Times,serif" font-size="14.00" fill="#5b00c0">rw</text>
</g>
<!-- T5859&#45;&gt;T5895 -->
<g id="edge26" class="edge">
<title>T5859:f0&#45;&gt;T5895:f2</title>
<path fill="none" stroke="#5b00c0" d="M991,-1002C938.03,-1002 521,-974.97 521,-922 521,-922 521,-922 521,-717.5 521,-673.32 549.03,-357.35 578,-324 612.31,-284.5 640.23,-303.64 691,-291 706.72,-287.09 755.19,-290.77 772.1,-281.32"/>
<polygon fill="#5b00c0" stroke="#5b00c0" points="775.07,-283.18 778,-273 769.36,-279.13 775.07,-283.18"/>
<text text-anchor="middle" x="535.5" y="-633.8" font-family="Times,serif" font-size="14.00" fill="#5b00c0">rw</text>
</g>
<!-- T5857 -->
<g id="node11" class="node">
<title>T5857</title>
<polygon fill="none" stroke="#0058ad" points="647.5,-324.5 647.5,-353.5 792.5,-353.5 792.5,-324.5 647.5,-324.5"/>
<text text-anchor="middle" x="686" y="-335.3" font-family="Times,serif" font-size="14.00" fill="#0058ad">r 229 nil</text>
<polyline fill="none" stroke="#0058ad" points="724.5,-324.5 724.5,-353.5 "/>
<text text-anchor="middle" x="758.5" y="-335.3" font-family="Times,serif" font-size="14.00" fill="#0058ad">r 228 9</text>
</g>
<!-- T5857&#45;&gt;T5865 -->
<g id="edge27" class="edge">
<title>T5857:f0&#45;&gt;T5865:f2</title>
<path fill="none" stroke="#5b00c0" d="M646,-339C581.5,-339 652.57,-419.52 664,-483 664.24,-484.35 744.4,-832.4 758.8,-896.07"/>
<polygon fill="#5b00c0" stroke="#5b00c0" points="755.42,-896.99 761,-906 762.25,-895.48 755.42,-896.99"/>
<text text-anchor="middle" x="710.5" y="-633.8" font-family="Times,serif" font-size="14.00" fill="#5b00c0">rw</text>
</g>
<!-- T5857&#45;&gt;T5886 -->
<g id="edge30" class="edge">
<title>T5857:f0&#45;&gt;T5886:f1</title>
<path fill="none" stroke="#5b00c0" d="M686,-324C686,-280.26 848.1,-333.64 882,-306 893.88,-296.32 889.75,-288.16 892,-273 899.24,-224.15 880.4,-210.94 887,-162 889.62,-142.53 897.64,-136.4 900.21,-121.18"/>
<polygon fill="#5b00c0" stroke="#5b00c0" points="903.71,-121.24 901,-111 896.73,-120.7 903.71,-121.24"/>
<text text-anchor="middle" x="900.5" y="-213.8" font-family="Times,serif" font-size="14.00" fill="#5b00c0">rw</text>
</g>
<!-- T5857&#45;&gt;T5931 -->
<g id="edge29" class="edge">
<title>T5857:f0&#45;&gt;T5931:f0</title>
<path fill="none" stroke="#5b00c0" d="M646,-339C637.18,-339 640.43,-328.76 633,-324 618.08,-314.43 495.29,-298.07 464.82,-280.56"/>
<polygon fill="#5b00c0" stroke="#5b00c0" points="467.3,-278.08 458,-273 462.1,-282.77 467.3,-278.08"/>
<text text-anchor="middle" x="563.5" y="-294.8" font-family="Times,serif" font-size="14.00" fill="#5b00c0">rw</text>
</g>
<!-- T5857&#45;&gt;T5901 -->
<g id="edge28" class="edge">
<title>T5857:f0&#45;&gt;T5901:f1</title>
<path fill="none" stroke="#5b00c0" d="M686,-324C686,-300.14 877.35,-313.52 900,-306 904.4,-304.54 1156.8,-150.45 1205.07,-117.18"/>
<polygon fill="#5b00c0" stroke="#5b00c0" points="1207.26,-119.91 1213,-111 1202.96,-114.38 1207.26,-119.91"/>
<text text-anchor="middle" x="1063.5" y="-213.8" font-family="Times,serif" font-size="14.00" fill="#5b00c0">rw</text>
</g>
<!-- T5857&#45;&gt;T5895 -->
<g id="edge31" class="edge">
<title>T5857:f0&#45;&gt;T5895:f2</title>
<path fill="none" stroke="#5b00c0" d="M686,-324C686,-281.27 762.87,-313.11 776.08,-283.19"/>
<polygon fill="#5b00c0" stroke="#5b00c0" points="779.59,-283.48 778,-273 772.71,-282.18 779.59,-283.48"/>
<text text-anchor="middle" x="777.5" y="-294.8" font-family="Times,serif" font-size="14.00" fill="#5b00c0">rw</text>
</g>
<!-- T5931&#45;&gt;T5936 -->
<g id="edge32" class="edge">
<title>T5931:f0&#45;&gt;T5936:f1</title>
<path fill="none" stroke="#c000a5" d="M416,-258C292.49,-258 177.46,-239.06 171.26,-121.18"/>
<polygon fill="#c000a5" stroke="#c000a5" points="174.76,-120.91 171,-111 167.76,-121.09 174.76,-120.91"/>
<text text-anchor="middle" x="203.5" y="-173.3" font-family="Times,serif" font-size="14.00" fill="#c000a5">wr</text>
</g>
<!-- T5910 -->
<g id="node17" class="node">
<title>T5910</title>
<polygon fill="none" stroke="#0058ad" points="248.5,-0.5 248.5,-29.5 529.5,-29.5 529.5,-0.5 248.5,-0.5"/>
<text text-anchor="middle" x="282.5" y="-11.3" font-family="Times,serif" font-size="14.00" fill="#0058ad">r 230 4</text>
<polyline fill="none" stroke="#0058ad" points="316.5,-0.5 316.5,-29.5 "/>
<text text-anchor="middle" x="355" y="-11.3" font-family="Times,serif" font-size="14.00" fill="#0058ad">r 226 nil</text>
<polyline fill="none" stroke="#0058ad" points="393.5,-0.5 393.5,-29.5 "/>
<text text-anchor="middle" x="427.5" y="-11.3" font-family="Times,serif" font-size="14.00" fill="#0058ad">r 230 4</text>
<polyline fill="none" stroke="#0058ad" points="461.5,-0.5 461.5,-29.5 "/>
<text text-anchor="middle" x="495.5" y="-11.3" font-family="Times,serif" font-size="14.00" fill="#0058ad">r 230 4</text>
</g>
<!-- T5901&#45;&gt;T5910 -->
<g id="edge33" class="edge">
<title>T5901:f0&#45;&gt;T5910:f0</title>
<path fill="none" stroke="#c000a5" d="M1101,-96C1090.59,-96 1092.67,-84.85 1083,-81 1003.39,-49.28 337.14,-113.78 285.21,-39.73"/>
<polygon fill="#c000a5" stroke="#c000a5" points="288.45,-38.4 282,-30 281.81,-40.59 288.45,-38.4"/>
<text text-anchor="middle" x="340.5" y="-51.8" font-family="Times,serif" font-size="14.00" fill="#c000a5">wr</text>
</g>
<!-- T5895&#45;&gt;T5922 -->
<g id="edge35" class="edge">
<title>T5895:f0&#45;&gt;T5922:f1</title>
<path fill="none" stroke="#5b00c0" d="M594,-258C586.44,-258 592.06,-268.49 586,-273 553.64,-297.11 524.08,-261.07 497,-291 434.07,-360.55 483.59,-407.51 476,-501 469.08,-586.22 517.21,-626.07 464,-693 416.96,-752.17 304.25,-672.83 293.78,-733.93"/>
<polygon fill="#5b00c0" stroke="#5b00c0" points="290.28,-733.76 293,-744 297.26,-734.3 290.28,-733.76"/>
<text text-anchor="middle" x="485.5" y="-512.3" font-family="Times,serif" font-size="14.00" fill="#5b00c0">rw</text>
</g>
<!-- T5895&#45;&gt;T5897 -->
<g id="edge36" class="edge">
<title>T5895:f0&#45;&gt;T5897:f2</title>
<path fill="none" stroke="#5b00c0" d="M594,-258C586.44,-258 591.31,-248.37 586,-243 555.58,-212.22 502.64,-234.7 494.16,-202.13"/>
<polygon fill="#5b00c0" stroke="#5b00c0" points="497.62,-201.54 493,-192 490.66,-202.33 497.62,-201.54"/>
<text text-anchor="middle" x="552.5" y="-213.8" font-family="Times,serif" font-size="14.00" fill="#5b00c0">rw</text>
</g>
<!-- T5895&#45;&gt;T5936 -->
<g id="edge38" class="edge">
<title>T5895:f0&#45;&gt;T5936:f3</title>
<path fill="none" stroke="#5b00c0" d="M634,-243C634,-112.49 511.38,-96.74 381.19,-96.03"/>
<polygon fill="#5b00c0" stroke="#5b00c0" points="381.01,-92.53 371,-96 380.99,-99.53 381.01,-92.53"/>
<text text-anchor="middle" x="634.5" y="-173.3" font-family="Times,serif" font-size="14.00" fill="#5b00c0">rw</text>
</g>
<!-- T5895&#45;&gt;T5886 -->
<g id="edge37" class="edge">
<title>T5895:f0&#45;&gt;T5886:f0</title>
<path fill="none" stroke="#5b00c0" d="M634,-243C634,-219.56 791.15,-152.1 821.84,-120.06"/>
<polygon fill="#5b00c0" stroke="#5b00c0" points="825.09,-121.42 827,-111 819.01,-117.95 825.09,-121.42"/>
<text text-anchor="middle" x="764.5" y="-173.3" font-family="Times,serif" font-size="14.00" fill="#5b00c0">rw</text>
</g>
<!-- T5895&#45;&gt;T5901 -->
<g id="edge34" class="edge">
<title>T5895:f0&#45;&gt;T5901:f0</title>
<path fill="none" stroke="#5b00c0" d="M634,-243C634,-230 1071.53,-117.12 1083,-111 1088.02,-108.32 1089.82,-104.08 1092.12,-100.8"/>
<polygon fill="#5b00c0" stroke="#5b00c0" points="1093.87,-103.83 1101,-96 1090.54,-97.67 1093.87,-103.83"/>
<text text-anchor="middle" x="907.5" y="-173.3" font-family="Times,serif" font-size="14.00" fill="#5b00c0">rw</text>
</g>
<!-- T5877&#45;&gt;T5922 -->
<g id="edge40" class="edge">
<title>T5877:f0&#45;&gt;T5922:f3</title>
<path fill="none" stroke="#5b00c0" d="M326,-825C326,-798.88 421.86,-802.19 444.33,-782.97"/>
<polygon fill="#5b00c0" stroke="#5b00c0" points="447.48,-784.49 449,-774 441.28,-781.25 447.48,-784.49"/>
<text text-anchor="middle" x="431.5" y="-795.8" font-family="Times,serif" font-size="14.00" fill="#5b00c0">rw</text>
</g>
<!-- T5877&#45;&gt;T5889 -->
<g id="edge39" class="edge">
<title>T5877:f0&#45;&gt;T5889:f2</title>
<path fill="none" stroke="#5b00c0" d="M286,-840C214.18,-840 110.32,-799.43 156,-744 229.16,-655.22 406.81,-802.22 417.5,-703.02"/>
<polygon fill="#5b00c0" stroke="#5b00c0" points="420.99,-703.16 418,-693 414,-702.81 420.99,-703.16"/>
<text text-anchor="middle" x="165.5" y="-755.3" font-family="Times,serif" font-size="14.00" fill="#5b00c0">rw</text>
</g>
<!-- T5877&#45;&gt;T5936 -->
<g id="edge41" class="edge">
<title>T5877:f0&#45;&gt;T5936:f0</title>
<path fill="none" stroke="#5b00c0" d="M286,-840C235.68,-840 102.88,-836.34 62,-807 42.94,-793.32 38,-783.45 38,-760 38,-760 38,-760 38,-474.5 38,-392.64 41.32,-371.88 54,-291 56.84,-272.87 87.41,-159.56 93.82,-121.17"/>
<polygon fill="#5b00c0" stroke="#5b00c0" points="97.33,-121.34 95,-111 90.37,-120.53 97.33,-121.34"/>
<text text-anchor="middle" x="47.5" y="-471.8" font-family="Times,serif" font-size="14.00" fill="#5b00c0">rw</text>
</g>
<!-- T5852&#45;&gt;T5865 -->
<g id="edge42" class="edge">
<title>T5852:f1&#45;&gt;T5865:f2</title>
<path fill="none" stroke="#5b00c0" d="M782,-450C782,-479.98 740.69,-449.64 717,-468 703.62,-478.37 702.37,-484.65 698,-501 694.56,-513.88 695.57,-517.89 698,-531 713.94,-617.03 761,-630.01 761,-717.5 761,-841 761,-841 761,-841 761,-866.16 761,-874.89 761,-895.82"/>
<polygon fill="#5b00c0" stroke="#5b00c0" points="757.5,-896 761,-906 764.5,-896 757.5,-896"/>
<text text-anchor="middle" x="768.5" y="-674.3" font-family="Times,serif" font-size="14.00" fill="#5b00c0">rw</text>
</g>
<!-- T5852&#45;&gt;T5886 -->
<g id="edge45" class="edge">
<title>T5852:f1&#45;&gt;T5886:f1</title>
<path fill="none" stroke="#5b00c0" d="M782,-420C782,-407.3 802.26,-378.78 813,-372 865.68,-338.75 900.95,-389.7 952,-354 958.62,-349.37 1017.08,-232.85 1019,-225 1028.86,-184.63 984.2,-132.35 980,-129 955.36,-109.36 913.36,-137.88 903.24,-121.19"/>
<polygon fill="#5b00c0" stroke="#5b00c0" points="906.56,-120.02 901,-111 899.73,-121.52 906.56,-120.02"/>
<text text-anchor="middle" x="1019.5" y="-254.3" font-family="Times,serif" font-size="14.00" fill="#5b00c0">rw</text>
</g>
<!-- T5852&#45;&gt;T5857 -->
<g id="edge47" class="edge">
<title>T5852:f0&#45;&gt;T5857:f1</title>
<path fill="none" stroke="#c000a5" d="M706,-420C706,-393.6 723.84,-392.06 741,-372 745.25,-367.03 750.6,-365.57 754.36,-363.04"/>
<polygon fill="#c000a5" stroke="#c000a5" points="757.55,-364.5 759,-354 751.32,-361.3 757.55,-364.5"/>
<text text-anchor="middle" x="750.5" y="-383.3" font-family="Times,serif" font-size="14.00" fill="#c000a5">wr</text>
</g>
<!-- T5852&#45;&gt;T5931 -->
<g id="edge44" class="edge">
<title>T5852:f1&#45;&gt;T5931:f0</title>
<path fill="none" stroke="#5b00c0" d="M782,-420C782,-402.64 722.44,-407.58 706,-402 591.68,-363.21 465.37,-395.31 458.31,-283.18"/>
<polygon fill="#5b00c0" stroke="#5b00c0" points="461.8,-282.89 458,-273 454.81,-283.1 461.8,-282.89"/>
<text text-anchor="middle" x="505.5" y="-335.3" font-family="Times,serif" font-size="14.00" fill="#5b00c0">rw</text>
</g>
<!-- T5852&#45;&gt;T5901 -->
<g id="edge43" class="edge">
<title>T5852:f1&#45;&gt;T5901:f1</title>
<path fill="none" stroke="#5b00c0" d="M822,-435C843.21,-435 1180.55,-369.52 1195,-354 1259.23,-284.98 1218.32,-238.04 1225,-144 1225.47,-137.35 1226.93,-135.38 1225,-129 1223.61,-124.4 1220.61,-122.3 1217.96,-120.15"/>
<polygon fill="#5b00c0" stroke="#5b00c0" points="1220.84,-118.13 1213,-111 1214.68,-121.46 1220.84,-118.13"/>
<text text-anchor="middle" x="1240.5" y="-254.3" font-family="Times,serif" font-size="14.00" fill="#5b00c0">rw</text>
</g>
<!-- T5852&#45;&gt;T5895 -->
<g id="edge46" class="edge">
<title>T5852:f1&#45;&gt;T5895:f2</title>
<path fill="none" stroke="#5b00c0" d="M782,-420C782,-398.5 779.77,-391.86 788,-372 791.88,-362.64 798.71,-363.59 802,-354 806.33,-341.39 804.14,-337.16 802,-324 799.52,-308.74 798.05,-304.76 791,-291 788.75,-286.61 785.5,-284.58 782.81,-282.41"/>
<polygon fill="#5b00c0" stroke="#5b00c0" points="785.67,-280.31 778,-273 779.44,-283.5 785.67,-280.31"/>
<text text-anchor="middle" x="813.5" y="-335.3" font-family="Times,serif" font-size="14.00" fill="#5b00c0">rw</text>
</g>
<!-- T5910&#45;&gt;T5804 -->
<g id="edge48" class="edge">
<title>T5910:f1&#45;&gt;T5804:f1</title>
<path fill="none" stroke="#5b00c0" d="M355,-30C355,-47.23 64.87,-74.29 49,-81 39.34,-85.09 30,-84.51 30,-95 30,-218.5 30,-218.5 30,-218.5 30,-322.1 264.53,-496.36 343,-564 350.17,-570.18 359.56,-569.79 365.16,-572.87"/>
<polygon fill="#5b00c0" stroke="#5b00c0" points="362.23,-574.8 370,-582 368.41,-571.52 362.23,-574.8"/>
<text text-anchor="middle" x="77.5" y="-294.8" font-family="Times,serif" font-size="14.00" fill="#5b00c0">rw</text>
</g>
<!-- T5804&#45;&gt;T5922 -->
<g id="edge49" class="edge">
<title>T5804:f1&#45;&gt;T5922:f0</title>
<path fill="none" stroke="#c000a5" d="M370,-612C370,-630.87 221.23,-649.54 208,-663 169.16,-702.5 169.28,-737.27 175.82,-751.79"/>
<polygon fill="#c000a5" stroke="#c000a5" points="173.46,-754.38 183,-759 178.43,-749.44 173.46,-754.38"/>
<text text-anchor="middle" x="217.5" y="-674.3" font-family="Times,serif" font-size="14.00" fill="#c000a5">wr</text>
</g>
<!-- T5804&#45;&gt;T5897 -->
<g id="edge50" class="edge">
<title>T5804:f1&#45;&gt;T5897:f3</title>
<path fill="none" stroke="#c000a5" d="M370,-582C370,-551.9 351,-547.1 351,-517 351,-517 351,-517 351,-386 351,-317.58 358.11,-289.82 408,-243 458.49,-195.61 553.69,-257.96 563.22,-202.03"/>
<polygon fill="#c000a5" stroke="#c000a5" points="566.72,-202.24 564,-192 559.74,-201.7 566.72,-202.24"/>
<text text-anchor="middle" x="360.5" y="-383.3" font-family="Times,serif" font-size="14.00" fill="#c000a5">wr</text>
</g>
<!-- T5804&#45;&gt;T5895 -->
<g id="edge51" class="edge">
<title>T5804:f1&#45;&gt;T5895:f1</title>
<path fill="none" stroke="#c000a5" d="M408,-597C452.97,-597 421.35,-541.93 440,-501 484.94,-402.37 473.44,-350.56 564,-291 587.36,-275.64 679.35,-297.95 701.29,-281.98"/>
<polygon fill="#c000a5" stroke="#c000a5" points="704.45,-283.48 706,-273 698.25,-280.23 704.45,-283.48"/>
<text text-anchor="middle" x="479.5" y="-431.3" font-family="Times,serif" font-size="14.00" fill="#c000a5">wr</text>
</g>
<!-- T5828 -->
<g id="node19" class="node">
<title>T5828</title>
<polygon fill="none" stroke="#0058ad" points="706.5,-501.5 706.5,-530.5 1011.5,-530.5 1011.5,-501.5 706.5,-501.5"/>
<text text-anchor="middle" x="745" y="-512.3" font-family="Times,serif" font-size="14.00" fill="#0058ad">r 228 nil</text>
<polyline fill="none" stroke="#0058ad" points="783.5,-501.5 783.5,-530.5 "/>
<text text-anchor="middle" x="817.5" y="-512.3" font-family="Times,serif" font-size="14.00" fill="#0058ad">r 226 1</text>
<polyline fill="none" stroke="#0058ad" points="851.5,-501.5 851.5,-530.5 "/>
<text text-anchor="middle" x="893" y="-512.3" font-family="Times,serif" font-size="14.00" fill="#0058ad">w 223 14</text>
<polyline fill="none" stroke="#0058ad" points="934.5,-501.5 934.5,-530.5 "/>
<text text-anchor="middle" x="973" y="-512.3" font-family="Times,serif" font-size="14.00" fill="#0058ad">r 223 14</text>
</g>
<!-- T5804&#45;&gt;T5828 -->
<g id="edge52" class="edge">
<title>T5804:f1&#45;&gt;T5828:f1</title>
<path fill="none" stroke="#c000a5" d="M408,-597C450.89,-597 768.86,-579.67 812.13,-540.08"/>
<polygon fill="#c000a5" stroke="#c000a5" points="815.36,-541.47 817,-531 809.19,-538.16 815.36,-541.47"/>
<text text-anchor="middle" x="800.5" y="-552.8" font-family="Times,serif" font-size="14.00" fill="#c000a5">wr</text>
</g>
<!-- T5828&#45;&gt;T5837 -->
<g id="edge56" class="edge">
<title>T5828:f0&#45;&gt;T5837:f1</title>
<path fill="none" stroke="#5b00c0" d="M745,-531C745,-535.19 1037.93,-581.02 1042,-582 1224.31,-625.68 1404,-611.03 1404,-798.5 1404,-1003 1404,-1003 1404,-1003 1404,-1029.13 1390.98,-1036.44 1387.73,-1057.86"/>
<polygon fill="#5b00c0" stroke="#5b00c0" points="1384.23,-1057.77 1387,-1068 1391.21,-1058.28 1384.23,-1057.77"/>
<text text-anchor="middle" x="1413.5" y="-795.8" font-family="Times,serif" font-size="14.00" fill="#5b00c0">rw</text>
</g>
<!-- T5828&#45;&gt;T5849 -->
<g id="edge54" class="edge">
<title>T5828:f2&#45;&gt;T5849:f0</title>
<path fill="none" stroke="#c000a5" d="M893,-501C893,-457.25 859.01,-450.36 853.69,-412.37"/>
<polygon fill="#c000a5" stroke="#c000a5" points="857.16,-411.74 853,-402 850.18,-412.21 857.16,-411.74"/>
<text text-anchor="middle" x="899.5" y="-471.8" font-family="Times,serif" font-size="14.00" fill="#c000a5">wr</text>
</g>
<!-- T5828&#45;&gt;T5859 -->
<g id="edge55" class="edge">
<title>T5828:f0&#45;&gt;T5859:f2</title>
<path fill="none" stroke="#5b00c0" d="M745,-531C745,-555.62 1159.92,-612.27 1177,-630 1229.88,-684.9 1209,-722.27 1209,-798.5 1209,-922 1209,-922 1209,-922 1209,-947.94 1197.52,-955.55 1194.64,-976.91"/>
<polygon fill="#5b00c0" stroke="#5b00c0" points="1191.14,-976.8 1194,-987 1198.13,-977.24 1191.14,-976.8"/>
<text text-anchor="middle" x="1220.5" y="-755.3" font-family="Times,serif" font-size="14.00" fill="#5b00c0">rw</text>
</g>
<!-- T5828&#45;&gt;T5852 -->
<g id="edge57" class="edge">
<title>T5828:f0&#45;&gt;T5852:f0</title>
<path fill="none" stroke="#5b00c0" d="M745,-501C745,-489.63 720.23,-473.06 710.17,-459.57"/>
<polygon fill="#5b00c0" stroke="#5b00c0" points="713.21,-457.77 706,-450 706.79,-460.57 713.21,-457.77"/>
<text text-anchor="middle" x="741.5" y="-471.8" font-family="Times,serif" font-size="14.00" fill="#5b00c0">rw</text>
</g>
<!-- T5828&#45;&gt;T5861 -->
<g id="edge58" class="edge">
<title>T5828:f0&#45;&gt;T5861:f1</title>
<path fill="none" stroke="#5b00c0" d="M745,-501C745,-472.93 969.42,-488.22 997,-483 1018.96,-478.84 1023.31,-473.4 1045,-468 1062.61,-463.61 1117.86,-469.15 1135.52,-458.41"/>
<polygon fill="#5b00c0" stroke="#5b00c0" points="1138.47,-460.29 1141,-450 1132.61,-456.46 1138.47,-460.29"/>
<text text-anchor="middle" x="1054.5" y="-471.8" font-family="Times,serif" font-size="14.00" fill="#5b00c0">rw</text>
</g>
<!-- T5828&#45;&gt;T5853 -->
<g id="edge53" class="edge">
<title>T5828:f0&#45;&gt;T5853:f1</title>
<path fill="none" stroke="#5b00c0" d="M745,-501C745,-463.45 880.89,-502.46 913,-483 941.78,-465.56 930.07,-442.6 955,-420 988.59,-389.55 1002.12,-386.72 1045,-372 1063.72,-365.57 1124.89,-373.88 1143.55,-362.54"/>
<polygon fill="#5b00c0" stroke="#5b00c0" points="1146.57,-364.31 1149,-354 1140.67,-360.54 1146.57,-364.31"/>
<text text-anchor="middle" x="964.5" y="-431.3" font-family="Times,serif" font-size="14.00" fill="#5b00c0">rw</text>
</g>
<!-- T5861&#45;&gt;T5865 -->
<g id="edge59" class="edge">
<title>T5861:f1&#45;&gt;T5865:f0</title>
<path fill="none" stroke="#c000a5" d="M1141,-450C1141,-520.02 1089.82,-521.25 1055,-582 1043.14,-602.69 1041.27,-608.47 1031,-630 1024.06,-644.54 1021.36,-647.81 1016,-663 1007.68,-686.59 1002,-692.49 1002,-717.5 1002,-841 1002,-841 1002,-841 1002,-944.03 876.78,-872.02 775,-888 759.08,-890.5 646.19,-888.19 615.62,-899.52"/>
<polygon fill="#c000a5" stroke="#c000a5" points="613.35,-896.85 608,-906 617.88,-902.19 613.35,-896.85"/>
<text text-anchor="middle" x="1025.5" y="-674.3" font-family="Times,serif" font-size="14.00" fill="#c000a5">wr</text>
</g>
<!-- T5853&#45;&gt;T5865 -->
<g id="edge60" class="edge">
<title>T5853:f0&#45;&gt;T5865:f2</title>
<path fill="none" stroke="#5b00c0" d="M1073,-354C1073,-364.29 1011.9,-410.48 1008,-420 997.09,-446.63 1003.68,-461.66 1023,-483 1033.69,-494.81 1045.97,-487.24 1054,-501 1102.54,-584.11 1049,-621.25 1049,-717.5 1049,-841 1049,-841 1049,-841 1049,-857.34 1030.44,-849.64 1015,-855 964.36,-872.57 951.5,-877.17 899,-888 886.22,-890.64 796.76,-890.63 769.12,-899.85"/>
<polygon fill="#5b00c0" stroke="#5b00c0" points="766.86,-897.17 761,-906 771.09,-902.75 766.86,-897.17"/>
<text text-anchor="middle" x="1071.5" y="-633.8" font-family="Times,serif" font-size="14.00" fill="#5b00c0">rw</text>
</g>
<!-- T5853&#45;&gt;T5886 -->
<g id="edge63" class="edge">
<title>T5853:f0&#45;&gt;T5886:f1</title>
<path fill="none" stroke="#5b00c0" d="M1073,-324C1073,-236.57 1109.13,-190.52 1047,-129 1026.58,-108.78 929.27,-135.45 906.01,-120.01"/>
<polygon fill="#5b00c0" stroke="#5b00c0" points="908.92,-118.04 901,-111 902.8,-121.44 908.92,-118.04"/>
<text text-anchor="middle" x="1092.5" y="-213.8" font-family="Times,serif" font-size="14.00" fill="#5b00c0">rw</text>
</g>
<!-- T5853&#45;&gt;T5931 -->
<g id="edge62" class="edge">
<title>T5853:f0&#45;&gt;T5931:f0</title>
<path fill="none" stroke="#5b00c0" d="M1033,-339C1005.59,-339 818.2,-294.42 791,-291 774.45,-288.92 517.74,-291.01 466.76,-277.93"/>
<polygon fill="#5b00c0" stroke="#5b00c0" points="468.43,-274.85 458,-273 465,-280.95 468.43,-274.85"/>
<text text-anchor="middle" x="870.5" y="-294.8" font-family="Times,serif" font-size="14.00" fill="#5b00c0">rw</text>
</g>
<!-- T5853&#45;&gt;T5901 -->
<g id="edge61" class="edge">
<title>T5853:f0&#45;&gt;T5901:f1</title>
<path fill="none" stroke="#5b00c0" d="M1073,-324C1073,-311.71 1085.71,-315.08 1094,-306 1160.1,-233.57 1209.52,-213.86 1212.82,-121.13"/>
<polygon fill="#5b00c0" stroke="#5b00c0" points="1216.33,-121.06 1213,-111 1209.33,-120.94 1216.33,-121.06"/>
<text text-anchor="middle" x="1193.5" y="-213.8" font-family="Times,serif" font-size="14.00" fill="#5b00c0">rw</text>
</g>
<!-- T5853&#45;&gt;T5895 -->
<g id="edge64" class="edge">
<title>T5853:f0&#45;&gt;T5895:f2</title>
<path fill="none" stroke="#5b00c0" d="M1033,-339C984.5,-339 981.55,-304.63 935,-291 920.58,-286.78 815.94,-289.46 785.99,-279.33"/>
<polygon fill="#5b00c0" stroke="#5b00c0" points="788.01,-276.47 778,-273 783.67,-281.95 788.01,-276.47"/>
<text text-anchor="middle" x="973.5" y="-294.8" font-family="Times,serif" font-size="14.00" fill="#5b00c0">rw</text>
</g>
</g>
</svg>
