<?xml version="1.0" encoding="UTF-8" standalone="no"?>
<!DOCTYPE svg PUBLIC "-//W3C//DTD SVG 1.1//EN"
 "http://www.w3.org/Graphics/SVG/1.1/DTD/svg11.dtd">
<!-- Generated by graphviz version 2.43.0 (0)
 -->
<!-- Title: a_graph Pages: 1 -->
<svg width="598pt" height="443pt"
 viewBox="0.00 0.00 598.00 443.00" xmlns="http://www.w3.org/2000/svg" xmlns:xlink="http://www.w3.org/1999/xlink">
<g id="graph0" class="graph" transform="scale(1 1) rotate(0) translate(4 439)">
<title>a_graph</title>
<polygon fill="white" stroke="transparent" points="-4,4 -4,-439 594,-439 594,4 -4,4"/>
<!-- T25367 -->
<g id="node1" class="node">
<title>T25367</title>
<polygon fill="none" stroke="#0058ad" points="0,-405.5 0,-434.5 145,-434.5 145,-405.5 0,-405.5"/>
<text text-anchor="middle" x="38.5" y="-416.3" font-family="Times,serif" font-size="14.00" fill="#0058ad">r 970 13</text>
<polyline fill="none" stroke="#0058ad" points="77,-405.5 77,-434.5 "/>
<text text-anchor="middle" x="111" y="-416.3" font-family="Times,serif" font-size="14.00" fill="#0058ad">r 975 3</text>
</g>
<!-- T25372 -->
<g id="node6" class="node">
<title>T25372</title>
<polygon fill="none" stroke="#0058ad" points="139,-324.5 139,-353.5 358,-353.5 358,-324.5 139,-324.5"/>
<text text-anchor="middle" x="173" y="-335.3" font-family="Times,serif" font-size="14.00" fill="#0058ad">r 975 3</text>
<polyline fill="none" stroke="#0058ad" points="207,-324.5 207,-353.5 "/>
<text text-anchor="middle" x="245.5" y="-335.3" font-family="Times,serif" font-size="14.00" fill="#0058ad">r 974 nil</text>
<polyline fill="none" stroke="#0058ad" points="284,-324.5 284,-353.5 "/>
<text text-anchor="middle" x="321" y="-335.3" font-family="Times,serif" font-size="14.00" fill="#0058ad">w 975 5</text>
</g>
<!-- T25367&#45;&gt;T25372 -->
<g id="edge1" class="edge">
<title>T25367:f1&#45;&gt;T25372:f2</title>
<path fill="none" stroke="#5b00c0" d="M146.5,-420C184.65,-420 300.23,-399.41 318.93,-363.88"/>
<polygon fill="#5b00c0" stroke="#5b00c0" points="322.37,-364.56 321.5,-354 315.6,-362.8 322.37,-364.56"/>
<text text-anchor="middle" x="321" y="-375.8" font-family="Times,serif" font-size="14.00" fill="#5b00c0">rw</text>
</g>
<!-- T25357 -->
<g id="node2" class="node">
<title>T25357</title>
<polygon fill="none" stroke="#0058ad" points="291,-162.5 291,-191.5 590,-191.5 590,-162.5 291,-162.5"/>
<text text-anchor="middle" x="325" y="-173.3" font-family="Times,serif" font-size="14.00" fill="#0058ad">r 974 3</text>
<polyline fill="none" stroke="#0058ad" points="359,-162.5 359,-191.5 "/>
<text text-anchor="middle" x="397.5" y="-173.3" font-family="Times,serif" font-size="14.00" fill="#0058ad">r 973 16</text>
<polyline fill="none" stroke="#0058ad" points="436,-162.5 436,-191.5 "/>
<text text-anchor="middle" x="474.5" y="-173.3" font-family="Times,serif" font-size="14.00" fill="#0058ad">r 975 nil</text>
<polyline fill="none" stroke="#0058ad" points="513,-162.5 513,-191.5 "/>
<text text-anchor="middle" x="551.5" y="-173.3" font-family="Times,serif" font-size="14.00" fill="#0058ad">r 975 nil</text>
</g>
<!-- T25386 -->
<g id="node4" class="node">
<title>T25386</title>
<polygon fill="none" stroke="#0058ad" points="392,-81.5 392,-110.5 549,-110.5 549,-81.5 392,-81.5"/>
<text text-anchor="middle" x="429" y="-92.3" font-family="Times,serif" font-size="14.00" fill="#0058ad">w 975 9</text>
<polyline fill="none" stroke="#0058ad" points="466,-81.5 466,-110.5 "/>
<text text-anchor="middle" x="507.5" y="-92.3" font-family="Times,serif" font-size="14.00" fill="#0058ad">w 970 16</text>
</g>
<!-- T25357&#45;&gt;T25386 -->
<g id="edge4" class="edge">
<title>T25357:f2&#45;&gt;T25386:f0</title>
<path fill="none" stroke="#5b00c0" d="M474.5,-162C474.5,-135.53 439.91,-139.57 430.72,-121.21"/>
<polygon fill="#5b00c0" stroke="#5b00c0" points="434.04,-120.03 428.5,-111 427.2,-121.52 434.04,-120.03"/>
<text text-anchor="middle" x="474" y="-132.8" font-family="Times,serif" font-size="14.00" fill="#5b00c0">rw</text>
</g>
<!-- T25357&#45;&gt;T25372 -->
<g id="edge3" class="edge">
<title>T25357:f2&#45;&gt;T25372:f2</title>
<path fill="none" stroke="#5b00c0" d="M474.5,-192C474.5,-229.42 517.45,-241.34 497.5,-273 463.09,-327.6 430.92,-338.01 369.6,-338.93"/>
<polygon fill="#5b00c0" stroke="#5b00c0" points="369.48,-335.43 359.5,-339 369.52,-342.43 369.48,-335.43"/>
<text text-anchor="middle" x="512" y="-254.3" font-family="Times,serif" font-size="14.00" fill="#5b00c0">rw</text>
</g>
<!-- T25362 -->
<g id="node7" class="node">
<title>T25362</title>
<polygon fill="none" stroke="#0058ad" points="31.5,-81.5 31.5,-110.5 179.5,-110.5 179.5,-81.5 31.5,-81.5"/>
<text text-anchor="middle" x="68.5" y="-92.3" font-family="Times,serif" font-size="14.00" fill="#0058ad">w 975 2</text>
<polyline fill="none" stroke="#0058ad" points="105.5,-81.5 105.5,-110.5 "/>
<text text-anchor="middle" x="142.5" y="-92.3" font-family="Times,serif" font-size="14.00" fill="#0058ad">w 975 3</text>
</g>
<!-- T25357&#45;&gt;T25362 -->
<g id="edge2" class="edge">
<title>T25357:f2&#45;&gt;T25362:f1</title>
<path fill="none" stroke="#5b00c0" d="M474.5,-162C474.5,-154.46 242.94,-106.99 190.7,-97.61"/>
<polygon fill="#5b00c0" stroke="#5b00c0" points="190.92,-94.1 180.5,-96 189.83,-101.02 190.92,-94.1"/>
<text text-anchor="middle" x="414" y="-132.8" font-family="Times,serif" font-size="14.00" fill="#5b00c0">rw</text>
</g>
<!-- T25351 -->
<g id="node3" class="node">
<title>T25351</title>
<polygon fill="none" stroke="#0058ad" points="171,-243.5 171,-272.5 488,-272.5 488,-243.5 171,-243.5"/>
<text text-anchor="middle" x="212.5" y="-254.3" font-family="Times,serif" font-size="14.00" fill="#0058ad">w 973 15</text>
<polyline fill="none" stroke="#0058ad" points="254,-243.5 254,-272.5 "/>
<text text-anchor="middle" x="291" y="-254.3" font-family="Times,serif" font-size="14.00" fill="#0058ad">w 974 3</text>
<polyline fill="none" stroke="#0058ad" points="328,-243.5 328,-272.5 "/>
<text text-anchor="middle" x="369.5" y="-254.3" font-family="Times,serif" font-size="14.00" fill="#0058ad">w 973 16</text>
<polyline fill="none" stroke="#0058ad" points="411,-243.5 411,-272.5 "/>
<text text-anchor="middle" x="449.5" y="-254.3" font-family="Times,serif" font-size="14.00" fill="#0058ad">r 973 16</text>
</g>
<!-- T25351&#45;&gt;T25357 -->
<g id="edge5" class="edge">
<title>T25351:f2&#45;&gt;T25357:f1</title>
<path fill="none" stroke="#c000a5" d="M369.5,-243C369.5,-220.98 389.8,-218.23 395.83,-201.93"/>
<polygon fill="#c000a5" stroke="#c000a5" points="399.3,-202.44 397.5,-192 392.39,-201.28 399.3,-202.44"/>
<text text-anchor="middle" x="400" y="-213.8" font-family="Times,serif" font-size="14.00" fill="#c000a5">wr</text>
</g>
<!-- T25393 -->
<g id="node5" class="node">
<title>T25393</title>
<polygon fill="none" stroke="#0058ad" points="277,-0.5 277,-29.5 422,-29.5 422,-0.5 277,-0.5"/>
<text text-anchor="middle" x="315.5" y="-11.3" font-family="Times,serif" font-size="14.00" fill="#0058ad">r 974 nil</text>
<polyline fill="none" stroke="#0058ad" points="354,-0.5 354,-29.5 "/>
<text text-anchor="middle" x="388" y="-11.3" font-family="Times,serif" font-size="14.00" fill="#0058ad">r 975 9</text>
</g>
<!-- T25386&#45;&gt;T25393 -->
<g id="edge6" class="edge">
<title>T25386:f0&#45;&gt;T25393:f1</title>
<path fill="none" stroke="#c000a5" d="M428.5,-81C428.5,-56.24 398.96,-57.65 390.65,-40.25"/>
<polygon fill="#c000a5" stroke="#c000a5" points="393.98,-39.07 388.5,-30 387.13,-40.51 393.98,-39.07"/>
<text text-anchor="middle" x="429" y="-51.8" font-family="Times,serif" font-size="14.00" fill="#c000a5">wr</text>
</g>
<!-- T25393&#45;&gt;T25351 -->
<g id="edge7" class="edge">
<title>T25393:f0&#45;&gt;T25351:f1</title>
<path fill="none" stroke="#5b00c0" d="M275.5,-15C227.7,-15 283.19,-172.06 289.86,-232.83"/>
<polygon fill="#5b00c0" stroke="#5b00c0" points="286.38,-233.24 290.5,-243 293.36,-232.8 286.38,-233.24"/>
<text text-anchor="middle" x="280" y="-132.8" font-family="Times,serif" font-size="14.00" fill="#5b00c0">rw</text>
</g>
<!-- T25372&#45;&gt;T25351 -->
<g id="edge8" class="edge">
<title>T25372:f1&#45;&gt;T25351:f1</title>
<path fill="none" stroke="#5b00c0" d="M245.5,-324C245.5,-297.79 279.34,-301.42 288.33,-283.13"/>
<polygon fill="#5b00c0" stroke="#5b00c0" points="291.83,-283.51 290.5,-273 284.98,-282.04 291.83,-283.51"/>
<text text-anchor="middle" x="290" y="-294.8" font-family="Times,serif" font-size="14.00" fill="#5b00c0">rw</text>
</g>
<!-- T25362&#45;&gt;T25367 -->
<g id="edge10" class="edge">
<title>T25362:f1&#45;&gt;T25367:f1</title>
<path fill="none" stroke="#c000a5" d="M142.5,-111C142.5,-128.82 95.5,-158.18 95.5,-176 95.5,-340 95.5,-340 95.5,-340 95.5,-366.03 107.75,-373.5 110.81,-394.89"/>
<polygon fill="#c000a5" stroke="#c000a5" points="107.33,-395.26 111.5,-405 114.31,-394.79 107.33,-395.26"/>
<text text-anchor="middle" x="105" y="-254.3" font-family="Times,serif" font-size="14.00" fill="#c000a5">wr</text>
</g>
<!-- T25362&#45;&gt;T25372 -->
<g id="edge9" class="edge">
<title>T25362:f1&#45;&gt;T25372:f0</title>
<path fill="none" stroke="#c000a5" d="M142.5,-111C142.5,-133.37 118.85,-293.94 130.75,-331.26"/>
<polygon fill="#c000a5" stroke="#c000a5" points="128.29,-333.77 137.5,-339 133.56,-329.16 128.29,-333.77"/>
<text text-anchor="middle" x="142" y="-213.8" font-family="Times,serif" font-size="14.00" fill="#c000a5">wr</text>
</g>
</g>
</svg>
