<?xml version="1.0" encoding="UTF-8" standalone="no"?>
<!DOCTYPE svg PUBLIC "-//W3C//DTD SVG 1.1//EN"
 "http://www.w3.org/Graphics/SVG/1.1/DTD/svg11.dtd">
<!-- Generated by graphviz version 2.43.0 (0)
 -->
<!-- Title: a_graph Pages: 1 -->
<svg width="346pt" height="119pt"
 viewBox="0.00 0.00 346.00 119.00" xmlns="http://www.w3.org/2000/svg" xmlns:xlink="http://www.w3.org/1999/xlink">
<g id="graph0" class="graph" transform="scale(1 1) rotate(0) translate(4 115)">
<title>a_graph</title>
<polygon fill="white" stroke="transparent" points="-4,4 -4,-115 342,-115 342,4 -4,4"/>
<!-- T27147 -->
<g id="node1" class="node">
<title>T27147</title>
<polygon fill="none" stroke="#0058ad" points="39.5,-81.5 39.5,-110.5 300.5,-110.5 300.5,-81.5 39.5,-81.5"/>
<text text-anchor="middle" x="82.5" y="-92.3" font-family="Times,serif" font-size="14.00" fill="#0058ad">r 1039 nil</text>
<polyline fill="none" stroke="#0058ad" points="125.5,-81.5 125.5,-110.5 "/>
<text text-anchor="middle" x="171.5" y="-92.3" font-family="Times,serif" font-size="14.00" fill="#0058ad">w 1036 15</text>
<polyline fill="none" stroke="#0058ad" points="217.5,-81.5 217.5,-110.5 "/>
<text text-anchor="middle" x="259" y="-92.3" font-family="Times,serif" font-size="14.00" fill="#0058ad">w 1039 3</text>
</g>
<!-- T27138 -->
<g id="node2" class="node">
<title>T27138</title>
<polygon fill="none" stroke="#0058ad" points="0,-0.5 0,-29.5 338,-29.5 338,-0.5 0,-0.5"/>
<text text-anchor="middle" x="43" y="-11.3" font-family="Times,serif" font-size="14.00" fill="#0058ad">r 1039 nil</text>
<polyline fill="none" stroke="#0058ad" points="86,-0.5 86,-29.5 "/>
<text text-anchor="middle" x="129" y="-11.3" font-family="Times,serif" font-size="14.00" fill="#0058ad">r 1036 14</text>
<polyline fill="none" stroke="#0058ad" points="172,-0.5 172,-29.5 "/>
<text text-anchor="middle" x="213.5" y="-11.3" font-family="Times,serif" font-size="14.00" fill="#0058ad">w 1039 1</text>
<polyline fill="none" stroke="#0058ad" points="255,-0.5 255,-29.5 "/>
<text text-anchor="middle" x="296.5" y="-11.3" font-family="Times,serif" font-size="14.00" fill="#0058ad">w 1039 2</text>
</g>
<!-- T27147&#45;&gt;T27138 -->
<g id="edge1" class="edge">
<title>T27147:f0&#45;&gt;T27138:f3</title>
<path fill="none" stroke="#5b00c0" d="M82,-81C82,-33.35 137.67,-59.11 184,-48 205.15,-42.93 272.81,-51.97 291.93,-38.77"/>
<polygon fill="#5b00c0" stroke="#5b00c0" points="295.02,-40.41 297,-30 288.96,-36.9 295.02,-40.41"/>
<text text-anchor="middle" x="193.5" y="-51.8" font-family="Times,serif" font-size="14.00" fill="#5b00c0">rw</text>
</g>
<!-- T27138&#45;&gt;T27147 -->
<g id="edge2" class="edge">
<title>T27138:f0&#45;&gt;T27147:f2</title>
<path fill="none" stroke="#5b00c0" d="M43,-30C43,-47.89 186.03,-42.33 203,-48 226.55,-55.86 250.98,-53.25 257.39,-70.69"/>
<polygon fill="#5b00c0" stroke="#5b00c0" points="254,-71.66 259,-81 260.91,-70.58 254,-71.66"/>
<text text-anchor="middle" x="262.5" y="-51.8" font-family="Times,serif" font-size="14.00" fill="#5b00c0">rw</text>
</g>
</g>
</svg>
