<?xml version="1.0" encoding="UTF-8" standalone="no"?>
<!DOCTYPE svg PUBLIC "-//W3C//DTD SVG 1.1//EN"
 "http://www.w3.org/Graphics/SVG/1.1/DTD/svg11.dtd">
<!-- Generated by graphviz version 2.43.0 (0)
 -->
<!-- Title: a_graph Pages: 1 -->
<svg width="769pt" height="524pt"
 viewBox="0.00 0.00 769.00 524.00" xmlns="http://www.w3.org/2000/svg" xmlns:xlink="http://www.w3.org/1999/xlink">
<g id="graph0" class="graph" transform="scale(1 1) rotate(0) translate(4 520)">
<title>a_graph</title>
<polygon fill="white" stroke="transparent" points="-4,4 -4,-520 765,-520 765,4 -4,4"/>
<!-- T15811 -->
<g id="node1" class="node">
<title>T15811</title>
<polygon fill="none" stroke="#0058ad" points="531.5,-486.5 531.5,-515.5 676.5,-515.5 676.5,-486.5 531.5,-486.5"/>
<text text-anchor="middle" x="570" y="-497.3" font-family="Times,serif" font-size="14.00" fill="#0058ad">r 605 nil</text>
<polyline fill="none" stroke="#0058ad" points="608.5,-486.5 608.5,-515.5 "/>
<text text-anchor="middle" x="642.5" y="-497.3" font-family="Times,serif" font-size="14.00" fill="#0058ad">r 607 3</text>
</g>
<!-- T15783 -->
<g id="node4" class="node">
<title>T15783</title>
<polygon fill="none" stroke="#0058ad" points="358.5,-405.5 358.5,-434.5 589.5,-434.5 589.5,-405.5 358.5,-405.5"/>
<text text-anchor="middle" x="395.5" y="-416.3" font-family="Times,serif" font-size="14.00" fill="#0058ad">w 605 1</text>
<polyline fill="none" stroke="#0058ad" points="432.5,-405.5 432.5,-434.5 "/>
<text text-anchor="middle" x="474" y="-416.3" font-family="Times,serif" font-size="14.00" fill="#0058ad">w 536 16</text>
<polyline fill="none" stroke="#0058ad" points="515.5,-405.5 515.5,-434.5 "/>
<text text-anchor="middle" x="552.5" y="-416.3" font-family="Times,serif" font-size="14.00" fill="#0058ad">w 606 3</text>
</g>
<!-- T15811&#45;&gt;T15783 -->
<g id="edge1" class="edge">
<title>T15811:f0&#45;&gt;T15783:f0</title>
<path fill="none" stroke="#5b00c0" d="M530,-501C499.87,-501 414.19,-474.45 397.75,-444.73"/>
<polygon fill="#5b00c0" stroke="#5b00c0" points="401.09,-443.67 395,-435 394.35,-445.57 401.09,-443.67"/>
<text text-anchor="middle" x="433.5" y="-456.8" font-family="Times,serif" font-size="14.00" fill="#5b00c0">rw</text>
</g>
<!-- T15830 -->
<g id="node2" class="node">
<title>T15830</title>
<polygon fill="none" stroke="#0058ad" points="390.5,-0.5 390.5,-29.5 541.5,-29.5 541.5,-0.5 390.5,-0.5"/>
<text text-anchor="middle" x="427.5" y="-11.3" font-family="Times,serif" font-size="14.00" fill="#0058ad">w 610 5</text>
<polyline fill="none" stroke="#0058ad" points="464.5,-0.5 464.5,-29.5 "/>
<text text-anchor="middle" x="503" y="-11.3" font-family="Times,serif" font-size="14.00" fill="#0058ad">r 605 nil</text>
</g>
<!-- T15830&#45;&gt;T15783 -->
<g id="edge2" class="edge">
<title>T15830:f1&#45;&gt;T15783:f0</title>
<path fill="none" stroke="#5b00c0" d="M543,-15C613.81,-15 646.25,-23.81 688,-81 723.76,-129.98 704,-155.86 704,-216.5 704,-340 704,-340 704,-340 704,-403.53 631.01,-373.19 569,-387 552.62,-390.65 434.85,-386.93 402.95,-398.35"/>
<polygon fill="#5b00c0" stroke="#5b00c0" points="400.42,-395.9 395,-405 404.91,-401.27 400.42,-395.9"/>
<text text-anchor="middle" x="713.5" y="-213.8" font-family="Times,serif" font-size="14.00" fill="#5b00c0">rw</text>
</g>
<!-- T15820 -->
<g id="node3" class="node">
<title>T15820</title>
<polygon fill="none" stroke="#0058ad" points="314.5,-81.5 314.5,-110.5 465.5,-110.5 465.5,-81.5 314.5,-81.5"/>
<text text-anchor="middle" x="351.5" y="-92.3" font-family="Times,serif" font-size="14.00" fill="#0058ad">w 607 4</text>
<polyline fill="none" stroke="#0058ad" points="388.5,-81.5 388.5,-110.5 "/>
<text text-anchor="middle" x="427" y="-92.3" font-family="Times,serif" font-size="14.00" fill="#0058ad">r 610 nil</text>
</g>
<!-- T15820&#45;&gt;T15830 -->
<g id="edge3" class="edge">
<title>T15820:f1&#45;&gt;T15830:f0</title>
<path fill="none" stroke="#5b00c0" d="M427,-81C427,-62.23 427,-55.12 427,-40.35"/>
<polygon fill="#5b00c0" stroke="#5b00c0" points="430.5,-40 427,-30 423.5,-40 430.5,-40"/>
<text text-anchor="middle" x="436.5" y="-51.8" font-family="Times,serif" font-size="14.00" fill="#5b00c0">rw</text>
</g>
<!-- T15786 -->
<g id="node5" class="node">
<title>T15786</title>
<polygon fill="none" stroke="#0058ad" points="365.5,-324.5 365.5,-353.5 646.5,-353.5 646.5,-324.5 365.5,-324.5"/>
<text text-anchor="middle" x="399.5" y="-335.3" font-family="Times,serif" font-size="14.00" fill="#0058ad">r 606 3</text>
<polyline fill="none" stroke="#0058ad" points="433.5,-324.5 433.5,-353.5 "/>
<text text-anchor="middle" x="472" y="-335.3" font-family="Times,serif" font-size="14.00" fill="#0058ad">r 607 nil</text>
<polyline fill="none" stroke="#0058ad" points="510.5,-324.5 510.5,-353.5 "/>
<text text-anchor="middle" x="544.5" y="-335.3" font-family="Times,serif" font-size="14.00" fill="#0058ad">r 606 3</text>
<polyline fill="none" stroke="#0058ad" points="578.5,-324.5 578.5,-353.5 "/>
<text text-anchor="middle" x="612.5" y="-335.3" font-family="Times,serif" font-size="14.00" fill="#0058ad">r 606 3</text>
</g>
<!-- T15783&#45;&gt;T15786 -->
<g id="edge5" class="edge">
<title>T15783:f2&#45;&gt;T15786:f0</title>
<path fill="none" stroke="#c000a5" d="M553,-405C553,-336.7 414.81,-416.73 400.24,-364.08"/>
<polygon fill="#c000a5" stroke="#c000a5" points="403.69,-363.5 399,-354 396.75,-364.35 403.69,-363.5"/>
<text text-anchor="middle" x="555.5" y="-375.8" font-family="Times,serif" font-size="14.00" fill="#c000a5">wr</text>
</g>
<!-- T15818 -->
<g id="node8" class="node">
<title>T15818</title>
<polygon fill="none" stroke="#0058ad" points="0,-81.5 0,-110.5 296,-110.5 296,-81.5 0,-81.5"/>
<text text-anchor="middle" x="34" y="-92.3" font-family="Times,serif" font-size="14.00" fill="#0058ad">r 605 1</text>
<polyline fill="none" stroke="#0058ad" points="68,-81.5 68,-110.5 "/>
<text text-anchor="middle" x="106.5" y="-92.3" font-family="Times,serif" font-size="14.00" fill="#0058ad">r 610 nil</text>
<polyline fill="none" stroke="#0058ad" points="145,-81.5 145,-110.5 "/>
<text text-anchor="middle" x="183.5" y="-92.3" font-family="Times,serif" font-size="14.00" fill="#0058ad">r 610 nil</text>
<polyline fill="none" stroke="#0058ad" points="222,-81.5 222,-110.5 "/>
<text text-anchor="middle" x="259" y="-92.3" font-family="Times,serif" font-size="14.00" fill="#0058ad">w 607 5</text>
</g>
<!-- T15783&#45;&gt;T15818 -->
<g id="edge4" class="edge">
<title>T15783:f0&#45;&gt;T15818:f0</title>
<path fill="none" stroke="#c000a5" d="M357,-420C295.91,-420 94,-401.09 94,-340 94,-340 94,-340 94,-176 94,-140.52 45.15,-148.16 35.6,-121.1"/>
<polygon fill="#c000a5" stroke="#c000a5" points="39.03,-120.33 34,-111 32.11,-121.43 39.03,-120.33"/>
<text text-anchor="middle" x="103.5" y="-254.3" font-family="Times,serif" font-size="14.00" fill="#c000a5">wr</text>
</g>
<!-- T15786&#45;&gt;T15820 -->
<g id="edge7" class="edge">
<title>T15786:f1&#45;&gt;T15820:f0</title>
<path fill="none" stroke="#5b00c0" d="M472,-324C472,-305.13 407.37,-310.34 389,-306 331.41,-292.39 296.29,-319.74 260,-273 251.82,-262.47 257.7,-256.13 260,-243 260.63,-239.38 295.16,-136.27 308.3,-104.94"/>
<polygon fill="#5b00c0" stroke="#5b00c0" points="311.45,-106.48 313,-96 305.25,-103.23 311.45,-106.48"/>
<text text-anchor="middle" x="280.5" y="-213.8" font-family="Times,serif" font-size="14.00" fill="#5b00c0">rw</text>
</g>
<!-- T15795 -->
<g id="node6" class="node">
<title>T15795</title>
<polygon fill="none" stroke="#0058ad" points="269.5,-243.5 269.5,-272.5 580.5,-272.5 580.5,-243.5 269.5,-243.5"/>
<text text-anchor="middle" x="308" y="-254.3" font-family="Times,serif" font-size="14.00" fill="#0058ad">r 607 nil</text>
<polyline fill="none" stroke="#0058ad" points="346.5,-243.5 346.5,-272.5 "/>
<text text-anchor="middle" x="383.5" y="-254.3" font-family="Times,serif" font-size="14.00" fill="#0058ad">w 607 2</text>
<polyline fill="none" stroke="#0058ad" points="420.5,-243.5 420.5,-272.5 "/>
<text text-anchor="middle" x="462" y="-254.3" font-family="Times,serif" font-size="14.00" fill="#0058ad">w 606 10</text>
<polyline fill="none" stroke="#0058ad" points="503.5,-243.5 503.5,-272.5 "/>
<text text-anchor="middle" x="542" y="-254.3" font-family="Times,serif" font-size="14.00" fill="#0058ad">r 606 10</text>
</g>
<!-- T15786&#45;&gt;T15795 -->
<g id="edge6" class="edge">
<title>T15786:f1&#45;&gt;T15795:f1</title>
<path fill="none" stroke="#5b00c0" d="M472,-324C472,-282.33 397.64,-312.32 384.86,-282.96"/>
<polygon fill="#5b00c0" stroke="#5b00c0" points="388.27,-282.19 383,-273 381.39,-283.47 388.27,-282.19"/>
<text text-anchor="middle" x="472.5" y="-294.8" font-family="Times,serif" font-size="14.00" fill="#5b00c0">rw</text>
</g>
<!-- T15806 -->
<g id="node7" class="node">
<title>T15806</title>
<polygon fill="none" stroke="#0058ad" points="521.5,-81.5 521.5,-110.5 678.5,-110.5 678.5,-81.5 521.5,-81.5"/>
<text text-anchor="middle" x="563" y="-92.3" font-family="Times,serif" font-size="14.00" fill="#0058ad">w 606 15</text>
<polyline fill="none" stroke="#0058ad" points="604.5,-81.5 604.5,-110.5 "/>
<text text-anchor="middle" x="641.5" y="-92.3" font-family="Times,serif" font-size="14.00" fill="#0058ad">w 607 3</text>
</g>
<!-- T15786&#45;&gt;T15806 -->
<g id="edge10" class="edge">
<title>T15786:f1&#45;&gt;T15806:f1</title>
<path fill="none" stroke="#5b00c0" d="M472,-324C472,-294.88 507.44,-315.39 535,-306 572.58,-293.2 590.26,-301.4 618,-273 644.82,-245.53 641.23,-229.79 648,-192 652.94,-164.44 652.49,-156.64 648,-129 647.41,-125.36 646.19,-123.07 645,-120.95"/>
<polygon fill="#5b00c0" stroke="#5b00c0" points="648.24,-119.56 642,-111 641.54,-121.58 648.24,-119.56"/>
<text text-anchor="middle" x="654.5" y="-213.8" font-family="Times,serif" font-size="14.00" fill="#5b00c0">rw</text>
</g>
<!-- T15786&#45;&gt;T15818 -->
<g id="edge8" class="edge">
<title>T15786:f1&#45;&gt;T15818:f3</title>
<path fill="none" stroke="#5b00c0" d="M472,-324C472,-302.13 295.01,-316.81 276,-306 242.2,-286.79 246.6,-263.71 243,-225 239.02,-182.13 249.05,-171.49 256,-129 256.57,-125.5 257.22,-123.17 257.76,-120.97"/>
<polygon fill="#5b00c0" stroke="#5b00c0" points="261.24,-121.35 259,-111 254.3,-120.49 261.24,-121.35"/>
<text text-anchor="middle" x="252.5" y="-213.8" font-family="Times,serif" font-size="14.00" fill="#5b00c0">rw</text>
</g>
<!-- T15792 -->
<g id="node9" class="node">
<title>T15792</title>
<polygon fill="none" stroke="#0058ad" points="345,-162.5 345,-191.5 579,-191.5 579,-162.5 345,-162.5"/>
<text text-anchor="middle" x="383.5" y="-173.3" font-family="Times,serif" font-size="14.00" fill="#0058ad">r 607 nil</text>
<polyline fill="none" stroke="#0058ad" points="422,-162.5 422,-191.5 "/>
<text text-anchor="middle" x="459" y="-173.3" font-family="Times,serif" font-size="14.00" fill="#0058ad">w 607 1</text>
<polyline fill="none" stroke="#0058ad" points="496,-162.5 496,-191.5 "/>
<text text-anchor="middle" x="537.5" y="-173.3" font-family="Times,serif" font-size="14.00" fill="#0058ad">w 593 16</text>
</g>
<!-- T15786&#45;&gt;T15792 -->
<g id="edge9" class="edge">
<title>T15786:f1&#45;&gt;T15792:f1</title>
<path fill="none" stroke="#5b00c0" d="M472,-324C472,-295.43 574.31,-296.87 590,-273 597.32,-261.86 597.53,-254.01 590,-243 556.87,-194.55 470.37,-247.26 460.02,-202.02"/>
<polygon fill="#5b00c0" stroke="#5b00c0" points="463.49,-201.59 459,-192 456.53,-202.3 463.49,-201.59"/>
<text text-anchor="middle" x="604.5" y="-254.3" font-family="Times,serif" font-size="14.00" fill="#5b00c0">rw</text>
</g>
<!-- T15795&#45;&gt;T15820 -->
<g id="edge11" class="edge">
<title>T15795:f0&#45;&gt;T15820:f0</title>
<path fill="none" stroke="#5b00c0" d="M308,-243C308,-206.78 304.6,-196.03 317,-162 325.01,-140 344.36,-138.27 349.65,-120.92"/>
<polygon fill="#5b00c0" stroke="#5b00c0" points="353.12,-121.38 351,-111 346.18,-120.44 353.12,-121.38"/>
<text text-anchor="middle" x="326.5" y="-173.3" font-family="Times,serif" font-size="14.00" fill="#5b00c0">rw</text>
</g>
<!-- T15795&#45;&gt;T15806 -->
<g id="edge14" class="edge">
<title>T15795:f0&#45;&gt;T15806:f1</title>
<path fill="none" stroke="#5b00c0" d="M308,-243C308,-242.75 587.79,-192.14 588,-192 621.19,-170.18 638.95,-156.62 641.64,-121.08"/>
<polygon fill="#5b00c0" stroke="#5b00c0" points="645.14,-121.12 642,-111 638.14,-120.87 645.14,-121.12"/>
<text text-anchor="middle" x="634.5" y="-173.3" font-family="Times,serif" font-size="14.00" fill="#5b00c0">rw</text>
</g>
<!-- T15795&#45;&gt;T15818 -->
<g id="edge12" class="edge">
<title>T15795:f0&#45;&gt;T15818:f3</title>
<path fill="none" stroke="#5b00c0" d="M268,-258C260.97,-258 259.38,-155.48 259.07,-121.45"/>
<polygon fill="#5b00c0" stroke="#5b00c0" points="262.56,-120.98 259,-111 255.56,-121.02 262.56,-120.98"/>
<text text-anchor="middle" x="270.5" y="-173.3" font-family="Times,serif" font-size="14.00" fill="#5b00c0">rw</text>
</g>
<!-- T15795&#45;&gt;T15792 -->
<g id="edge13" class="edge">
<title>T15795:f0&#45;&gt;T15792:f1</title>
<path fill="none" stroke="#5b00c0" d="M308,-243C308,-232.47 332.57,-214.69 342,-210 362.15,-199.98 433.45,-213.18 453.64,-200.74"/>
<polygon fill="#5b00c0" stroke="#5b00c0" points="456.75,-202.35 459,-192 450.79,-198.69 456.75,-202.35"/>
<text text-anchor="middle" x="351.5" y="-213.8" font-family="Times,serif" font-size="14.00" fill="#5b00c0">rw</text>
</g>
<!-- T15806&#45;&gt;T15811 -->
<g id="edge15" class="edge">
<title>T15806:f1&#45;&gt;T15811:f1</title>
<path fill="none" stroke="#c000a5" d="M680,-96C740.23,-96 742,-156.27 742,-216.5 742,-421 742,-421 742,-421 742,-462.98 726.31,-495.55 688.18,-500.38"/>
<polygon fill="#c000a5" stroke="#c000a5" points="687.77,-496.9 678,-501 688.19,-503.89 687.77,-496.9"/>
<text text-anchor="middle" x="751.5" y="-294.8" font-family="Times,serif" font-size="14.00" fill="#c000a5">wr</text>
</g>
<!-- T15818&#45;&gt;T15830 -->
<g id="edge16" class="edge">
<title>T15818:f1&#45;&gt;T15830:f0</title>
<path fill="none" stroke="#5b00c0" d="M106,-81C106,-19.45 304.43,-15.27 378.94,-15.02"/>
<polygon fill="#5b00c0" stroke="#5b00c0" points="379.01,-18.52 389,-15 378.99,-11.52 379.01,-18.52"/>
<text text-anchor="middle" x="139.5" y="-51.8" font-family="Times,serif" font-size="14.00" fill="#5b00c0">rw</text>
</g>
<!-- T15792&#45;&gt;T15820 -->
<g id="edge18" class="edge">
<title>T15792:f0&#45;&gt;T15820:f0</title>
<path fill="none" stroke="#5b00c0" d="M383,-162C383,-139.21 359.79,-137.66 352.91,-121.17"/>
<polygon fill="#5b00c0" stroke="#5b00c0" points="356.28,-120.18 351,-111 349.4,-121.47 356.28,-120.18"/>
<text text-anchor="middle" x="385.5" y="-132.8" font-family="Times,serif" font-size="14.00" fill="#5b00c0">rw</text>
</g>
<!-- T15792&#45;&gt;T15795 -->
<g id="edge17" class="edge">
<title>T15792:f0&#45;&gt;T15795:f1</title>
<path fill="none" stroke="#5b00c0" d="M383,-192C383,-210.77 383,-217.88 383,-232.65"/>
<polygon fill="#5b00c0" stroke="#5b00c0" points="379.5,-233 383,-243 386.5,-233 379.5,-233"/>
<text text-anchor="middle" x="392.5" y="-213.8" font-family="Times,serif" font-size="14.00" fill="#5b00c0">rw</text>
</g>
<!-- T15792&#45;&gt;T15806 -->
<g id="edge20" class="edge">
<title>T15792:f0&#45;&gt;T15806:f1</title>
<path fill="none" stroke="#5b00c0" d="M383,-162C383,-148.97 587.54,-130.4 633.08,-116.14"/>
<polygon fill="#5b00c0" stroke="#5b00c0" points="635.08,-119.03 642,-111 631.59,-112.96 635.08,-119.03"/>
<text text-anchor="middle" x="567.5" y="-132.8" font-family="Times,serif" font-size="14.00" fill="#5b00c0">rw</text>
</g>
<!-- T15792&#45;&gt;T15818 -->
<g id="edge19" class="edge">
<title>T15792:f0&#45;&gt;T15818:f3</title>
<path fill="none" stroke="#5b00c0" d="M344,-177C335.48,-177 309.17,-118.43 305,-111 303.79,-108.84 303.32,-106.48 302.98,-104.29"/>
<polygon fill="#5b00c0" stroke="#5b00c0" points="305.69,-102.06 297,-96 300.01,-106.16 305.69,-102.06"/>
<text text-anchor="middle" x="330.5" y="-132.8" font-family="Times,serif" font-size="14.00" fill="#5b00c0">rw</text>
</g>
</g>
</svg>
