<?xml version="1.0" encoding="UTF-8" standalone="no"?>
<!DOCTYPE svg PUBLIC "-//W3C//DTD SVG 1.1//EN"
 "http://www.w3.org/Graphics/SVG/1.1/DTD/svg11.dtd">
<!-- Generated by graphviz version 2.43.0 (0)
 -->
<!-- Title: a_graph Pages: 1 -->
<svg width="310pt" height="119pt"
 viewBox="0.00 0.00 310.00 119.00" xmlns="http://www.w3.org/2000/svg" xmlns:xlink="http://www.w3.org/1999/xlink">
<g id="graph0" class="graph" transform="scale(1 1) rotate(0) translate(4 115)">
<title>a_graph</title>
<polygon fill="white" stroke="transparent" points="-4,4 -4,-115 306,-115 306,4 -4,4"/>
<!-- T6330 -->
<g id="node1" class="node">
<title>T6330</title>
<polygon fill="none" stroke="#0058ad" points="0,-81.5 0,-110.5 302,-110.5 302,-81.5 0,-81.5"/>
<text text-anchor="middle" x="37" y="-92.3" font-family="Times,serif" font-size="14.00" fill="#0058ad">w 246 4</text>
<polyline fill="none" stroke="#0058ad" points="74,-81.5 74,-110.5 "/>
<text text-anchor="middle" x="112.5" y="-92.3" font-family="Times,serif" font-size="14.00" fill="#0058ad">r 247 nil</text>
<polyline fill="none" stroke="#0058ad" points="151,-81.5 151,-110.5 "/>
<text text-anchor="middle" x="189.5" y="-92.3" font-family="Times,serif" font-size="14.00" fill="#0058ad">r 247 nil</text>
<polyline fill="none" stroke="#0058ad" points="228,-81.5 228,-110.5 "/>
<text text-anchor="middle" x="265" y="-92.3" font-family="Times,serif" font-size="14.00" fill="#0058ad">w 247 2</text>
</g>
<!-- T6320 -->
<g id="node2" class="node">
<title>T6320</title>
<polygon fill="none" stroke="#0058ad" points="111.5,-0.5 111.5,-29.5 262.5,-29.5 262.5,-0.5 111.5,-0.5"/>
<text text-anchor="middle" x="150" y="-11.3" font-family="Times,serif" font-size="14.00" fill="#0058ad">r 247 nil</text>
<polyline fill="none" stroke="#0058ad" points="188.5,-0.5 188.5,-29.5 "/>
<text text-anchor="middle" x="225.5" y="-11.3" font-family="Times,serif" font-size="14.00" fill="#0058ad">w 247 1</text>
</g>
<!-- T6330&#45;&gt;T6320 -->
<g id="edge1" class="edge">
<title>T6330:f1&#45;&gt;T6320:f1</title>
<path fill="none" stroke="#5b00c0" d="M112,-81C112,-69.29 193.16,-50.91 218.52,-37.12"/>
<polygon fill="#5b00c0" stroke="#5b00c0" points="221.17,-39.43 226,-30 216.34,-34.36 221.17,-39.43"/>
<text text-anchor="middle" x="199.5" y="-51.8" font-family="Times,serif" font-size="14.00" fill="#5b00c0">rw</text>
</g>
<!-- T6320&#45;&gt;T6330 -->
<g id="edge2" class="edge">
<title>T6320:f0&#45;&gt;T6330:f3</title>
<path fill="none" stroke="#5b00c0" d="M150,-30C150,-59.12 186.43,-36.08 213,-48 234.27,-57.54 257.02,-54.91 263.31,-70.83"/>
<polygon fill="#5b00c0" stroke="#5b00c0" points="259.91,-71.71 265,-81 266.81,-70.56 259.91,-71.71"/>
<text text-anchor="middle" x="265.5" y="-51.8" font-family="Times,serif" font-size="14.00" fill="#5b00c0">rw</text>
</g>
</g>
</svg>
