<?xml version="1.0" encoding="UTF-8" standalone="no"?>
<!DOCTYPE svg PUBLIC "-//W3C//DTD SVG 1.1//EN"
 "http://www.w3.org/Graphics/SVG/1.1/DTD/svg11.dtd">
<!-- Generated by graphviz version 2.43.0 (0)
 -->
<!-- Title: a_graph Pages: 1 -->
<svg width="302pt" height="119pt"
 viewBox="0.00 0.00 301.50 119.00" xmlns="http://www.w3.org/2000/svg" xmlns:xlink="http://www.w3.org/1999/xlink">
<g id="graph0" class="graph" transform="scale(1 1) rotate(0) translate(4 115)">
<title>a_graph</title>
<polygon fill="white" stroke="transparent" points="-4,4 -4,-115 297.5,-115 297.5,4 -4,4"/>
<!-- T1670 -->
<g id="node1" class="node">
<title>T1670</title>
<polygon fill="none" stroke="#0058ad" points="27.5,-81.5 27.5,-110.5 293.5,-110.5 293.5,-81.5 27.5,-81.5"/>
<text text-anchor="middle" x="61.5" y="-92.3" font-family="Times,serif" font-size="14.00" fill="#0058ad">r 71 nil</text>
<polyline fill="none" stroke="#0058ad" points="95.5,-81.5 95.5,-110.5 "/>
<text text-anchor="middle" x="129.5" y="-92.3" font-family="Times,serif" font-size="14.00" fill="#0058ad">r 62 12</text>
<polyline fill="none" stroke="#0058ad" points="163.5,-81.5 163.5,-110.5 "/>
<text text-anchor="middle" x="196" y="-92.3" font-family="Times,serif" font-size="14.00" fill="#0058ad">w 71 1</text>
<polyline fill="none" stroke="#0058ad" points="228.5,-81.5 228.5,-110.5 "/>
<text text-anchor="middle" x="261" y="-92.3" font-family="Times,serif" font-size="14.00" fill="#0058ad">w 70 2</text>
</g>
<!-- T1671 -->
<g id="node2" class="node">
<title>T1671</title>
<polygon fill="none" stroke="#0058ad" points="0,-0.5 0,-29.5 257,-29.5 257,-0.5 0,-0.5"/>
<text text-anchor="middle" x="34" y="-11.3" font-family="Times,serif" font-size="14.00" fill="#0058ad">r 71 nil</text>
<polyline fill="none" stroke="#0058ad" points="68,-0.5 68,-29.5 "/>
<text text-anchor="middle" x="100.5" y="-11.3" font-family="Times,serif" font-size="14.00" fill="#0058ad">w 70 3</text>
<polyline fill="none" stroke="#0058ad" points="133,-0.5 133,-29.5 "/>
<text text-anchor="middle" x="162.5" y="-11.3" font-family="Times,serif" font-size="14.00" fill="#0058ad">r 70 3</text>
<polyline fill="none" stroke="#0058ad" points="192,-0.5 192,-29.5 "/>
<text text-anchor="middle" x="224.5" y="-11.3" font-family="Times,serif" font-size="14.00" fill="#0058ad">w 71 2</text>
</g>
<!-- T1670&#45;&gt;T1671 -->
<g id="edge1" class="edge">
<title>T1670:f0&#45;&gt;T1671:f3</title>
<path fill="none" stroke="#5b00c0" d="M61.5,-81C61.5,-46.2 99.41,-58.75 132.5,-48 148.91,-42.67 201.23,-48.11 218.73,-38.31"/>
<polygon fill="#5b00c0" stroke="#5b00c0" points="221.67,-40.21 224.5,-30 215.92,-36.22 221.67,-40.21"/>
<text text-anchor="middle" x="142" y="-51.8" font-family="Times,serif" font-size="14.00" fill="#5b00c0">rw</text>
</g>
<!-- T1671&#45;&gt;T1670 -->
<g id="edge2" class="edge">
<title>T1671:f0&#45;&gt;T1670:f2</title>
<path fill="none" stroke="#5b00c0" d="M33.5,-30C33.5,-56.53 126.99,-37.86 151.5,-48 170.66,-55.92 189.23,-56.33 194.81,-70.74"/>
<polygon fill="#5b00c0" stroke="#5b00c0" points="191.42,-71.7 196.5,-81 198.33,-70.56 191.42,-71.7"/>
<text text-anchor="middle" x="199" y="-51.8" font-family="Times,serif" font-size="14.00" fill="#5b00c0">rw</text>
</g>
</g>
</svg>
