<?xml version="1.0" encoding="UTF-8" standalone="no"?>
<!DOCTYPE svg PUBLIC "-//W3C//DTD SVG 1.1//EN"
 "http://www.w3.org/Graphics/SVG/1.1/DTD/svg11.dtd">
<!-- Generated by graphviz version 2.43.0 (0)
 -->
<!-- Title: a_graph Pages: 1 -->
<svg width="587pt" height="443pt"
 viewBox="0.00 0.00 587.00 443.00" xmlns="http://www.w3.org/2000/svg" xmlns:xlink="http://www.w3.org/1999/xlink">
<g id="graph0" class="graph" transform="scale(1 1) rotate(0) translate(4 439)">
<title>a_graph</title>
<polygon fill="white" stroke="transparent" points="-4,4 -4,-439 583,-439 583,4 -4,4"/>
<!-- T10059 -->
<g id="node1" class="node">
<title>T10059</title>
<polygon fill="none" stroke="#0058ad" points="283,-405.5 283,-434.5 579,-434.5 579,-405.5 283,-405.5"/>
<text text-anchor="middle" x="321.5" y="-416.3" font-family="Times,serif" font-size="14.00" fill="#0058ad">r 392 nil</text>
<polyline fill="none" stroke="#0058ad" points="360,-405.5 360,-434.5 "/>
<text text-anchor="middle" x="398.5" y="-416.3" font-family="Times,serif" font-size="14.00" fill="#0058ad">r 392 nil</text>
<polyline fill="none" stroke="#0058ad" points="437,-405.5 437,-434.5 "/>
<text text-anchor="middle" x="474" y="-416.3" font-family="Times,serif" font-size="14.00" fill="#0058ad">w 390 2</text>
<polyline fill="none" stroke="#0058ad" points="511,-405.5 511,-434.5 "/>
<text text-anchor="middle" x="545" y="-416.3" font-family="Times,serif" font-size="14.00" fill="#0058ad">r 388 7</text>
</g>
<!-- T10084 -->
<g id="node4" class="node">
<title>T10084</title>
<polygon fill="none" stroke="#0058ad" points="226.5,-81.5 226.5,-110.5 445.5,-110.5 445.5,-81.5 226.5,-81.5"/>
<text text-anchor="middle" x="265" y="-92.3" font-family="Times,serif" font-size="14.00" fill="#0058ad">r 388 11</text>
<polyline fill="none" stroke="#0058ad" points="303.5,-81.5 303.5,-110.5 "/>
<text text-anchor="middle" x="340.5" y="-92.3" font-family="Times,serif" font-size="14.00" fill="#0058ad">w 392 9</text>
<polyline fill="none" stroke="#0058ad" points="377.5,-81.5 377.5,-110.5 "/>
<text text-anchor="middle" x="411.5" y="-92.3" font-family="Times,serif" font-size="14.00" fill="#0058ad">r 392 9</text>
</g>
<!-- T10059&#45;&gt;T10084 -->
<g id="edge1" class="edge">
<title>T10059:f0&#45;&gt;T10084:f1</title>
<path fill="none" stroke="#5b00c0" d="M321,-405C321,-374.77 341,-370.23 341,-340 341,-340 341,-340 341,-176 341,-150.84 341,-142.11 341,-121.18"/>
<polygon fill="#5b00c0" stroke="#5b00c0" points="344.5,-121 341,-111 337.5,-121 344.5,-121"/>
<text text-anchor="middle" x="350.5" y="-254.3" font-family="Times,serif" font-size="14.00" fill="#5b00c0">rw</text>
</g>
<!-- T10063 -->
<g id="node6" class="node">
<title>T10063</title>
<polygon fill="none" stroke="#0058ad" points="0,-324.5 0,-353.5 148,-353.5 148,-324.5 0,-324.5"/>
<text text-anchor="middle" x="37" y="-335.3" font-family="Times,serif" font-size="14.00" fill="#0058ad">w 388 8</text>
<polyline fill="none" stroke="#0058ad" points="74,-324.5 74,-353.5 "/>
<text text-anchor="middle" x="111" y="-335.3" font-family="Times,serif" font-size="14.00" fill="#0058ad">w 392 5</text>
</g>
<!-- T10059&#45;&gt;T10063 -->
<g id="edge2" class="edge">
<title>T10059:f0&#45;&gt;T10063:f1</title>
<path fill="none" stroke="#5b00c0" d="M282,-420C216.3,-420 217.85,-347.02 158.99,-339.61"/>
<polygon fill="#5b00c0" stroke="#5b00c0" points="159.19,-336.11 149,-339 158.77,-343.1 159.19,-336.11"/>
<text text-anchor="middle" x="230.5" y="-375.8" font-family="Times,serif" font-size="14.00" fill="#5b00c0">rw</text>
</g>
<!-- T10094 -->
<g id="node2" class="node">
<title>T10094</title>
<polygon fill="none" stroke="#0058ad" points="353,-0.5 353,-29.5 575,-29.5 575,-0.5 353,-0.5"/>
<text text-anchor="middle" x="387" y="-11.3" font-family="Times,serif" font-size="14.00" fill="#0058ad">r 392 9</text>
<polyline fill="none" stroke="#0058ad" points="421,-0.5 421,-29.5 "/>
<text text-anchor="middle" x="459.5" y="-11.3" font-family="Times,serif" font-size="14.00" fill="#0058ad">r 390 nil</text>
<polyline fill="none" stroke="#0058ad" points="498,-0.5 498,-29.5 "/>
<text text-anchor="middle" x="536.5" y="-11.3" font-family="Times,serif" font-size="14.00" fill="#0058ad">r 388 12</text>
</g>
<!-- T10094&#45;&gt;T10059 -->
<g id="edge3" class="edge">
<title>T10094:f1&#45;&gt;T10059:f2</title>
<path fill="none" stroke="#5b00c0" d="M459,-30C459,-59.65 474,-65.35 474,-95 474,-340 474,-340 474,-340 474,-365.16 474,-373.89 474,-394.82"/>
<polygon fill="#5b00c0" stroke="#5b00c0" points="470.5,-395 474,-405 477.5,-395 470.5,-395"/>
<text text-anchor="middle" x="483.5" y="-213.8" font-family="Times,serif" font-size="14.00" fill="#5b00c0">rw</text>
</g>
<!-- T10071 -->
<g id="node3" class="node">
<title>T10071</title>
<polygon fill="none" stroke="#0058ad" points="2,-162.5 2,-191.5 236,-191.5 236,-162.5 2,-162.5"/>
<text text-anchor="middle" x="40.5" y="-173.3" font-family="Times,serif" font-size="14.00" fill="#0058ad">r 392 nil</text>
<polyline fill="none" stroke="#0058ad" points="79,-162.5 79,-191.5 "/>
<text text-anchor="middle" x="116" y="-173.3" font-family="Times,serif" font-size="14.00" fill="#0058ad">w 391 2</text>
<polyline fill="none" stroke="#0058ad" points="153,-162.5 153,-191.5 "/>
<text text-anchor="middle" x="194.5" y="-173.3" font-family="Times,serif" font-size="14.00" fill="#0058ad">w 388 10</text>
</g>
<!-- T10071&#45;&gt;T10084 -->
<g id="edge4" class="edge">
<title>T10071:f0&#45;&gt;T10084:f1</title>
<path fill="none" stroke="#5b00c0" d="M40,-162C40,-158.22 279.81,-123.93 331.33,-113.6"/>
<polygon fill="#5b00c0" stroke="#5b00c0" points="332.25,-116.97 341,-111 330.43,-110.21 332.25,-116.97"/>
<text text-anchor="middle" x="244.5" y="-132.8" font-family="Times,serif" font-size="14.00" fill="#5b00c0">rw</text>
</g>
<!-- T10071&#45;&gt;T10063 -->
<g id="edge5" class="edge">
<title>T10071:f0&#45;&gt;T10063:f1</title>
<path fill="none" stroke="#5b00c0" d="M40,-192C40,-228.22 31.74,-241.15 49,-273 64.14,-300.94 101.49,-291.26 109.48,-314.02"/>
<polygon fill="#5b00c0" stroke="#5b00c0" points="106.03,-314.64 111,-324 112.95,-313.59 106.03,-314.64"/>
<text text-anchor="middle" x="58.5" y="-254.3" font-family="Times,serif" font-size="14.00" fill="#5b00c0">rw</text>
</g>
<!-- T10084&#45;&gt;T10094 -->
<g id="edge6" class="edge">
<title>T10084:f1&#45;&gt;T10094:f0</title>
<path fill="none" stroke="#c000a5" d="M341,-81C341,-54.53 375.59,-58.57 384.78,-40.21"/>
<polygon fill="#c000a5" stroke="#c000a5" points="388.3,-40.52 387,-30 381.46,-39.03 388.3,-40.52"/>
<text text-anchor="middle" x="386.5" y="-51.8" font-family="Times,serif" font-size="14.00" fill="#c000a5">wr</text>
</g>
<!-- T10073 -->
<g id="node5" class="node">
<title>T10073</title>
<polygon fill="none" stroke="#0058ad" points="77,-243.5 77,-272.5 305,-272.5 305,-243.5 77,-243.5"/>
<text text-anchor="middle" x="111" y="-254.3" font-family="Times,serif" font-size="14.00" fill="#0058ad">r 392 5</text>
<polyline fill="none" stroke="#0058ad" points="145,-243.5 145,-272.5 "/>
<text text-anchor="middle" x="183.5" y="-254.3" font-family="Times,serif" font-size="14.00" fill="#0058ad">r 391 nil</text>
<polyline fill="none" stroke="#0058ad" points="222,-243.5 222,-272.5 "/>
<text text-anchor="middle" x="263.5" y="-254.3" font-family="Times,serif" font-size="14.00" fill="#0058ad">w 388 11</text>
</g>
<!-- T10073&#45;&gt;T10071 -->
<g id="edge8" class="edge">
<title>T10073:f1&#45;&gt;T10071:f1</title>
<path fill="none" stroke="#5b00c0" d="M183,-243C183,-209.52 129.39,-225.07 118.08,-201.94"/>
<polygon fill="#5b00c0" stroke="#5b00c0" points="121.47,-201.07 116,-192 114.62,-202.5 121.47,-201.07"/>
<text text-anchor="middle" x="182.5" y="-213.8" font-family="Times,serif" font-size="14.00" fill="#5b00c0">rw</text>
</g>
<!-- T10073&#45;&gt;T10084 -->
<g id="edge7" class="edge">
<title>T10073:f2&#45;&gt;T10084:f0</title>
<path fill="none" stroke="#c000a5" d="M264,-243C264,-187.88 264.88,-171.61 264.99,-121.19"/>
<polygon fill="#c000a5" stroke="#c000a5" points="268.49,-121 265,-111 261.49,-121 268.49,-121"/>
<text text-anchor="middle" x="273.5" y="-173.3" font-family="Times,serif" font-size="14.00" fill="#c000a5">wr</text>
</g>
<!-- T10063&#45;&gt;T10073 -->
<g id="edge9" class="edge">
<title>T10063:f1&#45;&gt;T10073:f0</title>
<path fill="none" stroke="#c000a5" d="M111,-324C111,-305.23 111,-298.12 111,-283.35"/>
<polygon fill="#c000a5" stroke="#c000a5" points="114.5,-283 111,-273 107.5,-283 114.5,-283"/>
<text text-anchor="middle" x="120.5" y="-294.8" font-family="Times,serif" font-size="14.00" fill="#c000a5">wr</text>
</g>
</g>
</svg>
