<?xml version="1.0" encoding="UTF-8" standalone="no"?>
<!DOCTYPE svg PUBLIC "-//W3C//DTD SVG 1.1//EN"
 "http://www.w3.org/Graphics/SVG/1.1/DTD/svg11.dtd">
<!-- Generated by graphviz version 2.43.0 (0)
 -->
<!-- Title: a_graph Pages: 1 -->
<svg width="562pt" height="605pt"
 viewBox="0.00 0.00 562.00 605.00" xmlns="http://www.w3.org/2000/svg" xmlns:xlink="http://www.w3.org/1999/xlink">
<g id="graph0" class="graph" transform="scale(1 1) rotate(0) translate(4 601)">
<title>a_graph</title>
<polygon fill="white" stroke="transparent" points="-4,4 -4,-601 558,-601 558,4 -4,4"/>
<!-- T29279 -->
<g id="node1" class="node">
<title>T29279</title>
<polygon fill="none" stroke="#0058ad" points="38,-567.5 38,-596.5 278,-596.5 278,-567.5 38,-567.5"/>
<text text-anchor="middle" x="76.5" y="-578.3" font-family="Times,serif" font-size="14.00" fill="#0058ad">r 1116 6</text>
<polyline fill="none" stroke="#0058ad" points="115,-567.5 115,-596.5 "/>
<text text-anchor="middle" x="153.5" y="-578.3" font-family="Times,serif" font-size="14.00" fill="#0058ad">r 1113 8</text>
<polyline fill="none" stroke="#0058ad" points="192,-567.5 192,-596.5 "/>
<text text-anchor="middle" x="235" y="-578.3" font-family="Times,serif" font-size="14.00" fill="#0058ad">r 1119 nil</text>
</g>
<!-- T29293 -->
<g id="node2" class="node">
<title>T29293</title>
<polygon fill="none" stroke="#0058ad" points="193.5,-486.5 193.5,-515.5 362.5,-515.5 362.5,-486.5 193.5,-486.5"/>
<text text-anchor="middle" x="235" y="-497.3" font-family="Times,serif" font-size="14.00" fill="#0058ad">w 1119 9</text>
<polyline fill="none" stroke="#0058ad" points="276.5,-486.5 276.5,-515.5 "/>
<text text-anchor="middle" x="319.5" y="-497.3" font-family="Times,serif" font-size="14.00" fill="#0058ad">r 1079 12</text>
</g>
<!-- T29279&#45;&gt;T29293 -->
<g id="edge1" class="edge">
<title>T29279:f2&#45;&gt;T29293:f0</title>
<path fill="none" stroke="#5b00c0" d="M235,-567C235,-548.23 235,-541.12 235,-526.35"/>
<polygon fill="#5b00c0" stroke="#5b00c0" points="238.5,-526 235,-516 231.5,-526 238.5,-526"/>
<text text-anchor="middle" x="244.5" y="-537.8" font-family="Times,serif" font-size="14.00" fill="#5b00c0">rw</text>
</g>
<!-- T29297 -->
<g id="node5" class="node">
<title>T29297</title>
<polygon fill="none" stroke="#0058ad" points="191.5,-405.5 191.5,-434.5 526.5,-434.5 526.5,-405.5 191.5,-405.5"/>
<text text-anchor="middle" x="233" y="-416.3" font-family="Times,serif" font-size="14.00" fill="#0058ad">w 1113 9</text>
<polyline fill="none" stroke="#0058ad" points="274.5,-405.5 274.5,-434.5 "/>
<text text-anchor="middle" x="313" y="-416.3" font-family="Times,serif" font-size="14.00" fill="#0058ad">r 1119 9</text>
<polyline fill="none" stroke="#0058ad" points="351.5,-405.5 351.5,-434.5 "/>
<text text-anchor="middle" x="397.5" y="-416.3" font-family="Times,serif" font-size="14.00" fill="#0058ad">w 1119 10</text>
<polyline fill="none" stroke="#0058ad" points="443.5,-405.5 443.5,-434.5 "/>
<text text-anchor="middle" x="485" y="-416.3" font-family="Times,serif" font-size="14.00" fill="#0058ad">w 1116 7</text>
</g>
<!-- T29279&#45;&gt;T29297 -->
<g id="edge2" class="edge">
<title>T29279:f2&#45;&gt;T29297:f2</title>
<path fill="none" stroke="#5b00c0" d="M279,-582C359.61,-582 395.05,-524.11 397.82,-445.23"/>
<polygon fill="#5b00c0" stroke="#5b00c0" points="401.33,-445.06 398,-435 394.33,-444.94 401.33,-445.06"/>
<text text-anchor="middle" x="402.5" y="-497.3" font-family="Times,serif" font-size="14.00" fill="#5b00c0">rw</text>
</g>
<!-- T29293&#45;&gt;T29297 -->
<g id="edge3" class="edge">
<title>T29293:f0&#45;&gt;T29297:f1</title>
<path fill="none" stroke="#c000a5" d="M235,-486C235,-448.46 299.06,-471.09 311.07,-444.84"/>
<polygon fill="#c000a5" stroke="#c000a5" points="314.51,-445.49 313,-435 307.64,-444.14 314.51,-445.49"/>
<text text-anchor="middle" x="313.5" y="-456.8" font-family="Times,serif" font-size="14.00" fill="#c000a5">wr</text>
</g>
<!-- T29120 -->
<g id="node3" class="node">
<title>T29120</title>
<polygon fill="none" stroke="#0058ad" points="193.5,-243.5 193.5,-272.5 460.5,-272.5 460.5,-243.5 193.5,-243.5"/>
<text text-anchor="middle" x="239.5" y="-254.3" font-family="Times,serif" font-size="14.00" fill="#0058ad">w 1110 11</text>
<polyline fill="none" stroke="#0058ad" points="285.5,-243.5 285.5,-272.5 "/>
<text text-anchor="middle" x="331.5" y="-254.3" font-family="Times,serif" font-size="14.00" fill="#0058ad">w 1110 12</text>
<polyline fill="none" stroke="#0058ad" points="377.5,-243.5 377.5,-272.5 "/>
<text text-anchor="middle" x="419" y="-254.3" font-family="Times,serif" font-size="14.00" fill="#0058ad">w 1091 1</text>
</g>
<!-- T29241 -->
<g id="node7" class="node">
<title>T29241</title>
<polygon fill="none" stroke="#0058ad" points="343.5,-162.5 343.5,-191.5 506.5,-191.5 506.5,-162.5 343.5,-162.5"/>
<text text-anchor="middle" x="382" y="-173.3" font-family="Times,serif" font-size="14.00" fill="#0058ad">r 1091 1</text>
<polyline fill="none" stroke="#0058ad" points="420.5,-162.5 420.5,-191.5 "/>
<text text-anchor="middle" x="463.5" y="-173.3" font-family="Times,serif" font-size="14.00" fill="#0058ad">r 1116 nil</text>
</g>
<!-- T29120&#45;&gt;T29241 -->
<g id="edge4" class="edge">
<title>T29120:f2&#45;&gt;T29241:f0</title>
<path fill="none" stroke="#c000a5" d="M419,-243C419,-218.93 391.67,-219.25 383.99,-202.04"/>
<polygon fill="#c000a5" stroke="#c000a5" points="387.38,-201.13 382,-192 380.51,-202.49 387.38,-201.13"/>
<text text-anchor="middle" x="420.5" y="-213.8" font-family="Times,serif" font-size="14.00" fill="#c000a5">wr</text>
</g>
<!-- T29266 -->
<g id="node4" class="node">
<title>T29266</title>
<polygon fill="none" stroke="#0058ad" points="146,-81.5 146,-110.5 478,-110.5 478,-81.5 146,-81.5"/>
<text text-anchor="middle" x="189" y="-92.3" font-family="Times,serif" font-size="14.00" fill="#0058ad">r 1116 nil</text>
<polyline fill="none" stroke="#0058ad" points="232,-81.5 232,-110.5 "/>
<text text-anchor="middle" x="273.5" y="-92.3" font-family="Times,serif" font-size="14.00" fill="#0058ad">w 1116 2</text>
<polyline fill="none" stroke="#0058ad" points="315,-81.5 315,-110.5 "/>
<text text-anchor="middle" x="358" y="-92.3" font-family="Times,serif" font-size="14.00" fill="#0058ad">r 1115 13</text>
<polyline fill="none" stroke="#0058ad" points="401,-81.5 401,-110.5 "/>
<text text-anchor="middle" x="439.5" y="-92.3" font-family="Times,serif" font-size="14.00" fill="#0058ad">r 1117 3</text>
</g>
<!-- T29266&#45;&gt;T29297 -->
<g id="edge7" class="edge">
<title>T29266:f0&#45;&gt;T29297:f3</title>
<path fill="none" stroke="#5b00c0" d="M189,-111C189,-143.51 450.92,-116.68 481,-129 510.44,-141.06 535,-144.18 535,-176 535,-340 535,-340 535,-340 535,-371.51 557.36,-409.73 538.05,-418.26"/>
<polygon fill="#5b00c0" stroke="#5b00c0" points="537.26,-414.84 528,-420 538.45,-421.74 537.26,-414.84"/>
<text text-anchor="middle" x="544.5" y="-254.3" font-family="Times,serif" font-size="14.00" fill="#5b00c0">rw</text>
</g>
<!-- T29275 -->
<g id="node6" class="node">
<title>T29275</title>
<polygon fill="none" stroke="#0058ad" points="0,-0.5 0,-29.5 320,-29.5 320,-0.5 0,-0.5"/>
<text text-anchor="middle" x="38.5" y="-11.3" font-family="Times,serif" font-size="14.00" fill="#0058ad">r 1116 2</text>
<polyline fill="none" stroke="#0058ad" points="77,-0.5 77,-29.5 "/>
<text text-anchor="middle" x="118.5" y="-11.3" font-family="Times,serif" font-size="14.00" fill="#0058ad">w 1116 5</text>
<polyline fill="none" stroke="#0058ad" points="160,-0.5 160,-29.5 "/>
<text text-anchor="middle" x="201.5" y="-11.3" font-family="Times,serif" font-size="14.00" fill="#0058ad">w 1116 6</text>
<polyline fill="none" stroke="#0058ad" points="243,-0.5 243,-29.5 "/>
<text text-anchor="middle" x="281.5" y="-11.3" font-family="Times,serif" font-size="14.00" fill="#0058ad">r 1116 6</text>
</g>
<!-- T29266&#45;&gt;T29275 -->
<g id="edge5" class="edge">
<title>T29266:f1&#45;&gt;T29275:f0</title>
<path fill="none" stroke="#c000a5" d="M273,-81C273,22.22 53.79,-126.07 38.8,-40.04"/>
<polygon fill="#c000a5" stroke="#c000a5" points="42.29,-39.69 38,-30 35.31,-40.25 42.29,-39.69"/>
<text text-anchor="middle" x="278.5" y="-51.8" font-family="Times,serif" font-size="14.00" fill="#c000a5">wr</text>
</g>
<!-- T29303 -->
<g id="node8" class="node">
<title>T29303</title>
<polygon fill="none" stroke="#0058ad" points="115,-324.5 115,-353.5 447,-353.5 447,-324.5 115,-324.5"/>
<text text-anchor="middle" x="153.5" y="-335.3" font-family="Times,serif" font-size="14.00" fill="#0058ad">r 1116 7</text>
<polyline fill="none" stroke="#0058ad" points="192,-324.5 192,-353.5 "/>
<text text-anchor="middle" x="235" y="-335.3" font-family="Times,serif" font-size="14.00" fill="#0058ad">r 1119 10</text>
<polyline fill="none" stroke="#0058ad" points="278,-324.5 278,-353.5 "/>
<text text-anchor="middle" x="319.5" y="-335.3" font-family="Times,serif" font-size="14.00" fill="#0058ad">w 1116 9</text>
<polyline fill="none" stroke="#0058ad" points="361,-324.5 361,-353.5 "/>
<text text-anchor="middle" x="404" y="-335.3" font-family="Times,serif" font-size="14.00" fill="#0058ad">r 1091 nil</text>
</g>
<!-- T29266&#45;&gt;T29303 -->
<g id="edge6" class="edge">
<title>T29266:f0&#45;&gt;T29303:f2</title>
<path fill="none" stroke="#5b00c0" d="M145,-96C66.21,-96 123.93,-200.59 155,-273 162.93,-291.49 168.11,-296.8 186,-306 209.27,-317.97 293.68,-299.95 315.05,-314.96"/>
<polygon fill="#5b00c0" stroke="#5b00c0" points="312.13,-316.91 320,-324 318.27,-313.55 312.13,-316.91"/>
<text text-anchor="middle" x="143.5" y="-213.8" font-family="Times,serif" font-size="14.00" fill="#5b00c0">rw</text>
</g>
<!-- T29297&#45;&gt;T29303 -->
<g id="edge8" class="edge">
<title>T29297:f2&#45;&gt;T29303:f1</title>
<path fill="none" stroke="#c000a5" d="M398,-405C398,-332.95 251.13,-420.12 236.22,-364.24"/>
<polygon fill="#c000a5" stroke="#c000a5" points="239.66,-363.52 235,-354 232.71,-364.34 239.66,-363.52"/>
<text text-anchor="middle" x="401.5" y="-375.8" font-family="Times,serif" font-size="14.00" fill="#c000a5">wr</text>
</g>
<!-- T29275&#45;&gt;T29279 -->
<g id="edge9" class="edge">
<title>T29275:f2&#45;&gt;T29279:f0</title>
<path fill="none" stroke="#c000a5" d="M202,-30C202,-94.6 72,-30.4 72,-95 72,-502 72,-502 72,-502 72,-527.21 75.04,-535.86 75.82,-556.8"/>
<polygon fill="#c000a5" stroke="#c000a5" points="72.32,-557.06 76,-567 79.32,-556.94 72.32,-557.06"/>
<text text-anchor="middle" x="81.5" y="-294.8" font-family="Times,serif" font-size="14.00" fill="#c000a5">wr</text>
</g>
<!-- T29241&#45;&gt;T29266 -->
<g id="edge10" class="edge">
<title>T29241:f1&#45;&gt;T29266:f1</title>
<path fill="none" stroke="#5b00c0" d="M464,-162C464,-77.91 289.06,-188.54 274.03,-121.18"/>
<polygon fill="#5b00c0" stroke="#5b00c0" points="277.49,-120.6 273,-111 270.52,-121.3 277.49,-120.6"/>
<text text-anchor="middle" x="467.5" y="-132.8" font-family="Times,serif" font-size="14.00" fill="#5b00c0">rw</text>
</g>
<!-- T29241&#45;&gt;T29297 -->
<g id="edge13" class="edge">
<title>T29241:f1&#45;&gt;T29297:f3</title>
<path fill="none" stroke="#5b00c0" d="M464,-192C464,-214.82 467.61,-220.3 470,-243 477.19,-311.4 484.27,-330.83 484.95,-394.79"/>
<polygon fill="#5b00c0" stroke="#5b00c0" points="481.45,-395.02 485,-405 488.45,-394.98 481.45,-395.02"/>
<text text-anchor="middle" x="486.5" y="-294.8" font-family="Times,serif" font-size="14.00" fill="#5b00c0">rw</text>
</g>
<!-- T29241&#45;&gt;T29275 -->
<g id="edge11" class="edge">
<title>T29241:f1&#45;&gt;T29275:f2</title>
<path fill="none" stroke="#5b00c0" d="M508,-177C518.03,-177 540.85,-131.46 487,-81 442.71,-39.5 228.35,-88.17 204.21,-39.8"/>
<polygon fill="#5b00c0" stroke="#5b00c0" points="207.62,-38.98 202,-30 200.79,-40.53 207.62,-38.98"/>
<text text-anchor="middle" x="519.5" y="-92.3" font-family="Times,serif" font-size="14.00" fill="#5b00c0">rw</text>
</g>
<!-- T29241&#45;&gt;T29303 -->
<g id="edge12" class="edge">
<title>T29241:f1&#45;&gt;T29303:f2</title>
<path fill="none" stroke="#5b00c0" d="M464,-192C464,-200.43 170.43,-236.56 165,-243 156.4,-253.19 157.18,-262.2 165,-273 205.28,-328.65 308.33,-259.56 319.09,-313.76"/>
<polygon fill="#5b00c0" stroke="#5b00c0" points="315.63,-314.35 320,-324 322.6,-313.73 315.63,-314.35"/>
<text text-anchor="middle" x="174.5" y="-254.3" font-family="Times,serif" font-size="14.00" fill="#5b00c0">rw</text>
</g>
<!-- T29303&#45;&gt;T29120 -->
<g id="edge14" class="edge">
<title>T29303:f3&#45;&gt;T29120:f2</title>
<path fill="none" stroke="#5b00c0" d="M404,-324C404,-304.25 414.48,-298.39 417.92,-283.2"/>
<polygon fill="#5b00c0" stroke="#5b00c0" points="421.43,-283.31 419,-273 414.47,-282.58 421.43,-283.31"/>
<text text-anchor="middle" x="423.5" y="-294.8" font-family="Times,serif" font-size="14.00" fill="#5b00c0">rw</text>
</g>
</g>
</svg>
