<?xml version="1.0" encoding="UTF-8" standalone="no"?>
<!DOCTYPE svg PUBLIC "-//W3C//DTD SVG 1.1//EN"
 "http://www.w3.org/Graphics/SVG/1.1/DTD/svg11.dtd">
<!-- Generated by graphviz version 2.43.0 (0)
 -->
<!-- Title: a_graph Pages: 1 -->
<svg width="564pt" height="524pt"
 viewBox="0.00 0.00 563.50 524.00" xmlns="http://www.w3.org/2000/svg" xmlns:xlink="http://www.w3.org/1999/xlink">
<g id="graph0" class="graph" transform="scale(1 1) rotate(0) translate(4 520)">
<title>a_graph</title>
<polygon fill="white" stroke="transparent" points="-4,4 -4,-520 559.5,-520 559.5,4 -4,4"/>
<!-- T33365 -->
<g id="node1" class="node">
<title>T33365</title>
<polygon fill="none" stroke="#0058ad" points="21,-486.5 21,-515.5 98,-515.5 98,-486.5 21,-486.5"/>
<text text-anchor="middle" x="59.5" y="-497.3" font-family="Times,serif" font-size="14.00" fill="#0058ad">r 1273 4</text>
</g>
<!-- T33381 -->
<g id="node4" class="node">
<title>T33381</title>
<polygon fill="none" stroke="#0058ad" points="71.5,-405.5 71.5,-434.5 231.5,-434.5 231.5,-405.5 71.5,-405.5"/>
<text text-anchor="middle" x="110" y="-416.3" font-family="Times,serif" font-size="14.00" fill="#0058ad">r 1273 4</text>
<polyline fill="none" stroke="#0058ad" points="148.5,-405.5 148.5,-434.5 "/>
<text text-anchor="middle" x="190" y="-416.3" font-family="Times,serif" font-size="14.00" fill="#0058ad">w 1273 5</text>
</g>
<!-- T33365&#45;&gt;T33381 -->
<g id="edge1" class="edge">
<title>T33365:f0&#45;&gt;T33381:f1</title>
<path fill="none" stroke="#5b00c0" d="M95.99,-486.47C126.88,-473.73 168.55,-455.36 184.21,-443.05"/>
<polygon fill="#5b00c0" stroke="#5b00c0" points="187.1,-445.03 190.5,-435 181.58,-440.72 187.1,-445.03"/>
<text text-anchor="middle" x="178" y="-456.8" font-family="Times,serif" font-size="14.00" fill="#5b00c0">rw</text>
</g>
<!-- T33358 -->
<g id="node2" class="node">
<title>T33358</title>
<polygon fill="none" stroke="#0058ad" points="0,-0.5 0,-29.5 249,-29.5 249,-0.5 0,-0.5"/>
<text text-anchor="middle" x="41.5" y="-11.3" font-family="Times,serif" font-size="14.00" fill="#0058ad">w 1273 3</text>
<polyline fill="none" stroke="#0058ad" points="83,-0.5 83,-29.5 "/>
<text text-anchor="middle" x="124.5" y="-11.3" font-family="Times,serif" font-size="14.00" fill="#0058ad">w 1273 4</text>
<polyline fill="none" stroke="#0058ad" points="166,-0.5 166,-29.5 "/>
<text text-anchor="middle" x="207.5" y="-11.3" font-family="Times,serif" font-size="14.00" fill="#0058ad">w 1268 3</text>
</g>
<!-- T33358&#45;&gt;T33365 -->
<g id="edge3" class="edge">
<title>T33358:f1&#45;&gt;T33365:f0</title>
<path fill="none" stroke="#c000a5" d="M124.5,-30C124.5,-32.88 43.5,-92.12 43.5,-95 43.5,-421 43.5,-421 43.5,-421 43.5,-439.87 47.83,-460.77 51.99,-476.48"/>
<polygon fill="#c000a5" stroke="#c000a5" points="48.71,-477.75 54.79,-486.43 55.45,-475.86 48.71,-477.75"/>
<text text-anchor="middle" x="53" y="-254.3" font-family="Times,serif" font-size="14.00" fill="#c000a5">wr</text>
</g>
<!-- T33358&#45;&gt;T33381 -->
<g id="edge2" class="edge">
<title>T33358:f1&#45;&gt;T33381:f0</title>
<path fill="none" stroke="#c000a5" d="M124.5,-30C124.5,-62.6 90.5,-62.4 90.5,-95 90.5,-340 90.5,-340 90.5,-340 90.5,-366.34 105.05,-373.31 108.68,-394.8"/>
<polygon fill="#c000a5" stroke="#c000a5" points="105.21,-395.31 109.5,-405 112.19,-394.75 105.21,-395.31"/>
<text text-anchor="middle" x="100" y="-213.8" font-family="Times,serif" font-size="14.00" fill="#c000a5">wr</text>
</g>
<!-- T33349 -->
<g id="node3" class="node">
<title>T33349</title>
<polygon fill="none" stroke="#0058ad" points="196.5,-162.5 196.5,-191.5 448.5,-191.5 448.5,-162.5 196.5,-162.5"/>
<text text-anchor="middle" x="238" y="-173.3" font-family="Times,serif" font-size="14.00" fill="#0058ad">w 1273 1</text>
<polyline fill="none" stroke="#0058ad" points="279.5,-162.5 279.5,-191.5 "/>
<text text-anchor="middle" x="321" y="-173.3" font-family="Times,serif" font-size="14.00" fill="#0058ad">w 1273 2</text>
<polyline fill="none" stroke="#0058ad" points="362.5,-162.5 362.5,-191.5 "/>
<text text-anchor="middle" x="405.5" y="-173.3" font-family="Times,serif" font-size="14.00" fill="#0058ad">r 1274 nil</text>
</g>
<!-- T33385 -->
<g id="node5" class="node">
<title>T33385</title>
<polygon fill="none" stroke="#0058ad" points="278,-243.5 278,-272.5 447,-272.5 447,-243.5 278,-243.5"/>
<text text-anchor="middle" x="321" y="-254.3" font-family="Times,serif" font-size="14.00" fill="#0058ad">r 1273 nil</text>
<polyline fill="none" stroke="#0058ad" points="364,-243.5 364,-272.5 "/>
<text text-anchor="middle" x="405.5" y="-254.3" font-family="Times,serif" font-size="14.00" fill="#0058ad">w 1274 7</text>
</g>
<!-- T33349&#45;&gt;T33385 -->
<g id="edge6" class="edge">
<title>T33349:f2&#45;&gt;T33385:f1</title>
<path fill="none" stroke="#5b00c0" d="M405.5,-192C405.5,-210.77 405.5,-217.88 405.5,-232.65"/>
<polygon fill="#5b00c0" stroke="#5b00c0" points="402,-233 405.5,-243 409,-233 402,-233"/>
<text text-anchor="middle" x="415" y="-213.8" font-family="Times,serif" font-size="14.00" fill="#5b00c0">rw</text>
</g>
<!-- T33370 -->
<g id="node6" class="node">
<title>T33370</title>
<polygon fill="none" stroke="#0058ad" points="190,-81.5 190,-110.5 519,-110.5 519,-81.5 190,-81.5"/>
<text text-anchor="middle" x="231.5" y="-92.3" font-family="Times,serif" font-size="14.00" fill="#0058ad">w 1269 8</text>
<polyline fill="none" stroke="#0058ad" points="273,-81.5 273,-110.5 "/>
<text text-anchor="middle" x="316" y="-92.3" font-family="Times,serif" font-size="14.00" fill="#0058ad">r 1273 nil</text>
<polyline fill="none" stroke="#0058ad" points="359,-81.5 359,-110.5 "/>
<text text-anchor="middle" x="397.5" y="-92.3" font-family="Times,serif" font-size="14.00" fill="#0058ad">r 1269 8</text>
<polyline fill="none" stroke="#0058ad" points="436,-81.5 436,-110.5 "/>
<text text-anchor="middle" x="477.5" y="-92.3" font-family="Times,serif" font-size="14.00" fill="#0058ad">w 1274 5</text>
</g>
<!-- T33349&#45;&gt;T33370 -->
<g id="edge5" class="edge">
<title>T33349:f2&#45;&gt;T33370:f3</title>
<path fill="none" stroke="#5b00c0" d="M405.5,-162C405.5,-139.63 425.05,-141.65 443.5,-129 453.64,-122.05 466.77,-124.63 473.35,-120.27"/>
<polygon fill="#5b00c0" stroke="#5b00c0" points="476.61,-121.56 477.5,-111 470.22,-118.7 476.61,-121.56"/>
<text text-anchor="middle" x="453" y="-132.8" font-family="Times,serif" font-size="14.00" fill="#5b00c0">rw</text>
</g>
<!-- T33383 -->
<g id="node7" class="node">
<title>T33383</title>
<polygon fill="none" stroke="#0058ad" points="309.5,-324.5 309.5,-353.5 555.5,-353.5 555.5,-324.5 309.5,-324.5"/>
<text text-anchor="middle" x="348" y="-335.3" font-family="Times,serif" font-size="14.00" fill="#0058ad">r 1273 5</text>
<polyline fill="none" stroke="#0058ad" points="386.5,-324.5 386.5,-353.5 "/>
<text text-anchor="middle" x="429.5" y="-335.3" font-family="Times,serif" font-size="14.00" fill="#0058ad">r 1274 nil</text>
<polyline fill="none" stroke="#0058ad" points="472.5,-324.5 472.5,-353.5 "/>
<text text-anchor="middle" x="514" y="-335.3" font-family="Times,serif" font-size="14.00" fill="#0058ad">w 1274 6</text>
</g>
<!-- T33349&#45;&gt;T33383 -->
<g id="edge4" class="edge">
<title>T33349:f2&#45;&gt;T33383:f2</title>
<path fill="none" stroke="#5b00c0" d="M449.5,-177C517.59,-177 514.93,-245.65 514.53,-313.94"/>
<polygon fill="#5b00c0" stroke="#5b00c0" points="511.03,-313.99 514.5,-324 518.03,-314.01 511.03,-313.99"/>
<text text-anchor="middle" x="523" y="-254.3" font-family="Times,serif" font-size="14.00" fill="#5b00c0">rw</text>
</g>
<!-- T33381&#45;&gt;T33383 -->
<g id="edge7" class="edge">
<title>T33381:f1&#45;&gt;T33383:f0</title>
<path fill="none" stroke="#c000a5" d="M232.5,-420C278.01,-420 262.25,-351.16 298.18,-340.41"/>
<polygon fill="#c000a5" stroke="#c000a5" points="299.06,-343.82 308.5,-339 298.12,-336.88 299.06,-343.82"/>
<text text-anchor="middle" x="282" y="-375.8" font-family="Times,serif" font-size="14.00" fill="#c000a5">wr</text>
</g>
<!-- T33385&#45;&gt;T33358 -->
<g id="edge10" class="edge">
<title>T33385:f0&#45;&gt;T33358:f1</title>
<path fill="none" stroke="#5b00c0" d="M276.5,-258C158.16,-258 126.28,-157.72 124.57,-40.31"/>
<polygon fill="#5b00c0" stroke="#5b00c0" points="128.07,-39.97 124.5,-30 121.07,-40.02 128.07,-39.97"/>
<text text-anchor="middle" x="147" y="-132.8" font-family="Times,serif" font-size="14.00" fill="#5b00c0">rw</text>
</g>
<!-- T33385&#45;&gt;T33349 -->
<g id="edge8" class="edge">
<title>T33385:f0&#45;&gt;T33349:f1</title>
<path fill="none" stroke="#5b00c0" d="M320.5,-243C320.5,-224.23 320.5,-217.12 320.5,-202.35"/>
<polygon fill="#5b00c0" stroke="#5b00c0" points="324,-202 320.5,-192 317,-202 324,-202"/>
<text text-anchor="middle" x="330" y="-213.8" font-family="Times,serif" font-size="14.00" fill="#5b00c0">rw</text>
</g>
<!-- T33385&#45;&gt;T33381 -->
<g id="edge9" class="edge">
<title>T33385:f0&#45;&gt;T33381:f1</title>
<path fill="none" stroke="#5b00c0" d="M276.5,-258C205.68,-258 296.89,-403.96 242.52,-418.79"/>
<polygon fill="#5b00c0" stroke="#5b00c0" points="242.01,-415.33 232.5,-420 242.85,-422.28 242.01,-415.33"/>
<text text-anchor="middle" x="266" y="-335.3" font-family="Times,serif" font-size="14.00" fill="#5b00c0">rw</text>
</g>
<!-- T33370&#45;&gt;T33358 -->
<g id="edge13" class="edge">
<title>T33370:f1&#45;&gt;T33358:f1</title>
<path fill="none" stroke="#5b00c0" d="M315.5,-81C315.5,-71.43 170.57,-48.17 133.2,-35.07"/>
<polygon fill="#5b00c0" stroke="#5b00c0" points="134.9,-32.01 124.5,-30 131.38,-38.06 134.9,-32.01"/>
<text text-anchor="middle" x="263" y="-51.8" font-family="Times,serif" font-size="14.00" fill="#5b00c0">rw</text>
</g>
<!-- T33370&#45;&gt;T33349 -->
<g id="edge11" class="edge">
<title>T33370:f1&#45;&gt;T33349:f1</title>
<path fill="none" stroke="#5b00c0" d="M315.5,-111C315.5,-129.86 318.93,-136.84 320.11,-151.62"/>
<polygon fill="#5b00c0" stroke="#5b00c0" points="316.62,-152.14 320.5,-162 323.62,-151.87 316.62,-152.14"/>
<text text-anchor="middle" x="328" y="-132.8" font-family="Times,serif" font-size="14.00" fill="#5b00c0">rw</text>
</g>
<!-- T33370&#45;&gt;T33381 -->
<g id="edge12" class="edge">
<title>T33370:f1&#45;&gt;T33381:f1</title>
<path fill="none" stroke="#5b00c0" d="M315.5,-111C315.5,-149.21 170.07,-100.6 144.5,-129 63.57,-218.9 183.59,-277.38 190.22,-394.94"/>
<polygon fill="#5b00c0" stroke="#5b00c0" points="186.72,-395.1 190.5,-405 193.72,-394.91 186.72,-395.1"/>
<text text-anchor="middle" x="155" y="-254.3" font-family="Times,serif" font-size="14.00" fill="#5b00c0">rw</text>
</g>
<!-- T33383&#45;&gt;T33385 -->
<g id="edge15" class="edge">
<title>T33383:f1&#45;&gt;T33385:f1</title>
<path fill="none" stroke="#5b00c0" d="M429.5,-324C429.5,-302.86 412.41,-298.92 407.07,-283.16"/>
<polygon fill="#5b00c0" stroke="#5b00c0" points="410.49,-282.35 405.5,-273 403.57,-283.42 410.49,-282.35"/>
<text text-anchor="middle" x="433" y="-294.8" font-family="Times,serif" font-size="14.00" fill="#5b00c0">rw</text>
</g>
<!-- T33383&#45;&gt;T33370 -->
<g id="edge14" class="edge">
<title>T33383:f1&#45;&gt;T33370:f3</title>
<path fill="none" stroke="#5b00c0" d="M429.5,-324C429.5,-313 440.98,-315.52 446.5,-306 454.19,-292.74 453.28,-287.98 456.5,-273 471,-205.48 476.92,-185.53 477.46,-121.26"/>
<polygon fill="#5b00c0" stroke="#5b00c0" points="480.96,-121.01 477.5,-111 473.96,-120.99 480.96,-121.01"/>
<text text-anchor="middle" x="479" y="-213.8" font-family="Times,serif" font-size="14.00" fill="#5b00c0">rw</text>
</g>
</g>
</svg>
