<?xml version="1.0" encoding="UTF-8" standalone="no"?>
<!DOCTYPE svg PUBLIC "-//W3C//DTD SVG 1.1//EN"
 "http://www.w3.org/Graphics/SVG/1.1/DTD/svg11.dtd">
<!-- Generated by graphviz version 2.43.0 (0)
 -->
<!-- Title: a_graph Pages: 1 -->
<svg width="851pt" height="605pt"
 viewBox="0.00 0.00 850.50 605.00" xmlns="http://www.w3.org/2000/svg" xmlns:xlink="http://www.w3.org/1999/xlink">
<g id="graph0" class="graph" transform="scale(1 1) rotate(0) translate(4 601)">
<title>a_graph</title>
<polygon fill="white" stroke="transparent" points="-4,4 -4,-601 846.5,-601 846.5,4 -4,4"/>
<!-- T18885 -->
<g id="node1" class="node">
<title>T18885</title>
<polygon fill="none" stroke="#0058ad" points="0,-567.5 0,-596.5 293,-596.5 293,-567.5 0,-567.5"/>
<text text-anchor="middle" x="34" y="-578.3" font-family="Times,serif" font-size="14.00" fill="#0058ad">r 726 1</text>
<polyline fill="none" stroke="#0058ad" points="68,-567.5 68,-596.5 "/>
<text text-anchor="middle" x="105" y="-578.3" font-family="Times,serif" font-size="14.00" fill="#0058ad">w 726 3</text>
<polyline fill="none" stroke="#0058ad" points="142,-567.5 142,-596.5 "/>
<text text-anchor="middle" x="179" y="-578.3" font-family="Times,serif" font-size="14.00" fill="#0058ad">w 722 7</text>
<polyline fill="none" stroke="#0058ad" points="216,-567.5 216,-596.5 "/>
<text text-anchor="middle" x="254.5" y="-578.3" font-family="Times,serif" font-size="14.00" fill="#0058ad">r 725 nil</text>
</g>
<!-- T18917 -->
<g id="node2" class="node">
<title>T18917</title>
<polygon fill="none" stroke="#0058ad" points="460,-486.5 460,-515.5 771,-515.5 771,-486.5 460,-486.5"/>
<text text-anchor="middle" x="497" y="-497.3" font-family="Times,serif" font-size="14.00" fill="#0058ad">w 725 8</text>
<polyline fill="none" stroke="#0058ad" points="534,-486.5 534,-515.5 "/>
<text text-anchor="middle" x="572.5" y="-497.3" font-family="Times,serif" font-size="14.00" fill="#0058ad">r 726 11</text>
<polyline fill="none" stroke="#0058ad" points="611,-486.5 611,-515.5 "/>
<text text-anchor="middle" x="652.5" y="-497.3" font-family="Times,serif" font-size="14.00" fill="#0058ad">w 726 14</text>
<polyline fill="none" stroke="#0058ad" points="694,-486.5 694,-515.5 "/>
<text text-anchor="middle" x="732.5" y="-497.3" font-family="Times,serif" font-size="14.00" fill="#0058ad">r 723 nil</text>
</g>
<!-- T18885&#45;&gt;T18917 -->
<g id="edge1" class="edge">
<title>T18885:f3&#45;&gt;T18917:f0</title>
<path fill="none" stroke="#5b00c0" d="M294.5,-582C338.31,-582 474.69,-565.84 494.17,-525.8"/>
<polygon fill="#5b00c0" stroke="#5b00c0" points="497.6,-526.54 496.5,-516 490.78,-524.92 497.6,-526.54"/>
<text text-anchor="middle" x="497" y="-537.8" font-family="Times,serif" font-size="14.00" fill="#5b00c0">rw</text>
</g>
<!-- T18863 -->
<g id="node3" class="node">
<title>T18863</title>
<polygon fill="none" stroke="#0058ad" points="407.5,-243.5 407.5,-272.5 549.5,-272.5 549.5,-243.5 407.5,-243.5"/>
<text text-anchor="middle" x="444.5" y="-254.3" font-family="Times,serif" font-size="14.00" fill="#0058ad">w 725 1</text>
<polyline fill="none" stroke="#0058ad" points="481.5,-243.5 481.5,-272.5 "/>
<text text-anchor="middle" x="515.5" y="-254.3" font-family="Times,serif" font-size="14.00" fill="#0058ad">r 725 1</text>
</g>
<!-- T18885&#45;&gt;T18863 -->
<g id="edge5" class="edge">
<title>T18885:f3&#45;&gt;T18863:f0</title>
<path fill="none" stroke="#5b00c0" d="M294.5,-582C378.13,-582 358.46,-493.75 431.5,-453 458.43,-437.98 479.74,-459.47 498.5,-435 506.61,-424.42 501.07,-418.08 498.5,-405 486.96,-346.33 449.14,-337.29 444.89,-283.24"/>
<polygon fill="#5b00c0" stroke="#5b00c0" points="448.38,-282.86 444.5,-273 441.38,-283.13 448.38,-282.86"/>
<text text-anchor="middle" x="512" y="-416.3" font-family="Times,serif" font-size="14.00" fill="#5b00c0">rw</text>
</g>
<!-- T18903 -->
<g id="node5" class="node">
<title>T18903</title>
<polygon fill="none" stroke="#0058ad" points="200,-243.5 200,-272.5 351,-272.5 351,-243.5 200,-243.5"/>
<text text-anchor="middle" x="237" y="-254.3" font-family="Times,serif" font-size="14.00" fill="#0058ad">w 725 6</text>
<polyline fill="none" stroke="#0058ad" points="274,-243.5 274,-272.5 "/>
<text text-anchor="middle" x="312.5" y="-254.3" font-family="Times,serif" font-size="14.00" fill="#0058ad">r 723 nil</text>
</g>
<!-- T18885&#45;&gt;T18903 -->
<g id="edge3" class="edge">
<title>T18885:f3&#45;&gt;T18903:f0</title>
<path fill="none" stroke="#5b00c0" d="M254.5,-567C254.5,-529.93 212.74,-544.05 188.5,-516 172.5,-497.48 168.43,-491.48 161.5,-468 135.67,-380.48 106.02,-266.8 188.46,-258.48"/>
<polygon fill="#5b00c0" stroke="#5b00c0" points="188.68,-261.98 198.5,-258 188.34,-254.99 188.68,-261.98"/>
<text text-anchor="middle" x="162" y="-416.3" font-family="Times,serif" font-size="14.00" fill="#5b00c0">rw</text>
</g>
<!-- T18910 -->
<g id="node7" class="node">
<title>T18910</title>
<polygon fill="none" stroke="#0058ad" points="209,-0.5 209,-29.5 360,-29.5 360,-0.5 209,-0.5"/>
<text text-anchor="middle" x="246" y="-11.3" font-family="Times,serif" font-size="14.00" fill="#0058ad">w 725 7</text>
<polyline fill="none" stroke="#0058ad" points="283,-0.5 283,-29.5 "/>
<text text-anchor="middle" x="321.5" y="-11.3" font-family="Times,serif" font-size="14.00" fill="#0058ad">r 726 11</text>
</g>
<!-- T18885&#45;&gt;T18910 -->
<g id="edge4" class="edge">
<title>T18885:f3&#45;&gt;T18910:f0</title>
<path fill="none" stroke="#5b00c0" d="M254.5,-567C254.5,-547.1 230.93,-558.6 213.5,-549 190.5,-536.34 181.14,-536.31 164.5,-516 125.3,-468.14 57.5,-320.86 57.5,-259 57.5,-259 57.5,-259 57.5,-95 57.5,-22.84 125.41,-15.54 197.33,-15.03"/>
<polygon fill="#5b00c0" stroke="#5b00c0" points="197.51,-18.53 207.5,-15 197.49,-11.53 197.51,-18.53"/>
<text text-anchor="middle" x="75" y="-294.8" font-family="Times,serif" font-size="14.00" fill="#5b00c0">rw</text>
</g>
<!-- T18901 -->
<g id="node8" class="node">
<title>T18901</title>
<polygon fill="none" stroke="#0058ad" points="614.5,-0.5 614.5,-29.5 842.5,-29.5 842.5,-0.5 614.5,-0.5"/>
<text text-anchor="middle" x="651.5" y="-11.3" font-family="Times,serif" font-size="14.00" fill="#0058ad">w 725 5</text>
<polyline fill="none" stroke="#0058ad" points="688.5,-0.5 688.5,-29.5 "/>
<text text-anchor="middle" x="727" y="-11.3" font-family="Times,serif" font-size="14.00" fill="#0058ad">r 726 11</text>
<polyline fill="none" stroke="#0058ad" points="765.5,-0.5 765.5,-29.5 "/>
<text text-anchor="middle" x="804" y="-11.3" font-family="Times,serif" font-size="14.00" fill="#0058ad">r 723 nil</text>
</g>
<!-- T18885&#45;&gt;T18901 -->
<g id="edge2" class="edge">
<title>T18885:f3&#45;&gt;T18901:f0</title>
<path fill="none" stroke="#5b00c0" d="M294.5,-582C351.53,-582 801.5,-559.03 801.5,-502 801.5,-502 801.5,-502 801.5,-297.5 801.5,-188.34 745.31,-172.32 685.5,-81 672.67,-61.42 656.78,-57.95 652.57,-40.07"/>
<polygon fill="#5b00c0" stroke="#5b00c0" points="656.03,-39.58 651.5,-30 649.07,-40.31 656.03,-39.58"/>
<text text-anchor="middle" x="811" y="-294.8" font-family="Times,serif" font-size="14.00" fill="#5b00c0">rw</text>
</g>
<!-- T18871 -->
<g id="node9" class="node">
<title>T18871</title>
<polygon fill="none" stroke="#0058ad" points="219.5,-405.5 219.5,-434.5 435.5,-434.5 435.5,-405.5 219.5,-405.5"/>
<text text-anchor="middle" x="256.5" y="-416.3" font-family="Times,serif" font-size="14.00" fill="#0058ad">w 726 1</text>
<polyline fill="none" stroke="#0058ad" points="293.5,-405.5 293.5,-434.5 "/>
<text text-anchor="middle" x="330.5" y="-416.3" font-family="Times,serif" font-size="14.00" fill="#0058ad">w 723 1</text>
<polyline fill="none" stroke="#0058ad" points="367.5,-405.5 367.5,-434.5 "/>
<text text-anchor="middle" x="401.5" y="-416.3" font-family="Times,serif" font-size="14.00" fill="#0058ad">r 726 1</text>
</g>
<!-- T18917&#45;&gt;T18871 -->
<g id="edge6" class="edge">
<title>T18917:f3&#45;&gt;T18871:f1</title>
<path fill="none" stroke="#5b00c0" d="M732.5,-486C732.5,-470.36 466.93,-470.57 451.5,-468 400.17,-459.45 339.22,-486.69 331.35,-444.98"/>
<polygon fill="#5b00c0" stroke="#5b00c0" points="334.84,-444.67 330.5,-435 327.86,-445.26 334.84,-444.67"/>
<text text-anchor="middle" x="461" y="-456.8" font-family="Times,serif" font-size="14.00" fill="#5b00c0">rw</text>
</g>
<!-- T18867 -->
<g id="node6" class="node">
<title>T18867</title>
<polygon fill="none" stroke="#0058ad" points="425,-162.5 425,-191.5 570,-191.5 570,-162.5 425,-162.5"/>
<text text-anchor="middle" x="463.5" y="-173.3" font-family="Times,serif" font-size="14.00" fill="#0058ad">r 726 nil</text>
<polyline fill="none" stroke="#0058ad" points="502,-162.5 502,-191.5 "/>
<text text-anchor="middle" x="536" y="-173.3" font-family="Times,serif" font-size="14.00" fill="#0058ad">r 725 1</text>
</g>
<!-- T18863&#45;&gt;T18867 -->
<g id="edge7" class="edge">
<title>T18863:f0&#45;&gt;T18867:f1</title>
<path fill="none" stroke="#c000a5" d="M444.5,-243C444.5,-182.59 535.08,-240.94 570.5,-192 571.54,-190.56 572.57,-188.83 573.4,-187.06"/>
<polygon fill="#c000a5" stroke="#c000a5" points="576.79,-186.18 571.5,-177 569.91,-187.48 576.79,-186.18"/>
<text text-anchor="middle" x="553" y="-213.8" font-family="Times,serif" font-size="14.00" fill="#c000a5">wr</text>
</g>
<!-- T18898 -->
<g id="node4" class="node">
<title>T18898</title>
<polygon fill="none" stroke="#0058ad" points="422.5,-81.5 422.5,-110.5 650.5,-110.5 650.5,-81.5 422.5,-81.5"/>
<text text-anchor="middle" x="464" y="-92.3" font-family="Times,serif" font-size="14.00" fill="#0058ad">w 726 11</text>
<polyline fill="none" stroke="#0058ad" points="505.5,-81.5 505.5,-110.5 "/>
<text text-anchor="middle" x="539.5" y="-92.3" font-family="Times,serif" font-size="14.00" fill="#0058ad">r 691 3</text>
<polyline fill="none" stroke="#0058ad" points="573.5,-81.5 573.5,-110.5 "/>
<text text-anchor="middle" x="612" y="-92.3" font-family="Times,serif" font-size="14.00" fill="#0058ad">r 726 11</text>
</g>
<!-- T18898&#45;&gt;T18917 -->
<g id="edge8" class="edge">
<title>T18898:f0&#45;&gt;T18917:f1</title>
<path fill="none" stroke="#c000a5" d="M463.5,-111C463.5,-125.08 571.7,-150.28 579.5,-162 657.39,-278.95 576.64,-339 572.65,-475.6"/>
<polygon fill="#c000a5" stroke="#c000a5" points="569.15,-475.95 572.5,-486 576.15,-476.05 569.15,-475.95"/>
<text text-anchor="middle" x="620" y="-294.8" font-family="Times,serif" font-size="14.00" fill="#c000a5">wr</text>
</g>
<!-- T18898&#45;&gt;T18910 -->
<g id="edge9" class="edge">
<title>T18898:f0&#45;&gt;T18910:f1</title>
<path fill="none" stroke="#c000a5" d="M421.5,-96C380.55,-96 401.76,-28.32 371.5,-16.69"/>
<polygon fill="#c000a5" stroke="#c000a5" points="371.94,-13.22 361.5,-15 370.78,-20.12 371.94,-13.22"/>
<text text-anchor="middle" x="402" y="-51.8" font-family="Times,serif" font-size="14.00" fill="#c000a5">wr</text>
</g>
<!-- T18898&#45;&gt;T18901 -->
<g id="edge10" class="edge">
<title>T18898:f0&#45;&gt;T18901:f1</title>
<path fill="none" stroke="#c000a5" d="M463.5,-81C463.5,-67.74 672.11,-49.45 717.75,-35.09"/>
<polygon fill="#c000a5" stroke="#c000a5" points="719.62,-38.06 726.5,-30 716.1,-32.01 719.62,-38.06"/>
<text text-anchor="middle" x="650" y="-51.8" font-family="Times,serif" font-size="14.00" fill="#c000a5">wr</text>
</g>
<!-- T18903&#45;&gt;T18871 -->
<g id="edge11" class="edge">
<title>T18903:f1&#45;&gt;T18871:f1</title>
<path fill="none" stroke="#5b00c0" d="M352.5,-258C368.5,-258 408.17,-277.34 416.5,-291 419.97,-296.69 418.73,-299.72 416.5,-306 407.3,-331.9 395.49,-333.22 377.5,-354 359.85,-374.39 337.1,-374.55 331.69,-394.91"/>
<polygon fill="#5b00c0" stroke="#5b00c0" points="328.2,-394.66 330.5,-405 335.15,-395.48 328.2,-394.66"/>
<text text-anchor="middle" x="416" y="-335.3" font-family="Times,serif" font-size="14.00" fill="#5b00c0">rw</text>
</g>
<!-- T18867&#45;&gt;T18885 -->
<g id="edge15" class="edge">
<title>T18867:f0&#45;&gt;T18885:f1</title>
<path fill="none" stroke="#5b00c0" d="M423.5,-177C416.7,-177 425.57,-187.47 420.5,-192 384.72,-223.92 249.28,-190.46 205.5,-210 185.98,-218.71 184.85,-227.15 170.5,-243 115.79,-303.43 100.93,-325.16 84.5,-405 81.81,-418.06 83.63,-421.7 84.5,-435 87.84,-485.99 89.3,-498.92 99.5,-549 100.22,-552.56 101.27,-554.86 102.22,-557.02"/>
<polygon fill="#5b00c0" stroke="#5b00c0" points="98.86,-558.03 104.5,-567 105.69,-556.47 98.86,-558.03"/>
<text text-anchor="middle" x="102" y="-375.8" font-family="Times,serif" font-size="14.00" fill="#5b00c0">rw</text>
</g>
<!-- T18867&#45;&gt;T18917 -->
<g id="edge12" class="edge">
<title>T18867:f0&#45;&gt;T18917:f2</title>
<path fill="none" stroke="#5b00c0" d="M463.5,-192C463.5,-239.92 526.77,-207.09 558.5,-243 632.85,-327.16 651.4,-367.71 652.45,-475.69"/>
<polygon fill="#5b00c0" stroke="#5b00c0" points="648.95,-476.02 652.5,-486 655.95,-475.98 648.95,-476.02"/>
<text text-anchor="middle" x="643" y="-335.3" font-family="Times,serif" font-size="14.00" fill="#5b00c0">rw</text>
</g>
<!-- T18867&#45;&gt;T18898 -->
<g id="edge13" class="edge">
<title>T18867:f0&#45;&gt;T18898:f0</title>
<path fill="none" stroke="#5b00c0" d="M463.5,-162C463.5,-143.23 463.5,-136.12 463.5,-121.35"/>
<polygon fill="#5b00c0" stroke="#5b00c0" points="467,-121 463.5,-111 460,-121 467,-121"/>
<text text-anchor="middle" x="473" y="-132.8" font-family="Times,serif" font-size="14.00" fill="#5b00c0">rw</text>
</g>
<!-- T18867&#45;&gt;T18871 -->
<g id="edge14" class="edge">
<title>T18867:f0&#45;&gt;T18871:f0</title>
<path fill="none" stroke="#5b00c0" d="M423.5,-177C413.42,-177 415.45,-187.37 406.5,-192 319.3,-237.17 252.4,-165.96 191.5,-243 144.37,-302.62 139.31,-409.81 208.27,-419.32"/>
<polygon fill="#5b00c0" stroke="#5b00c0" points="208.29,-422.83 218.5,-420 208.75,-415.85 208.29,-422.83"/>
<text text-anchor="middle" x="175" y="-294.8" font-family="Times,serif" font-size="14.00" fill="#5b00c0">rw</text>
</g>
<!-- T18910&#45;&gt;T18917 -->
<g id="edge16" class="edge">
<title>T18910:f1&#45;&gt;T18917:f2</title>
<path fill="none" stroke="#5b00c0" d="M361.5,-15C429.33,-15 609.91,-34.72 659.5,-81 705.41,-123.84 699.5,-153.71 699.5,-216.5 699.5,-421 699.5,-421 699.5,-421 699.5,-421.11 671.1,-460.24 658.45,-477.73"/>
<polygon fill="#5b00c0" stroke="#5b00c0" points="655.5,-475.84 652.5,-486 661.18,-479.93 655.5,-475.84"/>
<text text-anchor="middle" x="709" y="-254.3" font-family="Times,serif" font-size="14.00" fill="#5b00c0">rw</text>
</g>
<!-- T18901&#45;&gt;T18917 -->
<g id="edge17" class="edge">
<title>T18901:f1&#45;&gt;T18917:f2</title>
<path fill="none" stroke="#5b00c0" d="M726.5,-30C726.5,-61.46 754.5,-63.54 754.5,-95 754.5,-421 754.5,-421 754.5,-421 754.5,-448.72 736.83,-453.04 713.5,-468 693.61,-480.76 664.35,-465.01 655.28,-476.01"/>
<polygon fill="#5b00c0" stroke="#5b00c0" points="651.81,-475.43 652.5,-486 658.55,-477.31 651.81,-475.43"/>
<text text-anchor="middle" x="764" y="-254.3" font-family="Times,serif" font-size="14.00" fill="#5b00c0">rw</text>
</g>
<!-- T18901&#45;&gt;T18871 -->
<g id="edge18" class="edge">
<title>T18901:f2&#45;&gt;T18871:f1</title>
<path fill="none" stroke="#5b00c0" d="M804.5,-30C804.5,-250.26 620.84,-244.9 429.5,-354 425.09,-356.51 361.3,-385.06 338.51,-398.65"/>
<polygon fill="#5b00c0" stroke="#5b00c0" points="336.16,-396.05 330.5,-405 340.51,-401.53 336.16,-396.05"/>
<text text-anchor="middle" x="733" y="-213.8" font-family="Times,serif" font-size="14.00" fill="#5b00c0">rw</text>
</g>
<!-- T18871&#45;&gt;T18885 -->
<g id="edge19" class="edge">
<title>T18871:f0&#45;&gt;T18885:f0</title>
<path fill="none" stroke="#c000a5" d="M218.5,-420C196.51,-420 219.77,-450.47 206.5,-468 155.22,-535.73 43.19,-483.13 34.09,-556.83"/>
<polygon fill="#c000a5" stroke="#c000a5" points="30.59,-556.81 33.5,-567 37.57,-557.22 30.59,-556.81"/>
<text text-anchor="middle" x="195" y="-497.3" font-family="Times,serif" font-size="14.00" fill="#c000a5">wr</text>
</g>
<!-- T18880 -->
<g id="node10" class="node">
<title>T18880</title>
<polygon fill="none" stroke="#0058ad" points="223,-324.5 223,-353.5 368,-353.5 368,-324.5 223,-324.5"/>
<text text-anchor="middle" x="257" y="-335.3" font-family="Times,serif" font-size="14.00" fill="#0058ad">r 726 1</text>
<polyline fill="none" stroke="#0058ad" points="291,-324.5 291,-353.5 "/>
<text text-anchor="middle" x="329.5" y="-335.3" font-family="Times,serif" font-size="14.00" fill="#0058ad">r 725 nil</text>
</g>
<!-- T18871&#45;&gt;T18880 -->
<g id="edge20" class="edge">
<title>T18871:f0&#45;&gt;T18880:f0</title>
<path fill="none" stroke="#c000a5" d="M256.5,-405C256.5,-386.23 256.5,-379.12 256.5,-364.35"/>
<polygon fill="#c000a5" stroke="#c000a5" points="260,-364 256.5,-354 253,-364 260,-364"/>
<text text-anchor="middle" x="266" y="-375.8" font-family="Times,serif" font-size="14.00" fill="#c000a5">wr</text>
</g>
<!-- T18880&#45;&gt;T18885 -->
<g id="edge25" class="edge">
<title>T18880:f0&#45;&gt;T18885:f1</title>
<path fill="none" stroke="#5b00c0" d="M221.5,-339C172.55,-339 197.81,-396.56 167.5,-435 146.86,-461.18 127.32,-456.14 112.5,-486 98.05,-515.11 103.11,-528.1 104.28,-556.67"/>
<polygon fill="#5b00c0" stroke="#5b00c0" points="100.79,-557.08 104.5,-567 107.79,-556.93 100.79,-557.08"/>
<text text-anchor="middle" x="158" y="-456.8" font-family="Times,serif" font-size="14.00" fill="#5b00c0">rw</text>
</g>
<!-- T18880&#45;&gt;T18917 -->
<g id="edge21" class="edge">
<title>T18880:f1&#45;&gt;T18917:f0</title>
<path fill="none" stroke="#5b00c0" d="M369.5,-339C376.4,-339 369.58,-348.32 373.5,-354 395.57,-385.97 417.75,-376.82 444.5,-405 471.42,-433.36 492.57,-441.81 496.01,-475.72"/>
<polygon fill="#5b00c0" stroke="#5b00c0" points="492.53,-476.18 496.5,-486 499.52,-475.84 492.53,-476.18"/>
<text text-anchor="middle" x="485" y="-416.3" font-family="Times,serif" font-size="14.00" fill="#5b00c0">rw</text>
</g>
<!-- T18880&#45;&gt;T18863 -->
<g id="edge26" class="edge">
<title>T18880:f1&#45;&gt;T18863:f0</title>
<path fill="none" stroke="#5b00c0" d="M369.5,-339C386.88,-339 383.03,-321.7 390.5,-306 398.05,-290.14 389.84,-269.76 396.61,-261.61"/>
<polygon fill="#5b00c0" stroke="#5b00c0" points="398.31,-264.72 406.5,-258 395.91,-258.14 398.31,-264.72"/>
<text text-anchor="middle" x="403" y="-294.8" font-family="Times,serif" font-size="14.00" fill="#5b00c0">rw</text>
</g>
<!-- T18880&#45;&gt;T18903 -->
<g id="edge23" class="edge">
<title>T18880:f1&#45;&gt;T18903:f0</title>
<path fill="none" stroke="#5b00c0" d="M329.5,-324C329.5,-280.73 251.13,-313.65 238.27,-282.88"/>
<polygon fill="#5b00c0" stroke="#5b00c0" points="241.71,-282.22 236.5,-273 234.82,-283.46 241.71,-282.22"/>
<text text-anchor="middle" x="329" y="-294.8" font-family="Times,serif" font-size="14.00" fill="#5b00c0">rw</text>
</g>
<!-- T18880&#45;&gt;T18910 -->
<g id="edge24" class="edge">
<title>T18880:f1&#45;&gt;T18910:f0</title>
<path fill="none" stroke="#5b00c0" d="M329.5,-324C329.5,-285.57 183.22,-334.55 157.5,-306 71.98,-211.07 75.99,-25.14 197.38,-15.4"/>
<polygon fill="#5b00c0" stroke="#5b00c0" points="197.65,-18.89 207.5,-15 197.37,-11.9 197.65,-18.89"/>
<text text-anchor="middle" x="113" y="-173.3" font-family="Times,serif" font-size="14.00" fill="#5b00c0">rw</text>
</g>
<!-- T18880&#45;&gt;T18901 -->
<g id="edge22" class="edge">
<title>T18880:f1&#45;&gt;T18901:f0</title>
<path fill="none" stroke="#5b00c0" d="M369.5,-339C371.99,-339 397.06,-164.45 397.5,-162 403.92,-125.87 389.21,-108.5 413.5,-81 442.43,-48.25 550.87,-19.13 603.23,-15.4"/>
<polygon fill="#5b00c0" stroke="#5b00c0" points="603.64,-18.89 613.5,-15 603.37,-11.89 603.64,-18.89"/>
<text text-anchor="middle" x="407" y="-173.3" font-family="Times,serif" font-size="14.00" fill="#5b00c0">rw</text>
</g>
</g>
</svg>
