<?xml version="1.0" encoding="UTF-8" standalone="no"?>
<!DOCTYPE svg PUBLIC "-//W3C//DTD SVG 1.1//EN"
 "http://www.w3.org/Graphics/SVG/1.1/DTD/svg11.dtd">
<!-- Generated by graphviz version 2.43.0 (0)
 -->
<!-- Title: a_graph Pages: 1 -->
<svg width="229pt" height="119pt"
 viewBox="0.00 0.00 229.00 119.00" xmlns="http://www.w3.org/2000/svg" xmlns:xlink="http://www.w3.org/1999/xlink">
<g id="graph0" class="graph" transform="scale(1 1) rotate(0) translate(4 115)">
<title>a_graph</title>
<polygon fill="white" stroke="transparent" points="-4,4 -4,-115 225,-115 225,4 -4,4"/>
<!-- T9533 -->
<g id="node1" class="node">
<title>T9533</title>
<polygon fill="none" stroke="#0058ad" points="0,-81.5 0,-110.5 151,-110.5 151,-81.5 0,-81.5"/>
<text text-anchor="middle" x="38.5" y="-92.3" font-family="Times,serif" font-size="14.00" fill="#0058ad">r 369 nil</text>
<polyline fill="none" stroke="#0058ad" points="77,-81.5 77,-110.5 "/>
<text text-anchor="middle" x="114" y="-92.3" font-family="Times,serif" font-size="14.00" fill="#0058ad">w 371 1</text>
</g>
<!-- T9535 -->
<g id="node2" class="node">
<title>T9535</title>
<polygon fill="none" stroke="#0058ad" points="2,-0.5 2,-29.5 221,-29.5 221,-0.5 2,-0.5"/>
<text text-anchor="middle" x="39" y="-11.3" font-family="Times,serif" font-size="14.00" fill="#0058ad">w 369 2</text>
<polyline fill="none" stroke="#0058ad" points="76,-0.5 76,-29.5 "/>
<text text-anchor="middle" x="114.5" y="-11.3" font-family="Times,serif" font-size="14.00" fill="#0058ad">r 371 nil</text>
<polyline fill="none" stroke="#0058ad" points="153,-0.5 153,-29.5 "/>
<text text-anchor="middle" x="187" y="-11.3" font-family="Times,serif" font-size="14.00" fill="#0058ad">r 369 2</text>
</g>
<!-- T9533&#45;&gt;T9535 -->
<g id="edge1" class="edge">
<title>T9533:f0&#45;&gt;T9535:f0</title>
<path fill="none" stroke="#5b00c0" d="M38.5,-81C38.5,-62.23 38.5,-55.12 38.5,-40.35"/>
<polygon fill="#5b00c0" stroke="#5b00c0" points="42,-40 38.5,-30 35,-40 42,-40"/>
<text text-anchor="middle" x="48" y="-51.8" font-family="Times,serif" font-size="14.00" fill="#5b00c0">rw</text>
</g>
<!-- T9535&#45;&gt;T9533 -->
<g id="edge2" class="edge">
<title>T9535:f1&#45;&gt;T9533:f1</title>
<path fill="none" stroke="#5b00c0" d="M114.5,-30C114.5,-48.77 114.5,-55.88 114.5,-70.65"/>
<polygon fill="#5b00c0" stroke="#5b00c0" points="111,-71 114.5,-81 118,-71 111,-71"/>
<text text-anchor="middle" x="124" y="-51.8" font-family="Times,serif" font-size="14.00" fill="#5b00c0">rw</text>
</g>
</g>
</svg>
