<?xml version="1.0" encoding="UTF-8" standalone="no"?>
<!DOCTYPE svg PUBLIC "-//W3C//DTD SVG 1.1//EN"
 "http://www.w3.org/Graphics/SVG/1.1/DTD/svg11.dtd">
<!-- Generated by graphviz version 2.43.0 (0)
 -->
<!-- Title: a_graph Pages: 1 -->
<svg width="264pt" height="200pt"
 viewBox="0.00 0.00 263.50 200.00" xmlns="http://www.w3.org/2000/svg" xmlns:xlink="http://www.w3.org/1999/xlink">
<g id="graph0" class="graph" transform="scale(1 1) rotate(0) translate(4 196)">
<title>a_graph</title>
<polygon fill="white" stroke="transparent" points="-4,4 -4,-196 259.5,-196 259.5,4 -4,4"/>
<!-- T107 -->
<g id="node1" class="node">
<title>T107</title>
<polygon fill="none" stroke="#0058ad" points="0,-162.5 0,-191.5 177,-191.5 177,-162.5 0,-162.5"/>
<text text-anchor="middle" x="29.5" y="-173.3" font-family="Times,serif" font-size="14.00" fill="#0058ad">r 11 1</text>
<polyline fill="none" stroke="#0058ad" points="59,-162.5 59,-191.5 "/>
<text text-anchor="middle" x="88.5" y="-173.3" font-family="Times,serif" font-size="14.00" fill="#0058ad">r 7 nil</text>
<polyline fill="none" stroke="#0058ad" points="118,-162.5 118,-191.5 "/>
<text text-anchor="middle" x="147.5" y="-173.3" font-family="Times,serif" font-size="14.00" fill="#0058ad">r 7 nil</text>
</g>
<!-- T101 -->
<g id="node2" class="node">
<title>T101</title>
<polygon fill="none" stroke="#0058ad" points="63.5,-81.5 63.5,-110.5 255.5,-110.5 255.5,-81.5 63.5,-81.5"/>
<text text-anchor="middle" x="91.5" y="-92.3" font-family="Times,serif" font-size="14.00" fill="#0058ad">w 7 4</text>
<polyline fill="none" stroke="#0058ad" points="119.5,-81.5 119.5,-110.5 "/>
<text text-anchor="middle" x="153.5" y="-92.3" font-family="Times,serif" font-size="14.00" fill="#0058ad">r 11 nil</text>
<polyline fill="none" stroke="#0058ad" points="187.5,-81.5 187.5,-110.5 "/>
<text text-anchor="middle" x="221.5" y="-92.3" font-family="Times,serif" font-size="14.00" fill="#0058ad">r 11 nil</text>
</g>
<!-- T107&#45;&gt;T101 -->
<g id="edge1" class="edge">
<title>T107:f1&#45;&gt;T101:f0</title>
<path fill="none" stroke="#5b00c0" d="M88.5,-162C88.5,-143.2 90.56,-136.13 91.26,-121.36"/>
<polygon fill="#5b00c0" stroke="#5b00c0" points="94.77,-121.08 91.5,-111 87.77,-120.92 94.77,-121.08"/>
<text text-anchor="middle" x="100" y="-132.8" font-family="Times,serif" font-size="14.00" fill="#5b00c0">rw</text>
</g>
<!-- T103 -->
<g id="node3" class="node">
<title>T103</title>
<polygon fill="none" stroke="#0058ad" points="34,-0.5 34,-29.5 223,-29.5 223,-0.5 34,-0.5"/>
<text text-anchor="middle" x="66.5" y="-11.3" font-family="Times,serif" font-size="14.00" fill="#0058ad">w 11 1</text>
<polyline fill="none" stroke="#0058ad" points="99,-0.5 99,-29.5 "/>
<text text-anchor="middle" x="128.5" y="-11.3" font-family="Times,serif" font-size="14.00" fill="#0058ad">r 8 12</text>
<polyline fill="none" stroke="#0058ad" points="158,-0.5 158,-29.5 "/>
<text text-anchor="middle" x="190.5" y="-11.3" font-family="Times,serif" font-size="14.00" fill="#0058ad">w 8 13</text>
</g>
<!-- T101&#45;&gt;T103 -->
<g id="edge2" class="edge">
<title>T101:f1&#45;&gt;T103:f0</title>
<path fill="none" stroke="#5b00c0" d="M153.5,-81C153.5,-40.21 81.43,-68.55 68.48,-40.18"/>
<polygon fill="#5b00c0" stroke="#5b00c0" points="71.85,-39.15 66.5,-30 64.97,-40.48 71.85,-39.15"/>
<text text-anchor="middle" x="153" y="-51.8" font-family="Times,serif" font-size="14.00" fill="#5b00c0">rw</text>
</g>
<!-- T103&#45;&gt;T107 -->
<g id="edge3" class="edge">
<title>T103:f0&#45;&gt;T107:f0</title>
<path fill="none" stroke="#c000a5" d="M32.5,-15C-29.53,-15 23.5,-88.57 29.04,-151.93"/>
<polygon fill="#c000a5" stroke="#c000a5" points="25.55,-152.17 29.5,-162 32.54,-151.85 25.55,-152.17"/>
<text text-anchor="middle" x="30" y="-92.3" font-family="Times,serif" font-size="14.00" fill="#c000a5">wr</text>
</g>
</g>
</svg>
