<?xml version="1.0" encoding="UTF-8" standalone="no"?>
<!DOCTYPE svg PUBLIC "-//W3C//DTD SVG 1.1//EN"
 "http://www.w3.org/Graphics/SVG/1.1/DTD/svg11.dtd">
<!-- Generated by graphviz version 2.43.0 (0)
 -->
<!-- Title: a_graph Pages: 1 -->
<svg width="836pt" height="929pt"
 viewBox="0.00 0.00 835.50 929.00" xmlns="http://www.w3.org/2000/svg" xmlns:xlink="http://www.w3.org/1999/xlink">
<g id="graph0" class="graph" transform="scale(1 1) rotate(0) translate(4 925)">
<title>a_graph</title>
<polygon fill="white" stroke="transparent" points="-4,4 -4,-925 831.5,-925 831.5,4 -4,4"/>
<!-- T18241 -->
<g id="node1" class="node">
<title>T18241</title>
<polygon fill="none" stroke="#0058ad" points="367.5,-891.5 367.5,-920.5 598.5,-920.5 598.5,-891.5 367.5,-891.5"/>
<text text-anchor="middle" x="404.5" y="-902.3" font-family="Times,serif" font-size="14.00" fill="#0058ad">w 700 3</text>
<polyline fill="none" stroke="#0058ad" points="441.5,-891.5 441.5,-920.5 "/>
<text text-anchor="middle" x="478.5" y="-902.3" font-family="Times,serif" font-size="14.00" fill="#0058ad">w 700 4</text>
<polyline fill="none" stroke="#0058ad" points="515.5,-891.5 515.5,-920.5 "/>
<text text-anchor="middle" x="557" y="-902.3" font-family="Times,serif" font-size="14.00" fill="#0058ad">w 699 15</text>
</g>
<!-- T18247 -->
<g id="node2" class="node">
<title>T18247</title>
<polygon fill="none" stroke="#0058ad" points="445,-810.5 445,-839.5 679,-839.5 679,-810.5 445,-810.5"/>
<text text-anchor="middle" x="482" y="-821.3" font-family="Times,serif" font-size="14.00" fill="#0058ad">w 700 5</text>
<polyline fill="none" stroke="#0058ad" points="519,-810.5 519,-839.5 "/>
<text text-anchor="middle" x="557.5" y="-821.3" font-family="Times,serif" font-size="14.00" fill="#0058ad">r 699 15</text>
<polyline fill="none" stroke="#0058ad" points="596,-810.5 596,-839.5 "/>
<text text-anchor="middle" x="637.5" y="-821.3" font-family="Times,serif" font-size="14.00" fill="#0058ad">w 699 16</text>
</g>
<!-- T18241&#45;&gt;T18247 -->
<g id="edge1" class="edge">
<title>T18241:f2&#45;&gt;T18247:f1</title>
<path fill="none" stroke="#c000a5" d="M557,-891C557,-872.23 557,-865.12 557,-850.35"/>
<polygon fill="#c000a5" stroke="#c000a5" points="560.5,-850 557,-840 553.5,-850 560.5,-850"/>
<text text-anchor="middle" x="566.5" y="-861.8" font-family="Times,serif" font-size="14.00" fill="#c000a5">wr</text>
</g>
<!-- T18254 -->
<g id="node11" class="node">
<title>T18254</title>
<polygon fill="none" stroke="#0058ad" points="216.5,-729.5 216.5,-758.5 515.5,-758.5 515.5,-729.5 216.5,-729.5"/>
<text text-anchor="middle" x="255" y="-740.3" font-family="Times,serif" font-size="14.00" fill="#0058ad">r 701 nil</text>
<polyline fill="none" stroke="#0058ad" points="293.5,-729.5 293.5,-758.5 "/>
<text text-anchor="middle" x="332" y="-740.3" font-family="Times,serif" font-size="14.00" fill="#0058ad">r 701 nil</text>
<polyline fill="none" stroke="#0058ad" points="370.5,-729.5 370.5,-758.5 "/>
<text text-anchor="middle" x="409" y="-740.3" font-family="Times,serif" font-size="14.00" fill="#0058ad">r 701 nil</text>
<polyline fill="none" stroke="#0058ad" points="447.5,-729.5 447.5,-758.5 "/>
<text text-anchor="middle" x="481.5" y="-740.3" font-family="Times,serif" font-size="14.00" fill="#0058ad">r 700 5</text>
</g>
<!-- T18247&#45;&gt;T18254 -->
<g id="edge2" class="edge">
<title>T18247:f0&#45;&gt;T18254:f3</title>
<path fill="none" stroke="#c000a5" d="M482,-810C482,-791.23 482,-784.12 482,-769.35"/>
<polygon fill="#c000a5" stroke="#c000a5" points="485.5,-769 482,-759 478.5,-769 485.5,-769"/>
<text text-anchor="middle" x="491.5" y="-780.8" font-family="Times,serif" font-size="14.00" fill="#c000a5">wr</text>
</g>
<!-- T18308 -->
<g id="node3" class="node">
<title>T18308</title>
<polygon fill="none" stroke="#0058ad" points="63.5,-0.5 63.5,-29.5 306.5,-29.5 306.5,-0.5 63.5,-0.5"/>
<text text-anchor="middle" x="102" y="-11.3" font-family="Times,serif" font-size="14.00" fill="#0058ad">r 702 nil</text>
<polyline fill="none" stroke="#0058ad" points="140.5,-0.5 140.5,-29.5 "/>
<text text-anchor="middle" x="182" y="-11.3" font-family="Times,serif" font-size="14.00" fill="#0058ad">w 700 16</text>
<polyline fill="none" stroke="#0058ad" points="223.5,-0.5 223.5,-29.5 "/>
<text text-anchor="middle" x="265" y="-11.3" font-family="Times,serif" font-size="14.00" fill="#0058ad">w 697 12</text>
</g>
<!-- T18328 -->
<g id="node10" class="node">
<title>T18328</title>
<polygon fill="none" stroke="#0058ad" points="75,-486.5 75,-515.5 389,-515.5 389,-486.5 75,-486.5"/>
<text text-anchor="middle" x="116.5" y="-497.3" font-family="Times,serif" font-size="14.00" fill="#0058ad">w 697 13</text>
<polyline fill="none" stroke="#0058ad" points="158,-486.5 158,-515.5 "/>
<text text-anchor="middle" x="195" y="-497.3" font-family="Times,serif" font-size="14.00" fill="#0058ad">w 702 8</text>
<polyline fill="none" stroke="#0058ad" points="232,-486.5 232,-515.5 "/>
<text text-anchor="middle" x="269" y="-497.3" font-family="Times,serif" font-size="14.00" fill="#0058ad">w 702 9</text>
<polyline fill="none" stroke="#0058ad" points="306,-486.5 306,-515.5 "/>
<text text-anchor="middle" x="347.5" y="-497.3" font-family="Times,serif" font-size="14.00" fill="#0058ad">w 702 10</text>
</g>
<!-- T18308&#45;&gt;T18328 -->
<g id="edge3" class="edge">
<title>T18308:f0&#45;&gt;T18328:f3</title>
<path fill="none" stroke="#5b00c0" d="M102,-30C102,-59.86 85,-65.14 85,-95 85,-421 85,-421 85,-421 85,-446.27 95.14,-455.33 117,-468 136.79,-479.47 303.84,-464.44 340.78,-479.02"/>
<polygon fill="#5b00c0" stroke="#5b00c0" points="338.38,-481.56 348,-486 343.25,-476.53 338.38,-481.56"/>
<text text-anchor="middle" x="94.5" y="-254.3" font-family="Times,serif" font-size="14.00" fill="#5b00c0">rw</text>
</g>
<!-- T18333 -->
<g id="node4" class="node">
<title>T18333</title>
<polygon fill="none" stroke="#0058ad" points="169.5,-405.5 169.5,-434.5 320.5,-434.5 320.5,-405.5 169.5,-405.5"/>
<text text-anchor="middle" x="206.5" y="-416.3" font-family="Times,serif" font-size="14.00" fill="#0058ad">w 703 3</text>
<polyline fill="none" stroke="#0058ad" points="243.5,-405.5 243.5,-434.5 "/>
<text text-anchor="middle" x="282" y="-416.3" font-family="Times,serif" font-size="14.00" fill="#0058ad">r 697 13</text>
</g>
<!-- T18347 -->
<g id="node13" class="node">
<title>T18347</title>
<polygon fill="none" stroke="#0058ad" points="428.5,-324.5 428.5,-353.5 573.5,-353.5 573.5,-324.5 428.5,-324.5"/>
<text text-anchor="middle" x="462.5" y="-335.3" font-family="Times,serif" font-size="14.00" fill="#0058ad">r 703 3</text>
<polyline fill="none" stroke="#0058ad" points="496.5,-324.5 496.5,-353.5 "/>
<text text-anchor="middle" x="535" y="-335.3" font-family="Times,serif" font-size="14.00" fill="#0058ad">r 690 nil</text>
</g>
<!-- T18333&#45;&gt;T18347 -->
<g id="edge4" class="edge">
<title>T18333:f0&#45;&gt;T18347:f0</title>
<path fill="none" stroke="#c000a5" d="M206,-405C206,-309.82 332.78,-403.64 414,-354 417.29,-351.99 418.5,-348.86 419.56,-345.99"/>
<polygon fill="#c000a5" stroke="#c000a5" points="422.11,-348.4 427,-339 417.32,-343.3 422.11,-348.4"/>
<text text-anchor="middle" x="225.5" y="-375.8" font-family="Times,serif" font-size="14.00" fill="#c000a5">wr</text>
</g>
<!-- T18203 -->
<g id="node5" class="node">
<title>T18203</title>
<polygon fill="none" stroke="#0058ad" points="449.5,-81.5 449.5,-110.5 766.5,-110.5 766.5,-81.5 449.5,-81.5"/>
<text text-anchor="middle" x="491" y="-92.3" font-family="Times,serif" font-size="14.00" fill="#0058ad">w 698 11</text>
<polyline fill="none" stroke="#0058ad" points="532.5,-81.5 532.5,-110.5 "/>
<text text-anchor="middle" x="574" y="-92.3" font-family="Times,serif" font-size="14.00" fill="#0058ad">w 698 12</text>
<polyline fill="none" stroke="#0058ad" points="615.5,-81.5 615.5,-110.5 "/>
<text text-anchor="middle" x="654" y="-92.3" font-family="Times,serif" font-size="14.00" fill="#0058ad">r 690 nil</text>
<polyline fill="none" stroke="#0058ad" points="692.5,-81.5 692.5,-110.5 "/>
<text text-anchor="middle" x="729.5" y="-92.3" font-family="Times,serif" font-size="14.00" fill="#0058ad">w 699 1</text>
</g>
<!-- T18299 -->
<g id="node6" class="node">
<title>T18299</title>
<polygon fill="none" stroke="#0058ad" points="245.5,-648.5 245.5,-677.5 562.5,-677.5 562.5,-648.5 245.5,-648.5"/>
<text text-anchor="middle" x="287" y="-659.3" font-family="Times,serif" font-size="14.00" fill="#0058ad">w 700 15</text>
<polyline fill="none" stroke="#0058ad" points="328.5,-648.5 328.5,-677.5 "/>
<text text-anchor="middle" x="370" y="-659.3" font-family="Times,serif" font-size="14.00" fill="#0058ad">w 701 14</text>
<polyline fill="none" stroke="#0058ad" points="411.5,-648.5 411.5,-677.5 "/>
<text text-anchor="middle" x="450" y="-659.3" font-family="Times,serif" font-size="14.00" fill="#0058ad">r 700 15</text>
<polyline fill="none" stroke="#0058ad" points="488.5,-648.5 488.5,-677.5 "/>
<text text-anchor="middle" x="525.5" y="-659.3" font-family="Times,serif" font-size="14.00" fill="#0058ad">w 690 9</text>
</g>
<!-- T18203&#45;&gt;T18299 -->
<g id="edge6" class="edge">
<title>T18203:f2&#45;&gt;T18299:f3</title>
<path fill="none" stroke="#5b00c0" d="M654,-111C654,-162.37 663.91,-174.45 673,-225 678.81,-257.3 687,-264.68 687,-297.5 687,-583 687,-583 687,-583 687,-644.77 635.15,-661.3 574.25,-662.87"/>
<polygon fill="#5b00c0" stroke="#5b00c0" points="573.96,-659.37 564,-663 574.04,-666.37 573.96,-659.37"/>
<text text-anchor="middle" x="696.5" y="-375.8" font-family="Times,serif" font-size="14.00" fill="#5b00c0">rw</text>
</g>
<!-- T18190 -->
<g id="node14" class="node">
<title>T18190</title>
<polygon fill="none" stroke="#0058ad" points="419,-243.5 419,-272.5 659,-272.5 659,-243.5 419,-243.5"/>
<text text-anchor="middle" x="456" y="-254.3" font-family="Times,serif" font-size="14.00" fill="#0058ad">w 690 6</text>
<polyline fill="none" stroke="#0058ad" points="493,-243.5 493,-272.5 "/>
<text text-anchor="middle" x="534.5" y="-254.3" font-family="Times,serif" font-size="14.00" fill="#0058ad">w 696 10</text>
<polyline fill="none" stroke="#0058ad" points="576,-243.5 576,-272.5 "/>
<text text-anchor="middle" x="617.5" y="-254.3" font-family="Times,serif" font-size="14.00" fill="#0058ad">w 696 11</text>
</g>
<!-- T18203&#45;&gt;T18190 -->
<g id="edge5" class="edge">
<title>T18203:f2&#45;&gt;T18190:f0</title>
<path fill="none" stroke="#5b00c0" d="M654,-111C654,-143.03 537.01,-110.31 511,-129 468.18,-159.78 457.31,-183.6 456.12,-232.81"/>
<polygon fill="#5b00c0" stroke="#5b00c0" points="452.61,-232.96 456,-243 459.61,-233.04 452.61,-232.96"/>
<text text-anchor="middle" x="484.5" y="-173.3" font-family="Times,serif" font-size="14.00" fill="#5b00c0">rw</text>
</g>
<!-- T18305 -->
<g id="node12" class="node">
<title>T18305</title>
<polygon fill="none" stroke="#0058ad" points="83.5,-567.5 83.5,-596.5 388.5,-596.5 388.5,-567.5 83.5,-567.5"/>
<text text-anchor="middle" x="125" y="-578.3" font-family="Times,serif" font-size="14.00" fill="#0058ad">w 701 16</text>
<polyline fill="none" stroke="#0058ad" points="166.5,-567.5 166.5,-596.5 "/>
<text text-anchor="middle" x="205" y="-578.3" font-family="Times,serif" font-size="14.00" fill="#0058ad">r 702 nil</text>
<polyline fill="none" stroke="#0058ad" points="243.5,-567.5 243.5,-596.5 "/>
<text text-anchor="middle" x="282" y="-578.3" font-family="Times,serif" font-size="14.00" fill="#0058ad">r 700 15</text>
<polyline fill="none" stroke="#0058ad" points="320.5,-567.5 320.5,-596.5 "/>
<text text-anchor="middle" x="354.5" y="-578.3" font-family="Times,serif" font-size="14.00" fill="#0058ad">r 690 9</text>
</g>
<!-- T18299&#45;&gt;T18305 -->
<g id="edge7" class="edge">
<title>T18299:f0&#45;&gt;T18305:f2</title>
<path fill="none" stroke="#c000a5" d="M287,-648C287,-629.14 283.57,-622.16 282.39,-607.38"/>
<polygon fill="#c000a5" stroke="#c000a5" points="285.88,-606.86 282,-597 278.88,-607.13 285.88,-606.86"/>
<text text-anchor="middle" x="295.5" y="-618.8" font-family="Times,serif" font-size="14.00" fill="#c000a5">wr</text>
</g>
<!-- T18228 -->
<g id="node7" class="node">
<title>T18228</title>
<polygon fill="none" stroke="#0058ad" points="379.5,-0.5 379.5,-29.5 672.5,-29.5 672.5,-0.5 379.5,-0.5"/>
<text text-anchor="middle" x="418" y="-11.3" font-family="Times,serif" font-size="14.00" fill="#0058ad">r 690 nil</text>
<polyline fill="none" stroke="#0058ad" points="456.5,-0.5 456.5,-29.5 "/>
<text text-anchor="middle" x="490.5" y="-11.3" font-family="Times,serif" font-size="14.00" fill="#0058ad">r 699 5</text>
<polyline fill="none" stroke="#0058ad" points="524.5,-0.5 524.5,-29.5 "/>
<text text-anchor="middle" x="561.5" y="-11.3" font-family="Times,serif" font-size="14.00" fill="#0058ad">w 697 6</text>
<polyline fill="none" stroke="#0058ad" points="598.5,-0.5 598.5,-29.5 "/>
<text text-anchor="middle" x="635.5" y="-11.3" font-family="Times,serif" font-size="14.00" fill="#0058ad">w 699 8</text>
</g>
<!-- T18228&#45;&gt;T18299 -->
<g id="edge9" class="edge">
<title>T18228:f0&#45;&gt;T18299:f3</title>
<path fill="none" stroke="#5b00c0" d="M418,-30C418,-160.91 404,-193.15 400,-324 399.59,-337.33 397.32,-340.94 400,-354 406.64,-386.37 509.84,-581.94 524.32,-637.84"/>
<polygon fill="#5b00c0" stroke="#5b00c0" points="520.91,-638.71 526,-648 527.82,-637.56 520.91,-638.71"/>
<text text-anchor="middle" x="409.5" y="-335.3" font-family="Times,serif" font-size="14.00" fill="#5b00c0">rw</text>
</g>
<!-- T18228&#45;&gt;T18190 -->
<g id="edge8" class="edge">
<title>T18228:f0&#45;&gt;T18190:f0</title>
<path fill="none" stroke="#5b00c0" d="M378,-15C365.87,-15 395.94,-206.06 412.45,-249.35"/>
<polygon fill="#5b00c0" stroke="#5b00c0" points="409.66,-251.47 418,-258 415.55,-247.69 409.66,-251.47"/>
<text text-anchor="middle" x="398.5" y="-132.8" font-family="Times,serif" font-size="14.00" fill="#5b00c0">rw</text>
</g>
<!-- T18225 -->
<g id="node8" class="node">
<title>T18225</title>
<polygon fill="none" stroke="#0058ad" points="118,-81.5 118,-110.5 352,-110.5 352,-81.5 118,-81.5"/>
<text text-anchor="middle" x="155" y="-92.3" font-family="Times,serif" font-size="14.00" fill="#0058ad">w 699 5</text>
<polyline fill="none" stroke="#0058ad" points="192,-81.5 192,-110.5 "/>
<text text-anchor="middle" x="230.5" y="-92.3" font-family="Times,serif" font-size="14.00" fill="#0058ad">r 700 nil</text>
<polyline fill="none" stroke="#0058ad" points="269,-81.5 269,-110.5 "/>
<text text-anchor="middle" x="310.5" y="-92.3" font-family="Times,serif" font-size="14.00" fill="#0058ad">w 678 14</text>
</g>
<!-- T18225&#45;&gt;T18241 -->
<g id="edge11" class="edge">
<title>T18225:f1&#45;&gt;T18241:f1</title>
<path fill="none" stroke="#5b00c0" d="M230,-111C230,-164.11 0,-122.89 0,-176 0,-826 0,-826 0,-826 0,-929.54 445.88,-793.71 476.36,-880.89"/>
<polygon fill="#5b00c0" stroke="#5b00c0" points="472.95,-881.69 478,-891 479.86,-880.57 472.95,-881.69"/>
<text text-anchor="middle" x="9.5" y="-497.3" font-family="Times,serif" font-size="14.00" fill="#5b00c0">rw</text>
</g>
<!-- T18225&#45;&gt;T18247 -->
<g id="edge12" class="edge">
<title>T18225:f1&#45;&gt;T18247:f0</title>
<path fill="none" stroke="#5b00c0" d="M230,-111C230,-183.02 47,-306.48 47,-378.5 47,-745 47,-745 47,-745 47,-787.54 361.55,-821.14 433.97,-824.69"/>
<polygon fill="#5b00c0" stroke="#5b00c0" points="433.9,-828.19 444,-825 434.11,-821.19 433.9,-828.19"/>
<text text-anchor="middle" x="56.5" y="-456.8" font-family="Times,serif" font-size="14.00" fill="#5b00c0">rw</text>
</g>
<!-- T18225&#45;&gt;T18308 -->
<g id="edge13" class="edge">
<title>T18225:f1&#45;&gt;T18308:f1</title>
<path fill="none" stroke="#5b00c0" d="M230,-81C230,-53.76 193.25,-58.98 184.06,-39.85"/>
<polygon fill="#5b00c0" stroke="#5b00c0" points="187.47,-39.07 182,-30 180.62,-40.51 187.47,-39.07"/>
<text text-anchor="middle" x="230.5" y="-51.8" font-family="Times,serif" font-size="14.00" fill="#5b00c0">rw</text>
</g>
<!-- T18225&#45;&gt;T18299 -->
<g id="edge14" class="edge">
<title>T18225:f1&#45;&gt;T18299:f0</title>
<path fill="none" stroke="#5b00c0" d="M230,-111C230,-169.71 345,-117.29 345,-176 345,-299.5 345,-299.5 345,-299.5 345,-306.84 442.75,-526.33 397,-597 390.85,-606.5 317.44,-626.51 294.09,-640.66"/>
<polygon fill="#5b00c0" stroke="#5b00c0" points="291.43,-638.38 287,-648 296.46,-643.24 291.43,-638.38"/>
<text text-anchor="middle" x="385.5" y="-375.8" font-family="Times,serif" font-size="14.00" fill="#5b00c0">rw</text>
</g>
<!-- T18225&#45;&gt;T18228 -->
<g id="edge10" class="edge">
<title>T18225:f0&#45;&gt;T18228:f1</title>
<path fill="none" stroke="#c000a5" d="M155,-81C155,-75.51 344.57,-48.81 350,-48 363.09,-46.05 453.76,-45.74 481.77,-36.27"/>
<polygon fill="#c000a5" stroke="#c000a5" points="484.17,-38.85 490,-30 479.93,-33.28 484.17,-38.85"/>
<text text-anchor="middle" x="359.5" y="-51.8" font-family="Times,serif" font-size="14.00" fill="#c000a5">wr</text>
</g>
<!-- T18202 -->
<g id="node9" class="node">
<title>T18202</title>
<polygon fill="none" stroke="#0058ad" points="682.5,-162.5 682.5,-191.5 827.5,-191.5 827.5,-162.5 682.5,-162.5"/>
<text text-anchor="middle" x="716.5" y="-173.3" font-family="Times,serif" font-size="14.00" fill="#0058ad">r 690 6</text>
<polyline fill="none" stroke="#0058ad" points="750.5,-162.5 750.5,-191.5 "/>
<text text-anchor="middle" x="789" y="-173.3" font-family="Times,serif" font-size="14.00" fill="#0058ad">r 699 nil</text>
</g>
<!-- T18202&#45;&gt;T18241 -->
<g id="edge16" class="edge">
<title>T18202:f1&#45;&gt;T18241:f2</title>
<path fill="none" stroke="#5b00c0" d="M789,-192C789,-220.92 786,-228.08 786,-257 786,-826 786,-826 786,-826 786,-868.01 663.1,-901.31 610.16,-905.54"/>
<polygon fill="#5b00c0" stroke="#5b00c0" points="609.83,-902.06 600,-906 610.15,-909.05 609.83,-902.06"/>
<text text-anchor="middle" x="795.5" y="-537.8" font-family="Times,serif" font-size="14.00" fill="#5b00c0">rw</text>
</g>
<!-- T18202&#45;&gt;T18247 -->
<g id="edge18" class="edge">
<title>T18202:f1&#45;&gt;T18247:f2</title>
<path fill="none" stroke="#5b00c0" d="M789,-192C789,-203 779.08,-201.57 772,-210 755.25,-229.95 737,-230.96 737,-257 737,-745 737,-745 737,-745 737,-785.08 725.76,-818.99 690.14,-824.28"/>
<polygon fill="#5b00c0" stroke="#5b00c0" points="689.73,-820.8 680,-825 690.22,-827.79 689.73,-820.8"/>
<text text-anchor="middle" x="746.5" y="-497.3" font-family="Times,serif" font-size="14.00" fill="#5b00c0">rw</text>
</g>
<!-- T18202&#45;&gt;T18203 -->
<g id="edge17" class="edge">
<title>T18202:f1&#45;&gt;T18203:f3</title>
<path fill="none" stroke="#5b00c0" d="M789,-162C789,-155.09 751.53,-132.31 736.31,-118.96"/>
<polygon fill="#5b00c0" stroke="#5b00c0" points="738.96,-116.66 730,-111 733.47,-121.01 738.96,-116.66"/>
<text text-anchor="middle" x="777.5" y="-132.8" font-family="Times,serif" font-size="14.00" fill="#5b00c0">rw</text>
</g>
<!-- T18202&#45;&gt;T18228 -->
<g id="edge15" class="edge">
<title>T18202:f1&#45;&gt;T18228:f3</title>
<path fill="none" stroke="#5b00c0" d="M789,-162C789,-125.54 797.5,-110.45 776,-81 746.28,-40.28 730.21,-18.07 684.27,-15.3"/>
<polygon fill="#5b00c0" stroke="#5b00c0" points="684.1,-11.79 674,-15 683.9,-18.79 684.1,-11.79"/>
<text text-anchor="middle" x="798.5" y="-92.3" font-family="Times,serif" font-size="14.00" fill="#5b00c0">rw</text>
</g>
<!-- T18202&#45;&gt;T18225 -->
<g id="edge19" class="edge">
<title>T18202:f1&#45;&gt;T18225:f0</title>
<path fill="none" stroke="#5b00c0" d="M789,-162C789,-140.64 427.29,-130.68 406,-129 393.7,-128.03 207.5,-125.64 164.03,-115.47"/>
<polygon fill="#5b00c0" stroke="#5b00c0" points="165.51,-112.31 155,-111 162.41,-118.58 165.51,-112.31"/>
<text text-anchor="middle" x="690.5" y="-132.8" font-family="Times,serif" font-size="14.00" fill="#5b00c0">rw</text>
</g>
<!-- T18328&#45;&gt;T18333 -->
<g id="edge20" class="edge">
<title>T18328:f0&#45;&gt;T18333:f1</title>
<path fill="none" stroke="#c000a5" d="M116,-486C116,-412.59 266.18,-502.52 280.85,-445.06"/>
<polygon fill="#c000a5" stroke="#c000a5" points="284.34,-445.33 282,-435 277.39,-444.54 284.34,-445.33"/>
<text text-anchor="middle" x="287.5" y="-456.8" font-family="Times,serif" font-size="14.00" fill="#c000a5">wr</text>
</g>
<!-- T18254&#45;&gt;T18299 -->
<g id="edge22" class="edge">
<title>T18254:f0&#45;&gt;T18299:f1</title>
<path fill="none" stroke="#5b00c0" d="M255,-729C255,-677.02 354.4,-725.94 368.37,-688.14"/>
<polygon fill="#5b00c0" stroke="#5b00c0" points="371.87,-688.43 370,-678 364.96,-687.32 371.87,-688.43"/>
<text text-anchor="middle" x="372.5" y="-699.8" font-family="Times,serif" font-size="14.00" fill="#5b00c0">rw</text>
</g>
<!-- T18254&#45;&gt;T18305 -->
<g id="edge21" class="edge">
<title>T18254:f0&#45;&gt;T18305:f0</title>
<path fill="none" stroke="#5b00c0" d="M215,-744C141.84,-744 126.33,-679.79 125.09,-607.28"/>
<polygon fill="#5b00c0" stroke="#5b00c0" points="128.58,-606.97 125,-597 121.58,-607.03 128.58,-606.97"/>
<text text-anchor="middle" x="143.5" y="-659.3" font-family="Times,serif" font-size="14.00" fill="#5b00c0">rw</text>
</g>
<!-- T18305&#45;&gt;T18328 -->
<g id="edge23" class="edge">
<title>T18305:f1&#45;&gt;T18328:f3</title>
<path fill="none" stroke="#5b00c0" d="M205,-567C205,-503.35 332.26,-574.45 346.68,-526.06"/>
<polygon fill="#5b00c0" stroke="#5b00c0" points="350.17,-526.37 348,-516 343.23,-525.46 350.17,-526.37"/>
<text text-anchor="middle" x="352.5" y="-537.8" font-family="Times,serif" font-size="14.00" fill="#5b00c0">rw</text>
</g>
<!-- T18347&#45;&gt;T18299 -->
<g id="edge25" class="edge">
<title>T18347:f1&#45;&gt;T18299:f3</title>
<path fill="none" stroke="#5b00c0" d="M535,-354C535,-383.06 528,-389.94 528,-419 528,-583 528,-583 528,-583 528,-608.18 526.48,-616.88 526.09,-637.81"/>
<polygon fill="#5b00c0" stroke="#5b00c0" points="522.59,-637.97 526,-648 529.59,-638.03 522.59,-637.97"/>
<text text-anchor="middle" x="537.5" y="-497.3" font-family="Times,serif" font-size="14.00" fill="#5b00c0">rw</text>
</g>
<!-- T18347&#45;&gt;T18190 -->
<g id="edge24" class="edge">
<title>T18347:f1&#45;&gt;T18190:f0</title>
<path fill="none" stroke="#5b00c0" d="M535,-324C535,-286.13 470.12,-309.34 457.95,-282.92"/>
<polygon fill="#5b00c0" stroke="#5b00c0" points="461.37,-282.14 456,-273 454.5,-283.49 461.37,-282.14"/>
<text text-anchor="middle" x="535.5" y="-294.8" font-family="Times,serif" font-size="14.00" fill="#5b00c0">rw</text>
</g>
<!-- T18190&#45;&gt;T18202 -->
<g id="edge26" class="edge">
<title>T18190:f0&#45;&gt;T18202:f0</title>
<path fill="none" stroke="#c000a5" d="M456,-243C456,-229.89 662.24,-211.35 707.35,-197.06"/>
<polygon fill="#c000a5" stroke="#c000a5" points="709.13,-200.07 716,-192 705.6,-194.03 709.13,-200.07"/>
<text text-anchor="middle" x="640.5" y="-213.8" font-family="Times,serif" font-size="14.00" fill="#c000a5">wr</text>
</g>
</g>
</svg>
