<?xml version="1.0" encoding="UTF-8" standalone="no"?>
<!DOCTYPE svg PUBLIC "-//W3C//DTD SVG 1.1//EN"
 "http://www.w3.org/Graphics/SVG/1.1/DTD/svg11.dtd">
<!-- Generated by graphviz version 2.43.0 (0)
 -->
<!-- Title: a_graph Pages: 1 -->
<svg width="274pt" height="119pt"
 viewBox="0.00 0.00 274.00 119.00" xmlns="http://www.w3.org/2000/svg" xmlns:xlink="http://www.w3.org/1999/xlink">
<g id="graph0" class="graph" transform="scale(1 1) rotate(0) translate(4 115)">
<title>a_graph</title>
<polygon fill="white" stroke="transparent" points="-4,4 -4,-115 270,-115 270,4 -4,4"/>
<!-- T2081 -->
<g id="node1" class="node">
<title>T2081</title>
<polygon fill="none" stroke="#0058ad" points="5,-81.5 5,-110.5 203,-110.5 203,-81.5 5,-81.5"/>
<text text-anchor="middle" x="39" y="-92.3" font-family="Times,serif" font-size="14.00" fill="#0058ad">r 87 nil</text>
<polyline fill="none" stroke="#0058ad" points="73,-81.5 73,-110.5 "/>
<text text-anchor="middle" x="105.5" y="-92.3" font-family="Times,serif" font-size="14.00" fill="#0058ad">w 87 1</text>
<polyline fill="none" stroke="#0058ad" points="138,-81.5 138,-110.5 "/>
<text text-anchor="middle" x="170.5" y="-92.3" font-family="Times,serif" font-size="14.00" fill="#0058ad">w 85 8</text>
</g>
<!-- T2092 -->
<g id="node2" class="node">
<title>T2092</title>
<polygon fill="none" stroke="#0058ad" points="0,-0.5 0,-29.5 266,-29.5 266,-0.5 0,-0.5"/>
<text text-anchor="middle" x="34" y="-11.3" font-family="Times,serif" font-size="14.00" fill="#0058ad">r 87 nil</text>
<polyline fill="none" stroke="#0058ad" points="68,-0.5 68,-29.5 "/>
<text text-anchor="middle" x="100.5" y="-11.3" font-family="Times,serif" font-size="14.00" fill="#0058ad">w 87 3</text>
<polyline fill="none" stroke="#0058ad" points="133,-0.5 133,-29.5 "/>
<text text-anchor="middle" x="170" y="-11.3" font-family="Times,serif" font-size="14.00" fill="#0058ad">w 85 11</text>
<polyline fill="none" stroke="#0058ad" points="207,-0.5 207,-29.5 "/>
<text text-anchor="middle" x="236.5" y="-11.3" font-family="Times,serif" font-size="14.00" fill="#0058ad">r 87 3</text>
</g>
<!-- T2081&#45;&gt;T2092 -->
<g id="edge1" class="edge">
<title>T2081:f0&#45;&gt;T2092:f1</title>
<path fill="none" stroke="#5b00c0" d="M39,-81C39,-65.07 41.54,-59.06 53,-48 65.57,-35.86 87.19,-45.36 96.04,-39.42"/>
<polygon fill="#5b00c0" stroke="#5b00c0" points="99.35,-40.58 100,-30 92.9,-37.86 99.35,-40.58"/>
<text text-anchor="middle" x="62.5" y="-51.8" font-family="Times,serif" font-size="14.00" fill="#5b00c0">rw</text>
</g>
<!-- T2092&#45;&gt;T2081 -->
<g id="edge2" class="edge">
<title>T2092:f0&#45;&gt;T2081:f1</title>
<path fill="none" stroke="#5b00c0" d="M34,-30C34,-48.69 56.64,-37.35 72,-48 85.92,-57.66 99.45,-59.51 104.21,-70.83"/>
<polygon fill="#5b00c0" stroke="#5b00c0" points="100.82,-71.76 106,-81 107.71,-70.54 100.82,-71.76"/>
<text text-anchor="middle" x="107.5" y="-51.8" font-family="Times,serif" font-size="14.00" fill="#5b00c0">rw</text>
</g>
</g>
</svg>
