<?xml version="1.0" encoding="UTF-8" standalone="no"?>
<!DOCTYPE svg PUBLIC "-//W3C//DTD SVG 1.1//EN"
 "http://www.w3.org/Graphics/SVG/1.1/DTD/svg11.dtd">
<!-- Generated by graphviz version 2.43.0 (0)
 -->
<!-- Title: a_graph Pages: 1 -->
<svg width="560pt" height="281pt"
 viewBox="0.00 0.00 559.81 281.00" xmlns="http://www.w3.org/2000/svg" xmlns:xlink="http://www.w3.org/1999/xlink">
<g id="graph0" class="graph" transform="scale(1 1) rotate(0) translate(4 277)">
<title>a_graph</title>
<polygon fill="white" stroke="transparent" points="-4,4 -4,-277 555.81,-277 555.81,4 -4,4"/>
<!-- T29167 -->
<g id="node1" class="node">
<title>T29167</title>
<polygon fill="none" stroke="#0058ad" points="210.81,-243.5 210.81,-272.5 551.81,-272.5 551.81,-243.5 210.81,-243.5"/>
<text text-anchor="middle" x="253.81" y="-254.3" font-family="Times,serif" font-size="14.00" fill="#0058ad">r 1111 11</text>
<polyline fill="none" stroke="#0058ad" points="296.81,-243.5 296.81,-272.5 "/>
<text text-anchor="middle" x="338.31" y="-254.3" font-family="Times,serif" font-size="14.00" fill="#0058ad">w 1109 2</text>
<polyline fill="none" stroke="#0058ad" points="379.81,-243.5 379.81,-272.5 "/>
<text text-anchor="middle" x="422.81" y="-254.3" font-family="Times,serif" font-size="14.00" fill="#0058ad">r 1111 11</text>
<polyline fill="none" stroke="#0058ad" points="465.81,-243.5 465.81,-272.5 "/>
<text text-anchor="middle" x="508.81" y="-254.3" font-family="Times,serif" font-size="14.00" fill="#0058ad">r 1112 nil</text>
</g>
<!-- T29156 -->
<g id="node3" class="node">
<title>T29156</title>
<polygon fill="none" stroke="#0058ad" points="10.31,-162.5 10.31,-191.5 336.31,-191.5 336.31,-162.5 10.31,-162.5"/>
<text text-anchor="middle" x="51.81" y="-173.3" font-family="Times,serif" font-size="14.00" fill="#0058ad">w 1112 2</text>
<polyline fill="none" stroke="#0058ad" points="93.31,-162.5 93.31,-191.5 "/>
<text text-anchor="middle" x="134.81" y="-173.3" font-family="Times,serif" font-size="14.00" fill="#0058ad">w 1107 9</text>
<polyline fill="none" stroke="#0058ad" points="176.31,-162.5 176.31,-191.5 "/>
<text text-anchor="middle" x="217.81" y="-173.3" font-family="Times,serif" font-size="14.00" fill="#0058ad">w 1111 8</text>
<polyline fill="none" stroke="#0058ad" points="259.31,-162.5 259.31,-191.5 "/>
<text text-anchor="middle" x="297.81" y="-173.3" font-family="Times,serif" font-size="14.00" fill="#0058ad">r 1111 8</text>
</g>
<!-- T29167&#45;&gt;T29156 -->
<g id="edge1" class="edge">
<title>T29167:f3&#45;&gt;T29156:f0</title>
<path fill="none" stroke="#5b00c0" d="M509.31,-243C509.31,-41.69 66.83,-384.72 51.7,-202.01"/>
<polygon fill="#5b00c0" stroke="#5b00c0" points="55.2,-201.85 51.31,-192 48.21,-202.13 55.2,-201.85"/>
<text text-anchor="middle" x="515.81" y="-213.8" font-family="Times,serif" font-size="14.00" fill="#5b00c0">rw</text>
</g>
<!-- T29164 -->
<g id="node2" class="node">
<title>T29164</title>
<polygon fill="none" stroke="#0058ad" points="4.81,-0.5 4.81,-29.5 357.81,-29.5 357.81,-0.5 4.81,-0.5"/>
<text text-anchor="middle" x="47.81" y="-11.3" font-family="Times,serif" font-size="14.00" fill="#0058ad">r 1112 nil</text>
<polyline fill="none" stroke="#0058ad" points="90.81,-0.5 90.81,-29.5 "/>
<text text-anchor="middle" x="132.31" y="-11.3" font-family="Times,serif" font-size="14.00" fill="#0058ad">w 1113 2</text>
<polyline fill="none" stroke="#0058ad" points="173.81,-0.5 173.81,-29.5 "/>
<text text-anchor="middle" x="219.81" y="-11.3" font-family="Times,serif" font-size="14.00" fill="#0058ad">w 1111 10</text>
<polyline fill="none" stroke="#0058ad" points="265.81,-0.5 265.81,-29.5 "/>
<text text-anchor="middle" x="311.81" y="-11.3" font-family="Times,serif" font-size="14.00" fill="#0058ad">w 1111 11</text>
</g>
<!-- T29164&#45;&gt;T29167 -->
<g id="edge2" class="edge">
<title>T29164:f3&#45;&gt;T29167:f0</title>
<path fill="none" stroke="#c000a5" d="M359.31,-15C438.22,-15 388.05,-125.66 345.31,-192 322.06,-228.08 263.97,-201.5 254.59,-233.06"/>
<polygon fill="#c000a5" stroke="#c000a5" points="251.12,-232.63 253.31,-243 258.06,-233.53 251.12,-232.63"/>
<text text-anchor="middle" x="388.81" y="-132.8" font-family="Times,serif" font-size="14.00" fill="#c000a5">wr</text>
</g>
<!-- T29164&#45;&gt;T29156 -->
<g id="edge3" class="edge">
<title>T29164:f0&#45;&gt;T29156:f0</title>
<path fill="none" stroke="#5b00c0" d="M3.31,-15C2.63,-15 -3.91,-134.64 4.11,-168.29"/>
<polygon fill="#5b00c0" stroke="#5b00c0" points="1.18,-170.21 9.31,-177 7.19,-166.62 1.18,-170.21"/>
<text text-anchor="middle" x="10.81" y="-92.3" font-family="Times,serif" font-size="14.00" fill="#5b00c0">rw</text>
</g>
<!-- T29159 -->
<g id="node4" class="node">
<title>T29159</title>
<polygon fill="none" stroke="#0058ad" points="30.81,-81.5 30.81,-110.5 335.81,-110.5 335.81,-81.5 30.81,-81.5"/>
<text text-anchor="middle" x="60.31" y="-92.3" font-family="Times,serif" font-size="14.00" fill="#0058ad">r 0 15</text>
<polyline fill="none" stroke="#0058ad" points="89.81,-81.5 89.81,-110.5 "/>
<text text-anchor="middle" x="132.81" y="-92.3" font-family="Times,serif" font-size="14.00" fill="#0058ad">r 1113 nil</text>
<polyline fill="none" stroke="#0058ad" points="175.81,-81.5 175.81,-110.5 "/>
<text text-anchor="middle" x="217.31" y="-92.3" font-family="Times,serif" font-size="14.00" fill="#0058ad">w 1113 1</text>
<polyline fill="none" stroke="#0058ad" points="258.81,-81.5 258.81,-110.5 "/>
<text text-anchor="middle" x="297.31" y="-92.3" font-family="Times,serif" font-size="14.00" fill="#0058ad">r 1111 8</text>
</g>
<!-- T29156&#45;&gt;T29159 -->
<g id="edge4" class="edge">
<title>T29156:f2&#45;&gt;T29159:f3</title>
<path fill="none" stroke="#c000a5" d="M218.31,-162C218.31,-124.13 283.19,-147.34 295.35,-120.92"/>
<polygon fill="#c000a5" stroke="#c000a5" points="298.81,-121.49 297.31,-111 291.94,-120.14 298.81,-121.49"/>
<text text-anchor="middle" x="296.81" y="-132.8" font-family="Times,serif" font-size="14.00" fill="#c000a5">wr</text>
</g>
<!-- T29159&#45;&gt;T29164 -->
<g id="edge5" class="edge">
<title>T29159:f1&#45;&gt;T29164:f1</title>
<path fill="none" stroke="#5b00c0" d="M132.31,-81C132.31,-62.23 132.31,-55.12 132.31,-40.35"/>
<polygon fill="#5b00c0" stroke="#5b00c0" points="135.81,-40 132.31,-30 128.81,-40 135.81,-40"/>
<text text-anchor="middle" x="141.81" y="-51.8" font-family="Times,serif" font-size="14.00" fill="#5b00c0">rw</text>
</g>
</g>
</svg>
