<?xml version="1.0" encoding="UTF-8" standalone="no"?>
<!DOCTYPE svg PUBLIC "-//W3C//DTD SVG 1.1//EN"
 "http://www.w3.org/Graphics/SVG/1.1/DTD/svg11.dtd">
<!-- Generated by graphviz version 2.43.0 (0)
 -->
<!-- Title: a_graph Pages: 1 -->
<svg width="610pt" height="605pt"
 viewBox="0.00 0.00 609.50 605.00" xmlns="http://www.w3.org/2000/svg" xmlns:xlink="http://www.w3.org/1999/xlink">
<g id="graph0" class="graph" transform="scale(1 1) rotate(0) translate(4 601)">
<title>a_graph</title>
<polygon fill="white" stroke="transparent" points="-4,4 -4,-601 605.5,-601 605.5,4 -4,4"/>
<!-- T7459 -->
<g id="node1" class="node">
<title>T7459</title>
<polygon fill="none" stroke="#0058ad" points="308.5,-567.5 308.5,-596.5 601.5,-596.5 601.5,-567.5 308.5,-567.5"/>
<text text-anchor="middle" x="345.5" y="-578.3" font-family="Times,serif" font-size="14.00" fill="#0058ad">w 291 1</text>
<polyline fill="none" stroke="#0058ad" points="382.5,-567.5 382.5,-596.5 "/>
<text text-anchor="middle" x="421" y="-578.3" font-family="Times,serif" font-size="14.00" fill="#0058ad">r 290 nil</text>
<polyline fill="none" stroke="#0058ad" points="459.5,-567.5 459.5,-596.5 "/>
<text text-anchor="middle" x="496.5" y="-578.3" font-family="Times,serif" font-size="14.00" fill="#0058ad">w 290 3</text>
<polyline fill="none" stroke="#0058ad" points="533.5,-567.5 533.5,-596.5 "/>
<text text-anchor="middle" x="567.5" y="-578.3" font-family="Times,serif" font-size="14.00" fill="#0058ad">r 290 3</text>
</g>
<!-- T7496 -->
<g id="node8" class="node">
<title>T7496</title>
<polygon fill="none" stroke="#0058ad" points="248,-486.5 248,-515.5 488,-515.5 488,-486.5 248,-486.5"/>
<text text-anchor="middle" x="285" y="-497.3" font-family="Times,serif" font-size="14.00" fill="#0058ad">w 289 5</text>
<polyline fill="none" stroke="#0058ad" points="322,-486.5 322,-515.5 "/>
<text text-anchor="middle" x="363.5" y="-497.3" font-family="Times,serif" font-size="14.00" fill="#0058ad">w 290 10</text>
<polyline fill="none" stroke="#0058ad" points="405,-486.5 405,-515.5 "/>
<text text-anchor="middle" x="446.5" y="-497.3" font-family="Times,serif" font-size="14.00" fill="#0058ad">w 291 10</text>
</g>
<!-- T7459&#45;&gt;T7496 -->
<g id="edge1" class="edge">
<title>T7459:f1&#45;&gt;T7496:f1</title>
<path fill="none" stroke="#5b00c0" d="M421,-567C421,-536.56 375.4,-546.99 365.06,-525.82"/>
<polygon fill="#5b00c0" stroke="#5b00c0" points="368.48,-525.07 363,-516 361.63,-526.51 368.48,-525.07"/>
<text text-anchor="middle" x="421.5" y="-537.8" font-family="Times,serif" font-size="14.00" fill="#5b00c0">rw</text>
</g>
<!-- T7543 -->
<g id="node2" class="node">
<title>T7543</title>
<polygon fill="none" stroke="#0058ad" points="83.5,-243.5 83.5,-272.5 394.5,-272.5 394.5,-243.5 83.5,-243.5"/>
<text text-anchor="middle" x="125" y="-254.3" font-family="Times,serif" font-size="14.00" fill="#0058ad">w 293 11</text>
<polyline fill="none" stroke="#0058ad" points="166.5,-243.5 166.5,-272.5 "/>
<text text-anchor="middle" x="208" y="-254.3" font-family="Times,serif" font-size="14.00" fill="#0058ad">w 293 12</text>
<polyline fill="none" stroke="#0058ad" points="249.5,-243.5 249.5,-272.5 "/>
<text text-anchor="middle" x="283.5" y="-254.3" font-family="Times,serif" font-size="14.00" fill="#0058ad">r 289 8</text>
<polyline fill="none" stroke="#0058ad" points="317.5,-243.5 317.5,-272.5 "/>
<text text-anchor="middle" x="356" y="-254.3" font-family="Times,serif" font-size="14.00" fill="#0058ad">r 287 nil</text>
</g>
<!-- T7467 -->
<g id="node7" class="node">
<title>T7467</title>
<polygon fill="none" stroke="#0058ad" points="190.5,-162.5 190.5,-191.5 341.5,-191.5 341.5,-162.5 190.5,-162.5"/>
<text text-anchor="middle" x="229" y="-173.3" font-family="Times,serif" font-size="14.00" fill="#0058ad">r 289 nil</text>
<polyline fill="none" stroke="#0058ad" points="267.5,-162.5 267.5,-191.5 "/>
<text text-anchor="middle" x="304.5" y="-173.3" font-family="Times,serif" font-size="14.00" fill="#0058ad">w 287 1</text>
</g>
<!-- T7543&#45;&gt;T7467 -->
<g id="edge2" class="edge">
<title>T7543:f3&#45;&gt;T7467:f1</title>
<path fill="none" stroke="#5b00c0" d="M356,-243C356,-214.83 316.6,-221.54 307.06,-201.82"/>
<polygon fill="#5b00c0" stroke="#5b00c0" points="310.48,-201.07 305,-192 303.63,-202.51 310.48,-201.07"/>
<text text-anchor="middle" x="356.5" y="-213.8" font-family="Times,serif" font-size="14.00" fill="#5b00c0">rw</text>
</g>
<!-- T7508 -->
<g id="node3" class="node">
<title>T7508</title>
<polygon fill="none" stroke="#0058ad" points="64,-405.5 64,-434.5 360,-434.5 360,-405.5 64,-405.5"/>
<text text-anchor="middle" x="98" y="-416.3" font-family="Times,serif" font-size="14.00" fill="#0058ad">r 289 5</text>
<polyline fill="none" stroke="#0058ad" points="132,-405.5 132,-434.5 "/>
<text text-anchor="middle" x="173.5" y="-416.3" font-family="Times,serif" font-size="14.00" fill="#0058ad">w 291 12</text>
<polyline fill="none" stroke="#0058ad" points="215,-405.5 215,-434.5 "/>
<text text-anchor="middle" x="249" y="-416.3" font-family="Times,serif" font-size="14.00" fill="#0058ad">r 289 5</text>
<polyline fill="none" stroke="#0058ad" points="283,-405.5 283,-434.5 "/>
<text text-anchor="middle" x="321.5" y="-416.3" font-family="Times,serif" font-size="14.00" fill="#0058ad">r 291 12</text>
</g>
<!-- T7516 -->
<g id="node9" class="node">
<title>T7516</title>
<polygon fill="none" stroke="#0058ad" points="83.5,-324.5 83.5,-353.5 394.5,-353.5 394.5,-324.5 83.5,-324.5"/>
<text text-anchor="middle" x="122" y="-335.3" font-family="Times,serif" font-size="14.00" fill="#0058ad">r 291 12</text>
<polyline fill="none" stroke="#0058ad" points="160.5,-324.5 160.5,-353.5 "/>
<text text-anchor="middle" x="199" y="-335.3" font-family="Times,serif" font-size="14.00" fill="#0058ad">r 291 12</text>
<polyline fill="none" stroke="#0058ad" points="237.5,-324.5 237.5,-353.5 "/>
<text text-anchor="middle" x="274.5" y="-335.3" font-family="Times,serif" font-size="14.00" fill="#0058ad">w 289 8</text>
<polyline fill="none" stroke="#0058ad" points="311.5,-324.5 311.5,-353.5 "/>
<text text-anchor="middle" x="353" y="-335.3" font-family="Times,serif" font-size="14.00" fill="#0058ad">w 291 16</text>
</g>
<!-- T7508&#45;&gt;T7516 -->
<g id="edge3" class="edge">
<title>T7508:f1&#45;&gt;T7516:f0</title>
<path fill="none" stroke="#c000a5" d="M173,-405C173,-376.83 133.6,-383.54 124.06,-363.82"/>
<polygon fill="#c000a5" stroke="#c000a5" points="127.48,-363.07 122,-354 120.63,-364.51 127.48,-363.07"/>
<text text-anchor="middle" x="173.5" y="-375.8" font-family="Times,serif" font-size="14.00" fill="#c000a5">wr</text>
</g>
<!-- T7511 -->
<g id="node4" class="node">
<title>T7511</title>
<polygon fill="none" stroke="#0058ad" points="213,-81.5 213,-110.5 441,-110.5 441,-81.5 213,-81.5"/>
<text text-anchor="middle" x="251.5" y="-92.3" font-family="Times,serif" font-size="14.00" fill="#0058ad">r 290 10</text>
<polyline fill="none" stroke="#0058ad" points="290,-81.5 290,-110.5 "/>
<text text-anchor="middle" x="328.5" y="-92.3" font-family="Times,serif" font-size="14.00" fill="#0058ad">r 287 nil</text>
<polyline fill="none" stroke="#0058ad" points="367,-81.5 367,-110.5 "/>
<text text-anchor="middle" x="404" y="-92.3" font-family="Times,serif" font-size="14.00" fill="#0058ad">w 289 7</text>
</g>
<!-- T7511&#45;&gt;T7467 -->
<g id="edge4" class="edge">
<title>T7511:f1&#45;&gt;T7467:f1</title>
<path fill="none" stroke="#5b00c0" d="M329,-111C329,-132.14 311.91,-136.08 306.57,-151.84"/>
<polygon fill="#5b00c0" stroke="#5b00c0" points="303.07,-151.58 305,-162 309.99,-152.65 303.07,-151.58"/>
<text text-anchor="middle" x="333.5" y="-132.8" font-family="Times,serif" font-size="14.00" fill="#5b00c0">rw</text>
</g>
<!-- T7450 -->
<g id="node5" class="node">
<title>T7450</title>
<polygon fill="none" stroke="#0058ad" points="121,-81.5 121,-110.5 195,-110.5 195,-81.5 121,-81.5"/>
<text text-anchor="middle" x="158" y="-92.3" font-family="Times,serif" font-size="14.00" fill="#0058ad">w 289 1</text>
</g>
<!-- T7453 -->
<g id="node6" class="node">
<title>T7453</title>
<polygon fill="none" stroke="#0058ad" points="430.5,-0.5 430.5,-29.5 575.5,-29.5 575.5,-0.5 430.5,-0.5"/>
<text text-anchor="middle" x="469" y="-11.3" font-family="Times,serif" font-size="14.00" fill="#0058ad">r 290 nil</text>
<polyline fill="none" stroke="#0058ad" points="507.5,-0.5 507.5,-29.5 "/>
<text text-anchor="middle" x="541.5" y="-11.3" font-family="Times,serif" font-size="14.00" fill="#0058ad">r 289 1</text>
</g>
<!-- T7450&#45;&gt;T7453 -->
<g id="edge5" class="edge">
<title>T7450:f0&#45;&gt;T7453:f1</title>
<path fill="none" stroke="#c000a5" d="M193.39,-81.45C193.93,-81.3 194.46,-81.15 195,-81 199.22,-79.85 475.95,-43.53 532.12,-32.63"/>
<polygon fill="#c000a5" stroke="#c000a5" points="533.24,-35.96 542,-30 531.44,-29.19 533.24,-35.96"/>
<text text-anchor="middle" x="441.5" y="-51.8" font-family="Times,serif" font-size="14.00" fill="#c000a5">wr</text>
</g>
<!-- T7453&#45;&gt;T7459 -->
<g id="edge6" class="edge">
<title>T7453:f0&#45;&gt;T7459:f2</title>
<path fill="none" stroke="#5b00c0" d="M469,-30C469,-40.13 476.98,-39.85 483,-48 498.17,-68.52 516,-69.48 516,-95 516,-502 516,-502 516,-502 516,-528.34 501.45,-535.31 497.82,-556.8"/>
<polygon fill="#5b00c0" stroke="#5b00c0" points="494.31,-556.75 497,-567 501.29,-557.31 494.31,-556.75"/>
<text text-anchor="middle" x="525.5" y="-294.8" font-family="Times,serif" font-size="14.00" fill="#5b00c0">rw</text>
</g>
<!-- T7453&#45;&gt;T7496 -->
<g id="edge7" class="edge">
<title>T7453:f0&#45;&gt;T7496:f1</title>
<path fill="none" stroke="#5b00c0" d="M469,-30C469,-58.89 469,-66.11 469,-95 469,-421 469,-421 469,-421 469,-459.59 429.18,-448.3 396,-468 385.67,-474.13 373.14,-472.12 366.91,-476.7"/>
<polygon fill="#5b00c0" stroke="#5b00c0" points="363.65,-475.43 363,-486 370.1,-478.14 363.65,-475.43"/>
<text text-anchor="middle" x="478.5" y="-254.3" font-family="Times,serif" font-size="14.00" fill="#5b00c0">rw</text>
</g>
<!-- T7467&#45;&gt;T7511 -->
<g id="edge8" class="edge">
<title>T7467:f0&#45;&gt;T7511:f2</title>
<path fill="none" stroke="#5b00c0" d="M229,-162C229,-131.95 259.6,-138.79 288,-129 309.1,-121.73 378.99,-132.82 398.75,-119.84"/>
<polygon fill="#5b00c0" stroke="#5b00c0" points="401.91,-121.39 404,-111 395.89,-117.81 401.91,-121.39"/>
<text text-anchor="middle" x="297.5" y="-132.8" font-family="Times,serif" font-size="14.00" fill="#5b00c0">rw</text>
</g>
<!-- T7467&#45;&gt;T7450 -->
<g id="edge11" class="edge">
<title>T7467:f0&#45;&gt;T7450:f0</title>
<path fill="none" stroke="#5b00c0" d="M189,-177C164.71,-177 158.72,-144.84 157.62,-121.05"/>
<polygon fill="#5b00c0" stroke="#5b00c0" points="161.11,-120.78 157.4,-110.86 154.11,-120.93 161.11,-120.78"/>
<text text-anchor="middle" x="170.5" y="-132.8" font-family="Times,serif" font-size="14.00" fill="#5b00c0">rw</text>
</g>
<!-- T7467&#45;&gt;T7496 -->
<g id="edge10" class="edge">
<title>T7467:f0&#45;&gt;T7496:f0</title>
<path fill="none" stroke="#5b00c0" d="M189,-177C150.74,-177 49.74,-185.92 20,-210 2.36,-224.29 0,-234.3 0,-257 0,-421 0,-421 0,-421 0,-475.65 169.86,-498.55 236.82,-500.81"/>
<polygon fill="#5b00c0" stroke="#5b00c0" points="236.94,-504.31 247,-501 237.07,-497.32 236.94,-504.31"/>
<text text-anchor="middle" x="9.5" y="-335.3" font-family="Times,serif" font-size="14.00" fill="#5b00c0">rw</text>
</g>
<!-- T7467&#45;&gt;T7516 -->
<g id="edge9" class="edge">
<title>T7467:f0&#45;&gt;T7516:f2</title>
<path fill="none" stroke="#5b00c0" d="M189,-177C33.28,-177 -14.56,-185.47 55,-273 115.13,-348.66 263.44,-232.84 274.36,-313.75"/>
<polygon fill="#5b00c0" stroke="#5b00c0" points="270.89,-314.24 275,-324 277.87,-313.8 270.89,-314.24"/>
<text text-anchor="middle" x="64.5" y="-254.3" font-family="Times,serif" font-size="14.00" fill="#5b00c0">rw</text>
</g>
<!-- T7496&#45;&gt;T7508 -->
<g id="edge13" class="edge">
<title>T7496:f0&#45;&gt;T7508:f0</title>
<path fill="none" stroke="#c000a5" d="M247,-501C214.18,-501 118.47,-476.54 100.82,-445"/>
<polygon fill="#c000a5" stroke="#c000a5" points="104.08,-443.68 98,-435 97.34,-445.57 104.08,-443.68"/>
<text text-anchor="middle" x="136.5" y="-456.8" font-family="Times,serif" font-size="14.00" fill="#c000a5">wr</text>
</g>
<!-- T7496&#45;&gt;T7511 -->
<g id="edge12" class="edge">
<title>T7496:f1&#45;&gt;T7511:f0</title>
<path fill="none" stroke="#c000a5" d="M363,-486C363,-446.68 423,-460.32 423,-421 423,-421 423,-421 423,-176 423,-136.28 384.03,-143.35 347,-129 330.16,-122.48 274.88,-129.37 256.79,-119.37"/>
<polygon fill="#c000a5" stroke="#c000a5" points="259.57,-117.23 251,-111 253.81,-121.22 259.57,-117.23"/>
<text text-anchor="middle" x="432.5" y="-294.8" font-family="Times,serif" font-size="14.00" fill="#c000a5">wr</text>
</g>
<!-- T7516&#45;&gt;T7543 -->
<g id="edge14" class="edge">
<title>T7516:f2&#45;&gt;T7543:f2</title>
<path fill="none" stroke="#c000a5" d="M275,-324C275,-304.76 281.29,-298.13 283.35,-283.03"/>
<polygon fill="#c000a5" stroke="#c000a5" points="286.85,-283.2 284,-273 279.86,-282.75 286.85,-283.2"/>
<text text-anchor="middle" x="291.5" y="-294.8" font-family="Times,serif" font-size="14.00" fill="#c000a5">wr</text>
</g>
</g>
</svg>
