<?xml version="1.0" encoding="UTF-8" standalone="no"?>
<!DOCTYPE svg PUBLIC "-//W3C//DTD SVG 1.1//EN"
 "http://www.w3.org/Graphics/SVG/1.1/DTD/svg11.dtd">
<!-- Generated by graphviz version 2.43.0 (0)
 -->
<!-- Title: a_graph Pages: 1 -->
<svg width="313pt" height="119pt"
 viewBox="0.00 0.00 312.50 119.00" xmlns="http://www.w3.org/2000/svg" xmlns:xlink="http://www.w3.org/1999/xlink">
<g id="graph0" class="graph" transform="scale(1 1) rotate(0) translate(4 115)">
<title>a_graph</title>
<polygon fill="white" stroke="transparent" points="-4,4 -4,-115 308.5,-115 308.5,4 -4,4"/>
<!-- T8477 -->
<g id="node1" class="node">
<title>T8477</title>
<polygon fill="none" stroke="#0058ad" points="8.5,-81.5 8.5,-110.5 304.5,-110.5 304.5,-81.5 8.5,-81.5"/>
<text text-anchor="middle" x="47" y="-92.3" font-family="Times,serif" font-size="14.00" fill="#0058ad">r 329 nil</text>
<polyline fill="none" stroke="#0058ad" points="85.5,-81.5 85.5,-110.5 "/>
<text text-anchor="middle" x="122.5" y="-92.3" font-family="Times,serif" font-size="14.00" fill="#0058ad">w 330 1</text>
<polyline fill="none" stroke="#0058ad" points="159.5,-81.5 159.5,-110.5 "/>
<text text-anchor="middle" x="198" y="-92.3" font-family="Times,serif" font-size="14.00" fill="#0058ad">r 323 12</text>
<polyline fill="none" stroke="#0058ad" points="236.5,-81.5 236.5,-110.5 "/>
<text text-anchor="middle" x="270.5" y="-92.3" font-family="Times,serif" font-size="14.00" fill="#0058ad">r 327 2</text>
</g>
<!-- T8476 -->
<g id="node2" class="node">
<title>T8476</title>
<polygon fill="none" stroke="#0058ad" points="0,-0.5 0,-29.5 293,-29.5 293,-0.5 0,-0.5"/>
<text text-anchor="middle" x="38.5" y="-11.3" font-family="Times,serif" font-size="14.00" fill="#0058ad">r 330 nil</text>
<polyline fill="none" stroke="#0058ad" points="77,-0.5 77,-29.5 "/>
<text text-anchor="middle" x="114" y="-11.3" font-family="Times,serif" font-size="14.00" fill="#0058ad">w 329 1</text>
<polyline fill="none" stroke="#0058ad" points="151,-0.5 151,-29.5 "/>
<text text-anchor="middle" x="188" y="-11.3" font-family="Times,serif" font-size="14.00" fill="#0058ad">w 327 3</text>
<polyline fill="none" stroke="#0058ad" points="225,-0.5 225,-29.5 "/>
<text text-anchor="middle" x="259" y="-11.3" font-family="Times,serif" font-size="14.00" fill="#0058ad">r 323 9</text>
</g>
<!-- T8477&#45;&gt;T8476 -->
<g id="edge1" class="edge">
<title>T8477:f0&#45;&gt;T8476:f1</title>
<path fill="none" stroke="#5b00c0" d="M46.5,-81C46.5,-64.29 51.85,-58.91 64.5,-48 78.5,-35.92 101.3,-46.4 109.99,-39.41"/>
<polygon fill="#5b00c0" stroke="#5b00c0" points="113.28,-40.59 113.5,-30 106.72,-38.15 113.28,-40.59"/>
<text text-anchor="middle" x="74" y="-51.8" font-family="Times,serif" font-size="14.00" fill="#5b00c0">rw</text>
</g>
<!-- T8476&#45;&gt;T8477 -->
<g id="edge2" class="edge">
<title>T8476:f0&#45;&gt;T8477:f1</title>
<path fill="none" stroke="#5b00c0" d="M38.5,-30C38.5,-51.54 65.04,-36.9 83.5,-48 99.46,-57.6 115.48,-58.38 120.72,-70.88"/>
<polygon fill="#5b00c0" stroke="#5b00c0" points="117.32,-71.76 122.5,-81 124.22,-70.55 117.32,-71.76"/>
<text text-anchor="middle" x="124" y="-51.8" font-family="Times,serif" font-size="14.00" fill="#5b00c0">rw</text>
</g>
</g>
</svg>
