<?xml version="1.0" encoding="UTF-8" standalone="no"?>
<!DOCTYPE svg PUBLIC "-//W3C//DTD SVG 1.1//EN"
 "http://www.w3.org/Graphics/SVG/1.1/DTD/svg11.dtd">
<!-- Generated by graphviz version 2.43.0 (0)
 -->
<!-- Title: a_graph Pages: 1 -->
<svg width="313pt" height="119pt"
 viewBox="0.00 0.00 313.00 119.00" xmlns="http://www.w3.org/2000/svg" xmlns:xlink="http://www.w3.org/1999/xlink">
<g id="graph0" class="graph" transform="scale(1 1) rotate(0) translate(4 115)">
<title>a_graph</title>
<polygon fill="white" stroke="transparent" points="-4,4 -4,-115 309,-115 309,4 -4,4"/>
<!-- T3190 -->
<g id="node1" class="node">
<title>T3190</title>
<polygon fill="none" stroke="#0058ad" points="9,-81.5 9,-110.5 296,-110.5 296,-81.5 9,-81.5"/>
<text text-anchor="middle" x="47.5" y="-92.3" font-family="Times,serif" font-size="14.00" fill="#0058ad">r 126 nil</text>
<polyline fill="none" stroke="#0058ad" points="86,-81.5 86,-110.5 "/>
<text text-anchor="middle" x="120" y="-92.3" font-family="Times,serif" font-size="14.00" fill="#0058ad">r 124 6</text>
<polyline fill="none" stroke="#0058ad" points="154,-81.5 154,-110.5 "/>
<text text-anchor="middle" x="188" y="-92.3" font-family="Times,serif" font-size="14.00" fill="#0058ad">r 124 6</text>
<polyline fill="none" stroke="#0058ad" points="222,-81.5 222,-110.5 "/>
<text text-anchor="middle" x="259" y="-92.3" font-family="Times,serif" font-size="14.00" fill="#0058ad">w 126 1</text>
</g>
<!-- T3192 -->
<g id="node2" class="node">
<title>T3192</title>
<polygon fill="none" stroke="#0058ad" points="0,-0.5 0,-29.5 305,-29.5 305,-0.5 0,-0.5"/>
<text text-anchor="middle" x="38.5" y="-11.3" font-family="Times,serif" font-size="14.00" fill="#0058ad">r 126 nil</text>
<polyline fill="none" stroke="#0058ad" points="77,-0.5 77,-29.5 "/>
<text text-anchor="middle" x="115.5" y="-11.3" font-family="Times,serif" font-size="14.00" fill="#0058ad">r 126 nil</text>
<polyline fill="none" stroke="#0058ad" points="154,-0.5 154,-29.5 "/>
<text text-anchor="middle" x="192.5" y="-11.3" font-family="Times,serif" font-size="14.00" fill="#0058ad">r 126 nil</text>
<polyline fill="none" stroke="#0058ad" points="231,-0.5 231,-29.5 "/>
<text text-anchor="middle" x="268" y="-11.3" font-family="Times,serif" font-size="14.00" fill="#0058ad">w 126 2</text>
</g>
<!-- T3190&#45;&gt;T3192 -->
<g id="edge1" class="edge">
<title>T3190:f0&#45;&gt;T3192:f3</title>
<path fill="none" stroke="#5b00c0" d="M47.5,-81C47.5,-21.82 118.77,-61.02 176.5,-48 193.33,-44.2 245.38,-48.64 262.77,-38.44"/>
<polygon fill="#5b00c0" stroke="#5b00c0" points="265.78,-40.24 268.5,-30 259.99,-36.31 265.78,-40.24"/>
<text text-anchor="middle" x="186" y="-51.8" font-family="Times,serif" font-size="14.00" fill="#5b00c0">rw</text>
</g>
<!-- T3192&#45;&gt;T3190 -->
<g id="edge2" class="edge">
<title>T3192:f0&#45;&gt;T3190:f3</title>
<path fill="none" stroke="#5b00c0" d="M38.5,-30C38.5,-47.56 178.7,-42.89 195.5,-48 222.41,-56.18 251.46,-50.75 258.1,-71.04"/>
<polygon fill="#5b00c0" stroke="#5b00c0" points="254.64,-71.59 259.5,-81 261.57,-70.61 254.64,-71.59"/>
<text text-anchor="middle" x="262" y="-51.8" font-family="Times,serif" font-size="14.00" fill="#5b00c0">rw</text>
</g>
</g>
</svg>
