<?xml version="1.0" encoding="UTF-8" standalone="no"?>
<!DOCTYPE svg PUBLIC "-//W3C//DTD SVG 1.1//EN"
 "http://www.w3.org/Graphics/SVG/1.1/DTD/svg11.dtd">
<!-- Generated by graphviz version 2.43.0 (0)
 -->
<!-- Title: a_graph Pages: 1 -->
<svg width="416pt" height="281pt"
 viewBox="0.00 0.00 415.50 281.00" xmlns="http://www.w3.org/2000/svg" xmlns:xlink="http://www.w3.org/1999/xlink">
<g id="graph0" class="graph" transform="scale(1 1) rotate(0) translate(4 277)">
<title>a_graph</title>
<polygon fill="white" stroke="transparent" points="-4,4 -4,-277 411.5,-277 411.5,4 -4,4"/>
<!-- T33247 -->
<g id="node1" class="node">
<title>T33247</title>
<polygon fill="none" stroke="#0058ad" points="62.5,-243.5 62.5,-272.5 314.5,-272.5 314.5,-243.5 62.5,-243.5"/>
<text text-anchor="middle" x="105.5" y="-254.3" font-family="Times,serif" font-size="14.00" fill="#0058ad">r 1270 nil</text>
<polyline fill="none" stroke="#0058ad" points="148.5,-243.5 148.5,-272.5 "/>
<text text-anchor="middle" x="190" y="-254.3" font-family="Times,serif" font-size="14.00" fill="#0058ad">w 1270 4</text>
<polyline fill="none" stroke="#0058ad" points="231.5,-243.5 231.5,-272.5 "/>
<text text-anchor="middle" x="273" y="-254.3" font-family="Times,serif" font-size="14.00" fill="#0058ad">w 1270 5</text>
</g>
<!-- T33256 -->
<g id="node2" class="node">
<title>T33256</title>
<polygon fill="none" stroke="#0058ad" points="69,-162.5 69,-191.5 238,-191.5 238,-162.5 69,-162.5"/>
<text text-anchor="middle" x="110.5" y="-173.3" font-family="Times,serif" font-size="14.00" fill="#0058ad">w 1270 6</text>
<polyline fill="none" stroke="#0058ad" points="152,-162.5 152,-191.5 "/>
<text text-anchor="middle" x="195" y="-173.3" font-family="Times,serif" font-size="14.00" fill="#0058ad">r 1271 nil</text>
</g>
<!-- T33247&#45;&gt;T33256 -->
<g id="edge2" class="edge">
<title>T33247:f0&#45;&gt;T33256:f0</title>
<path fill="none" stroke="#5b00c0" d="M105.5,-243C105.5,-224.14 108.93,-217.16 110.11,-202.38"/>
<polygon fill="#5b00c0" stroke="#5b00c0" points="113.62,-202.13 110.5,-192 106.62,-201.86 113.62,-202.13"/>
<text text-anchor="middle" x="119" y="-213.8" font-family="Times,serif" font-size="14.00" fill="#5b00c0">rw</text>
</g>
<!-- T33242 -->
<g id="node4" class="node">
<title>T33242</title>
<polygon fill="none" stroke="#0058ad" points="0,-0.5 0,-29.5 323,-29.5 323,-0.5 0,-0.5"/>
<text text-anchor="middle" x="41.5" y="-11.3" font-family="Times,serif" font-size="14.00" fill="#0058ad">w 1270 3</text>
<polyline fill="none" stroke="#0058ad" points="83,-0.5 83,-29.5 "/>
<text text-anchor="middle" x="121.5" y="-11.3" font-family="Times,serif" font-size="14.00" fill="#0058ad">r 1270 3</text>
<polyline fill="none" stroke="#0058ad" points="160,-0.5 160,-29.5 "/>
<text text-anchor="middle" x="203" y="-11.3" font-family="Times,serif" font-size="14.00" fill="#0058ad">r 1271 nil</text>
<polyline fill="none" stroke="#0058ad" points="246,-0.5 246,-29.5 "/>
<text text-anchor="middle" x="284.5" y="-11.3" font-family="Times,serif" font-size="14.00" fill="#0058ad">r 1270 3</text>
</g>
<!-- T33247&#45;&gt;T33242 -->
<g id="edge1" class="edge">
<title>T33247:f0&#45;&gt;T33242:f0</title>
<path fill="none" stroke="#5b00c0" d="M61.5,-258C-36.84,-258 36.28,-139.97 41.24,-40.21"/>
<polygon fill="#5b00c0" stroke="#5b00c0" points="44.74,-40.09 41.5,-30 37.75,-39.91 44.74,-40.09"/>
<text text-anchor="middle" x="35" y="-132.8" font-family="Times,serif" font-size="14.00" fill="#5b00c0">rw</text>
</g>
<!-- T33243 -->
<g id="node3" class="node">
<title>T33243</title>
<polygon fill="none" stroke="#0058ad" points="69.5,-81.5 69.5,-110.5 407.5,-110.5 407.5,-81.5 69.5,-81.5"/>
<text text-anchor="middle" x="112.5" y="-92.3" font-family="Times,serif" font-size="14.00" fill="#0058ad">r 1270 nil</text>
<polyline fill="none" stroke="#0058ad" points="155.5,-81.5 155.5,-110.5 "/>
<text text-anchor="middle" x="197" y="-92.3" font-family="Times,serif" font-size="14.00" fill="#0058ad">w 1271 1</text>
<polyline fill="none" stroke="#0058ad" points="238.5,-81.5 238.5,-110.5 "/>
<text text-anchor="middle" x="280" y="-92.3" font-family="Times,serif" font-size="14.00" fill="#0058ad">w 1269 2</text>
<polyline fill="none" stroke="#0058ad" points="321.5,-81.5 321.5,-110.5 "/>
<text text-anchor="middle" x="364.5" y="-92.3" font-family="Times,serif" font-size="14.00" fill="#0058ad">r 1270 nil</text>
</g>
<!-- T33256&#45;&gt;T33243 -->
<g id="edge3" class="edge">
<title>T33256:f1&#45;&gt;T33243:f1</title>
<path fill="none" stroke="#5b00c0" d="M195.5,-162C195.5,-143.23 196.19,-136.12 196.42,-121.35"/>
<polygon fill="#5b00c0" stroke="#5b00c0" points="199.92,-121.03 196.5,-111 192.92,-120.97 199.92,-121.03"/>
<text text-anchor="middle" x="205" y="-132.8" font-family="Times,serif" font-size="14.00" fill="#5b00c0">rw</text>
</g>
<!-- T33243&#45;&gt;T33247 -->
<g id="edge4" class="edge">
<title>T33243:f0&#45;&gt;T33247:f2</title>
<path fill="none" stroke="#5b00c0" d="M112.5,-111C112.5,-134.89 197.74,-117.18 218.5,-129 264.33,-155.1 272.57,-183.01 273.42,-232.76"/>
<polygon fill="#5b00c0" stroke="#5b00c0" points="269.92,-233.03 273.5,-243 276.92,-232.97 269.92,-233.03"/>
<text text-anchor="middle" x="279" y="-173.3" font-family="Times,serif" font-size="14.00" fill="#5b00c0">rw</text>
</g>
<!-- T33243&#45;&gt;T33256 -->
<g id="edge6" class="edge">
<title>T33243:f0&#45;&gt;T33256:f0</title>
<path fill="none" stroke="#5b00c0" d="M112.5,-111C112.5,-129.79 111.13,-136.88 110.66,-151.64"/>
<polygon fill="#5b00c0" stroke="#5b00c0" points="107.15,-151.95 110.5,-162 114.15,-152.05 107.15,-151.95"/>
<text text-anchor="middle" x="122" y="-132.8" font-family="Times,serif" font-size="14.00" fill="#5b00c0">rw</text>
</g>
<!-- T33243&#45;&gt;T33242 -->
<g id="edge5" class="edge">
<title>T33243:f0&#45;&gt;T33242:f0</title>
<path fill="none" stroke="#5b00c0" d="M112.5,-81C112.5,-64.76 62.89,-53.61 46.61,-39.04"/>
<polygon fill="#5b00c0" stroke="#5b00c0" points="49.47,-36.98 41.5,-30 43.37,-40.43 49.47,-36.98"/>
<text text-anchor="middle" x="102" y="-51.8" font-family="Times,serif" font-size="14.00" fill="#5b00c0">rw</text>
</g>
<!-- T33242&#45;&gt;T33243 -->
<g id="edge7" class="edge">
<title>T33242:f2&#45;&gt;T33243:f1</title>
<path fill="none" stroke="#5b00c0" d="M203.5,-30C203.5,-49.13 198.61,-55.93 197,-71.01"/>
<polygon fill="#5b00c0" stroke="#5b00c0" points="193.51,-70.84 196.5,-81 200.5,-71.19 193.51,-70.84"/>
<text text-anchor="middle" x="211" y="-51.8" font-family="Times,serif" font-size="14.00" fill="#5b00c0">rw</text>
</g>
</g>
</svg>
