<?xml version="1.0" encoding="UTF-8" standalone="no"?>
<!DOCTYPE svg PUBLIC "-//W3C//DTD SVG 1.1//EN"
 "http://www.w3.org/Graphics/SVG/1.1/DTD/svg11.dtd">
<!-- Generated by graphviz version 2.43.0 (0)
 -->
<!-- Title: a_graph Pages: 1 -->
<svg width="277pt" height="119pt"
 viewBox="0.00 0.00 276.50 119.00" xmlns="http://www.w3.org/2000/svg" xmlns:xlink="http://www.w3.org/1999/xlink">
<g id="graph0" class="graph" transform="scale(1 1) rotate(0) translate(4 115)">
<title>a_graph</title>
<polygon fill="white" stroke="transparent" points="-4,4 -4,-115 272.5,-115 272.5,4 -4,4"/>
<!-- T8407 -->
<g id="node1" class="node">
<title>T8407</title>
<polygon fill="none" stroke="#0058ad" points="0,-81.5 0,-110.5 228,-110.5 228,-81.5 0,-81.5"/>
<text text-anchor="middle" x="38.5" y="-92.3" font-family="Times,serif" font-size="14.00" fill="#0058ad">r 322 11</text>
<polyline fill="none" stroke="#0058ad" points="77,-81.5 77,-110.5 "/>
<text text-anchor="middle" x="115.5" y="-92.3" font-family="Times,serif" font-size="14.00" fill="#0058ad">r 326 nil</text>
<polyline fill="none" stroke="#0058ad" points="154,-81.5 154,-110.5 "/>
<text text-anchor="middle" x="191" y="-92.3" font-family="Times,serif" font-size="14.00" fill="#0058ad">w 326 1</text>
</g>
<!-- T8411 -->
<g id="node2" class="node">
<title>T8411</title>
<polygon fill="none" stroke="#0058ad" points="43.5,-0.5 43.5,-29.5 268.5,-29.5 268.5,-0.5 43.5,-0.5"/>
<text text-anchor="middle" x="82" y="-11.3" font-family="Times,serif" font-size="14.00" fill="#0058ad">r 326 nil</text>
<polyline fill="none" stroke="#0058ad" points="120.5,-0.5 120.5,-29.5 "/>
<text text-anchor="middle" x="157.5" y="-11.3" font-family="Times,serif" font-size="14.00" fill="#0058ad">w 326 2</text>
<polyline fill="none" stroke="#0058ad" points="194.5,-0.5 194.5,-29.5 "/>
<text text-anchor="middle" x="231.5" y="-11.3" font-family="Times,serif" font-size="14.00" fill="#0058ad">w 326 3</text>
</g>
<!-- T8407&#45;&gt;T8411 -->
<g id="edge1" class="edge">
<title>T8407:f1&#45;&gt;T8411:f2</title>
<path fill="none" stroke="#5b00c0" d="M116,-81C116,-62.6 125.4,-57.76 141,-48 155.41,-38.99 207.88,-46.61 225.89,-38.02"/>
<polygon fill="#5b00c0" stroke="#5b00c0" points="228.72,-40.08 232,-30 223.16,-35.83 228.72,-40.08"/>
<text text-anchor="middle" x="150.5" y="-51.8" font-family="Times,serif" font-size="14.00" fill="#5b00c0">rw</text>
</g>
<!-- T8411&#45;&gt;T8407 -->
<g id="edge2" class="edge">
<title>T8411:f0&#45;&gt;T8407:f2</title>
<path fill="none" stroke="#5b00c0" d="M82,-30C82,-65.58 129.16,-30.27 160,-48 174.04,-56.07 185.56,-59.49 189.52,-71"/>
<polygon fill="#5b00c0" stroke="#5b00c0" points="186.07,-71.62 191,-81 193,-70.6 186.07,-71.62"/>
<text text-anchor="middle" x="194.5" y="-51.8" font-family="Times,serif" font-size="14.00" fill="#5b00c0">rw</text>
</g>
</g>
</svg>
