<?xml version="1.0" encoding="UTF-8" standalone="no"?>
<!DOCTYPE svg PUBLIC "-//W3C//DTD SVG 1.1//EN"
 "http://www.w3.org/Graphics/SVG/1.1/DTD/svg11.dtd">
<!-- Generated by graphviz version 2.43.0 (0)
 -->
<!-- Title: a_graph Pages: 1 -->
<svg width="630pt" height="200pt"
 viewBox="0.00 0.00 630.00 200.00" xmlns="http://www.w3.org/2000/svg" xmlns:xlink="http://www.w3.org/1999/xlink">
<g id="graph0" class="graph" transform="scale(1 1) rotate(0) translate(4 196)">
<title>a_graph</title>
<polygon fill="white" stroke="transparent" points="-4,4 -4,-196 626,-196 626,4 -4,4"/>
<!-- T7306 -->
<g id="node1" class="node">
<title>T7306</title>
<polygon fill="none" stroke="#0058ad" points="33.5,-162.5 33.5,-191.5 326.5,-191.5 326.5,-162.5 33.5,-162.5"/>
<text text-anchor="middle" x="72" y="-173.3" font-family="Times,serif" font-size="14.00" fill="#0058ad">r 283 nil</text>
<polyline fill="none" stroke="#0058ad" points="110.5,-162.5 110.5,-191.5 "/>
<text text-anchor="middle" x="147.5" y="-173.3" font-family="Times,serif" font-size="14.00" fill="#0058ad">w 283 7</text>
<polyline fill="none" stroke="#0058ad" points="184.5,-162.5 184.5,-191.5 "/>
<text text-anchor="middle" x="221.5" y="-173.3" font-family="Times,serif" font-size="14.00" fill="#0058ad">w 277 8</text>
<polyline fill="none" stroke="#0058ad" points="258.5,-162.5 258.5,-191.5 "/>
<text text-anchor="middle" x="292.5" y="-173.3" font-family="Times,serif" font-size="14.00" fill="#0058ad">r 283 7</text>
</g>
<!-- T7297 -->
<g id="node4" class="node">
<title>T7297</title>
<polygon fill="none" stroke="#0058ad" points="143.5,-81.5 143.5,-110.5 454.5,-110.5 454.5,-81.5 143.5,-81.5"/>
<text text-anchor="middle" x="185" y="-92.3" font-family="Times,serif" font-size="14.00" fill="#0058ad">w 278 10</text>
<polyline fill="none" stroke="#0058ad" points="226.5,-81.5 226.5,-110.5 "/>
<text text-anchor="middle" x="265" y="-92.3" font-family="Times,serif" font-size="14.00" fill="#0058ad">r 284 nil</text>
<polyline fill="none" stroke="#0058ad" points="303.5,-81.5 303.5,-110.5 "/>
<text text-anchor="middle" x="340.5" y="-92.3" font-family="Times,serif" font-size="14.00" fill="#0058ad">w 283 6</text>
<polyline fill="none" stroke="#0058ad" points="377.5,-81.5 377.5,-110.5 "/>
<text text-anchor="middle" x="416" y="-92.3" font-family="Times,serif" font-size="14.00" fill="#0058ad">r 284 nil</text>
</g>
<!-- T7306&#45;&gt;T7297 -->
<g id="edge1" class="edge">
<title>T7306:f0&#45;&gt;T7297:f2</title>
<path fill="none" stroke="#5b00c0" d="M72,-162C72,-44 324.96,-221.33 340.28,-121.21"/>
<polygon fill="#5b00c0" stroke="#5b00c0" points="343.78,-121.22 341,-111 336.8,-120.73 343.78,-121.22"/>
<text text-anchor="middle" x="347.5" y="-132.8" font-family="Times,serif" font-size="14.00" fill="#5b00c0">rw</text>
</g>
<!-- T7292 -->
<g id="node2" class="node">
<title>T7292</title>
<polygon fill="none" stroke="#0058ad" points="0,-0.5 0,-29.5 302,-29.5 302,-0.5 0,-0.5"/>
<text text-anchor="middle" x="34" y="-11.3" font-family="Times,serif" font-size="14.00" fill="#0058ad">r 278 8</text>
<polyline fill="none" stroke="#0058ad" points="68,-0.5 68,-29.5 "/>
<text text-anchor="middle" x="106.5" y="-11.3" font-family="Times,serif" font-size="14.00" fill="#0058ad">r 283 nil</text>
<polyline fill="none" stroke="#0058ad" points="145,-0.5 145,-29.5 "/>
<text text-anchor="middle" x="186.5" y="-11.3" font-family="Times,serif" font-size="14.00" fill="#0058ad">w 250 11</text>
<polyline fill="none" stroke="#0058ad" points="228,-0.5 228,-29.5 "/>
<text text-anchor="middle" x="265" y="-11.3" font-family="Times,serif" font-size="14.00" fill="#0058ad">w 284 1</text>
</g>
<!-- T7292&#45;&gt;T7306 -->
<g id="edge2" class="edge">
<title>T7292:f1&#45;&gt;T7306:f1</title>
<path fill="none" stroke="#5b00c0" d="M106,-30C106,-66.22 103.07,-76.8 115,-111 122.5,-132.52 140.43,-134.97 145.59,-151.74"/>
<polygon fill="#5b00c0" stroke="#5b00c0" points="142.17,-152.57 147,-162 149.11,-151.62 142.17,-152.57"/>
<text text-anchor="middle" x="124.5" y="-92.3" font-family="Times,serif" font-size="14.00" fill="#5b00c0">rw</text>
</g>
<!-- T7292&#45;&gt;T7297 -->
<g id="edge3" class="edge">
<title>T7292:f1&#45;&gt;T7297:f2</title>
<path fill="none" stroke="#5b00c0" d="M106,-30C106,-57.23 197.39,-57.25 224,-63 246.1,-67.77 316.62,-58.21 336.02,-72.12"/>
<polygon fill="#5b00c0" stroke="#5b00c0" points="333.06,-73.99 341,-81 339.16,-70.57 333.06,-73.99"/>
<text text-anchor="middle" x="233.5" y="-51.8" font-family="Times,serif" font-size="14.00" fill="#5b00c0">rw</text>
</g>
<!-- T7299 -->
<g id="node3" class="node">
<title>T7299</title>
<polygon fill="none" stroke="#0058ad" points="320,-0.5 320,-29.5 622,-29.5 622,-0.5 320,-0.5"/>
<text text-anchor="middle" x="357" y="-11.3" font-family="Times,serif" font-size="14.00" fill="#0058ad">w 284 2</text>
<polyline fill="none" stroke="#0058ad" points="394,-0.5 394,-29.5 "/>
<text text-anchor="middle" x="432.5" y="-11.3" font-family="Times,serif" font-size="14.00" fill="#0058ad">r 283 nil</text>
<polyline fill="none" stroke="#0058ad" points="471,-0.5 471,-29.5 "/>
<text text-anchor="middle" x="509.5" y="-11.3" font-family="Times,serif" font-size="14.00" fill="#0058ad">r 269 nil</text>
<polyline fill="none" stroke="#0058ad" points="548,-0.5 548,-29.5 "/>
<text text-anchor="middle" x="585" y="-11.3" font-family="Times,serif" font-size="14.00" fill="#0058ad">w 284 3</text>
</g>
<!-- T7299&#45;&gt;T7306 -->
<g id="edge4" class="edge">
<title>T7299:f1&#45;&gt;T7306:f1</title>
<path fill="none" stroke="#5b00c0" d="M432,-30C432,-56.76 456.6,-55.28 464,-81 467.69,-93.81 472.65,-100.85 464,-111 420.17,-162.45 174.93,-98.17 149.19,-151.89"/>
<polygon fill="#5b00c0" stroke="#5b00c0" points="145.69,-151.49 147,-162 152.53,-152.97 145.69,-151.49"/>
<text text-anchor="middle" x="477.5" y="-92.3" font-family="Times,serif" font-size="14.00" fill="#5b00c0">rw</text>
</g>
<!-- T7299&#45;&gt;T7297 -->
<g id="edge5" class="edge">
<title>T7299:f1&#45;&gt;T7297:f2</title>
<path fill="none" stroke="#5b00c0" d="M432,-30C432,-49.92 364.79,-56.15 345.89,-72.22"/>
<polygon fill="#5b00c0" stroke="#5b00c0" points="342.81,-70.56 341,-81 348.92,-73.97 342.81,-70.56"/>
<text text-anchor="middle" x="416.5" y="-51.8" font-family="Times,serif" font-size="14.00" fill="#5b00c0">rw</text>
</g>
<!-- T7297&#45;&gt;T7292 -->
<g id="edge6" class="edge">
<title>T7297:f1&#45;&gt;T7292:f3</title>
<path fill="none" stroke="#5b00c0" d="M265,-81C265,-62.23 265,-55.12 265,-40.35"/>
<polygon fill="#5b00c0" stroke="#5b00c0" points="268.5,-40 265,-30 261.5,-40 268.5,-40"/>
<text text-anchor="middle" x="274.5" y="-51.8" font-family="Times,serif" font-size="14.00" fill="#5b00c0">rw</text>
</g>
<!-- T7297&#45;&gt;T7299 -->
<g id="edge7" class="edge">
<title>T7297:f1&#45;&gt;T7299:f3</title>
<path fill="none" stroke="#5b00c0" d="M265,-81C265,-71.69 332.96,-50.21 342,-48 365.42,-42.28 539.87,-53.95 577.76,-37.44"/>
<polygon fill="#5b00c0" stroke="#5b00c0" points="580.53,-39.61 585,-30 575.52,-34.72 580.53,-39.61"/>
<text text-anchor="middle" x="351.5" y="-51.8" font-family="Times,serif" font-size="14.00" fill="#5b00c0">rw</text>
</g>
</g>
</svg>
