<?xml version="1.0" encoding="UTF-8" standalone="no"?>
<!DOCTYPE svg PUBLIC "-//W3C//DTD SVG 1.1//EN"
 "http://www.w3.org/Graphics/SVG/1.1/DTD/svg11.dtd">
<!-- Generated by graphviz version 2.43.0 (0)
 -->
<!-- Title: a_graph Pages: 1 -->
<svg width="349pt" height="119pt"
 viewBox="0.00 0.00 348.50 119.00" xmlns="http://www.w3.org/2000/svg" xmlns:xlink="http://www.w3.org/1999/xlink">
<g id="graph0" class="graph" transform="scale(1 1) rotate(0) translate(4 115)">
<title>a_graph</title>
<polygon fill="white" stroke="transparent" points="-4,4 -4,-115 344.5,-115 344.5,4 -4,4"/>
<!-- T6717 -->
<g id="node1" class="node">
<title>T6717</title>
<polygon fill="none" stroke="#0058ad" points="0,-81.5 0,-110.5 311,-110.5 311,-81.5 0,-81.5"/>
<text text-anchor="middle" x="41.5" y="-92.3" font-family="Times,serif" font-size="14.00" fill="#0058ad">w 218 15</text>
<polyline fill="none" stroke="#0058ad" points="83,-81.5 83,-110.5 "/>
<text text-anchor="middle" x="121.5" y="-92.3" font-family="Times,serif" font-size="14.00" fill="#0058ad">r 261 nil</text>
<polyline fill="none" stroke="#0058ad" points="160,-81.5 160,-110.5 "/>
<text text-anchor="middle" x="198.5" y="-92.3" font-family="Times,serif" font-size="14.00" fill="#0058ad">r 261 nil</text>
<polyline fill="none" stroke="#0058ad" points="237,-81.5 237,-110.5 "/>
<text text-anchor="middle" x="274" y="-92.3" font-family="Times,serif" font-size="14.00" fill="#0058ad">w 261 1</text>
</g>
<!-- T6720 -->
<g id="node2" class="node">
<title>T6720</title>
<polygon fill="none" stroke="#0058ad" points="44.5,-0.5 44.5,-29.5 340.5,-29.5 340.5,-0.5 44.5,-0.5"/>
<text text-anchor="middle" x="83" y="-11.3" font-family="Times,serif" font-size="14.00" fill="#0058ad">r 250 nil</text>
<polyline fill="none" stroke="#0058ad" points="121.5,-0.5 121.5,-29.5 "/>
<text text-anchor="middle" x="160" y="-11.3" font-family="Times,serif" font-size="14.00" fill="#0058ad">r 261 nil</text>
<polyline fill="none" stroke="#0058ad" points="198.5,-0.5 198.5,-29.5 "/>
<text text-anchor="middle" x="235.5" y="-11.3" font-family="Times,serif" font-size="14.00" fill="#0058ad">w 261 2</text>
<polyline fill="none" stroke="#0058ad" points="272.5,-0.5 272.5,-29.5 "/>
<text text-anchor="middle" x="306.5" y="-11.3" font-family="Times,serif" font-size="14.00" fill="#0058ad">r 261 2</text>
</g>
<!-- T6717&#45;&gt;T6720 -->
<g id="edge1" class="edge">
<title>T6717:f1&#45;&gt;T6720:f2</title>
<path fill="none" stroke="#5b00c0" d="M121.5,-81C121.5,-69.29 202.66,-50.91 228.02,-37.12"/>
<polygon fill="#5b00c0" stroke="#5b00c0" points="230.67,-39.43 235.5,-30 225.84,-34.36 230.67,-39.43"/>
<text text-anchor="middle" x="209" y="-51.8" font-family="Times,serif" font-size="14.00" fill="#5b00c0">rw</text>
</g>
<!-- T6720&#45;&gt;T6717 -->
<g id="edge2" class="edge">
<title>T6720:f1&#45;&gt;T6717:f3</title>
<path fill="none" stroke="#5b00c0" d="M159.5,-30C159.5,-59.12 195.93,-36.08 222.5,-48 243.77,-57.54 266.52,-54.91 272.81,-70.83"/>
<polygon fill="#5b00c0" stroke="#5b00c0" points="269.41,-71.71 274.5,-81 276.31,-70.56 269.41,-71.71"/>
<text text-anchor="middle" x="275" y="-51.8" font-family="Times,serif" font-size="14.00" fill="#5b00c0">rw</text>
</g>
</g>
</svg>
