<?xml version="1.0" encoding="UTF-8" standalone="no"?>
<!DOCTYPE svg PUBLIC "-//W3C//DTD SVG 1.1//EN"
 "http://www.w3.org/Graphics/SVG/1.1/DTD/svg11.dtd">
<!-- Generated by graphviz version 2.43.0 (0)
 -->
<!-- Title: a_graph Pages: 1 -->
<svg width="683pt" height="362pt"
 viewBox="0.00 0.00 683.00 362.00" xmlns="http://www.w3.org/2000/svg" xmlns:xlink="http://www.w3.org/1999/xlink">
<g id="graph0" class="graph" transform="scale(1 1) rotate(0) translate(4 358)">
<title>a_graph</title>
<polygon fill="white" stroke="transparent" points="-4,4 -4,-358 679,-358 679,4 -4,4"/>
<!-- T10919 -->
<g id="node1" class="node">
<title>T10919</title>
<polygon fill="none" stroke="#0058ad" points="417.5,-324.5 417.5,-353.5 642.5,-353.5 642.5,-324.5 417.5,-324.5"/>
<text text-anchor="middle" x="456" y="-335.3" font-family="Times,serif" font-size="14.00" fill="#0058ad">r 425 nil</text>
<polyline fill="none" stroke="#0058ad" points="494.5,-324.5 494.5,-353.5 "/>
<text text-anchor="middle" x="531.5" y="-335.3" font-family="Times,serif" font-size="14.00" fill="#0058ad">w 425 1</text>
<polyline fill="none" stroke="#0058ad" points="568.5,-324.5 568.5,-353.5 "/>
<text text-anchor="middle" x="605.5" y="-335.3" font-family="Times,serif" font-size="14.00" fill="#0058ad">w 425 2</text>
</g>
<!-- T10922 -->
<g id="node2" class="node">
<title>T10922</title>
<polygon fill="none" stroke="#0058ad" points="73,-243.5 73,-272.5 289,-272.5 289,-243.5 73,-243.5"/>
<text text-anchor="middle" x="110" y="-254.3" font-family="Times,serif" font-size="14.00" fill="#0058ad">w 424 1</text>
<polyline fill="none" stroke="#0058ad" points="147,-243.5 147,-272.5 "/>
<text text-anchor="middle" x="184" y="-254.3" font-family="Times,serif" font-size="14.00" fill="#0058ad">w 425 3</text>
<polyline fill="none" stroke="#0058ad" points="221,-243.5 221,-272.5 "/>
<text text-anchor="middle" x="255" y="-254.3" font-family="Times,serif" font-size="14.00" fill="#0058ad">r 425 3</text>
</g>
<!-- T10919&#45;&gt;T10922 -->
<g id="edge2" class="edge">
<title>T10919:f0&#45;&gt;T10922:f1</title>
<path fill="none" stroke="#5b00c0" d="M416,-339C365.85,-339 206.48,-328.15 186.14,-282.86"/>
<polygon fill="#5b00c0" stroke="#5b00c0" points="189.54,-282.03 184,-273 182.7,-283.52 189.54,-282.03"/>
<text text-anchor="middle" x="219.5" y="-294.8" font-family="Times,serif" font-size="14.00" fill="#5b00c0">rw</text>
</g>
<!-- T10943 -->
<g id="node6" class="node">
<title>T10943</title>
<polygon fill="none" stroke="#0058ad" points="322,-0.5 322,-29.5 624,-29.5 624,-0.5 322,-0.5"/>
<text text-anchor="middle" x="360.5" y="-11.3" font-family="Times,serif" font-size="14.00" fill="#0058ad">r 425 nil</text>
<polyline fill="none" stroke="#0058ad" points="399,-0.5 399,-29.5 "/>
<text text-anchor="middle" x="436" y="-11.3" font-family="Times,serif" font-size="14.00" fill="#0058ad">w 420 2</text>
<polyline fill="none" stroke="#0058ad" points="473,-0.5 473,-29.5 "/>
<text text-anchor="middle" x="511.5" y="-11.3" font-family="Times,serif" font-size="14.00" fill="#0058ad">r 425 nil</text>
<polyline fill="none" stroke="#0058ad" points="550,-0.5 550,-29.5 "/>
<text text-anchor="middle" x="587" y="-11.3" font-family="Times,serif" font-size="14.00" fill="#0058ad">w 425 5</text>
</g>
<!-- T10919&#45;&gt;T10943 -->
<g id="edge1" class="edge">
<title>T10919:f0&#45;&gt;T10943:f3</title>
<path fill="none" stroke="#5b00c0" d="M456,-324C456,-294.62 564.7,-325.13 587,-306 603.54,-291.81 601,-280.8 601,-259 601,-259 601,-259 601,-95 601,-69.14 590.28,-61.4 587.6,-40.07"/>
<polygon fill="#5b00c0" stroke="#5b00c0" points="591.09,-39.77 587,-30 584.1,-40.19 591.09,-39.77"/>
<text text-anchor="middle" x="610.5" y="-173.3" font-family="Times,serif" font-size="14.00" fill="#5b00c0">rw</text>
</g>
<!-- T10925 -->
<g id="node4" class="node">
<title>T10925</title>
<polygon fill="none" stroke="#0058ad" points="221.5,-162.5 221.5,-191.5 526.5,-191.5 526.5,-162.5 221.5,-162.5"/>
<text text-anchor="middle" x="260" y="-173.3" font-family="Times,serif" font-size="14.00" fill="#0058ad">r 426 nil</text>
<polyline fill="none" stroke="#0058ad" points="298.5,-162.5 298.5,-191.5 "/>
<text text-anchor="middle" x="337" y="-173.3" font-family="Times,serif" font-size="14.00" fill="#0058ad">r 426 nil</text>
<polyline fill="none" stroke="#0058ad" points="375.5,-162.5 375.5,-191.5 "/>
<text text-anchor="middle" x="409.5" y="-173.3" font-family="Times,serif" font-size="14.00" fill="#0058ad">r 425 3</text>
<polyline fill="none" stroke="#0058ad" points="443.5,-162.5 443.5,-191.5 "/>
<text text-anchor="middle" x="485" y="-173.3" font-family="Times,serif" font-size="14.00" fill="#0058ad">w 418 16</text>
</g>
<!-- T10922&#45;&gt;T10925 -->
<g id="edge3" class="edge">
<title>T10922:f1&#45;&gt;T10925:f2</title>
<path fill="none" stroke="#c000a5" d="M184,-243C184,-195.34 377.7,-236.34 406.45,-201.84"/>
<polygon fill="#c000a5" stroke="#c000a5" points="409.9,-202.59 410,-192 403.31,-200.22 409.9,-202.59"/>
<text text-anchor="middle" x="399.5" y="-213.8" font-family="Times,serif" font-size="14.00" fill="#c000a5">wr</text>
</g>
<!-- T10923 -->
<g id="node3" class="node">
<title>T10923</title>
<polygon fill="none" stroke="#0058ad" points="277,-81.5 277,-110.5 573,-110.5 573,-81.5 277,-81.5"/>
<text text-anchor="middle" x="315.5" y="-92.3" font-family="Times,serif" font-size="14.00" fill="#0058ad">r 425 nil</text>
<polyline fill="none" stroke="#0058ad" points="354,-81.5 354,-110.5 "/>
<text text-anchor="middle" x="391" y="-92.3" font-family="Times,serif" font-size="14.00" fill="#0058ad">w 426 1</text>
<polyline fill="none" stroke="#0058ad" points="428,-81.5 428,-110.5 "/>
<text text-anchor="middle" x="466.5" y="-92.3" font-family="Times,serif" font-size="14.00" fill="#0058ad">r 425 nil</text>
<polyline fill="none" stroke="#0058ad" points="505,-81.5 505,-110.5 "/>
<text text-anchor="middle" x="539" y="-92.3" font-family="Times,serif" font-size="14.00" fill="#0058ad">r 426 1</text>
</g>
<!-- T10923&#45;&gt;T10919 -->
<g id="edge4" class="edge">
<title>T10923:f0&#45;&gt;T10919:f2</title>
<path fill="none" stroke="#5b00c0" d="M315,-111C315,-211.8 460.79,-94.88 536,-162 586.66,-207.21 550,-249.07 587,-306 590.67,-311.64 596.44,-312.89 600.67,-315.18"/>
<polygon fill="#5b00c0" stroke="#5b00c0" points="597.83,-317.26 606,-324 603.82,-313.63 597.83,-317.26"/>
<text text-anchor="middle" x="575.5" y="-213.8" font-family="Times,serif" font-size="14.00" fill="#5b00c0">rw</text>
</g>
<!-- T10923&#45;&gt;T10922 -->
<g id="edge7" class="edge">
<title>T10923:f0&#45;&gt;T10922:f1</title>
<path fill="none" stroke="#5b00c0" d="M276,-96C202.39,-96 185.47,-159.79 184.09,-232.66"/>
<polygon fill="#5b00c0" stroke="#5b00c0" points="180.59,-232.97 184,-243 187.59,-233.03 180.59,-232.97"/>
<text text-anchor="middle" x="202.5" y="-173.3" font-family="Times,serif" font-size="14.00" fill="#5b00c0">rw</text>
</g>
<!-- T10927 -->
<g id="node5" class="node">
<title>T10927</title>
<polygon fill="none" stroke="#0058ad" points="0,-0.5 0,-29.5 290,-29.5 290,-0.5 0,-0.5"/>
<text text-anchor="middle" x="34" y="-11.3" font-family="Times,serif" font-size="14.00" fill="#0058ad">r 426 1</text>
<polyline fill="none" stroke="#0058ad" points="68,-0.5 68,-29.5 "/>
<text text-anchor="middle" x="106.5" y="-11.3" font-family="Times,serif" font-size="14.00" fill="#0058ad">r 424 nil</text>
<polyline fill="none" stroke="#0058ad" points="145,-0.5 145,-29.5 "/>
<text text-anchor="middle" x="183.5" y="-11.3" font-family="Times,serif" font-size="14.00" fill="#0058ad">r 424 nil</text>
<polyline fill="none" stroke="#0058ad" points="222,-0.5 222,-29.5 "/>
<text text-anchor="middle" x="256" y="-11.3" font-family="Times,serif" font-size="14.00" fill="#0058ad">r 426 1</text>
</g>
<!-- T10923&#45;&gt;T10927 -->
<g id="edge6" class="edge">
<title>T10923:f1&#45;&gt;T10927:f0</title>
<path fill="none" stroke="#c000a5" d="M391,-81C391,-44.06 87.6,-65.94 40.2,-38.19"/>
<polygon fill="#c000a5" stroke="#c000a5" points="42.82,-35.86 34,-30 37.24,-40.09 42.82,-35.86"/>
<text text-anchor="middle" x="348.5" y="-51.8" font-family="Times,serif" font-size="14.00" fill="#c000a5">wr</text>
</g>
<!-- T10923&#45;&gt;T10943 -->
<g id="edge5" class="edge">
<title>T10923:f0&#45;&gt;T10943:f3</title>
<path fill="none" stroke="#5b00c0" d="M315,-81C315,-53.13 538.39,-59.14 580.28,-37.63"/>
<polygon fill="#5b00c0" stroke="#5b00c0" points="583.01,-39.82 587,-30 577.76,-35.19 583.01,-39.82"/>
<text text-anchor="middle" x="537.5" y="-51.8" font-family="Times,serif" font-size="14.00" fill="#5b00c0">rw</text>
</g>
<!-- T10925&#45;&gt;T10923 -->
<g id="edge8" class="edge">
<title>T10925:f0&#45;&gt;T10923:f1</title>
<path fill="none" stroke="#5b00c0" d="M260,-162C260,-103.3 375.62,-165.02 389.62,-120.91"/>
<polygon fill="#5b00c0" stroke="#5b00c0" points="393.08,-121.39 391,-111 386.15,-120.42 393.08,-121.39"/>
<text text-anchor="middle" x="393.5" y="-132.8" font-family="Times,serif" font-size="14.00" fill="#5b00c0">rw</text>
</g>
<!-- T10927&#45;&gt;T10922 -->
<g id="edge9" class="edge">
<title>T10927:f1&#45;&gt;T10922:f0</title>
<path fill="none" stroke="#5b00c0" d="M106,-30C106,-80.82 93.68,-93.28 97,-144 99.66,-184.65 108.39,-196.7 109.81,-232.73"/>
<polygon fill="#5b00c0" stroke="#5b00c0" points="106.31,-233.07 110,-243 113.31,-232.94 106.31,-233.07"/>
<text text-anchor="middle" x="106.5" y="-132.8" font-family="Times,serif" font-size="14.00" fill="#5b00c0">rw</text>
</g>
<!-- T10943&#45;&gt;T10919 -->
<g id="edge10" class="edge">
<title>T10943:f0&#45;&gt;T10919:f2</title>
<path fill="none" stroke="#5b00c0" d="M360,-30C360,-57.3 579.96,-37.15 605,-48 633.28,-60.26 656,-64.18 656,-95 656,-259 656,-259 656,-259 656,-290.88 674.83,-329.12 654.03,-337.38"/>
<polygon fill="#5b00c0" stroke="#5b00c0" points="653.31,-333.95 644,-339 654.43,-340.86 653.31,-333.95"/>
<text text-anchor="middle" x="665.5" y="-173.3" font-family="Times,serif" font-size="14.00" fill="#5b00c0">rw</text>
</g>
<!-- T10943&#45;&gt;T10922 -->
<g id="edge11" class="edge">
<title>T10943:f0&#45;&gt;T10922:f1</title>
<path fill="none" stroke="#5b00c0" d="M321,-15C315.92,-15 180.2,-124.42 178,-129 159.48,-167.46 176.69,-182.53 181,-225 181.36,-228.53 181.98,-230.86 182.56,-233.05"/>
<polygon fill="#5b00c0" stroke="#5b00c0" points="179.1,-233.6 184,-243 186.03,-232.6 179.1,-233.6"/>
<text text-anchor="middle" x="187.5" y="-132.8" font-family="Times,serif" font-size="14.00" fill="#5b00c0">rw</text>
</g>
</g>
</svg>
