<?xml version="1.0" encoding="UTF-8" standalone="no"?>
<!DOCTYPE svg PUBLIC "-//W3C//DTD SVG 1.1//EN"
 "http://www.w3.org/Graphics/SVG/1.1/DTD/svg11.dtd">
<!-- Generated by graphviz version 2.43.0 (0)
 -->
<!-- Title: a_graph Pages: 1 -->
<svg width="422pt" height="281pt"
 viewBox="0.00 0.00 422.00 281.00" xmlns="http://www.w3.org/2000/svg" xmlns:xlink="http://www.w3.org/1999/xlink">
<g id="graph0" class="graph" transform="scale(1 1) rotate(0) translate(4 277)">
<title>a_graph</title>
<polygon fill="white" stroke="transparent" points="-4,4 -4,-277 418,-277 418,4 -4,4"/>
<!-- T9053 -->
<g id="node1" class="node">
<title>T9053</title>
<polygon fill="none" stroke="#0058ad" points="0,-243.5 0,-272.5 219,-272.5 219,-243.5 0,-243.5"/>
<text text-anchor="middle" x="38.5" y="-254.3" font-family="Times,serif" font-size="14.00" fill="#0058ad">r 352 nil</text>
<polyline fill="none" stroke="#0058ad" points="77,-243.5 77,-272.5 "/>
<text text-anchor="middle" x="111" y="-254.3" font-family="Times,serif" font-size="14.00" fill="#0058ad">r 353 2</text>
<polyline fill="none" stroke="#0058ad" points="145,-243.5 145,-272.5 "/>
<text text-anchor="middle" x="182" y="-254.3" font-family="Times,serif" font-size="14.00" fill="#0058ad">w 353 4</text>
</g>
<!-- T9057 -->
<g id="node4" class="node">
<title>T9057</title>
<polygon fill="none" stroke="#0058ad" points="195,-162.5 195,-191.5 414,-191.5 414,-162.5 195,-162.5"/>
<text text-anchor="middle" x="229" y="-173.3" font-family="Times,serif" font-size="14.00" fill="#0058ad">r 353 4</text>
<polyline fill="none" stroke="#0058ad" points="263,-162.5 263,-191.5 "/>
<text text-anchor="middle" x="300" y="-173.3" font-family="Times,serif" font-size="14.00" fill="#0058ad">w 353 5</text>
<polyline fill="none" stroke="#0058ad" points="337,-162.5 337,-191.5 "/>
<text text-anchor="middle" x="375.5" y="-173.3" font-family="Times,serif" font-size="14.00" fill="#0058ad">r 351 nil</text>
</g>
<!-- T9053&#45;&gt;T9057 -->
<g id="edge1" class="edge">
<title>T9053:f2&#45;&gt;T9057:f0</title>
<path fill="none" stroke="#c000a5" d="M182.5,-243C182.5,-216.53 217.09,-220.57 226.28,-202.21"/>
<polygon fill="#c000a5" stroke="#c000a5" points="229.8,-202.52 228.5,-192 222.96,-201.03 229.8,-202.52"/>
<text text-anchor="middle" x="229" y="-213.8" font-family="Times,serif" font-size="14.00" fill="#c000a5">wr</text>
</g>
<!-- T9048 -->
<g id="node2" class="node">
<title>T9048</title>
<polygon fill="none" stroke="#0058ad" points="92,-0.5 92,-29.5 385,-29.5 385,-0.5 92,-0.5"/>
<text text-anchor="middle" x="130.5" y="-11.3" font-family="Times,serif" font-size="14.00" fill="#0058ad">r 351 nil</text>
<polyline fill="none" stroke="#0058ad" points="169,-0.5 169,-29.5 "/>
<text text-anchor="middle" x="206" y="-11.3" font-family="Times,serif" font-size="14.00" fill="#0058ad">w 353 1</text>
<polyline fill="none" stroke="#0058ad" points="243,-0.5 243,-29.5 "/>
<text text-anchor="middle" x="280" y="-11.3" font-family="Times,serif" font-size="14.00" fill="#0058ad">w 353 2</text>
<polyline fill="none" stroke="#0058ad" points="317,-0.5 317,-29.5 "/>
<text text-anchor="middle" x="351" y="-11.3" font-family="Times,serif" font-size="14.00" fill="#0058ad">r 353 2</text>
</g>
<!-- T9048&#45;&gt;T9053 -->
<g id="edge2" class="edge">
<title>T9048:f2&#45;&gt;T9053:f1</title>
<path fill="none" stroke="#c000a5" d="M280.5,-30C280.5,-61.24 169.98,-57.41 149.5,-81 103.29,-134.23 110.65,-165.97 111.44,-232.87"/>
<polygon fill="#c000a5" stroke="#c000a5" points="107.94,-233.02 111.5,-243 114.94,-232.98 107.94,-233.02"/>
<text text-anchor="middle" x="129" y="-132.8" font-family="Times,serif" font-size="14.00" fill="#c000a5">wr</text>
</g>
<!-- T9047 -->
<g id="node3" class="node">
<title>T9047</title>
<polygon fill="none" stroke="#0058ad" points="158.5,-81.5 158.5,-110.5 392.5,-110.5 392.5,-81.5 158.5,-81.5"/>
<text text-anchor="middle" x="200" y="-92.3" font-family="Times,serif" font-size="14.00" fill="#0058ad">w 244 12</text>
<polyline fill="none" stroke="#0058ad" points="241.5,-81.5 241.5,-110.5 "/>
<text text-anchor="middle" x="280" y="-92.3" font-family="Times,serif" font-size="14.00" fill="#0058ad">r 353 nil</text>
<polyline fill="none" stroke="#0058ad" points="318.5,-81.5 318.5,-110.5 "/>
<text text-anchor="middle" x="355.5" y="-92.3" font-family="Times,serif" font-size="14.00" fill="#0058ad">w 351 2</text>
</g>
<!-- T9048&#45;&gt;T9047 -->
<g id="edge3" class="edge">
<title>T9048:f0&#45;&gt;T9047:f2</title>
<path fill="none" stroke="#5b00c0" d="M130.5,-30C130.5,-49.33 285.25,-41.65 303.5,-48 325.52,-55.65 347.74,-54.35 353.86,-70.7"/>
<polygon fill="#5b00c0" stroke="#5b00c0" points="350.47,-71.68 355.5,-81 357.38,-70.57 350.47,-71.68"/>
<text text-anchor="middle" x="357" y="-51.8" font-family="Times,serif" font-size="14.00" fill="#5b00c0">rw</text>
</g>
<!-- T9047&#45;&gt;T9053 -->
<g id="edge6" class="edge">
<title>T9047:f1&#45;&gt;T9053:f2</title>
<path fill="none" stroke="#5b00c0" d="M280.5,-111C280.5,-166.51 196.69,-115.42 166.5,-162 148.49,-189.79 176.01,-203.5 181.56,-232.87"/>
<polygon fill="#5b00c0" stroke="#5b00c0" points="178.09,-233.37 182.5,-243 185.06,-232.72 178.09,-233.37"/>
<text text-anchor="middle" x="176" y="-173.3" font-family="Times,serif" font-size="14.00" fill="#5b00c0">rw</text>
</g>
<!-- T9047&#45;&gt;T9048 -->
<g id="edge5" class="edge">
<title>T9047:f1&#45;&gt;T9048:f2</title>
<path fill="none" stroke="#5b00c0" d="M280.5,-81C280.5,-62.23 280.5,-55.12 280.5,-40.35"/>
<polygon fill="#5b00c0" stroke="#5b00c0" points="284,-40 280.5,-30 277,-40 284,-40"/>
<text text-anchor="middle" x="290" y="-51.8" font-family="Times,serif" font-size="14.00" fill="#5b00c0">rw</text>
</g>
<!-- T9047&#45;&gt;T9057 -->
<g id="edge4" class="edge">
<title>T9047:f1&#45;&gt;T9057:f1</title>
<path fill="none" stroke="#5b00c0" d="M280.5,-111C280.5,-131.41 294.03,-136.47 298.25,-152.08"/>
<polygon fill="#5b00c0" stroke="#5b00c0" points="294.78,-152.51 299.5,-162 301.73,-151.64 294.78,-152.51"/>
<text text-anchor="middle" x="304" y="-132.8" font-family="Times,serif" font-size="14.00" fill="#5b00c0">rw</text>
</g>
<!-- T9057&#45;&gt;T9047 -->
<g id="edge7" class="edge">
<title>T9057:f2&#45;&gt;T9047:f2</title>
<path fill="none" stroke="#5b00c0" d="M375.5,-162C375.5,-141.46 361.26,-136.61 356.81,-120.97"/>
<polygon fill="#5b00c0" stroke="#5b00c0" points="360.28,-120.46 355.5,-111 353.34,-121.37 360.28,-120.46"/>
<text text-anchor="middle" x="380" y="-132.8" font-family="Times,serif" font-size="14.00" fill="#5b00c0">rw</text>
</g>
</g>
</svg>
