<?xml version="1.0" encoding="UTF-8" standalone="no"?>
<!DOCTYPE svg PUBLIC "-//W3C//DTD SVG 1.1//EN"
 "http://www.w3.org/Graphics/SVG/1.1/DTD/svg11.dtd">
<!-- Generated by graphviz version 2.43.0 (0)
 -->
<!-- Title: a_graph Pages: 1 -->
<svg width="378pt" height="119pt"
 viewBox="0.00 0.00 377.50 119.00" xmlns="http://www.w3.org/2000/svg" xmlns:xlink="http://www.w3.org/1999/xlink">
<g id="graph0" class="graph" transform="scale(1 1) rotate(0) translate(4 115)">
<title>a_graph</title>
<polygon fill="white" stroke="transparent" points="-4,4 -4,-115 373.5,-115 373.5,4 -4,4"/>
<!-- T20909 -->
<g id="node1" class="node">
<title>T20909</title>
<polygon fill="none" stroke="#0058ad" points="76.5,-81.5 76.5,-110.5 369.5,-110.5 369.5,-81.5 76.5,-81.5"/>
<text text-anchor="middle" x="113.5" y="-92.3" font-family="Times,serif" font-size="14.00" fill="#0058ad">w 801 4</text>
<polyline fill="none" stroke="#0058ad" points="150.5,-81.5 150.5,-110.5 "/>
<text text-anchor="middle" x="189" y="-92.3" font-family="Times,serif" font-size="14.00" fill="#0058ad">r 802 nil</text>
<polyline fill="none" stroke="#0058ad" points="227.5,-81.5 227.5,-110.5 "/>
<text text-anchor="middle" x="264.5" y="-92.3" font-family="Times,serif" font-size="14.00" fill="#0058ad">w 802 1</text>
<polyline fill="none" stroke="#0058ad" points="301.5,-81.5 301.5,-110.5 "/>
<text text-anchor="middle" x="335.5" y="-92.3" font-family="Times,serif" font-size="14.00" fill="#0058ad">r 802 1</text>
</g>
<!-- T20933 -->
<g id="node2" class="node">
<title>T20933</title>
<polygon fill="none" stroke="#0058ad" points="0,-0.5 0,-29.5 302,-29.5 302,-0.5 0,-0.5"/>
<text text-anchor="middle" x="38.5" y="-11.3" font-family="Times,serif" font-size="14.00" fill="#0058ad">r 788 11</text>
<polyline fill="none" stroke="#0058ad" points="77,-0.5 77,-29.5 "/>
<text text-anchor="middle" x="114" y="-11.3" font-family="Times,serif" font-size="14.00" fill="#0058ad">w 801 9</text>
<polyline fill="none" stroke="#0058ad" points="151,-0.5 151,-29.5 "/>
<text text-anchor="middle" x="189.5" y="-11.3" font-family="Times,serif" font-size="14.00" fill="#0058ad">r 802 nil</text>
<polyline fill="none" stroke="#0058ad" points="228,-0.5 228,-29.5 "/>
<text text-anchor="middle" x="265" y="-11.3" font-family="Times,serif" font-size="14.00" fill="#0058ad">w 802 6</text>
</g>
<!-- T20909&#45;&gt;T20933 -->
<g id="edge1" class="edge">
<title>T20909:f1&#45;&gt;T20933:f3</title>
<path fill="none" stroke="#5b00c0" d="M189,-81C189,-62.05 200.56,-58.99 216,-48 231.06,-37.28 253.23,-46.95 261.62,-39.58"/>
<polygon fill="#5b00c0" stroke="#5b00c0" points="264.97,-40.59 265,-30 258.37,-38.27 264.97,-40.59"/>
<text text-anchor="middle" x="225.5" y="-51.8" font-family="Times,serif" font-size="14.00" fill="#5b00c0">rw</text>
</g>
<!-- T20933&#45;&gt;T20909 -->
<g id="edge2" class="edge">
<title>T20933:f2&#45;&gt;T20909:f2</title>
<path fill="none" stroke="#5b00c0" d="M190,-30C190,-51.54 217.3,-35.72 235,-48 247.98,-57.01 259.32,-60.03 263.4,-70.91"/>
<polygon fill="#5b00c0" stroke="#5b00c0" points="259.97,-71.67 265,-81 266.89,-70.57 259.97,-71.67"/>
<text text-anchor="middle" x="266.5" y="-51.8" font-family="Times,serif" font-size="14.00" fill="#5b00c0">rw</text>
</g>
</g>
</svg>
