<?xml version="1.0" encoding="UTF-8" standalone="no"?>
<!DOCTYPE svg PUBLIC "-//W3C//DTD SVG 1.1//EN"
 "http://www.w3.org/Graphics/SVG/1.1/DTD/svg11.dtd">
<!-- Generated by graphviz version 2.43.0 (0)
 -->
<!-- Title: a_graph Pages: 1 -->
<svg width="587pt" height="524pt"
 viewBox="0.00 0.00 587.00 524.00" xmlns="http://www.w3.org/2000/svg" xmlns:xlink="http://www.w3.org/1999/xlink">
<g id="graph0" class="graph" transform="scale(1 1) rotate(0) translate(4 520)">
<title>a_graph</title>
<polygon fill="white" stroke="transparent" points="-4,4 -4,-520 583,-520 583,4 -4,4"/>
<!-- T10577 -->
<g id="node1" class="node">
<title>T10577</title>
<polygon fill="none" stroke="#0058ad" points="150.5,-486.5 150.5,-515.5 455.5,-515.5 455.5,-486.5 150.5,-486.5"/>
<text text-anchor="middle" x="189" y="-497.3" font-family="Times,serif" font-size="14.00" fill="#0058ad">r 414 nil</text>
<polyline fill="none" stroke="#0058ad" points="227.5,-486.5 227.5,-515.5 "/>
<text text-anchor="middle" x="264.5" y="-497.3" font-family="Times,serif" font-size="14.00" fill="#0058ad">w 397 2</text>
<polyline fill="none" stroke="#0058ad" points="301.5,-486.5 301.5,-515.5 "/>
<text text-anchor="middle" x="340" y="-497.3" font-family="Times,serif" font-size="14.00" fill="#0058ad">r 413 nil</text>
<polyline fill="none" stroke="#0058ad" points="378.5,-486.5 378.5,-515.5 "/>
<text text-anchor="middle" x="417" y="-497.3" font-family="Times,serif" font-size="14.00" fill="#0058ad">r 412 nil</text>
</g>
<!-- T10576 -->
<g id="node2" class="node">
<title>T10576</title>
<polygon fill="none" stroke="#0058ad" points="234,-405.5 234,-434.5 468,-434.5 468,-405.5 234,-405.5"/>
<text text-anchor="middle" x="275.5" y="-416.3" font-family="Times,serif" font-size="14.00" fill="#0058ad">w 411 16</text>
<polyline fill="none" stroke="#0058ad" points="317,-405.5 317,-434.5 "/>
<text text-anchor="middle" x="354" y="-416.3" font-family="Times,serif" font-size="14.00" fill="#0058ad">w 412 1</text>
<polyline fill="none" stroke="#0058ad" points="391,-405.5 391,-434.5 "/>
<text text-anchor="middle" x="429.5" y="-416.3" font-family="Times,serif" font-size="14.00" fill="#0058ad">r 403 nil</text>
</g>
<!-- T10577&#45;&gt;T10576 -->
<g id="edge1" class="edge">
<title>T10577:f3&#45;&gt;T10576:f1</title>
<path fill="none" stroke="#5b00c0" d="M417,-486C417,-453.92 367.03,-467.1 356.1,-444.92"/>
<polygon fill="#5b00c0" stroke="#5b00c0" points="359.49,-444.06 354,-435 352.64,-445.51 359.49,-444.06"/>
<text text-anchor="middle" x="415.5" y="-456.8" font-family="Times,serif" font-size="14.00" fill="#5b00c0">rw</text>
</g>
<!-- T10625 -->
<g id="node3" class="node">
<title>T10625</title>
<polygon fill="none" stroke="#0058ad" points="55.5,-81.5 55.5,-110.5 212.5,-110.5 212.5,-81.5 55.5,-81.5"/>
<text text-anchor="middle" x="97" y="-92.3" font-family="Times,serif" font-size="14.00" fill="#0058ad">w 414 15</text>
<polyline fill="none" stroke="#0058ad" points="138.5,-81.5 138.5,-110.5 "/>
<text text-anchor="middle" x="175.5" y="-92.3" font-family="Times,serif" font-size="14.00" fill="#0058ad">w 412 3</text>
</g>
<!-- T10577&#45;&gt;T10625 -->
<g id="edge2" class="edge">
<title>T10577:f0&#45;&gt;T10625:f0</title>
<path fill="none" stroke="#5b00c0" d="M149,-501C73.84,-501 0,-496.16 0,-421 0,-421 0,-421 0,-176 0,-136.79 9.28,-102.42 43.63,-96.8"/>
<polygon fill="#5b00c0" stroke="#5b00c0" points="44.3,-100.26 54,-96 43.76,-93.28 44.3,-100.26"/>
<text text-anchor="middle" x="9.5" y="-294.8" font-family="Times,serif" font-size="14.00" fill="#5b00c0">rw</text>
</g>
<!-- T10597 -->
<g id="node4" class="node">
<title>T10597</title>
<polygon fill="none" stroke="#0058ad" points="66.5,-243.5 66.5,-272.5 291.5,-272.5 291.5,-243.5 66.5,-243.5"/>
<text text-anchor="middle" x="103.5" y="-254.3" font-family="Times,serif" font-size="14.00" fill="#0058ad">w 414 7</text>
<polyline fill="none" stroke="#0058ad" points="140.5,-243.5 140.5,-272.5 "/>
<text text-anchor="middle" x="179" y="-254.3" font-family="Times,serif" font-size="14.00" fill="#0058ad">r 412 nil</text>
<polyline fill="none" stroke="#0058ad" points="217.5,-243.5 217.5,-272.5 "/>
<text text-anchor="middle" x="254.5" y="-254.3" font-family="Times,serif" font-size="14.00" fill="#0058ad">w 414 8</text>
</g>
<!-- T10577&#45;&gt;T10597 -->
<g id="edge3" class="edge">
<title>T10577:f0&#45;&gt;T10597:f2</title>
<path fill="none" stroke="#5b00c0" d="M189,-486C189,-413.51 177.73,-389.87 208,-324 219.26,-299.49 246.8,-302.43 253.51,-282.89"/>
<polygon fill="#5b00c0" stroke="#5b00c0" points="256.97,-283.41 255,-273 250.05,-282.37 256.97,-283.41"/>
<text text-anchor="middle" x="200.5" y="-375.8" font-family="Times,serif" font-size="14.00" fill="#5b00c0">rw</text>
</g>
<!-- T10603 -->
<g id="node6" class="node">
<title>T10603</title>
<polygon fill="none" stroke="#0058ad" points="213,-162.5 213,-191.5 509,-191.5 509,-162.5 213,-162.5"/>
<text text-anchor="middle" x="247" y="-173.3" font-family="Times,serif" font-size="14.00" fill="#0058ad">r 414 8</text>
<polyline fill="none" stroke="#0058ad" points="281,-162.5 281,-191.5 "/>
<text text-anchor="middle" x="315" y="-173.3" font-family="Times,serif" font-size="14.00" fill="#0058ad">r 414 8</text>
<polyline fill="none" stroke="#0058ad" points="349,-162.5 349,-191.5 "/>
<text text-anchor="middle" x="390.5" y="-173.3" font-family="Times,serif" font-size="14.00" fill="#0058ad">w 414 10</text>
<polyline fill="none" stroke="#0058ad" points="432,-162.5 432,-191.5 "/>
<text text-anchor="middle" x="470.5" y="-173.3" font-family="Times,serif" font-size="14.00" fill="#0058ad">r 412 nil</text>
</g>
<!-- T10577&#45;&gt;T10603 -->
<g id="edge4" class="edge">
<title>T10577:f0&#45;&gt;T10603:f2</title>
<path fill="none" stroke="#5b00c0" d="M189,-486C189,-459.26 403.39,-475.71 429,-468 469.96,-455.66 513,-463.78 513,-421 513,-421 513,-421 513,-257 513,-232.69 504.91,-223.96 485,-210 470.58,-199.89 415.58,-208.77 397.1,-200.04"/>
<polygon fill="#5b00c0" stroke="#5b00c0" points="399.83,-197.85 391,-192 394.26,-202.08 399.83,-197.85"/>
<text text-anchor="middle" x="522.5" y="-335.3" font-family="Times,serif" font-size="14.00" fill="#5b00c0">rw</text>
</g>
<!-- T10581 -->
<g id="node7" class="node">
<title>T10581</title>
<polygon fill="none" stroke="#0058ad" points="217,-324.5 217,-353.5 439,-353.5 439,-324.5 217,-324.5"/>
<text text-anchor="middle" x="255.5" y="-335.3" font-family="Times,serif" font-size="14.00" fill="#0058ad">r 414 nil</text>
<polyline fill="none" stroke="#0058ad" points="294,-324.5 294,-353.5 "/>
<text text-anchor="middle" x="328" y="-335.3" font-family="Times,serif" font-size="14.00" fill="#0058ad">r 412 1</text>
<polyline fill="none" stroke="#0058ad" points="362,-324.5 362,-353.5 "/>
<text text-anchor="middle" x="400.5" y="-335.3" font-family="Times,serif" font-size="14.00" fill="#0058ad">r 414 nil</text>
</g>
<!-- T10576&#45;&gt;T10581 -->
<g id="edge5" class="edge">
<title>T10576:f1&#45;&gt;T10581:f1</title>
<path fill="none" stroke="#c000a5" d="M354,-405C354,-383.53 335.49,-380.1 329.71,-364.26"/>
<polygon fill="#c000a5" stroke="#c000a5" points="333.09,-363.29 328,-354 326.19,-364.44 333.09,-363.29"/>
<text text-anchor="middle" x="356.5" y="-375.8" font-family="Times,serif" font-size="14.00" fill="#c000a5">wr</text>
</g>
<!-- T10629 -->
<g id="node5" class="node">
<title>T10629</title>
<polygon fill="none" stroke="#0058ad" points="345,-0.5 345,-29.5 499,-29.5 499,-0.5 345,-0.5"/>
<text text-anchor="middle" x="383.5" y="-11.3" font-family="Times,serif" font-size="14.00" fill="#0058ad">r 414 15</text>
<polyline fill="none" stroke="#0058ad" points="422,-0.5 422,-29.5 "/>
<text text-anchor="middle" x="460.5" y="-11.3" font-family="Times,serif" font-size="14.00" fill="#0058ad">r 397 nil</text>
</g>
<!-- T10625&#45;&gt;T10629 -->
<g id="edge6" class="edge">
<title>T10625:f0&#45;&gt;T10629:f0</title>
<path fill="none" stroke="#c000a5" d="M97,-81C97,-27.18 267.66,-16.1 333.95,-15.08"/>
<polygon fill="#c000a5" stroke="#c000a5" points="334.03,-18.58 344,-15 333.97,-11.58 334.03,-18.58"/>
<text text-anchor="middle" x="131.5" y="-51.8" font-family="Times,serif" font-size="14.00" fill="#c000a5">wr</text>
</g>
<!-- T10597&#45;&gt;T10576 -->
<g id="edge7" class="edge">
<title>T10597:f1&#45;&gt;T10576:f1</title>
<path fill="none" stroke="#5b00c0" d="M179,-273C179,-281.2 176.29,-282.91 175,-291 169.29,-326.72 168.78,-335.87 167,-372 166.67,-378.66 162.52,-382.07 167,-387 192.44,-415 325.35,-372.75 350.05,-395.65"/>
<polygon fill="#5b00c0" stroke="#5b00c0" points="346.88,-397.15 354,-405 353.33,-394.43 346.88,-397.15"/>
<text text-anchor="middle" x="179.5" y="-335.3" font-family="Times,serif" font-size="14.00" fill="#5b00c0">rw</text>
</g>
<!-- T10597&#45;&gt;T10625 -->
<g id="edge8" class="edge">
<title>T10597:f1&#45;&gt;T10625:f1</title>
<path fill="none" stroke="#5b00c0" d="M179,-243C179,-187.87 176.35,-171.62 176.03,-121.19"/>
<polygon fill="#5b00c0" stroke="#5b00c0" points="179.53,-120.99 176,-111 172.53,-121.01 179.53,-120.99"/>
<text text-anchor="middle" x="187.5" y="-173.3" font-family="Times,serif" font-size="14.00" fill="#5b00c0">rw</text>
</g>
<!-- T10597&#45;&gt;T10603 -->
<g id="edge9" class="edge">
<title>T10597:f2&#45;&gt;T10603:f0</title>
<path fill="none" stroke="#c000a5" d="M255,-243C255,-223.82 249.41,-217.1 247.58,-202.01"/>
<polygon fill="#c000a5" stroke="#c000a5" points="251.07,-201.78 247,-192 244.08,-202.18 251.07,-201.78"/>
<text text-anchor="middle" x="261.5" y="-213.8" font-family="Times,serif" font-size="14.00" fill="#c000a5">wr</text>
</g>
<!-- T10629&#45;&gt;T10577 -->
<g id="edge10" class="edge">
<title>T10629:f1&#45;&gt;T10577:f1</title>
<path fill="none" stroke="#5b00c0" d="M500,-15C544.44,-15 560,-50.56 560,-95 560,-421 560,-421 560,-421 560,-464.17 516.3,-455.45 475,-468 455.21,-474.01 307.22,-465.19 271.66,-478.93"/>
<polygon fill="#5b00c0" stroke="#5b00c0" points="268.98,-476.65 264,-486 273.72,-481.79 268.98,-476.65"/>
<text text-anchor="middle" x="569.5" y="-254.3" font-family="Times,serif" font-size="14.00" fill="#5b00c0">rw</text>
</g>
<!-- T10603&#45;&gt;T10576 -->
<g id="edge11" class="edge">
<title>T10603:f3&#45;&gt;T10576:f1</title>
<path fill="none" stroke="#5b00c0" d="M471,-192C471,-264.72 489.5,-294.28 448,-354 436.34,-370.77 375.3,-378.83 358.36,-395.85"/>
<polygon fill="#5b00c0" stroke="#5b00c0" points="355.14,-394.47 354,-405 361.46,-397.48 355.14,-394.47"/>
<text text-anchor="middle" x="483.5" y="-294.8" font-family="Times,serif" font-size="14.00" fill="#5b00c0">rw</text>
</g>
<!-- T10603&#45;&gt;T10625 -->
<g id="edge12" class="edge">
<title>T10603:f3&#45;&gt;T10625:f1</title>
<path fill="none" stroke="#5b00c0" d="M471,-162C471,-106.03 292.57,-96.85 224.01,-96.06"/>
<polygon fill="#5b00c0" stroke="#5b00c0" points="224.02,-92.56 214,-96 223.98,-99.56 224.02,-92.56"/>
<text text-anchor="middle" x="472.5" y="-132.8" font-family="Times,serif" font-size="14.00" fill="#5b00c0">rw</text>
</g>
<!-- T10581&#45;&gt;T10625 -->
<g id="edge13" class="edge">
<title>T10581:f0&#45;&gt;T10625:f0</title>
<path fill="none" stroke="#5b00c0" d="M216,-339C203.8,-339 203.89,-329.51 193,-324 135.4,-294.86 94.22,-325.75 57,-273 36.45,-243.87 18.37,-122.17 44.45,-99.61"/>
<polygon fill="#5b00c0" stroke="#5b00c0" points="45.88,-102.81 54,-96 43.41,-96.26 45.88,-102.81"/>
<text text-anchor="middle" x="49.5" y="-213.8" font-family="Times,serif" font-size="14.00" fill="#5b00c0">rw</text>
</g>
<!-- T10581&#45;&gt;T10597 -->
<g id="edge14" class="edge">
<title>T10581:f0&#45;&gt;T10597:f2</title>
<path fill="none" stroke="#5b00c0" d="M255,-324C255,-305.23 255,-298.12 255,-283.35"/>
<polygon fill="#5b00c0" stroke="#5b00c0" points="258.5,-283 255,-273 251.5,-283 258.5,-283"/>
<text text-anchor="middle" x="264.5" y="-294.8" font-family="Times,serif" font-size="14.00" fill="#5b00c0">rw</text>
</g>
<!-- T10581&#45;&gt;T10603 -->
<g id="edge15" class="edge">
<title>T10581:f0&#45;&gt;T10603:f2</title>
<path fill="none" stroke="#5b00c0" d="M255,-324C255,-311.02 268.3,-314.63 278,-306 328.6,-261 384.95,-262.99 390.55,-202.3"/>
<polygon fill="#5b00c0" stroke="#5b00c0" points="394.06,-202.14 391,-192 387.06,-201.84 394.06,-202.14"/>
<text text-anchor="middle" x="381.5" y="-254.3" font-family="Times,serif" font-size="14.00" fill="#5b00c0">rw</text>
</g>
</g>
</svg>
