<?xml version="1.0" encoding="UTF-8" standalone="no"?>
<!DOCTYPE svg PUBLIC "-//W3C//DTD SVG 1.1//EN"
 "http://www.w3.org/Graphics/SVG/1.1/DTD/svg11.dtd">
<!-- Generated by graphviz version 2.43.0 (0)
 -->
<!-- Title: a_graph Pages: 1 -->
<svg width="431pt" height="281pt"
 viewBox="0.00 0.00 430.50 281.00" xmlns="http://www.w3.org/2000/svg" xmlns:xlink="http://www.w3.org/1999/xlink">
<g id="graph0" class="graph" transform="scale(1 1) rotate(0) translate(4 277)">
<title>a_graph</title>
<polygon fill="white" stroke="transparent" points="-4,4 -4,-277 426.5,-277 426.5,4 -4,4"/>
<!-- T31825 -->
<g id="node1" class="node">
<title>T31825</title>
<polygon fill="none" stroke="#0058ad" points="35,-243.5 35,-272.5 296,-272.5 296,-243.5 35,-243.5"/>
<text text-anchor="middle" x="81" y="-254.3" font-family="Times,serif" font-size="14.00" fill="#0058ad">w 1215 13</text>
<polyline fill="none" stroke="#0058ad" points="127,-243.5 127,-272.5 "/>
<text text-anchor="middle" x="170" y="-254.3" font-family="Times,serif" font-size="14.00" fill="#0058ad">r 1197 11</text>
<polyline fill="none" stroke="#0058ad" points="213,-243.5 213,-272.5 "/>
<text text-anchor="middle" x="254.5" y="-254.3" font-family="Times,serif" font-size="14.00" fill="#0058ad">w 1216 1</text>
</g>
<!-- T31839 -->
<g id="node2" class="node">
<title>T31839</title>
<polygon fill="none" stroke="#0058ad" points="127,-81.5 127,-110.5 376,-110.5 376,-81.5 127,-81.5"/>
<text text-anchor="middle" x="170" y="-92.3" font-family="Times,serif" font-size="14.00" fill="#0058ad">r 1214 16</text>
<polyline fill="none" stroke="#0058ad" points="213,-81.5 213,-110.5 "/>
<text text-anchor="middle" x="251.5" y="-92.3" font-family="Times,serif" font-size="14.00" fill="#0058ad">r 1216 1</text>
<polyline fill="none" stroke="#0058ad" points="290,-81.5 290,-110.5 "/>
<text text-anchor="middle" x="333" y="-92.3" font-family="Times,serif" font-size="14.00" fill="#0058ad">r 1217 nil</text>
</g>
<!-- T31825&#45;&gt;T31839 -->
<g id="edge1" class="edge">
<title>T31825:f2&#45;&gt;T31839:f1</title>
<path fill="none" stroke="#c000a5" d="M297.5,-258C358.15,-258 429.45,-211.57 394.5,-162 357.82,-109.98 263.09,-170.77 252.47,-121.18"/>
<polygon fill="#c000a5" stroke="#c000a5" points="255.93,-120.62 251.5,-111 248.97,-121.29 255.93,-120.62"/>
<text text-anchor="middle" x="413" y="-173.3" font-family="Times,serif" font-size="14.00" fill="#c000a5">wr</text>
</g>
<!-- T31830 -->
<g id="node4" class="node">
<title>T31830</title>
<polygon fill="none" stroke="#0058ad" points="124,-162.5 124,-191.5 385,-191.5 385,-162.5 124,-162.5"/>
<text text-anchor="middle" x="170" y="-173.3" font-family="Times,serif" font-size="14.00" fill="#0058ad">w 1214 16</text>
<polyline fill="none" stroke="#0058ad" points="216,-162.5 216,-191.5 "/>
<text text-anchor="middle" x="254.5" y="-173.3" font-family="Times,serif" font-size="14.00" fill="#0058ad">r 1216 1</text>
<polyline fill="none" stroke="#0058ad" points="293,-162.5 293,-191.5 "/>
<text text-anchor="middle" x="339" y="-173.3" font-family="Times,serif" font-size="14.00" fill="#0058ad">w 1215 14</text>
</g>
<!-- T31825&#45;&gt;T31830 -->
<g id="edge2" class="edge">
<title>T31825:f2&#45;&gt;T31830:f1</title>
<path fill="none" stroke="#c000a5" d="M254.5,-243C254.5,-224.23 254.5,-217.12 254.5,-202.35"/>
<polygon fill="#c000a5" stroke="#c000a5" points="258,-202 254.5,-192 251,-202 258,-202"/>
<text text-anchor="middle" x="264" y="-213.8" font-family="Times,serif" font-size="14.00" fill="#c000a5">wr</text>
</g>
<!-- T31837 -->
<g id="node3" class="node">
<title>T31837</title>
<polygon fill="none" stroke="#0058ad" points="0,-0.5 0,-29.5 341,-29.5 341,-0.5 0,-0.5"/>
<text text-anchor="middle" x="43" y="-11.3" font-family="Times,serif" font-size="14.00" fill="#0058ad">r 1214 15</text>
<polyline fill="none" stroke="#0058ad" points="86,-0.5 86,-29.5 "/>
<text text-anchor="middle" x="129" y="-11.3" font-family="Times,serif" font-size="14.00" fill="#0058ad">r 1216 nil</text>
<polyline fill="none" stroke="#0058ad" points="172,-0.5 172,-29.5 "/>
<text text-anchor="middle" x="215" y="-11.3" font-family="Times,serif" font-size="14.00" fill="#0058ad">r 1214 15</text>
<polyline fill="none" stroke="#0058ad" points="258,-0.5 258,-29.5 "/>
<text text-anchor="middle" x="299.5" y="-11.3" font-family="Times,serif" font-size="14.00" fill="#0058ad">w 1217 1</text>
</g>
<!-- T31839&#45;&gt;T31837 -->
<g id="edge3" class="edge">
<title>T31839:f2&#45;&gt;T31837:f3</title>
<path fill="none" stroke="#5b00c0" d="M333.5,-81C333.5,-57.59 308.39,-56.87 301.33,-39.84"/>
<polygon fill="#5b00c0" stroke="#5b00c0" points="304.77,-39.19 299.5,-30 297.89,-40.47 304.77,-39.19"/>
<text text-anchor="middle" x="334" y="-51.8" font-family="Times,serif" font-size="14.00" fill="#5b00c0">rw</text>
</g>
<!-- T31837&#45;&gt;T31825 -->
<g id="edge4" class="edge">
<title>T31837:f1&#45;&gt;T31825:f2</title>
<path fill="none" stroke="#5b00c0" d="M128.5,-30C128.5,-53.1 121.3,-58.07 118.5,-81 114.13,-116.78 115.39,-125.97 114.5,-162 114.17,-175.33 106.85,-181.08 114.5,-192 131.41,-216.16 229.25,-211.47 250.45,-233.55"/>
<polygon fill="#5b00c0" stroke="#5b00c0" points="247.34,-235.19 254.5,-243 253.78,-232.43 247.34,-235.19"/>
<text text-anchor="middle" x="125" y="-132.8" font-family="Times,serif" font-size="14.00" fill="#5b00c0">rw</text>
</g>
<!-- T31830&#45;&gt;T31839 -->
<g id="edge5" class="edge">
<title>T31830:f0&#45;&gt;T31839:f0</title>
<path fill="none" stroke="#c000a5" d="M169.5,-162C169.5,-143.23 169.5,-136.12 169.5,-121.35"/>
<polygon fill="#c000a5" stroke="#c000a5" points="173,-121 169.5,-111 166,-121 173,-121"/>
<text text-anchor="middle" x="179" y="-132.8" font-family="Times,serif" font-size="14.00" fill="#c000a5">wr</text>
</g>
</g>
</svg>
