<?xml version="1.0" encoding="UTF-8" standalone="no"?>
<!DOCTYPE svg PUBLIC "-//W3C//DTD SVG 1.1//EN"
 "http://www.w3.org/Graphics/SVG/1.1/DTD/svg11.dtd">
<!-- Generated by graphviz version 2.43.0 (0)
 -->
<!-- Title: a_graph Pages: 1 -->
<svg width="984pt" height="686pt"
 viewBox="0.00 0.00 984.00 686.00" xmlns="http://www.w3.org/2000/svg" xmlns:xlink="http://www.w3.org/1999/xlink">
<g id="graph0" class="graph" transform="scale(1 1) rotate(0) translate(4 682)">
<title>a_graph</title>
<polygon fill="white" stroke="transparent" points="-4,4 -4,-682 980,-682 980,4 -4,4"/>
<!-- T23531 -->
<g id="node1" class="node">
<title>T23531</title>
<polygon fill="none" stroke="#0058ad" points="614,-648.5 614,-677.5 762,-677.5 762,-648.5 614,-648.5"/>
<text text-anchor="middle" x="651" y="-659.3" font-family="Times,serif" font-size="14.00" fill="#0058ad">w 902 1</text>
<polyline fill="none" stroke="#0058ad" points="688,-648.5 688,-677.5 "/>
<text text-anchor="middle" x="725" y="-659.3" font-family="Times,serif" font-size="14.00" fill="#0058ad">w 901 1</text>
</g>
<!-- T23540 -->
<g id="node6" class="node">
<title>T23540</title>
<polygon fill="none" stroke="#0058ad" points="613.5,-567.5 613.5,-596.5 832.5,-596.5 832.5,-567.5 613.5,-567.5"/>
<text text-anchor="middle" x="652" y="-578.3" font-family="Times,serif" font-size="14.00" fill="#0058ad">r 899 nil</text>
<polyline fill="none" stroke="#0058ad" points="690.5,-567.5 690.5,-596.5 "/>
<text text-anchor="middle" x="724.5" y="-578.3" font-family="Times,serif" font-size="14.00" fill="#0058ad">r 901 1</text>
<polyline fill="none" stroke="#0058ad" points="758.5,-567.5 758.5,-596.5 "/>
<text text-anchor="middle" x="795.5" y="-578.3" font-family="Times,serif" font-size="14.00" fill="#0058ad">w 901 3</text>
</g>
<!-- T23531&#45;&gt;T23540 -->
<g id="edge1" class="edge">
<title>T23531:f1&#45;&gt;T23540:f1</title>
<path fill="none" stroke="#c000a5" d="M725,-648C725,-629.23 725,-622.12 725,-607.35"/>
<polygon fill="#c000a5" stroke="#c000a5" points="728.5,-607 725,-597 721.5,-607 728.5,-607"/>
<text text-anchor="middle" x="734.5" y="-618.8" font-family="Times,serif" font-size="14.00" fill="#c000a5">wr</text>
</g>
<!-- T23523 -->
<g id="node2" class="node">
<title>T23523</title>
<polygon fill="none" stroke="#0058ad" points="393,-162.5 393,-191.5 547,-191.5 547,-162.5 393,-162.5"/>
<text text-anchor="middle" x="431.5" y="-173.3" font-family="Times,serif" font-size="14.00" fill="#0058ad">r 900 13</text>
<polyline fill="none" stroke="#0058ad" points="470,-162.5 470,-191.5 "/>
<text text-anchor="middle" x="508.5" y="-173.3" font-family="Times,serif" font-size="14.00" fill="#0058ad">r 901 nil</text>
</g>
<!-- T23523&#45;&gt;T23531 -->
<g id="edge2" class="edge">
<title>T23523:f1&#45;&gt;T23531:f1</title>
<path fill="none" stroke="#5b00c0" d="M509,-192C509,-220.89 508,-228.11 508,-257 508,-502 508,-502 508,-502 508,-562.34 552.28,-567.63 605,-597 627.35,-609.45 703.76,-617.08 721.36,-638.64"/>
<polygon fill="#5b00c0" stroke="#5b00c0" points="718.12,-639.95 725,-648 724.64,-637.41 718.12,-639.95"/>
<text text-anchor="middle" x="517.5" y="-416.3" font-family="Times,serif" font-size="14.00" fill="#5b00c0">rw</text>
</g>
<!-- T23527 -->
<g id="node3" class="node">
<title>T23527</title>
<polygon fill="none" stroke="#0058ad" points="265.5,-81.5 265.5,-110.5 502.5,-110.5 502.5,-81.5 265.5,-81.5"/>
<text text-anchor="middle" x="304" y="-92.3" font-family="Times,serif" font-size="14.00" fill="#0058ad">r 900 13</text>
<polyline fill="none" stroke="#0058ad" points="342.5,-81.5 342.5,-110.5 "/>
<text text-anchor="middle" x="384" y="-92.3" font-family="Times,serif" font-size="14.00" fill="#0058ad">w 900 16</text>
<polyline fill="none" stroke="#0058ad" points="425.5,-81.5 425.5,-110.5 "/>
<text text-anchor="middle" x="464" y="-92.3" font-family="Times,serif" font-size="14.00" fill="#0058ad">r 902 nil</text>
</g>
<!-- T23523&#45;&gt;T23527 -->
<g id="edge4" class="edge">
<title>T23523:f0&#45;&gt;T23527:f1</title>
<path fill="none" stroke="#5b00c0" d="M431,-162C431,-135.27 395.66,-139.73 386.27,-121.28"/>
<polygon fill="#5b00c0" stroke="#5b00c0" points="389.57,-120.01 384,-111 382.74,-121.52 389.57,-120.01"/>
<text text-anchor="middle" x="430.5" y="-132.8" font-family="Times,serif" font-size="14.00" fill="#5b00c0">rw</text>
</g>
<!-- T23523&#45;&gt;T23540 -->
<g id="edge3" class="edge">
<title>T23523:f1&#45;&gt;T23540:f2</title>
<path fill="none" stroke="#5b00c0" d="M548,-177C594.95,-177 617,-210.05 617,-257 617,-380.5 617,-380.5 617,-380.5 617,-406.3 622.12,-413.92 637,-435 648.85,-451.78 766.73,-525.79 791.46,-557.65"/>
<polygon fill="#5b00c0" stroke="#5b00c0" points="788.48,-559.53 796,-567 794.78,-556.48 788.48,-559.53"/>
<text text-anchor="middle" x="626.5" y="-375.8" font-family="Times,serif" font-size="14.00" fill="#5b00c0">rw</text>
</g>
<!-- T23527&#45;&gt;T23531 -->
<g id="edge6" class="edge">
<title>T23527:f2&#45;&gt;T23531:f0</title>
<path fill="none" stroke="#5b00c0" d="M504,-96C551.54,-96 575,-128.46 575,-176 575,-502 575,-502 575,-502 575,-571.93 542.86,-654.49 602.99,-662.39"/>
<polygon fill="#5b00c0" stroke="#5b00c0" points="602.8,-665.88 613,-663 603.23,-658.89 602.8,-665.88"/>
<text text-anchor="middle" x="584.5" y="-375.8" font-family="Times,serif" font-size="14.00" fill="#5b00c0">rw</text>
</g>
<!-- T23535 -->
<g id="node8" class="node">
<title>T23535</title>
<polygon fill="none" stroke="#0058ad" points="798.5,-0.5 798.5,-29.5 949.5,-29.5 949.5,-0.5 798.5,-0.5"/>
<text text-anchor="middle" x="835.5" y="-11.3" font-family="Times,serif" font-size="14.00" fill="#0058ad">w 902 3</text>
<polyline fill="none" stroke="#0058ad" points="872.5,-0.5 872.5,-29.5 "/>
<text text-anchor="middle" x="911" y="-11.3" font-family="Times,serif" font-size="14.00" fill="#0058ad">r 901 nil</text>
</g>
<!-- T23527&#45;&gt;T23535 -->
<g id="edge5" class="edge">
<title>T23527:f2&#45;&gt;T23535:f0</title>
<path fill="none" stroke="#5b00c0" d="M504,-96C635.68,-96 660.66,-19.06 786.92,-15.15"/>
<polygon fill="#5b00c0" stroke="#5b00c0" points="787.05,-18.65 797,-15 786.95,-11.65 787.05,-18.65"/>
<text text-anchor="middle" x="673.5" y="-51.8" font-family="Times,serif" font-size="14.00" fill="#5b00c0">rw</text>
</g>
<!-- T23515 -->
<g id="node4" class="node">
<title>T23515</title>
<polygon fill="none" stroke="#0058ad" points="160,-243.5 160,-272.5 480,-272.5 480,-243.5 160,-243.5"/>
<text text-anchor="middle" x="198.5" y="-254.3" font-family="Times,serif" font-size="14.00" fill="#0058ad">r 900 10</text>
<polyline fill="none" stroke="#0058ad" points="237,-243.5 237,-272.5 "/>
<text text-anchor="middle" x="278.5" y="-254.3" font-family="Times,serif" font-size="14.00" fill="#0058ad">w 900 12</text>
<polyline fill="none" stroke="#0058ad" points="320,-243.5 320,-272.5 "/>
<text text-anchor="middle" x="361.5" y="-254.3" font-family="Times,serif" font-size="14.00" fill="#0058ad">w 900 13</text>
<polyline fill="none" stroke="#0058ad" points="403,-243.5 403,-272.5 "/>
<text text-anchor="middle" x="441.5" y="-254.3" font-family="Times,serif" font-size="14.00" fill="#0058ad">r 899 nil</text>
</g>
<!-- T23515&#45;&gt;T23523 -->
<g id="edge7" class="edge">
<title>T23515:f2&#45;&gt;T23523:f0</title>
<path fill="none" stroke="#c000a5" d="M362,-243C362,-227.06 410.22,-215.46 426.04,-200.94"/>
<polygon fill="#c000a5" stroke="#c000a5" points="429.21,-202.44 431,-192 423.09,-199.04 429.21,-202.44"/>
<text text-anchor="middle" x="420.5" y="-213.8" font-family="Times,serif" font-size="14.00" fill="#c000a5">wr</text>
</g>
<!-- T23515&#45;&gt;T23527 -->
<g id="edge10" class="edge">
<title>T23515:f2&#45;&gt;T23527:f0</title>
<path fill="none" stroke="#c000a5" d="M362,-243C362,-223.39 204.7,-207.75 193,-192 158.07,-144.97 222.93,-105.86 254.02,-97.61"/>
<polygon fill="#c000a5" stroke="#c000a5" points="254.68,-101.04 264,-96 253.57,-94.13 254.68,-101.04"/>
<text text-anchor="middle" x="202.5" y="-173.3" font-family="Times,serif" font-size="14.00" fill="#c000a5">wr</text>
</g>
<!-- T23517 -->
<g id="node5" class="node">
<title>T23517</title>
<polygon fill="none" stroke="#0058ad" points="221,-162.5 221,-191.5 375,-191.5 375,-162.5 221,-162.5"/>
<text text-anchor="middle" x="259.5" y="-173.3" font-family="Times,serif" font-size="14.00" fill="#0058ad">r 890 14</text>
<polyline fill="none" stroke="#0058ad" points="298,-162.5 298,-191.5 "/>
<text text-anchor="middle" x="336.5" y="-173.3" font-family="Times,serif" font-size="14.00" fill="#0058ad">r 900 13</text>
</g>
<!-- T23515&#45;&gt;T23517 -->
<g id="edge9" class="edge">
<title>T23515:f2&#45;&gt;T23517:f1</title>
<path fill="none" stroke="#c000a5" d="M362,-243C362,-221.7 344.2,-218.01 338.64,-202.21"/>
<polygon fill="#c000a5" stroke="#c000a5" points="342.04,-201.32 337,-192 335.13,-202.43 342.04,-201.32"/>
<text text-anchor="middle" x="365.5" y="-213.8" font-family="Times,serif" font-size="14.00" fill="#c000a5">wr</text>
</g>
<!-- T23492 -->
<g id="node9" class="node">
<title>T23492</title>
<polygon fill="none" stroke="#0058ad" points="178,-486.5 178,-515.5 480,-515.5 480,-486.5 178,-486.5"/>
<text text-anchor="middle" x="215" y="-497.3" font-family="Times,serif" font-size="14.00" fill="#0058ad">w 899 1</text>
<polyline fill="none" stroke="#0058ad" points="252,-486.5 252,-515.5 "/>
<text text-anchor="middle" x="290.5" y="-497.3" font-family="Times,serif" font-size="14.00" fill="#0058ad">r 897 13</text>
<polyline fill="none" stroke="#0058ad" points="329,-486.5 329,-515.5 "/>
<text text-anchor="middle" x="367.5" y="-497.3" font-family="Times,serif" font-size="14.00" fill="#0058ad">r 900 nil</text>
<polyline fill="none" stroke="#0058ad" points="406,-486.5 406,-515.5 "/>
<text text-anchor="middle" x="443" y="-497.3" font-family="Times,serif" font-size="14.00" fill="#0058ad">w 899 2</text>
</g>
<!-- T23515&#45;&gt;T23492 -->
<g id="edge8" class="edge">
<title>T23515:f3&#45;&gt;T23492:f3</title>
<path fill="none" stroke="#5b00c0" d="M442,-273C442,-364.15 442.93,-389.48 443,-475.75"/>
<polygon fill="#5b00c0" stroke="#5b00c0" points="439.5,-476 443,-486 446.5,-476 439.5,-476"/>
<text text-anchor="middle" x="452.5" y="-375.8" font-family="Times,serif" font-size="14.00" fill="#5b00c0">rw</text>
</g>
<!-- T23517&#45;&gt;T23527 -->
<g id="edge11" class="edge">
<title>T23517:f1&#45;&gt;T23527:f1</title>
<path fill="none" stroke="#5b00c0" d="M337,-162C337,-149.48 368.03,-133.81 379.66,-120.11"/>
<polygon fill="#5b00c0" stroke="#5b00c0" points="382.86,-121.53 384,-111 376.54,-118.52 382.86,-121.53"/>
<text text-anchor="middle" x="380.5" y="-132.8" font-family="Times,serif" font-size="14.00" fill="#5b00c0">rw</text>
</g>
<!-- T23540&#45;&gt;T23492 -->
<g id="edge12" class="edge">
<title>T23540:f0&#45;&gt;T23492:f3</title>
<path fill="none" stroke="#5b00c0" d="M612,-582C547.16,-582 549.04,-509.32 491.23,-501.65"/>
<polygon fill="#5b00c0" stroke="#5b00c0" points="491.2,-498.14 481,-501 490.76,-505.13 491.2,-498.14"/>
<text text-anchor="middle" x="562.5" y="-537.8" font-family="Times,serif" font-size="14.00" fill="#5b00c0">rw</text>
</g>
<!-- T23512 -->
<g id="node7" class="node">
<title>T23512</title>
<polygon fill="none" stroke="#0058ad" points="79.5,-324.5 79.5,-353.5 372.5,-353.5 372.5,-324.5 79.5,-324.5"/>
<text text-anchor="middle" x="113.5" y="-335.3" font-family="Times,serif" font-size="14.00" fill="#0058ad">r 900 7</text>
<polyline fill="none" stroke="#0058ad" points="147.5,-324.5 147.5,-353.5 "/>
<text text-anchor="middle" x="184.5" y="-335.3" font-family="Times,serif" font-size="14.00" fill="#0058ad">w 900 9</text>
<polyline fill="none" stroke="#0058ad" points="221.5,-324.5 221.5,-353.5 "/>
<text text-anchor="middle" x="255.5" y="-335.3" font-family="Times,serif" font-size="14.00" fill="#0058ad">r 900 9</text>
<polyline fill="none" stroke="#0058ad" points="289.5,-324.5 289.5,-353.5 "/>
<text text-anchor="middle" x="331" y="-335.3" font-family="Times,serif" font-size="14.00" fill="#0058ad">w 900 10</text>
</g>
<!-- T23512&#45;&gt;T23515 -->
<g id="edge13" class="edge">
<title>T23512:f3&#45;&gt;T23515:f0</title>
<path fill="none" stroke="#c000a5" d="M331,-324C331,-264.53 213.62,-327.66 199.4,-283.03"/>
<polygon fill="#c000a5" stroke="#c000a5" points="202.85,-282.42 198,-273 195.92,-283.39 202.85,-282.42"/>
<text text-anchor="middle" x="333.5" y="-294.8" font-family="Times,serif" font-size="14.00" fill="#c000a5">wr</text>
</g>
<!-- T23535&#45;&gt;T23531 -->
<g id="edge14" class="edge">
<title>T23535:f1&#45;&gt;T23531:f1</title>
<path fill="none" stroke="#5b00c0" d="M951,-15C986.66,-15 957,-59.34 957,-95 957,-583 957,-583 957,-583 957,-626.63 828.02,-658.64 773.21,-662.59"/>
<polygon fill="#5b00c0" stroke="#5b00c0" points="772.85,-659.1 763,-663 773.13,-666.1 772.85,-659.1"/>
<text text-anchor="middle" x="966.5" y="-335.3" font-family="Times,serif" font-size="14.00" fill="#5b00c0">rw</text>
</g>
<!-- T23535&#45;&gt;T23540 -->
<g id="edge15" class="edge">
<title>T23535:f1&#45;&gt;T23540:f2</title>
<path fill="none" stroke="#5b00c0" d="M911,-30C911,-58.89 911,-66.11 911,-95 911,-380.5 911,-380.5 911,-380.5 911,-425.07 885.88,-560.93 843.83,-579.81"/>
<polygon fill="#5b00c0" stroke="#5b00c0" points="843,-576.41 834,-582 844.52,-583.24 843,-576.41"/>
<text text-anchor="middle" x="920.5" y="-294.8" font-family="Times,serif" font-size="14.00" fill="#5b00c0">rw</text>
</g>
<!-- T23492&#45;&gt;T23527 -->
<g id="edge19" class="edge">
<title>T23492:f2&#45;&gt;T23527:f1</title>
<path fill="none" stroke="#5b00c0" d="M368,-486C368,-481.1 23.53,-436.86 19,-435 9.3,-431.01 0,-431.49 0,-421 0,-421 0,-421 0,-176 0,-91.17 101.38,-143.31 185,-129 204.15,-125.72 342.15,-131.4 376.35,-117.99"/>
<polygon fill="#5b00c0" stroke="#5b00c0" points="378.98,-120.33 384,-111 374.26,-115.16 378.98,-120.33"/>
<text text-anchor="middle" x="9.5" y="-294.8" font-family="Times,serif" font-size="14.00" fill="#5b00c0">rw</text>
</g>
<!-- T23492&#45;&gt;T23515 -->
<g id="edge18" class="edge">
<title>T23492:f2&#45;&gt;T23515:f2</title>
<path fill="none" stroke="#5b00c0" d="M368,-486C368,-476.39 377.17,-477.19 380,-468 398.82,-406.83 392.35,-386.99 381,-324 377.41,-304.1 366.55,-298.73 363.08,-283.38"/>
<polygon fill="#5b00c0" stroke="#5b00c0" points="366.51,-282.59 362,-273 359.55,-283.31 366.51,-282.59"/>
<text text-anchor="middle" x="401.5" y="-375.8" font-family="Times,serif" font-size="14.00" fill="#5b00c0">rw</text>
</g>
<!-- T23492&#45;&gt;T23512 -->
<g id="edge20" class="edge">
<title>T23492:f2&#45;&gt;T23512:f3</title>
<path fill="none" stroke="#5b00c0" d="M368,-486C368,-428.64 335.21,-416.29 331.37,-364.21"/>
<polygon fill="#5b00c0" stroke="#5b00c0" points="334.86,-363.87 331,-354 327.86,-364.12 334.86,-363.87"/>
<text text-anchor="middle" x="366.5" y="-416.3" font-family="Times,serif" font-size="14.00" fill="#5b00c0">rw</text>
</g>
<!-- T23526 -->
<g id="node10" class="node">
<title>T23526</title>
<polygon fill="none" stroke="#0058ad" points="645.5,-405.5 645.5,-434.5 882.5,-434.5 882.5,-405.5 645.5,-405.5"/>
<text text-anchor="middle" x="687" y="-416.3" font-family="Times,serif" font-size="14.00" fill="#0058ad">w 900 15</text>
<polyline fill="none" stroke="#0058ad" points="728.5,-405.5 728.5,-434.5 "/>
<text text-anchor="middle" x="767" y="-416.3" font-family="Times,serif" font-size="14.00" fill="#0058ad">r 901 nil</text>
<polyline fill="none" stroke="#0058ad" points="805.5,-405.5 805.5,-434.5 "/>
<text text-anchor="middle" x="844" y="-416.3" font-family="Times,serif" font-size="14.00" fill="#0058ad">r 900 15</text>
</g>
<!-- T23492&#45;&gt;T23526 -->
<g id="edge16" class="edge">
<title>T23492:f2&#45;&gt;T23526:f0</title>
<path fill="none" stroke="#5b00c0" d="M368,-486C368,-465.82 437.33,-472.51 457,-468 537.2,-449.61 556.64,-422.35 633.78,-420.14"/>
<polygon fill="#5b00c0" stroke="#5b00c0" points="634.05,-423.64 644,-420 633.95,-416.64 634.05,-423.64"/>
<text text-anchor="middle" x="517.5" y="-456.8" font-family="Times,serif" font-size="14.00" fill="#5b00c0">rw</text>
</g>
<!-- T23507 -->
<g id="node11" class="node">
<title>T23507</title>
<polygon fill="none" stroke="#0058ad" points="28,-405.5 28,-434.5 318,-434.5 318,-405.5 28,-405.5"/>
<text text-anchor="middle" x="65" y="-416.3" font-family="Times,serif" font-size="14.00" fill="#0058ad">w 900 5</text>
<polyline fill="none" stroke="#0058ad" points="102,-405.5 102,-434.5 "/>
<text text-anchor="middle" x="139" y="-416.3" font-family="Times,serif" font-size="14.00" fill="#0058ad">w 900 6</text>
<polyline fill="none" stroke="#0058ad" points="176,-405.5 176,-434.5 "/>
<text text-anchor="middle" x="213" y="-416.3" font-family="Times,serif" font-size="14.00" fill="#0058ad">w 900 7</text>
<polyline fill="none" stroke="#0058ad" points="250,-405.5 250,-434.5 "/>
<text text-anchor="middle" x="284" y="-416.3" font-family="Times,serif" font-size="14.00" fill="#0058ad">r 900 7</text>
</g>
<!-- T23492&#45;&gt;T23507 -->
<g id="edge17" class="edge">
<title>T23492:f2&#45;&gt;T23507:f2</title>
<path fill="none" stroke="#5b00c0" d="M368,-486C368,-478.24 254.57,-453.07 221.78,-440.28"/>
<polygon fill="#5b00c0" stroke="#5b00c0" points="223.37,-437.15 213,-435 219.77,-443.15 223.37,-437.15"/>
<text text-anchor="middle" x="327.5" y="-456.8" font-family="Times,serif" font-size="14.00" fill="#5b00c0">rw</text>
</g>
<!-- T23526&#45;&gt;T23531 -->
<g id="edge21" class="edge">
<title>T23526:f1&#45;&gt;T23531:f1</title>
<path fill="none" stroke="#5b00c0" d="M767,-435C767,-443.99 891.04,-525.93 895,-534 929.66,-604.62 851.89,-658.43 773.11,-662.72"/>
<polygon fill="#5b00c0" stroke="#5b00c0" points="772.9,-659.23 763,-663 773.09,-666.22 772.9,-659.23"/>
<text text-anchor="middle" x="909.5" y="-537.8" font-family="Times,serif" font-size="14.00" fill="#5b00c0">rw</text>
</g>
<!-- T23526&#45;&gt;T23540 -->
<g id="edge22" class="edge">
<title>T23526:f1&#45;&gt;T23540:f2</title>
<path fill="none" stroke="#5b00c0" d="M767,-435C767,-491.55 792.7,-505.38 795.71,-556.92"/>
<polygon fill="#5b00c0" stroke="#5b00c0" points="792.22,-557.1 796,-567 799.21,-556.9 792.22,-557.1"/>
<text text-anchor="middle" x="796.5" y="-497.3" font-family="Times,serif" font-size="14.00" fill="#5b00c0">rw</text>
</g>
<!-- T23507&#45;&gt;T23512 -->
<g id="edge23" class="edge">
<title>T23507:f2&#45;&gt;T23512:f0</title>
<path fill="none" stroke="#c000a5" d="M213,-405C213,-359.01 128.01,-396.87 114.74,-363.98"/>
<polygon fill="#c000a5" stroke="#c000a5" points="118.16,-363.25 113,-354 111.27,-364.45 118.16,-363.25"/>
<text text-anchor="middle" x="214.5" y="-375.8" font-family="Times,serif" font-size="14.00" fill="#c000a5">wr</text>
</g>
</g>
</svg>
