<?xml version="1.0" encoding="UTF-8" standalone="no"?>
<!DOCTYPE svg PUBLIC "-//W3C//DTD SVG 1.1//EN"
 "http://www.w3.org/Graphics/SVG/1.1/DTD/svg11.dtd">
<!-- Generated by graphviz version 2.43.0 (0)
 -->
<!-- Title: a_graph Pages: 1 -->
<svg width="831pt" height="767pt"
 viewBox="0.00 0.00 830.50 767.00" xmlns="http://www.w3.org/2000/svg" xmlns:xlink="http://www.w3.org/1999/xlink">
<g id="graph0" class="graph" transform="scale(1 1) rotate(0) translate(4 763)">
<title>a_graph</title>
<polygon fill="white" stroke="transparent" points="-4,4 -4,-763 826.5,-763 826.5,4 -4,4"/>
<!-- T27526 -->
<g id="node1" class="node">
<title>T27526</title>
<polygon fill="none" stroke="#0058ad" points="0,-729.5 0,-758.5 261,-758.5 261,-729.5 0,-729.5"/>
<text text-anchor="middle" x="41.5" y="-740.3" font-family="Times,serif" font-size="14.00" fill="#0058ad">w 1052 1</text>
<polyline fill="none" stroke="#0058ad" points="83,-729.5 83,-758.5 "/>
<text text-anchor="middle" x="129" y="-740.3" font-family="Times,serif" font-size="14.00" fill="#0058ad">w 1046 16</text>
<polyline fill="none" stroke="#0058ad" points="175,-729.5 175,-758.5 "/>
<text text-anchor="middle" x="218" y="-740.3" font-family="Times,serif" font-size="14.00" fill="#0058ad">r 1053 nil</text>
</g>
<!-- T27521 -->
<g id="node2" class="node">
<title>T27521</title>
<polygon fill="none" stroke="#0058ad" points="220,-648.5 220,-677.5 567,-677.5 567,-648.5 220,-648.5"/>
<text text-anchor="middle" x="266" y="-659.3" font-family="Times,serif" font-size="14.00" fill="#0058ad">w 1046 15</text>
<polyline fill="none" stroke="#0058ad" points="312,-648.5 312,-677.5 "/>
<text text-anchor="middle" x="355" y="-659.3" font-family="Times,serif" font-size="14.00" fill="#0058ad">r 1050 nil</text>
<polyline fill="none" stroke="#0058ad" points="398,-648.5 398,-677.5 "/>
<text text-anchor="middle" x="441" y="-659.3" font-family="Times,serif" font-size="14.00" fill="#0058ad">r 1053 nil</text>
<polyline fill="none" stroke="#0058ad" points="484,-648.5 484,-677.5 "/>
<text text-anchor="middle" x="525.5" y="-659.3" font-family="Times,serif" font-size="14.00" fill="#0058ad">w 1053 1</text>
</g>
<!-- T27526&#45;&gt;T27521 -->
<g id="edge2" class="edge">
<title>T27526:f2&#45;&gt;T27521:f3</title>
<path fill="none" stroke="#5b00c0" d="M262.5,-744C319.23,-744 502.23,-738.91 523.48,-688.04"/>
<polygon fill="#5b00c0" stroke="#5b00c0" points="526.96,-688.49 525.5,-678 520.1,-687.11 526.96,-688.49"/>
<text text-anchor="middle" x="526" y="-699.8" font-family="Times,serif" font-size="14.00" fill="#5b00c0">rw</text>
</g>
<!-- T27530 -->
<g id="node5" class="node">
<title>T27530</title>
<polygon fill="none" stroke="#0058ad" points="149,-405.5 149,-434.5 478,-434.5 478,-405.5 149,-405.5"/>
<text text-anchor="middle" x="190.5" y="-416.3" font-family="Times,serif" font-size="14.00" fill="#0058ad">w 1053 3</text>
<polyline fill="none" stroke="#0058ad" points="232,-405.5 232,-434.5 "/>
<text text-anchor="middle" x="275" y="-416.3" font-family="Times,serif" font-size="14.00" fill="#0058ad">r 1054 nil</text>
<polyline fill="none" stroke="#0058ad" points="318,-405.5 318,-434.5 "/>
<text text-anchor="middle" x="356.5" y="-416.3" font-family="Times,serif" font-size="14.00" fill="#0058ad">r 1053 3</text>
<polyline fill="none" stroke="#0058ad" points="395,-405.5 395,-434.5 "/>
<text text-anchor="middle" x="436.5" y="-416.3" font-family="Times,serif" font-size="14.00" fill="#0058ad">w 1050 2</text>
</g>
<!-- T27526&#45;&gt;T27530 -->
<g id="edge4" class="edge">
<title>T27526:f2&#45;&gt;T27530:f0</title>
<path fill="none" stroke="#5b00c0" d="M218.5,-729C218.5,-697.72 191.5,-695.28 191.5,-664 191.5,-664 191.5,-664 191.5,-500 191.5,-474.83 190.74,-466.11 190.55,-445.19"/>
<polygon fill="#5b00c0" stroke="#5b00c0" points="194.04,-444.98 190.5,-435 187.04,-445.02 194.04,-444.98"/>
<text text-anchor="middle" x="201" y="-578.3" font-family="Times,serif" font-size="14.00" fill="#5b00c0">rw</text>
</g>
<!-- T27533 -->
<g id="node6" class="node">
<title>T27533</title>
<polygon fill="none" stroke="#0058ad" points="361.5,-486.5 361.5,-515.5 699.5,-515.5 699.5,-486.5 361.5,-486.5"/>
<text text-anchor="middle" x="404.5" y="-497.3" font-family="Times,serif" font-size="14.00" fill="#0058ad">r 1051 14</text>
<polyline fill="none" stroke="#0058ad" points="447.5,-486.5 447.5,-515.5 "/>
<text text-anchor="middle" x="493.5" y="-497.3" font-family="Times,serif" font-size="14.00" fill="#0058ad">w 1051 16</text>
<polyline fill="none" stroke="#0058ad" points="539.5,-486.5 539.5,-515.5 "/>
<text text-anchor="middle" x="578" y="-497.3" font-family="Times,serif" font-size="14.00" fill="#0058ad">r 1053 1</text>
<polyline fill="none" stroke="#0058ad" points="616.5,-486.5 616.5,-515.5 "/>
<text text-anchor="middle" x="658" y="-497.3" font-family="Times,serif" font-size="14.00" fill="#0058ad">w 1053 2</text>
</g>
<!-- T27526&#45;&gt;T27533 -->
<g id="edge5" class="edge">
<title>T27526:f2&#45;&gt;T27533:f3</title>
<path fill="none" stroke="#5b00c0" d="M262.5,-744C371.92,-744 680.2,-720.63 741.5,-630 759.31,-603.67 816.72,-506.91 710.56,-501.26"/>
<polygon fill="#5b00c0" stroke="#5b00c0" points="710.59,-497.76 700.5,-501 710.41,-504.76 710.59,-497.76"/>
<text text-anchor="middle" x="759" y="-618.8" font-family="Times,serif" font-size="14.00" fill="#5b00c0">rw</text>
</g>
<!-- T27549 -->
<g id="node9" class="node">
<title>T27549</title>
<polygon fill="none" stroke="#0058ad" points="158,-243.5 158,-272.5 401,-272.5 401,-243.5 158,-243.5"/>
<text text-anchor="middle" x="199.5" y="-254.3" font-family="Times,serif" font-size="14.00" fill="#0058ad">w 1053 4</text>
<polyline fill="none" stroke="#0058ad" points="241,-243.5 241,-272.5 "/>
<text text-anchor="middle" x="279.5" y="-254.3" font-family="Times,serif" font-size="14.00" fill="#0058ad">r 1054 4</text>
<polyline fill="none" stroke="#0058ad" points="318,-243.5 318,-272.5 "/>
<text text-anchor="middle" x="359.5" y="-254.3" font-family="Times,serif" font-size="14.00" fill="#0058ad">w 1055 4</text>
</g>
<!-- T27526&#45;&gt;T27549 -->
<g id="edge3" class="edge">
<title>T27526:f2&#45;&gt;T27549:f0</title>
<path fill="none" stroke="#5b00c0" d="M218.5,-729C218.5,-712.35 83.5,-680.65 83.5,-664 83.5,-664 83.5,-664 83.5,-338 83.5,-293.34 104.9,-262.69 146.43,-258.49"/>
<polygon fill="#5b00c0" stroke="#5b00c0" points="146.68,-261.99 156.5,-258 146.34,-254.99 146.68,-261.99"/>
<text text-anchor="middle" x="93" y="-497.3" font-family="Times,serif" font-size="14.00" fill="#5b00c0">rw</text>
</g>
<!-- T27565 -->
<g id="node10" class="node">
<title>T27565</title>
<polygon fill="none" stroke="#0058ad" points="259.5,-0.5 259.5,-29.5 597.5,-29.5 597.5,-0.5 259.5,-0.5"/>
<text text-anchor="middle" x="298" y="-11.3" font-family="Times,serif" font-size="14.00" fill="#0058ad">r 1053 4</text>
<polyline fill="none" stroke="#0058ad" points="336.5,-0.5 336.5,-29.5 "/>
<text text-anchor="middle" x="382.5" y="-11.3" font-family="Times,serif" font-size="14.00" fill="#0058ad">w 1054 10</text>
<polyline fill="none" stroke="#0058ad" points="428.5,-0.5 428.5,-29.5 "/>
<text text-anchor="middle" x="471.5" y="-11.3" font-family="Times,serif" font-size="14.00" fill="#0058ad">r 1050 nil</text>
<polyline fill="none" stroke="#0058ad" points="514.5,-0.5 514.5,-29.5 "/>
<text text-anchor="middle" x="556" y="-11.3" font-family="Times,serif" font-size="14.00" fill="#0058ad">w 1053 5</text>
</g>
<!-- T27526&#45;&gt;T27565 -->
<g id="edge1" class="edge">
<title>T27526:f2&#45;&gt;T27565:f3</title>
<path fill="none" stroke="#5b00c0" d="M262.5,-744C323.26,-744 803.5,-724.76 803.5,-664 803.5,-664 803.5,-664 803.5,-95 803.5,-39.76 652.53,-19.14 608.75,-15.58"/>
<polygon fill="#5b00c0" stroke="#5b00c0" points="608.68,-12.07 598.5,-15 608.29,-19.06 608.68,-12.07"/>
<text text-anchor="middle" x="813" y="-375.8" font-family="Times,serif" font-size="14.00" fill="#5b00c0">rw</text>
</g>
<!-- T27521&#45;&gt;T27530 -->
<g id="edge9" class="edge">
<title>T27521:f1&#45;&gt;T27530:f3</title>
<path fill="none" stroke="#5b00c0" d="M354.5,-648C354.5,-607.21 291.32,-660.73 264.5,-630 236.41,-597.81 246.83,-574.8 259.5,-534 267.18,-509.28 272.02,-501.84 292.5,-486 326.53,-459.68 342.91,-467.25 383.5,-453 402.75,-446.24 426.08,-455.2 433.85,-444.9"/>
<polygon fill="#5b00c0" stroke="#5b00c0" points="437.29,-445.57 436.5,-435 430.53,-443.75 437.29,-445.57"/>
<text text-anchor="middle" x="269" y="-537.8" font-family="Times,serif" font-size="14.00" fill="#5b00c0">rw</text>
</g>
<!-- T27521&#45;&gt;T27533 -->
<g id="edge10" class="edge">
<title>T27521:f3&#45;&gt;T27533:f2</title>
<path fill="none" stroke="#c000a5" d="M568.5,-663C625.49,-663 680.16,-617.37 653.5,-567 636.48,-534.85 589.11,-552.02 580.02,-526.06"/>
<polygon fill="#c000a5" stroke="#c000a5" points="583.45,-525.37 578.5,-516 576.53,-526.41 583.45,-525.37"/>
<text text-anchor="middle" x="669" y="-578.3" font-family="Times,serif" font-size="14.00" fill="#c000a5">wr</text>
</g>
<!-- T27521&#45;&gt;T27549 -->
<g id="edge8" class="edge">
<title>T27521:f2&#45;&gt;T27549:f0</title>
<path fill="none" stroke="#5b00c0" d="M441.5,-648C441.5,-580.1 336.68,-652.45 297.5,-597 289.8,-586.11 293.58,-579.74 297.5,-567 310.29,-525.41 318.33,-512.95 352.5,-486 402.86,-446.28 451.03,-487.76 487.5,-435 525.2,-380.46 502.15,-329.96 448.5,-291 428.42,-276.42 245.02,-295.72 206.56,-280.09"/>
<polygon fill="#5b00c0" stroke="#5b00c0" points="209.03,-277.62 199.5,-273 204.07,-282.56 209.03,-277.62"/>
<text text-anchor="middle" x="479" y="-456.8" font-family="Times,serif" font-size="14.00" fill="#5b00c0">rw</text>
</g>
<!-- T27521&#45;&gt;T27565 -->
<g id="edge6" class="edge">
<title>T27521:f2&#45;&gt;T27565:f3</title>
<path fill="none" stroke="#5b00c0" d="M441.5,-648C441.5,-623.14 641.24,-638.77 664.5,-630 697.18,-617.67 727.5,-617.93 727.5,-583 727.5,-583 727.5,-583 727.5,-95 727.5,-30.96 672.05,-16.41 608.72,-15.1"/>
<polygon fill="#5b00c0" stroke="#5b00c0" points="608.53,-11.6 598.5,-15 608.46,-18.6 608.53,-11.6"/>
<text text-anchor="middle" x="737" y="-335.3" font-family="Times,serif" font-size="14.00" fill="#5b00c0">rw</text>
</g>
<!-- T27527 -->
<g id="node11" class="node">
<title>T27527</title>
<polygon fill="none" stroke="#0058ad" points="306.5,-567.5 306.5,-596.5 644.5,-596.5 644.5,-567.5 306.5,-567.5"/>
<text text-anchor="middle" x="352.5" y="-578.3" font-family="Times,serif" font-size="14.00" fill="#0058ad">w 1051 13</text>
<polyline fill="none" stroke="#0058ad" points="398.5,-567.5 398.5,-596.5 "/>
<text text-anchor="middle" x="444.5" y="-578.3" font-family="Times,serif" font-size="14.00" fill="#0058ad">w 1051 14</text>
<polyline fill="none" stroke="#0058ad" points="490.5,-567.5 490.5,-596.5 "/>
<text text-anchor="middle" x="529" y="-578.3" font-family="Times,serif" font-size="14.00" fill="#0058ad">r 1053 1</text>
<polyline fill="none" stroke="#0058ad" points="567.5,-567.5 567.5,-596.5 "/>
<text text-anchor="middle" x="606" y="-578.3" font-family="Times,serif" font-size="14.00" fill="#0058ad">r 1053 1</text>
</g>
<!-- T27521&#45;&gt;T27527 -->
<g id="edge7" class="edge">
<title>T27521:f3&#45;&gt;T27527:f2</title>
<path fill="none" stroke="#c000a5" d="M525.5,-648C525.5,-629.17 528.24,-622.14 529.19,-607.37"/>
<polygon fill="#c000a5" stroke="#c000a5" points="532.7,-607.1 529.5,-597 525.7,-606.89 532.7,-607.1"/>
<text text-anchor="middle" x="537" y="-618.8" font-family="Times,serif" font-size="14.00" fill="#c000a5">wr</text>
</g>
<!-- T27559 -->
<g id="node3" class="node">
<title>T27559</title>
<polygon fill="none" stroke="#0058ad" points="223,-81.5 223,-110.5 454,-110.5 454,-81.5 223,-81.5"/>
<text text-anchor="middle" x="261.5" y="-92.3" font-family="Times,serif" font-size="14.00" fill="#0058ad">r 1053 4</text>
<polyline fill="none" stroke="#0058ad" points="300,-81.5 300,-110.5 "/>
<text text-anchor="middle" x="338.5" y="-92.3" font-family="Times,serif" font-size="14.00" fill="#0058ad">r 1054 8</text>
<polyline fill="none" stroke="#0058ad" points="377,-81.5 377,-110.5 "/>
<text text-anchor="middle" x="415.5" y="-92.3" font-family="Times,serif" font-size="14.00" fill="#0058ad">r 1054 8</text>
</g>
<!-- T27559&#45;&gt;T27565 -->
<g id="edge11" class="edge">
<title>T27559:f0&#45;&gt;T27565:f3</title>
<path fill="none" stroke="#5b00c0" d="M261.5,-81C261.5,-77.3 495.5,-43.03 546.68,-32.65"/>
<polygon fill="#5b00c0" stroke="#5b00c0" points="547.76,-35.98 556.5,-30 545.93,-29.22 547.76,-35.98"/>
<text text-anchor="middle" x="462" y="-51.8" font-family="Times,serif" font-size="14.00" fill="#5b00c0">rw</text>
</g>
<!-- T27546 -->
<g id="node4" class="node">
<title>T27546</title>
<polygon fill="none" stroke="#0058ad" points="149.5,-324.5 149.5,-353.5 401.5,-353.5 401.5,-324.5 149.5,-324.5"/>
<text text-anchor="middle" x="191" y="-335.3" font-family="Times,serif" font-size="14.00" fill="#0058ad">w 1054 3</text>
<polyline fill="none" stroke="#0058ad" points="232.5,-324.5 232.5,-353.5 "/>
<text text-anchor="middle" x="275.5" y="-335.3" font-family="Times,serif" font-size="14.00" fill="#0058ad">r 1052 nil</text>
<polyline fill="none" stroke="#0058ad" points="318.5,-324.5 318.5,-353.5 "/>
<text text-anchor="middle" x="360" y="-335.3" font-family="Times,serif" font-size="14.00" fill="#0058ad">w 1054 4</text>
</g>
<!-- T27546&#45;&gt;T27526 -->
<g id="edge12" class="edge">
<title>T27546:f1&#45;&gt;T27526:f0</title>
<path fill="none" stroke="#5b00c0" d="M275.5,-354C275.5,-463.65 37.5,-309.35 37.5,-419 37.5,-664 37.5,-664 37.5,-664 37.5,-689.21 40.54,-697.86 41.32,-718.8"/>
<polygon fill="#5b00c0" stroke="#5b00c0" points="37.82,-719.06 41.5,-729 44.82,-718.94 37.82,-719.06"/>
<text text-anchor="middle" x="47" y="-537.8" font-family="Times,serif" font-size="14.00" fill="#5b00c0">rw</text>
</g>
<!-- T27546&#45;&gt;T27549 -->
<g id="edge13" class="edge">
<title>T27546:f2&#45;&gt;T27549:f1</title>
<path fill="none" stroke="#c000a5" d="M360.5,-324C360.5,-285.45 293.98,-309.82 281.5,-283.07"/>
<polygon fill="#c000a5" stroke="#c000a5" points="284.88,-282.13 279.5,-273 278.02,-283.49 284.88,-282.13"/>
<text text-anchor="middle" x="359" y="-294.8" font-family="Times,serif" font-size="14.00" fill="#c000a5">wr</text>
</g>
<!-- T27530&#45;&gt;T27546 -->
<g id="edge15" class="edge">
<title>T27530:f1&#45;&gt;T27546:f2</title>
<path fill="none" stroke="#5b00c0" d="M274.5,-405C274.5,-364.55 345.74,-392.3 358.54,-364.1"/>
<polygon fill="#5b00c0" stroke="#5b00c0" points="362.03,-364.48 360.5,-354 355.16,-363.15 362.03,-364.48"/>
<text text-anchor="middle" x="361" y="-375.8" font-family="Times,serif" font-size="14.00" fill="#5b00c0">rw</text>
</g>
<!-- T27556 -->
<g id="node8" class="node">
<title>T27556</title>
<polygon fill="none" stroke="#0058ad" points="272,-162.5 272,-191.5 509,-191.5 509,-162.5 272,-162.5"/>
<text text-anchor="middle" x="313.5" y="-173.3" font-family="Times,serif" font-size="14.00" fill="#0058ad">w 1054 8</text>
<polyline fill="none" stroke="#0058ad" points="355,-162.5 355,-191.5 "/>
<text text-anchor="middle" x="393.5" y="-173.3" font-family="Times,serif" font-size="14.00" fill="#0058ad">r 1053 4</text>
<polyline fill="none" stroke="#0058ad" points="432,-162.5 432,-191.5 "/>
<text text-anchor="middle" x="470.5" y="-173.3" font-family="Times,serif" font-size="14.00" fill="#0058ad">r 1055 4</text>
</g>
<!-- T27530&#45;&gt;T27556 -->
<g id="edge14" class="edge">
<title>T27530:f1&#45;&gt;T27556:f0</title>
<path fill="none" stroke="#5b00c0" d="M274.5,-405C274.5,-382.42 354.27,-397.02 374.5,-387 393.95,-377.36 401.76,-373.87 410.5,-354 430.36,-308.84 433.25,-286.77 410.5,-243 398.73,-220.35 386.15,-221.76 363.5,-210 346.8,-201.33 324.96,-210.04 316.78,-201.99"/>
<polygon fill="#5b00c0" stroke="#5b00c0" points="319.95,-200.41 313.5,-192 313.3,-202.59 319.95,-200.41"/>
<text text-anchor="middle" x="435" y="-294.8" font-family="Times,serif" font-size="14.00" fill="#5b00c0">rw</text>
</g>
<!-- T27530&#45;&gt;T27565 -->
<g id="edge16" class="edge">
<title>T27530:f1&#45;&gt;T27565:f1</title>
<path fill="none" stroke="#5b00c0" d="M274.5,-405C274.5,-331.12 121.5,-413.88 121.5,-340 121.5,-340 121.5,-340 121.5,-95 121.5,-58.63 154.36,-60.55 188.5,-48 206.28,-41.47 341.48,-49.16 375,-36.68"/>
<polygon fill="#5b00c0" stroke="#5b00c0" points="377.36,-39.26 382.5,-30 372.7,-34.04 377.36,-39.26"/>
<text text-anchor="middle" x="131" y="-213.8" font-family="Times,serif" font-size="14.00" fill="#5b00c0">rw</text>
</g>
<!-- T27541 -->
<g id="node7" class="node">
<title>T27541</title>
<polygon fill="none" stroke="#0058ad" points="534,-405.5 534,-434.5 697,-434.5 697,-405.5 534,-405.5"/>
<text text-anchor="middle" x="577" y="-416.3" font-family="Times,serif" font-size="14.00" fill="#0058ad">r 1054 nil</text>
<polyline fill="none" stroke="#0058ad" points="620,-405.5 620,-434.5 "/>
<text text-anchor="middle" x="658.5" y="-416.3" font-family="Times,serif" font-size="14.00" fill="#0058ad">r 1053 2</text>
</g>
<!-- T27533&#45;&gt;T27541 -->
<g id="edge17" class="edge">
<title>T27533:f3&#45;&gt;T27541:f1</title>
<path fill="none" stroke="#c000a5" d="M658.5,-486C658.5,-467.23 658.5,-460.12 658.5,-445.35"/>
<polygon fill="#c000a5" stroke="#c000a5" points="662,-445 658.5,-435 655,-445 662,-445"/>
<text text-anchor="middle" x="668" y="-456.8" font-family="Times,serif" font-size="14.00" fill="#c000a5">wr</text>
</g>
<!-- T27541&#45;&gt;T27546 -->
<g id="edge19" class="edge">
<title>T27541:f0&#45;&gt;T27546:f2</title>
<path fill="none" stroke="#5b00c0" d="M532.5,-420C468.01,-420 470.13,-347.32 412.67,-339.65"/>
<polygon fill="#5b00c0" stroke="#5b00c0" points="412.7,-336.15 402.5,-339 412.26,-343.13 412.7,-336.15"/>
<text text-anchor="middle" x="482" y="-375.8" font-family="Times,serif" font-size="14.00" fill="#5b00c0">rw</text>
</g>
<!-- T27541&#45;&gt;T27556 -->
<g id="edge18" class="edge">
<title>T27541:f0&#45;&gt;T27556:f0</title>
<path fill="none" stroke="#5b00c0" d="M576.5,-405C576.5,-395.13 586.2,-396.3 589.5,-387 615.8,-312.75 652.41,-267.43 598.5,-210 578.9,-189.13 362.62,-217.1 320.56,-199.45"/>
<polygon fill="#5b00c0" stroke="#5b00c0" points="322.92,-196.85 313.5,-192 317.84,-201.67 322.92,-196.85"/>
<text text-anchor="middle" x="633" y="-294.8" font-family="Times,serif" font-size="14.00" fill="#5b00c0">rw</text>
</g>
<!-- T27541&#45;&gt;T27565 -->
<g id="edge20" class="edge">
<title>T27541:f0&#45;&gt;T27565:f1</title>
<path fill="none" stroke="#5b00c0" d="M576.5,-405C576.5,-376.11 575.5,-368.89 575.5,-340 575.5,-340 575.5,-340 575.5,-95 575.5,-69.22 563.76,-61 541.5,-48 514.15,-32.03 409.4,-58.43 386.81,-39.28"/>
<polygon fill="#5b00c0" stroke="#5b00c0" points="389.89,-37.6 382.5,-30 383.54,-40.54 389.89,-37.6"/>
<text text-anchor="middle" x="585" y="-213.8" font-family="Times,serif" font-size="14.00" fill="#5b00c0">rw</text>
</g>
<!-- T27556&#45;&gt;T27559 -->
<g id="edge22" class="edge">
<title>T27556:f0&#45;&gt;T27559:f1</title>
<path fill="none" stroke="#c000a5" d="M313.5,-162C313.5,-140.7 331.3,-137.01 336.86,-121.21"/>
<polygon fill="#c000a5" stroke="#c000a5" points="340.37,-121.43 338.5,-111 333.46,-120.32 340.37,-121.43"/>
<text text-anchor="middle" x="341" y="-132.8" font-family="Times,serif" font-size="14.00" fill="#c000a5">wr</text>
</g>
<!-- T27556&#45;&gt;T27565 -->
<g id="edge21" class="edge">
<title>T27556:f1&#45;&gt;T27565:f3</title>
<path fill="none" stroke="#5b00c0" d="M393.5,-162C393.5,-123.51 434.55,-136.37 463.5,-111 492.58,-85.51 492.83,-71.54 523.5,-48 532.82,-40.85 545.35,-43.11 551.97,-39.28"/>
<polygon fill="#5b00c0" stroke="#5b00c0" points="555.26,-40.52 556.5,-30 548.97,-37.45 555.26,-40.52"/>
<text text-anchor="middle" x="500" y="-92.3" font-family="Times,serif" font-size="14.00" fill="#5b00c0">rw</text>
</g>
<!-- T27549&#45;&gt;T27559 -->
<g id="edge25" class="edge">
<title>T27549:f0&#45;&gt;T27559:f0</title>
<path fill="none" stroke="#c000a5" d="M156.5,-258C120.89,-258 172.74,-121.49 211.5,-99.09"/>
<polygon fill="#c000a5" stroke="#c000a5" points="212.98,-102.3 221.5,-96 210.91,-95.61 212.98,-102.3"/>
<text text-anchor="middle" x="175" y="-173.3" font-family="Times,serif" font-size="14.00" fill="#c000a5">wr</text>
</g>
<!-- T27549&#45;&gt;T27556 -->
<g id="edge23" class="edge">
<title>T27549:f0&#45;&gt;T27556:f1</title>
<path fill="none" stroke="#c000a5" d="M199.5,-243C199.5,-223.32 350.7,-216.01 386.13,-199.23"/>
<polygon fill="#c000a5" stroke="#c000a5" points="388.82,-201.5 393.5,-192 383.91,-196.51 388.82,-201.5"/>
<text text-anchor="middle" x="350" y="-213.8" font-family="Times,serif" font-size="14.00" fill="#c000a5">wr</text>
</g>
<!-- T27549&#45;&gt;T27565 -->
<g id="edge24" class="edge">
<title>T27549:f0&#45;&gt;T27565:f0</title>
<path fill="none" stroke="#c000a5" d="M199.5,-243C199.5,-141.91 156.9,-23.41 248.29,-15.43"/>
<polygon fill="#c000a5" stroke="#c000a5" points="248.65,-18.91 258.5,-15 248.36,-11.92 248.65,-18.91"/>
<text text-anchor="middle" x="201" y="-132.8" font-family="Times,serif" font-size="14.00" fill="#c000a5">wr</text>
</g>
<!-- T27565&#45;&gt;T27530 -->
<g id="edge26" class="edge">
<title>T27565:f2&#45;&gt;T27530:f3</title>
<path fill="none" stroke="#5b00c0" d="M471.5,-30C471.5,-54.46 509.31,-28.08 523.5,-48 560.64,-100.17 531.42,-129.28 518.5,-192 498.74,-287.96 440.66,-302.62 436.71,-394.9"/>
<polygon fill="#5b00c0" stroke="#5b00c0" points="433.21,-394.93 436.5,-405 440.21,-395.08 433.21,-394.93"/>
<text text-anchor="middle" x="523" y="-213.8" font-family="Times,serif" font-size="14.00" fill="#5b00c0">rw</text>
</g>
<!-- T27527&#45;&gt;T27533 -->
<g id="edge27" class="edge">
<title>T27527:f1&#45;&gt;T27533:f0</title>
<path fill="none" stroke="#c000a5" d="M444.5,-567C444.5,-542.24 414.96,-543.65 406.65,-526.25"/>
<polygon fill="#c000a5" stroke="#c000a5" points="409.98,-525.07 404.5,-516 403.13,-526.51 409.98,-525.07"/>
<text text-anchor="middle" x="445" y="-537.8" font-family="Times,serif" font-size="14.00" fill="#c000a5">wr</text>
</g>
</g>
</svg>
