<?xml version="1.0" encoding="UTF-8" standalone="no"?>
<!DOCTYPE svg PUBLIC "-//W3C//DTD SVG 1.1//EN"
 "http://www.w3.org/Graphics/SVG/1.1/DTD/svg11.dtd">
<!-- Generated by graphviz version 2.43.0 (0)
 -->
<!-- Title: a_graph Pages: 1 -->
<svg width="305pt" height="200pt"
 viewBox="0.00 0.00 305.00 200.00" xmlns="http://www.w3.org/2000/svg" xmlns:xlink="http://www.w3.org/1999/xlink">
<g id="graph0" class="graph" transform="scale(1 1) rotate(0) translate(4 196)">
<title>a_graph</title>
<polygon fill="white" stroke="transparent" points="-4,4 -4,-196 301,-196 301,4 -4,4"/>
<!-- T12959 -->
<g id="node1" class="node">
<title>T12959</title>
<polygon fill="none" stroke="#0058ad" points="0,-162.5 0,-191.5 219,-191.5 219,-162.5 0,-162.5"/>
<text text-anchor="middle" x="37" y="-173.3" font-family="Times,serif" font-size="14.00" fill="#0058ad">w 500 2</text>
<polyline fill="none" stroke="#0058ad" points="74,-162.5 74,-191.5 "/>
<text text-anchor="middle" x="108" y="-173.3" font-family="Times,serif" font-size="14.00" fill="#0058ad">r 500 2</text>
<polyline fill="none" stroke="#0058ad" points="142,-162.5 142,-191.5 "/>
<text text-anchor="middle" x="180.5" y="-173.3" font-family="Times,serif" font-size="14.00" fill="#0058ad">r 501 nil</text>
</g>
<!-- T13007 -->
<g id="node3" class="node">
<title>T13007</title>
<polygon fill="none" stroke="#0058ad" points="72,-81.5 72,-110.5 297,-110.5 297,-81.5 72,-81.5"/>
<text text-anchor="middle" x="109" y="-92.3" font-family="Times,serif" font-size="14.00" fill="#0058ad">w 501 5</text>
<polyline fill="none" stroke="#0058ad" points="146,-81.5 146,-110.5 "/>
<text text-anchor="middle" x="183" y="-92.3" font-family="Times,serif" font-size="14.00" fill="#0058ad">w 501 6</text>
<polyline fill="none" stroke="#0058ad" points="220,-81.5 220,-110.5 "/>
<text text-anchor="middle" x="258.5" y="-92.3" font-family="Times,serif" font-size="14.00" fill="#0058ad">r 502 10</text>
</g>
<!-- T12959&#45;&gt;T13007 -->
<g id="edge1" class="edge">
<title>T12959:f2&#45;&gt;T13007:f1</title>
<path fill="none" stroke="#5b00c0" d="M180.5,-162C180.5,-143.21 181.87,-136.12 182.34,-121.36"/>
<polygon fill="#5b00c0" stroke="#5b00c0" points="185.85,-121.05 182.5,-111 178.85,-120.95 185.85,-121.05"/>
<text text-anchor="middle" x="191" y="-132.8" font-family="Times,serif" font-size="14.00" fill="#5b00c0">rw</text>
</g>
<!-- T13014 -->
<g id="node2" class="node">
<title>T13014</title>
<polygon fill="none" stroke="#0058ad" points="33.5,-0.5 33.5,-29.5 261.5,-29.5 261.5,-0.5 33.5,-0.5"/>
<text text-anchor="middle" x="72" y="-11.3" font-family="Times,serif" font-size="14.00" fill="#0058ad">r 500 nil</text>
<polyline fill="none" stroke="#0058ad" points="110.5,-0.5 110.5,-29.5 "/>
<text text-anchor="middle" x="144.5" y="-11.3" font-family="Times,serif" font-size="14.00" fill="#0058ad">r 501 6</text>
<polyline fill="none" stroke="#0058ad" points="178.5,-0.5 178.5,-29.5 "/>
<text text-anchor="middle" x="220" y="-11.3" font-family="Times,serif" font-size="14.00" fill="#0058ad">w 502 13</text>
</g>
<!-- T13014&#45;&gt;T12959 -->
<g id="edge2" class="edge">
<title>T13014:f0&#45;&gt;T12959:f0</title>
<path fill="none" stroke="#5b00c0" d="M32.5,-15C-29.54,-15 29.8,-88.56 35.99,-151.93"/>
<polygon fill="#5b00c0" stroke="#5b00c0" points="32.5,-152.19 36.5,-162 39.49,-151.84 32.5,-152.19"/>
<text text-anchor="middle" x="36" y="-92.3" font-family="Times,serif" font-size="14.00" fill="#5b00c0">rw</text>
</g>
<!-- T13007&#45;&gt;T13014 -->
<g id="edge3" class="edge">
<title>T13007:f1&#45;&gt;T13014:f1</title>
<path fill="none" stroke="#c000a5" d="M182.5,-81C182.5,-56.71 154.44,-57.38 146.54,-40.11"/>
<polygon fill="#c000a5" stroke="#c000a5" points="149.91,-39.11 144.5,-30 143.05,-40.5 149.91,-39.11"/>
<text text-anchor="middle" x="183" y="-51.8" font-family="Times,serif" font-size="14.00" fill="#c000a5">wr</text>
</g>
</g>
</svg>
