<?xml version="1.0" encoding="UTF-8" standalone="no"?>
<!DOCTYPE svg PUBLIC "-//W3C//DTD SVG 1.1//EN"
 "http://www.w3.org/Graphics/SVG/1.1/DTD/svg11.dtd">
<!-- Generated by graphviz version 2.43.0 (0)
 -->
<!-- Title: a_graph Pages: 1 -->
<svg width="431pt" height="281pt"
 viewBox="0.00 0.00 430.50 281.00" xmlns="http://www.w3.org/2000/svg" xmlns:xlink="http://www.w3.org/1999/xlink">
<g id="graph0" class="graph" transform="scale(1 1) rotate(0) translate(4 277)">
<title>a_graph</title>
<polygon fill="white" stroke="transparent" points="-4,4 -4,-277 426.5,-277 426.5,4 -4,4"/>
<!-- T12065 -->
<g id="node1" class="node">
<title>T12065</title>
<polygon fill="none" stroke="#0058ad" points="0,-243.5 0,-272.5 234,-272.5 234,-243.5 0,-243.5"/>
<text text-anchor="middle" x="37" y="-254.3" font-family="Times,serif" font-size="14.00" fill="#0058ad">w 465 3</text>
<polyline fill="none" stroke="#0058ad" points="74,-243.5 74,-272.5 "/>
<text text-anchor="middle" x="115.5" y="-254.3" font-family="Times,serif" font-size="14.00" fill="#0058ad">w 463 14</text>
<polyline fill="none" stroke="#0058ad" points="157,-243.5 157,-272.5 "/>
<text text-anchor="middle" x="195.5" y="-254.3" font-family="Times,serif" font-size="14.00" fill="#0058ad">r 467 nil</text>
</g>
<!-- T12078 -->
<g id="node4" class="node">
<title>T12078</title>
<polygon fill="none" stroke="#0058ad" points="135.5,-162.5 135.5,-191.5 422.5,-191.5 422.5,-162.5 135.5,-162.5"/>
<text text-anchor="middle" x="172.5" y="-173.3" font-family="Times,serif" font-size="14.00" fill="#0058ad">w 467 6</text>
<polyline fill="none" stroke="#0058ad" points="209.5,-162.5 209.5,-191.5 "/>
<text text-anchor="middle" x="248" y="-173.3" font-family="Times,serif" font-size="14.00" fill="#0058ad">r 466 nil</text>
<polyline fill="none" stroke="#0058ad" points="286.5,-162.5 286.5,-191.5 "/>
<text text-anchor="middle" x="320.5" y="-173.3" font-family="Times,serif" font-size="14.00" fill="#0058ad">r 467 6</text>
<polyline fill="none" stroke="#0058ad" points="354.5,-162.5 354.5,-191.5 "/>
<text text-anchor="middle" x="388.5" y="-173.3" font-family="Times,serif" font-size="14.00" fill="#0058ad">r 467 6</text>
</g>
<!-- T12065&#45;&gt;T12078 -->
<g id="edge1" class="edge">
<title>T12065:f2&#45;&gt;T12078:f0</title>
<path fill="none" stroke="#5b00c0" d="M196,-243C196,-221.86 178.91,-217.92 173.57,-202.16"/>
<polygon fill="#5b00c0" stroke="#5b00c0" points="176.99,-201.35 172,-192 170.07,-202.42 176.99,-201.35"/>
<text text-anchor="middle" x="199.5" y="-213.8" font-family="Times,serif" font-size="14.00" fill="#5b00c0">rw</text>
</g>
<!-- T12069 -->
<g id="node2" class="node">
<title>T12069</title>
<polygon fill="none" stroke="#0058ad" points="150,-81.5 150,-110.5 224,-110.5 224,-81.5 150,-81.5"/>
<text text-anchor="middle" x="187" y="-92.3" font-family="Times,serif" font-size="14.00" fill="#0058ad">w 466 1</text>
</g>
<!-- T12071 -->
<g id="node3" class="node">
<title>T12071</title>
<polygon fill="none" stroke="#0058ad" points="39,-0.5 39,-29.5 267,-29.5 267,-0.5 39,-0.5"/>
<text text-anchor="middle" x="73" y="-11.3" font-family="Times,serif" font-size="14.00" fill="#0058ad">r 466 1</text>
<polyline fill="none" stroke="#0058ad" points="107,-0.5 107,-29.5 "/>
<text text-anchor="middle" x="145.5" y="-11.3" font-family="Times,serif" font-size="14.00" fill="#0058ad">r 465 nil</text>
<polyline fill="none" stroke="#0058ad" points="184,-0.5 184,-29.5 "/>
<text text-anchor="middle" x="225.5" y="-11.3" font-family="Times,serif" font-size="14.00" fill="#0058ad">w 463 15</text>
</g>
<!-- T12069&#45;&gt;T12071 -->
<g id="edge2" class="edge">
<title>T12069:f0&#45;&gt;T12071:f0</title>
<path fill="none" stroke="#c000a5" d="M159.11,-81.4C133.27,-67.7 96.52,-47.76 80.72,-36.93"/>
<polygon fill="#c000a5" stroke="#c000a5" points="82.78,-34.08 73,-30 78.1,-39.29 82.78,-34.08"/>
<text text-anchor="middle" x="132.5" y="-51.8" font-family="Times,serif" font-size="14.00" fill="#c000a5">wr</text>
</g>
<!-- T12071&#45;&gt;T12065 -->
<g id="edge3" class="edge">
<title>T12071:f1&#45;&gt;T12065:f0</title>
<path fill="none" stroke="#5b00c0" d="M145,-30C145,-52.37 113.31,-31.7 98,-48 38.2,-111.67 37,-149.26 37,-232.85"/>
<polygon fill="#5b00c0" stroke="#5b00c0" points="33.5,-233 37,-243 40.5,-233 33.5,-233"/>
<text text-anchor="middle" x="56.5" y="-132.8" font-family="Times,serif" font-size="14.00" fill="#5b00c0">rw</text>
</g>
<!-- T12078&#45;&gt;T12069 -->
<g id="edge4" class="edge">
<title>T12078:f1&#45;&gt;T12069:f0</title>
<path fill="none" stroke="#5b00c0" d="M248,-162C248,-143.61 235.07,-128.16 221.11,-116.85"/>
<polygon fill="#5b00c0" stroke="#5b00c0" points="222.97,-113.87 212.87,-110.67 218.77,-119.47 222.97,-113.87"/>
<text text-anchor="middle" x="252.5" y="-132.8" font-family="Times,serif" font-size="14.00" fill="#5b00c0">rw</text>
</g>
</g>
</svg>
