<?xml version="1.0" encoding="UTF-8" standalone="no"?>
<!DOCTYPE svg PUBLIC "-//W3C//DTD SVG 1.1//EN"
 "http://www.w3.org/Graphics/SVG/1.1/DTD/svg11.dtd">
<!-- Generated by graphviz version 2.43.0 (0)
 -->
<!-- Title: a_graph Pages: 1 -->
<svg width="532pt" height="281pt"
 viewBox="0.00 0.00 531.50 281.00" xmlns="http://www.w3.org/2000/svg" xmlns:xlink="http://www.w3.org/1999/xlink">
<g id="graph0" class="graph" transform="scale(1 1) rotate(0) translate(4 277)">
<title>a_graph</title>
<polygon fill="white" stroke="transparent" points="-4,4 -4,-277 527.5,-277 527.5,4 -4,4"/>
<!-- T9796 -->
<g id="node1" class="node">
<title>T9796</title>
<polygon fill="none" stroke="#0058ad" points="118,-243.5 118,-272.5 269,-272.5 269,-243.5 118,-243.5"/>
<text text-anchor="middle" x="155" y="-254.3" font-family="Times,serif" font-size="14.00" fill="#0058ad">w 377 3</text>
<polyline fill="none" stroke="#0058ad" points="192,-243.5 192,-272.5 "/>
<text text-anchor="middle" x="230.5" y="-254.3" font-family="Times,serif" font-size="14.00" fill="#0058ad">r 380 nil</text>
</g>
<!-- T9799 -->
<g id="node4" class="node">
<title>T9799</title>
<polygon fill="none" stroke="#0058ad" points="76,-162.5 76,-191.5 375,-191.5 375,-162.5 76,-162.5"/>
<text text-anchor="middle" x="113" y="-173.3" font-family="Times,serif" font-size="14.00" fill="#0058ad">w 380 3</text>
<polyline fill="none" stroke="#0058ad" points="150,-162.5 150,-191.5 "/>
<text text-anchor="middle" x="187" y="-173.3" font-family="Times,serif" font-size="14.00" fill="#0058ad">w 380 4</text>
<polyline fill="none" stroke="#0058ad" points="224,-162.5 224,-191.5 "/>
<text text-anchor="middle" x="262.5" y="-173.3" font-family="Times,serif" font-size="14.00" fill="#0058ad">r 379 nil</text>
<polyline fill="none" stroke="#0058ad" points="301,-162.5 301,-191.5 "/>
<text text-anchor="middle" x="338" y="-173.3" font-family="Times,serif" font-size="14.00" fill="#0058ad">w 380 5</text>
</g>
<!-- T9796&#45;&gt;T9799 -->
<g id="edge1" class="edge">
<title>T9796:f1&#45;&gt;T9799:f3</title>
<path fill="none" stroke="#5b00c0" d="M270.5,-258C309.16,-258 334.14,-237.87 337.98,-201.99"/>
<polygon fill="#5b00c0" stroke="#5b00c0" points="341.48,-202.17 338.5,-192 334.49,-201.81 341.48,-202.17"/>
<text text-anchor="middle" x="346" y="-213.8" font-family="Times,serif" font-size="14.00" fill="#5b00c0">rw</text>
</g>
<!-- T9802 -->
<g id="node2" class="node">
<title>T9802</title>
<polygon fill="none" stroke="#0058ad" points="301.5,-81.5 301.5,-110.5 523.5,-110.5 523.5,-81.5 301.5,-81.5"/>
<text text-anchor="middle" x="335.5" y="-92.3" font-family="Times,serif" font-size="14.00" fill="#0058ad">r 380 5</text>
<polyline fill="none" stroke="#0058ad" points="369.5,-81.5 369.5,-110.5 "/>
<text text-anchor="middle" x="408" y="-92.3" font-family="Times,serif" font-size="14.00" fill="#0058ad">r 379 nil</text>
<polyline fill="none" stroke="#0058ad" points="446.5,-81.5 446.5,-110.5 "/>
<text text-anchor="middle" x="485" y="-92.3" font-family="Times,serif" font-size="14.00" fill="#0058ad">r 379 nil</text>
</g>
<!-- T9838 -->
<g id="node3" class="node">
<title>T9838</title>
<polygon fill="none" stroke="#0058ad" points="0,-0.5 0,-29.5 299,-29.5 299,-0.5 0,-0.5"/>
<text text-anchor="middle" x="37" y="-11.3" font-family="Times,serif" font-size="14.00" fill="#0058ad">w 382 2</text>
<polyline fill="none" stroke="#0058ad" points="74,-0.5 74,-29.5 "/>
<text text-anchor="middle" x="111" y="-11.3" font-family="Times,serif" font-size="14.00" fill="#0058ad">w 382 3</text>
<polyline fill="none" stroke="#0058ad" points="148,-0.5 148,-29.5 "/>
<text text-anchor="middle" x="186.5" y="-11.3" font-family="Times,serif" font-size="14.00" fill="#0058ad">r 377 nil</text>
<polyline fill="none" stroke="#0058ad" points="225,-0.5 225,-29.5 "/>
<text text-anchor="middle" x="262" y="-11.3" font-family="Times,serif" font-size="14.00" fill="#0058ad">w 379 7</text>
</g>
<!-- T9802&#45;&gt;T9838 -->
<g id="edge2" class="edge">
<title>T9802:f1&#45;&gt;T9838:f3</title>
<path fill="none" stroke="#5b00c0" d="M407.5,-81C407.5,-28.51 362.38,-16.39 310.59,-15.12"/>
<polygon fill="#5b00c0" stroke="#5b00c0" points="310.54,-11.62 300.5,-15 310.46,-18.62 310.54,-11.62"/>
<text text-anchor="middle" x="414" y="-51.8" font-family="Times,serif" font-size="14.00" fill="#5b00c0">rw</text>
</g>
<!-- T9838&#45;&gt;T9796 -->
<g id="edge3" class="edge">
<title>T9838:f2&#45;&gt;T9796:f0</title>
<path fill="none" stroke="#5b00c0" d="M186.5,-30C186.5,-109.29 95.09,-88.05 66.5,-162 50.41,-203.63 65.8,-250.64 106.53,-257.22"/>
<polygon fill="#5b00c0" stroke="#5b00c0" points="106.26,-260.71 116.5,-258 106.8,-253.73 106.26,-260.71"/>
<text text-anchor="middle" x="98" y="-132.8" font-family="Times,serif" font-size="14.00" fill="#5b00c0">rw</text>
</g>
<!-- T9799&#45;&gt;T9802 -->
<g id="edge5" class="edge">
<title>T9799:f3&#45;&gt;T9802:f0</title>
<path fill="none" stroke="#c000a5" d="M338.5,-162C338.5,-143.2 336.44,-136.13 335.74,-121.36"/>
<polygon fill="#c000a5" stroke="#c000a5" points="339.23,-120.92 335.5,-111 332.23,-121.08 339.23,-120.92"/>
<text text-anchor="middle" x="347" y="-132.8" font-family="Times,serif" font-size="14.00" fill="#c000a5">wr</text>
</g>
<!-- T9799&#45;&gt;T9838 -->
<g id="edge4" class="edge">
<title>T9799:f2&#45;&gt;T9838:f3</title>
<path fill="none" stroke="#5b00c0" d="M262.5,-162C262.5,-106.89 262.5,-90.6 262.5,-40.19"/>
<polygon fill="#5b00c0" stroke="#5b00c0" points="266,-40 262.5,-30 259,-40 266,-40"/>
<text text-anchor="middle" x="273" y="-92.3" font-family="Times,serif" font-size="14.00" fill="#5b00c0">rw</text>
</g>
</g>
</svg>
