<?xml version="1.0" encoding="UTF-8" standalone="no"?>
<!DOCTYPE svg PUBLIC "-//W3C//DTD SVG 1.1//EN"
 "http://www.w3.org/Graphics/SVG/1.1/DTD/svg11.dtd">
<!-- Generated by graphviz version 2.43.0 (0)
 -->
<!-- Title: a_graph Pages: 1 -->
<svg width="308pt" height="119pt"
 viewBox="0.00 0.00 307.50 119.00" xmlns="http://www.w3.org/2000/svg" xmlns:xlink="http://www.w3.org/1999/xlink">
<g id="graph0" class="graph" transform="scale(1 1) rotate(0) translate(4 115)">
<title>a_graph</title>
<polygon fill="white" stroke="transparent" points="-4,4 -4,-115 303.5,-115 303.5,4 -4,4"/>
<!-- T12267 -->
<g id="node1" class="node">
<title>T12267</title>
<polygon fill="none" stroke="#0058ad" points="0,-81.5 0,-110.5 296,-110.5 296,-81.5 0,-81.5"/>
<text text-anchor="middle" x="34" y="-92.3" font-family="Times,serif" font-size="14.00" fill="#0058ad">r 465 3</text>
<polyline fill="none" stroke="#0058ad" points="68,-81.5 68,-110.5 "/>
<text text-anchor="middle" x="106.5" y="-92.3" font-family="Times,serif" font-size="14.00" fill="#0058ad">r 472 16</text>
<polyline fill="none" stroke="#0058ad" points="145,-81.5 145,-110.5 "/>
<text text-anchor="middle" x="183.5" y="-92.3" font-family="Times,serif" font-size="14.00" fill="#0058ad">r 475 nil</text>
<polyline fill="none" stroke="#0058ad" points="222,-81.5 222,-110.5 "/>
<text text-anchor="middle" x="259" y="-92.3" font-family="Times,serif" font-size="14.00" fill="#0058ad">w 474 1</text>
</g>
<!-- T12269 -->
<g id="node2" class="node">
<title>T12269</title>
<polygon fill="none" stroke="#0058ad" points="74.5,-0.5 74.5,-29.5 299.5,-29.5 299.5,-0.5 74.5,-0.5"/>
<text text-anchor="middle" x="111.5" y="-11.3" font-family="Times,serif" font-size="14.00" fill="#0058ad">w 475 1</text>
<polyline fill="none" stroke="#0058ad" points="148.5,-0.5 148.5,-29.5 "/>
<text text-anchor="middle" x="187" y="-11.3" font-family="Times,serif" font-size="14.00" fill="#0058ad">r 474 nil</text>
<polyline fill="none" stroke="#0058ad" points="225.5,-0.5 225.5,-29.5 "/>
<text text-anchor="middle" x="262.5" y="-11.3" font-family="Times,serif" font-size="14.00" fill="#0058ad">w 475 2</text>
</g>
<!-- T12267&#45;&gt;T12269 -->
<g id="edge1" class="edge">
<title>T12267:f2&#45;&gt;T12269:f2</title>
<path fill="none" stroke="#5b00c0" d="M184,-81C184,-62.6 194.05,-58.72 209,-48 225.7,-36.02 250.91,-48.33 259.78,-39.79"/>
<polygon fill="#5b00c0" stroke="#5b00c0" points="263.2,-40.59 263,-30 256.55,-38.41 263.2,-40.59"/>
<text text-anchor="middle" x="218.5" y="-51.8" font-family="Times,serif" font-size="14.00" fill="#5b00c0">rw</text>
</g>
<!-- T12269&#45;&gt;T12267 -->
<g id="edge2" class="edge">
<title>T12269:f1&#45;&gt;T12267:f3</title>
<path fill="none" stroke="#5b00c0" d="M187,-30C187,-49.9 211.75,-36.52 228,-48 241.1,-57.25 253.01,-59.94 257.3,-70.83"/>
<polygon fill="#5b00c0" stroke="#5b00c0" points="253.9,-71.71 259,-81 260.81,-70.56 253.9,-71.71"/>
<text text-anchor="middle" x="260.5" y="-51.8" font-family="Times,serif" font-size="14.00" fill="#5b00c0">rw</text>
</g>
</g>
</svg>
