<?xml version="1.0" encoding="UTF-8" standalone="no"?>
<!DOCTYPE svg PUBLIC "-//W3C//DTD SVG 1.1//EN"
 "http://www.w3.org/Graphics/SVG/1.1/DTD/svg11.dtd">
<!-- Generated by graphviz version 2.43.0 (0)
 -->
<!-- Title: a_graph Pages: 1 -->
<svg width="1077pt" height="686pt"
 viewBox="0.00 0.00 1076.50 686.00" xmlns="http://www.w3.org/2000/svg" xmlns:xlink="http://www.w3.org/1999/xlink">
<g id="graph0" class="graph" transform="scale(1 1) rotate(0) translate(4 682)">
<title>a_graph</title>
<polygon fill="white" stroke="transparent" points="-4,4 -4,-682 1072.5,-682 1072.5,4 -4,4"/>
<!-- T19075 -->
<g id="node1" class="node">
<title>T19075</title>
<polygon fill="none" stroke="#0058ad" points="402.5,-648.5 402.5,-677.5 627.5,-677.5 627.5,-648.5 402.5,-648.5"/>
<text text-anchor="middle" x="436.5" y="-659.3" font-family="Times,serif" font-size="14.00" fill="#0058ad">r 731 6</text>
<polyline fill="none" stroke="#0058ad" points="470.5,-648.5 470.5,-677.5 "/>
<text text-anchor="middle" x="507.5" y="-659.3" font-family="Times,serif" font-size="14.00" fill="#0058ad">w 723 9</text>
<polyline fill="none" stroke="#0058ad" points="544.5,-648.5 544.5,-677.5 "/>
<text text-anchor="middle" x="586" y="-659.3" font-family="Times,serif" font-size="14.00" fill="#0058ad">w 705 10</text>
</g>
<!-- T19115 -->
<g id="node5" class="node">
<title>T19115</title>
<polygon fill="none" stroke="#0058ad" points="625.5,-567.5 625.5,-596.5 918.5,-596.5 918.5,-567.5 625.5,-567.5"/>
<text text-anchor="middle" x="664" y="-578.3" font-family="Times,serif" font-size="14.00" fill="#0058ad">r 732 nil</text>
<polyline fill="none" stroke="#0058ad" points="702.5,-567.5 702.5,-596.5 "/>
<text text-anchor="middle" x="739.5" y="-578.3" font-family="Times,serif" font-size="14.00" fill="#0058ad">w 733 5</text>
<polyline fill="none" stroke="#0058ad" points="776.5,-567.5 776.5,-596.5 "/>
<text text-anchor="middle" x="813.5" y="-578.3" font-family="Times,serif" font-size="14.00" fill="#0058ad">w 733 6</text>
<polyline fill="none" stroke="#0058ad" points="850.5,-567.5 850.5,-596.5 "/>
<text text-anchor="middle" x="884.5" y="-578.3" font-family="Times,serif" font-size="14.00" fill="#0058ad">r 723 9</text>
</g>
<!-- T19075&#45;&gt;T19115 -->
<g id="edge1" class="edge">
<title>T19075:f1&#45;&gt;T19115:f3</title>
<path fill="none" stroke="#c000a5" d="M507,-648C507,-482.12 868.93,-754.36 884.48,-607.3"/>
<polygon fill="#c000a5" stroke="#c000a5" points="888,-607.16 885,-597 881,-606.81 888,-607.16"/>
<text text-anchor="middle" x="892.5" y="-618.8" font-family="Times,serif" font-size="14.00" fill="#c000a5">wr</text>
</g>
<!-- T19173 -->
<g id="node2" class="node">
<title>T19173</title>
<polygon fill="none" stroke="#0058ad" points="413,-405.5 413,-434.5 573,-434.5 573,-405.5 413,-405.5"/>
<text text-anchor="middle" x="454.5" y="-416.3" font-family="Times,serif" font-size="14.00" fill="#0058ad">w 732 12</text>
<polyline fill="none" stroke="#0058ad" points="496,-405.5 496,-434.5 "/>
<text text-anchor="middle" x="534.5" y="-416.3" font-family="Times,serif" font-size="14.00" fill="#0058ad">r 730 nil</text>
</g>
<!-- T19119 -->
<g id="node10" class="node">
<title>T19119</title>
<polygon fill="none" stroke="#0058ad" points="387,-162.5 387,-191.5 529,-191.5 529,-162.5 387,-162.5"/>
<text text-anchor="middle" x="421" y="-173.3" font-family="Times,serif" font-size="14.00" fill="#0058ad">r 730 1</text>
<polyline fill="none" stroke="#0058ad" points="455,-162.5 455,-191.5 "/>
<text text-anchor="middle" x="492" y="-173.3" font-family="Times,serif" font-size="14.00" fill="#0058ad">w 730 2</text>
</g>
<!-- T19173&#45;&gt;T19119 -->
<g id="edge2" class="edge">
<title>T19173:f1&#45;&gt;T19119:f1</title>
<path fill="none" stroke="#5b00c0" d="M574,-420C634.19,-420 815.7,-290.7 779,-243 746,-200.11 604.03,-179.33 540.25,-177.19"/>
<polygon fill="#5b00c0" stroke="#5b00c0" points="540.06,-173.68 530,-177 539.93,-180.68 540.06,-173.68"/>
<text text-anchor="middle" x="779.5" y="-294.8" font-family="Times,serif" font-size="14.00" fill="#5b00c0">rw</text>
</g>
<!-- T19072 -->
<g id="node11" class="node">
<title>T19072</title>
<polygon fill="none" stroke="#0058ad" points="218.5,-324.5 218.5,-353.5 511.5,-353.5 511.5,-324.5 218.5,-324.5"/>
<text text-anchor="middle" x="257" y="-335.3" font-family="Times,serif" font-size="14.00" fill="#0058ad">r 728 14</text>
<polyline fill="none" stroke="#0058ad" points="295.5,-324.5 295.5,-353.5 "/>
<text text-anchor="middle" x="332.5" y="-335.3" font-family="Times,serif" font-size="14.00" fill="#0058ad">w 731 6</text>
<polyline fill="none" stroke="#0058ad" points="369.5,-324.5 369.5,-353.5 "/>
<text text-anchor="middle" x="406.5" y="-335.3" font-family="Times,serif" font-size="14.00" fill="#0058ad">w 730 1</text>
<polyline fill="none" stroke="#0058ad" points="443.5,-324.5 443.5,-353.5 "/>
<text text-anchor="middle" x="477.5" y="-335.3" font-family="Times,serif" font-size="14.00" fill="#0058ad">r 730 1</text>
</g>
<!-- T19173&#45;&gt;T19072 -->
<g id="edge3" class="edge">
<title>T19173:f1&#45;&gt;T19072:f2</title>
<path fill="none" stroke="#5b00c0" d="M535,-405C535,-347.59 422.5,-406.82 408.44,-363.99"/>
<polygon fill="#5b00c0" stroke="#5b00c0" points="411.89,-363.4 407,-354 404.96,-364.4 411.89,-363.4"/>
<text text-anchor="middle" x="537.5" y="-375.8" font-family="Times,serif" font-size="14.00" fill="#5b00c0">rw</text>
</g>
<!-- T19112 -->
<g id="node3" class="node">
<title>T19112</title>
<polygon fill="none" stroke="#0058ad" points="628,-243.5 628,-272.5 770,-272.5 770,-243.5 628,-243.5"/>
<text text-anchor="middle" x="662" y="-254.3" font-family="Times,serif" font-size="14.00" fill="#0058ad">r 730 1</text>
<polyline fill="none" stroke="#0058ad" points="696,-243.5 696,-272.5 "/>
<text text-anchor="middle" x="733" y="-254.3" font-family="Times,serif" font-size="14.00" fill="#0058ad">w 733 1</text>
</g>
<!-- T19112&#45;&gt;T19119 -->
<g id="edge4" class="edge">
<title>T19112:f0&#45;&gt;T19119:f1</title>
<path fill="none" stroke="#5b00c0" d="M627,-258C619.44,-258 623.93,-248.72 619,-243 589.17,-208.39 580.47,-181.19 540.05,-177.44"/>
<polygon fill="#5b00c0" stroke="#5b00c0" points="540.14,-173.94 530,-177 539.84,-180.94 540.14,-173.94"/>
<text text-anchor="middle" x="612.5" y="-213.8" font-family="Times,serif" font-size="14.00" fill="#5b00c0">rw</text>
</g>
<!-- T19135 -->
<g id="node4" class="node">
<title>T19135</title>
<polygon fill="none" stroke="#0058ad" points="608.5,-0.5 608.5,-29.5 759.5,-29.5 759.5,-0.5 608.5,-0.5"/>
<text text-anchor="middle" x="647" y="-11.3" font-family="Times,serif" font-size="14.00" fill="#0058ad">r 732 nil</text>
<polyline fill="none" stroke="#0058ad" points="685.5,-0.5 685.5,-29.5 "/>
<text text-anchor="middle" x="722.5" y="-11.3" font-family="Times,serif" font-size="14.00" fill="#0058ad">w 732 3</text>
</g>
<!-- T19135&#45;&gt;T19173 -->
<g id="edge5" class="edge">
<title>T19135:f0&#45;&gt;T19173:f0</title>
<path fill="none" stroke="#5b00c0" d="M607,-15C538.97,-15 0,-26.97 0,-95 0,-340 0,-340 0,-340 0,-384.08 326.5,-416.31 401.6,-419.7"/>
<polygon fill="#5b00c0" stroke="#5b00c0" points="401.9,-423.21 412,-420 402.1,-416.22 401.9,-423.21"/>
<text text-anchor="middle" x="9.5" y="-213.8" font-family="Times,serif" font-size="14.00" fill="#5b00c0">rw</text>
</g>
<!-- T19115&#45;&gt;T19173 -->
<g id="edge8" class="edge">
<title>T19115:f0&#45;&gt;T19173:f0</title>
<path fill="none" stroke="#5b00c0" d="M624,-582C527.53,-582 458.83,-538.05 454.24,-445.06"/>
<polygon fill="#5b00c0" stroke="#5b00c0" points="457.74,-444.91 454,-435 450.74,-445.08 457.74,-444.91"/>
<text text-anchor="middle" x="483.5" y="-497.3" font-family="Times,serif" font-size="14.00" fill="#5b00c0">rw</text>
</g>
<!-- T19115&#45;&gt;T19135 -->
<g id="edge7" class="edge">
<title>T19115:f0&#45;&gt;T19135:f1</title>
<path fill="none" stroke="#5b00c0" d="M664,-567C664,-410.21 836,-415.79 836,-259 836,-259 836,-259 836,-95 836,-49.78 813.4,-19.61 771.21,-15.48"/>
<polygon fill="#5b00c0" stroke="#5b00c0" points="771.15,-11.98 761,-15 770.82,-18.97 771.15,-11.98"/>
<text text-anchor="middle" x="842.5" y="-294.8" font-family="Times,serif" font-size="14.00" fill="#5b00c0">rw</text>
</g>
<!-- T19122 -->
<g id="node6" class="node">
<title>T19122</title>
<polygon fill="none" stroke="#0058ad" points="849.5,-486.5 849.5,-515.5 1068.5,-515.5 1068.5,-486.5 849.5,-486.5"/>
<text text-anchor="middle" x="888" y="-497.3" font-family="Times,serif" font-size="14.00" fill="#0058ad">r 732 nil</text>
<polyline fill="none" stroke="#0058ad" points="926.5,-486.5 926.5,-515.5 "/>
<text text-anchor="middle" x="960.5" y="-497.3" font-family="Times,serif" font-size="14.00" fill="#0058ad">r 733 6</text>
<polyline fill="none" stroke="#0058ad" points="994.5,-486.5 994.5,-515.5 "/>
<text text-anchor="middle" x="1031.5" y="-497.3" font-family="Times,serif" font-size="14.00" fill="#0058ad">w 733 7</text>
</g>
<!-- T19115&#45;&gt;T19122 -->
<g id="edge6" class="edge">
<title>T19115:f2&#45;&gt;T19122:f1</title>
<path fill="none" stroke="#c000a5" d="M814,-567C814,-536.07 931.63,-547.33 956.44,-525.3"/>
<polygon fill="#c000a5" stroke="#c000a5" points="959.74,-526.52 961,-516 953.46,-523.44 959.74,-526.52"/>
<text text-anchor="middle" x="945.5" y="-537.8" font-family="Times,serif" font-size="14.00" fill="#c000a5">wr</text>
</g>
<!-- T19122&#45;&gt;T19173 -->
<g id="edge10" class="edge">
<title>T19122:f0&#45;&gt;T19173:f0</title>
<path fill="none" stroke="#5b00c0" d="M848,-501C719.11,-501 689.12,-474.26 562,-453 541.56,-449.58 477.62,-456.58 459.08,-443.7"/>
<polygon fill="#5b00c0" stroke="#5b00c0" points="462.06,-441.87 454,-435 456.02,-445.4 462.06,-441.87"/>
<text text-anchor="middle" x="642.5" y="-456.8" font-family="Times,serif" font-size="14.00" fill="#5b00c0">rw</text>
</g>
<!-- T19122&#45;&gt;T19135 -->
<g id="edge9" class="edge">
<title>T19122:f0&#45;&gt;T19135:f1</title>
<path fill="none" stroke="#5b00c0" d="M888,-486C888,-457.11 888,-449.89 888,-421 888,-421 888,-421 888,-95 888,-31.68 833.68,-16.49 771.11,-15.11"/>
<polygon fill="#5b00c0" stroke="#5b00c0" points="771.04,-11.61 761,-15 770.96,-18.61 771.04,-11.61"/>
<text text-anchor="middle" x="897.5" y="-254.3" font-family="Times,serif" font-size="14.00" fill="#5b00c0">rw</text>
</g>
<!-- T19095 -->
<g id="node7" class="node">
<title>T19095</title>
<polygon fill="none" stroke="#0058ad" points="138,-243.5 138,-272.5 440,-272.5 440,-243.5 138,-243.5"/>
<text text-anchor="middle" x="179.5" y="-254.3" font-family="Times,serif" font-size="14.00" fill="#0058ad">w 728 16</text>
<polyline fill="none" stroke="#0058ad" points="221,-243.5 221,-272.5 "/>
<text text-anchor="middle" x="255" y="-254.3" font-family="Times,serif" font-size="14.00" fill="#0058ad">r 731 8</text>
<polyline fill="none" stroke="#0058ad" points="289,-243.5 289,-272.5 "/>
<text text-anchor="middle" x="323" y="-254.3" font-family="Times,serif" font-size="14.00" fill="#0058ad">r 730 1</text>
<polyline fill="none" stroke="#0058ad" points="357,-243.5 357,-272.5 "/>
<text text-anchor="middle" x="398.5" y="-254.3" font-family="Times,serif" font-size="14.00" fill="#0058ad">w 731 12</text>
</g>
<!-- T19095&#45;&gt;T19119 -->
<g id="edge11" class="edge">
<title>T19095:f2&#45;&gt;T19119:f1</title>
<path fill="none" stroke="#5b00c0" d="M323,-243C323,-225.84 452.39,-214.68 484.74,-199.02"/>
<polygon fill="#5b00c0" stroke="#5b00c0" points="487.24,-201.47 492,-192 482.38,-196.43 487.24,-201.47"/>
<text text-anchor="middle" x="451.5" y="-213.8" font-family="Times,serif" font-size="14.00" fill="#5b00c0">rw</text>
</g>
<!-- T19126 -->
<g id="node8" class="node">
<title>T19126</title>
<polygon fill="none" stroke="#0058ad" points="380.5,-81.5 380.5,-110.5 593.5,-110.5 593.5,-81.5 380.5,-81.5"/>
<text text-anchor="middle" x="419" y="-92.3" font-family="Times,serif" font-size="14.00" fill="#0058ad">r 732 nil</text>
<polyline fill="none" stroke="#0058ad" points="457.5,-81.5 457.5,-110.5 "/>
<text text-anchor="middle" x="491.5" y="-92.3" font-family="Times,serif" font-size="14.00" fill="#0058ad">r 730 2</text>
<polyline fill="none" stroke="#0058ad" points="525.5,-81.5 525.5,-110.5 "/>
<text text-anchor="middle" x="559.5" y="-92.3" font-family="Times,serif" font-size="14.00" fill="#0058ad">r 730 2</text>
</g>
<!-- T19126&#45;&gt;T19173 -->
<g id="edge13" class="edge">
<title>T19126:f0&#45;&gt;T19173:f0</title>
<path fill="none" stroke="#5b00c0" d="M379,-96C103.23,-96 5.99,-139.68 80,-273 156.64,-411.06 246.67,-419.68 401.69,-419.99"/>
<polygon fill="#5b00c0" stroke="#5b00c0" points="402,-423.49 412,-420 402,-416.49 402,-423.49"/>
<text text-anchor="middle" x="89.5" y="-254.3" font-family="Times,serif" font-size="14.00" fill="#5b00c0">rw</text>
</g>
<!-- T19126&#45;&gt;T19135 -->
<g id="edge12" class="edge">
<title>T19126:f0&#45;&gt;T19135:f1</title>
<path fill="none" stroke="#5b00c0" d="M419,-81C419,52.39 707.18,-155.49 722.38,-40.1"/>
<polygon fill="#5b00c0" stroke="#5b00c0" points="725.88,-40.2 723,-30 718.89,-39.77 725.88,-40.2"/>
<text text-anchor="middle" x="728.5" y="-51.8" font-family="Times,serif" font-size="14.00" fill="#5b00c0">rw</text>
</g>
<!-- T19091 -->
<g id="node9" class="node">
<title>T19091</title>
<polygon fill="none" stroke="#0058ad" points="458.5,-243.5 458.5,-272.5 609.5,-272.5 609.5,-243.5 458.5,-243.5"/>
<text text-anchor="middle" x="492.5" y="-254.3" font-family="Times,serif" font-size="14.00" fill="#0058ad">r 730 1</text>
<polyline fill="none" stroke="#0058ad" points="526.5,-243.5 526.5,-272.5 "/>
<text text-anchor="middle" x="568" y="-254.3" font-family="Times,serif" font-size="14.00" fill="#0058ad">w 728 15</text>
</g>
<!-- T19091&#45;&gt;T19119 -->
<g id="edge14" class="edge">
<title>T19091:f0&#45;&gt;T19119:f1</title>
<path fill="none" stroke="#5b00c0" d="M492,-243C492,-224.23 492,-217.12 492,-202.35"/>
<polygon fill="#5b00c0" stroke="#5b00c0" points="495.5,-202 492,-192 488.5,-202 495.5,-202"/>
<text text-anchor="middle" x="501.5" y="-213.8" font-family="Times,serif" font-size="14.00" fill="#5b00c0">rw</text>
</g>
<!-- T19119&#45;&gt;T19126 -->
<g id="edge15" class="edge">
<title>T19119:f1&#45;&gt;T19126:f1</title>
<path fill="none" stroke="#c000a5" d="M492,-162C492,-143.23 492,-136.12 492,-121.35"/>
<polygon fill="#c000a5" stroke="#c000a5" points="495.5,-121 492,-111 488.5,-121 495.5,-121"/>
<text text-anchor="middle" x="501.5" y="-132.8" font-family="Times,serif" font-size="14.00" fill="#c000a5">wr</text>
</g>
<!-- T19072&#45;&gt;T19075 -->
<g id="edge20" class="edge">
<title>T19072:f1&#45;&gt;T19075:f0</title>
<path fill="none" stroke="#c000a5" d="M332,-354C332,-493.47 25,-279.53 25,-419 25,-583 25,-583 25,-583 25,-623.21 320.37,-658.61 390.62,-662.62"/>
<polygon fill="#c000a5" stroke="#c000a5" points="390.88,-666.13 401,-663 391.13,-659.14 390.88,-666.13"/>
<text text-anchor="middle" x="34.5" y="-497.3" font-family="Times,serif" font-size="14.00" fill="#c000a5">wr</text>
</g>
<!-- T19072&#45;&gt;T19112 -->
<g id="edge18" class="edge">
<title>T19072:f2&#45;&gt;T19112:f0</title>
<path fill="none" stroke="#c000a5" d="M407,-324C407,-311.89 609.42,-280.41 619,-273 621.05,-271.41 621.75,-269.14 622.08,-266.85"/>
<polygon fill="#c000a5" stroke="#c000a5" points="625.2,-268.44 627,-258 619.08,-265.04 625.2,-268.44"/>
<text text-anchor="middle" x="543.5" y="-294.8" font-family="Times,serif" font-size="14.00" fill="#c000a5">wr</text>
</g>
<!-- T19072&#45;&gt;T19095 -->
<g id="edge19" class="edge">
<title>T19072:f2&#45;&gt;T19095:f2</title>
<path fill="none" stroke="#c000a5" d="M407,-324C407,-284.25 337.42,-310.79 324.91,-282.95"/>
<polygon fill="#c000a5" stroke="#c000a5" points="328.32,-282.16 323,-273 321.45,-283.48 328.32,-282.16"/>
<text text-anchor="middle" x="405.5" y="-294.8" font-family="Times,serif" font-size="14.00" fill="#c000a5">wr</text>
</g>
<!-- T19072&#45;&gt;T19091 -->
<g id="edge17" class="edge">
<title>T19072:f2&#45;&gt;T19091:f0</title>
<path fill="none" stroke="#c000a5" d="M407,-324C407,-316.66 444.92,-279.1 449,-273 450.38,-270.94 450.9,-268.62 451.25,-266.42"/>
<polygon fill="#c000a5" stroke="#c000a5" points="454.25,-268.23 457,-258 448.47,-264.28 454.25,-268.23"/>
<text text-anchor="middle" x="441.5" y="-294.8" font-family="Times,serif" font-size="14.00" fill="#c000a5">wr</text>
</g>
<!-- T19072&#45;&gt;T19119 -->
<g id="edge16" class="edge">
<title>T19072:f2&#45;&gt;T19119:f0</title>
<path fill="none" stroke="#c000a5" d="M407,-324C407,-315.63 115.39,-279.4 110,-273 77.54,-234.49 166.44,-178.77 375.93,-177.04"/>
<polygon fill="#c000a5" stroke="#c000a5" points="376.01,-180.54 386,-177 375.99,-173.54 376.01,-180.54"/>
<text text-anchor="middle" x="119.5" y="-254.3" font-family="Times,serif" font-size="14.00" fill="#c000a5">wr</text>
</g>
</g>
</svg>
