<?xml version="1.0" encoding="UTF-8" standalone="no"?>
<!DOCTYPE svg PUBLIC "-//W3C//DTD SVG 1.1//EN"
 "http://www.w3.org/Graphics/SVG/1.1/DTD/svg11.dtd">
<!-- Generated by graphviz version 2.43.0 (0)
 -->
<!-- Title: a_graph Pages: 1 -->
<svg width="283pt" height="119pt"
 viewBox="0.00 0.00 283.00 119.00" xmlns="http://www.w3.org/2000/svg" xmlns:xlink="http://www.w3.org/1999/xlink">
<g id="graph0" class="graph" transform="scale(1 1) rotate(0) translate(4 115)">
<title>a_graph</title>
<polygon fill="white" stroke="transparent" points="-4,4 -4,-115 279,-115 279,4 -4,4"/>
<!-- T24852 -->
<g id="node1" class="node">
<title>T24852</title>
<polygon fill="none" stroke="#0058ad" points="0,-81.5 0,-110.5 228,-110.5 228,-81.5 0,-81.5"/>
<text text-anchor="middle" x="37" y="-92.3" font-family="Times,serif" font-size="14.00" fill="#0058ad">w 956 2</text>
<polyline fill="none" stroke="#0058ad" points="74,-81.5 74,-110.5 "/>
<text text-anchor="middle" x="112.5" y="-92.3" font-family="Times,serif" font-size="14.00" fill="#0058ad">r 958 nil</text>
<polyline fill="none" stroke="#0058ad" points="151,-81.5 151,-110.5 "/>
<text text-anchor="middle" x="189.5" y="-92.3" font-family="Times,serif" font-size="14.00" fill="#0058ad">r 957 nil</text>
</g>
<!-- T24842 -->
<g id="node2" class="node">
<title>T24842</title>
<polygon fill="none" stroke="#0058ad" points="47,-0.5 47,-29.5 275,-29.5 275,-0.5 47,-0.5"/>
<text text-anchor="middle" x="85.5" y="-11.3" font-family="Times,serif" font-size="14.00" fill="#0058ad">r 956 nil</text>
<polyline fill="none" stroke="#0058ad" points="124,-0.5 124,-29.5 "/>
<text text-anchor="middle" x="161" y="-11.3" font-family="Times,serif" font-size="14.00" fill="#0058ad">w 957 1</text>
<polyline fill="none" stroke="#0058ad" points="198,-0.5 198,-29.5 "/>
<text text-anchor="middle" x="236.5" y="-11.3" font-family="Times,serif" font-size="14.00" fill="#0058ad">r 951 16</text>
</g>
<!-- T24852&#45;&gt;T24842 -->
<g id="edge1" class="edge">
<title>T24852:f2&#45;&gt;T24842:f1</title>
<path fill="none" stroke="#5b00c0" d="M190,-81C190,-58.8 168.97,-56.33 162.73,-39.99"/>
<polygon fill="#5b00c0" stroke="#5b00c0" points="166.15,-39.26 161,-30 159.25,-40.45 166.15,-39.26"/>
<text text-anchor="middle" x="191.5" y="-51.8" font-family="Times,serif" font-size="14.00" fill="#5b00c0">rw</text>
</g>
<!-- T24842&#45;&gt;T24852 -->
<g id="edge2" class="edge">
<title>T24842:f0&#45;&gt;T24852:f0</title>
<path fill="none" stroke="#5b00c0" d="M46,-15C19.75,-15 32.98,-43.62 36.31,-70.74"/>
<polygon fill="#5b00c0" stroke="#5b00c0" points="32.84,-71.26 37,-81 39.82,-70.79 32.84,-71.26"/>
<text text-anchor="middle" x="45.5" y="-51.8" font-family="Times,serif" font-size="14.00" fill="#5b00c0">rw</text>
</g>
</g>
</svg>
