<?xml version="1.0" encoding="UTF-8" standalone="no"?>
<!DOCTYPE svg PUBLIC "-//W3C//DTD SVG 1.1//EN"
 "http://www.w3.org/Graphics/SVG/1.1/DTD/svg11.dtd">
<!-- Generated by graphviz version 2.43.0 (0)
 -->
<!-- Title: a_graph Pages: 1 -->
<svg width="465pt" height="281pt"
 viewBox="0.00 0.00 465.09 281.00" xmlns="http://www.w3.org/2000/svg" xmlns:xlink="http://www.w3.org/1999/xlink">
<g id="graph0" class="graph" transform="scale(1 1) rotate(0) translate(4 277)">
<title>a_graph</title>
<polygon fill="white" stroke="transparent" points="-4,4 -4,-277 461.09,-277 461.09,4 -4,4"/>
<!-- T3980 -->
<g id="node1" class="node">
<title>T3980</title>
<polygon fill="none" stroke="#0058ad" points="9.59,-243.5 9.59,-272.5 83.59,-272.5 83.59,-243.5 9.59,-243.5"/>
<text text-anchor="middle" x="46.59" y="-254.3" font-family="Times,serif" font-size="14.00" fill="#0058ad">w 156 3</text>
</g>
<!-- T3985 -->
<g id="node4" class="node">
<title>T3985</title>
<polygon fill="none" stroke="#0058ad" points="12.59,-162.5 12.59,-191.5 308.59,-191.5 308.59,-162.5 12.59,-162.5"/>
<text text-anchor="middle" x="46.59" y="-173.3" font-family="Times,serif" font-size="14.00" fill="#0058ad">r 156 3</text>
<polyline fill="none" stroke="#0058ad" points="80.59,-162.5 80.59,-191.5 "/>
<text text-anchor="middle" x="119.09" y="-173.3" font-family="Times,serif" font-size="14.00" fill="#0058ad">r 153 nil</text>
<polyline fill="none" stroke="#0058ad" points="157.59,-162.5 157.59,-191.5 "/>
<text text-anchor="middle" x="196.09" y="-173.3" font-family="Times,serif" font-size="14.00" fill="#0058ad">r 151 12</text>
<polyline fill="none" stroke="#0058ad" points="234.59,-162.5 234.59,-191.5 "/>
<text text-anchor="middle" x="271.59" y="-173.3" font-family="Times,serif" font-size="14.00" fill="#0058ad">w 156 4</text>
</g>
<!-- T3980&#45;&gt;T3985 -->
<g id="edge1" class="edge">
<title>T3980:f0&#45;&gt;T3985:f0</title>
<path fill="none" stroke="#c000a5" d="M46.59,-243.32C46.59,-232.45 46.59,-217.01 46.59,-202.14"/>
<polygon fill="#c000a5" stroke="#c000a5" points="50.09,-202 46.59,-192 43.09,-202 50.09,-202"/>
<text text-anchor="middle" x="56.09" y="-213.8" font-family="Times,serif" font-size="14.00" fill="#c000a5">wr</text>
</g>
<!-- T3973 -->
<g id="node2" class="node">
<title>T3973</title>
<polygon fill="none" stroke="#0058ad" points="24.09,-0.5 24.09,-29.5 249.09,-29.5 249.09,-0.5 24.09,-0.5"/>
<text text-anchor="middle" x="61.09" y="-11.3" font-family="Times,serif" font-size="14.00" fill="#0058ad">w 155 3</text>
<polyline fill="none" stroke="#0058ad" points="98.09,-0.5 98.09,-29.5 "/>
<text text-anchor="middle" x="136.59" y="-11.3" font-family="Times,serif" font-size="14.00" fill="#0058ad">r 156 nil</text>
<polyline fill="none" stroke="#0058ad" points="175.09,-0.5 175.09,-29.5 "/>
<text text-anchor="middle" x="212.09" y="-11.3" font-family="Times,serif" font-size="14.00" fill="#0058ad">w 156 1</text>
</g>
<!-- T3973&#45;&gt;T3980 -->
<g id="edge4" class="edge">
<title>T3973:f1&#45;&gt;T3980:f0</title>
<path fill="none" stroke="#5b00c0" d="M136.59,-30C136.59,-50.82 11.59,-142.78 3.59,-162 -7.04,-187.52 9.94,-216.43 25.59,-235.79"/>
<polygon fill="#5b00c0" stroke="#5b00c0" points="22.98,-238.13 32.13,-243.47 28.31,-233.59 22.98,-238.13"/>
<text text-anchor="middle" x="44.09" y="-132.8" font-family="Times,serif" font-size="14.00" fill="#5b00c0">rw</text>
</g>
<!-- T3974 -->
<g id="node3" class="node">
<title>T3974</title>
<polygon fill="none" stroke="#0058ad" points="158.09,-81.5 158.09,-110.5 457.09,-110.5 457.09,-81.5 158.09,-81.5"/>
<text text-anchor="middle" x="195.09" y="-92.3" font-family="Times,serif" font-size="14.00" fill="#0058ad">w 153 3</text>
<polyline fill="none" stroke="#0058ad" points="232.09,-81.5 232.09,-110.5 "/>
<text text-anchor="middle" x="269.09" y="-92.3" font-family="Times,serif" font-size="14.00" fill="#0058ad">w 153 4</text>
<polyline fill="none" stroke="#0058ad" points="306.09,-81.5 306.09,-110.5 "/>
<text text-anchor="middle" x="344.59" y="-92.3" font-family="Times,serif" font-size="14.00" fill="#0058ad">r 156 nil</text>
<polyline fill="none" stroke="#0058ad" points="383.09,-81.5 383.09,-110.5 "/>
<text text-anchor="middle" x="420.09" y="-92.3" font-family="Times,serif" font-size="14.00" fill="#0058ad">w 156 2</text>
</g>
<!-- T3973&#45;&gt;T3974 -->
<g id="edge2" class="edge">
<title>T3973:f1&#45;&gt;T3974:f3</title>
<path fill="none" stroke="#5b00c0" d="M136.59,-30C136.59,-77.22 191.37,-53.3 237.59,-63 254.93,-66.64 379.81,-62.14 412.68,-74.2"/>
<polygon fill="#5b00c0" stroke="#5b00c0" points="410.72,-77.14 420.59,-81 415.29,-71.83 410.72,-77.14"/>
<text text-anchor="middle" x="247.09" y="-51.8" font-family="Times,serif" font-size="14.00" fill="#5b00c0">rw</text>
</g>
<!-- T3973&#45;&gt;T3985 -->
<g id="edge3" class="edge">
<title>T3973:f1&#45;&gt;T3985:f3</title>
<path fill="none" stroke="#5b00c0" d="M136.59,-30C136.59,-40.84 123.09,-101.76 129.59,-111 165.98,-162.74 260.08,-102.57 270.62,-151.89"/>
<polygon fill="#5b00c0" stroke="#5b00c0" points="267.15,-152.38 271.59,-162 274.12,-151.71 267.15,-152.38"/>
<text text-anchor="middle" x="139.09" y="-92.3" font-family="Times,serif" font-size="14.00" fill="#5b00c0">rw</text>
</g>
<!-- T3974&#45;&gt;T3980 -->
<g id="edge6" class="edge">
<title>T3974:f2&#45;&gt;T3980:f0</title>
<path fill="none" stroke="#5b00c0" d="M344.59,-111C344.59,-148.95 345.82,-166.64 317.59,-192 240.95,-260.83 188.73,-214.75 92.19,-240.55"/>
<polygon fill="#5b00c0" stroke="#5b00c0" points="91.03,-237.24 82.39,-243.38 92.97,-243.97 91.03,-237.24"/>
<text text-anchor="middle" x="349.09" y="-173.3" font-family="Times,serif" font-size="14.00" fill="#5b00c0">rw</text>
</g>
<!-- T3974&#45;&gt;T3973 -->
<g id="edge7" class="edge">
<title>T3974:f2&#45;&gt;T3973:f2</title>
<path fill="none" stroke="#5b00c0" d="M344.59,-81C344.59,-33.34 307.15,-17.15 260.64,-15.2"/>
<polygon fill="#5b00c0" stroke="#5b00c0" points="260.66,-11.7 250.59,-15 260.52,-18.7 260.66,-11.7"/>
<text text-anchor="middle" x="351.09" y="-51.8" font-family="Times,serif" font-size="14.00" fill="#5b00c0">rw</text>
</g>
<!-- T3974&#45;&gt;T3985 -->
<g id="edge5" class="edge">
<title>T3974:f2&#45;&gt;T3985:f3</title>
<path fill="none" stroke="#5b00c0" d="M344.59,-111C344.59,-127.71 325.43,-119.64 311.59,-129 295.93,-139.59 279.04,-139.5 273.48,-151.85"/>
<polygon fill="#5b00c0" stroke="#5b00c0" points="269.98,-151.53 271.59,-162 276.86,-152.81 269.98,-151.53"/>
<text text-anchor="middle" x="321.09" y="-132.8" font-family="Times,serif" font-size="14.00" fill="#5b00c0">rw</text>
</g>
<!-- T3985&#45;&gt;T3974 -->
<g id="edge8" class="edge">
<title>T3985:f1&#45;&gt;T3974:f1</title>
<path fill="none" stroke="#5b00c0" d="M118.59,-162C118.59,-130.37 239.67,-142.83 264.26,-120.15"/>
<polygon fill="#5b00c0" stroke="#5b00c0" points="267.48,-121.54 268.59,-111 261.15,-118.54 267.48,-121.54"/>
<text text-anchor="middle" x="252.09" y="-132.8" font-family="Times,serif" font-size="14.00" fill="#5b00c0">rw</text>
</g>
</g>
</svg>
