<?xml version="1.0" encoding="UTF-8" standalone="no"?>
<!DOCTYPE svg PUBLIC "-//W3C//DTD SVG 1.1//EN"
 "http://www.w3.org/Graphics/SVG/1.1/DTD/svg11.dtd">
<!-- Generated by graphviz version 2.43.0 (0)
 -->
<!-- Title: a_graph Pages: 1 -->
<svg width="378pt" height="119pt"
 viewBox="0.00 0.00 378.00 119.00" xmlns="http://www.w3.org/2000/svg" xmlns:xlink="http://www.w3.org/1999/xlink">
<g id="graph0" class="graph" transform="scale(1 1) rotate(0) translate(4 115)">
<title>a_graph</title>
<polygon fill="white" stroke="transparent" points="-4,4 -4,-115 374,-115 374,4 -4,4"/>
<!-- T4043 -->
<g id="node1" class="node">
<title>T4043</title>
<polygon fill="none" stroke="#0058ad" points="65,-81.5 65,-110.5 370,-110.5 370,-81.5 65,-81.5"/>
<text text-anchor="middle" x="103.5" y="-92.3" font-family="Times,serif" font-size="14.00" fill="#0058ad">r 159 nil</text>
<polyline fill="none" stroke="#0058ad" points="142,-81.5 142,-110.5 "/>
<text text-anchor="middle" x="180.5" y="-92.3" font-family="Times,serif" font-size="14.00" fill="#0058ad">r 159 nil</text>
<polyline fill="none" stroke="#0058ad" points="219,-81.5 219,-110.5 "/>
<text text-anchor="middle" x="257.5" y="-92.3" font-family="Times,serif" font-size="14.00" fill="#0058ad">r 159 nil</text>
<polyline fill="none" stroke="#0058ad" points="296,-81.5 296,-110.5 "/>
<text text-anchor="middle" x="333" y="-92.3" font-family="Times,serif" font-size="14.00" fill="#0058ad">w 159 2</text>
</g>
<!-- T4041 -->
<g id="node2" class="node">
<title>T4041</title>
<polygon fill="none" stroke="#0058ad" points="0,-0.5 0,-29.5 293,-29.5 293,-0.5 0,-0.5"/>
<text text-anchor="middle" x="37" y="-11.3" font-family="Times,serif" font-size="14.00" fill="#0058ad">w 157 9</text>
<polyline fill="none" stroke="#0058ad" points="74,-0.5 74,-29.5 "/>
<text text-anchor="middle" x="108" y="-11.3" font-family="Times,serif" font-size="14.00" fill="#0058ad">r 157 9</text>
<polyline fill="none" stroke="#0058ad" points="142,-0.5 142,-29.5 "/>
<text text-anchor="middle" x="180.5" y="-11.3" font-family="Times,serif" font-size="14.00" fill="#0058ad">r 159 nil</text>
<polyline fill="none" stroke="#0058ad" points="219,-0.5 219,-29.5 "/>
<text text-anchor="middle" x="256" y="-11.3" font-family="Times,serif" font-size="14.00" fill="#0058ad">w 159 1</text>
</g>
<!-- T4043&#45;&gt;T4041 -->
<g id="edge1" class="edge">
<title>T4043:f0&#45;&gt;T4041:f3</title>
<path fill="none" stroke="#5b00c0" d="M103.5,-81C103.5,-48.8 227,-62.22 252.09,-39.29"/>
<polygon fill="#5b00c0" stroke="#5b00c0" points="255.37,-40.53 256.5,-30 249.05,-37.53 255.37,-40.53"/>
<text text-anchor="middle" x="240" y="-51.8" font-family="Times,serif" font-size="14.00" fill="#5b00c0">rw</text>
</g>
<!-- T4041&#45;&gt;T4043 -->
<g id="edge2" class="edge">
<title>T4041:f2&#45;&gt;T4043:f3</title>
<path fill="none" stroke="#5b00c0" d="M180.5,-30C180.5,-63.42 221.74,-37.6 253.5,-48 286.34,-58.75 324.75,-45.78 332.21,-70.92"/>
<polygon fill="#5b00c0" stroke="#5b00c0" points="328.76,-71.53 333.5,-81 335.7,-70.64 328.76,-71.53"/>
<text text-anchor="middle" x="337" y="-51.8" font-family="Times,serif" font-size="14.00" fill="#5b00c0">rw</text>
</g>
</g>
</svg>
