<?xml version="1.0" encoding="UTF-8" standalone="no"?>
<!DOCTYPE svg PUBLIC "-//W3C//DTD SVG 1.1//EN"
 "http://www.w3.org/Graphics/SVG/1.1/DTD/svg11.dtd">
<!-- Generated by graphviz version 2.43.0 (0)
 -->
<!-- Title: a_graph Pages: 1 -->
<svg width="307pt" height="119pt"
 viewBox="0.00 0.00 307.00 119.00" xmlns="http://www.w3.org/2000/svg" xmlns:xlink="http://www.w3.org/1999/xlink">
<g id="graph0" class="graph" transform="scale(1 1) rotate(0) translate(4 115)">
<title>a_graph</title>
<polygon fill="white" stroke="transparent" points="-4,4 -4,-115 303,-115 303,4 -4,4"/>
<!-- T12113 -->
<g id="node1" class="node">
<title>T12113</title>
<polygon fill="none" stroke="#0058ad" points="0,-81.5 0,-110.5 293,-110.5 293,-81.5 0,-81.5"/>
<text text-anchor="middle" x="37" y="-92.3" font-family="Times,serif" font-size="14.00" fill="#0058ad">w 468 6</text>
<polyline fill="none" stroke="#0058ad" points="74,-81.5 74,-110.5 "/>
<text text-anchor="middle" x="112.5" y="-92.3" font-family="Times,serif" font-size="14.00" fill="#0058ad">r 469 nil</text>
<polyline fill="none" stroke="#0058ad" points="151,-81.5 151,-110.5 "/>
<text text-anchor="middle" x="188" y="-92.3" font-family="Times,serif" font-size="14.00" fill="#0058ad">w 469 3</text>
<polyline fill="none" stroke="#0058ad" points="225,-81.5 225,-110.5 "/>
<text text-anchor="middle" x="259" y="-92.3" font-family="Times,serif" font-size="14.00" fill="#0058ad">r 469 3</text>
</g>
<!-- T12110 -->
<g id="node2" class="node">
<title>T12110</title>
<polygon fill="none" stroke="#0058ad" points="6,-0.5 6,-29.5 299,-29.5 299,-0.5 6,-0.5"/>
<text text-anchor="middle" x="40" y="-11.3" font-family="Times,serif" font-size="14.00" fill="#0058ad">r 468 1</text>
<polyline fill="none" stroke="#0058ad" points="74,-0.5 74,-29.5 "/>
<text text-anchor="middle" x="112.5" y="-11.3" font-family="Times,serif" font-size="14.00" fill="#0058ad">r 469 nil</text>
<polyline fill="none" stroke="#0058ad" points="151,-0.5 151,-29.5 "/>
<text text-anchor="middle" x="188" y="-11.3" font-family="Times,serif" font-size="14.00" fill="#0058ad">w 469 1</text>
<polyline fill="none" stroke="#0058ad" points="225,-0.5 225,-29.5 "/>
<text text-anchor="middle" x="262" y="-11.3" font-family="Times,serif" font-size="14.00" fill="#0058ad">w 468 3</text>
</g>
<!-- T12113&#45;&gt;T12110 -->
<g id="edge1" class="edge">
<title>T12113:f1&#45;&gt;T12110:f2</title>
<path fill="none" stroke="#5b00c0" d="M112.5,-81C112.5,-62.05 124.06,-58.99 139.5,-48 154.56,-37.28 176.73,-46.95 185.12,-39.58"/>
<polygon fill="#5b00c0" stroke="#5b00c0" points="188.47,-40.59 188.5,-30 181.87,-38.27 188.47,-40.59"/>
<text text-anchor="middle" x="149" y="-51.8" font-family="Times,serif" font-size="14.00" fill="#5b00c0">rw</text>
</g>
<!-- T12110&#45;&gt;T12113 -->
<g id="edge2" class="edge">
<title>T12110:f1&#45;&gt;T12113:f2</title>
<path fill="none" stroke="#5b00c0" d="M112.5,-30C112.5,-51.95 140.42,-35.55 158.5,-48 171.51,-56.96 182.84,-60.01 186.9,-70.91"/>
<polygon fill="#5b00c0" stroke="#5b00c0" points="183.48,-71.67 188.5,-81 190.39,-70.58 183.48,-71.67"/>
<text text-anchor="middle" x="191" y="-51.8" font-family="Times,serif" font-size="14.00" fill="#5b00c0">rw</text>
</g>
</g>
</svg>
