<?xml version="1.0" encoding="UTF-8" standalone="no"?>
<!DOCTYPE svg PUBLIC "-//W3C//DTD SVG 1.1//EN"
 "http://www.w3.org/Graphics/SVG/1.1/DTD/svg11.dtd">
<!-- Generated by graphviz version 2.43.0 (0)
 -->
<!-- Title: a_graph Pages: 1 -->
<svg width="200pt" height="119pt"
 viewBox="0.00 0.00 200.00 119.00" xmlns="http://www.w3.org/2000/svg" xmlns:xlink="http://www.w3.org/1999/xlink">
<g id="graph0" class="graph" transform="scale(1 1) rotate(0) translate(4 115)">
<title>a_graph</title>
<polygon fill="white" stroke="transparent" points="-4,4 -4,-115 196,-115 196,4 -4,4"/>
<!-- T125 -->
<g id="node1" class="node">
<title>T125</title>
<polygon fill="none" stroke="#0058ad" points="1.5,-81.5 1.5,-110.5 190.5,-110.5 190.5,-81.5 1.5,-81.5"/>
<text text-anchor="middle" x="35.5" y="-92.3" font-family="Times,serif" font-size="14.00" fill="#0058ad">r 12 nil</text>
<polyline fill="none" stroke="#0058ad" points="69.5,-81.5 69.5,-110.5 "/>
<text text-anchor="middle" x="97.5" y="-92.3" font-family="Times,serif" font-size="14.00" fill="#0058ad">w 7 9</text>
<polyline fill="none" stroke="#0058ad" points="125.5,-81.5 125.5,-110.5 "/>
<text text-anchor="middle" x="158" y="-92.3" font-family="Times,serif" font-size="14.00" fill="#0058ad">w 12 2</text>
</g>
<!-- T122 -->
<g id="node2" class="node">
<title>T122</title>
<polygon fill="none" stroke="#0058ad" points="0,-0.5 0,-29.5 192,-29.5 192,-0.5 0,-0.5"/>
<text text-anchor="middle" x="34" y="-11.3" font-family="Times,serif" font-size="14.00" fill="#0058ad">r 12 nil</text>
<polyline fill="none" stroke="#0058ad" points="68,-0.5 68,-29.5 "/>
<text text-anchor="middle" x="97.5" y="-11.3" font-family="Times,serif" font-size="14.00" fill="#0058ad">r 11 6</text>
<polyline fill="none" stroke="#0058ad" points="127,-0.5 127,-29.5 "/>
<text text-anchor="middle" x="159.5" y="-11.3" font-family="Times,serif" font-size="14.00" fill="#0058ad">w 12 1</text>
</g>
<!-- T125&#45;&gt;T122 -->
<g id="edge1" class="edge">
<title>T125:f0&#45;&gt;T122:f2</title>
<path fill="none" stroke="#5b00c0" d="M35,-81C35,-49.78 68.05,-59.69 97,-48 119.99,-38.72 149.51,-53.31 157.77,-39.86"/>
<polygon fill="#5b00c0" stroke="#5b00c0" points="161.21,-40.53 160,-30 154.38,-38.98 161.21,-40.53"/>
<text text-anchor="middle" x="106.5" y="-51.8" font-family="Times,serif" font-size="14.00" fill="#5b00c0">rw</text>
</g>
<!-- T122&#45;&gt;T125 -->
<g id="edge2" class="edge">
<title>T122:f0&#45;&gt;T125:f2</title>
<path fill="none" stroke="#5b00c0" d="M34,-30C34,-67.31 82.26,-32.07 116,-48 133.78,-56.39 150.91,-57.24 156.28,-70.76"/>
<polygon fill="#5b00c0" stroke="#5b00c0" points="152.89,-71.72 158,-81 159.79,-70.56 152.89,-71.72"/>
<text text-anchor="middle" x="160.5" y="-51.8" font-family="Times,serif" font-size="14.00" fill="#5b00c0">rw</text>
</g>
</g>
</svg>
