<?xml version="1.0" encoding="UTF-8" standalone="no"?>
<!DOCTYPE svg PUBLIC "-//W3C//DTD SVG 1.1//EN"
 "http://www.w3.org/Graphics/SVG/1.1/DTD/svg11.dtd">
<!-- Generated by graphviz version 2.43.0 (0)
 -->
<!-- Title: a_graph Pages: 1 -->
<svg width="491pt" height="281pt"
 viewBox="0.00 0.00 491.00 281.00" xmlns="http://www.w3.org/2000/svg" xmlns:xlink="http://www.w3.org/1999/xlink">
<g id="graph0" class="graph" transform="scale(1 1) rotate(0) translate(4 277)">
<title>a_graph</title>
<polygon fill="white" stroke="transparent" points="-4,4 -4,-277 487,-277 487,4 -4,4"/>
<!-- T4277 -->
<g id="node1" class="node">
<title>T4277</title>
<polygon fill="none" stroke="#0058ad" points="259,-243.5 259,-272.5 481,-272.5 481,-243.5 259,-243.5"/>
<text text-anchor="middle" x="297.5" y="-254.3" font-family="Times,serif" font-size="14.00" fill="#0058ad">r 166 nil</text>
<polyline fill="none" stroke="#0058ad" points="336,-243.5 336,-272.5 "/>
<text text-anchor="middle" x="370" y="-254.3" font-family="Times,serif" font-size="14.00" fill="#0058ad">r 167 1</text>
<polyline fill="none" stroke="#0058ad" points="404,-243.5 404,-272.5 "/>
<text text-anchor="middle" x="442.5" y="-254.3" font-family="Times,serif" font-size="14.00" fill="#0058ad">r 166 nil</text>
</g>
<!-- T4262 -->
<g id="node3" class="node">
<title>T4262</title>
<polygon fill="none" stroke="#0058ad" points="0,-162.5 0,-191.5 234,-191.5 234,-162.5 0,-162.5"/>
<text text-anchor="middle" x="41.5" y="-173.3" font-family="Times,serif" font-size="14.00" fill="#0058ad">w 165 16</text>
<polyline fill="none" stroke="#0058ad" points="83,-162.5 83,-191.5 "/>
<text text-anchor="middle" x="120" y="-173.3" font-family="Times,serif" font-size="14.00" fill="#0058ad">w 166 3</text>
<polyline fill="none" stroke="#0058ad" points="157,-162.5 157,-191.5 "/>
<text text-anchor="middle" x="195.5" y="-173.3" font-family="Times,serif" font-size="14.00" fill="#0058ad">r 167 nil</text>
</g>
<!-- T4277&#45;&gt;T4262 -->
<g id="edge1" class="edge">
<title>T4277:f0&#45;&gt;T4262:f1</title>
<path fill="none" stroke="#5b00c0" d="M258,-258C227.33,-258 139.65,-231.94 122.81,-201.87"/>
<polygon fill="#5b00c0" stroke="#5b00c0" points="126.11,-200.66 120,-192 119.37,-202.58 126.11,-200.66"/>
<text text-anchor="middle" x="159.5" y="-213.8" font-family="Times,serif" font-size="14.00" fill="#5b00c0">rw</text>
</g>
<!-- T4270 -->
<g id="node4" class="node">
<title>T4270</title>
<polygon fill="none" stroke="#0058ad" points="307.5,-162.5 307.5,-191.5 458.5,-191.5 458.5,-162.5 307.5,-162.5"/>
<text text-anchor="middle" x="344.5" y="-173.3" font-family="Times,serif" font-size="14.00" fill="#0058ad">w 166 4</text>
<polyline fill="none" stroke="#0058ad" points="381.5,-162.5 381.5,-191.5 "/>
<text text-anchor="middle" x="420" y="-173.3" font-family="Times,serif" font-size="14.00" fill="#0058ad">r 167 nil</text>
</g>
<!-- T4277&#45;&gt;T4270 -->
<g id="edge3" class="edge">
<title>T4277:f0&#45;&gt;T4270:f0</title>
<path fill="none" stroke="#5b00c0" d="M297,-243C297,-216.27 332.34,-220.73 341.73,-202.28"/>
<polygon fill="#5b00c0" stroke="#5b00c0" points="345.26,-202.52 344,-192 338.43,-201.01 345.26,-202.52"/>
<text text-anchor="middle" x="342.5" y="-213.8" font-family="Times,serif" font-size="14.00" fill="#5b00c0">rw</text>
</g>
<!-- T4278 -->
<g id="node5" class="node">
<title>T4278</title>
<polygon fill="none" stroke="#0058ad" points="92,-81.5 92,-110.5 394,-110.5 394,-81.5 92,-81.5"/>
<text text-anchor="middle" x="130.5" y="-92.3" font-family="Times,serif" font-size="14.00" fill="#0058ad">r 167 nil</text>
<polyline fill="none" stroke="#0058ad" points="169,-81.5 169,-110.5 "/>
<text text-anchor="middle" x="207.5" y="-92.3" font-family="Times,serif" font-size="14.00" fill="#0058ad">r 167 nil</text>
<polyline fill="none" stroke="#0058ad" points="246,-81.5 246,-110.5 "/>
<text text-anchor="middle" x="283" y="-92.3" font-family="Times,serif" font-size="14.00" fill="#0058ad">w 167 2</text>
<polyline fill="none" stroke="#0058ad" points="320,-81.5 320,-110.5 "/>
<text text-anchor="middle" x="357" y="-92.3" font-family="Times,serif" font-size="14.00" fill="#0058ad">w 166 5</text>
</g>
<!-- T4277&#45;&gt;T4278 -->
<g id="edge2" class="edge">
<title>T4277:f0&#45;&gt;T4278:f3</title>
<path fill="none" stroke="#5b00c0" d="M297,-243C297,-206.12 266.6,-196.73 279,-162 285.37,-144.15 290.49,-139.89 306,-129 321.83,-117.88 345.21,-128.57 353.74,-120.64"/>
<polygon fill="#5b00c0" stroke="#5b00c0" points="357.11,-121.59 357,-111 350.48,-119.35 357.11,-121.59"/>
<text text-anchor="middle" x="288.5" y="-173.3" font-family="Times,serif" font-size="14.00" fill="#5b00c0">rw</text>
</g>
<!-- T4275 -->
<g id="node2" class="node">
<title>T4275</title>
<polygon fill="none" stroke="#0058ad" points="318,-0.5 318,-29.5 392,-29.5 392,-0.5 318,-0.5"/>
<text text-anchor="middle" x="355" y="-11.3" font-family="Times,serif" font-size="14.00" fill="#0058ad">w 167 1</text>
</g>
<!-- T4275&#45;&gt;T4277 -->
<g id="edge4" class="edge">
<title>T4275:f0&#45;&gt;T4277:f1</title>
<path fill="none" stroke="#c000a5" d="M376.42,-29.65C384.28,-35.22 393.18,-41.73 401,-48 418.2,-61.77 425.58,-62.8 438,-81 459.63,-112.71 461.23,-124.21 468,-162 470.35,-175.12 474.92,-180.6 468,-192 444.52,-230.7 381.04,-199.66 371.27,-233.04"/>
<polygon fill="#c000a5" stroke="#c000a5" points="367.79,-232.64 370,-243 374.74,-233.52 367.79,-232.64"/>
<text text-anchor="middle" x="473.5" y="-132.8" font-family="Times,serif" font-size="14.00" fill="#c000a5">wr</text>
</g>
<!-- T4262&#45;&gt;T4275 -->
<g id="edge5" class="edge">
<title>T4262:f2&#45;&gt;T4275:f0</title>
<path fill="none" stroke="#5b00c0" d="M196,-162C196,-99.11 99.57,-162.87 64,-111 56.46,-100 57.06,-92.39 64,-81 103.24,-16.61 261.31,-33.12 309.5,-30.75"/>
<polygon fill="#5b00c0" stroke="#5b00c0" points="310.09,-34.2 319.62,-29.59 309.29,-27.25 310.09,-34.2"/>
<text text-anchor="middle" x="73.5" y="-92.3" font-family="Times,serif" font-size="14.00" fill="#5b00c0">rw</text>
</g>
<!-- T4262&#45;&gt;T4278 -->
<g id="edge6" class="edge">
<title>T4262:f2&#45;&gt;T4278:f2</title>
<path fill="none" stroke="#5b00c0" d="M196,-162C196,-138.61 216.76,-140.73 237,-129 251.84,-120.4 271.57,-127.65 279.49,-120.77"/>
<polygon fill="#5b00c0" stroke="#5b00c0" points="282.91,-121.59 283,-111 276.32,-119.23 282.91,-121.59"/>
<text text-anchor="middle" x="246.5" y="-132.8" font-family="Times,serif" font-size="14.00" fill="#5b00c0">rw</text>
</g>
<!-- T4270&#45;&gt;T4275 -->
<g id="edge7" class="edge">
<title>T4270:f1&#45;&gt;T4275:f0</title>
<path fill="none" stroke="#5b00c0" d="M420,-162C420,-125.22 418.89,-114.18 403,-81 395.54,-65.43 384.31,-49.72 374.58,-37.54"/>
<polygon fill="#5b00c0" stroke="#5b00c0" points="377.2,-35.22 368.15,-29.72 371.79,-39.67 377.2,-35.22"/>
<text text-anchor="middle" x="424.5" y="-92.3" font-family="Times,serif" font-size="14.00" fill="#5b00c0">rw</text>
</g>
<!-- T4270&#45;&gt;T4278 -->
<g id="edge8" class="edge">
<title>T4270:f1&#45;&gt;T4278:f2</title>
<path fill="none" stroke="#5b00c0" d="M420,-162C420,-133.07 311.33,-140.99 287.56,-120.11"/>
<polygon fill="#5b00c0" stroke="#5b00c0" points="290.6,-118.38 283,-111 284.34,-121.51 290.6,-118.38"/>
<text text-anchor="middle" x="402.5" y="-132.8" font-family="Times,serif" font-size="14.00" fill="#5b00c0">rw</text>
</g>
<!-- T4278&#45;&gt;T4275 -->
<g id="edge9" class="edge">
<title>T4278:f0&#45;&gt;T4275:f0</title>
<path fill="none" stroke="#5b00c0" d="M130,-81C130,2.19 227.84,-52.94 309.34,-32.48"/>
<polygon fill="#5b00c0" stroke="#5b00c0" points="310.57,-35.76 319.19,-29.6 308.61,-29.05 310.57,-35.76"/>
<text text-anchor="middle" x="147.5" y="-51.8" font-family="Times,serif" font-size="14.00" fill="#5b00c0">rw</text>
</g>
</g>
</svg>
