<?xml version="1.0" encoding="UTF-8" standalone="no"?>
<!DOCTYPE svg PUBLIC "-//W3C//DTD SVG 1.1//EN"
 "http://www.w3.org/Graphics/SVG/1.1/DTD/svg11.dtd">
<!-- Generated by graphviz version 2.43.0 (0)
 -->
<!-- Title: a_graph Pages: 1 -->
<svg width="1111pt" height="605pt"
 viewBox="0.00 0.00 1111.00 605.00" xmlns="http://www.w3.org/2000/svg" xmlns:xlink="http://www.w3.org/1999/xlink">
<g id="graph0" class="graph" transform="scale(1 1) rotate(0) translate(4 601)">
<title>a_graph</title>
<polygon fill="white" stroke="transparent" points="-4,4 -4,-601 1107,-601 1107,4 -4,4"/>
<!-- T32647 -->
<g id="node1" class="node">
<title>T32647</title>
<polygon fill="none" stroke="#0058ad" points="410.5,-567.5 410.5,-596.5 662.5,-596.5 662.5,-567.5 410.5,-567.5"/>
<text text-anchor="middle" x="452" y="-578.3" font-family="Times,serif" font-size="14.00" fill="#0058ad">w 1247 2</text>
<polyline fill="none" stroke="#0058ad" points="493.5,-567.5 493.5,-596.5 "/>
<text text-anchor="middle" x="532" y="-578.3" font-family="Times,serif" font-size="14.00" fill="#0058ad">r 1247 2</text>
<polyline fill="none" stroke="#0058ad" points="570.5,-567.5 570.5,-596.5 "/>
<text text-anchor="middle" x="616.5" y="-578.3" font-family="Times,serif" font-size="14.00" fill="#0058ad">w 1246 12</text>
</g>
<!-- T32653 -->
<g id="node9" class="node">
<title>T32653</title>
<polygon fill="none" stroke="#0058ad" points="573.5,-486.5 573.5,-515.5 745.5,-515.5 745.5,-486.5 573.5,-486.5"/>
<text text-anchor="middle" x="616.5" y="-497.3" font-family="Times,serif" font-size="14.00" fill="#0058ad">r 1246 12</text>
<polyline fill="none" stroke="#0058ad" points="659.5,-486.5 659.5,-515.5 "/>
<text text-anchor="middle" x="702.5" y="-497.3" font-family="Times,serif" font-size="14.00" fill="#0058ad">r 1248 nil</text>
</g>
<!-- T32647&#45;&gt;T32653 -->
<g id="edge1" class="edge">
<title>T32647:f2&#45;&gt;T32653:f0</title>
<path fill="none" stroke="#c000a5" d="M616.5,-567C616.5,-548.23 616.5,-541.12 616.5,-526.35"/>
<polygon fill="#c000a5" stroke="#c000a5" points="620,-526 616.5,-516 613,-526 620,-526"/>
<text text-anchor="middle" x="626" y="-537.8" font-family="Times,serif" font-size="14.00" fill="#c000a5">wr</text>
</g>
<!-- T32631 -->
<g id="node2" class="node">
<title>T32631</title>
<polygon fill="none" stroke="#0058ad" points="689,-162.5 689,-191.5 1024,-191.5 1024,-162.5 689,-162.5"/>
<text text-anchor="middle" x="730.5" y="-173.3" font-family="Times,serif" font-size="14.00" fill="#0058ad">w 1246 6</text>
<polyline fill="none" stroke="#0058ad" points="772,-162.5 772,-191.5 "/>
<text text-anchor="middle" x="813.5" y="-173.3" font-family="Times,serif" font-size="14.00" fill="#0058ad">w 1246 7</text>
<polyline fill="none" stroke="#0058ad" points="855,-162.5 855,-191.5 "/>
<text text-anchor="middle" x="901" y="-173.3" font-family="Times,serif" font-size="14.00" fill="#0058ad">w 1244 16</text>
<polyline fill="none" stroke="#0058ad" points="947,-162.5 947,-191.5 "/>
<text text-anchor="middle" x="985.5" y="-173.3" font-family="Times,serif" font-size="14.00" fill="#0058ad">r 1242 3</text>
</g>
<!-- T32635 -->
<g id="node5" class="node">
<title>T32635</title>
<polygon fill="none" stroke="#0058ad" points="615,-81.5 615,-110.5 944,-110.5 944,-81.5 615,-81.5"/>
<text text-anchor="middle" x="656.5" y="-92.3" font-family="Times,serif" font-size="14.00" fill="#0058ad">w 1246 8</text>
<polyline fill="none" stroke="#0058ad" points="698,-81.5 698,-110.5 "/>
<text text-anchor="middle" x="736.5" y="-92.3" font-family="Times,serif" font-size="14.00" fill="#0058ad">r 1246 8</text>
<polyline fill="none" stroke="#0058ad" points="775,-81.5 775,-110.5 "/>
<text text-anchor="middle" x="816.5" y="-92.3" font-family="Times,serif" font-size="14.00" fill="#0058ad">w 1234 9</text>
<polyline fill="none" stroke="#0058ad" points="858,-81.5 858,-110.5 "/>
<text text-anchor="middle" x="901" y="-92.3" font-family="Times,serif" font-size="14.00" fill="#0058ad">r 1244 16</text>
</g>
<!-- T32631&#45;&gt;T32635 -->
<g id="edge2" class="edge">
<title>T32631:f2&#45;&gt;T32635:f3</title>
<path fill="none" stroke="#c000a5" d="M901.5,-162C901.5,-143.23 901.5,-136.12 901.5,-121.35"/>
<polygon fill="#c000a5" stroke="#c000a5" points="905,-121 901.5,-111 898,-121 905,-121"/>
<text text-anchor="middle" x="911" y="-132.8" font-family="Times,serif" font-size="14.00" fill="#c000a5">wr</text>
</g>
<!-- T32621 -->
<g id="node3" class="node">
<title>T32621</title>
<polygon fill="none" stroke="#0058ad" points="0,-81.5 0,-110.5 353,-110.5 353,-81.5 0,-81.5"/>
<text text-anchor="middle" x="43" y="-92.3" font-family="Times,serif" font-size="14.00" fill="#0058ad">r 1244 12</text>
<polyline fill="none" stroke="#0058ad" points="86,-81.5 86,-110.5 "/>
<text text-anchor="middle" x="127.5" y="-92.3" font-family="Times,serif" font-size="14.00" fill="#0058ad">w 1246 3</text>
<polyline fill="none" stroke="#0058ad" points="169,-81.5 169,-110.5 "/>
<text text-anchor="middle" x="215" y="-92.3" font-family="Times,serif" font-size="14.00" fill="#0058ad">w 1244 13</text>
<polyline fill="none" stroke="#0058ad" points="261,-81.5 261,-110.5 "/>
<text text-anchor="middle" x="307" y="-92.3" font-family="Times,serif" font-size="14.00" fill="#0058ad">w 1244 14</text>
</g>
<!-- T32629 -->
<g id="node4" class="node">
<title>T32629</title>
<polygon fill="none" stroke="#0058ad" points="264.5,-0.5 264.5,-29.5 436.5,-29.5 436.5,-0.5 264.5,-0.5"/>
<text text-anchor="middle" x="307.5" y="-11.3" font-family="Times,serif" font-size="14.00" fill="#0058ad">r 1244 14</text>
<polyline fill="none" stroke="#0058ad" points="350.5,-0.5 350.5,-29.5 "/>
<text text-anchor="middle" x="393.5" y="-11.3" font-family="Times,serif" font-size="14.00" fill="#0058ad">r 1247 nil</text>
</g>
<!-- T32621&#45;&gt;T32629 -->
<g id="edge3" class="edge">
<title>T32621:f3&#45;&gt;T32629:f0</title>
<path fill="none" stroke="#c000a5" d="M307.5,-81C307.5,-62.23 307.5,-55.12 307.5,-40.35"/>
<polygon fill="#c000a5" stroke="#c000a5" points="311,-40 307.5,-30 304,-40 311,-40"/>
<text text-anchor="middle" x="317" y="-51.8" font-family="Times,serif" font-size="14.00" fill="#c000a5">wr</text>
</g>
<!-- T32629&#45;&gt;T32647 -->
<g id="edge5" class="edge">
<title>T32629:f1&#45;&gt;T32647:f0</title>
<path fill="none" stroke="#5b00c0" d="M393.5,-30C393.5,-59.38 381.5,-65.62 381.5,-95 381.5,-502 381.5,-502 381.5,-502 381.5,-535.84 373.69,-573.45 399.43,-580.74"/>
<polygon fill="#5b00c0" stroke="#5b00c0" points="399.14,-584.23 409.5,-582 400.01,-577.29 399.14,-584.23"/>
<text text-anchor="middle" x="391" y="-294.8" font-family="Times,serif" font-size="14.00" fill="#5b00c0">rw</text>
</g>
<!-- T32619 -->
<g id="node10" class="node">
<title>T32619</title>
<polygon fill="none" stroke="#0058ad" points="409,-243.5 409,-272.5 756,-272.5 756,-243.5 409,-243.5"/>
<text text-anchor="middle" x="452" y="-254.3" font-family="Times,serif" font-size="14.00" fill="#0058ad">r 1247 nil</text>
<polyline fill="none" stroke="#0058ad" points="495,-243.5 495,-272.5 "/>
<text text-anchor="middle" x="541" y="-254.3" font-family="Times,serif" font-size="14.00" fill="#0058ad">w 1244 15</text>
<polyline fill="none" stroke="#0058ad" points="587,-243.5 587,-272.5 "/>
<text text-anchor="middle" x="628.5" y="-254.3" font-family="Times,serif" font-size="14.00" fill="#0058ad">w 1247 1</text>
<polyline fill="none" stroke="#0058ad" points="670,-243.5 670,-272.5 "/>
<text text-anchor="middle" x="713" y="-254.3" font-family="Times,serif" font-size="14.00" fill="#0058ad">r 1246 nil</text>
</g>
<!-- T32629&#45;&gt;T32619 -->
<g id="edge4" class="edge">
<title>T32629:f1&#45;&gt;T32619:f2</title>
<path fill="none" stroke="#5b00c0" d="M393.5,-30C393.5,-48.65 424.28,-178.84 437.5,-192 444.25,-198.72 582.93,-223.88 619.64,-237.6"/>
<polygon fill="#5b00c0" stroke="#5b00c0" points="618.14,-240.79 628.5,-243 621.78,-234.81 618.14,-240.79"/>
<text text-anchor="middle" x="429" y="-132.8" font-family="Times,serif" font-size="14.00" fill="#5b00c0">rw</text>
</g>
<!-- T32639 -->
<g id="node7" class="node">
<title>T32639</title>
<polygon fill="none" stroke="#0058ad" points="860,-405.5 860,-434.5 1103,-434.5 1103,-405.5 860,-405.5"/>
<text text-anchor="middle" x="898.5" y="-416.3" font-family="Times,serif" font-size="14.00" fill="#0058ad">r 1246 8</text>
<polyline fill="none" stroke="#0058ad" points="937,-405.5 937,-434.5 "/>
<text text-anchor="middle" x="978.5" y="-416.3" font-family="Times,serif" font-size="14.00" fill="#0058ad">w 1246 9</text>
<polyline fill="none" stroke="#0058ad" points="1020,-405.5 1020,-434.5 "/>
<text text-anchor="middle" x="1061.5" y="-416.3" font-family="Times,serif" font-size="14.00" fill="#0058ad">w 1248 1</text>
</g>
<!-- T32635&#45;&gt;T32639 -->
<g id="edge6" class="edge">
<title>T32635:f0&#45;&gt;T32639:f0</title>
<path fill="none" stroke="#c000a5" d="M656.5,-111C656.5,-125.92 909.82,-126.32 924.5,-129 1088.01,-158.84 1052.5,-143.24 1052.5,-176 1052.5,-340 1052.5,-340 1052.5,-340 1052.5,-371.82 1027.19,-373.24 998.5,-387 981.48,-395.16 923.04,-386.48 904.32,-396.6"/>
<polygon fill="#c000a5" stroke="#c000a5" points="901.32,-394.79 898.5,-405 907.07,-398.77 901.32,-394.79"/>
<text text-anchor="middle" x="1062" y="-254.3" font-family="Times,serif" font-size="14.00" fill="#c000a5">wr</text>
</g>
<!-- T32611 -->
<g id="node6" class="node">
<title>T32611</title>
<polygon fill="none" stroke="#0058ad" points="447,-162.5 447,-191.5 616,-191.5 616,-162.5 447,-162.5"/>
<text text-anchor="middle" x="490" y="-173.3" font-family="Times,serif" font-size="14.00" fill="#0058ad">r 1244 12</text>
<polyline fill="none" stroke="#0058ad" points="533,-162.5 533,-191.5 "/>
<text text-anchor="middle" x="574.5" y="-173.3" font-family="Times,serif" font-size="14.00" fill="#0058ad">w 1246 1</text>
</g>
<!-- T32611&#45;&gt;T32621 -->
<g id="edge7" class="edge">
<title>T32611:f0&#45;&gt;T32621:f3</title>
<path fill="none" stroke="#5b00c0" d="M489.5,-162C489.5,-130.68 398.56,-103.43 364.81,-97.29"/>
<polygon fill="#5b00c0" stroke="#5b00c0" points="364.86,-93.77 354.5,-96 363.99,-100.72 364.86,-93.77"/>
<text text-anchor="middle" x="489" y="-132.8" font-family="Times,serif" font-size="14.00" fill="#5b00c0">rw</text>
</g>
<!-- T32642 -->
<g id="node8" class="node">
<title>T32642</title>
<polygon fill="none" stroke="#0058ad" points="507.5,-324.5 507.5,-353.5 845.5,-353.5 845.5,-324.5 507.5,-324.5"/>
<text text-anchor="middle" x="549" y="-335.3" font-family="Times,serif" font-size="14.00" fill="#0058ad">w 1248 2</text>
<polyline fill="none" stroke="#0058ad" points="590.5,-324.5 590.5,-353.5 "/>
<text text-anchor="middle" x="629" y="-335.3" font-family="Times,serif" font-size="14.00" fill="#0058ad">r 1246 9</text>
<polyline fill="none" stroke="#0058ad" points="667.5,-324.5 667.5,-353.5 "/>
<text text-anchor="middle" x="713.5" y="-335.3" font-family="Times,serif" font-size="14.00" fill="#0058ad">w 1246 10</text>
<polyline fill="none" stroke="#0058ad" points="759.5,-324.5 759.5,-353.5 "/>
<text text-anchor="middle" x="802.5" y="-335.3" font-family="Times,serif" font-size="14.00" fill="#0058ad">r 1247 nil</text>
</g>
<!-- T32639&#45;&gt;T32642 -->
<g id="edge8" class="edge">
<title>T32639:f1&#45;&gt;T32642:f1</title>
<path fill="none" stroke="#c000a5" d="M978.5,-405C978.5,-251.49 644.71,-499.08 629.07,-364.37"/>
<polygon fill="#c000a5" stroke="#c000a5" points="632.54,-363.79 628.5,-354 625.55,-364.18 632.54,-363.79"/>
<text text-anchor="middle" x="985" y="-375.8" font-family="Times,serif" font-size="14.00" fill="#c000a5">wr</text>
</g>
<!-- T32642&#45;&gt;T32647 -->
<g id="edge10" class="edge">
<title>T32642:f3&#45;&gt;T32647:f0</title>
<path fill="none" stroke="#5b00c0" d="M802.5,-354C802.5,-373.44 646.8,-365.46 628.5,-372 603.43,-380.96 598.08,-386.96 578.5,-405 578.27,-405.21 483.79,-525.52 457.96,-558.65"/>
<polygon fill="#5b00c0" stroke="#5b00c0" points="454.85,-556.95 451.5,-567 460.39,-561.23 454.85,-556.95"/>
<text text-anchor="middle" x="551" y="-456.8" font-family="Times,serif" font-size="14.00" fill="#5b00c0">rw</text>
</g>
<!-- T32642&#45;&gt;T32619 -->
<g id="edge9" class="edge">
<title>T32642:f3&#45;&gt;T32619:f2</title>
<path fill="none" stroke="#5b00c0" d="M802.5,-324C802.5,-294.84 699.47,-317.1 672.5,-306 653.6,-298.22 635.55,-297.47 630.14,-283.15"/>
<polygon fill="#5b00c0" stroke="#5b00c0" points="633.55,-282.31 628.5,-273 626.64,-283.43 633.55,-282.31"/>
<text text-anchor="middle" x="682" y="-294.8" font-family="Times,serif" font-size="14.00" fill="#5b00c0">rw</text>
</g>
<!-- T32653&#45;&gt;T32639 -->
<g id="edge11" class="edge">
<title>T32653:f1&#45;&gt;T32639:f2</title>
<path fill="none" stroke="#5b00c0" d="M746.5,-501C779.33,-501 1017.33,-475.52 1056.15,-443.68"/>
<polygon fill="#5b00c0" stroke="#5b00c0" points="1059.23,-445.35 1061.5,-435 1053.27,-441.68 1059.23,-445.35"/>
<text text-anchor="middle" x="1046" y="-456.8" font-family="Times,serif" font-size="14.00" fill="#5b00c0">rw</text>
</g>
<!-- T32653&#45;&gt;T32642 -->
<g id="edge12" class="edge">
<title>T32653:f1&#45;&gt;T32642:f0</title>
<path fill="none" stroke="#5b00c0" d="M702.5,-486C702.5,-399.55 560.87,-440.42 549.26,-364.41"/>
<polygon fill="#5b00c0" stroke="#5b00c0" points="552.71,-363.72 548.5,-354 545.73,-364.23 552.71,-363.72"/>
<text text-anchor="middle" x="679" y="-416.3" font-family="Times,serif" font-size="14.00" fill="#5b00c0">rw</text>
</g>
<!-- T32619&#45;&gt;T32647 -->
<g id="edge19" class="edge">
<title>T32619:f0&#45;&gt;T32647:f0</title>
<path fill="none" stroke="#5b00c0" d="M451.5,-273C451.5,-301.89 451.5,-309.11 451.5,-338 451.5,-502 451.5,-502 451.5,-502 451.5,-527.16 451.5,-535.89 451.5,-556.82"/>
<polygon fill="#5b00c0" stroke="#5b00c0" points="448,-557 451.5,-567 455,-557 448,-557"/>
<text text-anchor="middle" x="461" y="-416.3" font-family="Times,serif" font-size="14.00" fill="#5b00c0">rw</text>
</g>
<!-- T32619&#45;&gt;T32631 -->
<g id="edge17" class="edge">
<title>T32619:f3&#45;&gt;T32631:f1</title>
<path fill="none" stroke="#5b00c0" d="M757.5,-258C792.51,-258 810.18,-235.19 813.07,-202.09"/>
<polygon fill="#5b00c0" stroke="#5b00c0" points="816.57,-202.14 813.5,-192 809.58,-201.84 816.57,-202.14"/>
<text text-anchor="middle" x="822" y="-213.8" font-family="Times,serif" font-size="14.00" fill="#5b00c0">rw</text>
</g>
<!-- T32619&#45;&gt;T32621 -->
<g id="edge13" class="edge">
<title>T32619:f3&#45;&gt;T32621:f1</title>
<path fill="none" stroke="#5b00c0" d="M713.5,-243C713.5,-225.86 422.21,-228.8 405.5,-225 278.72,-196.15 135.28,-242 127.81,-121.19"/>
<polygon fill="#5b00c0" stroke="#5b00c0" points="131.3,-120.89 127.5,-111 124.3,-121.1 131.3,-120.89"/>
<text text-anchor="middle" x="178" y="-173.3" font-family="Times,serif" font-size="14.00" fill="#5b00c0">rw</text>
</g>
<!-- T32619&#45;&gt;T32635 -->
<g id="edge16" class="edge">
<title>T32619:f3&#45;&gt;T32635:f0</title>
<path fill="none" stroke="#5b00c0" d="M713.5,-243C713.5,-210.31 674.04,-221.76 660.5,-192 647.09,-162.52 654.55,-149.72 656.2,-121.29"/>
<polygon fill="#5b00c0" stroke="#5b00c0" points="659.71,-121.1 656.5,-111 652.71,-120.89 659.71,-121.1"/>
<text text-anchor="middle" x="670" y="-173.3" font-family="Times,serif" font-size="14.00" fill="#5b00c0">rw</text>
</g>
<!-- T32619&#45;&gt;T32611 -->
<g id="edge15" class="edge">
<title>T32619:f3&#45;&gt;T32611:f1</title>
<path fill="none" stroke="#5b00c0" d="M713.5,-243C713.5,-221.51 638.16,-233.67 618.5,-225 599.8,-216.75 581.62,-216.32 576.15,-202.11"/>
<polygon fill="#5b00c0" stroke="#5b00c0" points="579.57,-201.3 574.5,-192 572.66,-202.43 579.57,-201.3"/>
<text text-anchor="middle" x="628" y="-213.8" font-family="Times,serif" font-size="14.00" fill="#5b00c0">rw</text>
</g>
<!-- T32619&#45;&gt;T32639 -->
<g id="edge14" class="edge">
<title>T32619:f3&#45;&gt;T32639:f1</title>
<path fill="none" stroke="#5b00c0" d="M757.5,-258C830.69,-258 1024.65,-311.95 1066.5,-372 1070.31,-377.47 1070.72,-381.84 1066.5,-387 1044.02,-414.54 991.78,-375.64 980.62,-395"/>
<polygon fill="#5b00c0" stroke="#5b00c0" points="977.15,-394.49 978.5,-405 984,-395.94 977.15,-394.49"/>
<text text-anchor="middle" x="1056" y="-335.3" font-family="Times,serif" font-size="14.00" fill="#5b00c0">rw</text>
</g>
<!-- T32619&#45;&gt;T32642 -->
<g id="edge18" class="edge">
<title>T32619:f3&#45;&gt;T32642:f2</title>
<path fill="none" stroke="#5b00c0" d="M713.5,-273C713.5,-291.77 713.5,-298.88 713.5,-313.65"/>
<polygon fill="#5b00c0" stroke="#5b00c0" points="710,-314 713.5,-324 717,-314 710,-314"/>
<text text-anchor="middle" x="723" y="-294.8" font-family="Times,serif" font-size="14.00" fill="#5b00c0">rw</text>
</g>
</g>
</svg>
