<?xml version="1.0" encoding="UTF-8" standalone="no"?>
<!DOCTYPE svg PUBLIC "-//W3C//DTD SVG 1.1//EN"
 "http://www.w3.org/Graphics/SVG/1.1/DTD/svg11.dtd">
<!-- Generated by graphviz version 2.43.0 (0)
 -->
<!-- Title: a_graph Pages: 1 -->
<svg width="351pt" height="200pt"
 viewBox="0.00 0.00 351.00 200.00" xmlns="http://www.w3.org/2000/svg" xmlns:xlink="http://www.w3.org/1999/xlink">
<g id="graph0" class="graph" transform="scale(1 1) rotate(0) translate(4 196)">
<title>a_graph</title>
<polygon fill="white" stroke="transparent" points="-4,4 -4,-196 347,-196 347,4 -4,4"/>
<!-- T23060 -->
<g id="node1" class="node">
<title>T23060</title>
<polygon fill="none" stroke="#0058ad" points="87,-162.5 87,-191.5 306,-191.5 306,-162.5 87,-162.5"/>
<text text-anchor="middle" x="125.5" y="-173.3" font-family="Times,serif" font-size="14.00" fill="#0058ad">r 882 nil</text>
<polyline fill="none" stroke="#0058ad" points="164,-162.5 164,-191.5 "/>
<text text-anchor="middle" x="201" y="-173.3" font-family="Times,serif" font-size="14.00" fill="#0058ad">w 883 3</text>
<polyline fill="none" stroke="#0058ad" points="238,-162.5 238,-191.5 "/>
<text text-anchor="middle" x="272" y="-173.3" font-family="Times,serif" font-size="14.00" fill="#0058ad">r 883 3</text>
</g>
<!-- T23053 -->
<g id="node3" class="node">
<title>T23053</title>
<polygon fill="none" stroke="#0058ad" points="50,-81.5 50,-110.5 343,-110.5 343,-81.5 50,-81.5"/>
<text text-anchor="middle" x="88.5" y="-92.3" font-family="Times,serif" font-size="14.00" fill="#0058ad">r 883 nil</text>
<polyline fill="none" stroke="#0058ad" points="127,-81.5 127,-110.5 "/>
<text text-anchor="middle" x="164" y="-92.3" font-family="Times,serif" font-size="14.00" fill="#0058ad">w 883 1</text>
<polyline fill="none" stroke="#0058ad" points="201,-81.5 201,-110.5 "/>
<text text-anchor="middle" x="238" y="-92.3" font-family="Times,serif" font-size="14.00" fill="#0058ad">w 882 2</text>
<polyline fill="none" stroke="#0058ad" points="275,-81.5 275,-110.5 "/>
<text text-anchor="middle" x="309" y="-92.3" font-family="Times,serif" font-size="14.00" fill="#0058ad">r 883 1</text>
</g>
<!-- T23060&#45;&gt;T23053 -->
<g id="edge1" class="edge">
<title>T23060:f0&#45;&gt;T23053:f2</title>
<path fill="none" stroke="#5b00c0" d="M125.5,-162C125.5,-143.05 136.3,-138.84 152.5,-129 182.23,-110.95 227.22,-141.75 236.71,-121.11"/>
<polygon fill="#5b00c0" stroke="#5b00c0" points="240.2,-121.46 238.5,-111 233.31,-120.23 240.2,-121.46"/>
<text text-anchor="middle" x="162" y="-132.8" font-family="Times,serif" font-size="14.00" fill="#5b00c0">rw</text>
</g>
<!-- T23065 -->
<g id="node2" class="node">
<title>T23065</title>
<polygon fill="none" stroke="#0058ad" points="0,-0.5 0,-29.5 225,-29.5 225,-0.5 0,-0.5"/>
<text text-anchor="middle" x="37" y="-11.3" font-family="Times,serif" font-size="14.00" fill="#0058ad">w 883 4</text>
<polyline fill="none" stroke="#0058ad" points="74,-0.5 74,-29.5 "/>
<text text-anchor="middle" x="112.5" y="-11.3" font-family="Times,serif" font-size="14.00" fill="#0058ad">r 882 nil</text>
<polyline fill="none" stroke="#0058ad" points="151,-0.5 151,-29.5 "/>
<text text-anchor="middle" x="188" y="-11.3" font-family="Times,serif" font-size="14.00" fill="#0058ad">w 883 5</text>
</g>
<!-- T23065&#45;&gt;T23053 -->
<g id="edge2" class="edge">
<title>T23065:f1&#45;&gt;T23053:f2</title>
<path fill="none" stroke="#5b00c0" d="M112.5,-30C112.5,-42.86 203.87,-59.85 231,-73.94"/>
<polygon fill="#5b00c0" stroke="#5b00c0" points="228.82,-76.69 238.5,-81 233.62,-71.6 228.82,-76.69"/>
<text text-anchor="middle" x="208" y="-51.8" font-family="Times,serif" font-size="14.00" fill="#5b00c0">rw</text>
</g>
<!-- T23053&#45;&gt;T23060 -->
<g id="edge3" class="edge">
<title>T23053:f0&#45;&gt;T23060:f1</title>
<path fill="none" stroke="#5b00c0" d="M88.5,-111C88.5,-148.75 138.8,-110.14 171.5,-129 185.18,-136.89 196.11,-140.58 199.98,-151.78"/>
<polygon fill="#5b00c0" stroke="#5b00c0" points="196.57,-152.62 201.5,-162 203.49,-151.59 196.57,-152.62"/>
<text text-anchor="middle" x="205" y="-132.8" font-family="Times,serif" font-size="14.00" fill="#5b00c0">rw</text>
</g>
<!-- T23053&#45;&gt;T23065 -->
<g id="edge4" class="edge">
<title>T23053:f0&#45;&gt;T23065:f2</title>
<path fill="none" stroke="#5b00c0" d="M88.5,-81C88.5,-57.26 109.48,-59.03 130.5,-48 150.48,-37.51 177.58,-50.84 185.94,-39.73"/>
<polygon fill="#5b00c0" stroke="#5b00c0" points="189.34,-40.56 188.5,-30 182.57,-38.78 189.34,-40.56"/>
<text text-anchor="middle" x="140" y="-51.8" font-family="Times,serif" font-size="14.00" fill="#5b00c0">rw</text>
</g>
</g>
</svg>
