<?xml version="1.0" encoding="UTF-8" standalone="no"?>
<!DOCTYPE svg PUBLIC "-//W3C//DTD SVG 1.1//EN"
 "http://www.w3.org/Graphics/SVG/1.1/DTD/svg11.dtd">
<!-- Generated by graphviz version 2.43.0 (0)
 -->
<!-- Title: a_graph Pages: 1 -->
<svg width="296pt" height="119pt"
 viewBox="0.00 0.00 296.00 119.00" xmlns="http://www.w3.org/2000/svg" xmlns:xlink="http://www.w3.org/1999/xlink">
<g id="graph0" class="graph" transform="scale(1 1) rotate(0) translate(4 115)">
<title>a_graph</title>
<polygon fill="white" stroke="transparent" points="-4,4 -4,-115 292,-115 292,4 -4,4"/>
<!-- T30998 -->
<g id="node1" class="node">
<title>T30998</title>
<polygon fill="none" stroke="#0058ad" points="0,-81.5 0,-110.5 252,-110.5 252,-81.5 0,-81.5"/>
<text text-anchor="middle" x="43" y="-92.3" font-family="Times,serif" font-size="14.00" fill="#0058ad">r 1185 nil</text>
<polyline fill="none" stroke="#0058ad" points="86,-81.5 86,-110.5 "/>
<text text-anchor="middle" x="127.5" y="-92.3" font-family="Times,serif" font-size="14.00" fill="#0058ad">w 1183 6</text>
<polyline fill="none" stroke="#0058ad" points="169,-81.5 169,-110.5 "/>
<text text-anchor="middle" x="210.5" y="-92.3" font-family="Times,serif" font-size="14.00" fill="#0058ad">w 1185 1</text>
</g>
<!-- T30999 -->
<g id="node2" class="node">
<title>T30999</title>
<polygon fill="none" stroke="#0058ad" points="42,-0.5 42,-29.5 288,-29.5 288,-0.5 42,-0.5"/>
<text text-anchor="middle" x="85" y="-11.3" font-family="Times,serif" font-size="14.00" fill="#0058ad">r 1185 nil</text>
<polyline fill="none" stroke="#0058ad" points="128,-0.5 128,-29.5 "/>
<text text-anchor="middle" x="169.5" y="-11.3" font-family="Times,serif" font-size="14.00" fill="#0058ad">w 1185 2</text>
<polyline fill="none" stroke="#0058ad" points="211,-0.5 211,-29.5 "/>
<text text-anchor="middle" x="249.5" y="-11.3" font-family="Times,serif" font-size="14.00" fill="#0058ad">r 1185 2</text>
</g>
<!-- T30998&#45;&gt;T30999 -->
<g id="edge1" class="edge">
<title>T30998:f0&#45;&gt;T30999:f1</title>
<path fill="none" stroke="#5b00c0" d="M43,-81C43,-68.05 135.1,-51.2 162.44,-37.09"/>
<polygon fill="#5b00c0" stroke="#5b00c0" points="165.1,-39.39 170,-30 160.31,-34.29 165.1,-39.39"/>
<text text-anchor="middle" x="142.5" y="-51.8" font-family="Times,serif" font-size="14.00" fill="#5b00c0">rw</text>
</g>
<!-- T30999&#45;&gt;T30998 -->
<g id="edge2" class="edge">
<title>T30999:f0&#45;&gt;T30998:f2</title>
<path fill="none" stroke="#5b00c0" d="M85,-30C85,-62.55 125.94,-35.49 156,-48 178.62,-57.41 202.98,-53.97 209.38,-70.9"/>
<polygon fill="#5b00c0" stroke="#5b00c0" points="205.96,-71.68 211,-81 212.88,-70.57 205.96,-71.68"/>
<text text-anchor="middle" x="212.5" y="-51.8" font-family="Times,serif" font-size="14.00" fill="#5b00c0">rw</text>
</g>
</g>
</svg>
