<?xml version="1.0" encoding="UTF-8" standalone="no"?>
<!DOCTYPE svg PUBLIC "-//W3C//DTD SVG 1.1//EN"
 "http://www.w3.org/Graphics/SVG/1.1/DTD/svg11.dtd">
<!-- Generated by graphviz version 2.43.0 (0)
 -->
<!-- Title: a_graph Pages: 1 -->
<svg width="1678pt" height="1253pt"
 viewBox="0.00 0.00 1677.76 1253.00" xmlns="http://www.w3.org/2000/svg" xmlns:xlink="http://www.w3.org/1999/xlink">
<g id="graph0" class="graph" transform="scale(1 1) rotate(0) translate(4 1249)">
<title>a_graph</title>
<polygon fill="white" stroke="transparent" points="-4,4 -4,-1249 1673.76,-1249 1673.76,4 -4,4"/>
<!-- T33849 -->
<g id="node1" class="node">
<title>T33849</title>
<polygon fill="none" stroke="#0058ad" points="985.76,-1215.5 985.76,-1244.5 1225.76,-1244.5 1225.76,-1215.5 985.76,-1215.5"/>
<text text-anchor="middle" x="1028.76" y="-1226.3" font-family="Times,serif" font-size="14.00" fill="#0058ad">r 1291 nil</text>
<polyline fill="none" stroke="#0058ad" points="1071.76,-1215.5 1071.76,-1244.5 "/>
<text text-anchor="middle" x="1110.26" y="-1226.3" font-family="Times,serif" font-size="14.00" fill="#0058ad">r 1290 5</text>
<polyline fill="none" stroke="#0058ad" points="1148.76,-1215.5 1148.76,-1244.5 "/>
<text text-anchor="middle" x="1187.26" y="-1226.3" font-family="Times,serif" font-size="14.00" fill="#0058ad">r 1290 5</text>
</g>
<!-- T33852 -->
<g id="node3" class="node">
<title>T33852</title>
<polygon fill="none" stroke="#0058ad" points="725.76,-1134.5 725.76,-1163.5 1069.76,-1163.5 1069.76,-1134.5 725.76,-1134.5"/>
<text text-anchor="middle" x="767.26" y="-1145.3" font-family="Times,serif" font-size="14.00" fill="#0058ad">w 1290 9</text>
<polyline fill="none" stroke="#0058ad" points="808.76,-1134.5 808.76,-1163.5 "/>
<text text-anchor="middle" x="851.76" y="-1145.3" font-family="Times,serif" font-size="14.00" fill="#0058ad">r 1291 nil</text>
<polyline fill="none" stroke="#0058ad" points="894.76,-1134.5 894.76,-1163.5 "/>
<text text-anchor="middle" x="940.76" y="-1145.3" font-family="Times,serif" font-size="14.00" fill="#0058ad">w 1290 10</text>
<polyline fill="none" stroke="#0058ad" points="986.76,-1134.5 986.76,-1163.5 "/>
<text text-anchor="middle" x="1028.26" y="-1145.3" font-family="Times,serif" font-size="14.00" fill="#0058ad">w 1291 1</text>
</g>
<!-- T33849&#45;&gt;T33852 -->
<g id="edge4" class="edge">
<title>T33849:f0&#45;&gt;T33852:f3</title>
<path fill="none" stroke="#5b00c0" d="M1028.76,-1215C1028.76,-1196.23 1028.76,-1189.12 1028.76,-1174.35"/>
<polygon fill="#5b00c0" stroke="#5b00c0" points="1032.26,-1174 1028.76,-1164 1025.26,-1174 1032.26,-1174"/>
<text text-anchor="middle" x="1038.26" y="-1185.8" font-family="Times,serif" font-size="14.00" fill="#5b00c0">rw</text>
</g>
<!-- T33903 -->
<g id="node4" class="node">
<title>T33903</title>
<polygon fill="none" stroke="#0058ad" points="448.26,-567.5 448.26,-596.5 801.26,-596.5 801.26,-567.5 448.26,-567.5"/>
<text text-anchor="middle" x="489.76" y="-578.3" font-family="Times,serif" font-size="14.00" fill="#0058ad">w 1293 1</text>
<polyline fill="none" stroke="#0058ad" points="531.26,-567.5 531.26,-596.5 "/>
<text text-anchor="middle" x="577.26" y="-578.3" font-family="Times,serif" font-size="14.00" fill="#0058ad">w 1291 13</text>
<polyline fill="none" stroke="#0058ad" points="623.26,-567.5 623.26,-596.5 "/>
<text text-anchor="middle" x="669.26" y="-578.3" font-family="Times,serif" font-size="14.00" fill="#0058ad">w 1291 14</text>
<polyline fill="none" stroke="#0058ad" points="715.26,-567.5 715.26,-596.5 "/>
<text text-anchor="middle" x="758.26" y="-578.3" font-family="Times,serif" font-size="14.00" fill="#0058ad">r 1292 11</text>
</g>
<!-- T33849&#45;&gt;T33903 -->
<g id="edge2" class="edge">
<title>T33849:f0&#45;&gt;T33903:f2</title>
<path fill="none" stroke="#5b00c0" d="M984.76,-1230C943.79,-1230 251.76,-1190.96 251.76,-1150 251.76,-1150 251.76,-1150 251.76,-783.5 251.76,-680.86 345.13,-690.05 438.76,-648 483.43,-627.93 645.36,-646.62 667.29,-606.76"/>
<polygon fill="#5b00c0" stroke="#5b00c0" points="670.7,-607.55 669.76,-597 663.92,-605.84 670.7,-607.55"/>
<text text-anchor="middle" x="261.26" y="-902.3" font-family="Times,serif" font-size="14.00" fill="#5b00c0">rw</text>
</g>
<!-- T33855 -->
<g id="node15" class="node">
<title>T33855</title>
<polygon fill="none" stroke="#0058ad" points="293.26,-1053.5 293.26,-1082.5 560.26,-1082.5 560.26,-1053.5 293.26,-1053.5"/>
<text text-anchor="middle" x="339.26" y="-1064.3" font-family="Times,serif" font-size="14.00" fill="#0058ad">w 1290 11</text>
<polyline fill="none" stroke="#0058ad" points="385.26,-1053.5 385.26,-1082.5 "/>
<text text-anchor="middle" x="426.76" y="-1064.3" font-family="Times,serif" font-size="14.00" fill="#0058ad">w 1291 3</text>
<polyline fill="none" stroke="#0058ad" points="468.26,-1053.5 468.26,-1082.5 "/>
<text text-anchor="middle" x="514.26" y="-1064.3" font-family="Times,serif" font-size="14.00" fill="#0058ad">w 1290 12</text>
</g>
<!-- T33849&#45;&gt;T33855 -->
<g id="edge5" class="edge">
<title>T33849:f0&#45;&gt;T33855:f1</title>
<path fill="none" stroke="#5b00c0" d="M984.76,-1230C895.12,-1230 666.76,-1228.28 582.76,-1197 505.58,-1168.26 432.96,-1168.78 427.13,-1093.13"/>
<polygon fill="#5b00c0" stroke="#5b00c0" points="430.63,-1092.86 426.76,-1083 423.63,-1093.12 430.63,-1092.86"/>
<text text-anchor="middle" x="489.26" y="-1145.3" font-family="Times,serif" font-size="14.00" fill="#5b00c0">rw</text>
</g>
<!-- T33878 -->
<g id="node16" class="node">
<title>T33878</title>
<polygon fill="none" stroke="#0058ad" points="502.76,-729.5 502.76,-758.5 662.76,-758.5 662.76,-729.5 502.76,-729.5"/>
<text text-anchor="middle" x="541.26" y="-740.3" font-family="Times,serif" font-size="14.00" fill="#0058ad">r 1292 2</text>
<polyline fill="none" stroke="#0058ad" points="579.76,-729.5 579.76,-758.5 "/>
<text text-anchor="middle" x="621.26" y="-740.3" font-family="Times,serif" font-size="14.00" fill="#0058ad">w 1291 9</text>
</g>
<!-- T33849&#45;&gt;T33878 -->
<g id="edge1" class="edge">
<title>T33849:f0&#45;&gt;T33878:f1</title>
<path fill="none" stroke="#5b00c0" d="M984.76,-1230C923.42,-1230 754.59,-1212.28 716.76,-1164 693.66,-1134.53 743.56,-1104.23 761.76,-1035 778.07,-972.95 786.72,-953.39 771.76,-891 758.5,-835.72 751.63,-819.4 713.76,-777 698.52,-759.93 692.21,-747.83 673.84,-744.76"/>
<polygon fill="#5b00c0" stroke="#5b00c0" points="673.99,-741.26 663.76,-744 673.47,-748.24 673.99,-741.26"/>
<text text-anchor="middle" x="786.26" y="-983.3" font-family="Times,serif" font-size="14.00" fill="#5b00c0">rw</text>
</g>
<!-- T33913 -->
<g id="node17" class="node">
<title>T33913</title>
<polygon fill="none" stroke="#0058ad" points="998.76,-810.5 998.76,-839.5 1360.76,-839.5 1360.76,-810.5 998.76,-810.5"/>
<text text-anchor="middle" x="1044.76" y="-821.3" font-family="Times,serif" font-size="14.00" fill="#0058ad">w 1291 16</text>
<polyline fill="none" stroke="#0058ad" points="1090.76,-810.5 1090.76,-839.5 "/>
<text text-anchor="middle" x="1136.76" y="-821.3" font-family="Times,serif" font-size="14.00" fill="#0058ad">w 1292 15</text>
<polyline fill="none" stroke="#0058ad" points="1182.76,-810.5 1182.76,-839.5 "/>
<text text-anchor="middle" x="1228.76" y="-821.3" font-family="Times,serif" font-size="14.00" fill="#0058ad">w 1292 16</text>
<polyline fill="none" stroke="#0058ad" points="1274.76,-810.5 1274.76,-839.5 "/>
<text text-anchor="middle" x="1317.76" y="-821.3" font-family="Times,serif" font-size="14.00" fill="#0058ad">r 1292 16</text>
</g>
<!-- T33849&#45;&gt;T33913 -->
<g id="edge8" class="edge">
<title>T33849:f0&#45;&gt;T33913:f0</title>
<path fill="none" stroke="#5b00c0" d="M1028.76,-1215C1028.76,-1177.25 1078.53,-1214.9 1111.76,-1197 1138.04,-1182.84 1159.76,-1179.86 1159.76,-1150 1159.76,-1150 1159.76,-1150 1159.76,-905 1159.76,-878.97 1069.34,-871.08 1048.85,-849.16"/>
<polygon fill="#5b00c0" stroke="#5b00c0" points="1052.03,-847.7 1044.76,-840 1045.64,-850.56 1052.03,-847.7"/>
<text text-anchor="middle" x="1169.26" y="-1023.8" font-family="Times,serif" font-size="14.00" fill="#5b00c0">rw</text>
</g>
<!-- T33906 -->
<g id="node19" class="node">
<title>T33906</title>
<polygon fill="none" stroke="#0058ad" points="1188.26,-1053.5 1188.26,-1082.5 1363.26,-1082.5 1363.26,-1053.5 1188.26,-1053.5"/>
<text text-anchor="middle" x="1234.26" y="-1064.3" font-family="Times,serif" font-size="14.00" fill="#0058ad">w 1291 15</text>
<polyline fill="none" stroke="#0058ad" points="1280.26,-1053.5 1280.26,-1082.5 "/>
<text text-anchor="middle" x="1321.76" y="-1064.3" font-family="Times,serif" font-size="14.00" fill="#0058ad">w 1293 2</text>
</g>
<!-- T33849&#45;&gt;T33906 -->
<g id="edge7" class="edge">
<title>T33849:f0&#45;&gt;T33906:f0</title>
<path fill="none" stroke="#5b00c0" d="M1028.76,-1215C1028.76,-1182.53 1147.05,-1215.47 1173.76,-1197 1218,-1166.41 1232.07,-1143.21 1233.61,-1093.05"/>
<polygon fill="#5b00c0" stroke="#5b00c0" points="1237.11,-1093.05 1233.76,-1083 1230.11,-1092.95 1237.11,-1093.05"/>
<text text-anchor="middle" x="1236.26" y="-1145.3" font-family="Times,serif" font-size="14.00" fill="#5b00c0">rw</text>
</g>
<!-- T33865 -->
<g id="node20" class="node">
<title>T33865</title>
<polygon fill="none" stroke="#0058ad" points="418.76,-891.5 418.76,-920.5 762.76,-920.5 762.76,-891.5 418.76,-891.5"/>
<text text-anchor="middle" x="460.26" y="-902.3" font-family="Times,serif" font-size="14.00" fill="#0058ad">w 1291 5</text>
<polyline fill="none" stroke="#0058ad" points="501.76,-891.5 501.76,-920.5 "/>
<text text-anchor="middle" x="544.76" y="-902.3" font-family="Times,serif" font-size="14.00" fill="#0058ad">r 1292 nil</text>
<polyline fill="none" stroke="#0058ad" points="587.76,-891.5 587.76,-920.5 "/>
<text text-anchor="middle" x="629.26" y="-902.3" font-family="Times,serif" font-size="14.00" fill="#0058ad">w 1292 1</text>
<polyline fill="none" stroke="#0058ad" points="670.76,-891.5 670.76,-920.5 "/>
<text text-anchor="middle" x="716.76" y="-902.3" font-family="Times,serif" font-size="14.00" fill="#0058ad">w 1284 14</text>
</g>
<!-- T33849&#45;&gt;T33865 -->
<g id="edge6" class="edge">
<title>T33849:f0&#45;&gt;T33865:f0</title>
<path fill="none" stroke="#5b00c0" d="M984.76,-1230C917.47,-1230 748,-1217.03 683.76,-1197 641.8,-1183.92 596.76,-1193.95 596.76,-1150 596.76,-1150 596.76,-1150 596.76,-986 596.76,-955.73 486.17,-954.58 463.71,-930.23"/>
<polygon fill="#5b00c0" stroke="#5b00c0" points="466.91,-928.81 459.76,-921 460.48,-931.57 466.91,-928.81"/>
<text text-anchor="middle" x="606.26" y="-1064.3" font-family="Times,serif" font-size="14.00" fill="#5b00c0">rw</text>
</g>
<!-- T33873 -->
<g id="node21" class="node">
<title>T33873</title>
<polygon fill="none" stroke="#0058ad" points="718.76,-729.5 718.76,-758.5 970.76,-758.5 970.76,-729.5 718.76,-729.5"/>
<text text-anchor="middle" x="757.26" y="-740.3" font-family="Times,serif" font-size="14.00" fill="#0058ad">r 1292 2</text>
<polyline fill="none" stroke="#0058ad" points="795.76,-729.5 795.76,-758.5 "/>
<text text-anchor="middle" x="837.26" y="-740.3" font-family="Times,serif" font-size="14.00" fill="#0058ad">w 1291 6</text>
<polyline fill="none" stroke="#0058ad" points="878.76,-729.5 878.76,-758.5 "/>
<text text-anchor="middle" x="924.76" y="-740.3" font-family="Times,serif" font-size="14.00" fill="#0058ad">w 1284 16</text>
</g>
<!-- T33849&#45;&gt;T33873 -->
<g id="edge3" class="edge">
<title>T33849:f0&#45;&gt;T33873:f1</title>
<path fill="none" stroke="#5b00c0" d="M1028.76,-1215C1028.76,-1202.02 1042.48,-1206.08 1051.76,-1197 1065.3,-1183.75 1072.39,-1181.85 1078.76,-1164 1093.23,-1123.47 1137.65,-1129.58 1070.76,-972 1051.47,-926.56 1035.31,-919.15 994.76,-891 977.74,-879.19 968.74,-884.87 951.76,-873 904.06,-839.68 906.71,-815.12 862.76,-777 855.79,-770.96 846.77,-771.15 841.39,-768.02"/>
<polygon fill="#5b00c0" stroke="#5b00c0" points="844.44,-766.29 836.76,-759 838.22,-769.49 844.44,-766.29"/>
<text text-anchor="middle" x="1092.26" y="-983.3" font-family="Times,serif" font-size="14.00" fill="#5b00c0">rw</text>
</g>
<!-- T33864 -->
<g id="node2" class="node">
<title>T33864</title>
<polygon fill="none" stroke="#0058ad" points="280.26,-972.5 280.26,-1001.5 535.26,-1001.5 535.26,-972.5 280.26,-972.5"/>
<text text-anchor="middle" x="326.26" y="-983.3" font-family="Times,serif" font-size="14.00" fill="#0058ad">w 1290 16</text>
<polyline fill="none" stroke="#0058ad" points="372.26,-972.5 372.26,-1001.5 "/>
<text text-anchor="middle" x="410.76" y="-983.3" font-family="Times,serif" font-size="14.00" fill="#0058ad">r 1291 3</text>
<polyline fill="none" stroke="#0058ad" points="449.26,-972.5 449.26,-1001.5 "/>
<text text-anchor="middle" x="492.26" y="-983.3" font-family="Times,serif" font-size="14.00" fill="#0058ad">r 1292 nil</text>
</g>
<!-- T33897 -->
<g id="node5" class="node">
<title>T33897</title>
<polygon fill="none" stroke="#0058ad" points="447.76,-648.5 447.76,-677.5 785.76,-677.5 785.76,-648.5 447.76,-648.5"/>
<text text-anchor="middle" x="486.26" y="-659.3" font-family="Times,serif" font-size="14.00" fill="#0058ad">r 1292 2</text>
<polyline fill="none" stroke="#0058ad" points="524.76,-648.5 524.76,-677.5 "/>
<text text-anchor="middle" x="570.76" y="-659.3" font-family="Times,serif" font-size="14.00" fill="#0058ad">w 1292 10</text>
<polyline fill="none" stroke="#0058ad" points="616.76,-648.5 616.76,-677.5 "/>
<text text-anchor="middle" x="655.26" y="-659.3" font-family="Times,serif" font-size="14.00" fill="#0058ad">r 1291 9</text>
<polyline fill="none" stroke="#0058ad" points="693.76,-648.5 693.76,-677.5 "/>
<text text-anchor="middle" x="739.76" y="-659.3" font-family="Times,serif" font-size="14.00" fill="#0058ad">w 1292 11</text>
</g>
<!-- T33864&#45;&gt;T33897 -->
<g id="edge12" class="edge">
<title>T33864:f2&#45;&gt;T33897:f3</title>
<path fill="none" stroke="#5b00c0" d="M492.76,-972C492.76,-935.12 444.46,-971.04 411.76,-954 370.3,-932.4 351.21,-901.33 368.76,-858 372.5,-848.75 485.01,-733.81 493.76,-729 515.73,-716.92 696.79,-707.91 733.34,-685.96"/>
<polygon fill="#5b00c0" stroke="#5b00c0" points="736.21,-687.98 739.76,-678 730.76,-683.59 736.21,-687.98"/>
<text text-anchor="middle" x="420.26" y="-821.3" font-family="Times,serif" font-size="14.00" fill="#5b00c0">rw</text>
</g>
<!-- T33868 -->
<g id="node11" class="node">
<title>T33868</title>
<polygon fill="none" stroke="#0058ad" points="499.76,-810.5 499.76,-839.5 659.76,-839.5 659.76,-810.5 499.76,-810.5"/>
<text text-anchor="middle" x="541.26" y="-821.3" font-family="Times,serif" font-size="14.00" fill="#0058ad">w 1292 2</text>
<polyline fill="none" stroke="#0058ad" points="582.76,-810.5 582.76,-839.5 "/>
<text text-anchor="middle" x="621.26" y="-821.3" font-family="Times,serif" font-size="14.00" fill="#0058ad">r 1292 2</text>
</g>
<!-- T33864&#45;&gt;T33868 -->
<g id="edge11" class="edge">
<title>T33864:f2&#45;&gt;T33868:f0</title>
<path fill="none" stroke="#5b00c0" d="M492.76,-972C492.76,-921.32 417.4,-964.11 390.76,-921 348.74,-853.01 444.6,-828.79 488.76,-825.42"/>
<polygon fill="#5b00c0" stroke="#5b00c0" points="488.91,-828.92 498.76,-825 488.62,-821.92 488.91,-828.92"/>
<text text-anchor="middle" x="400.26" y="-902.3" font-family="Times,serif" font-size="14.00" fill="#5b00c0">rw</text>
</g>
<!-- T33911 -->
<g id="node12" class="node">
<title>T33911</title>
<polygon fill="none" stroke="#0058ad" points="410.76,-81.5 410.76,-110.5 748.76,-110.5 748.76,-81.5 410.76,-81.5"/>
<text text-anchor="middle" x="453.76" y="-92.3" font-family="Times,serif" font-size="14.00" fill="#0058ad">r 1229 11</text>
<polyline fill="none" stroke="#0058ad" points="496.76,-81.5 496.76,-110.5 "/>
<text text-anchor="middle" x="542.76" y="-92.3" font-family="Times,serif" font-size="14.00" fill="#0058ad">w 1292 14</text>
<polyline fill="none" stroke="#0058ad" points="588.76,-81.5 588.76,-110.5 "/>
<text text-anchor="middle" x="627.26" y="-92.3" font-family="Times,serif" font-size="14.00" fill="#0058ad">r 1293 2</text>
<polyline fill="none" stroke="#0058ad" points="665.76,-81.5 665.76,-110.5 "/>
<text text-anchor="middle" x="707.26" y="-92.3" font-family="Times,serif" font-size="14.00" fill="#0058ad">w 1293 3</text>
</g>
<!-- T33864&#45;&gt;T33911 -->
<g id="edge13" class="edge">
<title>T33864:f2&#45;&gt;T33911:f1</title>
<path fill="none" stroke="#5b00c0" d="M492.76,-972C492.76,-940.6 240.61,-963.72 210.76,-954 173.71,-941.94 136.76,-945.96 136.76,-907 136.76,-907 136.76,-907 136.76,-176 136.76,-113.6 -293.55,-214.89 372.76,-129 389.02,-126.9 503.9,-129.17 535.01,-117.61"/>
<polygon fill="#5b00c0" stroke="#5b00c0" points="537.42,-120.15 542.76,-111 532.88,-114.82 537.42,-120.15"/>
<text text-anchor="middle" x="146.26" y="-537.8" font-family="Times,serif" font-size="14.00" fill="#5b00c0">rw</text>
</g>
<!-- T33864&#45;&gt;T33913 -->
<g id="edge9" class="edge">
<title>T33864:f2&#45;&gt;T33913:f2</title>
<path fill="none" stroke="#5b00c0" d="M536.76,-987C576.59,-987 856.31,-967.6 893.76,-954 964.33,-928.38 962.18,-883.6 1032.76,-858 1050.75,-851.47 1187.32,-859.33 1221.18,-846.75"/>
<polygon fill="#5b00c0" stroke="#5b00c0" points="1223.62,-849.26 1228.76,-840 1218.96,-844.03 1223.62,-849.26"/>
<text text-anchor="middle" x="986.26" y="-902.3" font-family="Times,serif" font-size="14.00" fill="#5b00c0">rw</text>
</g>
<!-- T33871 -->
<g id="node18" class="node">
<title>T33871</title>
<polygon fill="none" stroke="#0058ad" points="164.76,-162.5 164.76,-191.5 514.76,-191.5 514.76,-162.5 164.76,-162.5"/>
<text text-anchor="middle" x="206.26" y="-173.3" font-family="Times,serif" font-size="14.00" fill="#0058ad">w 1292 3</text>
<polyline fill="none" stroke="#0058ad" points="247.76,-162.5 247.76,-191.5 "/>
<text text-anchor="middle" x="289.26" y="-173.3" font-family="Times,serif" font-size="14.00" fill="#0058ad">w 1287 3</text>
<polyline fill="none" stroke="#0058ad" points="330.76,-162.5 330.76,-191.5 "/>
<text text-anchor="middle" x="376.76" y="-173.3" font-family="Times,serif" font-size="14.00" fill="#0058ad">w 1229 11</text>
<polyline fill="none" stroke="#0058ad" points="422.76,-162.5 422.76,-191.5 "/>
<text text-anchor="middle" x="468.76" y="-173.3" font-family="Times,serif" font-size="14.00" fill="#0058ad">w 1268 10</text>
</g>
<!-- T33864&#45;&gt;T33871 -->
<g id="edge10" class="edge">
<title>T33864:f2&#45;&gt;T33871:f0</title>
<path fill="none" stroke="#5b00c0" d="M492.76,-972C492.76,-947.67 408.66,-958.53 384.76,-954 303.95,-938.67 205.76,-989.25 205.76,-907 205.76,-907 205.76,-907 205.76,-257 205.76,-231.84 205.76,-223.11 205.76,-202.18"/>
<polygon fill="#5b00c0" stroke="#5b00c0" points="209.26,-202 205.76,-192 202.26,-202 209.26,-202"/>
<text text-anchor="middle" x="215.26" y="-578.3" font-family="Times,serif" font-size="14.00" fill="#5b00c0">rw</text>
</g>
<!-- T33864&#45;&gt;T33865 -->
<g id="edge14" class="edge">
<title>T33864:f2&#45;&gt;T33865:f2</title>
<path fill="none" stroke="#5b00c0" d="M536.76,-987C583.88,-987 623.77,-973.76 629.14,-931.17"/>
<polygon fill="#5b00c0" stroke="#5b00c0" points="632.65,-931.19 629.76,-921 625.66,-930.77 632.65,-931.19"/>
<text text-anchor="middle" x="636.26" y="-942.8" font-family="Times,serif" font-size="14.00" fill="#5b00c0">rw</text>
</g>
<!-- T33852&#45;&gt;T33903 -->
<g id="edge16" class="edge">
<title>T33852:f1&#45;&gt;T33903:f2</title>
<path fill="none" stroke="#5b00c0" d="M851.76,-1134C851.76,-1118.93 970.76,-1084.07 970.76,-1069 970.76,-1069 970.76,-1069 970.76,-864.5 970.76,-804.15 1010.25,-781.09 979.76,-729 927.49,-639.7 874.34,-649.43 776.76,-615 757.57,-608.23 694.59,-617.24 675.37,-605.73"/>
<polygon fill="#5b00c0" stroke="#5b00c0" points="678.11,-603.52 669.76,-597 672.22,-607.3 678.11,-603.52"/>
<text text-anchor="middle" x="980.26" y="-861.8" font-family="Times,serif" font-size="14.00" fill="#5b00c0">rw</text>
</g>
<!-- T33852&#45;&gt;T33855 -->
<g id="edge18" class="edge">
<title>T33852:f1&#45;&gt;T33855:f1</title>
<path fill="none" stroke="#5b00c0" d="M851.76,-1134C851.76,-1133.33 501.2,-1092.42 436.84,-1084.36"/>
<polygon fill="#5b00c0" stroke="#5b00c0" points="437.14,-1080.87 426.76,-1083 436.2,-1087.81 437.14,-1080.87"/>
<text text-anchor="middle" x="711.26" y="-1104.8" font-family="Times,serif" font-size="14.00" fill="#5b00c0">rw</text>
</g>
<!-- T33852&#45;&gt;T33878 -->
<g id="edge15" class="edge">
<title>T33852:f1&#45;&gt;T33878:f1</title>
<path fill="none" stroke="#5b00c0" d="M851.76,-1134C851.76,-1103.36 828.76,-1099.64 828.76,-1069 828.76,-1069 828.76,-1069 828.76,-824 828.76,-791.17 800.79,-792.34 771.76,-777 746.39,-763.6 737.18,-767.45 709.76,-759 692.9,-753.81 687.22,-747.04 673.85,-744.78"/>
<polygon fill="#5b00c0" stroke="#5b00c0" points="674,-741.28 663.76,-744 673.46,-748.26 674,-741.28"/>
<text text-anchor="middle" x="838.26" y="-942.8" font-family="Times,serif" font-size="14.00" fill="#5b00c0">rw</text>
</g>
<!-- T33852&#45;&gt;T33913 -->
<g id="edge21" class="edge">
<title>T33852:f1&#45;&gt;T33913:f0</title>
<path fill="none" stroke="#5b00c0" d="M851.76,-1134C851.76,-1104.17 962.85,-1136.23 984.76,-1116 1074.46,-1033.16 1046.43,-969.12 1044.83,-850.16"/>
<polygon fill="#5b00c0" stroke="#5b00c0" points="1048.33,-849.98 1044.76,-840 1041.33,-850.02 1048.33,-849.98"/>
<text text-anchor="middle" x="1059.26" y="-983.3" font-family="Times,serif" font-size="14.00" fill="#5b00c0">rw</text>
</g>
<!-- T33852&#45;&gt;T33906 -->
<g id="edge20" class="edge">
<title>T33852:f1&#45;&gt;T33906:f0</title>
<path fill="none" stroke="#5b00c0" d="M851.76,-1134C851.76,-1111.69 1029.96,-1120.78 1051.76,-1116 1110.44,-1103.14 1121.88,-1071.83 1176.44,-1068.32"/>
<polygon fill="#5b00c0" stroke="#5b00c0" points="1176.87,-1071.81 1186.76,-1068 1176.65,-1064.81 1176.87,-1071.81"/>
<text text-anchor="middle" x="1100.26" y="-1104.8" font-family="Times,serif" font-size="14.00" fill="#5b00c0">rw</text>
</g>
<!-- T33852&#45;&gt;T33865 -->
<g id="edge19" class="edge">
<title>T33852:f1&#45;&gt;T33865:f0</title>
<path fill="none" stroke="#5b00c0" d="M851.76,-1134C851.76,-1115.71 829.46,-1126.87 814.76,-1116 728.28,-1052.07 746.25,-986.5 649.76,-939 633.19,-930.84 501.31,-939.33 467.59,-927.64"/>
<polygon fill="#5b00c0" stroke="#5b00c0" points="469.65,-924.79 459.76,-921 465.13,-930.14 469.65,-924.79"/>
<text text-anchor="middle" x="752.26" y="-1023.8" font-family="Times,serif" font-size="14.00" fill="#5b00c0">rw</text>
</g>
<!-- T33852&#45;&gt;T33873 -->
<g id="edge17" class="edge">
<title>T33852:f1&#45;&gt;T33873:f1</title>
<path fill="none" stroke="#5b00c0" d="M851.76,-1134C851.76,-1103.9 870.76,-1099.1 870.76,-1069 870.76,-1069 870.76,-1069 870.76,-824 870.76,-810.5 847.44,-785.96 839.43,-768.67"/>
<polygon fill="#5b00c0" stroke="#5b00c0" points="842.79,-767.71 836.76,-759 836.04,-769.57 842.79,-767.71"/>
<text text-anchor="middle" x="880.26" y="-942.8" font-family="Times,serif" font-size="14.00" fill="#5b00c0">rw</text>
</g>
<!-- T33917 -->
<g id="node9" class="node">
<title>T33917</title>
<polygon fill="none" stroke="#0058ad" points="507.26,-486.5 507.26,-515.5 756.26,-515.5 756.26,-486.5 507.26,-486.5"/>
<text text-anchor="middle" x="545.76" y="-497.3" font-family="Times,serif" font-size="14.00" fill="#0058ad">r 1293 1</text>
<polyline fill="none" stroke="#0058ad" points="584.26,-486.5 584.26,-515.5 "/>
<text text-anchor="middle" x="627.26" y="-497.3" font-family="Times,serif" font-size="14.00" fill="#0058ad">r 1287 nil</text>
<polyline fill="none" stroke="#0058ad" points="670.26,-486.5 670.26,-515.5 "/>
<text text-anchor="middle" x="713.26" y="-497.3" font-family="Times,serif" font-size="14.00" fill="#0058ad">r 1291 16</text>
</g>
<!-- T33903&#45;&gt;T33917 -->
<g id="edge22" class="edge">
<title>T33903:f0&#45;&gt;T33917:f0</title>
<path fill="none" stroke="#c000a5" d="M489.76,-567C489.76,-537.28 533.4,-546.52 543.63,-525.94"/>
<polygon fill="#c000a5" stroke="#c000a5" points="547.09,-526.51 545.76,-516 540.24,-525.05 547.09,-526.51"/>
<text text-anchor="middle" x="544.26" y="-537.8" font-family="Times,serif" font-size="14.00" fill="#c000a5">wr</text>
</g>
<!-- T33897&#45;&gt;T33903 -->
<g id="edge23" class="edge">
<title>T33897:f3&#45;&gt;T33903:f3</title>
<path fill="none" stroke="#c000a5" d="M739.76,-648C739.76,-627.59 753.28,-622.53 757.51,-606.92"/>
<polygon fill="#c000a5" stroke="#c000a5" points="760.98,-607.36 758.76,-597 754.04,-606.49 760.98,-607.36"/>
<text text-anchor="middle" x="763.26" y="-618.8" font-family="Times,serif" font-size="14.00" fill="#c000a5">wr</text>
</g>
<!-- T33831 -->
<g id="node6" class="node">
<title>T33831</title>
<polygon fill="none" stroke="#0058ad" points="1186.26,-81.5 1186.26,-110.5 1533.26,-110.5 1533.26,-81.5 1186.26,-81.5"/>
<text text-anchor="middle" x="1232.26" y="-92.3" font-family="Times,serif" font-size="14.00" fill="#0058ad">w 1288 13</text>
<polyline fill="none" stroke="#0058ad" points="1278.26,-81.5 1278.26,-110.5 "/>
<text text-anchor="middle" x="1316.76" y="-92.3" font-family="Times,serif" font-size="14.00" fill="#0058ad">r 1287 2</text>
<polyline fill="none" stroke="#0058ad" points="1355.26,-81.5 1355.26,-110.5 "/>
<text text-anchor="middle" x="1401.26" y="-92.3" font-family="Times,serif" font-size="14.00" fill="#0058ad">w 1284 10</text>
<polyline fill="none" stroke="#0058ad" points="1447.26,-81.5 1447.26,-110.5 "/>
<text text-anchor="middle" x="1490.26" y="-92.3" font-family="Times,serif" font-size="14.00" fill="#0058ad">r 1284 10</text>
</g>
<!-- T33841 -->
<g id="node7" class="node">
<title>T33841</title>
<polygon fill="none" stroke="#0058ad" points="1331.76,-0.5 1331.76,-29.5 1669.76,-29.5 1669.76,-0.5 1331.76,-0.5"/>
<text text-anchor="middle" x="1373.26" y="-11.3" font-family="Times,serif" font-size="14.00" fill="#0058ad">w 1290 4</text>
<polyline fill="none" stroke="#0058ad" points="1414.76,-0.5 1414.76,-29.5 "/>
<text text-anchor="middle" x="1457.76" y="-11.3" font-family="Times,serif" font-size="14.00" fill="#0058ad">r 1284 10</text>
<polyline fill="none" stroke="#0058ad" points="1500.76,-0.5 1500.76,-29.5 "/>
<text text-anchor="middle" x="1542.26" y="-11.3" font-family="Times,serif" font-size="14.00" fill="#0058ad">w 1290 5</text>
<polyline fill="none" stroke="#0058ad" points="1583.76,-0.5 1583.76,-29.5 "/>
<text text-anchor="middle" x="1626.76" y="-11.3" font-family="Times,serif" font-size="14.00" fill="#0058ad">r 1284 10</text>
</g>
<!-- T33831&#45;&gt;T33841 -->
<g id="edge24" class="edge">
<title>T33831:f2&#45;&gt;T33841:f1</title>
<path fill="none" stroke="#c000a5" d="M1401.76,-81C1401.76,-51.28 1445.4,-60.52 1455.63,-39.94"/>
<polygon fill="#c000a5" stroke="#c000a5" points="1459.09,-40.51 1457.76,-30 1452.24,-39.05 1459.09,-40.51"/>
<text text-anchor="middle" x="1456.26" y="-51.8" font-family="Times,serif" font-size="14.00" fill="#c000a5">wr</text>
</g>
<!-- T33841&#45;&gt;T33849 -->
<g id="edge25" class="edge">
<title>T33841:f2&#45;&gt;T33849:f1</title>
<path fill="none" stroke="#c000a5" d="M1542.76,-30C1542.76,-59.98 1560.76,-65.02 1560.76,-95 1560.76,-1150 1560.76,-1150 1560.76,-1150 1560.76,-1161.54 1184.78,-1195.74 1120.16,-1211.18"/>
<polygon fill="#c000a5" stroke="#c000a5" points="1118.7,-1207.99 1110.76,-1215 1121.34,-1214.47 1118.7,-1207.99"/>
<text text-anchor="middle" x="1570.26" y="-618.8" font-family="Times,serif" font-size="14.00" fill="#c000a5">wr</text>
</g>
<!-- T33923 -->
<g id="node8" class="node">
<title>T33923</title>
<polygon fill="none" stroke="#0058ad" points="663.76,-324.5 663.76,-353.5 915.76,-353.5 915.76,-324.5 663.76,-324.5"/>
<text text-anchor="middle" x="706.76" y="-335.3" font-family="Times,serif" font-size="14.00" fill="#0058ad">r 1294 nil</text>
<polyline fill="none" stroke="#0058ad" points="749.76,-324.5 749.76,-353.5 "/>
<text text-anchor="middle" x="791.26" y="-335.3" font-family="Times,serif" font-size="14.00" fill="#0058ad">w 1295 2</text>
<polyline fill="none" stroke="#0058ad" points="832.76,-324.5 832.76,-353.5 "/>
<text text-anchor="middle" x="874.26" y="-335.3" font-family="Times,serif" font-size="14.00" fill="#0058ad">w 1294 3</text>
</g>
<!-- T33937 -->
<g id="node10" class="node">
<title>T33937</title>
<polygon fill="none" stroke="#0058ad" points="617.26,-243.5 617.26,-272.5 786.26,-272.5 786.26,-243.5 617.26,-243.5"/>
<text text-anchor="middle" x="660.26" y="-254.3" font-family="Times,serif" font-size="14.00" fill="#0058ad">r 1287 nil</text>
<polyline fill="none" stroke="#0058ad" points="703.26,-243.5 703.26,-272.5 "/>
<text text-anchor="middle" x="744.76" y="-254.3" font-family="Times,serif" font-size="14.00" fill="#0058ad">w 1294 8</text>
</g>
<!-- T33923&#45;&gt;T33937 -->
<g id="edge26" class="edge">
<title>T33923:f0&#45;&gt;T33937:f1</title>
<path fill="none" stroke="#5b00c0" d="M706.76,-324C706.76,-299.71 734.82,-300.38 742.72,-283.11"/>
<polygon fill="#5b00c0" stroke="#5b00c0" points="746.21,-283.5 744.76,-273 739.35,-282.11 746.21,-283.5"/>
<text text-anchor="middle" x="745.26" y="-294.8" font-family="Times,serif" font-size="14.00" fill="#5b00c0">rw</text>
</g>
<!-- T33915 -->
<g id="node13" class="node">
<title>T33915</title>
<polygon fill="none" stroke="#0058ad" points="585.76,-405.5 585.76,-434.5 917.76,-434.5 917.76,-405.5 585.76,-405.5"/>
<text text-anchor="middle" x="627.26" y="-416.3" font-family="Times,serif" font-size="14.00" fill="#0058ad">w 1287 5</text>
<polyline fill="none" stroke="#0058ad" points="668.76,-405.5 668.76,-434.5 "/>
<text text-anchor="middle" x="711.76" y="-416.3" font-family="Times,serif" font-size="14.00" fill="#0058ad">r 1292 14</text>
<polyline fill="none" stroke="#0058ad" points="754.76,-405.5 754.76,-434.5 "/>
<text text-anchor="middle" x="793.26" y="-416.3" font-family="Times,serif" font-size="14.00" fill="#0058ad">r 1293 3</text>
<polyline fill="none" stroke="#0058ad" points="831.76,-405.5 831.76,-434.5 "/>
<text text-anchor="middle" x="874.76" y="-416.3" font-family="Times,serif" font-size="14.00" fill="#0058ad">r 1294 nil</text>
</g>
<!-- T33917&#45;&gt;T33915 -->
<g id="edge29" class="edge">
<title>T33917:f1&#45;&gt;T33915:f0</title>
<path fill="none" stroke="#5b00c0" d="M626.76,-486C626.76,-467.23 626.76,-460.12 626.76,-445.35"/>
<polygon fill="#5b00c0" stroke="#5b00c0" points="630.26,-445 626.76,-435 623.26,-445 630.26,-445"/>
<text text-anchor="middle" x="636.26" y="-456.8" font-family="Times,serif" font-size="14.00" fill="#5b00c0">rw</text>
</g>
<!-- T33810 -->
<g id="node14" class="node">
<title>T33810</title>
<polygon fill="none" stroke="#0058ad" points="887.76,-162.5 887.76,-191.5 1047.76,-191.5 1047.76,-162.5 887.76,-162.5"/>
<text text-anchor="middle" x="926.26" y="-173.3" font-family="Times,serif" font-size="14.00" fill="#0058ad">r 1284 9</text>
<polyline fill="none" stroke="#0058ad" points="964.76,-162.5 964.76,-191.5 "/>
<text text-anchor="middle" x="1006.26" y="-173.3" font-family="Times,serif" font-size="14.00" fill="#0058ad">w 1287 2</text>
</g>
<!-- T33917&#45;&gt;T33810 -->
<g id="edge27" class="edge">
<title>T33917:f1&#45;&gt;T33810:f1</title>
<path fill="none" stroke="#5b00c0" d="M626.76,-486C626.76,-443.16 1006.76,-463.84 1006.76,-421 1006.76,-421 1006.76,-421 1006.76,-257 1006.76,-231.84 1006.76,-223.11 1006.76,-202.18"/>
<polygon fill="#5b00c0" stroke="#5b00c0" points="1010.26,-202 1006.76,-192 1003.26,-202 1010.26,-202"/>
<text text-anchor="middle" x="1016.26" y="-335.3" font-family="Times,serif" font-size="14.00" fill="#5b00c0">rw</text>
</g>
<!-- T33917&#45;&gt;T33871 -->
<g id="edge28" class="edge">
<title>T33917:f1&#45;&gt;T33871:f1</title>
<path fill="none" stroke="#5b00c0" d="M626.76,-486C626.76,-407.59 462.76,-499.41 462.76,-421 462.76,-421 462.76,-421 462.76,-257 462.76,-219.27 317.38,-230.69 292.39,-201.41"/>
<polygon fill="#5b00c0" stroke="#5b00c0" points="295.63,-200.07 288.76,-192 289.1,-202.59 295.63,-200.07"/>
<text text-anchor="middle" x="472.26" y="-335.3" font-family="Times,serif" font-size="14.00" fill="#5b00c0">rw</text>
</g>
<!-- T33937&#45;&gt;T33915 -->
<g id="edge31" class="edge">
<title>T33937:f0&#45;&gt;T33915:f0</title>
<path fill="none" stroke="#5b00c0" d="M615.76,-258C585.82,-258 619.8,-353.45 625.87,-394.87"/>
<polygon fill="#5b00c0" stroke="#5b00c0" points="622.39,-395.35 626.76,-405 629.37,-394.73 622.39,-395.35"/>
<text text-anchor="middle" x="625.26" y="-335.3" font-family="Times,serif" font-size="14.00" fill="#5b00c0">rw</text>
</g>
<!-- T33937&#45;&gt;T33810 -->
<g id="edge30" class="edge">
<title>T33937:f0&#45;&gt;T33810:f1</title>
<path fill="none" stroke="#5b00c0" d="M659.76,-243C659.76,-207.07 954.66,-227.16 1000.74,-199.99"/>
<polygon fill="#5b00c0" stroke="#5b00c0" points="1003.53,-202.09 1006.76,-192 997.94,-197.88 1003.53,-202.09"/>
<text text-anchor="middle" x="965.26" y="-213.8" font-family="Times,serif" font-size="14.00" fill="#5b00c0">rw</text>
</g>
<!-- T33937&#45;&gt;T33871 -->
<g id="edge32" class="edge">
<title>T33937:f0&#45;&gt;T33871:f1</title>
<path fill="none" stroke="#5b00c0" d="M659.76,-243C659.76,-160.35 558.63,-221.28 476.76,-210 458.65,-207.5 329.43,-211.62 296.42,-198.85"/>
<polygon fill="#5b00c0" stroke="#5b00c0" points="298.55,-196.06 288.76,-192 293.88,-201.28 298.55,-196.06"/>
<text text-anchor="middle" x="666.26" y="-213.8" font-family="Times,serif" font-size="14.00" fill="#5b00c0">rw</text>
</g>
<!-- T33868&#45;&gt;T33897 -->
<g id="edge35" class="edge">
<title>T33868:f0&#45;&gt;T33897:f0</title>
<path fill="none" stroke="#c000a5" d="M498.76,-825C493.58,-825 450.26,-690.73 447.76,-678 447.46,-676.46 446.87,-674.82 446.25,-673.21"/>
<polygon fill="#c000a5" stroke="#c000a5" points="449.75,-673.16 446.76,-663 442.76,-672.81 449.75,-673.16"/>
<text text-anchor="middle" x="482.26" y="-740.3" font-family="Times,serif" font-size="14.00" fill="#c000a5">wr</text>
</g>
<!-- T33868&#45;&gt;T33878 -->
<g id="edge33" class="edge">
<title>T33868:f0&#45;&gt;T33878:f0</title>
<path fill="none" stroke="#c000a5" d="M540.76,-810C540.76,-791.23 540.76,-784.12 540.76,-769.35"/>
<polygon fill="#c000a5" stroke="#c000a5" points="544.26,-769 540.76,-759 537.26,-769 544.26,-769"/>
<text text-anchor="middle" x="550.26" y="-780.8" font-family="Times,serif" font-size="14.00" fill="#c000a5">wr</text>
</g>
<!-- T33868&#45;&gt;T33873 -->
<g id="edge34" class="edge">
<title>T33868:f0&#45;&gt;T33873:f0</title>
<path fill="none" stroke="#c000a5" d="M540.76,-810C540.76,-790.67 695.8,-799.15 713.76,-792 732.47,-784.55 749.95,-783.33 755.18,-769.06"/>
<polygon fill="#c000a5" stroke="#c000a5" points="758.66,-769.42 756.76,-759 751.75,-768.33 758.66,-769.42"/>
<text text-anchor="middle" x="758.26" y="-780.8" font-family="Times,serif" font-size="14.00" fill="#c000a5">wr</text>
</g>
<!-- T33911&#45;&gt;T33915 -->
<g id="edge36" class="edge">
<title>T33911:f1&#45;&gt;T33915:f1</title>
<path fill="none" stroke="#c000a5" d="M542.76,-111C542.76,-121.13 551.32,-120.45 556.76,-129 569.35,-148.79 580.76,-152.55 580.76,-176 580.76,-340 580.76,-340 580.76,-340 580.76,-366.31 594.36,-373.2 616.76,-387 631.91,-396.33 687.12,-387.82 705.65,-396.82"/>
<polygon fill="#c000a5" stroke="#c000a5" points="702.97,-399.08 711.76,-405 708.58,-394.89 702.97,-399.08"/>
<text text-anchor="middle" x="590.26" y="-254.3" font-family="Times,serif" font-size="14.00" fill="#c000a5">wr</text>
</g>
<!-- T33915&#45;&gt;T33923 -->
<g id="edge37" class="edge">
<title>T33915:f3&#45;&gt;T33923:f2</title>
<path fill="none" stroke="#5b00c0" d="M874.76,-405C874.76,-386.23 874.76,-379.12 874.76,-364.35"/>
<polygon fill="#5b00c0" stroke="#5b00c0" points="878.26,-364 874.76,-354 871.26,-364 878.26,-364"/>
<text text-anchor="middle" x="884.26" y="-375.8" font-family="Times,serif" font-size="14.00" fill="#5b00c0">rw</text>
</g>
<!-- T33915&#45;&gt;T33937 -->
<g id="edge38" class="edge">
<title>T33915:f3&#45;&gt;T33937:f1</title>
<path fill="none" stroke="#5b00c0" d="M918.76,-420C961.51,-420 947.5,-360.2 924.76,-324 890.63,-269.68 858.75,-259.02 797.8,-258.07"/>
<polygon fill="#5b00c0" stroke="#5b00c0" points="797.78,-254.57 787.76,-258 797.73,-261.57 797.78,-254.57"/>
<text text-anchor="middle" x="948.26" y="-335.3" font-family="Times,serif" font-size="14.00" fill="#5b00c0">rw</text>
</g>
<!-- T33810&#45;&gt;T33831 -->
<g id="edge39" class="edge">
<title>T33810:f1&#45;&gt;T33831:f1</title>
<path fill="none" stroke="#c000a5" d="M1048.76,-177C1106.62,-177 1293.81,-172.85 1314.83,-120.89"/>
<polygon fill="#c000a5" stroke="#c000a5" points="1318.28,-121.48 1316.76,-111 1311.41,-120.15 1318.28,-121.48"/>
<text text-anchor="middle" x="1317.26" y="-132.8" font-family="Times,serif" font-size="14.00" fill="#c000a5">wr</text>
</g>
<!-- T33855&#45;&gt;T33864 -->
<g id="edge40" class="edge">
<title>T33855:f1&#45;&gt;T33864:f1</title>
<path fill="none" stroke="#c000a5" d="M426.76,-1053C426.76,-1033.14 415.58,-1027.45 411.91,-1012.23"/>
<polygon fill="#c000a5" stroke="#c000a5" points="415.35,-1011.55 410.76,-1002 408.4,-1012.33 415.35,-1011.55"/>
<text text-anchor="middle" x="431.26" y="-1023.8" font-family="Times,serif" font-size="14.00" fill="#c000a5">wr</text>
</g>
<!-- T33878&#45;&gt;T33897 -->
<g id="edge41" class="edge">
<title>T33878:f1&#45;&gt;T33897:f2</title>
<path fill="none" stroke="#c000a5" d="M621.76,-729C621.76,-705.59 646.87,-704.87 653.93,-687.84"/>
<polygon fill="#c000a5" stroke="#c000a5" points="657.37,-688.47 655.76,-678 650.49,-687.19 657.37,-688.47"/>
<text text-anchor="middle" x="656.26" y="-699.8" font-family="Times,serif" font-size="14.00" fill="#c000a5">wr</text>
</g>
<!-- T33913&#45;&gt;T33917 -->
<g id="edge42" class="edge">
<title>T33913:f0&#45;&gt;T33917:f2</title>
<path fill="none" stroke="#c000a5" d="M1044.76,-810C1044.76,-781.11 1044.76,-773.89 1044.76,-745 1044.76,-745 1044.76,-745 1044.76,-581 1044.76,-517.89 844.18,-502.41 768.05,-501.09"/>
<polygon fill="#c000a5" stroke="#c000a5" points="767.79,-497.59 757.76,-501 767.73,-504.59 767.79,-497.59"/>
<text text-anchor="middle" x="1054.26" y="-659.3" font-family="Times,serif" font-size="14.00" fill="#c000a5">wr</text>
</g>
<!-- T33871&#45;&gt;T33911 -->
<g id="edge43" class="edge">
<title>T33871:f2&#45;&gt;T33911:f0</title>
<path fill="none" stroke="#c000a5" d="M376.76,-162C376.76,-132.92 376.92,-103.52 399.82,-97.23"/>
<polygon fill="#c000a5" stroke="#c000a5" points="400.26,-100.7 409.76,-96 399.4,-93.75 400.26,-100.7"/>
<text text-anchor="middle" x="387.26" y="-132.8" font-family="Times,serif" font-size="14.00" fill="#c000a5">wr</text>
</g>
<!-- T33906&#45;&gt;T33911 -->
<g id="edge44" class="edge">
<title>T33906:f1&#45;&gt;T33911:f2</title>
<path fill="none" stroke="#c000a5" d="M1364.76,-1068C1401.88,-1068 1388.76,-1025.12 1388.76,-988 1388.76,-988 1388.76,-988 1388.76,-176 1388.76,-94.62 688.9,-187.59 631.49,-120.51"/>
<polygon fill="#c000a5" stroke="#c000a5" points="634.67,-119.03 627.76,-111 628.16,-121.59 634.67,-119.03"/>
<text text-anchor="middle" x="1398.26" y="-578.3" font-family="Times,serif" font-size="14.00" fill="#c000a5">wr</text>
</g>
<!-- T33865&#45;&gt;T33897 -->
<g id="edge48" class="edge">
<title>T33865:f1&#45;&gt;T33897:f3</title>
<path fill="none" stroke="#5b00c0" d="M544.76,-891C544.76,-876.1 658.51,-850.82 668.76,-840 689.15,-818.47 680.41,-804.79 690.76,-777 698.76,-755.5 699.69,-749.62 709.76,-729 719.59,-708.88 734.43,-705.11 738.62,-688.2"/>
<polygon fill="#5b00c0" stroke="#5b00c0" points="742.13,-688.33 739.76,-678 735.17,-687.55 742.13,-688.33"/>
<text text-anchor="middle" x="700.26" y="-780.8" font-family="Times,serif" font-size="14.00" fill="#5b00c0">rw</text>
</g>
<!-- T33865&#45;&gt;T33868 -->
<g id="edge47" class="edge">
<title>T33865:f1&#45;&gt;T33868:f0</title>
<path fill="none" stroke="#5b00c0" d="M544.76,-891C544.76,-872.17 542.02,-865.14 541.07,-850.37"/>
<polygon fill="#5b00c0" stroke="#5b00c0" points="544.56,-849.89 540.76,-840 537.56,-850.1 544.56,-849.89"/>
<text text-anchor="middle" x="552.26" y="-861.8" font-family="Times,serif" font-size="14.00" fill="#5b00c0">rw</text>
</g>
<!-- T33865&#45;&gt;T33911 -->
<g id="edge49" class="edge">
<title>T33865:f1&#45;&gt;T33911:f1</title>
<path fill="none" stroke="#5b00c0" d="M544.76,-891C544.76,-874.49 499.94,-853.72 490.76,-840 448.7,-777.15 448.32,-753.01 438.76,-678 406.78,-427.2 539.19,-368.73 542.69,-121.03"/>
<polygon fill="#5b00c0" stroke="#5b00c0" points="546.19,-121.02 542.76,-111 539.19,-120.98 546.19,-121.02"/>
<text text-anchor="middle" x="457.26" y="-497.3" font-family="Times,serif" font-size="14.00" fill="#5b00c0">rw</text>
</g>
<!-- T33865&#45;&gt;T33913 -->
<g id="edge45" class="edge">
<title>T33865:f1&#45;&gt;T33913:f2</title>
<path fill="none" stroke="#5b00c0" d="M544.76,-891C544.76,-885.63 924.41,-858.39 929.76,-858 944.57,-856.92 1171.15,-856.69 1219.66,-844.81"/>
<polygon fill="#5b00c0" stroke="#5b00c0" points="1221.56,-847.77 1228.76,-840 1218.28,-841.58 1221.56,-847.77"/>
<text text-anchor="middle" x="939.26" y="-861.8" font-family="Times,serif" font-size="14.00" fill="#5b00c0">rw</text>
</g>
<!-- T33865&#45;&gt;T33871 -->
<g id="edge46" class="edge">
<title>T33865:f1&#45;&gt;T33871:f0</title>
<path fill="none" stroke="#5b00c0" d="M544.76,-891C544.76,-871.34 387.42,-879.17 368.76,-873 329.97,-860.18 289.76,-866.86 289.76,-826 289.76,-826 289.76,-826 289.76,-257 289.76,-236.62 227.16,-220.58 210.04,-201.38"/>
<polygon fill="#5b00c0" stroke="#5b00c0" points="213.09,-199.65 205.76,-192 206.72,-202.55 213.09,-199.65"/>
<text text-anchor="middle" x="299.26" y="-537.8" font-family="Times,serif" font-size="14.00" fill="#5b00c0">rw</text>
</g>
<!-- T33873&#45;&gt;T33897 -->
<g id="edge50" class="edge">
<title>T33873:f0&#45;&gt;T33897:f3</title>
<path fill="none" stroke="#5b00c0" d="M756.76,-729C756.76,-709.03 744.88,-703.5 740.98,-688.27"/>
<polygon fill="#5b00c0" stroke="#5b00c0" points="744.42,-687.52 739.76,-678 737.46,-688.34 744.42,-687.52"/>
<text text-anchor="middle" x="761.26" y="-699.8" font-family="Times,serif" font-size="14.00" fill="#5b00c0">rw</text>
</g>
</g>
</svg>
