<?xml version="1.0" encoding="UTF-8" standalone="no"?>
<!DOCTYPE svg PUBLIC "-//W3C//DTD SVG 1.1//EN"
 "http://www.w3.org/Graphics/SVG/1.1/DTD/svg11.dtd">
<!-- Generated by graphviz version 2.43.0 (0)
 -->
<!-- Title: a_graph Pages: 1 -->
<svg width="590pt" height="281pt"
 viewBox="0.00 0.00 590.00 281.00" xmlns="http://www.w3.org/2000/svg" xmlns:xlink="http://www.w3.org/1999/xlink">
<g id="graph0" class="graph" transform="scale(1 1) rotate(0) translate(4 277)">
<title>a_graph</title>
<polygon fill="white" stroke="transparent" points="-4,4 -4,-277 586,-277 586,4 -4,4"/>
<!-- T3854 -->
<g id="node1" class="node">
<title>T3854</title>
<polygon fill="none" stroke="#0058ad" points="293,-243.5 293,-272.5 444,-272.5 444,-243.5 293,-243.5"/>
<text text-anchor="middle" x="331.5" y="-254.3" font-family="Times,serif" font-size="14.00" fill="#0058ad">r 152 nil</text>
<polyline fill="none" stroke="#0058ad" points="370,-243.5 370,-272.5 "/>
<text text-anchor="middle" x="407" y="-254.3" font-family="Times,serif" font-size="14.00" fill="#0058ad">w 151 1</text>
</g>
<!-- T3848 -->
<g id="node2" class="node">
<title>T3848</title>
<polygon fill="none" stroke="#0058ad" points="0,-162.5 0,-191.5 305,-191.5 305,-162.5 0,-162.5"/>
<text text-anchor="middle" x="38.5" y="-173.3" font-family="Times,serif" font-size="14.00" fill="#0058ad">r 150 14</text>
<polyline fill="none" stroke="#0058ad" points="77,-162.5 77,-191.5 "/>
<text text-anchor="middle" x="115.5" y="-173.3" font-family="Times,serif" font-size="14.00" fill="#0058ad">r 150 14</text>
<polyline fill="none" stroke="#0058ad" points="154,-162.5 154,-191.5 "/>
<text text-anchor="middle" x="192.5" y="-173.3" font-family="Times,serif" font-size="14.00" fill="#0058ad">r 152 nil</text>
<polyline fill="none" stroke="#0058ad" points="231,-162.5 231,-191.5 "/>
<text text-anchor="middle" x="268" y="-173.3" font-family="Times,serif" font-size="14.00" fill="#0058ad">w 152 1</text>
</g>
<!-- T3854&#45;&gt;T3848 -->
<g id="edge1" class="edge">
<title>T3854:f0&#45;&gt;T3848:f3</title>
<path fill="none" stroke="#5b00c0" d="M291.5,-258C263.83,-258 267.2,-230.29 268.27,-202.28"/>
<polygon fill="#5b00c0" stroke="#5b00c0" points="271.78,-202.08 268.5,-192 264.78,-201.92 271.78,-202.08"/>
<text text-anchor="middle" x="277" y="-213.8" font-family="Times,serif" font-size="14.00" fill="#5b00c0">rw</text>
</g>
<!-- T3855 -->
<g id="node4" class="node">
<title>T3855</title>
<polygon fill="none" stroke="#0058ad" points="78.5,-81.5 78.5,-110.5 368.5,-110.5 368.5,-81.5 78.5,-81.5"/>
<text text-anchor="middle" x="115.5" y="-92.3" font-family="Times,serif" font-size="14.00" fill="#0058ad">w 152 3</text>
<polyline fill="none" stroke="#0058ad" points="152.5,-81.5 152.5,-110.5 "/>
<text text-anchor="middle" x="186.5" y="-92.3" font-family="Times,serif" font-size="14.00" fill="#0058ad">r 152 3</text>
<polyline fill="none" stroke="#0058ad" points="220.5,-81.5 220.5,-110.5 "/>
<text text-anchor="middle" x="257.5" y="-92.3" font-family="Times,serif" font-size="14.00" fill="#0058ad">w 149 7</text>
<polyline fill="none" stroke="#0058ad" points="294.5,-81.5 294.5,-110.5 "/>
<text text-anchor="middle" x="331.5" y="-92.3" font-family="Times,serif" font-size="14.00" fill="#0058ad">w 152 4</text>
</g>
<!-- T3854&#45;&gt;T3855 -->
<g id="edge2" class="edge">
<title>T3854:f0&#45;&gt;T3855:f3</title>
<path fill="none" stroke="#5b00c0" d="M331.5,-243C331.5,-187.89 331.5,-171.6 331.5,-121.19"/>
<polygon fill="#5b00c0" stroke="#5b00c0" points="335,-121 331.5,-111 328,-121 335,-121"/>
<text text-anchor="middle" x="341" y="-173.3" font-family="Times,serif" font-size="14.00" fill="#5b00c0">rw</text>
</g>
<!-- T3848&#45;&gt;T3855 -->
<g id="edge3" class="edge">
<title>T3848:f2&#45;&gt;T3855:f3</title>
<path fill="none" stroke="#5b00c0" d="M192.5,-162C192.5,-132.7 302.76,-141.23 326.88,-120.21"/>
<polygon fill="#5b00c0" stroke="#5b00c0" points="330.14,-121.51 331.5,-111 323.88,-118.37 330.14,-121.51"/>
<text text-anchor="middle" x="314" y="-132.8" font-family="Times,serif" font-size="14.00" fill="#5b00c0">rw</text>
</g>
<!-- T3863 -->
<g id="node3" class="node">
<title>T3863</title>
<polygon fill="none" stroke="#0058ad" points="206,-0.5 206,-29.5 419,-29.5 419,-0.5 206,-0.5"/>
<text text-anchor="middle" x="244.5" y="-11.3" font-family="Times,serif" font-size="14.00" fill="#0058ad">r 151 nil</text>
<polyline fill="none" stroke="#0058ad" points="283,-0.5 283,-29.5 "/>
<text text-anchor="middle" x="317" y="-11.3" font-family="Times,serif" font-size="14.00" fill="#0058ad">r 152 4</text>
<polyline fill="none" stroke="#0058ad" points="351,-0.5 351,-29.5 "/>
<text text-anchor="middle" x="385" y="-11.3" font-family="Times,serif" font-size="14.00" fill="#0058ad">r 149 7</text>
</g>
<!-- T3863&#45;&gt;T3854 -->
<g id="edge4" class="edge">
<title>T3863:f0&#45;&gt;T3854:f1</title>
<path fill="none" stroke="#5b00c0" d="M244.5,-30C244.5,-53.89 329.84,-35.99 350.5,-48 425.59,-91.66 408.96,-148.21 407.59,-232.82"/>
<polygon fill="#5b00c0" stroke="#5b00c0" points="404.08,-232.97 407.5,-243 411.08,-233.03 404.08,-232.97"/>
<text text-anchor="middle" x="419" y="-132.8" font-family="Times,serif" font-size="14.00" fill="#5b00c0">rw</text>
</g>
<!-- T3855&#45;&gt;T3863 -->
<g id="edge6" class="edge">
<title>T3855:f3&#45;&gt;T3863:f1</title>
<path fill="none" stroke="#c000a5" d="M331.5,-81C331.5,-61.35 321.72,-55.34 318.51,-40.17"/>
<polygon fill="#c000a5" stroke="#c000a5" points="321.97,-39.61 317.5,-30 315,-40.3 321.97,-39.61"/>
<text text-anchor="middle" x="337" y="-51.8" font-family="Times,serif" font-size="14.00" fill="#c000a5">wr</text>
</g>
<!-- T3861 -->
<g id="node5" class="node">
<title>T3861</title>
<polygon fill="none" stroke="#0058ad" points="437,-0.5 437,-29.5 582,-29.5 582,-0.5 437,-0.5"/>
<text text-anchor="middle" x="475.5" y="-11.3" font-family="Times,serif" font-size="14.00" fill="#0058ad">r 151 nil</text>
<polyline fill="none" stroke="#0058ad" points="514,-0.5 514,-29.5 "/>
<text text-anchor="middle" x="548" y="-11.3" font-family="Times,serif" font-size="14.00" fill="#0058ad">r 152 4</text>
</g>
<!-- T3855&#45;&gt;T3861 -->
<g id="edge5" class="edge">
<title>T3855:f3&#45;&gt;T3861:f1</title>
<path fill="none" stroke="#c000a5" d="M369.5,-96C407.96,-96 405.75,-62.17 441.5,-48 460.5,-40.47 524.17,-50.1 543.13,-38.52"/>
<polygon fill="#c000a5" stroke="#c000a5" points="546.13,-40.33 548.5,-30 540.21,-36.59 546.13,-40.33"/>
<text text-anchor="middle" x="451" y="-51.8" font-family="Times,serif" font-size="14.00" fill="#c000a5">wr</text>
</g>
<!-- T3861&#45;&gt;T3854 -->
<g id="edge7" class="edge">
<title>T3861:f0&#45;&gt;T3854:f1</title>
<path fill="none" stroke="#5b00c0" d="M475.5,-30C475.5,-128.61 542.72,-249.18 455.64,-257.54"/>
<polygon fill="#5b00c0" stroke="#5b00c0" points="455.33,-254.05 445.5,-258 455.65,-261.04 455.33,-254.05"/>
<text text-anchor="middle" x="501" y="-132.8" font-family="Times,serif" font-size="14.00" fill="#5b00c0">rw</text>
</g>
</g>
</svg>
