<?xml version="1.0" encoding="UTF-8" standalone="no"?>
<!DOCTYPE svg PUBLIC "-//W3C//DTD SVG 1.1//EN"
 "http://www.w3.org/Graphics/SVG/1.1/DTD/svg11.dtd">
<!-- Generated by graphviz version 2.43.0 (0)
 -->
<!-- Title: a_graph Pages: 1 -->
<svg width="473pt" height="200pt"
 viewBox="0.00 0.00 473.00 200.00" xmlns="http://www.w3.org/2000/svg" xmlns:xlink="http://www.w3.org/1999/xlink">
<g id="graph0" class="graph" transform="scale(1 1) rotate(0) translate(4 196)">
<title>a_graph</title>
<polygon fill="white" stroke="transparent" points="-4,4 -4,-196 469,-196 469,4 -4,4"/>
<!-- T3629 -->
<g id="node1" class="node">
<title>T3629</title>
<polygon fill="none" stroke="#0058ad" points="0,-162.5 0,-191.5 293,-191.5 293,-162.5 0,-162.5"/>
<text text-anchor="middle" x="34" y="-173.3" font-family="Times,serif" font-size="14.00" fill="#0058ad">r 139 8</text>
<polyline fill="none" stroke="#0058ad" points="68,-162.5 68,-191.5 "/>
<text text-anchor="middle" x="105" y="-173.3" font-family="Times,serif" font-size="14.00" fill="#0058ad">w 143 1</text>
<polyline fill="none" stroke="#0058ad" points="142,-162.5 142,-191.5 "/>
<text text-anchor="middle" x="179" y="-173.3" font-family="Times,serif" font-size="14.00" fill="#0058ad">w 143 2</text>
<polyline fill="none" stroke="#0058ad" points="216,-162.5 216,-191.5 "/>
<text text-anchor="middle" x="254.5" y="-173.3" font-family="Times,serif" font-size="14.00" fill="#0058ad">r 144 nil</text>
</g>
<!-- T3633 -->
<g id="node3" class="node">
<title>T3633</title>
<polygon fill="none" stroke="#0058ad" points="216.5,-81.5 216.5,-110.5 444.5,-110.5 444.5,-81.5 216.5,-81.5"/>
<text text-anchor="middle" x="253.5" y="-92.3" font-family="Times,serif" font-size="14.00" fill="#0058ad">w 144 1</text>
<polyline fill="none" stroke="#0058ad" points="290.5,-81.5 290.5,-110.5 "/>
<text text-anchor="middle" x="329" y="-92.3" font-family="Times,serif" font-size="14.00" fill="#0058ad">r 143 nil</text>
<polyline fill="none" stroke="#0058ad" points="367.5,-81.5 367.5,-110.5 "/>
<text text-anchor="middle" x="406" y="-92.3" font-family="Times,serif" font-size="14.00" fill="#0058ad">r 143 nil</text>
</g>
<!-- T3629&#45;&gt;T3633 -->
<g id="edge1" class="edge">
<title>T3629:f3&#45;&gt;T3633:f0</title>
<path fill="none" stroke="#5b00c0" d="M254.5,-162C254.5,-143.23 253.81,-136.12 253.58,-121.35"/>
<polygon fill="#5b00c0" stroke="#5b00c0" points="257.08,-120.97 253.5,-111 250.08,-121.03 257.08,-120.97"/>
<text text-anchor="middle" x="263" y="-132.8" font-family="Times,serif" font-size="14.00" fill="#5b00c0">rw</text>
</g>
<!-- T3635 -->
<g id="node2" class="node">
<title>T3635</title>
<polygon fill="none" stroke="#0058ad" points="178,-0.5 178,-29.5 465,-29.5 465,-0.5 178,-0.5"/>
<text text-anchor="middle" x="216.5" y="-11.3" font-family="Times,serif" font-size="14.00" fill="#0058ad">r 143 nil</text>
<polyline fill="none" stroke="#0058ad" points="255,-0.5 255,-29.5 "/>
<text text-anchor="middle" x="292" y="-11.3" font-family="Times,serif" font-size="14.00" fill="#0058ad">w 143 3</text>
<polyline fill="none" stroke="#0058ad" points="329,-0.5 329,-29.5 "/>
<text text-anchor="middle" x="363" y="-11.3" font-family="Times,serif" font-size="14.00" fill="#0058ad">r 143 3</text>
<polyline fill="none" stroke="#0058ad" points="397,-0.5 397,-29.5 "/>
<text text-anchor="middle" x="431" y="-11.3" font-family="Times,serif" font-size="14.00" fill="#0058ad">r 143 3</text>
</g>
<!-- T3635&#45;&gt;T3629 -->
<g id="edge2" class="edge">
<title>T3635:f0&#45;&gt;T3629:f2</title>
<path fill="none" stroke="#5b00c0" d="M176.5,-15C114.47,-15 172.9,-88.57 179,-151.93"/>
<polygon fill="#5b00c0" stroke="#5b00c0" points="175.51,-152.19 179.5,-162 182.5,-151.84 175.51,-152.19"/>
<text text-anchor="middle" x="179" y="-92.3" font-family="Times,serif" font-size="14.00" fill="#5b00c0">rw</text>
</g>
<!-- T3633&#45;&gt;T3629 -->
<g id="edge4" class="edge">
<title>T3633:f1&#45;&gt;T3629:f2</title>
<path fill="none" stroke="#5b00c0" d="M328.5,-111C328.5,-133.14 251.08,-120.83 230.5,-129 220.7,-132.89 195.08,-142.61 184.35,-153.11"/>
<polygon fill="#5b00c0" stroke="#5b00c0" points="181.21,-151.54 179.5,-162 187.36,-154.89 181.21,-151.54"/>
<text text-anchor="middle" x="240" y="-132.8" font-family="Times,serif" font-size="14.00" fill="#5b00c0">rw</text>
</g>
<!-- T3633&#45;&gt;T3635 -->
<g id="edge3" class="edge">
<title>T3633:f1&#45;&gt;T3635:f1</title>
<path fill="none" stroke="#5b00c0" d="M328.5,-81C328.5,-56.93 301.17,-57.25 293.49,-40.04"/>
<polygon fill="#5b00c0" stroke="#5b00c0" points="296.88,-39.13 291.5,-30 290.01,-40.49 296.88,-39.13"/>
<text text-anchor="middle" x="330" y="-51.8" font-family="Times,serif" font-size="14.00" fill="#5b00c0">rw</text>
</g>
</g>
</svg>
