<?xml version="1.0" encoding="UTF-8" standalone="no"?>
<!DOCTYPE svg PUBLIC "-//W3C//DTD SVG 1.1//EN"
 "http://www.w3.org/Graphics/SVG/1.1/DTD/svg11.dtd">
<!-- Generated by graphviz version 2.43.0 (0)
 -->
<!-- Title: a_graph Pages: 1 -->
<svg width="716pt" height="443pt"
 viewBox="0.00 0.00 715.50 443.00" xmlns="http://www.w3.org/2000/svg" xmlns:xlink="http://www.w3.org/1999/xlink">
<g id="graph0" class="graph" transform="scale(1 1) rotate(0) translate(4 439)">
<title>a_graph</title>
<polygon fill="white" stroke="transparent" points="-4,4 -4,-439 711.5,-439 711.5,4 -4,4"/>
<!-- T954 -->
<g id="node1" class="node">
<title>T954</title>
<polygon fill="none" stroke="#0058ad" points="130.5,-405.5 130.5,-434.5 384.5,-434.5 384.5,-405.5 130.5,-405.5"/>
<text text-anchor="middle" x="158.5" y="-416.3" font-family="Times,serif" font-size="14.00" fill="#0058ad">w 3 6</text>
<polyline fill="none" stroke="#0058ad" points="186.5,-405.5 186.5,-434.5 "/>
<text text-anchor="middle" x="216" y="-416.3" font-family="Times,serif" font-size="14.00" fill="#0058ad">r 44 9</text>
<polyline fill="none" stroke="#0058ad" points="245.5,-405.5 245.5,-434.5 "/>
<text text-anchor="middle" x="278" y="-416.3" font-family="Times,serif" font-size="14.00" fill="#0058ad">w 43 6</text>
<polyline fill="none" stroke="#0058ad" points="310.5,-405.5 310.5,-434.5 "/>
<text text-anchor="middle" x="347.5" y="-416.3" font-family="Times,serif" font-size="14.00" fill="#0058ad">w 44 11</text>
</g>
<!-- T957 -->
<g id="node2" class="node">
<title>T957</title>
<polygon fill="none" stroke="#0058ad" points="503.5,-324.5 503.5,-353.5 707.5,-353.5 707.5,-324.5 503.5,-324.5"/>
<text text-anchor="middle" x="537.5" y="-335.3" font-family="Times,serif" font-size="14.00" fill="#0058ad">r 44 11</text>
<polyline fill="none" stroke="#0058ad" points="571.5,-324.5 571.5,-353.5 "/>
<text text-anchor="middle" x="605.5" y="-335.3" font-family="Times,serif" font-size="14.00" fill="#0058ad">r 44 11</text>
<polyline fill="none" stroke="#0058ad" points="639.5,-324.5 639.5,-353.5 "/>
<text text-anchor="middle" x="673.5" y="-335.3" font-family="Times,serif" font-size="14.00" fill="#0058ad">r 44 11</text>
</g>
<!-- T954&#45;&gt;T957 -->
<g id="edge1" class="edge">
<title>T954:f3&#45;&gt;T957:f0</title>
<path fill="none" stroke="#c000a5" d="M385.5,-420C419.09,-420 426.03,-406.34 453.5,-387 458.32,-383.61 480.44,-356.75 493.74,-344.75"/>
<polygon fill="#c000a5" stroke="#c000a5" points="496.06,-347.41 502.5,-339 492.22,-341.56 496.06,-347.41"/>
<text text-anchor="middle" x="477" y="-375.8" font-family="Times,serif" font-size="14.00" fill="#c000a5">wr</text>
</g>
<!-- T959 -->
<g id="node4" class="node">
<title>T959</title>
<polygon fill="none" stroke="#0058ad" points="405.5,-324.5 405.5,-353.5 473.5,-353.5 473.5,-324.5 405.5,-324.5"/>
<text text-anchor="middle" x="439.5" y="-335.3" font-family="Times,serif" font-size="14.00" fill="#0058ad">r 44 11</text>
</g>
<!-- T954&#45;&gt;T959 -->
<g id="edge3" class="edge">
<title>T954:f3&#45;&gt;T959:f0</title>
<path fill="none" stroke="#c000a5" d="M385.5,-420C412.88,-420 427.24,-387.55 434.08,-363.73"/>
<polygon fill="#c000a5" stroke="#c000a5" points="437.52,-364.42 436.65,-353.86 430.75,-362.66 437.52,-364.42"/>
<text text-anchor="middle" x="440" y="-375.8" font-family="Times,serif" font-size="14.00" fill="#c000a5">wr</text>
</g>
<!-- T966 -->
<g id="node7" class="node">
<title>T966</title>
<polygon fill="none" stroke="#0058ad" points="306.5,-243.5 306.5,-272.5 584.5,-272.5 584.5,-243.5 306.5,-243.5"/>
<text text-anchor="middle" x="340.5" y="-254.3" font-family="Times,serif" font-size="14.00" fill="#0058ad">r 44 11</text>
<polyline fill="none" stroke="#0058ad" points="374.5,-243.5 374.5,-272.5 "/>
<text text-anchor="middle" x="408.5" y="-254.3" font-family="Times,serif" font-size="14.00" fill="#0058ad">r 42 nil</text>
<polyline fill="none" stroke="#0058ad" points="442.5,-243.5 442.5,-272.5 "/>
<text text-anchor="middle" x="476.5" y="-254.3" font-family="Times,serif" font-size="14.00" fill="#0058ad">r 44 11</text>
<polyline fill="none" stroke="#0058ad" points="510.5,-243.5 510.5,-272.5 "/>
<text text-anchor="middle" x="547.5" y="-254.3" font-family="Times,serif" font-size="14.00" fill="#0058ad">w 44 13</text>
</g>
<!-- T954&#45;&gt;T966 -->
<g id="edge2" class="edge">
<title>T954:f3&#45;&gt;T966:f0</title>
<path fill="none" stroke="#c000a5" d="M347.5,-405C347.5,-349.81 341.32,-333.67 340.57,-283.2"/>
<polygon fill="#c000a5" stroke="#c000a5" points="344.07,-282.97 340.5,-273 337.07,-283.03 344.07,-282.97"/>
<text text-anchor="middle" x="355" y="-335.3" font-family="Times,serif" font-size="14.00" fill="#c000a5">wr</text>
</g>
<!-- T957&#45;&gt;T966 -->
<g id="edge4" class="edge">
<title>T957:f0&#45;&gt;T966:f3</title>
<path fill="none" stroke="#5b00c0" d="M537.5,-324C537.5,-304.69 544.49,-298.17 546.78,-283.05"/>
<polygon fill="#5b00c0" stroke="#5b00c0" points="550.28,-283.22 547.5,-273 543.3,-282.72 550.28,-283.22"/>
<text text-anchor="middle" x="554" y="-294.8" font-family="Times,serif" font-size="14.00" fill="#5b00c0">rw</text>
</g>
<!-- T976 -->
<g id="node3" class="node">
<title>T976</title>
<polygon fill="none" stroke="#0058ad" points="207,-81.5 207,-110.5 488,-110.5 488,-81.5 207,-81.5"/>
<text text-anchor="middle" x="239.5" y="-92.3" font-family="Times,serif" font-size="14.00" fill="#0058ad">w 43 9</text>
<polyline fill="none" stroke="#0058ad" points="272,-81.5 272,-110.5 "/>
<text text-anchor="middle" x="309" y="-92.3" font-family="Times,serif" font-size="14.00" fill="#0058ad">w 44 15</text>
<polyline fill="none" stroke="#0058ad" points="346,-81.5 346,-110.5 "/>
<text text-anchor="middle" x="380" y="-92.3" font-family="Times,serif" font-size="14.00" fill="#0058ad">r 44 15</text>
<polyline fill="none" stroke="#0058ad" points="414,-81.5 414,-110.5 "/>
<text text-anchor="middle" x="451" y="-92.3" font-family="Times,serif" font-size="14.00" fill="#0058ad">w 43 10</text>
</g>
<!-- T978 -->
<g id="node8" class="node">
<title>T978</title>
<polygon fill="none" stroke="#0058ad" points="361.5,-0.5 361.5,-29.5 633.5,-29.5 633.5,-0.5 361.5,-0.5"/>
<text text-anchor="middle" x="395.5" y="-11.3" font-family="Times,serif" font-size="14.00" fill="#0058ad">r 44 15</text>
<polyline fill="none" stroke="#0058ad" points="429.5,-0.5 429.5,-29.5 "/>
<text text-anchor="middle" x="463.5" y="-11.3" font-family="Times,serif" font-size="14.00" fill="#0058ad">r 42 nil</text>
<polyline fill="none" stroke="#0058ad" points="497.5,-0.5 497.5,-29.5 "/>
<text text-anchor="middle" x="531.5" y="-11.3" font-family="Times,serif" font-size="14.00" fill="#0058ad">r 43 10</text>
<polyline fill="none" stroke="#0058ad" points="565.5,-0.5 565.5,-29.5 "/>
<text text-anchor="middle" x="599.5" y="-11.3" font-family="Times,serif" font-size="14.00" fill="#0058ad">r 44 15</text>
</g>
<!-- T976&#45;&gt;T978 -->
<g id="edge5" class="edge">
<title>T976:f3&#45;&gt;T978:f2</title>
<path fill="none" stroke="#c000a5" d="M451.5,-81C451.5,-57.95 471.93,-60.17 491.5,-48 503.92,-40.28 520.21,-44.98 527.58,-39.59"/>
<polygon fill="#c000a5" stroke="#c000a5" points="530.95,-40.58 531.5,-30 524.47,-37.93 530.95,-40.58"/>
<text text-anchor="middle" x="501" y="-51.8" font-family="Times,serif" font-size="14.00" fill="#c000a5">wr</text>
</g>
<!-- T959&#45;&gt;T966 -->
<g id="edge6" class="edge">
<title>T959:f0&#45;&gt;T966:f3</title>
<path fill="none" stroke="#5b00c0" d="M456.01,-324.43C468.24,-314.15 485.63,-300.56 502.5,-291 517.14,-282.7 536.37,-289.53 544.08,-282.64"/>
<polygon fill="#5b00c0" stroke="#5b00c0" points="547.46,-283.59 547.5,-273 540.86,-281.26 547.46,-283.59"/>
<text text-anchor="middle" x="512" y="-294.8" font-family="Times,serif" font-size="14.00" fill="#5b00c0">rw</text>
</g>
<!-- T922 -->
<g id="node5" class="node">
<title>T922</title>
<polygon fill="none" stroke="#0058ad" points="308,-162.5 308,-191.5 441,-191.5 441,-162.5 308,-162.5"/>
<text text-anchor="middle" x="342" y="-173.3" font-family="Times,serif" font-size="14.00" fill="#0058ad">r 43 nil</text>
<polyline fill="none" stroke="#0058ad" points="376,-162.5 376,-191.5 "/>
<text text-anchor="middle" x="408.5" y="-173.3" font-family="Times,serif" font-size="14.00" fill="#0058ad">w 42 1</text>
</g>
<!-- T922&#45;&gt;T954 -->
<g id="edge9" class="edge">
<title>T922:f0&#45;&gt;T954:f2</title>
<path fill="none" stroke="#5b00c0" d="M306.5,-177C207.8,-177 273.77,-294.68 278.26,-394.76"/>
<polygon fill="#5b00c0" stroke="#5b00c0" points="274.77,-395.08 278.5,-405 281.77,-394.92 274.77,-395.08"/>
<text text-anchor="middle" x="274" y="-294.8" font-family="Times,serif" font-size="14.00" fill="#5b00c0">rw</text>
</g>
<!-- T922&#45;&gt;T976 -->
<g id="edge7" class="edge">
<title>T922:f0&#45;&gt;T976:f3</title>
<path fill="none" stroke="#5b00c0" d="M341.5,-162C341.5,-112.11 435.78,-157.07 449.77,-121.26"/>
<polygon fill="#5b00c0" stroke="#5b00c0" points="453.29,-121.44 451.5,-111 446.39,-120.28 453.29,-121.44"/>
<text text-anchor="middle" x="453" y="-132.8" font-family="Times,serif" font-size="14.00" fill="#5b00c0">rw</text>
</g>
<!-- T949 -->
<g id="node6" class="node">
<title>T949</title>
<polygon fill="none" stroke="#0058ad" points="0,-81.5 0,-110.5 189,-110.5 189,-81.5 0,-81.5"/>
<text text-anchor="middle" x="32.5" y="-92.3" font-family="Times,serif" font-size="14.00" fill="#0058ad">w 44 9</text>
<polyline fill="none" stroke="#0058ad" points="65,-81.5 65,-110.5 "/>
<text text-anchor="middle" x="97.5" y="-92.3" font-family="Times,serif" font-size="14.00" fill="#0058ad">w 43 5</text>
<polyline fill="none" stroke="#0058ad" points="130,-81.5 130,-110.5 "/>
<text text-anchor="middle" x="159.5" y="-92.3" font-family="Times,serif" font-size="14.00" fill="#0058ad">r 43 5</text>
</g>
<!-- T922&#45;&gt;T949 -->
<g id="edge8" class="edge">
<title>T922:f0&#45;&gt;T949:f1</title>
<path fill="none" stroke="#5b00c0" d="M306.5,-177C261.22,-177 119.49,-162.05 99.78,-120.81"/>
<polygon fill="#5b00c0" stroke="#5b00c0" points="103.17,-119.95 97.5,-111 96.36,-121.53 103.17,-119.95"/>
<text text-anchor="middle" x="135" y="-132.8" font-family="Times,serif" font-size="14.00" fill="#5b00c0">rw</text>
</g>
<!-- T949&#45;&gt;T954 -->
<g id="edge10" class="edge">
<title>T949:f0&#45;&gt;T954:f1</title>
<path fill="none" stroke="#c000a5" d="M32.5,-111C32.5,-148.28 85.5,-138.72 85.5,-176 85.5,-340 85.5,-340 85.5,-340 85.5,-400.81 200.71,-347.48 214.21,-394.92"/>
<polygon fill="#c000a5" stroke="#c000a5" points="210.76,-395.52 215.5,-405 217.71,-394.64 210.76,-395.52"/>
<text text-anchor="middle" x="95" y="-254.3" font-family="Times,serif" font-size="14.00" fill="#c000a5">wr</text>
</g>
<!-- T966&#45;&gt;T922 -->
<g id="edge11" class="edge">
<title>T966:f1&#45;&gt;T922:f1</title>
<path fill="none" stroke="#5b00c0" d="M408.5,-243C408.5,-224.23 408.5,-217.12 408.5,-202.35"/>
<polygon fill="#5b00c0" stroke="#5b00c0" points="412,-202 408.5,-192 405,-202 412,-202"/>
<text text-anchor="middle" x="418" y="-213.8" font-family="Times,serif" font-size="14.00" fill="#5b00c0">rw</text>
</g>
<!-- T978&#45;&gt;T922 -->
<g id="edge12" class="edge">
<title>T978:f1&#45;&gt;T922:f1</title>
<path fill="none" stroke="#5b00c0" d="M463.5,-30C463.5,-52.37 497.82,-29.57 510.5,-48 545.29,-98.58 511.31,-169.09 452.54,-176.38"/>
<polygon fill="#5b00c0" stroke="#5b00c0" points="452.27,-172.89 442.5,-177 452.7,-179.88 452.27,-172.89"/>
<text text-anchor="middle" x="534" y="-92.3" font-family="Times,serif" font-size="14.00" fill="#5b00c0">rw</text>
</g>
</g>
</svg>
