<?xml version="1.0" encoding="UTF-8" standalone="no"?>
<!DOCTYPE svg PUBLIC "-//W3C//DTD SVG 1.1//EN"
 "http://www.w3.org/Graphics/SVG/1.1/DTD/svg11.dtd">
<!-- Generated by graphviz version 2.43.0 (0)
 -->
<!-- Title: a_graph Pages: 1 -->
<svg width="433pt" height="281pt"
 viewBox="0.00 0.00 432.84 281.00" xmlns="http://www.w3.org/2000/svg" xmlns:xlink="http://www.w3.org/1999/xlink">
<g id="graph0" class="graph" transform="scale(1 1) rotate(0) translate(4 277)">
<title>a_graph</title>
<polygon fill="white" stroke="transparent" points="-4,4 -4,-277 428.84,-277 428.84,4 -4,4"/>
<!-- T23303 -->
<g id="node1" class="node">
<title>T23303</title>
<polygon fill="none" stroke="#0058ad" points="82.34,-243.5 82.34,-272.5 378.34,-272.5 378.34,-243.5 82.34,-243.5"/>
<text text-anchor="middle" x="119.34" y="-254.3" font-family="Times,serif" font-size="14.00" fill="#0058ad">w 894 1</text>
<polyline fill="none" stroke="#0058ad" points="156.34,-243.5 156.34,-272.5 "/>
<text text-anchor="middle" x="194.84" y="-254.3" font-family="Times,serif" font-size="14.00" fill="#0058ad">r 895 nil</text>
<polyline fill="none" stroke="#0058ad" points="233.34,-243.5 233.34,-272.5 "/>
<text text-anchor="middle" x="271.84" y="-254.3" font-family="Times,serif" font-size="14.00" fill="#0058ad">r 895 nil</text>
<polyline fill="none" stroke="#0058ad" points="310.34,-243.5 310.34,-272.5 "/>
<text text-anchor="middle" x="344.34" y="-254.3" font-family="Times,serif" font-size="14.00" fill="#0058ad">r 877 2</text>
</g>
<!-- T23305 -->
<g id="node4" class="node">
<title>T23305</title>
<polygon fill="none" stroke="#0058ad" points="192.84,-162.5 192.84,-191.5 343.84,-191.5 343.84,-162.5 192.84,-162.5"/>
<text text-anchor="middle" x="231.34" y="-173.3" font-family="Times,serif" font-size="14.00" fill="#0058ad">r 893 nil</text>
<polyline fill="none" stroke="#0058ad" points="269.84,-162.5 269.84,-191.5 "/>
<text text-anchor="middle" x="306.84" y="-173.3" font-family="Times,serif" font-size="14.00" fill="#0058ad">w 895 3</text>
</g>
<!-- T23303&#45;&gt;T23305 -->
<g id="edge1" class="edge">
<title>T23303:f1&#45;&gt;T23305:f1</title>
<path fill="none" stroke="#5b00c0" d="M194.34,-243C194.34,-191.77 292,-239.34 305.74,-202.01"/>
<polygon fill="#5b00c0" stroke="#5b00c0" points="309.22,-202.43 307.34,-192 302.3,-201.32 309.22,-202.43"/>
<text text-anchor="middle" x="308.84" y="-213.8" font-family="Times,serif" font-size="14.00" fill="#5b00c0">rw</text>
</g>
<!-- T23285 -->
<g id="node2" class="node">
<title>T23285</title>
<polygon fill="none" stroke="#0058ad" points="113.84,-81.5 113.84,-110.5 424.84,-110.5 424.84,-81.5 113.84,-81.5"/>
<text text-anchor="middle" x="152.34" y="-92.3" font-family="Times,serif" font-size="14.00" fill="#0058ad">r 892 13</text>
<polyline fill="none" stroke="#0058ad" points="190.84,-81.5 190.84,-110.5 "/>
<text text-anchor="middle" x="232.34" y="-92.3" font-family="Times,serif" font-size="14.00" fill="#0058ad">w 892 15</text>
<polyline fill="none" stroke="#0058ad" points="273.84,-81.5 273.84,-110.5 "/>
<text text-anchor="middle" x="310.84" y="-92.3" font-family="Times,serif" font-size="14.00" fill="#0058ad">w 893 1</text>
<polyline fill="none" stroke="#0058ad" points="347.84,-81.5 347.84,-110.5 "/>
<text text-anchor="middle" x="386.34" y="-92.3" font-family="Times,serif" font-size="14.00" fill="#0058ad">r 891 13</text>
</g>
<!-- T23293 -->
<g id="node3" class="node">
<title>T23293</title>
<polygon fill="none" stroke="#0058ad" points="82.34,-0.5 82.34,-29.5 390.34,-29.5 390.34,-0.5 82.34,-0.5"/>
<text text-anchor="middle" x="120.84" y="-11.3" font-family="Times,serif" font-size="14.00" fill="#0058ad">r 894 nil</text>
<polyline fill="none" stroke="#0058ad" points="159.34,-0.5 159.34,-29.5 "/>
<text text-anchor="middle" x="197.84" y="-11.3" font-family="Times,serif" font-size="14.00" fill="#0058ad">r 892 15</text>
<polyline fill="none" stroke="#0058ad" points="236.34,-0.5 236.34,-29.5 "/>
<text text-anchor="middle" x="274.84" y="-11.3" font-family="Times,serif" font-size="14.00" fill="#0058ad">r 894 nil</text>
<polyline fill="none" stroke="#0058ad" points="313.34,-0.5 313.34,-29.5 "/>
<text text-anchor="middle" x="351.84" y="-11.3" font-family="Times,serif" font-size="14.00" fill="#0058ad">r 892 15</text>
</g>
<!-- T23285&#45;&gt;T23293 -->
<g id="edge2" class="edge">
<title>T23285:f1&#45;&gt;T23293:f1</title>
<path fill="none" stroke="#c000a5" d="M232.34,-81C232.34,-57.37 206.49,-56.99 199.22,-39.91"/>
<polygon fill="#c000a5" stroke="#c000a5" points="202.64,-39.17 197.34,-30 195.76,-40.48 202.64,-39.17"/>
<text text-anchor="middle" x="232.84" y="-51.8" font-family="Times,serif" font-size="14.00" fill="#c000a5">wr</text>
</g>
<!-- T23293&#45;&gt;T23303 -->
<g id="edge3" class="edge">
<title>T23293:f0&#45;&gt;T23303:f0</title>
<path fill="none" stroke="#5b00c0" d="M81.34,-15C-23.18,-15 -26.55,-242.59 71.23,-257.26"/>
<polygon fill="#5b00c0" stroke="#5b00c0" points="71.11,-260.76 81.34,-258 71.62,-253.78 71.11,-260.76"/>
<text text-anchor="middle" x="10.84" y="-132.8" font-family="Times,serif" font-size="14.00" fill="#5b00c0">rw</text>
</g>
<!-- T23305&#45;&gt;T23285 -->
<g id="edge4" class="edge">
<title>T23305:f0&#45;&gt;T23285:f2</title>
<path fill="none" stroke="#5b00c0" d="M231.34,-162C231.34,-123.79 297.04,-147.58 309.36,-120.99"/>
<polygon fill="#5b00c0" stroke="#5b00c0" points="312.83,-121.49 311.34,-111 305.96,-120.13 312.83,-121.49"/>
<text text-anchor="middle" x="310.84" y="-132.8" font-family="Times,serif" font-size="14.00" fill="#5b00c0">rw</text>
</g>
</g>
</svg>
