<?xml version="1.0" encoding="UTF-8" standalone="no"?>
<!DOCTYPE svg PUBLIC "-//W3C//DTD SVG 1.1//EN"
 "http://www.w3.org/Graphics/SVG/1.1/DTD/svg11.dtd">
<!-- Generated by graphviz version 2.43.0 (0)
 -->
<!-- Title: a_graph Pages: 1 -->
<svg width="268pt" height="119pt"
 viewBox="0.00 0.00 268.00 119.00" xmlns="http://www.w3.org/2000/svg" xmlns:xlink="http://www.w3.org/1999/xlink">
<g id="graph0" class="graph" transform="scale(1 1) rotate(0) translate(4 115)">
<title>a_graph</title>
<polygon fill="white" stroke="transparent" points="-4,4 -4,-115 264,-115 264,4 -4,4"/>
<!-- T2191 -->
<g id="node1" class="node">
<title>T2191</title>
<polygon fill="none" stroke="#0058ad" points="34.5,-81.5 34.5,-110.5 167.5,-110.5 167.5,-81.5 34.5,-81.5"/>
<text text-anchor="middle" x="68.5" y="-92.3" font-family="Times,serif" font-size="14.00" fill="#0058ad">r 91 nil</text>
<polyline fill="none" stroke="#0058ad" points="102.5,-81.5 102.5,-110.5 "/>
<text text-anchor="middle" x="135" y="-92.3" font-family="Times,serif" font-size="14.00" fill="#0058ad">w 91 2</text>
</g>
<!-- T2184 -->
<g id="node2" class="node">
<title>T2184</title>
<polygon fill="none" stroke="#0058ad" points="0,-0.5 0,-29.5 260,-29.5 260,-0.5 0,-0.5"/>
<text text-anchor="middle" x="34" y="-11.3" font-family="Times,serif" font-size="14.00" fill="#0058ad">r 91 nil</text>
<polyline fill="none" stroke="#0058ad" points="68,-0.5 68,-29.5 "/>
<text text-anchor="middle" x="102" y="-11.3" font-family="Times,serif" font-size="14.00" fill="#0058ad">r 91 nil</text>
<polyline fill="none" stroke="#0058ad" points="136,-0.5 136,-29.5 "/>
<text text-anchor="middle" x="168.5" y="-11.3" font-family="Times,serif" font-size="14.00" fill="#0058ad">w 91 1</text>
<polyline fill="none" stroke="#0058ad" points="201,-0.5 201,-29.5 "/>
<text text-anchor="middle" x="230.5" y="-11.3" font-family="Times,serif" font-size="14.00" fill="#0058ad">r 91 1</text>
</g>
<!-- T2191&#45;&gt;T2184 -->
<g id="edge1" class="edge">
<title>T2191:f0&#45;&gt;T2184:f2</title>
<path fill="none" stroke="#5b00c0" d="M68,-81C68,-63.85 74.06,-58 88,-48 114.45,-29.02 157.33,-58.27 167.01,-40.01"/>
<polygon fill="#5b00c0" stroke="#5b00c0" points="170.49,-40.49 169,-30 163.62,-39.13 170.49,-40.49"/>
<text text-anchor="middle" x="97.5" y="-51.8" font-family="Times,serif" font-size="14.00" fill="#5b00c0">rw</text>
</g>
<!-- T2184&#45;&gt;T2191 -->
<g id="edge2" class="edge">
<title>T2184:f0&#45;&gt;T2191:f1</title>
<path fill="none" stroke="#5b00c0" d="M34,-30C34,-63.42 78.59,-30.41 107,-48 120.03,-56.07 130.07,-60.02 133.62,-71.02"/>
<polygon fill="#5b00c0" stroke="#5b00c0" points="130.16,-71.58 135,-81 137.09,-70.61 130.16,-71.58"/>
<text text-anchor="middle" x="138.5" y="-51.8" font-family="Times,serif" font-size="14.00" fill="#5b00c0">rw</text>
</g>
</g>
</svg>
