<?xml version="1.0" encoding="UTF-8" standalone="no"?>
<!DOCTYPE svg PUBLIC "-//W3C//DTD SVG 1.1//EN"
 "http://www.w3.org/Graphics/SVG/1.1/DTD/svg11.dtd">
<!-- Generated by graphviz version 2.43.0 (0)
 -->
<!-- Title: a_graph Pages: 1 -->
<svg width="938pt" height="524pt"
 viewBox="0.00 0.00 938.00 524.00" xmlns="http://www.w3.org/2000/svg" xmlns:xlink="http://www.w3.org/1999/xlink">
<g id="graph0" class="graph" transform="scale(1 1) rotate(0) translate(4 520)">
<title>a_graph</title>
<polygon fill="white" stroke="transparent" points="-4,4 -4,-520 934,-520 934,4 -4,4"/>
<!-- T7717 -->
<g id="node1" class="node">
<title>T7717</title>
<polygon fill="none" stroke="#0058ad" points="313.5,-486.5 313.5,-515.5 600.5,-515.5 600.5,-486.5 313.5,-486.5"/>
<text text-anchor="middle" x="347.5" y="-497.3" font-family="Times,serif" font-size="14.00" fill="#0058ad">r 301 2</text>
<polyline fill="none" stroke="#0058ad" points="381.5,-486.5 381.5,-515.5 "/>
<text text-anchor="middle" x="420" y="-497.3" font-family="Times,serif" font-size="14.00" fill="#0058ad">r 300 nil</text>
<polyline fill="none" stroke="#0058ad" points="458.5,-486.5 458.5,-515.5 "/>
<text text-anchor="middle" x="492.5" y="-497.3" font-family="Times,serif" font-size="14.00" fill="#0058ad">r 301 2</text>
<polyline fill="none" stroke="#0058ad" points="526.5,-486.5 526.5,-515.5 "/>
<text text-anchor="middle" x="563.5" y="-497.3" font-family="Times,serif" font-size="14.00" fill="#0058ad">w 300 2</text>
</g>
<!-- T7731 -->
<g id="node2" class="node">
<title>T7731</title>
<polygon fill="none" stroke="#0058ad" points="383.5,-405.5 383.5,-434.5 670.5,-434.5 670.5,-405.5 383.5,-405.5"/>
<text text-anchor="middle" x="420.5" y="-416.3" font-family="Times,serif" font-size="14.00" fill="#0058ad">w 300 7</text>
<polyline fill="none" stroke="#0058ad" points="457.5,-405.5 457.5,-434.5 "/>
<text text-anchor="middle" x="496" y="-416.3" font-family="Times,serif" font-size="14.00" fill="#0058ad">r 301 nil</text>
<polyline fill="none" stroke="#0058ad" points="534.5,-405.5 534.5,-434.5 "/>
<text text-anchor="middle" x="568.5" y="-416.3" font-family="Times,serif" font-size="14.00" fill="#0058ad">r 300 7</text>
<polyline fill="none" stroke="#0058ad" points="602.5,-405.5 602.5,-434.5 "/>
<text text-anchor="middle" x="636.5" y="-416.3" font-family="Times,serif" font-size="14.00" fill="#0058ad">r 300 7</text>
</g>
<!-- T7717&#45;&gt;T7731 -->
<g id="edge4" class="edge">
<title>T7717:f1&#45;&gt;T7731:f0</title>
<path fill="none" stroke="#5b00c0" d="M420,-486C420,-467.23 420,-460.12 420,-445.35"/>
<polygon fill="#5b00c0" stroke="#5b00c0" points="423.5,-445 420,-435 416.5,-445 423.5,-445"/>
<text text-anchor="middle" x="429.5" y="-456.8" font-family="Times,serif" font-size="14.00" fill="#5b00c0">rw</text>
</g>
<!-- T7745 -->
<g id="node3" class="node">
<title>T7745</title>
<polygon fill="none" stroke="#0058ad" points="393,-162.5 393,-191.5 553,-191.5 553,-162.5 393,-162.5"/>
<text text-anchor="middle" x="434.5" y="-173.3" font-family="Times,serif" font-size="14.00" fill="#0058ad">w 300 10</text>
<polyline fill="none" stroke="#0058ad" points="476,-162.5 476,-191.5 "/>
<text text-anchor="middle" x="514.5" y="-173.3" font-family="Times,serif" font-size="14.00" fill="#0058ad">r 301 nil</text>
</g>
<!-- T7717&#45;&gt;T7745 -->
<g id="edge2" class="edge">
<title>T7717:f1&#45;&gt;T7745:f0</title>
<path fill="none" stroke="#5b00c0" d="M420,-486C420,-433.74 194,-473.26 194,-421 194,-421 194,-421 194,-257 194,-167.75 316.04,-249.85 384,-192 385.98,-190.32 386.65,-188.02 386.98,-185.73"/>
<polygon fill="#5b00c0" stroke="#5b00c0" points="390.05,-187.41 392,-177 383.98,-183.93 390.05,-187.41"/>
<text text-anchor="middle" x="203.5" y="-335.3" font-family="Times,serif" font-size="14.00" fill="#5b00c0">rw</text>
</g>
<!-- T7739 -->
<g id="node4" class="node">
<title>T7739</title>
<polygon fill="none" stroke="#0058ad" points="375.5,-81.5 375.5,-110.5 668.5,-110.5 668.5,-81.5 375.5,-81.5"/>
<text text-anchor="middle" x="412.5" y="-92.3" font-family="Times,serif" font-size="14.00" fill="#0058ad">w 300 8</text>
<polyline fill="none" stroke="#0058ad" points="449.5,-81.5 449.5,-110.5 "/>
<text text-anchor="middle" x="483.5" y="-92.3" font-family="Times,serif" font-size="14.00" fill="#0058ad">r 298 3</text>
<polyline fill="none" stroke="#0058ad" points="517.5,-81.5 517.5,-110.5 "/>
<text text-anchor="middle" x="556" y="-92.3" font-family="Times,serif" font-size="14.00" fill="#0058ad">r 301 nil</text>
<polyline fill="none" stroke="#0058ad" points="594.5,-81.5 594.5,-110.5 "/>
<text text-anchor="middle" x="631.5" y="-92.3" font-family="Times,serif" font-size="14.00" fill="#0058ad">w 300 9</text>
</g>
<!-- T7717&#45;&gt;T7739 -->
<g id="edge3" class="edge">
<title>T7717:f1&#45;&gt;T7739:f3</title>
<path fill="none" stroke="#5b00c0" d="M420,-486C420,-456.56 653.05,-446.85 680,-435 689.6,-430.78 699,-431.49 699,-421 699,-421 699,-421 699,-297.5 699,-277.62 694.07,-137.03 677.52,-103.27"/>
<polygon fill="#5b00c0" stroke="#5b00c0" points="679.62,-100.44 670,-96 674.75,-105.47 679.62,-100.44"/>
<text text-anchor="middle" x="708.5" y="-294.8" font-family="Times,serif" font-size="14.00" fill="#5b00c0">rw</text>
</g>
<!-- T7750 -->
<g id="node10" class="node">
<title>T7750</title>
<polygon fill="none" stroke="#0058ad" points="702.5,-162.5 702.5,-191.5 785.5,-191.5 785.5,-162.5 702.5,-162.5"/>
<text text-anchor="middle" x="744" y="-173.3" font-family="Times,serif" font-size="14.00" fill="#0058ad">w 300 12</text>
</g>
<!-- T7717&#45;&gt;T7750 -->
<g id="edge5" class="edge">
<title>T7717:f1&#45;&gt;T7750:f0</title>
<path fill="none" stroke="#5b00c0" d="M420,-486C420,-453.38 686.81,-487.45 713,-468 805.46,-399.34 782.68,-338.36 803,-225 804.18,-218.44 806.37,-215.75 803,-210 800.18,-205.19 796.37,-201.03 792.05,-197.44"/>
<polygon fill="#5b00c0" stroke="#5b00c0" points="793.98,-194.52 783.8,-191.59 789.93,-200.23 793.98,-194.52"/>
<text text-anchor="middle" x="799.5" y="-335.3" font-family="Times,serif" font-size="14.00" fill="#5b00c0">rw</text>
</g>
<!-- T7723 -->
<g id="node11" class="node">
<title>T7723</title>
<polygon fill="none" stroke="#0058ad" points="75.5,-162.5 75.5,-191.5 374.5,-191.5 374.5,-162.5 75.5,-162.5"/>
<text text-anchor="middle" x="114" y="-173.3" font-family="Times,serif" font-size="14.00" fill="#0058ad">r 301 nil</text>
<polyline fill="none" stroke="#0058ad" points="152.5,-162.5 152.5,-191.5 "/>
<text text-anchor="middle" x="189.5" y="-173.3" font-family="Times,serif" font-size="14.00" fill="#0058ad">w 298 3</text>
<polyline fill="none" stroke="#0058ad" points="226.5,-162.5 226.5,-191.5 "/>
<text text-anchor="middle" x="263.5" y="-173.3" font-family="Times,serif" font-size="14.00" fill="#0058ad">w 300 4</text>
<polyline fill="none" stroke="#0058ad" points="300.5,-162.5 300.5,-191.5 "/>
<text text-anchor="middle" x="337.5" y="-173.3" font-family="Times,serif" font-size="14.00" fill="#0058ad">w 300 5</text>
</g>
<!-- T7717&#45;&gt;T7723 -->
<g id="edge1" class="edge">
<title>T7717:f1&#45;&gt;T7723:f3</title>
<path fill="none" stroke="#5b00c0" d="M420,-486C420,-458.16 323.16,-474.16 296,-468 247.88,-457.09 227.03,-467.61 190,-435 160.3,-408.84 161.41,-392.67 153,-354 138.69,-288.22 143.61,-246.77 200,-210 222.67,-195.22 311.32,-216.2 333.13,-200.96"/>
<polygon fill="#5b00c0" stroke="#5b00c0" points="336.3,-202.46 338,-192 330.15,-199.12 336.3,-202.46"/>
<text text-anchor="middle" x="162.5" y="-335.3" font-family="Times,serif" font-size="14.00" fill="#5b00c0">rw</text>
</g>
<!-- T7709 -->
<g id="node7" class="node">
<title>T7709</title>
<polygon fill="none" stroke="#0058ad" points="231.5,-324.5 231.5,-353.5 456.5,-353.5 456.5,-324.5 231.5,-324.5"/>
<text text-anchor="middle" x="270" y="-335.3" font-family="Times,serif" font-size="14.00" fill="#0058ad">r 191 11</text>
<polyline fill="none" stroke="#0058ad" points="308.5,-324.5 308.5,-353.5 "/>
<text text-anchor="middle" x="345.5" y="-335.3" font-family="Times,serif" font-size="14.00" fill="#0058ad">w 301 1</text>
<polyline fill="none" stroke="#0058ad" points="382.5,-324.5 382.5,-353.5 "/>
<text text-anchor="middle" x="419.5" y="-335.3" font-family="Times,serif" font-size="14.00" fill="#0058ad">w 301 2</text>
</g>
<!-- T7731&#45;&gt;T7709 -->
<g id="edge6" class="edge">
<title>T7731:f1&#45;&gt;T7709:f2</title>
<path fill="none" stroke="#5b00c0" d="M496,-405C496,-401.71 475.59,-363.65 464.52,-346.87"/>
<polygon fill="#5b00c0" stroke="#5b00c0" points="467.08,-344.47 458,-339 461.68,-348.93 467.08,-344.47"/>
<text text-anchor="middle" x="495.5" y="-375.8" font-family="Times,serif" font-size="14.00" fill="#5b00c0">rw</text>
</g>
<!-- T7745&#45;&gt;T7709 -->
<g id="edge7" class="edge">
<title>T7745:f1&#45;&gt;T7709:f2</title>
<path fill="none" stroke="#5b00c0" d="M515,-192C515,-216.55 426.02,-195.78 406,-210 382.26,-226.86 380.48,-244.87 388,-273 392.37,-289.35 397.81,-291.79 407,-306 409.85,-310.4 413.34,-312.42 415.98,-314.83"/>
<polygon fill="#5b00c0" stroke="#5b00c0" points="412.78,-316.24 420,-324 419.2,-313.44 412.78,-316.24"/>
<text text-anchor="middle" x="397.5" y="-254.3" font-family="Times,serif" font-size="14.00" fill="#5b00c0">rw</text>
</g>
<!-- T7742 -->
<g id="node6" class="node">
<title>T7742</title>
<polygon fill="none" stroke="#0058ad" points="63.5,-0.5 63.5,-29.5 282.5,-29.5 282.5,-0.5 63.5,-0.5"/>
<text text-anchor="middle" x="102" y="-11.3" font-family="Times,serif" font-size="14.00" fill="#0058ad">r 301 nil</text>
<polyline fill="none" stroke="#0058ad" points="140.5,-0.5 140.5,-29.5 "/>
<text text-anchor="middle" x="174.5" y="-11.3" font-family="Times,serif" font-size="14.00" fill="#0058ad">r 298 3</text>
<polyline fill="none" stroke="#0058ad" points="208.5,-0.5 208.5,-29.5 "/>
<text text-anchor="middle" x="245.5" y="-11.3" font-family="Times,serif" font-size="14.00" fill="#0058ad">w 298 6</text>
</g>
<!-- T7739&#45;&gt;T7742 -->
<g id="edge8" class="edge">
<title>T7739:f1&#45;&gt;T7742:f2</title>
<path fill="none" stroke="#5b00c0" d="M483,-81C483,-37.41 349.6,-17.61 294.26,-15.24"/>
<polygon fill="#5b00c0" stroke="#5b00c0" points="294.08,-11.74 284,-15 293.91,-18.74 294.08,-11.74"/>
<text text-anchor="middle" x="481.5" y="-51.8" font-family="Times,serif" font-size="14.00" fill="#5b00c0">rw</text>
</g>
<!-- T7739&#45;&gt;T7709 -->
<g id="edge9" class="edge">
<title>T7739:f2&#45;&gt;T7709:f2</title>
<path fill="none" stroke="#5b00c0" d="M556,-111C556,-133.82 560.66,-139.22 562,-162 562.78,-175.31 570.78,-181.96 562,-192 522.44,-237.23 469.12,-166.18 428,-210 395.62,-244.5 416.63,-269.58 419.65,-313.92"/>
<polygon fill="#5b00c0" stroke="#5b00c0" points="416.16,-314.13 420,-324 423.15,-313.89 416.16,-314.13"/>
<text text-anchor="middle" x="437.5" y="-213.8" font-family="Times,serif" font-size="14.00" fill="#5b00c0">rw</text>
</g>
<!-- T7715 -->
<g id="node5" class="node">
<title>T7715</title>
<polygon fill="none" stroke="#0058ad" points="449,-243.5 449,-272.5 671,-272.5 671,-243.5 449,-243.5"/>
<text text-anchor="middle" x="483" y="-254.3" font-family="Times,serif" font-size="14.00" fill="#0058ad">r 301 2</text>
<polyline fill="none" stroke="#0058ad" points="517,-243.5 517,-272.5 "/>
<text text-anchor="middle" x="555.5" y="-254.3" font-family="Times,serif" font-size="14.00" fill="#0058ad">r 300 nil</text>
<polyline fill="none" stroke="#0058ad" points="594,-243.5 594,-272.5 "/>
<text text-anchor="middle" x="632.5" y="-254.3" font-family="Times,serif" font-size="14.00" fill="#0058ad">r 300 nil</text>
</g>
<!-- T7715&#45;&gt;T7717 -->
<g id="edge12" class="edge">
<title>T7715:f1&#45;&gt;T7717:f3</title>
<path fill="none" stroke="#5b00c0" d="M555,-273C555,-283.37 729.49,-248.98 768,-324 797.28,-381.05 801.34,-419.84 759,-468 737.44,-492.53 653.56,-499.81 612.22,-500.86"/>
<polygon fill="#5b00c0" stroke="#5b00c0" points="611.95,-497.36 602,-501 612.05,-504.36 611.95,-497.36"/>
<text text-anchor="middle" x="798.5" y="-375.8" font-family="Times,serif" font-size="14.00" fill="#5b00c0">rw</text>
</g>
<!-- T7715&#45;&gt;T7731 -->
<g id="edge14" class="edge">
<title>T7715:f1&#45;&gt;T7731:f0</title>
<path fill="none" stroke="#5b00c0" d="M555,-273C555,-291.68 447.92,-365.15 424.49,-395.82"/>
<polygon fill="#5b00c0" stroke="#5b00c0" points="421.25,-394.48 420,-405 427.54,-397.56 421.25,-394.48"/>
<text text-anchor="middle" x="514.5" y="-335.3" font-family="Times,serif" font-size="14.00" fill="#5b00c0">rw</text>
</g>
<!-- T7715&#45;&gt;T7745 -->
<g id="edge11" class="edge">
<title>T7715:f1&#45;&gt;T7745:f0</title>
<path fill="none" stroke="#5b00c0" d="M555,-243C555,-220.97 537.65,-219.97 518,-210 487.68,-194.61 444.74,-222.64 435.71,-201.98"/>
<polygon fill="#5b00c0" stroke="#5b00c0" points="439.13,-201.27 434,-192 432.24,-202.45 439.13,-201.27"/>
<text text-anchor="middle" x="556.5" y="-213.8" font-family="Times,serif" font-size="14.00" fill="#5b00c0">rw</text>
</g>
<!-- T7715&#45;&gt;T7739 -->
<g id="edge13" class="edge">
<title>T7715:f1&#45;&gt;T7739:f3</title>
<path fill="none" stroke="#5b00c0" d="M555,-243C555,-232.59 563.52,-233.15 570,-225 603.64,-182.67 628.7,-170.2 631.7,-121.29"/>
<polygon fill="#5b00c0" stroke="#5b00c0" points="635.2,-121.1 632,-111 628.21,-120.89 635.2,-121.1"/>
<text text-anchor="middle" x="629.5" y="-173.3" font-family="Times,serif" font-size="14.00" fill="#5b00c0">rw</text>
</g>
<!-- T7715&#45;&gt;T7750 -->
<g id="edge15" class="edge">
<title>T7715:f1&#45;&gt;T7750:f0</title>
<path fill="none" stroke="#5b00c0" d="M555,-243C555,-223.47 622.47,-231.16 641,-225 664,-217.35 688.66,-205.98 708.08,-196.23"/>
<polygon fill="#5b00c0" stroke="#5b00c0" points="709.84,-199.26 717.16,-191.59 706.66,-193.02 709.84,-199.26"/>
<text text-anchor="middle" x="687.5" y="-213.8" font-family="Times,serif" font-size="14.00" fill="#5b00c0">rw</text>
</g>
<!-- T7715&#45;&gt;T7723 -->
<g id="edge10" class="edge">
<title>T7715:f1&#45;&gt;T7723:f3</title>
<path fill="none" stroke="#5b00c0" d="M555,-243C555,-215.16 521.51,-233.49 495,-225 475.32,-218.7 470.77,-216.02 451,-210 421.5,-201.02 408.14,-211.19 384,-192 381.97,-190.38 381.28,-188.11 380.94,-185.81"/>
<polygon fill="#5b00c0" stroke="#5b00c0" points="383.95,-184.01 376,-177 377.84,-187.43 383.95,-184.01"/>
<text text-anchor="middle" x="504.5" y="-213.8" font-family="Times,serif" font-size="14.00" fill="#5b00c0">rw</text>
</g>
<!-- T7742&#45;&gt;T7709 -->
<g id="edge16" class="edge">
<title>T7742:f0&#45;&gt;T7709:f2</title>
<path fill="none" stroke="#5b00c0" d="M62,-15C17.02,-15 0,-50.02 0,-95 0,-259 0,-259 0,-259 0,-375.55 142.68,-289.11 258,-306 273.4,-308.26 381.97,-306.55 412.2,-317.52"/>
<polygon fill="#5b00c0" stroke="#5b00c0" points="410.07,-320.3 420,-324 414.54,-314.92 410.07,-320.3"/>
<text text-anchor="middle" x="9.5" y="-173.3" font-family="Times,serif" font-size="14.00" fill="#5b00c0">rw</text>
</g>
<!-- T7709&#45;&gt;T7717 -->
<g id="edge18" class="edge">
<title>T7709:f2&#45;&gt;T7717:f0</title>
<path fill="none" stroke="#c000a5" d="M420,-354C420,-411.69 212.09,-405.05 180,-453 176.29,-458.54 175.9,-462.75 180,-468 196.79,-489.5 266.14,-499.07 301.74,-500.73"/>
<polygon fill="#c000a5" stroke="#c000a5" points="301.91,-504.24 312,-501 302.09,-497.24 301.91,-504.24"/>
<text text-anchor="middle" x="328.5" y="-416.3" font-family="Times,serif" font-size="14.00" fill="#c000a5">wr</text>
</g>
<!-- T7709&#45;&gt;T7715 -->
<g id="edge17" class="edge">
<title>T7709:f2&#45;&gt;T7715:f0</title>
<path fill="none" stroke="#c000a5" d="M458,-339C479.35,-339 450.25,-310 460,-291 463.7,-283.78 471.76,-283.63 477.29,-281.35"/>
<polygon fill="#c000a5" stroke="#c000a5" points="480.24,-283.23 483,-273 474.47,-279.28 480.24,-283.23"/>
<text text-anchor="middle" x="469.5" y="-294.8" font-family="Times,serif" font-size="14.00" fill="#c000a5">wr</text>
</g>
<!-- T7729 -->
<g id="node8" class="node">
<title>T7729</title>
<polygon fill="none" stroke="#0058ad" points="212.5,-81.5 212.5,-110.5 357.5,-110.5 357.5,-81.5 212.5,-81.5"/>
<text text-anchor="middle" x="251" y="-92.3" font-family="Times,serif" font-size="14.00" fill="#0058ad">r 301 nil</text>
<polyline fill="none" stroke="#0058ad" points="289.5,-81.5 289.5,-110.5 "/>
<text text-anchor="middle" x="323.5" y="-92.3" font-family="Times,serif" font-size="14.00" fill="#0058ad">r 300 5</text>
</g>
<!-- T7729&#45;&gt;T7709 -->
<g id="edge19" class="edge">
<title>T7729:f0&#45;&gt;T7709:f2</title>
<path fill="none" stroke="#5b00c0" d="M211,-96C204.1,-96 211.66,-105.91 207,-111 161.96,-160.11 104.28,-107.45 66,-162 58.34,-172.91 58.92,-180.7 66,-192 132.54,-298.25 203.97,-269.82 324,-306 341.29,-311.21 396.27,-305.19 414.25,-315.52"/>
<polygon fill="#5b00c0" stroke="#5b00c0" points="411.49,-317.69 420,-324 417.28,-313.76 411.49,-317.69"/>
<text text-anchor="middle" x="99.5" y="-213.8" font-family="Times,serif" font-size="14.00" fill="#5b00c0">rw</text>
</g>
<!-- T7755 -->
<g id="node9" class="node">
<title>T7755</title>
<polygon fill="none" stroke="#0058ad" points="702,-81.5 702,-110.5 930,-110.5 930,-81.5 702,-81.5"/>
<text text-anchor="middle" x="740.5" y="-92.3" font-family="Times,serif" font-size="14.00" fill="#0058ad">r 300 12</text>
<polyline fill="none" stroke="#0058ad" points="779,-81.5 779,-110.5 "/>
<text text-anchor="middle" x="817.5" y="-92.3" font-family="Times,serif" font-size="14.00" fill="#0058ad">r 301 nil</text>
<polyline fill="none" stroke="#0058ad" points="856,-81.5 856,-110.5 "/>
<text text-anchor="middle" x="893" y="-92.3" font-family="Times,serif" font-size="14.00" fill="#0058ad">w 298 8</text>
</g>
<!-- T7755&#45;&gt;T7709 -->
<g id="edge20" class="edge">
<title>T7755:f1&#45;&gt;T7709:f2</title>
<path fill="none" stroke="#5b00c0" d="M818,-111C818,-207.6 805.07,-256.7 722,-306 672.77,-335.22 512.19,-291.58 465,-324 463.01,-325.37 462.36,-327.45 462.14,-329.64"/>
<polygon fill="#5b00c0" stroke="#5b00c0" points="458.84,-328.44 458,-339 465.24,-331.27 458.84,-328.44"/>
<text text-anchor="middle" x="816.5" y="-213.8" font-family="Times,serif" font-size="14.00" fill="#5b00c0">rw</text>
</g>
<!-- T7750&#45;&gt;T7755 -->
<g id="edge21" class="edge">
<title>T7750:f0&#45;&gt;T7755:f0</title>
<path fill="none" stroke="#c000a5" d="M742.6,-162.34C741.66,-151.48 740.53,-136.04 740.14,-121.16"/>
<polygon fill="#c000a5" stroke="#c000a5" points="743.64,-120.95 740,-111 736.64,-121.05 743.64,-120.95"/>
<text text-anchor="middle" x="750.5" y="-132.8" font-family="Times,serif" font-size="14.00" fill="#c000a5">wr</text>
</g>
<!-- T7723&#45;&gt;T7739 -->
<g id="edge24" class="edge">
<title>T7723:f1&#45;&gt;T7739:f1</title>
<path fill="none" stroke="#c000a5" d="M189,-162C189,-143.23 338.53,-147.39 357,-144 410.27,-134.23 474.15,-164.52 482.16,-121.07"/>
<polygon fill="#c000a5" stroke="#c000a5" points="485.66,-121.26 483,-111 478.68,-120.67 485.66,-121.26"/>
<text text-anchor="middle" x="488.5" y="-132.8" font-family="Times,serif" font-size="14.00" fill="#c000a5">wr</text>
</g>
<!-- T7723&#45;&gt;T7742 -->
<g id="edge22" class="edge">
<title>T7723:f1&#45;&gt;T7742:f1</title>
<path fill="none" stroke="#c000a5" d="M189,-162C189,-106.58 176.64,-90.86 175.15,-40.24"/>
<polygon fill="#c000a5" stroke="#c000a5" points="178.64,-39.95 175,-30 171.64,-40.05 178.64,-39.95"/>
<text text-anchor="middle" x="193.5" y="-92.3" font-family="Times,serif" font-size="14.00" fill="#c000a5">wr</text>
</g>
<!-- T7723&#45;&gt;T7709 -->
<g id="edge23" class="edge">
<title>T7723:f0&#45;&gt;T7709:f2</title>
<path fill="none" stroke="#5b00c0" d="M114,-192C114,-195.93 242.44,-241.34 246,-243 298.45,-267.49 306.64,-283.56 360,-306 381.65,-315.11 409.48,-301.84 417.65,-314.2"/>
<polygon fill="#5b00c0" stroke="#5b00c0" points="414.26,-315.09 420,-324 421.07,-313.46 414.26,-315.09"/>
<text text-anchor="middle" x="307.5" y="-254.3" font-family="Times,serif" font-size="14.00" fill="#5b00c0">rw</text>
</g>
<!-- T7723&#45;&gt;T7729 -->
<g id="edge25" class="edge">
<title>T7723:f3&#45;&gt;T7729:f1</title>
<path fill="none" stroke="#c000a5" d="M338,-162C338,-142.35 328.22,-136.34 325.01,-121.17"/>
<polygon fill="#c000a5" stroke="#c000a5" points="328.47,-120.61 324,-111 321.5,-121.3 328.47,-120.61"/>
<text text-anchor="middle" x="343.5" y="-132.8" font-family="Times,serif" font-size="14.00" fill="#c000a5">wr</text>
</g>
</g>
</svg>
