<?xml version="1.0" encoding="UTF-8" standalone="no"?>
<!DOCTYPE svg PUBLIC "-//W3C//DTD SVG 1.1//EN"
 "http://www.w3.org/Graphics/SVG/1.1/DTD/svg11.dtd">
<!-- Generated by graphviz version 2.43.0 (0)
 -->
<!-- Title: a_graph Pages: 1 -->
<svg width="412pt" height="362pt"
 viewBox="0.00 0.00 411.50 362.00" xmlns="http://www.w3.org/2000/svg" xmlns:xlink="http://www.w3.org/1999/xlink">
<g id="graph0" class="graph" transform="scale(1 1) rotate(0) translate(4 358)">
<title>a_graph</title>
<polygon fill="white" stroke="transparent" points="-4,4 -4,-358 407.5,-358 407.5,4 -4,4"/>
<!-- T18673 -->
<g id="node1" class="node">
<title>T18673</title>
<polygon fill="none" stroke="#0058ad" points="0,-324.5 0,-353.5 287,-353.5 287,-324.5 0,-324.5"/>
<text text-anchor="middle" x="37" y="-335.3" font-family="Times,serif" font-size="14.00" fill="#0058ad">w 718 2</text>
<polyline fill="none" stroke="#0058ad" points="74,-324.5 74,-353.5 "/>
<text text-anchor="middle" x="112.5" y="-335.3" font-family="Times,serif" font-size="14.00" fill="#0058ad">r 716 nil</text>
<polyline fill="none" stroke="#0058ad" points="151,-324.5 151,-353.5 "/>
<text text-anchor="middle" x="185" y="-335.3" font-family="Times,serif" font-size="14.00" fill="#0058ad">r 718 2</text>
<polyline fill="none" stroke="#0058ad" points="219,-324.5 219,-353.5 "/>
<text text-anchor="middle" x="253" y="-335.3" font-family="Times,serif" font-size="14.00" fill="#0058ad">r 718 2</text>
</g>
<!-- T18653 -->
<g id="node2" class="node">
<title>T18653</title>
<polygon fill="none" stroke="#0058ad" points="48.5,-243.5 48.5,-272.5 356.5,-272.5 356.5,-243.5 48.5,-243.5"/>
<text text-anchor="middle" x="85.5" y="-254.3" font-family="Times,serif" font-size="14.00" fill="#0058ad">w 716 1</text>
<polyline fill="none" stroke="#0058ad" points="122.5,-243.5 122.5,-272.5 "/>
<text text-anchor="middle" x="164" y="-254.3" font-family="Times,serif" font-size="14.00" fill="#0058ad">w 715 16</text>
<polyline fill="none" stroke="#0058ad" points="205.5,-243.5 205.5,-272.5 "/>
<text text-anchor="middle" x="244" y="-254.3" font-family="Times,serif" font-size="14.00" fill="#0058ad">r 718 nil</text>
<polyline fill="none" stroke="#0058ad" points="282.5,-243.5 282.5,-272.5 "/>
<text text-anchor="middle" x="319.5" y="-254.3" font-family="Times,serif" font-size="14.00" fill="#0058ad">w 717 2</text>
</g>
<!-- T18673&#45;&gt;T18653 -->
<g id="edge1" class="edge">
<title>T18673:f1&#45;&gt;T18653:f0</title>
<path fill="none" stroke="#5b00c0" d="M112.5,-324C112.5,-302.16 92.92,-299.13 87.11,-282.88"/>
<polygon fill="#5b00c0" stroke="#5b00c0" points="90.56,-282.31 85.5,-273 83.65,-283.43 90.56,-282.31"/>
<text text-anchor="middle" x="115" y="-294.8" font-family="Times,serif" font-size="14.00" fill="#5b00c0">rw</text>
</g>
<!-- T18675 -->
<g id="node3" class="node">
<title>T18675</title>
<polygon fill="none" stroke="#0058ad" points="87.5,-0.5 87.5,-29.5 315.5,-29.5 315.5,-0.5 87.5,-0.5"/>
<text text-anchor="middle" x="124.5" y="-11.3" font-family="Times,serif" font-size="14.00" fill="#0058ad">w 716 3</text>
<polyline fill="none" stroke="#0058ad" points="161.5,-0.5 161.5,-29.5 "/>
<text text-anchor="middle" x="200" y="-11.3" font-family="Times,serif" font-size="14.00" fill="#0058ad">r 718 nil</text>
<polyline fill="none" stroke="#0058ad" points="238.5,-0.5 238.5,-29.5 "/>
<text text-anchor="middle" x="277" y="-11.3" font-family="Times,serif" font-size="14.00" fill="#0058ad">r 718 nil</text>
</g>
<!-- T18673&#45;&gt;T18675 -->
<g id="edge2" class="edge">
<title>T18673:f1&#45;&gt;T18675:f0</title>
<path fill="none" stroke="#5b00c0" d="M112.5,-324C112.5,-295.32 339.28,-284.61 365.5,-273 375.09,-268.75 384.5,-269.49 384.5,-259 384.5,-259 384.5,-259 384.5,-135.5 384.5,-90.62 340.35,-99.58 299.5,-81 229.07,-48.97 133.54,-105.5 125.1,-40.06"/>
<polygon fill="#5b00c0" stroke="#5b00c0" points="128.59,-39.77 124.5,-30 121.6,-40.19 128.59,-39.77"/>
<text text-anchor="middle" x="394" y="-173.3" font-family="Times,serif" font-size="14.00" fill="#5b00c0">rw</text>
</g>
<!-- T18653&#45;&gt;T18673 -->
<g id="edge4" class="edge">
<title>T18653:f2&#45;&gt;T18673:f0</title>
<path fill="none" stroke="#5b00c0" d="M244.5,-273C244.5,-292.66 86.19,-282.43 68.5,-291 53.71,-298.17 42,-301.94 37.99,-313.78"/>
<polygon fill="#5b00c0" stroke="#5b00c0" points="34.48,-313.6 36.5,-324 41.41,-314.61 34.48,-313.6"/>
<text text-anchor="middle" x="78" y="-294.8" font-family="Times,serif" font-size="14.00" fill="#5b00c0">rw</text>
</g>
<!-- T18659 -->
<g id="node5" class="node">
<title>T18659</title>
<polygon fill="none" stroke="#0058ad" points="207.5,-162.5 207.5,-191.5 281.5,-191.5 281.5,-162.5 207.5,-162.5"/>
<text text-anchor="middle" x="244.5" y="-173.3" font-family="Times,serif" font-size="14.00" fill="#0058ad">w 718 1</text>
</g>
<!-- T18653&#45;&gt;T18659 -->
<g id="edge3" class="edge">
<title>T18653:f2&#45;&gt;T18659:f0</title>
<path fill="none" stroke="#5b00c0" d="M244.5,-243C244.5,-229.35 244.5,-214.12 244.5,-201.73"/>
<polygon fill="#5b00c0" stroke="#5b00c0" points="248,-201.68 244.5,-191.68 241,-201.68 248,-201.68"/>
<text text-anchor="middle" x="254" y="-213.8" font-family="Times,serif" font-size="14.00" fill="#5b00c0">rw</text>
</g>
<!-- T18675&#45;&gt;T18673 -->
<g id="edge6" class="edge">
<title>T18675:f1&#45;&gt;T18673:f0</title>
<path fill="none" stroke="#5b00c0" d="M199.5,-30C199.5,-47.57 139.26,-42.7 122.5,-48 28.82,-77.61 20.5,-75.25 20.5,-95 20.5,-259 20.5,-259 20.5,-259 20.5,-285.03 32.75,-292.5 35.81,-313.89"/>
<polygon fill="#5b00c0" stroke="#5b00c0" points="32.33,-314.26 36.5,-324 39.31,-313.79 32.33,-314.26"/>
<text text-anchor="middle" x="30" y="-173.3" font-family="Times,serif" font-size="14.00" fill="#5b00c0">rw</text>
</g>
<!-- T18675&#45;&gt;T18659 -->
<g id="edge5" class="edge">
<title>T18675:f1&#45;&gt;T18659:f0</title>
<path fill="none" stroke="#5b00c0" d="M199.5,-30C199.5,-69.21 253.49,-46.17 271.5,-81 283.51,-104.23 271.95,-133.48 260.44,-153.55"/>
<polygon fill="#5b00c0" stroke="#5b00c0" points="257.3,-151.97 255.08,-162.33 263.28,-155.62 257.3,-151.97"/>
<text text-anchor="middle" x="286" y="-92.3" font-family="Times,serif" font-size="14.00" fill="#5b00c0">rw</text>
</g>
<!-- T18662 -->
<g id="node4" class="node">
<title>T18662</title>
<polygon fill="none" stroke="#0058ad" points="49,-81.5 49,-110.5 262,-110.5 262,-81.5 49,-81.5"/>
<text text-anchor="middle" x="83" y="-92.3" font-family="Times,serif" font-size="14.00" fill="#0058ad">r 718 1</text>
<polyline fill="none" stroke="#0058ad" points="117,-81.5 117,-110.5 "/>
<text text-anchor="middle" x="155.5" y="-92.3" font-family="Times,serif" font-size="14.00" fill="#0058ad">r 716 nil</text>
<polyline fill="none" stroke="#0058ad" points="194,-81.5 194,-110.5 "/>
<text text-anchor="middle" x="228" y="-92.3" font-family="Times,serif" font-size="14.00" fill="#0058ad">r 718 1</text>
</g>
<!-- T18662&#45;&gt;T18653 -->
<g id="edge7" class="edge">
<title>T18662:f1&#45;&gt;T18653:f0</title>
<path fill="none" stroke="#5b00c0" d="M155.5,-111C155.5,-173.77 92.95,-176.48 86.11,-232.69"/>
<polygon fill="#5b00c0" stroke="#5b00c0" points="82.59,-232.81 85.5,-243 89.58,-233.22 82.59,-232.81"/>
<text text-anchor="middle" x="144" y="-173.3" font-family="Times,serif" font-size="14.00" fill="#5b00c0">rw</text>
</g>
<!-- T18662&#45;&gt;T18675 -->
<g id="edge8" class="edge">
<title>T18662:f1&#45;&gt;T18675:f0</title>
<path fill="none" stroke="#5b00c0" d="M155.5,-81C155.5,-43.22 105.51,-63.21 87.5,-30 86.7,-28.53 85.83,-26.86 85.06,-25.18"/>
<polygon fill="#5b00c0" stroke="#5b00c0" points="88.56,-25.39 86.5,-15 81.63,-24.41 88.56,-25.39"/>
<text text-anchor="middle" x="157" y="-51.8" font-family="Times,serif" font-size="14.00" fill="#5b00c0">rw</text>
</g>
<!-- T18659&#45;&gt;T18662 -->
<g id="edge9" class="edge">
<title>T18659:f0&#45;&gt;T18662:f0</title>
<path fill="none" stroke="#c000a5" d="M208.55,-162.41C170.89,-147.12 114.18,-124.08 91.93,-114.94"/>
<polygon fill="#c000a5" stroke="#c000a5" points="93.08,-111.62 82.5,-111 90.38,-118.08 93.08,-111.62"/>
<text text-anchor="middle" x="168" y="-132.8" font-family="Times,serif" font-size="14.00" fill="#c000a5">wr</text>
</g>
</g>
</svg>
