<?xml version="1.0" encoding="UTF-8" standalone="no"?>
<!DOCTYPE svg PUBLIC "-//W3C//DTD SVG 1.1//EN"
 "http://www.w3.org/Graphics/SVG/1.1/DTD/svg11.dtd">
<!-- Generated by graphviz version 2.43.0 (0)
 -->
<!-- Title: a_graph Pages: 1 -->
<svg width="474pt" height="524pt"
 viewBox="0.00 0.00 474.00 524.00" xmlns="http://www.w3.org/2000/svg" xmlns:xlink="http://www.w3.org/1999/xlink">
<g id="graph0" class="graph" transform="scale(1 1) rotate(0) translate(4 520)">
<title>a_graph</title>
<polygon fill="white" stroke="transparent" points="-4,4 -4,-520 470,-520 470,4 -4,4"/>
<!-- T5227 -->
<g id="node1" class="node">
<title>T5227</title>
<polygon fill="none" stroke="#0058ad" points="315,-486.5 315,-515.5 466,-515.5 466,-486.5 315,-486.5"/>
<text text-anchor="middle" x="353.5" y="-497.3" font-family="Times,serif" font-size="14.00" fill="#0058ad">r 203 nil</text>
<polyline fill="none" stroke="#0058ad" points="392,-486.5 392,-515.5 "/>
<text text-anchor="middle" x="429" y="-497.3" font-family="Times,serif" font-size="14.00" fill="#0058ad">w 204 4</text>
</g>
<!-- T5229 -->
<g id="node4" class="node">
<title>T5229</title>
<polygon fill="none" stroke="#0058ad" points="176.5,-405.5 176.5,-434.5 398.5,-434.5 398.5,-405.5 176.5,-405.5"/>
<text text-anchor="middle" x="213.5" y="-416.3" font-family="Times,serif" font-size="14.00" fill="#0058ad">w 204 5</text>
<polyline fill="none" stroke="#0058ad" points="250.5,-405.5 250.5,-434.5 "/>
<text text-anchor="middle" x="287.5" y="-416.3" font-family="Times,serif" font-size="14.00" fill="#0058ad">w 204 6</text>
<polyline fill="none" stroke="#0058ad" points="324.5,-405.5 324.5,-434.5 "/>
<text text-anchor="middle" x="361.5" y="-416.3" font-family="Times,serif" font-size="14.00" fill="#0058ad">w 203 2</text>
</g>
<!-- T5227&#45;&gt;T5229 -->
<g id="edge2" class="edge">
<title>T5227:f0&#45;&gt;T5229:f2</title>
<path fill="none" stroke="#5b00c0" d="M353.5,-486C353.5,-466.82 359.09,-460.1 360.92,-445.01"/>
<polygon fill="#5b00c0" stroke="#5b00c0" points="364.42,-445.18 361.5,-435 357.43,-444.78 364.42,-445.18"/>
<text text-anchor="middle" x="368" y="-456.8" font-family="Times,serif" font-size="14.00" fill="#5b00c0">rw</text>
</g>
<!-- T5239 -->
<g id="node7" class="node">
<title>T5239</title>
<polygon fill="none" stroke="#0058ad" points="0,-243.5 0,-272.5 219,-272.5 219,-243.5 0,-243.5"/>
<text text-anchor="middle" x="37" y="-254.3" font-family="Times,serif" font-size="14.00" fill="#0058ad">w 203 4</text>
<polyline fill="none" stroke="#0058ad" points="74,-243.5 74,-272.5 "/>
<text text-anchor="middle" x="108" y="-254.3" font-family="Times,serif" font-size="14.00" fill="#0058ad">r 204 7</text>
<polyline fill="none" stroke="#0058ad" points="142,-243.5 142,-272.5 "/>
<text text-anchor="middle" x="180.5" y="-254.3" font-family="Times,serif" font-size="14.00" fill="#0058ad">r 202 nil</text>
</g>
<!-- T5227&#45;&gt;T5239 -->
<g id="edge1" class="edge">
<title>T5227:f0&#45;&gt;T5239:f0</title>
<path fill="none" stroke="#5b00c0" d="M313.5,-501C157.47,-501 41.57,-435.37 36.66,-283.15"/>
<polygon fill="#5b00c0" stroke="#5b00c0" points="40.16,-282.94 36.5,-273 33.16,-283.05 40.16,-282.94"/>
<text text-anchor="middle" x="72" y="-375.8" font-family="Times,serif" font-size="14.00" fill="#5b00c0">rw</text>
</g>
<!-- T5231 -->
<g id="node2" class="node">
<title>T5231</title>
<polygon fill="none" stroke="#0058ad" points="98,-324.5 98,-353.5 317,-353.5 317,-324.5 98,-324.5"/>
<text text-anchor="middle" x="132" y="-335.3" font-family="Times,serif" font-size="14.00" fill="#0058ad">r 204 6</text>
<polyline fill="none" stroke="#0058ad" points="166,-324.5 166,-353.5 "/>
<text text-anchor="middle" x="203" y="-335.3" font-family="Times,serif" font-size="14.00" fill="#0058ad">w 204 7</text>
<polyline fill="none" stroke="#0058ad" points="240,-324.5 240,-353.5 "/>
<text text-anchor="middle" x="278.5" y="-335.3" font-family="Times,serif" font-size="14.00" fill="#0058ad">r 189 13</text>
</g>
<!-- T5231&#45;&gt;T5239 -->
<g id="edge3" class="edge">
<title>T5231:f1&#45;&gt;T5239:f1</title>
<path fill="none" stroke="#c000a5" d="M202.5,-324C202.5,-280.01 122.45,-314.19 109.31,-283.02"/>
<polygon fill="#c000a5" stroke="#c000a5" points="112.72,-282.22 107.5,-273 105.84,-283.46 112.72,-282.22"/>
<text text-anchor="middle" x="202" y="-294.8" font-family="Times,serif" font-size="14.00" fill="#c000a5">wr</text>
</g>
<!-- T5220 -->
<g id="node3" class="node">
<title>T5220</title>
<polygon fill="none" stroke="#0058ad" points="172,-0.5 172,-29.5 317,-29.5 317,-0.5 172,-0.5"/>
<text text-anchor="middle" x="206" y="-11.3" font-family="Times,serif" font-size="14.00" fill="#0058ad">r 204 3</text>
<polyline fill="none" stroke="#0058ad" points="240,-0.5 240,-29.5 "/>
<text text-anchor="middle" x="278.5" y="-11.3" font-family="Times,serif" font-size="14.00" fill="#0058ad">r 203 nil</text>
</g>
<!-- T5220&#45;&gt;T5229 -->
<g id="edge5" class="edge">
<title>T5220:f1&#45;&gt;T5229:f2</title>
<path fill="none" stroke="#5b00c0" d="M318.5,-15C364.31,-15 383.5,-49.19 383.5,-95 383.5,-340 383.5,-340 383.5,-340 383.5,-366.81 366.51,-373.14 362.39,-394.99"/>
<polygon fill="#5b00c0" stroke="#5b00c0" points="358.9,-394.73 361.5,-405 365.87,-395.35 358.9,-394.73"/>
<text text-anchor="middle" x="393" y="-213.8" font-family="Times,serif" font-size="14.00" fill="#5b00c0">rw</text>
</g>
<!-- T5220&#45;&gt;T5239 -->
<g id="edge4" class="edge">
<title>T5220:f1&#45;&gt;T5239:f0</title>
<path fill="none" stroke="#5b00c0" d="M278.5,-30C278.5,-47.57 218.51,-43.58 201.5,-48 150.04,-61.39 126.62,-46.1 86.5,-81 32.32,-128.14 36,-164.14 36.46,-232.65"/>
<polygon fill="#5b00c0" stroke="#5b00c0" points="32.96,-233.01 36.5,-243 39.96,-232.99 32.96,-233.01"/>
<text text-anchor="middle" x="57" y="-132.8" font-family="Times,serif" font-size="14.00" fill="#5b00c0">rw</text>
</g>
<!-- T5229&#45;&gt;T5231 -->
<g id="edge6" class="edge">
<title>T5229:f1&#45;&gt;T5231:f0</title>
<path fill="none" stroke="#c000a5" d="M287.5,-405C287.5,-335.9 147.52,-417.4 132.76,-364.19"/>
<polygon fill="#c000a5" stroke="#c000a5" points="136.2,-363.5 131.5,-354 129.25,-364.35 136.2,-363.5"/>
<text text-anchor="middle" x="290" y="-375.8" font-family="Times,serif" font-size="14.00" fill="#c000a5">wr</text>
</g>
<!-- T5221 -->
<g id="node5" class="node">
<title>T5221</title>
<polygon fill="none" stroke="#0058ad" points="60,-162.5 60,-191.5 285,-191.5 285,-162.5 60,-162.5"/>
<text text-anchor="middle" x="98.5" y="-173.3" font-family="Times,serif" font-size="14.00" fill="#0058ad">r 204 nil</text>
<polyline fill="none" stroke="#0058ad" points="137,-162.5 137,-191.5 "/>
<text text-anchor="middle" x="174" y="-173.3" font-family="Times,serif" font-size="14.00" fill="#0058ad">w 202 1</text>
<polyline fill="none" stroke="#0058ad" points="211,-162.5 211,-191.5 "/>
<text text-anchor="middle" x="248" y="-173.3" font-family="Times,serif" font-size="14.00" fill="#0058ad">w 202 2</text>
</g>
<!-- T5221&#45;&gt;T5227 -->
<g id="edge10" class="edge">
<title>T5221:f0&#45;&gt;T5227:f1</title>
<path fill="none" stroke="#5b00c0" d="M98.5,-192C98.5,-226.28 377.96,-191.01 406.5,-210 425.86,-222.88 429.5,-233.74 429.5,-257 429.5,-421 429.5,-421 429.5,-421 429.5,-446.16 429.5,-454.89 429.5,-475.82"/>
<polygon fill="#5b00c0" stroke="#5b00c0" points="426,-476 429.5,-486 433,-476 426,-476"/>
<text text-anchor="middle" x="439" y="-335.3" font-family="Times,serif" font-size="14.00" fill="#5b00c0">rw</text>
</g>
<!-- T5221&#45;&gt;T5231 -->
<g id="edge7" class="edge">
<title>T5221:f0&#45;&gt;T5231:f1</title>
<path fill="none" stroke="#5b00c0" d="M98.5,-192C98.5,-224.03 220.31,-185.98 241.5,-210 270.74,-243.15 236.71,-267.22 215.5,-306 213.13,-310.33 209.88,-312.36 207.22,-314.55"/>
<polygon fill="#5b00c0" stroke="#5b00c0" points="203.84,-313.49 202.5,-324 210.1,-316.62 203.84,-313.49"/>
<text text-anchor="middle" x="261" y="-254.3" font-family="Times,serif" font-size="14.00" fill="#5b00c0">rw</text>
</g>
<!-- T5221&#45;&gt;T5229 -->
<g id="edge9" class="edge">
<title>T5221:f0&#45;&gt;T5229:f1</title>
<path fill="none" stroke="#5b00c0" d="M98.5,-192C98.5,-216.42 300.26,-192.71 317.5,-210 350.79,-243.39 338.66,-315.3 326.5,-354 321.14,-371.06 314.57,-372.96 303.5,-387 299.77,-391.73 295.18,-393.45 291.87,-395.95"/>
<polygon fill="#5b00c0" stroke="#5b00c0" points="288.69,-394.47 287.5,-405 295,-397.51 288.69,-394.47"/>
<text text-anchor="middle" x="348" y="-294.8" font-family="Times,serif" font-size="14.00" fill="#5b00c0">rw</text>
</g>
<!-- T5215 -->
<g id="node6" class="node">
<title>T5215</title>
<polygon fill="none" stroke="#0058ad" points="95,-81.5 95,-110.5 326,-110.5 326,-81.5 95,-81.5"/>
<text text-anchor="middle" x="132" y="-92.3" font-family="Times,serif" font-size="14.00" fill="#0058ad">w 204 2</text>
<polyline fill="none" stroke="#0058ad" points="169,-81.5 169,-110.5 "/>
<text text-anchor="middle" x="206" y="-92.3" font-family="Times,serif" font-size="14.00" fill="#0058ad">w 204 3</text>
<polyline fill="none" stroke="#0058ad" points="243,-81.5 243,-110.5 "/>
<text text-anchor="middle" x="284.5" y="-92.3" font-family="Times,serif" font-size="14.00" fill="#0058ad">w 189 13</text>
</g>
<!-- T5221&#45;&gt;T5215 -->
<g id="edge8" class="edge">
<title>T5221:f0&#45;&gt;T5215:f1</title>
<path fill="none" stroke="#5b00c0" d="M98.5,-162C98.5,-113.23 190.21,-156.2 203.82,-121.05"/>
<polygon fill="#5b00c0" stroke="#5b00c0" points="207.3,-121.44 205.5,-111 200.4,-120.29 207.3,-121.44"/>
<text text-anchor="middle" x="205" y="-132.8" font-family="Times,serif" font-size="14.00" fill="#5b00c0">rw</text>
</g>
<!-- T5215&#45;&gt;T5231 -->
<g id="edge12" class="edge">
<title>T5215:f2&#45;&gt;T5231:f2</title>
<path fill="none" stroke="#c000a5" d="M284.5,-111C284.5,-134.1 292.27,-139.01 294.5,-162 301.15,-230.5 280.67,-249.8 278.66,-313.78"/>
<polygon fill="#c000a5" stroke="#c000a5" points="275.16,-313.95 278.5,-324 282.15,-314.06 275.16,-313.95"/>
<text text-anchor="middle" x="304" y="-213.8" font-family="Times,serif" font-size="14.00" fill="#c000a5">wr</text>
</g>
<!-- T5215&#45;&gt;T5220 -->
<g id="edge11" class="edge">
<title>T5215:f1&#45;&gt;T5220:f0</title>
<path fill="none" stroke="#c000a5" d="M205.5,-81C205.5,-62.23 205.5,-55.12 205.5,-40.35"/>
<polygon fill="#c000a5" stroke="#c000a5" points="209,-40 205.5,-30 202,-40 209,-40"/>
<text text-anchor="middle" x="215" y="-51.8" font-family="Times,serif" font-size="14.00" fill="#c000a5">wr</text>
</g>
<!-- T5239&#45;&gt;T5221 -->
<g id="edge13" class="edge">
<title>T5239:f2&#45;&gt;T5221:f2</title>
<path fill="none" stroke="#5b00c0" d="M180.5,-243C180.5,-219.26 203.4,-224.1 222.5,-210 229.92,-204.52 238.8,-204.54 244.03,-201.22"/>
<polygon fill="#5b00c0" stroke="#5b00c0" points="247.28,-202.52 248.5,-192 240.99,-199.47 247.28,-202.52"/>
<text text-anchor="middle" x="232" y="-213.8" font-family="Times,serif" font-size="14.00" fill="#5b00c0">rw</text>
</g>
</g>
</svg>
