<?xml version="1.0" encoding="UTF-8" standalone="no"?>
<!DOCTYPE svg PUBLIC "-//W3C//DTD SVG 1.1//EN"
 "http://www.w3.org/Graphics/SVG/1.1/DTD/svg11.dtd">
<!-- Generated by graphviz version 2.43.0 (0)
 -->
<!-- Title: a_graph Pages: 1 -->
<svg width="567pt" height="362pt"
 viewBox="0.00 0.00 566.50 362.00" xmlns="http://www.w3.org/2000/svg" xmlns:xlink="http://www.w3.org/1999/xlink">
<g id="graph0" class="graph" transform="scale(1 1) rotate(0) translate(4 358)">
<title>a_graph</title>
<polygon fill="white" stroke="transparent" points="-4,4 -4,-358 562.5,-358 562.5,4 -4,4"/>
<!-- T7866 -->
<g id="node1" class="node">
<title>T7866</title>
<polygon fill="none" stroke="#0058ad" points="251.5,-324.5 251.5,-353.5 550.5,-353.5 550.5,-324.5 251.5,-324.5"/>
<text text-anchor="middle" x="290" y="-335.3" font-family="Times,serif" font-size="14.00" fill="#0058ad">r 305 nil</text>
<polyline fill="none" stroke="#0058ad" points="328.5,-324.5 328.5,-353.5 "/>
<text text-anchor="middle" x="365.5" y="-335.3" font-family="Times,serif" font-size="14.00" fill="#0058ad">w 305 3</text>
<polyline fill="none" stroke="#0058ad" points="402.5,-324.5 402.5,-353.5 "/>
<text text-anchor="middle" x="439.5" y="-335.3" font-family="Times,serif" font-size="14.00" fill="#0058ad">w 306 1</text>
<polyline fill="none" stroke="#0058ad" points="476.5,-324.5 476.5,-353.5 "/>
<text text-anchor="middle" x="513.5" y="-335.3" font-family="Times,serif" font-size="14.00" fill="#0058ad">w 305 4</text>
</g>
<!-- T7860 -->
<g id="node3" class="node">
<title>T7860</title>
<polygon fill="none" stroke="#0058ad" points="72.5,-243.5 72.5,-272.5 365.5,-272.5 365.5,-243.5 72.5,-243.5"/>
<text text-anchor="middle" x="111" y="-254.3" font-family="Times,serif" font-size="14.00" fill="#0058ad">r 305 nil</text>
<polyline fill="none" stroke="#0058ad" points="149.5,-243.5 149.5,-272.5 "/>
<text text-anchor="middle" x="186.5" y="-254.3" font-family="Times,serif" font-size="14.00" fill="#0058ad">w 305 1</text>
<polyline fill="none" stroke="#0058ad" points="223.5,-243.5 223.5,-272.5 "/>
<text text-anchor="middle" x="257.5" y="-254.3" font-family="Times,serif" font-size="14.00" fill="#0058ad">r 305 1</text>
<polyline fill="none" stroke="#0058ad" points="291.5,-243.5 291.5,-272.5 "/>
<text text-anchor="middle" x="328.5" y="-254.3" font-family="Times,serif" font-size="14.00" fill="#0058ad">w 305 2</text>
</g>
<!-- T7866&#45;&gt;T7860 -->
<g id="edge2" class="edge">
<title>T7866:f0&#45;&gt;T7860:f3</title>
<path fill="none" stroke="#5b00c0" d="M290,-324C290,-299.48 318.8,-300.51 326.9,-283.18"/>
<polygon fill="#5b00c0" stroke="#5b00c0" points="330.41,-283.5 329,-273 323.55,-282.09 330.41,-283.5"/>
<text text-anchor="middle" x="329.5" y="-294.8" font-family="Times,serif" font-size="14.00" fill="#5b00c0">rw</text>
</g>
<!-- T7875 -->
<g id="node4" class="node">
<title>T7875</title>
<polygon fill="none" stroke="#0058ad" points="90,-81.5 90,-110.5 380,-110.5 380,-81.5 90,-81.5"/>
<text text-anchor="middle" x="127" y="-92.3" font-family="Times,serif" font-size="14.00" fill="#0058ad">w 305 8</text>
<polyline fill="none" stroke="#0058ad" points="164,-81.5 164,-110.5 "/>
<text text-anchor="middle" x="201" y="-92.3" font-family="Times,serif" font-size="14.00" fill="#0058ad">w 269 6</text>
<polyline fill="none" stroke="#0058ad" points="238,-81.5 238,-110.5 "/>
<text text-anchor="middle" x="272" y="-92.3" font-family="Times,serif" font-size="14.00" fill="#0058ad">r 304 9</text>
<polyline fill="none" stroke="#0058ad" points="306,-81.5 306,-110.5 "/>
<text text-anchor="middle" x="343" y="-92.3" font-family="Times,serif" font-size="14.00" fill="#0058ad">w 305 9</text>
</g>
<!-- T7866&#45;&gt;T7875 -->
<g id="edge3" class="edge">
<title>T7866:f0&#45;&gt;T7875:f3</title>
<path fill="none" stroke="#5b00c0" d="M290,-324C290,-299.12 321.98,-319.3 343,-306 360.26,-295.08 367.01,-291.8 375,-273 404.35,-203.96 454.71,-105.73 391.21,-96.68"/>
<polygon fill="#5b00c0" stroke="#5b00c0" points="391.21,-93.17 381,-96 390.75,-100.15 391.21,-93.17"/>
<text text-anchor="middle" x="410.5" y="-213.8" font-family="Times,serif" font-size="14.00" fill="#5b00c0">rw</text>
</g>
<!-- T7871 -->
<g id="node5" class="node">
<title>T7871</title>
<polygon fill="none" stroke="#0058ad" points="0,-162.5 0,-191.5 290,-191.5 290,-162.5 0,-162.5"/>
<text text-anchor="middle" x="37" y="-173.3" font-family="Times,serif" font-size="14.00" fill="#0058ad">w 305 5</text>
<polyline fill="none" stroke="#0058ad" points="74,-162.5 74,-191.5 "/>
<text text-anchor="middle" x="111" y="-173.3" font-family="Times,serif" font-size="14.00" fill="#0058ad">w 305 6</text>
<polyline fill="none" stroke="#0058ad" points="148,-162.5 148,-191.5 "/>
<text text-anchor="middle" x="185" y="-173.3" font-family="Times,serif" font-size="14.00" fill="#0058ad">w 304 9</text>
<polyline fill="none" stroke="#0058ad" points="222,-162.5 222,-191.5 "/>
<text text-anchor="middle" x="256" y="-173.3" font-family="Times,serif" font-size="14.00" fill="#0058ad">r 305 6</text>
</g>
<!-- T7866&#45;&gt;T7871 -->
<g id="edge1" class="edge">
<title>T7866:f0&#45;&gt;T7871:f1</title>
<path fill="none" stroke="#5b00c0" d="M250,-339C201.93,-339 72.33,-311.83 44,-273 14.93,-233.16 77.98,-207.22 102.11,-196.72"/>
<polygon fill="#5b00c0" stroke="#5b00c0" points="103.81,-199.79 111,-192 100.53,-193.6 103.81,-199.79"/>
<text text-anchor="middle" x="53.5" y="-254.3" font-family="Times,serif" font-size="14.00" fill="#5b00c0">rw</text>
</g>
<!-- T7881 -->
<g id="node2" class="node">
<title>T7881</title>
<polygon fill="none" stroke="#0058ad" points="253.5,-0.5 253.5,-29.5 558.5,-29.5 558.5,-0.5 253.5,-0.5"/>
<text text-anchor="middle" x="292" y="-11.3" font-family="Times,serif" font-size="14.00" fill="#0058ad">r 292 10</text>
<polyline fill="none" stroke="#0058ad" points="330.5,-0.5 330.5,-29.5 "/>
<text text-anchor="middle" x="364.5" y="-11.3" font-family="Times,serif" font-size="14.00" fill="#0058ad">r 305 9</text>
<polyline fill="none" stroke="#0058ad" points="398.5,-0.5 398.5,-29.5 "/>
<text text-anchor="middle" x="437" y="-11.3" font-family="Times,serif" font-size="14.00" fill="#0058ad">r 306 nil</text>
<polyline fill="none" stroke="#0058ad" points="475.5,-0.5 475.5,-29.5 "/>
<text text-anchor="middle" x="517" y="-11.3" font-family="Times,serif" font-size="14.00" fill="#0058ad">w 304 11</text>
</g>
<!-- T7881&#45;&gt;T7866 -->
<g id="edge4" class="edge">
<title>T7881:f2&#45;&gt;T7866:f2</title>
<path fill="none" stroke="#5b00c0" d="M437,-30C437,-58.92 440,-66.08 440,-95 440,-259 440,-259 440,-259 440,-284.16 440,-292.89 440,-313.82"/>
<polygon fill="#5b00c0" stroke="#5b00c0" points="436.5,-314 440,-324 443.5,-314 436.5,-314"/>
<text text-anchor="middle" x="449.5" y="-173.3" font-family="Times,serif" font-size="14.00" fill="#5b00c0">rw</text>
</g>
<!-- T7860&#45;&gt;T7866 -->
<g id="edge6" class="edge">
<title>T7860:f0&#45;&gt;T7866:f3</title>
<path fill="none" stroke="#5b00c0" d="M111,-273C111,-298.86 317.38,-287.54 343,-291 416.11,-300.86 505.2,-251.59 513.39,-313.97"/>
<polygon fill="#5b00c0" stroke="#5b00c0" points="509.9,-314.23 514,-324 516.89,-313.81 509.9,-314.23"/>
<text text-anchor="middle" x="520.5" y="-294.8" font-family="Times,serif" font-size="14.00" fill="#5b00c0">rw</text>
</g>
<!-- T7860&#45;&gt;T7875 -->
<g id="edge7" class="edge">
<title>T7860:f0&#45;&gt;T7875:f3</title>
<path fill="none" stroke="#5b00c0" d="M111,-243C111,-221.36 282.02,-205.42 299,-192 328.37,-168.77 340.81,-154.56 342.73,-121"/>
<polygon fill="#5b00c0" stroke="#5b00c0" points="346.23,-121.09 343,-111 339.23,-120.9 346.23,-121.09"/>
<text text-anchor="middle" x="339.5" y="-173.3" font-family="Times,serif" font-size="14.00" fill="#5b00c0">rw</text>
</g>
<!-- T7860&#45;&gt;T7871 -->
<g id="edge5" class="edge">
<title>T7860:f0&#45;&gt;T7871:f1</title>
<path fill="none" stroke="#5b00c0" d="M111,-243C111,-224.23 111,-217.12 111,-202.35"/>
<polygon fill="#5b00c0" stroke="#5b00c0" points="114.5,-202 111,-192 107.5,-202 114.5,-202"/>
<text text-anchor="middle" x="120.5" y="-213.8" font-family="Times,serif" font-size="14.00" fill="#5b00c0">rw</text>
</g>
<!-- T7875&#45;&gt;T7881 -->
<g id="edge8" class="edge">
<title>T7875:f3&#45;&gt;T7881:f1</title>
<path fill="none" stroke="#c000a5" d="M343,-81C343,-60.32 357.95,-55.68 362.62,-40.01"/>
<polygon fill="#c000a5" stroke="#c000a5" points="366.1,-40.38 364,-30 359.17,-39.43 366.1,-40.38"/>
<text text-anchor="middle" x="367.5" y="-51.8" font-family="Times,serif" font-size="14.00" fill="#c000a5">wr</text>
</g>
<!-- T7871&#45;&gt;T7875 -->
<g id="edge9" class="edge">
<title>T7871:f2&#45;&gt;T7875:f2</title>
<path fill="none" stroke="#c000a5" d="M185,-162C185,-121.21 257.07,-149.55 270.02,-121.18"/>
<polygon fill="#c000a5" stroke="#c000a5" points="273.53,-121.48 272,-111 266.65,-120.15 273.53,-121.48"/>
<text text-anchor="middle" x="271.5" y="-132.8" font-family="Times,serif" font-size="14.00" fill="#c000a5">wr</text>
</g>
</g>
</svg>
