<?xml version="1.0" encoding="UTF-8" standalone="no"?>
<!DOCTYPE svg PUBLIC "-//W3C//DTD SVG 1.1//EN"
 "http://www.w3.org/Graphics/SVG/1.1/DTD/svg11.dtd">
<!-- Generated by graphviz version 2.43.0 (0)
 -->
<!-- Title: a_graph Pages: 1 -->
<svg width="265pt" height="119pt"
 viewBox="0.00 0.00 265.00 119.00" xmlns="http://www.w3.org/2000/svg" xmlns:xlink="http://www.w3.org/1999/xlink">
<g id="graph0" class="graph" transform="scale(1 1) rotate(0) translate(4 115)">
<title>a_graph</title>
<polygon fill="white" stroke="transparent" points="-4,4 -4,-115 261,-115 261,4 -4,4"/>
<!-- T1939 -->
<g id="node1" class="node">
<title>T1939</title>
<polygon fill="none" stroke="#0058ad" points="6,-81.5 6,-110.5 139,-110.5 139,-81.5 6,-81.5"/>
<text text-anchor="middle" x="40" y="-92.3" font-family="Times,serif" font-size="14.00" fill="#0058ad">r 82 nil</text>
<polyline fill="none" stroke="#0058ad" points="74,-81.5 74,-110.5 "/>
<text text-anchor="middle" x="106.5" y="-92.3" font-family="Times,serif" font-size="14.00" fill="#0058ad">w 82 1</text>
</g>
<!-- T1950 -->
<g id="node2" class="node">
<title>T1950</title>
<polygon fill="none" stroke="#0058ad" points="0,-0.5 0,-29.5 257,-29.5 257,-0.5 0,-0.5"/>
<text text-anchor="middle" x="34" y="-11.3" font-family="Times,serif" font-size="14.00" fill="#0058ad">r 82 nil</text>
<polyline fill="none" stroke="#0058ad" points="68,-0.5 68,-29.5 "/>
<text text-anchor="middle" x="100.5" y="-11.3" font-family="Times,serif" font-size="14.00" fill="#0058ad">w 82 5</text>
<polyline fill="none" stroke="#0058ad" points="133,-0.5 133,-29.5 "/>
<text text-anchor="middle" x="165.5" y="-11.3" font-family="Times,serif" font-size="14.00" fill="#0058ad">w 83 3</text>
<polyline fill="none" stroke="#0058ad" points="198,-0.5 198,-29.5 "/>
<text text-anchor="middle" x="227.5" y="-11.3" font-family="Times,serif" font-size="14.00" fill="#0058ad">r 82 5</text>
</g>
<!-- T1939&#45;&gt;T1950 -->
<g id="edge1" class="edge">
<title>T1939:f0&#45;&gt;T1950:f1</title>
<path fill="none" stroke="#5b00c0" d="M39.5,-81C39.5,-65.07 42.04,-59.06 53.5,-48 66.07,-35.86 87.69,-45.36 96.54,-39.42"/>
<polygon fill="#5b00c0" stroke="#5b00c0" points="99.85,-40.58 100.5,-30 93.4,-37.86 99.85,-40.58"/>
<text text-anchor="middle" x="63" y="-51.8" font-family="Times,serif" font-size="14.00" fill="#5b00c0">rw</text>
</g>
<!-- T1950&#45;&gt;T1939 -->
<g id="edge2" class="edge">
<title>T1950:f0&#45;&gt;T1939:f1</title>
<path fill="none" stroke="#5b00c0" d="M33.5,-30C33.5,-49.09 56.76,-37.2 72.5,-48 86.47,-57.59 99.97,-59.48 104.71,-70.82"/>
<polygon fill="#5b00c0" stroke="#5b00c0" points="101.32,-71.76 106.5,-81 108.22,-70.55 101.32,-71.76"/>
<text text-anchor="middle" x="108" y="-51.8" font-family="Times,serif" font-size="14.00" fill="#5b00c0">rw</text>
</g>
</g>
</svg>
