<?xml version="1.0" encoding="UTF-8" standalone="no"?>
<!DOCTYPE svg PUBLIC "-//W3C//DTD SVG 1.1//EN"
 "http://www.w3.org/Graphics/SVG/1.1/DTD/svg11.dtd">
<!-- Generated by graphviz version 2.43.0 (0)
 -->
<!-- Title: a_graph Pages: 1 -->
<svg width="611pt" height="443pt"
 viewBox="0.00 0.00 610.50 443.00" xmlns="http://www.w3.org/2000/svg" xmlns:xlink="http://www.w3.org/1999/xlink">
<g id="graph0" class="graph" transform="scale(1 1) rotate(0) translate(4 439)">
<title>a_graph</title>
<polygon fill="white" stroke="transparent" points="-4,4 -4,-439 606.5,-439 606.5,4 -4,4"/>
<!-- T29035 -->
<g id="node1" class="node">
<title>T29035</title>
<polygon fill="none" stroke="#0058ad" points="255.5,-405.5 255.5,-434.5 602.5,-434.5 602.5,-405.5 255.5,-405.5"/>
<text text-anchor="middle" x="298.5" y="-416.3" font-family="Times,serif" font-size="14.00" fill="#0058ad">r 1107 nil</text>
<polyline fill="none" stroke="#0058ad" points="341.5,-405.5 341.5,-434.5 "/>
<text text-anchor="middle" x="380" y="-416.3" font-family="Times,serif" font-size="14.00" fill="#0058ad">r 1098 7</text>
<polyline fill="none" stroke="#0058ad" points="418.5,-405.5 418.5,-434.5 "/>
<text text-anchor="middle" x="464.5" y="-416.3" font-family="Times,serif" font-size="14.00" fill="#0058ad">w 1106 12</text>
<polyline fill="none" stroke="#0058ad" points="510.5,-405.5 510.5,-434.5 "/>
<text text-anchor="middle" x="556.5" y="-416.3" font-family="Times,serif" font-size="14.00" fill="#0058ad">w 1077 16</text>
</g>
<!-- T29013 -->
<g id="node4" class="node">
<title>T29013</title>
<polygon fill="none" stroke="#0058ad" points="177,-324.5 177,-353.5 429,-353.5 429,-324.5 177,-324.5"/>
<text text-anchor="middle" x="220" y="-335.3" font-family="Times,serif" font-size="14.00" fill="#0058ad">r 1106 nil</text>
<polyline fill="none" stroke="#0058ad" points="263,-324.5 263,-353.5 "/>
<text text-anchor="middle" x="304.5" y="-335.3" font-family="Times,serif" font-size="14.00" fill="#0058ad">w 1107 1</text>
<polyline fill="none" stroke="#0058ad" points="346,-324.5 346,-353.5 "/>
<text text-anchor="middle" x="387.5" y="-335.3" font-family="Times,serif" font-size="14.00" fill="#0058ad">w 1106 3</text>
</g>
<!-- T29035&#45;&gt;T29013 -->
<g id="edge1" class="edge">
<title>T29035:f0&#45;&gt;T29013:f1</title>
<path fill="none" stroke="#5b00c0" d="M298,-405C298,-385.87 302.89,-379.07 304.5,-363.99"/>
<polygon fill="#5b00c0" stroke="#5b00c0" points="307.99,-364.16 305,-354 301,-363.81 307.99,-364.16"/>
<text text-anchor="middle" x="312.5" y="-375.8" font-family="Times,serif" font-size="14.00" fill="#5b00c0">rw</text>
</g>
<!-- T29010 -->
<g id="node2" class="node">
<title>T29010</title>
<polygon fill="none" stroke="#0058ad" points="92.5,-162.5 92.5,-191.5 415.5,-191.5 415.5,-162.5 92.5,-162.5"/>
<text text-anchor="middle" x="135.5" y="-173.3" font-family="Times,serif" font-size="14.00" fill="#0058ad">r 1096 16</text>
<polyline fill="none" stroke="#0058ad" points="178.5,-162.5 178.5,-191.5 "/>
<text text-anchor="middle" x="220" y="-173.3" font-family="Times,serif" font-size="14.00" fill="#0058ad">w 1106 2</text>
<polyline fill="none" stroke="#0058ad" points="261.5,-162.5 261.5,-191.5 "/>
<text text-anchor="middle" x="300" y="-173.3" font-family="Times,serif" font-size="14.00" fill="#0058ad">r 1106 2</text>
<polyline fill="none" stroke="#0058ad" points="338.5,-162.5 338.5,-191.5 "/>
<text text-anchor="middle" x="377" y="-173.3" font-family="Times,serif" font-size="14.00" fill="#0058ad">r 1106 2</text>
</g>
<!-- T29016 -->
<g id="node3" class="node">
<title>T29016</title>
<polygon fill="none" stroke="#0058ad" points="254.5,-81.5 254.5,-110.5 497.5,-110.5 497.5,-81.5 254.5,-81.5"/>
<text text-anchor="middle" x="293" y="-92.3" font-family="Times,serif" font-size="14.00" fill="#0058ad">r 1106 2</text>
<polyline fill="none" stroke="#0058ad" points="331.5,-81.5 331.5,-110.5 "/>
<text text-anchor="middle" x="373" y="-92.3" font-family="Times,serif" font-size="14.00" fill="#0058ad">w 1105 7</text>
<polyline fill="none" stroke="#0058ad" points="414.5,-81.5 414.5,-110.5 "/>
<text text-anchor="middle" x="456" y="-92.3" font-family="Times,serif" font-size="14.00" fill="#0058ad">w 1106 4</text>
</g>
<!-- T29010&#45;&gt;T29016 -->
<g id="edge2" class="edge">
<title>T29010:f1&#45;&gt;T29016:f0</title>
<path fill="none" stroke="#c000a5" d="M220,-162C220,-132.92 220.16,-103.52 243.06,-97.23"/>
<polygon fill="#c000a5" stroke="#c000a5" points="243.51,-100.7 253,-96 242.65,-93.75 243.51,-100.7"/>
<text text-anchor="middle" x="231.5" y="-132.8" font-family="Times,serif" font-size="14.00" fill="#c000a5">wr</text>
</g>
<!-- T29019 -->
<g id="node5" class="node">
<title>T29019</title>
<polygon fill="none" stroke="#0058ad" points="104.5,-0.5 104.5,-29.5 433.5,-29.5 433.5,-0.5 104.5,-0.5"/>
<text text-anchor="middle" x="146" y="-11.3" font-family="Times,serif" font-size="14.00" fill="#0058ad">w 1106 6</text>
<polyline fill="none" stroke="#0058ad" points="187.5,-0.5 187.5,-29.5 "/>
<text text-anchor="middle" x="230.5" y="-11.3" font-family="Times,serif" font-size="14.00" fill="#0058ad">r 1107 nil</text>
<polyline fill="none" stroke="#0058ad" points="273.5,-0.5 273.5,-29.5 "/>
<text text-anchor="middle" x="315" y="-11.3" font-family="Times,serif" font-size="14.00" fill="#0058ad">w 1106 7</text>
<polyline fill="none" stroke="#0058ad" points="356.5,-0.5 356.5,-29.5 "/>
<text text-anchor="middle" x="395" y="-11.3" font-family="Times,serif" font-size="14.00" fill="#0058ad">r 1105 7</text>
</g>
<!-- T29016&#45;&gt;T29019 -->
<g id="edge3" class="edge">
<title>T29016:f1&#45;&gt;T29019:f3</title>
<path fill="none" stroke="#c000a5" d="M373,-81C373,-45.66 417.98,-61.5 434,-30 434.76,-28.51 435.62,-26.83 436.37,-25.14"/>
<polygon fill="#c000a5" stroke="#c000a5" points="439.81,-24.44 435,-15 432.87,-25.38 439.81,-24.44"/>
<text text-anchor="middle" x="422.5" y="-51.8" font-family="Times,serif" font-size="14.00" fill="#c000a5">wr</text>
</g>
<!-- T29013&#45;&gt;T29035 -->
<g id="edge6" class="edge">
<title>T29013:f0&#45;&gt;T29035:f2</title>
<path fill="none" stroke="#5b00c0" d="M220,-354C220,-377.89 302.59,-367.24 326,-372 339.25,-374.69 430.73,-385.22 457.6,-398.09"/>
<polygon fill="#5b00c0" stroke="#5b00c0" points="455.3,-400.73 465,-405 460.08,-395.62 455.3,-400.73"/>
<text text-anchor="middle" x="425.5" y="-375.8" font-family="Times,serif" font-size="14.00" fill="#5b00c0">rw</text>
</g>
<!-- T29013&#45;&gt;T29010 -->
<g id="edge4" class="edge">
<title>T29013:f0&#45;&gt;T29010:f1</title>
<path fill="none" stroke="#5b00c0" d="M220,-324C220,-268.89 220,-252.6 220,-202.19"/>
<polygon fill="#5b00c0" stroke="#5b00c0" points="223.5,-202 220,-192 216.5,-202 223.5,-202"/>
<text text-anchor="middle" x="229.5" y="-254.3" font-family="Times,serif" font-size="14.00" fill="#5b00c0">rw</text>
</g>
<!-- T29013&#45;&gt;T29016 -->
<g id="edge7" class="edge">
<title>T29013:f0&#45;&gt;T29016:f2</title>
<path fill="none" stroke="#5b00c0" d="M220,-324C220,-315 327.06,-214.23 335,-210 371.01,-190.83 393.84,-218.32 425,-192 451.69,-169.46 455.46,-152.91 455.94,-121.31"/>
<polygon fill="#5b00c0" stroke="#5b00c0" points="459.44,-121.02 456,-111 452.44,-120.98 459.44,-121.02"/>
<text text-anchor="middle" x="344.5" y="-213.8" font-family="Times,serif" font-size="14.00" fill="#5b00c0">rw</text>
</g>
<!-- T29013&#45;&gt;T29019 -->
<g id="edge8" class="edge">
<title>T29013:f0&#45;&gt;T29019:f2</title>
<path fill="none" stroke="#5b00c0" d="M176,-339C133.04,-339 0,-301.96 0,-259 0,-259 0,-259 0,-95 0,-67.28 16.16,-60.29 41,-48 65.62,-35.82 268.04,-55.71 308.12,-37.53"/>
<polygon fill="#5b00c0" stroke="#5b00c0" points="310.84,-39.74 315,-30 305.67,-35.02 310.84,-39.74"/>
<text text-anchor="middle" x="9.5" y="-173.3" font-family="Times,serif" font-size="14.00" fill="#5b00c0">rw</text>
</g>
<!-- T28999 -->
<g id="node6" class="node">
<title>T28999</title>
<polygon fill="none" stroke="#0058ad" points="336,-243.5 336,-272.5 588,-272.5 588,-243.5 336,-243.5"/>
<text text-anchor="middle" x="377.5" y="-254.3" font-family="Times,serif" font-size="14.00" fill="#0058ad">w 1105 2</text>
<polyline fill="none" stroke="#0058ad" points="419,-243.5 419,-272.5 "/>
<text text-anchor="middle" x="462" y="-254.3" font-family="Times,serif" font-size="14.00" fill="#0058ad">r 1106 nil</text>
<polyline fill="none" stroke="#0058ad" points="505,-243.5 505,-272.5 "/>
<text text-anchor="middle" x="546.5" y="-254.3" font-family="Times,serif" font-size="14.00" fill="#0058ad">w 1106 1</text>
</g>
<!-- T29013&#45;&gt;T28999 -->
<g id="edge5" class="edge">
<title>T29013:f0&#45;&gt;T28999:f2</title>
<path fill="none" stroke="#5b00c0" d="M220,-324C220,-302.9 389.09,-312.96 409,-306 420.52,-301.97 420.61,-295.37 432,-291 452.66,-283.07 522.13,-294.46 541.78,-281.73"/>
<polygon fill="#5b00c0" stroke="#5b00c0" points="544.87,-283.38 547,-273 538.87,-279.79 544.87,-283.38"/>
<text text-anchor="middle" x="441.5" y="-294.8" font-family="Times,serif" font-size="14.00" fill="#5b00c0">rw</text>
</g>
<!-- T29019&#45;&gt;T29013 -->
<g id="edge9" class="edge">
<title>T29019:f1&#45;&gt;T29013:f1</title>
<path fill="none" stroke="#5b00c0" d="M230,-30C230,-124.26 104.96,-77.1 64,-162 58.21,-174.01 55.97,-181.36 64,-192 113.84,-258.02 174.61,-196.46 243,-243 277.55,-266.51 301.09,-276.98 304.56,-313.99"/>
<polygon fill="#5b00c0" stroke="#5b00c0" points="301.06,-314.16 305,-324 308.05,-313.85 301.06,-314.16"/>
<text text-anchor="middle" x="73.5" y="-173.3" font-family="Times,serif" font-size="14.00" fill="#5b00c0">rw</text>
</g>
<!-- T28999&#45;&gt;T29035 -->
<g id="edge11" class="edge">
<title>T28999:f1&#45;&gt;T29035:f2</title>
<path fill="none" stroke="#5b00c0" d="M462,-273C462,-328.13 464.65,-344.38 464.97,-394.81"/>
<polygon fill="#5b00c0" stroke="#5b00c0" points="461.47,-395.01 465,-405 468.47,-394.99 461.47,-395.01"/>
<text text-anchor="middle" x="473.5" y="-335.3" font-family="Times,serif" font-size="14.00" fill="#5b00c0">rw</text>
</g>
<!-- T28999&#45;&gt;T29010 -->
<g id="edge10" class="edge">
<title>T28999:f1&#45;&gt;T29010:f1</title>
<path fill="none" stroke="#5b00c0" d="M462,-243C462,-218.75 381.67,-215.26 358,-210 345.26,-207.17 255.78,-207.31 228.12,-198.13"/>
<polygon fill="#5b00c0" stroke="#5b00c0" points="230.09,-195.23 220,-192 225.87,-200.82 230.09,-195.23"/>
<text text-anchor="middle" x="448.5" y="-213.8" font-family="Times,serif" font-size="14.00" fill="#5b00c0">rw</text>
</g>
<!-- T28999&#45;&gt;T29016 -->
<g id="edge13" class="edge">
<title>T28999:f1&#45;&gt;T29016:f2</title>
<path fill="none" stroke="#5b00c0" d="M462,-243C462,-179.58 554.5,-105.29 509.13,-96.8"/>
<polygon fill="#5b00c0" stroke="#5b00c0" points="509.25,-93.3 499,-96 508.69,-100.28 509.25,-93.3"/>
<text text-anchor="middle" x="503.5" y="-173.3" font-family="Times,serif" font-size="14.00" fill="#5b00c0">rw</text>
</g>
<!-- T28999&#45;&gt;T29013 -->
<g id="edge12" class="edge">
<title>T28999:f1&#45;&gt;T29013:f2</title>
<path fill="none" stroke="#5b00c0" d="M462,-273C462,-307.71 407.53,-263.77 386,-291 379.24,-299.55 383.61,-305.49 386.32,-314"/>
<polygon fill="#5b00c0" stroke="#5b00c0" points="382.89,-314.72 388,-324 389.8,-313.56 382.89,-314.72"/>
<text text-anchor="middle" x="395.5" y="-294.8" font-family="Times,serif" font-size="14.00" fill="#5b00c0">rw</text>
</g>
<!-- T28999&#45;&gt;T29019 -->
<g id="edge14" class="edge">
<title>T28999:f1&#45;&gt;T29019:f2</title>
<path fill="none" stroke="#5b00c0" d="M462,-243C462,-238.83 515.33,-195.82 517,-192 536.82,-146.6 540.33,-117.64 507,-81 450.14,-18.5 326.26,-109.79 315.72,-40.35"/>
<polygon fill="#5b00c0" stroke="#5b00c0" points="319.18,-39.73 315,-30 312.2,-40.22 319.18,-39.73"/>
<text text-anchor="middle" x="541.5" y="-132.8" font-family="Times,serif" font-size="14.00" fill="#5b00c0">rw</text>
</g>
</g>
</svg>
