<?xml version="1.0" encoding="UTF-8" standalone="no"?>
<!DOCTYPE svg PUBLIC "-//W3C//DTD SVG 1.1//EN"
 "http://www.w3.org/Graphics/SVG/1.1/DTD/svg11.dtd">
<!-- Generated by graphviz version 2.43.0 (0)
 -->
<!-- Title: a_graph Pages: 1 -->
<svg width="776pt" height="686pt"
 viewBox="0.00 0.00 776.00 686.00" xmlns="http://www.w3.org/2000/svg" xmlns:xlink="http://www.w3.org/1999/xlink">
<g id="graph0" class="graph" transform="scale(1 1) rotate(0) translate(4 682)">
<title>a_graph</title>
<polygon fill="white" stroke="transparent" points="-4,4 -4,-682 772,-682 772,4 -4,4"/>
<!-- T28354 -->
<g id="node1" class="node">
<title>T28354</title>
<polygon fill="none" stroke="#0058ad" points="0,-648.5 0,-677.5 243,-677.5 243,-648.5 0,-648.5"/>
<text text-anchor="middle" x="41.5" y="-659.3" font-family="Times,serif" font-size="14.00" fill="#0058ad">w 1083 5</text>
<polyline fill="none" stroke="#0058ad" points="83,-648.5 83,-677.5 "/>
<text text-anchor="middle" x="121.5" y="-659.3" font-family="Times,serif" font-size="14.00" fill="#0058ad">r 1081 8</text>
<polyline fill="none" stroke="#0058ad" points="160,-648.5 160,-677.5 "/>
<text text-anchor="middle" x="201.5" y="-659.3" font-family="Times,serif" font-size="14.00" fill="#0058ad">w 1080 6</text>
</g>
<!-- T28367 -->
<g id="node8" class="node">
<title>T28367</title>
<polygon fill="none" stroke="#0058ad" points="196.5,-567.5 196.5,-596.5 540.5,-596.5 540.5,-567.5 196.5,-567.5"/>
<text text-anchor="middle" x="242.5" y="-578.3" font-family="Times,serif" font-size="14.00" fill="#0058ad">w 1083 10</text>
<polyline fill="none" stroke="#0058ad" points="288.5,-567.5 288.5,-596.5 "/>
<text text-anchor="middle" x="334.5" y="-578.3" font-family="Times,serif" font-size="14.00" fill="#0058ad">w 1083 11</text>
<polyline fill="none" stroke="#0058ad" points="380.5,-567.5 380.5,-596.5 "/>
<text text-anchor="middle" x="419" y="-578.3" font-family="Times,serif" font-size="14.00" fill="#0058ad">r 1080 6</text>
<polyline fill="none" stroke="#0058ad" points="457.5,-567.5 457.5,-596.5 "/>
<text text-anchor="middle" x="499" y="-578.3" font-family="Times,serif" font-size="14.00" fill="#0058ad">w 1077 4</text>
</g>
<!-- T28354&#45;&gt;T28367 -->
<g id="edge1" class="edge">
<title>T28354:f2&#45;&gt;T28367:f2</title>
<path fill="none" stroke="#c000a5" d="M244.5,-663C282.65,-663 398.23,-642.41 416.93,-606.88"/>
<polygon fill="#c000a5" stroke="#c000a5" points="420.37,-607.56 419.5,-597 413.6,-605.8 420.37,-607.56"/>
<text text-anchor="middle" x="419" y="-618.8" font-family="Times,serif" font-size="14.00" fill="#c000a5">wr</text>
</g>
<!-- T28391 -->
<g id="node2" class="node">
<title>T28391</title>
<polygon fill="none" stroke="#0058ad" points="288.5,-324.5 288.5,-353.5 534.5,-353.5 534.5,-324.5 288.5,-324.5"/>
<text text-anchor="middle" x="327" y="-335.3" font-family="Times,serif" font-size="14.00" fill="#0058ad">r 1084 1</text>
<polyline fill="none" stroke="#0058ad" points="365.5,-324.5 365.5,-353.5 "/>
<text text-anchor="middle" x="408.5" y="-335.3" font-family="Times,serif" font-size="14.00" fill="#0058ad">r 1085 nil</text>
<polyline fill="none" stroke="#0058ad" points="451.5,-324.5 451.5,-353.5 "/>
<text text-anchor="middle" x="493" y="-335.3" font-family="Times,serif" font-size="14.00" fill="#0058ad">w 1085 2</text>
</g>
<!-- T28416 -->
<g id="node3" class="node">
<title>T28416</title>
<polygon fill="none" stroke="#0058ad" points="251.5,-243.5 251.5,-272.5 595.5,-272.5 595.5,-243.5 251.5,-243.5"/>
<text text-anchor="middle" x="297.5" y="-254.3" font-family="Times,serif" font-size="14.00" fill="#0058ad">w 1084 14</text>
<polyline fill="none" stroke="#0058ad" points="343.5,-243.5 343.5,-272.5 "/>
<text text-anchor="middle" x="385" y="-254.3" font-family="Times,serif" font-size="14.00" fill="#0058ad">w 1085 5</text>
<polyline fill="none" stroke="#0058ad" points="426.5,-243.5 426.5,-272.5 "/>
<text text-anchor="middle" x="469.5" y="-254.3" font-family="Times,serif" font-size="14.00" fill="#0058ad">r 1082 nil</text>
<polyline fill="none" stroke="#0058ad" points="512.5,-243.5 512.5,-272.5 "/>
<text text-anchor="middle" x="554" y="-254.3" font-family="Times,serif" font-size="14.00" fill="#0058ad">w 1082 2</text>
</g>
<!-- T28391&#45;&gt;T28416 -->
<g id="edge2" class="edge">
<title>T28391:f1&#45;&gt;T28416:f1</title>
<path fill="none" stroke="#5b00c0" d="M408.5,-324C408.5,-302.86 391.41,-298.92 386.07,-283.16"/>
<polygon fill="#5b00c0" stroke="#5b00c0" points="389.49,-282.35 384.5,-273 382.57,-283.42 389.49,-282.35"/>
<text text-anchor="middle" x="412" y="-294.8" font-family="Times,serif" font-size="14.00" fill="#5b00c0">rw</text>
</g>
<!-- T28335 -->
<g id="node6" class="node">
<title>T28335</title>
<polygon fill="none" stroke="#0058ad" points="248,-162.5 248,-191.5 583,-191.5 583,-162.5 248,-162.5"/>
<text text-anchor="middle" x="289.5" y="-173.3" font-family="Times,serif" font-size="14.00" fill="#0058ad">w 1081 5</text>
<polyline fill="none" stroke="#0058ad" points="331,-162.5 331,-191.5 "/>
<text text-anchor="middle" x="374" y="-173.3" font-family="Times,serif" font-size="14.00" fill="#0058ad">r 1080 nil</text>
<polyline fill="none" stroke="#0058ad" points="417,-162.5 417,-191.5 "/>
<text text-anchor="middle" x="458.5" y="-173.3" font-family="Times,serif" font-size="14.00" fill="#0058ad">w 1082 1</text>
<polyline fill="none" stroke="#0058ad" points="500,-162.5 500,-191.5 "/>
<text text-anchor="middle" x="541.5" y="-173.3" font-family="Times,serif" font-size="14.00" fill="#0058ad">w 1081 6</text>
</g>
<!-- T28416&#45;&gt;T28335 -->
<g id="edge3" class="edge">
<title>T28416:f2&#45;&gt;T28335:f2</title>
<path fill="none" stroke="#5b00c0" d="M469.5,-243C469.5,-223.62 461.81,-217.2 459.29,-202.08"/>
<polygon fill="#5b00c0" stroke="#5b00c0" points="462.77,-201.7 458.5,-192 455.79,-202.24 462.77,-201.7"/>
<text text-anchor="middle" x="476" y="-213.8" font-family="Times,serif" font-size="14.00" fill="#5b00c0">rw</text>
</g>
<!-- T28343 -->
<g id="node4" class="node">
<title>T28343</title>
<polygon fill="none" stroke="#0058ad" points="304,-81.5 304,-110.5 387,-110.5 387,-81.5 304,-81.5"/>
<text text-anchor="middle" x="345.5" y="-92.3" font-family="Times,serif" font-size="14.00" fill="#0058ad">w 1080 5</text>
</g>
<!-- T28348 -->
<g id="node7" class="node">
<title>T28348</title>
<polygon fill="none" stroke="#0058ad" points="128.5,-0.5 128.5,-29.5 442.5,-29.5 442.5,-0.5 128.5,-0.5"/>
<text text-anchor="middle" x="170" y="-11.3" font-family="Times,serif" font-size="14.00" fill="#0058ad">w 1081 8</text>
<polyline fill="none" stroke="#0058ad" points="211.5,-0.5 211.5,-29.5 "/>
<text text-anchor="middle" x="250" y="-11.3" font-family="Times,serif" font-size="14.00" fill="#0058ad">r 1081 8</text>
<polyline fill="none" stroke="#0058ad" points="288.5,-0.5 288.5,-29.5 "/>
<text text-anchor="middle" x="327" y="-11.3" font-family="Times,serif" font-size="14.00" fill="#0058ad">r 1080 5</text>
<polyline fill="none" stroke="#0058ad" points="365.5,-0.5 365.5,-29.5 "/>
<text text-anchor="middle" x="404" y="-11.3" font-family="Times,serif" font-size="14.00" fill="#0058ad">r 1080 5</text>
</g>
<!-- T28343&#45;&gt;T28348 -->
<g id="edge4" class="edge">
<title>T28343:f0&#45;&gt;T28348:f2</title>
<path fill="none" stroke="#c000a5" d="M339.1,-81.37C334.9,-70.67 329.87,-55.44 328.13,-40.36"/>
<polygon fill="#c000a5" stroke="#c000a5" points="331.6,-39.77 327.5,-30 324.61,-40.19 331.6,-39.77"/>
<text text-anchor="middle" x="342" y="-51.8" font-family="Times,serif" font-size="14.00" fill="#c000a5">wr</text>
</g>
<!-- T28373 -->
<g id="node5" class="node">
<title>T28373</title>
<polygon fill="none" stroke="#0058ad" points="271.5,-486.5 271.5,-515.5 523.5,-515.5 523.5,-486.5 271.5,-486.5"/>
<text text-anchor="middle" x="317.5" y="-497.3" font-family="Times,serif" font-size="14.00" fill="#0058ad">w 1083 14</text>
<polyline fill="none" stroke="#0058ad" points="363.5,-486.5 363.5,-515.5 "/>
<text text-anchor="middle" x="402" y="-497.3" font-family="Times,serif" font-size="14.00" fill="#0058ad">r 1077 4</text>
<polyline fill="none" stroke="#0058ad" points="440.5,-486.5 440.5,-515.5 "/>
<text text-anchor="middle" x="482" y="-497.3" font-family="Times,serif" font-size="14.00" fill="#0058ad">w 1084 1</text>
</g>
<!-- T28373&#45;&gt;T28391 -->
<g id="edge7" class="edge">
<title>T28373:f2&#45;&gt;T28391:f0</title>
<path fill="none" stroke="#c000a5" d="M482.5,-486C482.5,-465.57 319.15,-473.6 299.5,-468 267.58,-458.9 250.04,-463.18 232.5,-435 225.46,-423.68 227.96,-417.54 232.5,-405 232.66,-404.56 266.11,-364.12 280.76,-346.77"/>
<polygon fill="#c000a5" stroke="#c000a5" points="283.59,-348.85 287.5,-339 278.3,-344.26 283.59,-348.85"/>
<text text-anchor="middle" x="242" y="-416.3" font-family="Times,serif" font-size="14.00" fill="#c000a5">wr</text>
</g>
<!-- T28388 -->
<g id="node9" class="node">
<title>T28388</title>
<polygon fill="none" stroke="#0058ad" points="260.5,-405.5 260.5,-434.5 500.5,-434.5 500.5,-405.5 260.5,-405.5"/>
<text text-anchor="middle" x="299" y="-416.3" font-family="Times,serif" font-size="14.00" fill="#0058ad">r 1084 1</text>
<polyline fill="none" stroke="#0058ad" points="337.5,-405.5 337.5,-434.5 "/>
<text text-anchor="middle" x="380.5" y="-416.3" font-family="Times,serif" font-size="14.00" fill="#0058ad">r 1085 nil</text>
<polyline fill="none" stroke="#0058ad" points="423.5,-405.5 423.5,-434.5 "/>
<text text-anchor="middle" x="462" y="-416.3" font-family="Times,serif" font-size="14.00" fill="#0058ad">r 1084 1</text>
</g>
<!-- T28373&#45;&gt;T28388 -->
<g id="edge6" class="edge">
<title>T28373:f2&#45;&gt;T28388:f0</title>
<path fill="none" stroke="#c000a5" d="M482.5,-486C482.5,-404.95 314.66,-509.61 299.58,-445.24"/>
<polygon fill="#c000a5" stroke="#c000a5" points="303.03,-444.58 298.5,-435 296.07,-445.31 303.03,-444.58"/>
<text text-anchor="middle" x="486" y="-456.8" font-family="Times,serif" font-size="14.00" fill="#c000a5">wr</text>
</g>
<!-- T28383 -->
<g id="node10" class="node">
<title>T28383</title>
<polygon fill="none" stroke="#0058ad" points="519,-405.5 519,-434.5 768,-434.5 768,-405.5 519,-405.5"/>
<text text-anchor="middle" x="557.5" y="-416.3" font-family="Times,serif" font-size="14.00" fill="#0058ad">r 1084 1</text>
<polyline fill="none" stroke="#0058ad" points="596,-405.5 596,-434.5 "/>
<text text-anchor="middle" x="639" y="-416.3" font-family="Times,serif" font-size="14.00" fill="#0058ad">r 1082 nil</text>
<polyline fill="none" stroke="#0058ad" points="682,-405.5 682,-434.5 "/>
<text text-anchor="middle" x="725" y="-416.3" font-family="Times,serif" font-size="14.00" fill="#0058ad">r 1085 nil</text>
</g>
<!-- T28373&#45;&gt;T28383 -->
<g id="edge5" class="edge">
<title>T28373:f2&#45;&gt;T28383:f0</title>
<path fill="none" stroke="#c000a5" d="M524.5,-501C538.83,-501 514.67,-450.07 513.06,-428.98"/>
<polygon fill="#c000a5" stroke="#c000a5" points="516.21,-430.52 517.5,-420 509.93,-427.41 516.21,-430.52"/>
<text text-anchor="middle" x="532" y="-456.8" font-family="Times,serif" font-size="14.00" fill="#c000a5">wr</text>
</g>
<!-- T28335&#45;&gt;T28354 -->
<g id="edge8" class="edge">
<title>T28335:f1&#45;&gt;T28354:f2</title>
<path fill="none" stroke="#5b00c0" d="M373.5,-192C373.5,-287.58 168.5,-161.42 168.5,-257 168.5,-583 168.5,-583 168.5,-583 168.5,-611.6 194.22,-615.11 200.25,-637.83"/>
<polygon fill="#5b00c0" stroke="#5b00c0" points="196.8,-638.5 201.5,-648 203.75,-637.65 196.8,-638.5"/>
<text text-anchor="middle" x="178" y="-416.3" font-family="Times,serif" font-size="14.00" fill="#5b00c0">rw</text>
</g>
<!-- T28335&#45;&gt;T28343 -->
<g id="edge9" class="edge">
<title>T28335:f1&#45;&gt;T28343:f0</title>
<path fill="none" stroke="#5b00c0" d="M373.5,-162C373.5,-147.17 367.43,-131.85 360.95,-119.7"/>
<polygon fill="#5b00c0" stroke="#5b00c0" points="363.79,-117.63 355.77,-110.72 357.73,-121.13 363.79,-117.63"/>
<text text-anchor="middle" x="380" y="-132.8" font-family="Times,serif" font-size="14.00" fill="#5b00c0">rw</text>
</g>
<!-- T28348&#45;&gt;T28354 -->
<g id="edge10" class="edge">
<title>T28348:f0&#45;&gt;T28354:f1</title>
<path fill="none" stroke="#c000a5" d="M127.5,-15C91.84,-15 121.5,-59.34 121.5,-95 121.5,-583 121.5,-583 121.5,-583 121.5,-608.16 121.5,-616.89 121.5,-637.82"/>
<polygon fill="#c000a5" stroke="#c000a5" points="118,-638 121.5,-648 125,-638 118,-638"/>
<text text-anchor="middle" x="131" y="-335.3" font-family="Times,serif" font-size="14.00" fill="#c000a5">wr</text>
</g>
<!-- T28367&#45;&gt;T28373 -->
<g id="edge11" class="edge">
<title>T28367:f3&#45;&gt;T28373:f1</title>
<path fill="none" stroke="#c000a5" d="M499.5,-567C499.5,-522.29 417.76,-557.73 404.35,-526.17"/>
<polygon fill="#c000a5" stroke="#c000a5" points="407.73,-525.21 402.5,-516 400.85,-526.47 407.73,-525.21"/>
<text text-anchor="middle" x="500" y="-537.8" font-family="Times,serif" font-size="14.00" fill="#c000a5">wr</text>
</g>
<!-- T28388&#45;&gt;T28391 -->
<g id="edge12" class="edge">
<title>T28388:f1&#45;&gt;T28391:f2</title>
<path fill="none" stroke="#5b00c0" d="M380.5,-405C380.5,-353.77 478.17,-401.34 491.9,-364.01"/>
<polygon fill="#5b00c0" stroke="#5b00c0" points="495.38,-364.43 493.5,-354 488.47,-363.32 495.38,-364.43"/>
<text text-anchor="middle" x="495" y="-375.8" font-family="Times,serif" font-size="14.00" fill="#5b00c0">rw</text>
</g>
<!-- T28388&#45;&gt;T28416 -->
<g id="edge13" class="edge">
<title>T28388:f1&#45;&gt;T28416:f1</title>
<path fill="none" stroke="#5b00c0" d="M380.5,-405C380.5,-347.05 292.47,-402.33 260.5,-354 253.14,-342.88 253.08,-335.08 260.5,-324 291.53,-277.68 373.03,-325.55 383.41,-283.12"/>
<polygon fill="#5b00c0" stroke="#5b00c0" points="386.91,-283.32 384.5,-273 379.95,-282.57 386.91,-283.32"/>
<text text-anchor="middle" x="270" y="-335.3" font-family="Times,serif" font-size="14.00" fill="#5b00c0">rw</text>
</g>
<!-- T28383&#45;&gt;T28391 -->
<g id="edge16" class="edge">
<title>T28383:f2&#45;&gt;T28391:f2</title>
<path fill="none" stroke="#5b00c0" d="M725.5,-405C725.5,-328.24 630.58,-385.31 560.5,-354 552.74,-350.53 549.98,-345.16 545.33,-341.87"/>
<polygon fill="#5b00c0" stroke="#5b00c0" points="546.08,-338.44 535.5,-339 544.12,-345.16 546.08,-338.44"/>
<text text-anchor="middle" x="732" y="-375.8" font-family="Times,serif" font-size="14.00" fill="#5b00c0">rw</text>
</g>
<!-- T28383&#45;&gt;T28416 -->
<g id="edge15" class="edge">
<title>T28383:f1&#45;&gt;T28416:f3</title>
<path fill="none" stroke="#5b00c0" d="M638.5,-405C638.5,-394 628.11,-395.8 621.5,-387 588.35,-342.85 558.35,-332.91 554.84,-283.14"/>
<polygon fill="#5b00c0" stroke="#5b00c0" points="558.34,-282.88 554.5,-273 551.34,-283.11 558.34,-282.88"/>
<text text-anchor="middle" x="601" y="-335.3" font-family="Times,serif" font-size="14.00" fill="#5b00c0">rw</text>
</g>
<!-- T28383&#45;&gt;T28335 -->
<g id="edge14" class="edge">
<title>T28383:f1&#45;&gt;T28335:f2</title>
<path fill="none" stroke="#5b00c0" d="M638.5,-405C638.5,-331.43 653.05,-298.27 604.5,-243 594.75,-231.91 493.93,-214.91 465.77,-199.44"/>
<polygon fill="#5b00c0" stroke="#5b00c0" points="467.99,-196.7 458.5,-192 462.99,-201.6 467.99,-196.7"/>
<text text-anchor="middle" x="647" y="-294.8" font-family="Times,serif" font-size="14.00" fill="#5b00c0">rw</text>
</g>
</g>
</svg>
