<?xml version="1.0" encoding="UTF-8" standalone="no"?>
<!DOCTYPE svg PUBLIC "-//W3C//DTD SVG 1.1//EN"
 "http://www.w3.org/Graphics/SVG/1.1/DTD/svg11.dtd">
<!-- Generated by graphviz version 2.43.0 (0)
 -->
<!-- Title: a_graph Pages: 1 -->
<svg width="301pt" height="119pt"
 viewBox="0.00 0.00 301.00 119.00" xmlns="http://www.w3.org/2000/svg" xmlns:xlink="http://www.w3.org/1999/xlink">
<g id="graph0" class="graph" transform="scale(1 1) rotate(0) translate(4 115)">
<title>a_graph</title>
<polygon fill="white" stroke="transparent" points="-4,4 -4,-115 297,-115 297,4 -4,4"/>
<!-- T13823 -->
<g id="node1" class="node">
<title>T13823</title>
<polygon fill="none" stroke="#0058ad" points="0,-81.5 0,-110.5 293,-110.5 293,-81.5 0,-81.5"/>
<text text-anchor="middle" x="38.5" y="-92.3" font-family="Times,serif" font-size="14.00" fill="#0058ad">r 533 nil</text>
<polyline fill="none" stroke="#0058ad" points="77,-81.5 77,-110.5 "/>
<text text-anchor="middle" x="111" y="-92.3" font-family="Times,serif" font-size="14.00" fill="#0058ad">r 531 4</text>
<polyline fill="none" stroke="#0058ad" points="145,-81.5 145,-110.5 "/>
<text text-anchor="middle" x="182" y="-92.3" font-family="Times,serif" font-size="14.00" fill="#0058ad">w 531 7</text>
<polyline fill="none" stroke="#0058ad" points="219,-81.5 219,-110.5 "/>
<text text-anchor="middle" x="256" y="-92.3" font-family="Times,serif" font-size="14.00" fill="#0058ad">w 533 1</text>
</g>
<!-- T13844 -->
<g id="node2" class="node">
<title>T13844</title>
<polygon fill="none" stroke="#0058ad" points="71,-0.5 71,-29.5 290,-29.5 290,-0.5 71,-0.5"/>
<text text-anchor="middle" x="109.5" y="-11.3" font-family="Times,serif" font-size="14.00" fill="#0058ad">r 533 nil</text>
<polyline fill="none" stroke="#0058ad" points="148,-0.5 148,-29.5 "/>
<text text-anchor="middle" x="185" y="-11.3" font-family="Times,serif" font-size="14.00" fill="#0058ad">w 533 8</text>
<polyline fill="none" stroke="#0058ad" points="222,-0.5 222,-29.5 "/>
<text text-anchor="middle" x="256" y="-11.3" font-family="Times,serif" font-size="14.00" fill="#0058ad">r 528 5</text>
</g>
<!-- T13823&#45;&gt;T13844 -->
<g id="edge1" class="edge">
<title>T13823:f0&#45;&gt;T13844:f1</title>
<path fill="none" stroke="#5b00c0" d="M38.5,-81C38.5,-50.07 156.13,-61.33 180.94,-39.3"/>
<polygon fill="#5b00c0" stroke="#5b00c0" points="184.24,-40.52 185.5,-30 177.96,-37.44 184.24,-40.52"/>
<text text-anchor="middle" x="171" y="-51.8" font-family="Times,serif" font-size="14.00" fill="#5b00c0">rw</text>
</g>
<!-- T13844&#45;&gt;T13823 -->
<g id="edge2" class="edge">
<title>T13844:f0&#45;&gt;T13823:f3</title>
<path fill="none" stroke="#5b00c0" d="M109.5,-30C109.5,-64.28 152.1,-36.81 184.5,-48 214,-58.19 247.8,-48.58 255.07,-70.81"/>
<polygon fill="#5b00c0" stroke="#5b00c0" points="251.65,-71.58 256.5,-81 258.58,-70.61 251.65,-71.58"/>
<text text-anchor="middle" x="258" y="-51.8" font-family="Times,serif" font-size="14.00" fill="#5b00c0">rw</text>
</g>
</g>
</svg>
