<?xml version="1.0" encoding="UTF-8" standalone="no"?>
<!DOCTYPE svg PUBLIC "-//W3C//DTD SVG 1.1//EN"
 "http://www.w3.org/Graphics/SVG/1.1/DTD/svg11.dtd">
<!-- Generated by graphviz version 2.43.0 (0)
 -->
<!-- Title: a_graph Pages: 1 -->
<svg width="395pt" height="119pt"
 viewBox="0.00 0.00 395.00 119.00" xmlns="http://www.w3.org/2000/svg" xmlns:xlink="http://www.w3.org/1999/xlink">
<g id="graph0" class="graph" transform="scale(1 1) rotate(0) translate(4 115)">
<title>a_graph</title>
<polygon fill="white" stroke="transparent" points="-4,4 -4,-115 391,-115 391,4 -4,4"/>
<!-- T32843 -->
<g id="node1" class="node">
<title>T32843</title>
<polygon fill="none" stroke="#0058ad" points="0,-81.5 0,-110.5 347,-110.5 347,-81.5 0,-81.5"/>
<text text-anchor="middle" x="43" y="-92.3" font-family="Times,serif" font-size="14.00" fill="#0058ad">r 1255 nil</text>
<polyline fill="none" stroke="#0058ad" points="86,-81.5 86,-110.5 "/>
<text text-anchor="middle" x="132" y="-92.3" font-family="Times,serif" font-size="14.00" fill="#0058ad">w 1247 14</text>
<polyline fill="none" stroke="#0058ad" points="178,-81.5 178,-110.5 "/>
<text text-anchor="middle" x="221" y="-92.3" font-family="Times,serif" font-size="14.00" fill="#0058ad">r 1255 nil</text>
<polyline fill="none" stroke="#0058ad" points="264,-81.5 264,-110.5 "/>
<text text-anchor="middle" x="305.5" y="-92.3" font-family="Times,serif" font-size="14.00" fill="#0058ad">w 1255 1</text>
</g>
<!-- T32851 -->
<g id="node2" class="node">
<title>T32851</title>
<polygon fill="none" stroke="#0058ad" points="46,-0.5 46,-29.5 387,-29.5 387,-0.5 46,-0.5"/>
<text text-anchor="middle" x="89" y="-11.3" font-family="Times,serif" font-size="14.00" fill="#0058ad">r 1255 nil</text>
<polyline fill="none" stroke="#0058ad" points="132,-0.5 132,-29.5 "/>
<text text-anchor="middle" x="175" y="-11.3" font-family="Times,serif" font-size="14.00" fill="#0058ad">r 1255 nil</text>
<polyline fill="none" stroke="#0058ad" points="218,-0.5 218,-29.5 "/>
<text text-anchor="middle" x="259.5" y="-11.3" font-family="Times,serif" font-size="14.00" fill="#0058ad">w 1255 3</text>
<polyline fill="none" stroke="#0058ad" points="301,-0.5 301,-29.5 "/>
<text text-anchor="middle" x="344" y="-11.3" font-family="Times,serif" font-size="14.00" fill="#0058ad">r 1251 16</text>
</g>
<!-- T32843&#45;&gt;T32851 -->
<g id="edge1" class="edge">
<title>T32843:f0&#45;&gt;T32851:f2</title>
<path fill="none" stroke="#5b00c0" d="M42.5,-81C42.5,-58.94 214.63,-55.37 252.28,-37.35"/>
<polygon fill="#5b00c0" stroke="#5b00c0" points="254.99,-39.59 259.5,-30 250,-34.68 254.99,-39.59"/>
<text text-anchor="middle" x="217" y="-51.8" font-family="Times,serif" font-size="14.00" fill="#5b00c0">rw</text>
</g>
<!-- T32851&#45;&gt;T32843 -->
<g id="edge2" class="edge">
<title>T32851:f0&#45;&gt;T32843:f3</title>
<path fill="none" stroke="#5b00c0" d="M88.5,-30C88.5,-61.37 198.24,-39.74 228.5,-48 260.63,-56.77 296.89,-46.46 304.18,-70.84"/>
<polygon fill="#5b00c0" stroke="#5b00c0" points="300.74,-71.53 305.5,-81 307.69,-70.63 300.74,-71.53"/>
<text text-anchor="middle" x="308" y="-51.8" font-family="Times,serif" font-size="14.00" fill="#5b00c0">rw</text>
</g>
</g>
</svg>
