<?xml version="1.0" encoding="UTF-8" standalone="no"?>
<!DOCTYPE svg PUBLIC "-//W3C//DTD SVG 1.1//EN"
 "http://www.w3.org/Graphics/SVG/1.1/DTD/svg11.dtd">
<!-- Generated by graphviz version 2.43.0 (0)
 -->
<!-- Title: a_graph Pages: 1 -->
<svg width="550pt" height="362pt"
 viewBox="0.00 0.00 549.64 362.00" xmlns="http://www.w3.org/2000/svg" xmlns:xlink="http://www.w3.org/1999/xlink">
<g id="graph0" class="graph" transform="scale(1 1) rotate(0) translate(4 358)">
<title>a_graph</title>
<polygon fill="white" stroke="transparent" points="-4,4 -4,-358 545.64,-358 545.64,4 -4,4"/>
<!-- T28838 -->
<g id="node1" class="node">
<title>T28838</title>
<polygon fill="none" stroke="#0058ad" points="0,-324.5 0,-353.5 255,-353.5 255,-324.5 0,-324.5"/>
<text text-anchor="middle" x="43" y="-335.3" font-family="Times,serif" font-size="14.00" fill="#0058ad">r 1096 nil</text>
<polyline fill="none" stroke="#0058ad" points="86,-324.5 86,-353.5 "/>
<text text-anchor="middle" x="132" y="-335.3" font-family="Times,serif" font-size="14.00" fill="#0058ad">w 1101 12</text>
<polyline fill="none" stroke="#0058ad" points="178,-324.5 178,-353.5 "/>
<text text-anchor="middle" x="216.5" y="-335.3" font-family="Times,serif" font-size="14.00" fill="#0058ad">r 1100 9</text>
</g>
<!-- T28756 -->
<g id="node2" class="node">
<title>T28756</title>
<polygon fill="none" stroke="#0058ad" points="105,-243.5 105,-272.5 188,-272.5 188,-243.5 105,-243.5"/>
<text text-anchor="middle" x="146.5" y="-254.3" font-family="Times,serif" font-size="14.00" fill="#0058ad">w 1096 1</text>
</g>
<!-- T28838&#45;&gt;T28756 -->
<g id="edge1" class="edge">
<title>T28838:f0&#45;&gt;T28756:f0</title>
<path fill="none" stroke="#5b00c0" d="M42.5,-324C42.5,-308.97 73.87,-290.54 102.16,-276.98"/>
<polygon fill="#5b00c0" stroke="#5b00c0" points="104,-279.98 111.58,-272.58 101.04,-273.64 104,-279.98"/>
<text text-anchor="middle" x="83" y="-294.8" font-family="Times,serif" font-size="14.00" fill="#5b00c0">rw</text>
</g>
<!-- T28799 -->
<g id="node3" class="node">
<title>T28799</title>
<polygon fill="none" stroke="#0058ad" points="104.5,-81.5 104.5,-110.5 344.5,-110.5 344.5,-81.5 104.5,-81.5"/>
<text text-anchor="middle" x="143" y="-92.3" font-family="Times,serif" font-size="14.00" fill="#0058ad">r 1096 1</text>
<polyline fill="none" stroke="#0058ad" points="181.5,-81.5 181.5,-110.5 "/>
<text text-anchor="middle" x="224.5" y="-92.3" font-family="Times,serif" font-size="14.00" fill="#0058ad">r 1101 nil</text>
<polyline fill="none" stroke="#0058ad" points="267.5,-81.5 267.5,-110.5 "/>
<text text-anchor="middle" x="306" y="-92.3" font-family="Times,serif" font-size="14.00" fill="#0058ad">r 1100 1</text>
</g>
<!-- T28756&#45;&gt;T28799 -->
<g id="edge2" class="edge">
<title>T28756:f0&#45;&gt;T28799:f0</title>
<path fill="none" stroke="#c000a5" d="M145.84,-243.4C144.78,-218.79 142.8,-167.22 142.53,-121.06"/>
<polygon fill="#c000a5" stroke="#c000a5" points="146.03,-120.99 142.5,-111 139.03,-121.01 146.03,-120.99"/>
<text text-anchor="middle" x="154" y="-173.3" font-family="Times,serif" font-size="14.00" fill="#c000a5">wr</text>
</g>
<!-- T28779 -->
<g id="node4" class="node">
<title>T28779</title>
<polygon fill="none" stroke="#0058ad" points="174,-162.5 174,-191.5 497,-191.5 497,-162.5 174,-162.5"/>
<text text-anchor="middle" x="212.5" y="-173.3" font-family="Times,serif" font-size="14.00" fill="#0058ad">r 1096 1</text>
<polyline fill="none" stroke="#0058ad" points="251,-162.5 251,-191.5 "/>
<text text-anchor="middle" x="292.5" y="-173.3" font-family="Times,serif" font-size="14.00" fill="#0058ad">w 1100 1</text>
<polyline fill="none" stroke="#0058ad" points="334,-162.5 334,-191.5 "/>
<text text-anchor="middle" x="372.5" y="-173.3" font-family="Times,serif" font-size="14.00" fill="#0058ad">r 1096 1</text>
<polyline fill="none" stroke="#0058ad" points="411,-162.5 411,-191.5 "/>
<text text-anchor="middle" x="454" y="-173.3" font-family="Times,serif" font-size="14.00" fill="#0058ad">r 1099 10</text>
</g>
<!-- T28756&#45;&gt;T28779 -->
<g id="edge3" class="edge">
<title>T28756:f0&#45;&gt;T28779:f0</title>
<path fill="none" stroke="#c000a5" d="M175.26,-243.36C190.26,-233.81 206.46,-219.85 211.16,-202.19"/>
<polygon fill="#c000a5" stroke="#c000a5" points="214.66,-202.37 212.5,-192 207.72,-201.46 214.66,-202.37"/>
<text text-anchor="middle" x="217" y="-213.8" font-family="Times,serif" font-size="14.00" fill="#c000a5">wr</text>
</g>
<!-- T28799&#45;&gt;T28838 -->
<g id="edge5" class="edge">
<title>T28799:f1&#45;&gt;T28838:f1</title>
<path fill="none" stroke="#5b00c0" d="M224.5,-111C224.5,-133.8 303.06,-124.96 325.5,-129 539.32,-167.55 582.86,-84.08 506.5,-192 482.79,-225.52 178.64,-272.9 137.17,-314.86"/>
<polygon fill="#5b00c0" stroke="#5b00c0" points="133.93,-313.5 132.5,-324 140.17,-316.69 133.93,-313.5"/>
<text text-anchor="middle" x="481" y="-213.8" font-family="Times,serif" font-size="14.00" fill="#5b00c0">rw</text>
</g>
<!-- T28801 -->
<g id="node5" class="node">
<title>T28801</title>
<polygon fill="none" stroke="#0058ad" points="64.5,-0.5 64.5,-29.5 316.5,-29.5 316.5,-0.5 64.5,-0.5"/>
<text text-anchor="middle" x="107.5" y="-11.3" font-family="Times,serif" font-size="14.00" fill="#0058ad">r 1101 nil</text>
<polyline fill="none" stroke="#0058ad" points="150.5,-0.5 150.5,-29.5 "/>
<text text-anchor="middle" x="192" y="-11.3" font-family="Times,serif" font-size="14.00" fill="#0058ad">w 1101 1</text>
<polyline fill="none" stroke="#0058ad" points="233.5,-0.5 233.5,-29.5 "/>
<text text-anchor="middle" x="275" y="-11.3" font-family="Times,serif" font-size="14.00" fill="#0058ad">w 1098 3</text>
</g>
<!-- T28799&#45;&gt;T28801 -->
<g id="edge4" class="edge">
<title>T28799:f1&#45;&gt;T28801:f1</title>
<path fill="none" stroke="#5b00c0" d="M224.5,-81C224.5,-58.21 201.29,-56.66 194.41,-40.17"/>
<polygon fill="#5b00c0" stroke="#5b00c0" points="197.78,-39.18 192.5,-30 190.9,-40.47 197.78,-39.18"/>
<text text-anchor="middle" x="226" y="-51.8" font-family="Times,serif" font-size="14.00" fill="#5b00c0">rw</text>
</g>
<!-- T28779&#45;&gt;T28799 -->
<g id="edge6" class="edge">
<title>T28779:f1&#45;&gt;T28799:f2</title>
<path fill="none" stroke="#c000a5" d="M292.5,-162C292.5,-142.35 302.28,-136.34 305.49,-121.17"/>
<polygon fill="#c000a5" stroke="#c000a5" points="309,-121.3 306.5,-111 302.03,-120.61 309,-121.3"/>
<text text-anchor="middle" x="312" y="-132.8" font-family="Times,serif" font-size="14.00" fill="#c000a5">wr</text>
</g>
<!-- T28801&#45;&gt;T28838 -->
<g id="edge7" class="edge">
<title>T28801:f0&#45;&gt;T28838:f1</title>
<path fill="none" stroke="#5b00c0" d="M107.5,-30C107.5,-62.01 76.5,-62.99 76.5,-95 76.5,-259 76.5,-259 76.5,-259 76.5,-293.26 121.7,-287.65 130.88,-313.81"/>
<polygon fill="#5b00c0" stroke="#5b00c0" points="127.48,-314.67 132.5,-324 134.39,-313.58 127.48,-314.67"/>
<text text-anchor="middle" x="86" y="-173.3" font-family="Times,serif" font-size="14.00" fill="#5b00c0">rw</text>
</g>
</g>
</svg>
