<?xml version="1.0" encoding="UTF-8" standalone="no"?>
<!DOCTYPE svg PUBLIC "-//W3C//DTD SVG 1.1//EN"
 "http://www.w3.org/Graphics/SVG/1.1/DTD/svg11.dtd">
<!-- Generated by graphviz version 2.43.0 (0)
 -->
<!-- Title: a_graph Pages: 1 -->
<svg width="359pt" height="200pt"
 viewBox="0.00 0.00 358.81 200.00" xmlns="http://www.w3.org/2000/svg" xmlns:xlink="http://www.w3.org/1999/xlink">
<g id="graph0" class="graph" transform="scale(1 1) rotate(0) translate(4 196)">
<title>a_graph</title>
<polygon fill="white" stroke="transparent" points="-4,4 -4,-196 354.81,-196 354.81,4 -4,4"/>
<!-- T12580 -->
<g id="node1" class="node">
<title>T12580</title>
<polygon fill="none" stroke="#0058ad" points="54.81,-162.5 54.81,-191.5 350.81,-191.5 350.81,-162.5 54.81,-162.5"/>
<text text-anchor="middle" x="91.81" y="-173.3" font-family="Times,serif" font-size="14.00" fill="#0058ad">w 485 4</text>
<polyline fill="none" stroke="#0058ad" points="128.81,-162.5 128.81,-191.5 "/>
<text text-anchor="middle" x="167.31" y="-173.3" font-family="Times,serif" font-size="14.00" fill="#0058ad">r 486 nil</text>
<polyline fill="none" stroke="#0058ad" points="205.81,-162.5 205.81,-191.5 "/>
<text text-anchor="middle" x="239.81" y="-173.3" font-family="Times,serif" font-size="14.00" fill="#0058ad">r 485 4</text>
<polyline fill="none" stroke="#0058ad" points="273.81,-162.5 273.81,-191.5 "/>
<text text-anchor="middle" x="312.31" y="-173.3" font-family="Times,serif" font-size="14.00" fill="#0058ad">r 486 nil</text>
</g>
<!-- T12587 -->
<g id="node2" class="node">
<title>T12587</title>
<polygon fill="none" stroke="#0058ad" points="55.81,-81.5 55.81,-110.5 277.81,-110.5 277.81,-81.5 55.81,-81.5"/>
<text text-anchor="middle" x="92.81" y="-92.3" font-family="Times,serif" font-size="14.00" fill="#0058ad">w 486 1</text>
<polyline fill="none" stroke="#0058ad" points="129.81,-81.5 129.81,-110.5 "/>
<text text-anchor="middle" x="166.81" y="-92.3" font-family="Times,serif" font-size="14.00" fill="#0058ad">w 486 2</text>
<polyline fill="none" stroke="#0058ad" points="203.81,-81.5 203.81,-110.5 "/>
<text text-anchor="middle" x="240.81" y="-92.3" font-family="Times,serif" font-size="14.00" fill="#0058ad">w 481 6</text>
</g>
<!-- T12580&#45;&gt;T12587 -->
<g id="edge1" class="edge">
<title>T12580:f1&#45;&gt;T12587:f1</title>
<path fill="none" stroke="#5b00c0" d="M166.81,-162C166.81,-143.23 166.81,-136.12 166.81,-121.35"/>
<polygon fill="#5b00c0" stroke="#5b00c0" points="170.31,-121 166.81,-111 163.31,-121 170.31,-121"/>
<text text-anchor="middle" x="176.31" y="-132.8" font-family="Times,serif" font-size="14.00" fill="#5b00c0">rw</text>
</g>
<!-- T12597 -->
<g id="node3" class="node">
<title>T12597</title>
<polygon fill="none" stroke="#0058ad" points="56.31,-0.5 56.31,-29.5 343.31,-29.5 343.31,-0.5 56.31,-0.5"/>
<text text-anchor="middle" x="94.81" y="-11.3" font-family="Times,serif" font-size="14.00" fill="#0058ad">r 485 nil</text>
<polyline fill="none" stroke="#0058ad" points="133.31,-0.5 133.31,-29.5 "/>
<text text-anchor="middle" x="167.31" y="-11.3" font-family="Times,serif" font-size="14.00" fill="#0058ad">r 486 2</text>
<polyline fill="none" stroke="#0058ad" points="201.31,-0.5 201.31,-29.5 "/>
<text text-anchor="middle" x="238.31" y="-11.3" font-family="Times,serif" font-size="14.00" fill="#0058ad">w 486 5</text>
<polyline fill="none" stroke="#0058ad" points="275.31,-0.5 275.31,-29.5 "/>
<text text-anchor="middle" x="309.31" y="-11.3" font-family="Times,serif" font-size="14.00" fill="#0058ad">r 481 6</text>
</g>
<!-- T12580&#45;&gt;T12597 -->
<g id="edge2" class="edge">
<title>T12580:f1&#45;&gt;T12597:f2</title>
<path fill="none" stroke="#5b00c0" d="M166.81,-162C166.81,-147.51 278.82,-123.08 286.81,-111 294.17,-99.88 291.73,-93.39 286.81,-81 276.77,-55.68 247.55,-59.46 240.4,-39.94"/>
<polygon fill="#5b00c0" stroke="#5b00c0" points="243.85,-39.32 238.81,-30 236.94,-40.43 243.85,-39.32"/>
<text text-anchor="middle" x="300.31" y="-92.3" font-family="Times,serif" font-size="14.00" fill="#5b00c0">rw</text>
</g>
<!-- T12587&#45;&gt;T12597 -->
<g id="edge3" class="edge">
<title>T12587:f1&#45;&gt;T12597:f1</title>
<path fill="none" stroke="#c000a5" d="M166.81,-81C166.81,-62.23 166.81,-55.12 166.81,-40.35"/>
<polygon fill="#c000a5" stroke="#c000a5" points="170.31,-40 166.81,-30 163.31,-40 170.31,-40"/>
<text text-anchor="middle" x="176.31" y="-51.8" font-family="Times,serif" font-size="14.00" fill="#c000a5">wr</text>
</g>
<!-- T12597&#45;&gt;T12580 -->
<g id="edge4" class="edge">
<title>T12597:f0&#45;&gt;T12580:f0</title>
<path fill="none" stroke="#5b00c0" d="M54.81,-15C-13.67,-15 -17.92,-161.57 43.79,-175.88"/>
<polygon fill="#5b00c0" stroke="#5b00c0" points="43.49,-179.37 53.81,-177 44.26,-172.41 43.49,-179.37"/>
<text text-anchor="middle" x="11.31" y="-92.3" font-family="Times,serif" font-size="14.00" fill="#5b00c0">rw</text>
</g>
</g>
</svg>
