<?xml version="1.0" encoding="UTF-8" standalone="no"?>
<!DOCTYPE svg PUBLIC "-//W3C//DTD SVG 1.1//EN"
 "http://www.w3.org/Graphics/SVG/1.1/DTD/svg11.dtd">
<!-- Generated by graphviz version 2.43.0 (0)
 -->
<!-- Title: a_graph Pages: 1 -->
<svg width="1220pt" height="620pt"
 viewBox="0.00 0.00 1220.00 620.00" xmlns="http://www.w3.org/2000/svg" xmlns:xlink="http://www.w3.org/1999/xlink">
<g id="graph0" class="graph" transform="scale(1 1) rotate(0) translate(4 616)">
<title>a_graph</title>
<polygon fill="white" stroke="transparent" points="-4,4 -4,-616 1216,-616 1216,4 -4,4"/>
<!-- T2478 -->
<g id="node1" class="node">
<title>T2478</title>
<polygon fill="none" stroke="#0058ad" points="0,-582.5 0,-611.5 284,-611.5 284,-582.5 0,-582.5"/>
<text text-anchor="middle" x="34" y="-593.3" font-family="Times,serif" font-size="14.00" fill="#0058ad">r 101 3</text>
<polyline fill="none" stroke="#0058ad" points="68,-582.5 68,-611.5 "/>
<text text-anchor="middle" x="105" y="-593.3" font-family="Times,serif" font-size="14.00" fill="#0058ad">w 102 4</text>
<polyline fill="none" stroke="#0058ad" points="142,-582.5 142,-611.5 "/>
<text text-anchor="middle" x="176" y="-593.3" font-family="Times,serif" font-size="14.00" fill="#0058ad">r 101 3</text>
<polyline fill="none" stroke="#0058ad" points="210,-582.5 210,-611.5 "/>
<text text-anchor="middle" x="247" y="-593.3" font-family="Times,serif" font-size="14.00" fill="#0058ad">w 102 5</text>
</g>
<!-- T2483 -->
<g id="node8" class="node">
<title>T2483</title>
<polygon fill="none" stroke="#0058ad" points="389,-501.5 389,-530.5 655,-530.5 655,-501.5 389,-501.5"/>
<text text-anchor="middle" x="423" y="-512.3" font-family="Times,serif" font-size="14.00" fill="#0058ad">r 98 nil</text>
<polyline fill="none" stroke="#0058ad" points="457,-501.5 457,-530.5 "/>
<text text-anchor="middle" x="491" y="-512.3" font-family="Times,serif" font-size="14.00" fill="#0058ad">r 102 5</text>
<polyline fill="none" stroke="#0058ad" points="525,-501.5 525,-530.5 "/>
<text text-anchor="middle" x="553" y="-512.3" font-family="Times,serif" font-size="14.00" fill="#0058ad">w 1 4</text>
<polyline fill="none" stroke="#0058ad" points="581,-501.5 581,-530.5 "/>
<text text-anchor="middle" x="618" y="-512.3" font-family="Times,serif" font-size="14.00" fill="#0058ad">w 102 7</text>
</g>
<!-- T2478&#45;&gt;T2483 -->
<g id="edge1" class="edge">
<title>T2478:f3&#45;&gt;T2483:f1</title>
<path fill="none" stroke="#c000a5" d="M285,-597C329.6,-597 468.75,-581.57 488.63,-540.95"/>
<polygon fill="#c000a5" stroke="#c000a5" points="492.09,-541.54 491,-531 485.28,-539.92 492.09,-541.54"/>
<text text-anchor="middle" x="492.5" y="-552.8" font-family="Times,serif" font-size="14.00" fill="#c000a5">wr</text>
</g>
<!-- T2451 -->
<g id="node2" class="node">
<title>T2451</title>
<polygon fill="none" stroke="#0058ad" points="507,-162.5 507,-191.5 773,-191.5 773,-162.5 507,-162.5"/>
<text text-anchor="middle" x="536.5" y="-173.3" font-family="Times,serif" font-size="14.00" fill="#0058ad">r 99 7</text>
<polyline fill="none" stroke="#0058ad" points="566,-162.5 566,-191.5 "/>
<text text-anchor="middle" x="603" y="-173.3" font-family="Times,serif" font-size="14.00" fill="#0058ad">w 99 10</text>
<polyline fill="none" stroke="#0058ad" points="640,-162.5 640,-191.5 "/>
<text text-anchor="middle" x="672.5" y="-173.3" font-family="Times,serif" font-size="14.00" fill="#0058ad">w 98 5</text>
<polyline fill="none" stroke="#0058ad" points="705,-162.5 705,-191.5 "/>
<text text-anchor="middle" x="739" y="-173.3" font-family="Times,serif" font-size="14.00" fill="#0058ad">r 99 10</text>
</g>
<!-- T2455 -->
<g id="node9" class="node">
<title>T2455</title>
<polygon fill="none" stroke="#0058ad" points="569,-81.5 569,-110.5 853,-110.5 853,-81.5 569,-81.5"/>
<text text-anchor="middle" x="603" y="-92.3" font-family="Times,serif" font-size="14.00" fill="#0058ad">r 99 10</text>
<polyline fill="none" stroke="#0058ad" points="637,-81.5 637,-110.5 "/>
<text text-anchor="middle" x="674" y="-92.3" font-family="Times,serif" font-size="14.00" fill="#0058ad">w 76 13</text>
<polyline fill="none" stroke="#0058ad" points="711,-81.5 711,-110.5 "/>
<text text-anchor="middle" x="748" y="-92.3" font-family="Times,serif" font-size="14.00" fill="#0058ad">w 100 2</text>
<polyline fill="none" stroke="#0058ad" points="785,-81.5 785,-110.5 "/>
<text text-anchor="middle" x="819" y="-92.3" font-family="Times,serif" font-size="14.00" fill="#0058ad">r 99 10</text>
</g>
<!-- T2451&#45;&gt;T2455 -->
<g id="edge2" class="edge">
<title>T2451:f1&#45;&gt;T2455:f0</title>
<path fill="none" stroke="#c000a5" d="M603,-162C603,-143.23 603,-136.12 603,-121.35"/>
<polygon fill="#c000a5" stroke="#c000a5" points="606.5,-121 603,-111 599.5,-121 606.5,-121"/>
<text text-anchor="middle" x="612.5" y="-132.8" font-family="Times,serif" font-size="14.00" fill="#c000a5">wr</text>
</g>
<!-- T2468 -->
<g id="node3" class="node">
<title>T2468</title>
<polygon fill="none" stroke="#0058ad" points="603,-339.5 603,-368.5 887,-368.5 887,-339.5 603,-339.5"/>
<text text-anchor="middle" x="640" y="-350.3" font-family="Times,serif" font-size="14.00" fill="#0058ad">w 99 15</text>
<polyline fill="none" stroke="#0058ad" points="677,-339.5 677,-368.5 "/>
<text text-anchor="middle" x="714" y="-350.3" font-family="Times,serif" font-size="14.00" fill="#0058ad">w 99 16</text>
<polyline fill="none" stroke="#0058ad" points="751,-339.5 751,-368.5 "/>
<text text-anchor="middle" x="785" y="-350.3" font-family="Times,serif" font-size="14.00" fill="#0058ad">r 98 nil</text>
<polyline fill="none" stroke="#0058ad" points="819,-339.5 819,-368.5 "/>
<text text-anchor="middle" x="853" y="-350.3" font-family="Times,serif" font-size="14.00" fill="#0058ad">r 98 nil</text>
</g>
<!-- T2468&#45;&gt;T2451 -->
<g id="edge3" class="edge">
<title>T2468:f2&#45;&gt;T2451:f2</title>
<path fill="none" stroke="#5b00c0" d="M785,-339C785,-260.39 682.42,-272.83 673.6,-202.05"/>
<polygon fill="#5b00c0" stroke="#5b00c0" points="677.09,-201.77 673,-192 670.1,-202.19 677.09,-201.77"/>
<text text-anchor="middle" x="750.5" y="-254.3" font-family="Times,serif" font-size="14.00" fill="#5b00c0">rw</text>
</g>
<!-- T2416 -->
<g id="node10" class="node">
<title>T2416</title>
<polygon fill="none" stroke="#0058ad" points="655.5,-420.5 655.5,-449.5 862.5,-449.5 862.5,-420.5 655.5,-420.5"/>
<text text-anchor="middle" x="689.5" y="-431.3" font-family="Times,serif" font-size="14.00" fill="#0058ad">r 99 nil</text>
<polyline fill="none" stroke="#0058ad" points="723.5,-420.5 723.5,-449.5 "/>
<text text-anchor="middle" x="760.5" y="-431.3" font-family="Times,serif" font-size="14.00" fill="#0058ad">w 95 10</text>
<polyline fill="none" stroke="#0058ad" points="797.5,-420.5 797.5,-449.5 "/>
<text text-anchor="middle" x="830" y="-431.3" font-family="Times,serif" font-size="14.00" fill="#0058ad">w 98 3</text>
</g>
<!-- T2468&#45;&gt;T2416 -->
<g id="edge4" class="edge">
<title>T2468:f2&#45;&gt;T2416:f2</title>
<path fill="none" stroke="#5b00c0" d="M785,-369C785,-381.16 814.14,-396.99 825.52,-410.58"/>
<polygon fill="#5b00c0" stroke="#5b00c0" points="822.54,-412.47 830,-420 828.87,-409.47 822.54,-412.47"/>
<text text-anchor="middle" x="824.5" y="-390.8" font-family="Times,serif" font-size="14.00" fill="#5b00c0">rw</text>
</g>
<!-- T2442 -->
<g id="node4" class="node">
<title>T2442</title>
<polygon fill="none" stroke="#0058ad" points="445.5,-243.5 445.5,-272.5 652.5,-272.5 652.5,-243.5 445.5,-243.5"/>
<text text-anchor="middle" x="475" y="-254.3" font-family="Times,serif" font-size="14.00" fill="#0058ad">r 99 7</text>
<polyline fill="none" stroke="#0058ad" points="504.5,-243.5 504.5,-272.5 "/>
<text text-anchor="middle" x="541.5" y="-254.3" font-family="Times,serif" font-size="14.00" fill="#0058ad">w 95 15</text>
<polyline fill="none" stroke="#0058ad" points="578.5,-243.5 578.5,-272.5 "/>
<text text-anchor="middle" x="615.5" y="-254.3" font-family="Times,serif" font-size="14.00" fill="#0058ad">w 95 16</text>
</g>
<!-- T2442&#45;&gt;T2451 -->
<g id="edge5" class="edge">
<title>T2442:f0&#45;&gt;T2451:f1</title>
<path fill="none" stroke="#5b00c0" d="M475,-243C475,-185.59 587.5,-244.82 601.56,-201.99"/>
<polygon fill="#5b00c0" stroke="#5b00c0" points="605.04,-202.4 603,-192 598.11,-201.4 605.04,-202.4"/>
<text text-anchor="middle" x="606.5" y="-213.8" font-family="Times,serif" font-size="14.00" fill="#5b00c0">rw</text>
</g>
<!-- T2438 -->
<g id="node5" class="node">
<title>T2438</title>
<polygon fill="none" stroke="#0058ad" points="905,-339.5 905,-368.5 1165,-368.5 1165,-339.5 905,-339.5"/>
<text text-anchor="middle" x="939" y="-350.3" font-family="Times,serif" font-size="14.00" fill="#0058ad">r 95 13</text>
<polyline fill="none" stroke="#0058ad" points="973,-339.5 973,-368.5 "/>
<text text-anchor="middle" x="1007" y="-350.3" font-family="Times,serif" font-size="14.00" fill="#0058ad">r 98 nil</text>
<polyline fill="none" stroke="#0058ad" points="1041,-339.5 1041,-368.5 "/>
<text text-anchor="middle" x="1073.5" y="-350.3" font-family="Times,serif" font-size="14.00" fill="#0058ad">w 99 6</text>
<polyline fill="none" stroke="#0058ad" points="1106,-339.5 1106,-368.5 "/>
<text text-anchor="middle" x="1135.5" y="-350.3" font-family="Times,serif" font-size="14.00" fill="#0058ad">r 99 6</text>
</g>
<!-- T2438&#45;&gt;T2451 -->
<g id="edge6" class="edge">
<title>T2438:f1&#45;&gt;T2451:f2</title>
<path fill="none" stroke="#5b00c0" d="M1007,-339C1007,-308.17 968.95,-331.61 940,-321 898.24,-305.7 722.88,-219.34 681.69,-197.15"/>
<polygon fill="#5b00c0" stroke="#5b00c0" points="683.39,-194.09 673,-192 679.82,-200.11 683.39,-194.09"/>
<text text-anchor="middle" x="842.5" y="-254.3" font-family="Times,serif" font-size="14.00" fill="#5b00c0">rw</text>
</g>
<!-- T2438&#45;&gt;T2416 -->
<g id="edge7" class="edge">
<title>T2438:f1&#45;&gt;T2416:f2</title>
<path fill="none" stroke="#5b00c0" d="M1007,-369C1007,-401.13 915.99,-429.89 873.99,-434.39"/>
<polygon fill="#5b00c0" stroke="#5b00c0" points="873.77,-430.9 864,-435 874.2,-437.88 873.77,-430.9"/>
<text text-anchor="middle" x="1006.5" y="-390.8" font-family="Times,serif" font-size="14.00" fill="#5b00c0">rw</text>
</g>
<!-- T2425 -->
<g id="node6" class="node">
<title>T2425</title>
<polygon fill="none" stroke="#0058ad" points="949,-291.5 949,-320.5 1091,-320.5 1091,-291.5 949,-291.5"/>
<text text-anchor="middle" x="981.5" y="-302.3" font-family="Times,serif" font-size="14.00" fill="#0058ad">w 99 2</text>
<polyline fill="none" stroke="#0058ad" points="1014,-291.5 1014,-320.5 "/>
<text text-anchor="middle" x="1052.5" y="-302.3" font-family="Times,serif" font-size="14.00" fill="#0058ad">r 100 nil</text>
</g>
<!-- T2425&#45;&gt;T2455 -->
<g id="edge8" class="edge">
<title>T2425:f1&#45;&gt;T2455:f2</title>
<path fill="none" stroke="#5b00c0" d="M1053,-291C1053,-215.83 774.79,-191.84 749.79,-121.28"/>
<polygon fill="#5b00c0" stroke="#5b00c0" points="753.17,-120.25 748,-111 746.27,-121.45 753.17,-120.25"/>
<text text-anchor="middle" x="977.5" y="-213.8" font-family="Times,serif" font-size="14.00" fill="#5b00c0">rw</text>
</g>
<!-- T2470 -->
<g id="node7" class="node">
<title>T2470</title>
<polygon fill="none" stroke="#0058ad" points="238.5,-0.5 238.5,-29.5 383.5,-29.5 383.5,-0.5 238.5,-0.5"/>
<text text-anchor="middle" x="277" y="-11.3" font-family="Times,serif" font-size="14.00" fill="#0058ad">r 102 nil</text>
<polyline fill="none" stroke="#0058ad" points="315.5,-0.5 315.5,-29.5 "/>
<text text-anchor="middle" x="349.5" y="-11.3" font-family="Times,serif" font-size="14.00" fill="#0058ad">r 100 2</text>
</g>
<!-- T2470&#45;&gt;T2478 -->
<g id="edge9" class="edge">
<title>T2470:f0&#45;&gt;T2478:f3</title>
<path fill="none" stroke="#5b00c0" d="M237,-15C201.34,-15 231,-59.34 231,-95 231,-517 231,-517 231,-517 231,-543.03 243.25,-550.5 246.31,-571.89"/>
<polygon fill="#5b00c0" stroke="#5b00c0" points="242.83,-572.26 247,-582 249.81,-571.79 242.83,-572.26"/>
<text text-anchor="middle" x="240.5" y="-302.3" font-family="Times,serif" font-size="14.00" fill="#5b00c0">rw</text>
</g>
<!-- T2470&#45;&gt;T2483 -->
<g id="edge10" class="edge">
<title>T2470:f0&#45;&gt;T2483:f3</title>
<path fill="none" stroke="#5b00c0" d="M277,-30C277,-58.89 277,-66.11 277,-95 277,-307 277,-307 277,-307 277,-447.48 419.64,-413.22 549,-468 576.63,-479.7 609.25,-469.97 616.52,-490.91"/>
<polygon fill="#5b00c0" stroke="#5b00c0" points="613.08,-491.62 618,-501 620.01,-490.6 613.08,-491.62"/>
<text text-anchor="middle" x="286.5" y="-254.3" font-family="Times,serif" font-size="14.00" fill="#5b00c0">rw</text>
</g>
<!-- T2483&#45;&gt;T2451 -->
<g id="edge11" class="edge">
<title>T2483:f0&#45;&gt;T2451:f2</title>
<path fill="none" stroke="#5b00c0" d="M423,-501C423,-494.72 865.78,-450.84 872,-450 1008.42,-431.56 1070.57,-488.09 1178,-402 1190.3,-392.14 1188.06,-384.49 1191,-369 1212.18,-257.44 1098.98,-245.15 991,-210 975.92,-205.09 732.31,-208.74 682.03,-196.8"/>
<polygon fill="#5b00c0" stroke="#5b00c0" points="683.47,-193.6 673,-192 680.19,-199.78 683.47,-193.6"/>
<text text-anchor="middle" x="1202.5" y="-350.3" font-family="Times,serif" font-size="14.00" fill="#5b00c0">rw</text>
</g>
<!-- T2483&#45;&gt;T2416 -->
<g id="edge12" class="edge">
<title>T2483:f0&#45;&gt;T2416:f2</title>
<path fill="none" stroke="#5b00c0" d="M423,-501C423,-452.93 478.75,-476.82 526,-468 540.88,-465.22 772.39,-466.55 821.06,-454.75"/>
<polygon fill="#5b00c0" stroke="#5b00c0" points="822.81,-457.78 830,-450 819.53,-451.6 822.81,-457.78"/>
<text text-anchor="middle" x="535.5" y="-471.8" font-family="Times,serif" font-size="14.00" fill="#5b00c0">rw</text>
</g>
<!-- T2455&#45;&gt;T2470 -->
<g id="edge13" class="edge">
<title>T2455:f2&#45;&gt;T2470:f1</title>
<path fill="none" stroke="#c000a5" d="M748,-81C748,-42.49 463.81,-18.09 395.4,-15.27"/>
<polygon fill="#c000a5" stroke="#c000a5" points="395.09,-11.76 385,-15 394.9,-18.76 395.09,-11.76"/>
<text text-anchor="middle" x="735.5" y="-51.8" font-family="Times,serif" font-size="14.00" fill="#c000a5">wr</text>
</g>
<!-- T2416&#45;&gt;T2451 -->
<g id="edge14" class="edge">
<title>T2416:f0&#45;&gt;T2451:f1</title>
<path fill="none" stroke="#5b00c0" d="M654,-435C617.7,-435 356.93,-397.14 334,-369 285.45,-309.42 335.92,-249.26 402,-210 418.87,-199.98 560.11,-210.88 595.15,-198.74"/>
<polygon fill="#5b00c0" stroke="#5b00c0" points="597.7,-201.17 603,-192 593.13,-195.86 597.7,-201.17"/>
<text text-anchor="middle" x="330.5" y="-302.3" font-family="Times,serif" font-size="14.00" fill="#5b00c0">rw</text>
</g>
<!-- T2416&#45;&gt;T2468 -->
<g id="edge15" class="edge">
<title>T2416:f0&#45;&gt;T2468:f1</title>
<path fill="none" stroke="#5b00c0" d="M689,-420C689,-398.7 706.8,-395.01 712.36,-379.21"/>
<polygon fill="#5b00c0" stroke="#5b00c0" points="715.87,-379.43 714,-369 708.96,-378.32 715.87,-379.43"/>
<text text-anchor="middle" x="717.5" y="-390.8" font-family="Times,serif" font-size="14.00" fill="#5b00c0">rw</text>
</g>
<!-- T2416&#45;&gt;T2438 -->
<g id="edge17" class="edge">
<title>T2416:f0&#45;&gt;T2438:f2</title>
<path fill="none" stroke="#5b00c0" d="M689,-420C689,-403.32 821.46,-404.15 838,-402 840.87,-401.63 1019.41,-379.17 1063.99,-371.35"/>
<polygon fill="#5b00c0" stroke="#5b00c0" points="1065.07,-374.69 1074,-369 1063.46,-367.88 1065.07,-374.69"/>
<text text-anchor="middle" x="959.5" y="-390.8" font-family="Times,serif" font-size="14.00" fill="#5b00c0">rw</text>
</g>
<!-- T2416&#45;&gt;T2425 -->
<g id="edge18" class="edge">
<title>T2416:f0&#45;&gt;T2425:f0</title>
<path fill="none" stroke="#5b00c0" d="M689,-420C689,-401.58 1001.75,-404.44 1020,-402 1089.38,-392.74 1129.99,-423.44 1174,-369 1182.38,-358.63 1182.98,-348.86 1174,-339 1147.6,-310.02 1009.38,-354.56 984.75,-330.33"/>
<polygon fill="#5b00c0" stroke="#5b00c0" points="987.98,-328.97 981,-321 981.49,-331.58 987.98,-328.97"/>
<text text-anchor="middle" x="1164.5" y="-390.8" font-family="Times,serif" font-size="14.00" fill="#5b00c0">rw</text>
</g>
<!-- T2439 -->
<g id="node11" class="node">
<title>T2439</title>
<polygon fill="none" stroke="#0058ad" points="343,-339.5 343,-368.5 585,-368.5 585,-339.5 343,-339.5"/>
<text text-anchor="middle" x="375.5" y="-350.3" font-family="Times,serif" font-size="14.00" fill="#0058ad">w 99 7</text>
<polyline fill="none" stroke="#0058ad" points="408,-339.5 408,-368.5 "/>
<text text-anchor="middle" x="437.5" y="-350.3" font-family="Times,serif" font-size="14.00" fill="#0058ad">r 99 7</text>
<polyline fill="none" stroke="#0058ad" points="467,-339.5 467,-368.5 "/>
<text text-anchor="middle" x="496.5" y="-350.3" font-family="Times,serif" font-size="14.00" fill="#0058ad">r 99 7</text>
<polyline fill="none" stroke="#0058ad" points="526,-339.5 526,-368.5 "/>
<text text-anchor="middle" x="555.5" y="-350.3" font-family="Times,serif" font-size="14.00" fill="#0058ad">r 98 3</text>
</g>
<!-- T2416&#45;&gt;T2439 -->
<g id="edge16" class="edge">
<title>T2416:f2&#45;&gt;T2439:f3</title>
<path fill="none" stroke="#c000a5" d="M830,-420C830,-419.63 730.36,-387.08 730,-387 670.57,-373.39 644.11,-403.74 594,-369 591.87,-367.52 591.15,-365.29 590.81,-362.99"/>
<polygon fill="#c000a5" stroke="#c000a5" points="593.81,-361.16 586,-354 587.64,-364.47 593.81,-361.16"/>
<text text-anchor="middle" x="783.5" y="-390.8" font-family="Times,serif" font-size="14.00" fill="#c000a5">wr</text>
</g>
<!-- T2439&#45;&gt;T2451 -->
<g id="edge19" class="edge">
<title>T2439:f0&#45;&gt;T2451:f0</title>
<path fill="none" stroke="#c000a5" d="M375,-339C375,-249.84 410.61,-182.18 495.91,-177.28"/>
<polygon fill="#c000a5" stroke="#c000a5" points="496.1,-180.78 506,-177 495.91,-173.78 496.1,-180.78"/>
<text text-anchor="middle" x="403.5" y="-254.3" font-family="Times,serif" font-size="14.00" fill="#c000a5">wr</text>
</g>
<!-- T2439&#45;&gt;T2442 -->
<g id="edge20" class="edge">
<title>T2439:f0&#45;&gt;T2442:f0</title>
<path fill="none" stroke="#c000a5" d="M375,-339C375,-323.45 391.92,-329.4 405,-321 433.52,-302.69 467.3,-308.99 473.86,-283.1"/>
<polygon fill="#c000a5" stroke="#c000a5" points="477.36,-283.33 475,-273 470.4,-282.55 477.36,-283.33"/>
<text text-anchor="middle" x="479.5" y="-302.3" font-family="Times,serif" font-size="14.00" fill="#c000a5">wr</text>
</g>
</g>
</svg>
