<?xml version="1.0" encoding="UTF-8" standalone="no"?>
<!DOCTYPE svg PUBLIC "-//W3C//DTD SVG 1.1//EN"
 "http://www.w3.org/Graphics/SVG/1.1/DTD/svg11.dtd">
<!-- Generated by graphviz version 2.43.0 (0)
 -->
<!-- Title: a_graph Pages: 1 -->
<svg width="240pt" height="119pt"
 viewBox="0.00 0.00 239.50 119.00" xmlns="http://www.w3.org/2000/svg" xmlns:xlink="http://www.w3.org/1999/xlink">
<g id="graph0" class="graph" transform="scale(1 1) rotate(0) translate(4 115)">
<title>a_graph</title>
<polygon fill="white" stroke="transparent" points="-4,4 -4,-115 235.5,-115 235.5,4 -4,4"/>
<!-- T12435 -->
<g id="node1" class="node">
<title>T12435</title>
<polygon fill="none" stroke="#0058ad" points="0,-81.5 0,-110.5 228,-110.5 228,-81.5 0,-81.5"/>
<text text-anchor="middle" x="38.5" y="-92.3" font-family="Times,serif" font-size="14.00" fill="#0058ad">r 476 10</text>
<polyline fill="none" stroke="#0058ad" points="77,-81.5 77,-110.5 "/>
<text text-anchor="middle" x="115.5" y="-92.3" font-family="Times,serif" font-size="14.00" fill="#0058ad">r 480 nil</text>
<polyline fill="none" stroke="#0058ad" points="154,-81.5 154,-110.5 "/>
<text text-anchor="middle" x="191" y="-92.3" font-family="Times,serif" font-size="14.00" fill="#0058ad">w 480 1</text>
</g>
<!-- T12442 -->
<g id="node2" class="node">
<title>T12442</title>
<polygon fill="none" stroke="#0058ad" points="80.5,-0.5 80.5,-29.5 231.5,-29.5 231.5,-0.5 80.5,-0.5"/>
<text text-anchor="middle" x="119" y="-11.3" font-family="Times,serif" font-size="14.00" fill="#0058ad">r 480 nil</text>
<polyline fill="none" stroke="#0058ad" points="157.5,-0.5 157.5,-29.5 "/>
<text text-anchor="middle" x="194.5" y="-11.3" font-family="Times,serif" font-size="14.00" fill="#0058ad">w 480 2</text>
</g>
<!-- T12435&#45;&gt;T12442 -->
<g id="edge1" class="edge">
<title>T12435:f1&#45;&gt;T12442:f1</title>
<path fill="none" stroke="#5b00c0" d="M116,-81C116,-62.6 126.05,-58.72 141,-48 157.7,-36.02 182.91,-48.33 191.78,-39.79"/>
<polygon fill="#5b00c0" stroke="#5b00c0" points="195.2,-40.59 195,-30 188.55,-38.41 195.2,-40.59"/>
<text text-anchor="middle" x="150.5" y="-51.8" font-family="Times,serif" font-size="14.00" fill="#5b00c0">rw</text>
</g>
<!-- T12442&#45;&gt;T12435 -->
<g id="edge2" class="edge">
<title>T12442:f0&#45;&gt;T12435:f2</title>
<path fill="none" stroke="#5b00c0" d="M119,-30C119,-49.9 143.75,-36.52 160,-48 173.1,-57.25 185.01,-59.94 189.3,-70.83"/>
<polygon fill="#5b00c0" stroke="#5b00c0" points="185.9,-71.71 191,-81 192.81,-70.56 185.9,-71.71"/>
<text text-anchor="middle" x="193.5" y="-51.8" font-family="Times,serif" font-size="14.00" fill="#5b00c0">rw</text>
</g>
</g>
</svg>
