<?xml version="1.0" encoding="UTF-8" standalone="no"?>
<!DOCTYPE svg PUBLIC "-//W3C//DTD SVG 1.1//EN"
 "http://www.w3.org/Graphics/SVG/1.1/DTD/svg11.dtd">
<!-- Generated by graphviz version 2.43.0 (0)
 -->
<!-- Title: a_graph Pages: 1 -->
<svg width="426pt" height="281pt"
 viewBox="0.00 0.00 426.00 281.00" xmlns="http://www.w3.org/2000/svg" xmlns:xlink="http://www.w3.org/1999/xlink">
<g id="graph0" class="graph" transform="scale(1 1) rotate(0) translate(4 277)">
<title>a_graph</title>
<polygon fill="white" stroke="transparent" points="-4,4 -4,-277 422,-277 422,4 -4,4"/>
<!-- T19509 -->
<g id="node1" class="node">
<title>T19509</title>
<polygon fill="none" stroke="#0058ad" points="0,-243.5 0,-272.5 287,-272.5 287,-243.5 0,-243.5"/>
<text text-anchor="middle" x="38.5" y="-254.3" font-family="Times,serif" font-size="14.00" fill="#0058ad">r 748 nil</text>
<polyline fill="none" stroke="#0058ad" points="77,-243.5 77,-272.5 "/>
<text text-anchor="middle" x="114" y="-254.3" font-family="Times,serif" font-size="14.00" fill="#0058ad">w 746 4</text>
<polyline fill="none" stroke="#0058ad" points="151,-243.5 151,-272.5 "/>
<text text-anchor="middle" x="185" y="-254.3" font-family="Times,serif" font-size="14.00" fill="#0058ad">r 746 4</text>
<polyline fill="none" stroke="#0058ad" points="219,-243.5 219,-272.5 "/>
<text text-anchor="middle" x="253" y="-254.3" font-family="Times,serif" font-size="14.00" fill="#0058ad">r 746 4</text>
</g>
<!-- T19508 -->
<g id="node3" class="node">
<title>T19508</title>
<polygon fill="none" stroke="#0058ad" points="113,-162.5 113,-191.5 418,-191.5 418,-162.5 113,-162.5"/>
<text text-anchor="middle" x="151.5" y="-173.3" font-family="Times,serif" font-size="14.00" fill="#0058ad">r 746 nil</text>
<polyline fill="none" stroke="#0058ad" points="190,-162.5 190,-191.5 "/>
<text text-anchor="middle" x="228.5" y="-173.3" font-family="Times,serif" font-size="14.00" fill="#0058ad">r 746 nil</text>
<polyline fill="none" stroke="#0058ad" points="267,-162.5 267,-191.5 "/>
<text text-anchor="middle" x="305.5" y="-173.3" font-family="Times,serif" font-size="14.00" fill="#0058ad">r 746 nil</text>
<polyline fill="none" stroke="#0058ad" points="344,-162.5 344,-191.5 "/>
<text text-anchor="middle" x="381" y="-173.3" font-family="Times,serif" font-size="14.00" fill="#0058ad">w 748 1</text>
</g>
<!-- T19509&#45;&gt;T19508 -->
<g id="edge1" class="edge">
<title>T19509:f0&#45;&gt;T19508:f3</title>
<path fill="none" stroke="#5b00c0" d="M38.5,-243C38.5,-219.8 66.76,-235.4 87.5,-225 98.41,-219.53 98.92,-213.86 110.5,-210 136.27,-201.4 335.34,-218.16 374.74,-199.55"/>
<polygon fill="#5b00c0" stroke="#5b00c0" points="377.44,-201.79 381.5,-192 372.22,-197.12 377.44,-201.79"/>
<text text-anchor="middle" x="120" y="-213.8" font-family="Times,serif" font-size="14.00" fill="#5b00c0">rw</text>
</g>
<!-- T19514 -->
<g id="node2" class="node">
<title>T19514</title>
<polygon fill="none" stroke="#0058ad" points="40,-0.5 40,-29.5 259,-29.5 259,-0.5 40,-0.5"/>
<text text-anchor="middle" x="78.5" y="-11.3" font-family="Times,serif" font-size="14.00" fill="#0058ad">r 746 nil</text>
<polyline fill="none" stroke="#0058ad" points="117,-0.5 117,-29.5 "/>
<text text-anchor="middle" x="154" y="-11.3" font-family="Times,serif" font-size="14.00" fill="#0058ad">w 746 5</text>
<polyline fill="none" stroke="#0058ad" points="191,-0.5 191,-29.5 "/>
<text text-anchor="middle" x="225" y="-11.3" font-family="Times,serif" font-size="14.00" fill="#0058ad">r 746 5</text>
</g>
<!-- T19514&#45;&gt;T19509 -->
<g id="edge2" class="edge">
<title>T19514:f0&#45;&gt;T19509:f1</title>
<path fill="none" stroke="#5b00c0" d="M38.5,-15C-4.45,-15 18.69,-68.97 27.5,-111 38.85,-165.15 39.38,-184.91 77.5,-225 86.36,-234.32 101.08,-230.3 108.66,-233.94"/>
<polygon fill="#5b00c0" stroke="#5b00c0" points="105.7,-235.83 113.5,-243 111.87,-232.53 105.7,-235.83"/>
<text text-anchor="middle" x="44" y="-132.8" font-family="Times,serif" font-size="14.00" fill="#5b00c0">rw</text>
</g>
<!-- T19496 -->
<g id="node4" class="node">
<title>T19496</title>
<polygon fill="none" stroke="#0058ad" points="37,-81.5 37,-110.5 188,-110.5 188,-81.5 37,-81.5"/>
<text text-anchor="middle" x="75.5" y="-92.3" font-family="Times,serif" font-size="14.00" fill="#0058ad">r 746 nil</text>
<polyline fill="none" stroke="#0058ad" points="114,-81.5 114,-110.5 "/>
<text text-anchor="middle" x="151" y="-92.3" font-family="Times,serif" font-size="14.00" fill="#0058ad">w 746 1</text>
</g>
<!-- T19514&#45;&gt;T19496 -->
<g id="edge3" class="edge">
<title>T19514:f0&#45;&gt;T19496:f1</title>
<path fill="none" stroke="#5b00c0" d="M78.5,-30C78.5,-44.79 94.31,-39.62 106.5,-48 123.59,-59.74 143.55,-57.58 149.64,-71.04"/>
<polygon fill="#5b00c0" stroke="#5b00c0" points="146.23,-71.81 151.5,-81 153.11,-70.53 146.23,-71.81"/>
<text text-anchor="middle" x="151" y="-51.8" font-family="Times,serif" font-size="14.00" fill="#5b00c0">rw</text>
</g>
<!-- T19508&#45;&gt;T19509 -->
<g id="edge4" class="edge">
<title>T19508:f0&#45;&gt;T19509:f1</title>
<path fill="none" stroke="#5b00c0" d="M151.5,-192C151.5,-209.63 140.27,-211.05 129.5,-225 125.82,-229.77 121.22,-231.48 117.9,-233.97"/>
<polygon fill="#5b00c0" stroke="#5b00c0" points="114.73,-232.48 113.5,-243 121.02,-235.54 114.73,-232.48"/>
<text text-anchor="middle" x="153" y="-213.8" font-family="Times,serif" font-size="14.00" fill="#5b00c0">rw</text>
</g>
<!-- T19508&#45;&gt;T19514 -->
<g id="edge6" class="edge">
<title>T19508:f0&#45;&gt;T19514:f1</title>
<path fill="none" stroke="#5b00c0" d="M151.5,-162C151.5,-149.02 165.58,-153.43 174.5,-144 186.79,-131.01 192.14,-128.06 197.5,-111 201.5,-98.28 202.08,-93.52 197.5,-81 193.41,-69.8 168.06,-53.2 158.31,-39.42"/>
<polygon fill="#5b00c0" stroke="#5b00c0" points="161.5,-37.96 154.5,-30 155.01,-40.58 161.5,-37.96"/>
<text text-anchor="middle" x="210" y="-92.3" font-family="Times,serif" font-size="14.00" fill="#5b00c0">rw</text>
</g>
<!-- T19508&#45;&gt;T19496 -->
<g id="edge5" class="edge">
<title>T19508:f0&#45;&gt;T19496:f1</title>
<path fill="none" stroke="#5b00c0" d="M151.5,-162C151.5,-143.23 151.5,-136.12 151.5,-121.35"/>
<polygon fill="#5b00c0" stroke="#5b00c0" points="155,-121 151.5,-111 148,-121 155,-121"/>
<text text-anchor="middle" x="161" y="-132.8" font-family="Times,serif" font-size="14.00" fill="#5b00c0">rw</text>
</g>
<!-- T19496&#45;&gt;T19509 -->
<g id="edge7" class="edge">
<title>T19496:f0&#45;&gt;T19509:f1</title>
<path fill="none" stroke="#5b00c0" d="M75.5,-111C75.5,-162.05 63.93,-180.82 89.5,-225 93.67,-232.21 102.01,-232.23 107.67,-234.49"/>
<polygon fill="#5b00c0" stroke="#5b00c0" points="104.96,-236.73 113.5,-243 110.73,-232.77 104.96,-236.73"/>
<text text-anchor="middle" x="84" y="-173.3" font-family="Times,serif" font-size="14.00" fill="#5b00c0">rw</text>
</g>
<!-- T19496&#45;&gt;T19514 -->
<g id="edge8" class="edge">
<title>T19496:f0&#45;&gt;T19514:f1</title>
<path fill="none" stroke="#5b00c0" d="M75.5,-81C75.5,-65.91 72.88,-58.73 83.5,-48 103.18,-28.11 141.47,-53.16 151.85,-39.93"/>
<polygon fill="#5b00c0" stroke="#5b00c0" points="155.3,-40.56 154.5,-30 148.54,-38.76 155.3,-40.56"/>
<text text-anchor="middle" x="93" y="-51.8" font-family="Times,serif" font-size="14.00" fill="#5b00c0">rw</text>
</g>
</g>
</svg>
