<?xml version="1.0" encoding="UTF-8" standalone="no"?>
<!DOCTYPE svg PUBLIC "-//W3C//DTD SVG 1.1//EN"
 "http://www.w3.org/Graphics/SVG/1.1/DTD/svg11.dtd">
<!-- Generated by graphviz version 2.43.0 (0)
 -->
<!-- Title: a_graph Pages: 1 -->
<svg width="292pt" height="119pt"
 viewBox="0.00 0.00 292.00 119.00" xmlns="http://www.w3.org/2000/svg" xmlns:xlink="http://www.w3.org/1999/xlink">
<g id="graph0" class="graph" transform="scale(1 1) rotate(0) translate(4 115)">
<title>a_graph</title>
<polygon fill="white" stroke="transparent" points="-4,4 -4,-115 288,-115 288,4 -4,4"/>
<!-- T1588 -->
<g id="node1" class="node">
<title>T1588</title>
<polygon fill="none" stroke="#0058ad" points="0,-81.5 0,-110.5 266,-110.5 266,-81.5 0,-81.5"/>
<text text-anchor="middle" x="34" y="-92.3" font-family="Times,serif" font-size="14.00" fill="#0058ad">r 67 nil</text>
<polyline fill="none" stroke="#0058ad" points="68,-81.5 68,-110.5 "/>
<text text-anchor="middle" x="102" y="-92.3" font-family="Times,serif" font-size="14.00" fill="#0058ad">r 67 nil</text>
<polyline fill="none" stroke="#0058ad" points="136,-81.5 136,-110.5 "/>
<text text-anchor="middle" x="168.5" y="-92.3" font-family="Times,serif" font-size="14.00" fill="#0058ad">w 67 2</text>
<polyline fill="none" stroke="#0058ad" points="201,-81.5 201,-110.5 "/>
<text text-anchor="middle" x="233.5" y="-92.3" font-family="Times,serif" font-size="14.00" fill="#0058ad">w 66 7</text>
</g>
<!-- T1581 -->
<g id="node2" class="node">
<title>T1581</title>
<polygon fill="none" stroke="#0058ad" points="12,-0.5 12,-29.5 284,-29.5 284,-0.5 12,-0.5"/>
<text text-anchor="middle" x="46" y="-11.3" font-family="Times,serif" font-size="14.00" fill="#0058ad">r 67 nil</text>
<polyline fill="none" stroke="#0058ad" points="80,-0.5 80,-29.5 "/>
<text text-anchor="middle" x="112.5" y="-11.3" font-family="Times,serif" font-size="14.00" fill="#0058ad">w 67 1</text>
<polyline fill="none" stroke="#0058ad" points="145,-0.5 145,-29.5 "/>
<text text-anchor="middle" x="182" y="-11.3" font-family="Times,serif" font-size="14.00" fill="#0058ad">w 51 13</text>
<polyline fill="none" stroke="#0058ad" points="219,-0.5 219,-29.5 "/>
<text text-anchor="middle" x="251.5" y="-11.3" font-family="Times,serif" font-size="14.00" fill="#0058ad">w 66 4</text>
</g>
<!-- T1588&#45;&gt;T1581 -->
<g id="edge1" class="edge">
<title>T1588:f0&#45;&gt;T1581:f1</title>
<path fill="none" stroke="#5b00c0" d="M34,-81C34,-55.11 60.22,-62 82,-48 90.99,-42.22 101.8,-43.23 107.68,-39.37"/>
<polygon fill="#5b00c0" stroke="#5b00c0" points="110.99,-40.55 112,-30 104.63,-37.61 110.99,-40.55"/>
<text text-anchor="middle" x="91.5" y="-51.8" font-family="Times,serif" font-size="14.00" fill="#5b00c0">rw</text>
</g>
<!-- T1581&#45;&gt;T1588 -->
<g id="edge2" class="edge">
<title>T1581:f0&#45;&gt;T1588:f2</title>
<path fill="none" stroke="#5b00c0" d="M46,-30C46,-55.72 77.15,-38.36 101,-48 128.5,-59.11 160.44,-50.14 167.55,-71"/>
<polygon fill="#5b00c0" stroke="#5b00c0" points="164.1,-71.61 169,-81 171.03,-70.6 164.1,-71.61"/>
<text text-anchor="middle" x="170.5" y="-51.8" font-family="Times,serif" font-size="14.00" fill="#5b00c0">rw</text>
</g>
</g>
</svg>
