<?xml version="1.0" encoding="UTF-8"?><svg xmlns:svg="http://www.w3.org/2000/svg" xmlns="http://www.w3.org/2000/svg" xmlns:xlink="http://www.w3.org/1999/xlink" version="2.0" width="1200" height="780" ><style >
svg {
  font-family: Helvetica, Arial, sans-serif;
  font-size: 11px;
}
rect {
  stroke-linecap: butt;
  stroke-width: 3;
  stroke: #fff;
/*  stroke-opacity: 1; */
}
rect:hover {
  stroke: #fff;
/*  stroke-opacity: 1; /*
}
polygon { fill: #000; }</style><defs ><polygon id="ahead" points="0 0, -12 4, -12 -4" /><filter id="glow" x="0" y="0" ><feGaussianBlur in="SourceAlpha" stdDeviation="2" result="blurred" /><feFlood flood-color="#fff" /><feComposite operator="in" in2="blurred" /><feComponentTransfer ><feFuncA type="linear" slope="10" intercept="0" /></feComponentTransfer><feMerge ><feMergeNode /><feMergeNode in="SourceGraphic" /></feMerge></filter></defs><g ><text x="200.0" y="20.0" text-anchor="middle" alignment-baseline="middle" fill="#000" >c2</text><text x="600.0" y="20.0" text-anchor="middle" alignment-baseline="middle" fill="#000" >c3</text><text x="1000.0" y="20.0" text-anchor="middle" alignment-baseline="middle" fill="#000" >n0</text></g><g ><line stroke="#ccc" x1="200.0" y1="30.0" x2="200.0" y2="690.0" /><line stroke="#ccc" x1="600.0" y1="30.0" x2="600.0" y2="690.0" /><line stroke="#ccc" x1="1000.0" y1="30.0" x2="1000.0" y2="690.0" /></g><g ><g transform="translate(200.0 50.0) rotate(2.862405226111748) " ><rect x="0" y="-2.5" height="5" width="796.9993757800314" fill="#81BFFC" ><title >c2 → n0 {:txn [["r" 9 nil] ["w" 9 1]], :type "txn", :msg_id 1}</title></rect><use xlink:href="#ahead" x="800.9993757800314" y="0" /><text text-anchor="middle" x="400.4996878900157" y="-4" transform="" filter="url(#glow)" style="fill: #fff" >txn {:txn [["r" 9 nil] ["w" 9 1]]}</text><text text-anchor="middle" x="400.4996878900157" y="-4" transform="" >txn {:txn [["r" 9 nil] ["w" 9 1]]}</text></g><g transform="translate(600.0 70.0) rotate(5.710593137499643) " ><rect x="0" y="-2.5" height="5" width="397.9950248448356" fill="#81BFFC" ><title >c3 → n0 {:txn [["w" 8 1] ["r" 6 nil]], :type "txn", :msg_id 1}</title></rect><use xlink:href="#ahead" x="401.9950248448356" y="0" /><text text-anchor="middle" x="200.9975124224178" y="-4" transform="" filter="url(#glow)" style="fill: #fff" >txn {:txn [["w" 8 1] ["r" 6 nil]]}</text><text text-anchor="middle" x="200.9975124224178" y="-4" transform="" >txn {:txn [["w" 8 1] ["r" 6 nil]]}</text></g><g transform="translate(1000.0 130.0) rotate(178.56790381583536) " ><rect x="0" y="-2.5" height="5" width="796.2499609497023" fill="#81BFFC" ><title >n0 → c2 {:msg_id 2, :in_reply_to 2, :type "txn_ok", :txn [["r" 9 nil] ["w" 9 1]]}</title></rect><use xlink:href="#ahead" x="800.2499609497023" y="0" /><text text-anchor="middle" x="400.12498047485116" y="-4" transform="rotate(180 400.12498047485116 0)" filter="url(#glow)" style="fill: #fff" >txn_ok {:txn [["r" 9 nil] ["w" 9 1]]}</text><text text-anchor="middle" x="400.12498047485116" y="-4" transform="rotate(180 400.12498047485116 0)" >txn_ok {:txn [["r" 9 nil] ["w" 9 1]]}</text></g><g transform="translate(1000.0 170.0) rotate(177.13759477388828) " ><rect x="0" y="-2.5" height="5" width="396.4996878900157" fill="#81BFFC" ><title >n0 → c3 {:msg_id 3, :in_reply_to 3, :type "txn_ok", :txn [["w" 8 1] ["r" 6 nil]]}</title></rect><use xlink:href="#ahead" x="400.4996878900157" y="0" /><text text-anchor="middle" x="200.24984394500785" y="-4" transform="rotate(180 200.24984394500785 0)" filter="url(#glow)" style="fill: #fff" >txn_ok {:txn [["w" 8 1] ["r" 6 nil]]}</text><text text-anchor="middle" x="200.24984394500785" y="-4" transform="rotate(180 200.24984394500785 0)" >txn_ok {:txn [["w" 8 1] ["r" 6 nil]]}</text></g><g transform="translate(600.0 210.0) rotate(2.862405226111748) " ><rect x="0" y="-2.5" height="5" width="396.4996878900157" fill="#81BFFC" ><title >c3 → n0 {:txn [["w" 8 2]], :type "txn", :msg_id 2}</title></rect><use xlink:href="#ahead" x="400.4996878900157" y="0" /><text text-anchor="middle" x="200.24984394500785" y="-4" transform="" filter="url(#glow)" style="fill: #fff" >txn {:txn [["w" 8 2]]}</text><text text-anchor="middle" x="200.24984394500785" y="-4" transform="" >txn {:txn [["w" 8 2]]}</text></g><g transform="translate(1000.0 250.0) rotate(177.13759477388828) " ><rect x="0" y="-2.5" height="5" width="396.4996878900157" fill="#81BFFC" ><title >n0 → c3 {:msg_id 4, :in_reply_to 4, :type "txn_ok", :txn [["w" 8 2]]}</title></rect><use xlink:href="#ahead" x="400.4996878900157" y="0" /><text text-anchor="middle" x="200.24984394500785" y="-4" transform="rotate(180 200.24984394500785 0)" filter="url(#glow)" style="fill: #fff" >txn_ok {:txn [["w" 8 2]]}</text><text text-anchor="middle" x="200.24984394500785" y="-4" transform="rotate(180 200.24984394500785 0)" >txn_ok {:txn [["w" 8 2]]}</text></g><g transform="translate(200.0 290.0) rotate(1.4320961841646465) " ><rect x="0" y="-2.5" height="5" width="796.2499609497023" fill="#81BFFC" ><title >c2 → n0 {:txn [["r" 7 nil] ["w" 9 2] ["r" 8 nil]], :type "txn", :msg_id 2}</title></rect><use xlink:href="#ahead" x="800.2499609497023" y="0" /><text text-anchor="middle" x="400.12498047485116" y="-4" transform="" filter="url(#glow)" style="fill: #fff" >txn {:txn [["r" 7 nil] ["w" 9 2] ["r" 8 nil]]}</text><text text-anchor="middle" x="400.12498047485116" y="-4" transform="" >txn {:txn [["r" 7 nil] ["w" 9 2] ["r" 8 nil]]}</text></g><g transform="translate(1000.0 330.0) rotate(178.56790381583536) " ><rect x="0" y="-2.5" height="5" width="796.2499609497023" fill="#81BFFC" ><title >n0 → c2 {:msg_id 5, :in_reply_to 5, :type "txn_ok", :txn [["r" 7 nil] ["w" 9 2] ["r" 8 2]]}</title></rect><use xlink:href="#ahead" x="800.2499609497023" y="0" /><text text-anchor="middle" x="400.12498047485116" y="-4" transform="rotate(180 400.12498047485116 0)" filter="url(#glow)" style="fill: #fff" >txn_ok {:txn [["r" 7 nil] ["w" 9 2] ["r" 8 2]]}</text><text text-anchor="middle" x="400.12498047485116" y="-4" transform="rotate(180 400.12498047485116 0)" >txn_ok {:txn [["r" 7 nil] ["w" 9 2] ["r" 8 2]]}</text></g><g transform="translate(600.0 370.0) rotate(2.862405226111748) " ><rect x="0" y="-2.5" height="5" width="396.4996878900157" fill="#81BFFC" ><title >c3 → n0 {:txn [["w" 9 3] ["w" 9 4] ["w" 8 3] ["w" 9 5]], :type "txn", :msg_id 3}</title></rect><use xlink:href="#ahead" x="400.4996878900157" y="0" /><text text-anchor="middle" x="200.24984394500785" y="-4" transform="" filter="url(#glow)" style="fill: #fff" >txn {:txn [["w" 9 3] ["w" 9 4] ["w" 8 3] ["w" 9…</text><text text-anchor="middle" x="200.24984394500785" y="-4" transform="" >txn {:txn [["w" 9 3] ["w" 9 4] ["w" 8 3] ["w" 9…</text></g><g transform="translate(1000.0 410.0) rotate(177.13759477388828) " ><rect x="0" y="-2.5" height="5" width="396.4996878900157" fill="#81BFFC" ><title >n0 → c3 {:msg_id 6, :in_reply_to 6, :type "txn_ok", :txn [["w" 9 3] ["w" 9 4] ["w" 8 3] ["w" 9 5]]}</title></rect><use xlink:href="#ahead" x="400.4996878900157" y="0" /><text text-anchor="middle" x="200.24984394500785" y="-4" transform="rotate(180 200.24984394500785 0)" filter="url(#glow)" style="fill: #fff" >txn_ok {:txn [["w" 9 3] ["w" 9 4] ["w" 8 3] ["w…</text><text text-anchor="middle" x="200.24984394500785" y="-4" transform="rotate(180 200.24984394500785 0)" >txn_ok {:txn [["w" 9 3] ["w" 9 4] ["w" 8 3] ["w…</text></g><g transform="translate(200.0 450.0) rotate(1.4320961841646465) " ><rect x="0" y="-2.5" height="5" width="796.2499609497023" fill="#81BFFC" ><title >c2 → n0 {:txn [["r" 9 nil] ["w" 9 6] ["w" 9 7]], :type "txn", :msg_id 3}</title></rect><use xlink:href="#ahead" x="800.2499609497023" y="0" /><text text-anchor="middle" x="400.12498047485116" y="-4" transform="" filter="url(#glow)" style="fill: #fff" >txn {:txn [["r" 9 nil] ["w" 9 6] ["w" 9 7]]}</text><text text-anchor="middle" x="400.12498047485116" y="-4" transform="" >txn {:txn [["r" 9 nil] ["w" 9 6] ["w" 9 7]]}</text></g><g transform="translate(1000.0 490.0) rotate(178.56790381583536) " ><rect x="0" y="-2.5" height="5" width="796.2499609497023" fill="#81BFFC" ><title >n0 → c2 {:msg_id 7, :in_reply_to 7, :type "txn_ok", :txn [["r" 9 5] ["w" 9 6] ["w" 9 7]]}</title></rect><use xlink:href="#ahead" x="800.2499609497023" y="0" /><text text-anchor="middle" x="400.12498047485116" y="-4" transform="rotate(180 400.12498047485116 0)" filter="url(#glow)" style="fill: #fff" >txn_ok {:txn [["r" 9 5] ["w" 9 6] ["w" 9 7]]}</text><text text-anchor="middle" x="400.12498047485116" y="-4" transform="rotate(180 400.12498047485116 0)" >txn_ok {:txn [["r" 9 5] ["w" 9 6] ["w" 9 7]]}</text></g><g transform="translate(600.0 530.0) rotate(5.710593137499643) " ><rect x="0" y="-2.5" height="5" width="397.9950248448356" fill="#81BFFC" ><title >c3 → n0 {:txn [["r" 8 nil] ["w" 9 8] ["r" 9 nil]], :type "txn", :msg_id 4}</title></rect><use xlink:href="#ahead" x="401.9950248448356" y="0" /><text text-anchor="middle" x="200.9975124224178" y="-4" transform="" filter="url(#glow)" style="fill: #fff" >txn {:txn [["r" 8 nil] ["w" 9 8] ["r" 9 nil]]}</text><text text-anchor="middle" x="200.9975124224178" y="-4" transform="" >txn {:txn [["r" 8 nil] ["w" 9 8] ["r" 9 nil]]}</text></g><g transform="translate(200.0 550.0) rotate(2.862405226111748) " ><rect x="0" y="-2.5" height="5" width="796.9993757800314" fill="#81BFFC" ><title >c2 → n0 {:txn [["w" 9 9] ["w" 6 1]], :type "txn", :msg_id 4}</title></rect><use xlink:href="#ahead" x="800.9993757800314" y="0" /><text text-anchor="middle" x="400.4996878900157" y="-4" transform="" filter="url(#glow)" style="fill: #fff" >txn {:txn [["w" 9 9] ["w" 6 1]]}</text><text text-anchor="middle" x="400.4996878900157" y="-4" transform="" >txn {:txn [["w" 9 9] ["w" 6 1]]}</text></g><g transform="translate(1000.0 610.0) rotate(177.13759477388828) " ><rect x="0" y="-2.5" height="5" width="396.4996878900157" fill="#81BFFC" ><title >n0 → c3 {:msg_id 8, :in_reply_to 8, :type "txn_ok", :txn [["r" 8 3] ["w" 9 8] ["r" 9 8]]}</title></rect><use xlink:href="#ahead" x="400.4996878900157" y="0" /><text text-anchor="middle" x="200.24984394500785" y="-4" transform="rotate(180 200.24984394500785 0)" filter="url(#glow)" style="fill: #fff" >txn_ok {:txn [["r" 8 3] ["w" 9 8] ["r" 9 8]]}</text><text text-anchor="middle" x="200.24984394500785" y="-4" transform="rotate(180 200.24984394500785 0)" >txn_ok {:txn [["r" 8 3] ["w" 9 8] ["r" 9 8]]}</text></g><g transform="translate(1000.0 650.0) rotate(178.56790381583536) " ><rect x="0" y="-2.5" height="5" width="796.2499609497023" fill="#81BFFC" ><title >n0 → c2 {:msg_id 9, :in_reply_to 9, :type "txn_ok", :txn [["w" 9 9] ["w" 6 1]]}</title></rect><use xlink:href="#ahead" x="800.2499609497023" y="0" /><text text-anchor="middle" x="400.12498047485116" y="-4" transform="rotate(180 400.12498047485116 0)" filter="url(#glow)" style="fill: #fff" >txn_ok {:txn [["w" 9 9] ["w" 6 1]]}</text><text text-anchor="middle" x="400.12498047485116" y="-4" transform="rotate(180 400.12498047485116 0)" >txn_ok {:txn [["w" 9 9] ["w" 6 1]]}</text></g></g></svg>