<?xml version="1.0" encoding="UTF-8" standalone="no"?>
<!DOCTYPE svg PUBLIC "-//W3C//DTD SVG 1.1//EN"
 "http://www.w3.org/Graphics/SVG/1.1/DTD/svg11.dtd">
<!-- Generated by graphviz version 2.43.0 (0)
 -->
<!-- Title: a_graph Pages: 1 -->
<svg width="624pt" height="443pt"
 viewBox="0.00 0.00 623.50 443.00" xmlns="http://www.w3.org/2000/svg" xmlns:xlink="http://www.w3.org/1999/xlink">
<g id="graph0" class="graph" transform="scale(1 1) rotate(0) translate(4 439)">
<title>a_graph</title>
<polygon fill="white" stroke="transparent" points="-4,4 -4,-439 619.5,-439 619.5,4 -4,4"/>
<!-- T25157 -->
<g id="node1" class="node">
<title>T25157</title>
<polygon fill="none" stroke="#0058ad" points="0,-405.5 0,-434.5 74,-434.5 74,-405.5 0,-405.5"/>
<text text-anchor="middle" x="37" y="-416.3" font-family="Times,serif" font-size="14.00" fill="#0058ad">w 959 2</text>
</g>
<!-- T25193 -->
<g id="node5" class="node">
<title>T25193</title>
<polygon fill="none" stroke="#0058ad" points="49.5,-324.5 49.5,-353.5 360.5,-353.5 360.5,-324.5 49.5,-324.5"/>
<text text-anchor="middle" x="83.5" y="-335.3" font-family="Times,serif" font-size="14.00" fill="#0058ad">r 959 2</text>
<polyline fill="none" stroke="#0058ad" points="117.5,-324.5 117.5,-353.5 "/>
<text text-anchor="middle" x="156" y="-335.3" font-family="Times,serif" font-size="14.00" fill="#0058ad">r 957 nil</text>
<polyline fill="none" stroke="#0058ad" points="194.5,-324.5 194.5,-353.5 "/>
<text text-anchor="middle" x="236" y="-335.3" font-family="Times,serif" font-size="14.00" fill="#0058ad">w 958 10</text>
<polyline fill="none" stroke="#0058ad" points="277.5,-324.5 277.5,-353.5 "/>
<text text-anchor="middle" x="319" y="-335.3" font-family="Times,serif" font-size="14.00" fill="#0058ad">w 958 11</text>
</g>
<!-- T25157&#45;&gt;T25193 -->
<g id="edge1" class="edge">
<title>T25157:f0&#45;&gt;T25193:f0</title>
<path fill="none" stroke="#c000a5" d="M54.92,-405.46C65.71,-395.25 78.08,-380.5 81.85,-363.94"/>
<polygon fill="#c000a5" stroke="#c000a5" points="85.33,-364.34 83,-354 78.38,-363.53 85.33,-364.34"/>
<text text-anchor="middle" x="89.5" y="-375.8" font-family="Times,serif" font-size="14.00" fill="#c000a5">wr</text>
</g>
<!-- T25143 -->
<g id="node2" class="node">
<title>T25143</title>
<polygon fill="none" stroke="#0058ad" points="310.5,-0.5 310.5,-29.5 615.5,-29.5 615.5,-0.5 310.5,-0.5"/>
<text text-anchor="middle" x="352" y="-11.3" font-family="Times,serif" font-size="14.00" fill="#0058ad">w 955 16</text>
<polyline fill="none" stroke="#0058ad" points="393.5,-0.5 393.5,-29.5 "/>
<text text-anchor="middle" x="432" y="-11.3" font-family="Times,serif" font-size="14.00" fill="#0058ad">r 959 nil</text>
<polyline fill="none" stroke="#0058ad" points="470.5,-0.5 470.5,-29.5 "/>
<text text-anchor="middle" x="509" y="-11.3" font-family="Times,serif" font-size="14.00" fill="#0058ad">r 957 nil</text>
<polyline fill="none" stroke="#0058ad" points="547.5,-0.5 547.5,-29.5 "/>
<text text-anchor="middle" x="581.5" y="-11.3" font-family="Times,serif" font-size="14.00" fill="#0058ad">r 958 3</text>
</g>
<!-- T25143&#45;&gt;T25157 -->
<g id="edge2" class="edge">
<title>T25143:f1&#45;&gt;T25157:f0</title>
<path fill="none" stroke="#5b00c0" d="M432,-30C432,-122.47 21,-2.53 21,-95 21,-340 21,-340 21,-340 21,-358.87 25.33,-379.77 29.49,-395.48"/>
<polygon fill="#5b00c0" stroke="#5b00c0" points="26.21,-396.75 32.29,-405.43 32.95,-394.86 26.21,-396.75"/>
<text text-anchor="middle" x="30.5" y="-213.8" font-family="Times,serif" font-size="14.00" fill="#5b00c0">rw</text>
</g>
<!-- T25130 -->
<g id="node6" class="node">
<title>T25130</title>
<polygon fill="none" stroke="#0058ad" points="238,-243.5 238,-272.5 552,-272.5 552,-243.5 238,-243.5"/>
<text text-anchor="middle" x="279.5" y="-254.3" font-family="Times,serif" font-size="14.00" fill="#0058ad">w 956 15</text>
<polyline fill="none" stroke="#0058ad" points="321,-243.5 321,-272.5 "/>
<text text-anchor="middle" x="362.5" y="-254.3" font-family="Times,serif" font-size="14.00" fill="#0058ad">w 956 16</text>
<polyline fill="none" stroke="#0058ad" points="404,-243.5 404,-272.5 "/>
<text text-anchor="middle" x="441" y="-254.3" font-family="Times,serif" font-size="14.00" fill="#0058ad">w 957 1</text>
<polyline fill="none" stroke="#0058ad" points="478,-243.5 478,-272.5 "/>
<text text-anchor="middle" x="515" y="-254.3" font-family="Times,serif" font-size="14.00" fill="#0058ad">w 957 2</text>
</g>
<!-- T25143&#45;&gt;T25130 -->
<g id="edge3" class="edge">
<title>T25143:f2&#45;&gt;T25130:f3</title>
<path fill="none" stroke="#5b00c0" d="M509,-30C509,-54.51 523.63,-57.33 530,-81 550.78,-158.26 554.33,-223.8 553.92,-248.01"/>
<polygon fill="#5b00c0" stroke="#5b00c0" points="550.44,-247.72 553,-258 557.41,-248.36 550.44,-247.72"/>
<text text-anchor="middle" x="552.5" y="-132.8" font-family="Times,serif" font-size="14.00" fill="#5b00c0">rw</text>
</g>
<!-- T25135 -->
<g id="node3" class="node">
<title>T25135</title>
<polygon fill="none" stroke="#0058ad" points="164.5,-162.5 164.5,-191.5 451.5,-191.5 451.5,-162.5 164.5,-162.5"/>
<text text-anchor="middle" x="203" y="-173.3" font-family="Times,serif" font-size="14.00" fill="#0058ad">r 958 nil</text>
<polyline fill="none" stroke="#0058ad" points="241.5,-162.5 241.5,-191.5 "/>
<text text-anchor="middle" x="278.5" y="-173.3" font-family="Times,serif" font-size="14.00" fill="#0058ad">w 958 2</text>
<polyline fill="none" stroke="#0058ad" points="315.5,-162.5 315.5,-191.5 "/>
<text text-anchor="middle" x="349.5" y="-173.3" font-family="Times,serif" font-size="14.00" fill="#0058ad">r 927 5</text>
<polyline fill="none" stroke="#0058ad" points="383.5,-162.5 383.5,-191.5 "/>
<text text-anchor="middle" x="417.5" y="-173.3" font-family="Times,serif" font-size="14.00" fill="#0058ad">r 957 2</text>
</g>
<!-- T25137 -->
<g id="node4" class="node">
<title>T25137</title>
<polygon fill="none" stroke="#0058ad" points="49.5,-81.5 49.5,-110.5 274.5,-110.5 274.5,-81.5 49.5,-81.5"/>
<text text-anchor="middle" x="86.5" y="-92.3" font-family="Times,serif" font-size="14.00" fill="#0058ad">w 958 3</text>
<polyline fill="none" stroke="#0058ad" points="123.5,-81.5 123.5,-110.5 "/>
<text text-anchor="middle" x="165" y="-92.3" font-family="Times,serif" font-size="14.00" fill="#0058ad">w 955 11</text>
<polyline fill="none" stroke="#0058ad" points="206.5,-81.5 206.5,-110.5 "/>
<text text-anchor="middle" x="240.5" y="-92.3" font-family="Times,serif" font-size="14.00" fill="#0058ad">r 958 3</text>
</g>
<!-- T25135&#45;&gt;T25137 -->
<g id="edge5" class="edge">
<title>T25135:f0&#45;&gt;T25137:f0</title>
<path fill="none" stroke="#5b00c0" d="M163,-177C121.45,-177 91.07,-159.22 86.58,-121.12"/>
<polygon fill="#5b00c0" stroke="#5b00c0" points="90.06,-120.79 86,-111 83.07,-121.18 90.06,-120.79"/>
<text text-anchor="middle" x="103.5" y="-132.8" font-family="Times,serif" font-size="14.00" fill="#5b00c0">rw</text>
</g>
<!-- T25135&#45;&gt;T25193 -->
<g id="edge6" class="edge">
<title>T25135:f0&#45;&gt;T25193:f3</title>
<path fill="none" stroke="#5b00c0" d="M203,-192C203,-228.13 189.31,-243.38 210,-273 238.35,-313.59 307.63,-276.9 317.76,-313.66"/>
<polygon fill="#5b00c0" stroke="#5b00c0" points="314.33,-314.49 319,-324 321.28,-313.65 314.33,-314.49"/>
<text text-anchor="middle" x="219.5" y="-254.3" font-family="Times,serif" font-size="14.00" fill="#5b00c0">rw</text>
</g>
<!-- T25147 -->
<g id="node7" class="node">
<title>T25147</title>
<polygon fill="none" stroke="#0058ad" points="293,-81.5 293,-110.5 521,-110.5 521,-81.5 293,-81.5"/>
<text text-anchor="middle" x="331.5" y="-92.3" font-family="Times,serif" font-size="14.00" fill="#0058ad">r 931 10</text>
<polyline fill="none" stroke="#0058ad" points="370,-81.5 370,-110.5 "/>
<text text-anchor="middle" x="407" y="-92.3" font-family="Times,serif" font-size="14.00" fill="#0058ad">w 958 4</text>
<polyline fill="none" stroke="#0058ad" points="444,-81.5 444,-110.5 "/>
<text text-anchor="middle" x="482.5" y="-92.3" font-family="Times,serif" font-size="14.00" fill="#0058ad">r 957 nil</text>
</g>
<!-- T25135&#45;&gt;T25147 -->
<g id="edge4" class="edge">
<title>T25135:f0&#45;&gt;T25147:f1</title>
<path fill="none" stroke="#5b00c0" d="M203,-162C203,-72.38 390.61,-193.69 406,-121.37"/>
<polygon fill="#5b00c0" stroke="#5b00c0" points="409.52,-121.29 407,-111 402.56,-120.62 409.52,-121.29"/>
<text text-anchor="middle" x="412.5" y="-132.8" font-family="Times,serif" font-size="14.00" fill="#5b00c0">rw</text>
</g>
<!-- T25137&#45;&gt;T25143 -->
<g id="edge7" class="edge">
<title>T25137:f0&#45;&gt;T25143:f3</title>
<path fill="none" stroke="#c000a5" d="M86,-81C86,26.12 549.61,-129.78 580.4,-40.13"/>
<polygon fill="#c000a5" stroke="#c000a5" points="583.89,-40.42 582,-30 576.98,-39.33 583.89,-40.42"/>
<text text-anchor="middle" x="581.5" y="-51.8" font-family="Times,serif" font-size="14.00" fill="#c000a5">wr</text>
</g>
<!-- T25193&#45;&gt;T25130 -->
<g id="edge8" class="edge">
<title>T25193:f1&#45;&gt;T25130:f3</title>
<path fill="none" stroke="#5b00c0" d="M156,-324C156,-247.2 482.13,-343.67 512.71,-283.11"/>
<polygon fill="#5b00c0" stroke="#5b00c0" points="516.2,-283.53 515,-273 509.38,-281.98 516.2,-283.53"/>
<text text-anchor="middle" x="513.5" y="-294.8" font-family="Times,serif" font-size="14.00" fill="#5b00c0">rw</text>
</g>
<!-- T25130&#45;&gt;T25135 -->
<g id="edge9" class="edge">
<title>T25130:f3&#45;&gt;T25135:f3</title>
<path fill="none" stroke="#c000a5" d="M515,-243C515,-216.86 482.01,-237.4 459,-225 441.95,-215.81 425.02,-215.25 419.71,-202.05"/>
<polygon fill="#c000a5" stroke="#c000a5" points="423.12,-201.27 418,-192 416.22,-202.44 423.12,-201.27"/>
<text text-anchor="middle" x="468.5" y="-213.8" font-family="Times,serif" font-size="14.00" fill="#c000a5">wr</text>
</g>
<!-- T25147&#45;&gt;T25130 -->
<g id="edge10" class="edge">
<title>T25147:f2&#45;&gt;T25130:f3</title>
<path fill="none" stroke="#5b00c0" d="M483,-111C483,-167.83 511.36,-181.14 514.68,-232.87"/>
<polygon fill="#5b00c0" stroke="#5b00c0" points="511.19,-233.11 515,-243 518.19,-232.9 511.19,-233.11"/>
<text text-anchor="middle" x="514.5" y="-173.3" font-family="Times,serif" font-size="14.00" fill="#5b00c0">rw</text>
</g>
</g>
</svg>
