<?xml version="1.0" encoding="UTF-8" standalone="no"?>
<!DOCTYPE svg PUBLIC "-//W3C//DTD SVG 1.1//EN"
 "http://www.w3.org/Graphics/SVG/1.1/DTD/svg11.dtd">
<!-- Generated by graphviz version 2.43.0 (0)
 -->
<!-- Title: a_graph Pages: 1 -->
<svg width="697pt" height="848pt"
 viewBox="0.00 0.00 696.50 848.00" xmlns="http://www.w3.org/2000/svg" xmlns:xlink="http://www.w3.org/1999/xlink">
<g id="graph0" class="graph" transform="scale(1 1) rotate(0) translate(4 844)">
<title>a_graph</title>
<polygon fill="white" stroke="transparent" points="-4,4 -4,-844 692.5,-844 692.5,4 -4,4"/>
<!-- T14517 -->
<g id="node1" class="node">
<title>T14517</title>
<polygon fill="none" stroke="#0058ad" points="454.5,-810.5 454.5,-839.5 688.5,-839.5 688.5,-810.5 454.5,-810.5"/>
<text text-anchor="middle" x="491.5" y="-821.3" font-family="Times,serif" font-size="14.00" fill="#0058ad">w 558 5</text>
<polyline fill="none" stroke="#0058ad" points="528.5,-810.5 528.5,-839.5 "/>
<text text-anchor="middle" x="567" y="-821.3" font-family="Times,serif" font-size="14.00" fill="#0058ad">r 554 12</text>
<polyline fill="none" stroke="#0058ad" points="605.5,-810.5 605.5,-839.5 "/>
<text text-anchor="middle" x="647" y="-821.3" font-family="Times,serif" font-size="14.00" fill="#0058ad">w 554 13</text>
</g>
<!-- T14527 -->
<g id="node11" class="node">
<title>T14527</title>
<polygon fill="none" stroke="#0058ad" points="289,-729.5 289,-758.5 594,-758.5 594,-729.5 289,-729.5"/>
<text text-anchor="middle" x="323" y="-740.3" font-family="Times,serif" font-size="14.00" fill="#0058ad">r 558 5</text>
<polyline fill="none" stroke="#0058ad" points="357,-729.5 357,-758.5 "/>
<text text-anchor="middle" x="395.5" y="-740.3" font-family="Times,serif" font-size="14.00" fill="#0058ad">r 554 13</text>
<polyline fill="none" stroke="#0058ad" points="434,-729.5 434,-758.5 "/>
<text text-anchor="middle" x="475.5" y="-740.3" font-family="Times,serif" font-size="14.00" fill="#0058ad">w 554 14</text>
<polyline fill="none" stroke="#0058ad" points="517,-729.5 517,-758.5 "/>
<text text-anchor="middle" x="555.5" y="-740.3" font-family="Times,serif" font-size="14.00" fill="#0058ad">r 554 14</text>
</g>
<!-- T14517&#45;&gt;T14527 -->
<g id="edge1" class="edge">
<title>T14517:f0&#45;&gt;T14527:f0</title>
<path fill="none" stroke="#c000a5" d="M453.5,-825C391.87,-825 329.7,-824.28 323.08,-769.13"/>
<polygon fill="#c000a5" stroke="#c000a5" points="326.57,-768.78 322.5,-759 319.58,-769.18 326.57,-768.78"/>
<text text-anchor="middle" x="340" y="-780.8" font-family="Times,serif" font-size="14.00" fill="#c000a5">wr</text>
</g>
<!-- T14511 -->
<g id="node2" class="node">
<title>T14511</title>
<polygon fill="none" stroke="#0058ad" points="436.5,-243.5 436.5,-272.5 664.5,-272.5 664.5,-243.5 436.5,-243.5"/>
<text text-anchor="middle" x="475" y="-254.3" font-family="Times,serif" font-size="14.00" fill="#0058ad">r 558 nil</text>
<polyline fill="none" stroke="#0058ad" points="513.5,-243.5 513.5,-272.5 "/>
<text text-anchor="middle" x="547.5" y="-254.3" font-family="Times,serif" font-size="14.00" fill="#0058ad">r 555 4</text>
<polyline fill="none" stroke="#0058ad" points="581.5,-243.5 581.5,-272.5 "/>
<text text-anchor="middle" x="623" y="-254.3" font-family="Times,serif" font-size="14.00" fill="#0058ad">w 554 12</text>
</g>
<!-- T14511&#45;&gt;T14517 -->
<g id="edge3" class="edge">
<title>T14511:f2&#45;&gt;T14517:f1</title>
<path fill="none" stroke="#c000a5" d="M623.5,-273C623.5,-301.89 623.5,-309.11 623.5,-338 623.5,-745 623.5,-745 623.5,-745 623.5,-779.67 577.09,-773.41 568.02,-800.09"/>
<polygon fill="#c000a5" stroke="#c000a5" points="564.56,-799.58 566.5,-810 571.48,-800.65 564.56,-799.58"/>
<text text-anchor="middle" x="633" y="-537.8" font-family="Times,serif" font-size="14.00" fill="#c000a5">wr</text>
</g>
<!-- T14538 -->
<g id="node4" class="node">
<title>T14538</title>
<polygon fill="none" stroke="#0058ad" points="364,-162.5 364,-191.5 595,-191.5 595,-162.5 364,-162.5"/>
<text text-anchor="middle" x="401" y="-173.3" font-family="Times,serif" font-size="14.00" fill="#0058ad">w 555 7</text>
<polyline fill="none" stroke="#0058ad" points="438,-162.5 438,-191.5 "/>
<text text-anchor="middle" x="475" y="-173.3" font-family="Times,serif" font-size="14.00" fill="#0058ad">w 558 8</text>
<polyline fill="none" stroke="#0058ad" points="512,-162.5 512,-191.5 "/>
<text text-anchor="middle" x="553.5" y="-173.3" font-family="Times,serif" font-size="14.00" fill="#0058ad">w 554 16</text>
</g>
<!-- T14511&#45;&gt;T14538 -->
<g id="edge2" class="edge">
<title>T14511:f0&#45;&gt;T14538:f1</title>
<path fill="none" stroke="#5b00c0" d="M474.5,-243C474.5,-224.23 474.5,-217.12 474.5,-202.35"/>
<polygon fill="#5b00c0" stroke="#5b00c0" points="478,-202 474.5,-192 471,-202 478,-202"/>
<text text-anchor="middle" x="484" y="-213.8" font-family="Times,serif" font-size="14.00" fill="#5b00c0">rw</text>
</g>
<!-- T14534 -->
<g id="node6" class="node">
<title>T14534</title>
<polygon fill="none" stroke="#0058ad" points="361.5,-648.5 361.5,-677.5 595.5,-677.5 595.5,-648.5 361.5,-648.5"/>
<text text-anchor="middle" x="398.5" y="-659.3" font-family="Times,serif" font-size="14.00" fill="#0058ad">w 558 7</text>
<polyline fill="none" stroke="#0058ad" points="435.5,-648.5 435.5,-677.5 "/>
<text text-anchor="middle" x="474" y="-659.3" font-family="Times,serif" font-size="14.00" fill="#0058ad">r 554 14</text>
<polyline fill="none" stroke="#0058ad" points="512.5,-648.5 512.5,-677.5 "/>
<text text-anchor="middle" x="554" y="-659.3" font-family="Times,serif" font-size="14.00" fill="#0058ad">w 554 15</text>
</g>
<!-- T14511&#45;&gt;T14534 -->
<g id="edge6" class="edge">
<title>T14511:f0&#45;&gt;T14534:f0</title>
<path fill="none" stroke="#5b00c0" d="M474.5,-273C474.5,-303.36 495.5,-307.64 495.5,-338 495.5,-583 495.5,-583 495.5,-583 495.5,-631.04 412.36,-601.36 400.02,-637.87"/>
<polygon fill="#5b00c0" stroke="#5b00c0" points="396.53,-637.59 398.5,-648 403.45,-638.63 396.53,-637.59"/>
<text text-anchor="middle" x="505" y="-456.8" font-family="Times,serif" font-size="14.00" fill="#5b00c0">rw</text>
</g>
<!-- T14558 -->
<g id="node7" class="node">
<title>T14558</title>
<polygon fill="none" stroke="#0058ad" points="150,-0.5 150,-29.5 455,-29.5 455,-0.5 150,-0.5"/>
<text text-anchor="middle" x="188.5" y="-11.3" font-family="Times,serif" font-size="14.00" fill="#0058ad">r 557 nil</text>
<polyline fill="none" stroke="#0058ad" points="227,-0.5 227,-29.5 "/>
<text text-anchor="middle" x="265.5" y="-11.3" font-family="Times,serif" font-size="14.00" fill="#0058ad">r 557 nil</text>
<polyline fill="none" stroke="#0058ad" points="304,-0.5 304,-29.5 "/>
<text text-anchor="middle" x="338" y="-11.3" font-family="Times,serif" font-size="14.00" fill="#0058ad">r 559 2</text>
<polyline fill="none" stroke="#0058ad" points="372,-0.5 372,-29.5 "/>
<text text-anchor="middle" x="413.5" y="-11.3" font-family="Times,serif" font-size="14.00" fill="#0058ad">w 558 14</text>
</g>
<!-- T14511&#45;&gt;T14558 -->
<g id="edge5" class="edge">
<title>T14511:f0&#45;&gt;T14558:f3</title>
<path fill="none" stroke="#5b00c0" d="M474.5,-243C474.5,-227.59 594.83,-204.75 603.5,-192 672.51,-90.5 733.71,-16.82 466.56,-15.03"/>
<polygon fill="#5b00c0" stroke="#5b00c0" points="466.51,-11.53 456.5,-15 466.49,-18.53 466.51,-11.53"/>
<text text-anchor="middle" x="654" y="-132.8" font-family="Times,serif" font-size="14.00" fill="#5b00c0">rw</text>
</g>
<!-- T14539 -->
<g id="node8" class="node">
<title>T14539</title>
<polygon fill="none" stroke="#0058ad" points="57.5,-567.5 57.5,-596.5 353.5,-596.5 353.5,-567.5 57.5,-567.5"/>
<text text-anchor="middle" x="96" y="-578.3" font-family="Times,serif" font-size="14.00" fill="#0058ad">r 554 15</text>
<polyline fill="none" stroke="#0058ad" points="134.5,-567.5 134.5,-596.5 "/>
<text text-anchor="middle" x="168.5" y="-578.3" font-family="Times,serif" font-size="14.00" fill="#0058ad">r 558 7</text>
<polyline fill="none" stroke="#0058ad" points="202.5,-567.5 202.5,-596.5 "/>
<text text-anchor="middle" x="239.5" y="-578.3" font-family="Times,serif" font-size="14.00" fill="#0058ad">w 558 9</text>
<polyline fill="none" stroke="#0058ad" points="276.5,-567.5 276.5,-596.5 "/>
<text text-anchor="middle" x="315" y="-578.3" font-family="Times,serif" font-size="14.00" fill="#0058ad">r 559 nil</text>
</g>
<!-- T14511&#45;&gt;T14539 -->
<g id="edge4" class="edge">
<title>T14511:f0&#45;&gt;T14539:f2</title>
<path fill="none" stroke="#5b00c0" d="M435.5,-258C386.98,-258 411.89,-314.65 383.5,-354 354.62,-394.03 351.11,-411.87 307.5,-435 262.57,-458.83 229.23,-415.85 194.5,-453 175.36,-473.48 181.17,-489.94 191.5,-516 201.54,-541.32 230.76,-537.54 237.91,-557.06"/>
<polygon fill="#5b00c0" stroke="#5b00c0" points="234.46,-557.68 239.5,-567 241.37,-556.57 234.46,-557.68"/>
<text text-anchor="middle" x="357" y="-416.3" font-family="Times,serif" font-size="14.00" fill="#5b00c0">rw</text>
</g>
<!-- T14572 -->
<g id="node3" class="node">
<title>T14572</title>
<polygon fill="none" stroke="#0058ad" points="201,-486.5 201,-515.5 420,-515.5 420,-486.5 201,-486.5"/>
<text text-anchor="middle" x="239.5" y="-497.3" font-family="Times,serif" font-size="14.00" fill="#0058ad">r 561 nil</text>
<polyline fill="none" stroke="#0058ad" points="278,-486.5 278,-515.5 "/>
<text text-anchor="middle" x="315" y="-497.3" font-family="Times,serif" font-size="14.00" fill="#0058ad">w 559 6</text>
<polyline fill="none" stroke="#0058ad" points="352,-486.5 352,-515.5 "/>
<text text-anchor="middle" x="386" y="-497.3" font-family="Times,serif" font-size="14.00" fill="#0058ad">r 555 8</text>
</g>
<!-- T14575 -->
<g id="node5" class="node">
<title>T14575</title>
<polygon fill="none" stroke="#0058ad" points="0,-405.5 0,-434.5 299,-434.5 299,-405.5 0,-405.5"/>
<text text-anchor="middle" x="37" y="-416.3" font-family="Times,serif" font-size="14.00" fill="#0058ad">w 559 7</text>
<polyline fill="none" stroke="#0058ad" points="74,-405.5 74,-434.5 "/>
<text text-anchor="middle" x="112.5" y="-416.3" font-family="Times,serif" font-size="14.00" fill="#0058ad">r 557 nil</text>
<polyline fill="none" stroke="#0058ad" points="151,-405.5 151,-434.5 "/>
<text text-anchor="middle" x="188" y="-416.3" font-family="Times,serif" font-size="14.00" fill="#0058ad">w 561 8</text>
<polyline fill="none" stroke="#0058ad" points="225,-405.5 225,-434.5 "/>
<text text-anchor="middle" x="262" y="-416.3" font-family="Times,serif" font-size="14.00" fill="#0058ad">w 557 2</text>
</g>
<!-- T14572&#45;&gt;T14575 -->
<g id="edge7" class="edge">
<title>T14572:f0&#45;&gt;T14575:f2</title>
<path fill="none" stroke="#5b00c0" d="M239.5,-486C239.5,-457.83 200.1,-464.54 190.56,-444.82"/>
<polygon fill="#5b00c0" stroke="#5b00c0" points="193.98,-444.07 188.5,-435 187.13,-445.51 193.98,-444.07"/>
<text text-anchor="middle" x="240" y="-456.8" font-family="Times,serif" font-size="14.00" fill="#5b00c0">rw</text>
</g>
<!-- T14546 -->
<g id="node9" class="node">
<title>T14546</title>
<polygon fill="none" stroke="#0058ad" points="298.5,-81.5 298.5,-110.5 508.5,-110.5 508.5,-81.5 298.5,-81.5"/>
<text text-anchor="middle" x="335.5" y="-92.3" font-family="Times,serif" font-size="14.00" fill="#0058ad">w 559 2</text>
<polyline fill="none" stroke="#0058ad" points="372.5,-81.5 372.5,-110.5 "/>
<text text-anchor="middle" x="406.5" y="-92.3" font-family="Times,serif" font-size="14.00" fill="#0058ad">r 555 7</text>
<polyline fill="none" stroke="#0058ad" points="440.5,-81.5 440.5,-110.5 "/>
<text text-anchor="middle" x="474.5" y="-92.3" font-family="Times,serif" font-size="14.00" fill="#0058ad">r 559 2</text>
</g>
<!-- T14538&#45;&gt;T14546 -->
<g id="edge8" class="edge">
<title>T14538:f0&#45;&gt;T14546:f1</title>
<path fill="none" stroke="#c000a5" d="M400.5,-162C400.5,-143.1 404.61,-136.18 406.03,-121.4"/>
<polygon fill="#c000a5" stroke="#c000a5" points="409.54,-121.15 406.5,-111 402.55,-120.83 409.54,-121.15"/>
<text text-anchor="middle" x="415" y="-132.8" font-family="Times,serif" font-size="14.00" fill="#c000a5">wr</text>
</g>
<!-- T14506 -->
<g id="node10" class="node">
<title>T14506</title>
<polygon fill="none" stroke="#0058ad" points="152.5,-324.5 152.5,-353.5 374.5,-353.5 374.5,-324.5 152.5,-324.5"/>
<text text-anchor="middle" x="189.5" y="-335.3" font-family="Times,serif" font-size="14.00" fill="#0058ad">w 557 1</text>
<polyline fill="none" stroke="#0058ad" points="226.5,-324.5 226.5,-353.5 "/>
<text text-anchor="middle" x="263.5" y="-335.3" font-family="Times,serif" font-size="14.00" fill="#0058ad">w 555 3</text>
<polyline fill="none" stroke="#0058ad" points="300.5,-324.5 300.5,-353.5 "/>
<text text-anchor="middle" x="337.5" y="-335.3" font-family="Times,serif" font-size="14.00" fill="#0058ad">w 555 4</text>
</g>
<!-- T14575&#45;&gt;T14506 -->
<g id="edge9" class="edge">
<title>T14575:f1&#45;&gt;T14506:f0</title>
<path fill="none" stroke="#5b00c0" d="M112.5,-405C112.5,-374.65 116.41,-346.01 141.33,-340.11"/>
<polygon fill="#5b00c0" stroke="#5b00c0" points="141.94,-343.56 151.5,-339 141.18,-336.6 141.94,-343.56"/>
<text text-anchor="middle" x="125" y="-375.8" font-family="Times,serif" font-size="14.00" fill="#5b00c0">rw</text>
</g>
<!-- T14534&#45;&gt;T14539 -->
<g id="edge10" class="edge">
<title>T14534:f0&#45;&gt;T14539:f1</title>
<path fill="none" stroke="#c000a5" d="M360.5,-663C318.91,-663 190.83,-645.25 171.07,-607.13"/>
<polygon fill="#c000a5" stroke="#c000a5" points="174.35,-605.83 168.5,-597 167.57,-607.55 174.35,-605.83"/>
<text text-anchor="middle" x="208" y="-618.8" font-family="Times,serif" font-size="14.00" fill="#c000a5">wr</text>
</g>
<!-- T14558&#45;&gt;T14575 -->
<g id="edge12" class="edge">
<title>T14558:f0&#45;&gt;T14575:f3</title>
<path fill="none" stroke="#5b00c0" d="M148.5,-15C111.38,-15 124.5,-57.88 124.5,-95 124.5,-340 124.5,-340 124.5,-340 124.5,-403.96 247.31,-344.76 261.22,-394.76"/>
<polygon fill="#5b00c0" stroke="#5b00c0" points="257.79,-395.51 262.5,-405 264.73,-394.64 257.79,-395.51"/>
<text text-anchor="middle" x="134" y="-213.8" font-family="Times,serif" font-size="14.00" fill="#5b00c0">rw</text>
</g>
<!-- T14558&#45;&gt;T14506 -->
<g id="edge11" class="edge">
<title>T14558:f0&#45;&gt;T14506:f0</title>
<path fill="none" stroke="#5b00c0" d="M188.5,-30C188.5,-58.89 188.5,-66.11 188.5,-95 188.5,-259 188.5,-259 188.5,-259 188.5,-284.17 189.26,-292.89 189.45,-313.81"/>
<polygon fill="#5b00c0" stroke="#5b00c0" points="185.96,-314.02 189.5,-324 192.96,-313.98 185.96,-314.02"/>
<text text-anchor="middle" x="198" y="-173.3" font-family="Times,serif" font-size="14.00" fill="#5b00c0">rw</text>
</g>
<!-- T14539&#45;&gt;T14572 -->
<g id="edge14" class="edge">
<title>T14539:f3&#45;&gt;T14572:f1</title>
<path fill="none" stroke="#5b00c0" d="M315.5,-567C315.5,-548.23 315.5,-541.12 315.5,-526.35"/>
<polygon fill="#5b00c0" stroke="#5b00c0" points="319,-526 315.5,-516 312,-526 319,-526"/>
<text text-anchor="middle" x="325" y="-537.8" font-family="Times,serif" font-size="14.00" fill="#5b00c0">rw</text>
</g>
<!-- T14539&#45;&gt;T14575 -->
<g id="edge15" class="edge">
<title>T14539:f3&#45;&gt;T14575:f0</title>
<path fill="none" stroke="#5b00c0" d="M315.5,-567C315.5,-531.88 190.38,-563.73 158.5,-549 94.29,-519.33 41.65,-510.07 36.86,-445.01"/>
<polygon fill="#5b00c0" stroke="#5b00c0" points="40.35,-444.87 36.5,-435 33.36,-445.12 40.35,-444.87"/>
<text text-anchor="middle" x="95" y="-497.3" font-family="Times,serif" font-size="14.00" fill="#5b00c0">rw</text>
</g>
<!-- T14539&#45;&gt;T14546 -->
<g id="edge13" class="edge">
<title>T14539:f3&#45;&gt;T14546:f0</title>
<path fill="none" stroke="#5b00c0" d="M354.5,-582C409.36,-582 448.5,-556.86 448.5,-502 448.5,-502 448.5,-502 448.5,-378.5 448.5,-366 368.54,-316.94 362.5,-306 321.9,-232.38 334.4,-200.98 335.43,-121"/>
<polygon fill="#5b00c0" stroke="#5b00c0" points="338.93,-121.02 335.5,-111 331.93,-120.98 338.93,-121.02"/>
<text text-anchor="middle" x="434" y="-335.3" font-family="Times,serif" font-size="14.00" fill="#5b00c0">rw</text>
</g>
<!-- T14546&#45;&gt;T14558 -->
<g id="edge16" class="edge">
<title>T14546:f0&#45;&gt;T14558:f2</title>
<path fill="none" stroke="#c000a5" d="M335.5,-81C335.5,-62.2 337.56,-55.13 338.26,-40.36"/>
<polygon fill="#c000a5" stroke="#c000a5" points="341.77,-40.08 338.5,-30 334.77,-39.92 341.77,-40.08"/>
<text text-anchor="middle" x="348" y="-51.8" font-family="Times,serif" font-size="14.00" fill="#c000a5">wr</text>
</g>
<!-- T14506&#45;&gt;T14511 -->
<g id="edge17" class="edge">
<title>T14506:f2&#45;&gt;T14511:f1</title>
<path fill="none" stroke="#c000a5" d="M375.5,-339C397,-339 355.08,-306.95 369.5,-291 393.56,-264.39 519.13,-303.52 543.43,-282.2"/>
<polygon fill="#c000a5" stroke="#c000a5" points="546.65,-283.56 547.5,-273 540.25,-280.73 546.65,-283.56"/>
<text text-anchor="middle" x="379" y="-294.8" font-family="Times,serif" font-size="14.00" fill="#c000a5">wr</text>
</g>
<!-- T14527&#45;&gt;T14534 -->
<g id="edge18" class="edge">
<title>T14527:f2&#45;&gt;T14534:f1</title>
<path fill="none" stroke="#c000a5" d="M475.5,-729C475.5,-710.21 474.13,-703.12 473.66,-688.36"/>
<polygon fill="#c000a5" stroke="#c000a5" points="477.15,-687.95 473.5,-678 470.15,-688.05 477.15,-687.95"/>
<text text-anchor="middle" x="485" y="-699.8" font-family="Times,serif" font-size="14.00" fill="#c000a5">wr</text>
</g>
</g>
</svg>
