<?xml version="1.0" encoding="UTF-8" standalone="no"?>
<!DOCTYPE svg PUBLIC "-//W3C//DTD SVG 1.1//EN"
 "http://www.w3.org/Graphics/SVG/1.1/DTD/svg11.dtd">
<!-- Generated by graphviz version 2.43.0 (0)
 -->
<!-- Title: a_graph Pages: 1 -->
<svg width="394pt" height="200pt"
 viewBox="0.00 0.00 394.00 200.00" xmlns="http://www.w3.org/2000/svg" xmlns:xlink="http://www.w3.org/1999/xlink">
<g id="graph0" class="graph" transform="scale(1 1) rotate(0) translate(4 196)">
<title>a_graph</title>
<polygon fill="white" stroke="transparent" points="-4,4 -4,-196 390,-196 390,4 -4,4"/>
<!-- T5951 -->
<g id="node1" class="node">
<title>T5951</title>
<polygon fill="none" stroke="#0058ad" points="119,-162.5 119,-191.5 344,-191.5 344,-162.5 119,-162.5"/>
<text text-anchor="middle" x="157.5" y="-173.3" font-family="Times,serif" font-size="14.00" fill="#0058ad">r 228 nil</text>
<polyline fill="none" stroke="#0058ad" points="196,-162.5 196,-191.5 "/>
<text text-anchor="middle" x="233" y="-173.3" font-family="Times,serif" font-size="14.00" fill="#0058ad">w 228 5</text>
<polyline fill="none" stroke="#0058ad" points="270,-162.5 270,-191.5 "/>
<text text-anchor="middle" x="307" y="-173.3" font-family="Times,serif" font-size="14.00" fill="#0058ad">w 228 6</text>
</g>
<!-- T5946 -->
<g id="node3" class="node">
<title>T5946</title>
<polygon fill="none" stroke="#0058ad" points="0,-81.5 0,-110.5 311,-110.5 311,-81.5 0,-81.5"/>
<text text-anchor="middle" x="37" y="-92.3" font-family="Times,serif" font-size="14.00" fill="#0058ad">w 228 3</text>
<polyline fill="none" stroke="#0058ad" points="74,-81.5 74,-110.5 "/>
<text text-anchor="middle" x="115.5" y="-92.3" font-family="Times,serif" font-size="14.00" fill="#0058ad">w 216 16</text>
<polyline fill="none" stroke="#0058ad" points="157,-81.5 157,-110.5 "/>
<text text-anchor="middle" x="195.5" y="-92.3" font-family="Times,serif" font-size="14.00" fill="#0058ad">r 216 16</text>
<polyline fill="none" stroke="#0058ad" points="234,-81.5 234,-110.5 "/>
<text text-anchor="middle" x="272.5" y="-92.3" font-family="Times,serif" font-size="14.00" fill="#0058ad">r 229 nil</text>
</g>
<!-- T5951&#45;&gt;T5946 -->
<g id="edge1" class="edge">
<title>T5951:f0&#45;&gt;T5946:f0</title>
<path fill="none" stroke="#5b00c0" d="M117.5,-177C74.69,-177 41.97,-160.37 37.12,-121.4"/>
<polygon fill="#5b00c0" stroke="#5b00c0" points="40.59,-120.77 36.5,-111 33.6,-121.19 40.59,-120.77"/>
<text text-anchor="middle" x="54" y="-132.8" font-family="Times,serif" font-size="14.00" fill="#5b00c0">rw</text>
</g>
<!-- T5949 -->
<g id="node2" class="node">
<title>T5949</title>
<polygon fill="none" stroke="#0058ad" points="235,-0.5 235,-29.5 386,-29.5 386,-0.5 235,-0.5"/>
<text text-anchor="middle" x="272" y="-11.3" font-family="Times,serif" font-size="14.00" fill="#0058ad">w 229 2</text>
<polyline fill="none" stroke="#0058ad" points="309,-0.5 309,-29.5 "/>
<text text-anchor="middle" x="347.5" y="-11.3" font-family="Times,serif" font-size="14.00" fill="#0058ad">r 228 nil</text>
</g>
<!-- T5949&#45;&gt;T5951 -->
<g id="edge2" class="edge">
<title>T5949:f1&#45;&gt;T5951:f2</title>
<path fill="none" stroke="#5b00c0" d="M347.5,-30C347.5,-91.51 403.63,-167.49 355.7,-176.18"/>
<polygon fill="#5b00c0" stroke="#5b00c0" points="355.19,-172.71 345.5,-177 355.75,-179.69 355.19,-172.71"/>
<text text-anchor="middle" x="375" y="-92.3" font-family="Times,serif" font-size="14.00" fill="#5b00c0">rw</text>
</g>
<!-- T5949&#45;&gt;T5946 -->
<g id="edge3" class="edge">
<title>T5949:f1&#45;&gt;T5946:f0</title>
<path fill="none" stroke="#5b00c0" d="M347.5,-30C347.5,-56.31 256.47,-43.79 230.5,-48 147.71,-61.41 45.3,0.98 37.03,-71.01"/>
<polygon fill="#5b00c0" stroke="#5b00c0" points="33.54,-70.83 36.5,-81 40.53,-71.2 33.54,-70.83"/>
<text text-anchor="middle" x="240" y="-51.8" font-family="Times,serif" font-size="14.00" fill="#5b00c0">rw</text>
</g>
<!-- T5946&#45;&gt;T5949 -->
<g id="edge4" class="edge">
<title>T5946:f3&#45;&gt;T5949:f0</title>
<path fill="none" stroke="#5b00c0" d="M272.5,-81C272.5,-62.23 271.81,-55.12 271.58,-40.35"/>
<polygon fill="#5b00c0" stroke="#5b00c0" points="275.08,-39.97 271.5,-30 268.08,-40.03 275.08,-39.97"/>
<text text-anchor="middle" x="281" y="-51.8" font-family="Times,serif" font-size="14.00" fill="#5b00c0">rw</text>
</g>
</g>
</svg>
