<?xml version="1.0" encoding="UTF-8" standalone="no"?>
<!DOCTYPE svg PUBLIC "-//W3C//DTD SVG 1.1//EN"
 "http://www.w3.org/Graphics/SVG/1.1/DTD/svg11.dtd">
<!-- Generated by graphviz version 2.43.0 (0)
 -->
<!-- Title: a_graph Pages: 1 -->
<svg width="387pt" height="200pt"
 viewBox="0.00 0.00 387.33 200.00" xmlns="http://www.w3.org/2000/svg" xmlns:xlink="http://www.w3.org/1999/xlink">
<g id="graph0" class="graph" transform="scale(1 1) rotate(0) translate(4 196)">
<title>a_graph</title>
<polygon fill="white" stroke="transparent" points="-4,4 -4,-196 383.33,-196 383.33,4 -4,4"/>
<!-- T29040 -->
<g id="node1" class="node">
<title>T29040</title>
<polygon fill="none" stroke="#0058ad" points="61.83,-162.5 61.83,-191.5 313.83,-191.5 313.83,-162.5 61.83,-162.5"/>
<text text-anchor="middle" x="104.83" y="-173.3" font-family="Times,serif" font-size="14.00" fill="#0058ad">r 1110 nil</text>
<polyline fill="none" stroke="#0058ad" points="147.83,-162.5 147.83,-191.5 "/>
<text text-anchor="middle" x="189.33" y="-173.3" font-family="Times,serif" font-size="14.00" fill="#0058ad">w 1110 2</text>
<polyline fill="none" stroke="#0058ad" points="230.83,-162.5 230.83,-191.5 "/>
<text text-anchor="middle" x="272.33" y="-173.3" font-family="Times,serif" font-size="14.00" fill="#0058ad">w 1111 1</text>
</g>
<!-- T29053 -->
<g id="node2" class="node">
<title>T29053</title>
<polygon fill="none" stroke="#0058ad" points="50.33,-0.5 50.33,-29.5 379.33,-29.5 379.33,-0.5 50.33,-0.5"/>
<text text-anchor="middle" x="91.83" y="-11.3" font-family="Times,serif" font-size="14.00" fill="#0058ad">w 1110 8</text>
<polyline fill="none" stroke="#0058ad" points="133.33,-0.5 133.33,-29.5 "/>
<text text-anchor="middle" x="171.83" y="-11.3" font-family="Times,serif" font-size="14.00" fill="#0058ad">r 1110 8</text>
<polyline fill="none" stroke="#0058ad" points="210.33,-0.5 210.33,-29.5 "/>
<text text-anchor="middle" x="253.33" y="-11.3" font-family="Times,serif" font-size="14.00" fill="#0058ad">r 1111 nil</text>
<polyline fill="none" stroke="#0058ad" points="296.33,-0.5 296.33,-29.5 "/>
<text text-anchor="middle" x="337.83" y="-11.3" font-family="Times,serif" font-size="14.00" fill="#0058ad">w 1111 3</text>
</g>
<!-- T29040&#45;&gt;T29053 -->
<g id="edge2" class="edge">
<title>T29040:f0&#45;&gt;T29053:f0</title>
<path fill="none" stroke="#5b00c0" d="M60.83,-177C-7.84,-177 -22.05,-30.43 38.85,-16.12"/>
<polygon fill="#5b00c0" stroke="#5b00c0" points="39.28,-19.59 48.83,-15 38.5,-12.64 39.28,-19.59"/>
<text text-anchor="middle" x="12.33" y="-92.3" font-family="Times,serif" font-size="14.00" fill="#5b00c0">rw</text>
</g>
<!-- T29028 -->
<g id="node3" class="node">
<title>T29028</title>
<polygon fill="none" stroke="#0058ad" points="48.83,-81.5 48.83,-110.5 300.83,-110.5 300.83,-81.5 48.83,-81.5"/>
<text text-anchor="middle" x="91.83" y="-92.3" font-family="Times,serif" font-size="14.00" fill="#0058ad">r 1110 nil</text>
<polyline fill="none" stroke="#0058ad" points="134.83,-81.5 134.83,-110.5 "/>
<text text-anchor="middle" x="176.33" y="-92.3" font-family="Times,serif" font-size="14.00" fill="#0058ad">w 1110 1</text>
<polyline fill="none" stroke="#0058ad" points="217.83,-81.5 217.83,-110.5 "/>
<text text-anchor="middle" x="259.33" y="-92.3" font-family="Times,serif" font-size="14.00" fill="#0058ad">w 1109 4</text>
</g>
<!-- T29040&#45;&gt;T29028 -->
<g id="edge1" class="edge">
<title>T29040:f0&#45;&gt;T29028:f1</title>
<path fill="none" stroke="#5b00c0" d="M104.83,-162C104.83,-144.12 113.67,-139.92 127.83,-129 142.47,-117.71 164.89,-127.71 173.4,-120.51"/>
<polygon fill="#5b00c0" stroke="#5b00c0" points="176.73,-121.59 176.83,-111 170.14,-119.22 176.73,-121.59"/>
<text text-anchor="middle" x="137.33" y="-132.8" font-family="Times,serif" font-size="14.00" fill="#5b00c0">rw</text>
</g>
<!-- T29053&#45;&gt;T29040 -->
<g id="edge3" class="edge">
<title>T29053:f2&#45;&gt;T29040:f2</title>
<path fill="none" stroke="#5b00c0" d="M253.83,-30C253.83,-63.66 295.43,-50.57 309.83,-81 326.39,-116 352.13,-166.41 325.01,-175.55"/>
<polygon fill="#5b00c0" stroke="#5b00c0" points="324.24,-172.12 314.83,-177 325.22,-179.05 324.24,-172.12"/>
<text text-anchor="middle" x="332.33" y="-92.3" font-family="Times,serif" font-size="14.00" fill="#5b00c0">rw</text>
</g>
<!-- T29028&#45;&gt;T29040 -->
<g id="edge4" class="edge">
<title>T29028:f0&#45;&gt;T29040:f1</title>
<path fill="none" stroke="#5b00c0" d="M91.83,-111C91.83,-136.72 124.08,-117 146.83,-129 164.64,-138.4 182.72,-138.31 188.17,-152.1"/>
<polygon fill="#5b00c0" stroke="#5b00c0" points="184.73,-152.71 189.83,-162 191.63,-151.56 184.73,-152.71"/>
<text text-anchor="middle" x="190.33" y="-132.8" font-family="Times,serif" font-size="14.00" fill="#5b00c0">rw</text>
</g>
<!-- T29028&#45;&gt;T29053 -->
<g id="edge5" class="edge">
<title>T29028:f0&#45;&gt;T29053:f0</title>
<path fill="none" stroke="#5b00c0" d="M91.83,-81C91.83,-62.23 91.83,-55.12 91.83,-40.35"/>
<polygon fill="#5b00c0" stroke="#5b00c0" points="95.33,-40 91.83,-30 88.33,-40 95.33,-40"/>
<text text-anchor="middle" x="101.33" y="-51.8" font-family="Times,serif" font-size="14.00" fill="#5b00c0">rw</text>
</g>
</g>
</svg>
