<?xml version="1.0" encoding="UTF-8" standalone="no"?>
<!DOCTYPE svg PUBLIC "-//W3C//DTD SVG 1.1//EN"
 "http://www.w3.org/Graphics/SVG/1.1/DTD/svg11.dtd">
<!-- Generated by graphviz version 2.43.0 (0)
 -->
<!-- Title: a_graph Pages: 1 -->
<svg width="342pt" height="119pt"
 viewBox="0.00 0.00 342.00 119.00" xmlns="http://www.w3.org/2000/svg" xmlns:xlink="http://www.w3.org/1999/xlink">
<g id="graph0" class="graph" transform="scale(1 1) rotate(0) translate(4 115)">
<title>a_graph</title>
<polygon fill="white" stroke="transparent" points="-4,4 -4,-115 338,-115 338,4 -4,4"/>
<!-- T16757 -->
<g id="node1" class="node">
<title>T16757</title>
<polygon fill="none" stroke="#0058ad" points="38,-81.5 38,-110.5 334,-110.5 334,-81.5 38,-81.5"/>
<text text-anchor="middle" x="76.5" y="-92.3" font-family="Times,serif" font-size="14.00" fill="#0058ad">r 643 nil</text>
<polyline fill="none" stroke="#0058ad" points="115,-81.5 115,-110.5 "/>
<text text-anchor="middle" x="152" y="-92.3" font-family="Times,serif" font-size="14.00" fill="#0058ad">w 643 1</text>
<polyline fill="none" stroke="#0058ad" points="189,-81.5 189,-110.5 "/>
<text text-anchor="middle" x="227.5" y="-92.3" font-family="Times,serif" font-size="14.00" fill="#0058ad">r 639 10</text>
<polyline fill="none" stroke="#0058ad" points="266,-81.5 266,-110.5 "/>
<text text-anchor="middle" x="300" y="-92.3" font-family="Times,serif" font-size="14.00" fill="#0058ad">r 643 1</text>
</g>
<!-- T16761 -->
<g id="node2" class="node">
<title>T16761</title>
<polygon fill="none" stroke="#0058ad" points="0,-0.5 0,-29.5 296,-29.5 296,-0.5 0,-0.5"/>
<text text-anchor="middle" x="38.5" y="-11.3" font-family="Times,serif" font-size="14.00" fill="#0058ad">r 643 nil</text>
<polyline fill="none" stroke="#0058ad" points="77,-0.5 77,-29.5 "/>
<text text-anchor="middle" x="115.5" y="-11.3" font-family="Times,serif" font-size="14.00" fill="#0058ad">r 643 nil</text>
<polyline fill="none" stroke="#0058ad" points="154,-0.5 154,-29.5 "/>
<text text-anchor="middle" x="191" y="-11.3" font-family="Times,serif" font-size="14.00" fill="#0058ad">w 643 2</text>
<polyline fill="none" stroke="#0058ad" points="228,-0.5 228,-29.5 "/>
<text text-anchor="middle" x="262" y="-11.3" font-family="Times,serif" font-size="14.00" fill="#0058ad">r 639 9</text>
</g>
<!-- T16757&#45;&gt;T16761 -->
<g id="edge1" class="edge">
<title>T16757:f0&#45;&gt;T16761:f2</title>
<path fill="none" stroke="#5b00c0" d="M76,-81C76,-62.05 86.78,-57.8 103,-48 133.57,-29.54 179.86,-61.65 189.29,-40.05"/>
<polygon fill="#5b00c0" stroke="#5b00c0" points="192.77,-40.45 191,-30 185.87,-39.27 192.77,-40.45"/>
<text text-anchor="middle" x="112.5" y="-51.8" font-family="Times,serif" font-size="14.00" fill="#5b00c0">rw</text>
</g>
<!-- T16761&#45;&gt;T16757 -->
<g id="edge2" class="edge">
<title>T16761:f0&#45;&gt;T16757:f1</title>
<path fill="none" stroke="#5b00c0" d="M38,-30C38,-68.18 88.9,-28.96 122,-48 135.69,-55.88 146.61,-59.57 150.48,-70.77"/>
<polygon fill="#5b00c0" stroke="#5b00c0" points="147.07,-71.62 152,-81 154,-70.59 147.07,-71.62"/>
<text text-anchor="middle" x="155.5" y="-51.8" font-family="Times,serif" font-size="14.00" fill="#5b00c0">rw</text>
</g>
</g>
</svg>
