<?xml version="1.0" encoding="UTF-8" standalone="no"?>
<!DOCTYPE svg PUBLIC "-//W3C//DTD SVG 1.1//EN"
 "http://www.w3.org/Graphics/SVG/1.1/DTD/svg11.dtd">
<!-- Generated by graphviz version 2.43.0 (0)
 -->
<!-- Title: a_graph Pages: 1 -->
<svg width="677pt" height="701pt"
 viewBox="0.00 0.00 677.00 701.00" xmlns="http://www.w3.org/2000/svg" xmlns:xlink="http://www.w3.org/1999/xlink">
<g id="graph0" class="graph" transform="scale(1 1) rotate(0) translate(4 697)">
<title>a_graph</title>
<polygon fill="white" stroke="transparent" points="-4,4 -4,-697 673,-697 673,4 -4,4"/>
<!-- T25442 -->
<g id="node1" class="node">
<title>T25442</title>
<polygon fill="none" stroke="#0058ad" points="524,-663.5 524,-692.5 669,-692.5 669,-663.5 524,-663.5"/>
<text text-anchor="middle" x="562.5" y="-674.3" font-family="Times,serif" font-size="14.00" fill="#0058ad">r 967 14</text>
<polyline fill="none" stroke="#0058ad" points="601,-663.5 601,-692.5 "/>
<text text-anchor="middle" x="635" y="-674.3" font-family="Times,serif" font-size="14.00" fill="#0058ad">r 966 2</text>
</g>
<!-- T25446 -->
<g id="node8" class="node">
<title>T25446</title>
<polygon fill="none" stroke="#0058ad" points="343,-582.5 343,-611.5 580,-611.5 580,-582.5 343,-582.5"/>
<text text-anchor="middle" x="381.5" y="-593.3" font-family="Times,serif" font-size="14.00" fill="#0058ad">r 967 14</text>
<polyline fill="none" stroke="#0058ad" points="420,-582.5 420,-611.5 "/>
<text text-anchor="middle" x="461.5" y="-593.3" font-family="Times,serif" font-size="14.00" fill="#0058ad">w 967 16</text>
<polyline fill="none" stroke="#0058ad" points="503,-582.5 503,-611.5 "/>
<text text-anchor="middle" x="541.5" y="-593.3" font-family="Times,serif" font-size="14.00" fill="#0058ad">r 970 nil</text>
</g>
<!-- T25442&#45;&gt;T25446 -->
<g id="edge1" class="edge">
<title>T25442:f0&#45;&gt;T25446:f1</title>
<path fill="none" stroke="#5b00c0" d="M522.5,-678C486.15,-678 465.44,-656.41 462.01,-622.42"/>
<polygon fill="#5b00c0" stroke="#5b00c0" points="465.48,-621.82 461.5,-612 458.49,-622.16 465.48,-621.82"/>
<text text-anchor="middle" x="477" y="-633.8" font-family="Times,serif" font-size="14.00" fill="#5b00c0">rw</text>
</g>
<!-- T25432 -->
<g id="node2" class="node">
<title>T25432</title>
<polygon fill="none" stroke="#0058ad" points="122,-81.5 122,-110.5 427,-110.5 427,-81.5 122,-81.5"/>
<text text-anchor="middle" x="160.5" y="-92.3" font-family="Times,serif" font-size="14.00" fill="#0058ad">r 957 15</text>
<polyline fill="none" stroke="#0058ad" points="199,-81.5 199,-110.5 "/>
<text text-anchor="middle" x="237.5" y="-92.3" font-family="Times,serif" font-size="14.00" fill="#0058ad">r 964 15</text>
<polyline fill="none" stroke="#0058ad" points="276,-81.5 276,-110.5 "/>
<text text-anchor="middle" x="314.5" y="-92.3" font-family="Times,serif" font-size="14.00" fill="#0058ad">r 964 15</text>
<polyline fill="none" stroke="#0058ad" points="353,-81.5 353,-110.5 "/>
<text text-anchor="middle" x="390" y="-92.3" font-family="Times,serif" font-size="14.00" fill="#0058ad">w 969 1</text>
</g>
<!-- T25437 -->
<g id="node4" class="node">
<title>T25437</title>
<polygon fill="none" stroke="#0058ad" points="316,-0.5 316,-29.5 627,-29.5 627,-0.5 316,-0.5"/>
<text text-anchor="middle" x="357.5" y="-11.3" font-family="Times,serif" font-size="14.00" fill="#0058ad">w 967 13</text>
<polyline fill="none" stroke="#0058ad" points="399,-0.5 399,-29.5 "/>
<text text-anchor="middle" x="433" y="-11.3" font-family="Times,serif" font-size="14.00" fill="#0058ad">r 969 1</text>
<polyline fill="none" stroke="#0058ad" points="467,-0.5 467,-29.5 "/>
<text text-anchor="middle" x="508.5" y="-11.3" font-family="Times,serif" font-size="14.00" fill="#0058ad">w 967 14</text>
<polyline fill="none" stroke="#0058ad" points="550,-0.5 550,-29.5 "/>
<text text-anchor="middle" x="588.5" y="-11.3" font-family="Times,serif" font-size="14.00" fill="#0058ad">r 967 14</text>
</g>
<!-- T25432&#45;&gt;T25437 -->
<g id="edge2" class="edge">
<title>T25432:f3&#45;&gt;T25437:f1</title>
<path fill="none" stroke="#c000a5" d="M390.5,-81C390.5,-55.54 422.08,-57.97 430.47,-39.91"/>
<polygon fill="#c000a5" stroke="#c000a5" points="433.93,-40.5 432.5,-30 427.07,-39.1 433.93,-40.5"/>
<text text-anchor="middle" x="433" y="-51.8" font-family="Times,serif" font-size="14.00" fill="#c000a5">wr</text>
</g>
<!-- T25491 -->
<g id="node3" class="node">
<title>T25491</title>
<polygon fill="none" stroke="#0058ad" points="58.5,-243.5 58.5,-272.5 224.5,-272.5 224.5,-243.5 58.5,-243.5"/>
<text text-anchor="middle" x="100" y="-254.3" font-family="Times,serif" font-size="14.00" fill="#0058ad">w 971 14</text>
<polyline fill="none" stroke="#0058ad" points="141.5,-243.5 141.5,-272.5 "/>
<text text-anchor="middle" x="183" y="-254.3" font-family="Times,serif" font-size="14.00" fill="#0058ad">w 971 15</text>
</g>
<!-- T25493 -->
<g id="node7" class="node">
<title>T25493</title>
<polygon fill="none" stroke="#0058ad" points="0,-162.5 0,-191.5 299,-191.5 299,-162.5 0,-162.5"/>
<text text-anchor="middle" x="34" y="-173.3" font-family="Times,serif" font-size="14.00" fill="#0058ad">r 970 1</text>
<polyline fill="none" stroke="#0058ad" points="68,-162.5 68,-191.5 "/>
<text text-anchor="middle" x="106.5" y="-173.3" font-family="Times,serif" font-size="14.00" fill="#0058ad">r 968 nil</text>
<polyline fill="none" stroke="#0058ad" points="145,-162.5 145,-191.5 "/>
<text text-anchor="middle" x="183.5" y="-173.3" font-family="Times,serif" font-size="14.00" fill="#0058ad">r 971 15</text>
<polyline fill="none" stroke="#0058ad" points="222,-162.5 222,-191.5 "/>
<text text-anchor="middle" x="260.5" y="-173.3" font-family="Times,serif" font-size="14.00" fill="#0058ad">r 969 nil</text>
</g>
<!-- T25491&#45;&gt;T25493 -->
<g id="edge3" class="edge">
<title>T25491:f1&#45;&gt;T25493:f2</title>
<path fill="none" stroke="#c000a5" d="M183.5,-243C183.5,-224.23 183.5,-217.12 183.5,-202.35"/>
<polygon fill="#c000a5" stroke="#c000a5" points="187,-202 183.5,-192 180,-202 187,-202"/>
<text text-anchor="middle" x="193" y="-213.8" font-family="Times,serif" font-size="14.00" fill="#c000a5">wr</text>
</g>
<!-- T25437&#45;&gt;T25442 -->
<g id="edge4" class="edge">
<title>T25437:f2&#45;&gt;T25442:f0</title>
<path fill="none" stroke="#c000a5" d="M508.5,-30C508.5,-56.5 608.5,-68.5 608.5,-95 608.5,-598 608.5,-598 608.5,-598 608.5,-629.66 571.69,-628.37 563.93,-653.08"/>
<polygon fill="#c000a5" stroke="#c000a5" points="560.46,-652.6 562.5,-663 567.39,-653.6 560.46,-652.6"/>
<text text-anchor="middle" x="618" y="-335.3" font-family="Times,serif" font-size="14.00" fill="#c000a5">wr</text>
</g>
<!-- T25437&#45;&gt;T25446 -->
<g id="edge5" class="edge">
<title>T25437:f2&#45;&gt;T25446:f0</title>
<path fill="none" stroke="#c000a5" d="M508.5,-30C508.5,-58.89 508.5,-66.11 508.5,-95 508.5,-517 508.5,-517 508.5,-517 508.5,-576.57 396.41,-525.62 382.84,-571.8"/>
<polygon fill="#c000a5" stroke="#c000a5" points="379.33,-571.63 381.5,-582 386.27,-572.54 379.33,-571.63"/>
<text text-anchor="middle" x="518" y="-294.8" font-family="Times,serif" font-size="14.00" fill="#c000a5">wr</text>
</g>
<!-- T25483 -->
<g id="node5" class="node">
<title>T25483</title>
<polygon fill="none" stroke="#0058ad" points="348,-372.5 348,-401.5 493,-401.5 493,-372.5 348,-372.5"/>
<text text-anchor="middle" x="386.5" y="-383.3" font-family="Times,serif" font-size="14.00" fill="#0058ad">r 969 nil</text>
<polyline fill="none" stroke="#0058ad" points="425,-372.5 425,-401.5 "/>
<text text-anchor="middle" x="459" y="-383.3" font-family="Times,serif" font-size="14.00" fill="#0058ad">r 970 1</text>
</g>
<!-- T25483&#45;&gt;T25432 -->
<g id="edge6" class="edge">
<title>T25483:f0&#45;&gt;T25432:f3</title>
<path fill="none" stroke="#5b00c0" d="M386.5,-372C386.5,-332.35 438.5,-339.15 438.5,-299.5 438.5,-299.5 438.5,-299.5 438.5,-176 438.5,-144.23 458.81,-105.9 438.43,-97.62"/>
<polygon fill="#5b00c0" stroke="#5b00c0" points="438.93,-94.16 428.5,-96 437.8,-101.07 438.93,-94.16"/>
<text text-anchor="middle" x="448" y="-254.3" font-family="Times,serif" font-size="14.00" fill="#5b00c0">rw</text>
</g>
<!-- T25489 -->
<g id="node6" class="node">
<title>T25489</title>
<polygon fill="none" stroke="#0058ad" points="242.5,-243.5 242.5,-272.5 402.5,-272.5 402.5,-243.5 242.5,-243.5"/>
<text text-anchor="middle" x="281" y="-254.3" font-family="Times,serif" font-size="14.00" fill="#0058ad">r 969 nil</text>
<polyline fill="none" stroke="#0058ad" points="319.5,-243.5 319.5,-272.5 "/>
<text text-anchor="middle" x="361" y="-254.3" font-family="Times,serif" font-size="14.00" fill="#0058ad">w 971 12</text>
</g>
<!-- T25489&#45;&gt;T25432 -->
<g id="edge7" class="edge">
<title>T25489:f0&#45;&gt;T25432:f3</title>
<path fill="none" stroke="#5b00c0" d="M280.5,-243C280.5,-170.21 380.43,-185.64 389.8,-121.12"/>
<polygon fill="#5b00c0" stroke="#5b00c0" points="393.3,-121.22 390.5,-111 386.32,-120.73 393.3,-121.22"/>
<text text-anchor="middle" x="372" y="-173.3" font-family="Times,serif" font-size="14.00" fill="#5b00c0">rw</text>
</g>
<!-- T25493&#45;&gt;T25432 -->
<g id="edge8" class="edge">
<title>T25493:f3&#45;&gt;T25432:f3</title>
<path fill="none" stroke="#5b00c0" d="M260.5,-162C260.5,-125.99 300.86,-141.86 334.5,-129 354.72,-121.27 379.86,-131.93 387.9,-120.97"/>
<polygon fill="#5b00c0" stroke="#5b00c0" points="391.36,-121.56 390.5,-111 384.59,-119.79 391.36,-121.56"/>
<text text-anchor="middle" x="344" y="-132.8" font-family="Times,serif" font-size="14.00" fill="#5b00c0">rw</text>
</g>
<!-- T25436 -->
<g id="node10" class="node">
<title>T25436</title>
<polygon fill="none" stroke="#0058ad" points="69,-501.5 69,-530.5 294,-530.5 294,-501.5 69,-501.5"/>
<text text-anchor="middle" x="107.5" y="-512.3" font-family="Times,serif" font-size="14.00" fill="#0058ad">r 967 12</text>
<polyline fill="none" stroke="#0058ad" points="146,-501.5 146,-530.5 "/>
<text text-anchor="middle" x="183" y="-512.3" font-family="Times,serif" font-size="14.00" fill="#0058ad">w 966 3</text>
<polyline fill="none" stroke="#0058ad" points="220,-501.5 220,-530.5 "/>
<text text-anchor="middle" x="257" y="-512.3" font-family="Times,serif" font-size="14.00" fill="#0058ad">w 970 1</text>
</g>
<!-- T25446&#45;&gt;T25436 -->
<g id="edge9" class="edge">
<title>T25446:f2&#45;&gt;T25436:f2</title>
<path fill="none" stroke="#5b00c0" d="M541.5,-582C541.5,-528.38 371.55,-517.12 305.51,-516.08"/>
<polygon fill="#5b00c0" stroke="#5b00c0" points="305.53,-512.58 295.5,-516 305.47,-519.58 305.53,-512.58"/>
<text text-anchor="middle" x="544" y="-552.8" font-family="Times,serif" font-size="14.00" fill="#5b00c0">rw</text>
</g>
<!-- T25452 -->
<g id="node9" class="node">
<title>T25452</title>
<polygon fill="none" stroke="#0058ad" points="145,-324.5 145,-353.5 296,-353.5 296,-324.5 145,-324.5"/>
<text text-anchor="middle" x="183.5" y="-335.3" font-family="Times,serif" font-size="14.00" fill="#0058ad">r 971 nil</text>
<polyline fill="none" stroke="#0058ad" points="222,-324.5 222,-353.5 "/>
<text text-anchor="middle" x="259" y="-335.3" font-family="Times,serif" font-size="14.00" fill="#0058ad">w 971 1</text>
</g>
<!-- T25452&#45;&gt;T25491 -->
<g id="edge10" class="edge">
<title>T25452:f0&#45;&gt;T25491:f1</title>
<path fill="none" stroke="#5b00c0" d="M183.5,-324C183.5,-305.23 183.5,-298.12 183.5,-283.35"/>
<polygon fill="#5b00c0" stroke="#5b00c0" points="187,-283 183.5,-273 180,-283 187,-283"/>
<text text-anchor="middle" x="193" y="-294.8" font-family="Times,serif" font-size="14.00" fill="#5b00c0">rw</text>
</g>
<!-- T25452&#45;&gt;T25489 -->
<g id="edge11" class="edge">
<title>T25452:f0&#45;&gt;T25489:f1</title>
<path fill="none" stroke="#5b00c0" d="M183.5,-324C183.5,-322.89 314.96,-286.97 351.93,-276.08"/>
<polygon fill="#5b00c0" stroke="#5b00c0" points="353.05,-279.39 361.5,-273 350.91,-272.73 353.05,-279.39"/>
<text text-anchor="middle" x="309" y="-294.8" font-family="Times,serif" font-size="14.00" fill="#5b00c0">rw</text>
</g>
<!-- T25436&#45;&gt;T25483 -->
<g id="edge14" class="edge">
<title>T25436:f2&#45;&gt;T25483:f1</title>
<path fill="none" stroke="#c000a5" d="M295.5,-516C380.8,-516 453.6,-492.7 459.16,-412.11"/>
<polygon fill="#c000a5" stroke="#c000a5" points="462.66,-412.11 459.5,-402 455.67,-411.88 462.66,-412.11"/>
<text text-anchor="middle" x="449" y="-471.8" font-family="Times,serif" font-size="14.00" fill="#c000a5">wr</text>
</g>
<!-- T25436&#45;&gt;T25493 -->
<g id="edge12" class="edge">
<title>T25436:f2&#45;&gt;T25493:f0</title>
<path fill="none" stroke="#c000a5" d="M257.5,-501C257.5,-396.06 30.5,-540.94 30.5,-436 30.5,-436 30.5,-436 30.5,-257 30.5,-231.81 32.78,-223.13 33.36,-202.19"/>
<polygon fill="#c000a5" stroke="#c000a5" points="36.87,-202.05 33.5,-192 29.87,-201.95 36.87,-202.05"/>
<text text-anchor="middle" x="40" y="-335.3" font-family="Times,serif" font-size="14.00" fill="#c000a5">wr</text>
</g>
<!-- T25453 -->
<g id="node11" class="node">
<title>T25453</title>
<polygon fill="none" stroke="#0058ad" points="79.5,-420.5 79.5,-449.5 369.5,-449.5 369.5,-420.5 79.5,-420.5"/>
<text text-anchor="middle" x="113.5" y="-431.3" font-family="Times,serif" font-size="14.00" fill="#0058ad">r 970 1</text>
<polyline fill="none" stroke="#0058ad" points="147.5,-420.5 147.5,-449.5 "/>
<text text-anchor="middle" x="186" y="-431.3" font-family="Times,serif" font-size="14.00" fill="#0058ad">r 971 nil</text>
<polyline fill="none" stroke="#0058ad" points="224.5,-420.5 224.5,-449.5 "/>
<text text-anchor="middle" x="258.5" y="-431.3" font-family="Times,serif" font-size="14.00" fill="#0058ad">r 966 3</text>
<polyline fill="none" stroke="#0058ad" points="292.5,-420.5 292.5,-449.5 "/>
<text text-anchor="middle" x="331" y="-431.3" font-family="Times,serif" font-size="14.00" fill="#0058ad">r 971 nil</text>
</g>
<!-- T25436&#45;&gt;T25453 -->
<g id="edge13" class="edge">
<title>T25436:f1&#45;&gt;T25453:f2</title>
<path fill="none" stroke="#c000a5" d="M183.5,-501C183.5,-464.63 244.57,-485.19 256.49,-459.94"/>
<polygon fill="#c000a5" stroke="#c000a5" points="259.95,-460.49 258.5,-450 253.09,-459.11 259.95,-460.49"/>
<text text-anchor="middle" x="258" y="-471.8" font-family="Times,serif" font-size="14.00" fill="#c000a5">wr</text>
</g>
<!-- T25453&#45;&gt;T25491 -->
<g id="edge15" class="edge">
<title>T25453:f1&#45;&gt;T25491:f1</title>
<path fill="none" stroke="#5b00c0" d="M185.5,-420C185.5,-377.56 133.17,-393.02 116.5,-354 111.26,-341.74 110.58,-335.95 116.5,-324 131.36,-294 173.25,-306.81 181.92,-283.06"/>
<polygon fill="#5b00c0" stroke="#5b00c0" points="185.4,-283.42 183.5,-273 178.49,-282.33 185.4,-283.42"/>
<text text-anchor="middle" x="126" y="-335.3" font-family="Times,serif" font-size="14.00" fill="#5b00c0">rw</text>
</g>
<!-- T25453&#45;&gt;T25489 -->
<g id="edge16" class="edge">
<title>T25453:f1&#45;&gt;T25489:f1</title>
<path fill="none" stroke="#5b00c0" d="M185.5,-420C185.5,-378.77 242.28,-425 276.5,-402 330.59,-365.65 358.58,-343.94 361.28,-283.11"/>
<polygon fill="#5b00c0" stroke="#5b00c0" points="364.78,-283.07 361.5,-273 357.79,-282.92 364.78,-283.07"/>
<text text-anchor="middle" x="363" y="-335.3" font-family="Times,serif" font-size="14.00" fill="#5b00c0">rw</text>
</g>
<!-- T25453&#45;&gt;T25452 -->
<g id="edge17" class="edge">
<title>T25453:f1&#45;&gt;T25452:f1</title>
<path fill="none" stroke="#5b00c0" d="M185.5,-420C185.5,-379.72 247.33,-394.75 257.95,-363.98"/>
<polygon fill="#5b00c0" stroke="#5b00c0" points="261.43,-364.42 259.5,-354 254.51,-363.35 261.43,-364.42"/>
<text text-anchor="middle" x="263" y="-383.3" font-family="Times,serif" font-size="14.00" fill="#5b00c0">rw</text>
</g>
</g>
</svg>
