<?xml version="1.0" encoding="UTF-8" standalone="no"?>
<!DOCTYPE svg PUBLIC "-//W3C//DTD SVG 1.1//EN"
 "http://www.w3.org/Graphics/SVG/1.1/DTD/svg11.dtd">
<!-- Generated by graphviz version 2.43.0 (0)
 -->
<!-- Title: a_graph Pages: 1 -->
<svg width="563pt" height="362pt"
 viewBox="0.00 0.00 562.50 362.00" xmlns="http://www.w3.org/2000/svg" xmlns:xlink="http://www.w3.org/1999/xlink">
<g id="graph0" class="graph" transform="scale(1 1) rotate(0) translate(4 358)">
<title>a_graph</title>
<polygon fill="white" stroke="transparent" points="-4,4 -4,-358 558.5,-358 558.5,4 -4,4"/>
<!-- T27866 -->
<g id="node1" class="node">
<title>T27866</title>
<polygon fill="none" stroke="#0058ad" points="279.5,-324.5 279.5,-353.5 534.5,-353.5 534.5,-324.5 279.5,-324.5"/>
<text text-anchor="middle" x="322.5" y="-335.3" font-family="Times,serif" font-size="14.00" fill="#0058ad">r 1064 nil</text>
<polyline fill="none" stroke="#0058ad" points="365.5,-324.5 365.5,-353.5 "/>
<text text-anchor="middle" x="407" y="-335.3" font-family="Times,serif" font-size="14.00" fill="#0058ad">w 1062 4</text>
<polyline fill="none" stroke="#0058ad" points="448.5,-324.5 448.5,-353.5 "/>
<text text-anchor="middle" x="491.5" y="-335.3" font-family="Times,serif" font-size="14.00" fill="#0058ad">r 1063 11</text>
</g>
<!-- T27881 -->
<g id="node3" class="node">
<title>T27881</title>
<polygon fill="none" stroke="#0058ad" points="196.5,-243.5 196.5,-272.5 445.5,-272.5 445.5,-243.5 196.5,-243.5"/>
<text text-anchor="middle" x="239.5" y="-254.3" font-family="Times,serif" font-size="14.00" fill="#0058ad">r 1064 nil</text>
<polyline fill="none" stroke="#0058ad" points="282.5,-243.5 282.5,-272.5 "/>
<text text-anchor="middle" x="325.5" y="-254.3" font-family="Times,serif" font-size="14.00" fill="#0058ad">r 1065 nil</text>
<polyline fill="none" stroke="#0058ad" points="368.5,-243.5 368.5,-272.5 "/>
<text text-anchor="middle" x="407" y="-254.3" font-family="Times,serif" font-size="14.00" fill="#0058ad">r 1062 4</text>
</g>
<!-- T27866&#45;&gt;T27881 -->
<g id="edge1" class="edge">
<title>T27866:f1&#45;&gt;T27881:f2</title>
<path fill="none" stroke="#c000a5" d="M407,-324C407,-305.23 407,-298.12 407,-283.35"/>
<polygon fill="#c000a5" stroke="#c000a5" points="410.5,-283 407,-273 403.5,-283 410.5,-283"/>
<text text-anchor="middle" x="416.5" y="-294.8" font-family="Times,serif" font-size="14.00" fill="#c000a5">wr</text>
</g>
<!-- T27847 -->
<g id="node4" class="node">
<title>T27847</title>
<polygon fill="none" stroke="#0058ad" points="0,-81.5 0,-110.5 326,-110.5 326,-81.5 0,-81.5"/>
<text text-anchor="middle" x="38.5" y="-92.3" font-family="Times,serif" font-size="14.00" fill="#0058ad">r 1063 4</text>
<polyline fill="none" stroke="#0058ad" points="77,-81.5 77,-110.5 "/>
<text text-anchor="middle" x="118.5" y="-92.3" font-family="Times,serif" font-size="14.00" fill="#0058ad">w 1064 1</text>
<polyline fill="none" stroke="#0058ad" points="160,-81.5 160,-110.5 "/>
<text text-anchor="middle" x="201.5" y="-92.3" font-family="Times,serif" font-size="14.00" fill="#0058ad">w 1060 5</text>
<polyline fill="none" stroke="#0058ad" points="243,-81.5 243,-110.5 "/>
<text text-anchor="middle" x="284.5" y="-92.3" font-family="Times,serif" font-size="14.00" fill="#0058ad">w 1063 5</text>
</g>
<!-- T27866&#45;&gt;T27847 -->
<g id="edge2" class="edge">
<title>T27866:f0&#45;&gt;T27847:f1</title>
<path fill="none" stroke="#5b00c0" d="M278,-339C186.29,-339 149.38,-305.8 106,-225 102.85,-219.13 105.63,-216.66 106,-210 108,-173.83 110.02,-164.88 115,-129 115.49,-125.49 116.12,-123.15 116.68,-120.96"/>
<polygon fill="#5b00c0" stroke="#5b00c0" points="120.16,-121.37 118,-111 113.22,-120.46 120.16,-121.37"/>
<text text-anchor="middle" x="115.5" y="-213.8" font-family="Times,serif" font-size="14.00" fill="#5b00c0">rw</text>
</g>
<!-- T27851 -->
<g id="node2" class="node">
<title>T27851</title>
<polygon fill="none" stroke="#0058ad" points="231.5,-0.5 231.5,-29.5 554.5,-29.5 554.5,-0.5 231.5,-0.5"/>
<text text-anchor="middle" x="270" y="-11.3" font-family="Times,serif" font-size="14.00" fill="#0058ad">r 1063 5</text>
<polyline fill="none" stroke="#0058ad" points="308.5,-0.5 308.5,-29.5 "/>
<text text-anchor="middle" x="350" y="-11.3" font-family="Times,serif" font-size="14.00" fill="#0058ad">w 1063 7</text>
<polyline fill="none" stroke="#0058ad" points="391.5,-0.5 391.5,-29.5 "/>
<text text-anchor="middle" x="430" y="-11.3" font-family="Times,serif" font-size="14.00" fill="#0058ad">r 1063 7</text>
<polyline fill="none" stroke="#0058ad" points="468.5,-0.5 468.5,-29.5 "/>
<text text-anchor="middle" x="511.5" y="-11.3" font-family="Times,serif" font-size="14.00" fill="#0058ad">r 1062 nil</text>
</g>
<!-- T27851&#45;&gt;T27866 -->
<g id="edge3" class="edge">
<title>T27851:f3&#45;&gt;T27866:f1</title>
<path fill="none" stroke="#5b00c0" d="M512,-30C512,-59.01 506,-65.99 506,-95 506,-259 506,-259 506,-259 506,-264.47 437.46,-301.28 414.44,-317.28"/>
<polygon fill="#5b00c0" stroke="#5b00c0" points="412.08,-314.7 407,-324 416.77,-319.9 412.08,-314.7"/>
<text text-anchor="middle" x="515.5" y="-173.3" font-family="Times,serif" font-size="14.00" fill="#5b00c0">rw</text>
</g>
<!-- T27881&#45;&gt;T27847 -->
<g id="edge5" class="edge">
<title>T27881:f0&#45;&gt;T27847:f1</title>
<path fill="none" stroke="#5b00c0" d="M195,-258C124.7,-258 118.46,-191.46 118.03,-121.36"/>
<polygon fill="#5b00c0" stroke="#5b00c0" points="121.53,-120.99 118,-111 114.53,-121.01 121.53,-120.99"/>
<text text-anchor="middle" x="133.5" y="-173.3" font-family="Times,serif" font-size="14.00" fill="#5b00c0">rw</text>
</g>
<!-- T27883 -->
<g id="node5" class="node">
<title>T27883</title>
<polygon fill="none" stroke="#0058ad" points="176,-162.5 176,-191.5 428,-191.5 428,-162.5 176,-162.5"/>
<text text-anchor="middle" x="217.5" y="-173.3" font-family="Times,serif" font-size="14.00" fill="#0058ad">w 1065 2</text>
<polyline fill="none" stroke="#0058ad" points="259,-162.5 259,-191.5 "/>
<text text-anchor="middle" x="302" y="-173.3" font-family="Times,serif" font-size="14.00" fill="#0058ad">r 1064 nil</text>
<polyline fill="none" stroke="#0058ad" points="345,-162.5 345,-191.5 "/>
<text text-anchor="middle" x="386.5" y="-173.3" font-family="Times,serif" font-size="14.00" fill="#0058ad">w 1065 3</text>
</g>
<!-- T27881&#45;&gt;T27883 -->
<g id="edge4" class="edge">
<title>T27881:f1&#45;&gt;T27883:f2</title>
<path fill="none" stroke="#5b00c0" d="M326,-243C326,-211.66 373.96,-223.59 384.83,-202.05"/>
<polygon fill="#5b00c0" stroke="#5b00c0" points="388.31,-202.51 387,-192 381.47,-201.04 388.31,-202.51"/>
<text text-anchor="middle" x="385.5" y="-213.8" font-family="Times,serif" font-size="14.00" fill="#5b00c0">rw</text>
</g>
<!-- T27847&#45;&gt;T27851 -->
<g id="edge6" class="edge">
<title>T27847:f3&#45;&gt;T27851:f0</title>
<path fill="none" stroke="#c000a5" d="M285,-81C285,-61.25 274.52,-55.39 271.08,-40.2"/>
<polygon fill="#c000a5" stroke="#c000a5" points="274.53,-39.58 270,-30 267.57,-40.31 274.53,-39.58"/>
<text text-anchor="middle" x="290.5" y="-51.8" font-family="Times,serif" font-size="14.00" fill="#c000a5">wr</text>
</g>
<!-- T27883&#45;&gt;T27847 -->
<g id="edge7" class="edge">
<title>T27883:f1&#45;&gt;T27847:f1</title>
<path fill="none" stroke="#5b00c0" d="M302,-162C302,-143.35 159.86,-134.48 125.44,-118.2"/>
<polygon fill="#5b00c0" stroke="#5b00c0" points="127.62,-115.44 118,-111 122.76,-120.47 127.62,-115.44"/>
<text text-anchor="middle" x="262.5" y="-132.8" font-family="Times,serif" font-size="14.00" fill="#5b00c0">rw</text>
</g>
</g>
</svg>
