<?xml version="1.0" encoding="UTF-8" standalone="no"?>
<!DOCTYPE svg PUBLIC "-//W3C//DTD SVG 1.1//EN"
 "http://www.w3.org/Graphics/SVG/1.1/DTD/svg11.dtd">
<!-- Generated by graphviz version 2.43.0 (0)
 -->
<!-- Title: a_graph Pages: 1 -->
<svg width="325pt" height="281pt"
 viewBox="0.00 0.00 325.00 281.00" xmlns="http://www.w3.org/2000/svg" xmlns:xlink="http://www.w3.org/1999/xlink">
<g id="graph0" class="graph" transform="scale(1 1) rotate(0) translate(4 277)">
<title>a_graph</title>
<polygon fill="white" stroke="transparent" points="-4,4 -4,-277 321,-277 321,4 -4,4"/>
<!-- T10795 -->
<g id="node1" class="node">
<title>T10795</title>
<polygon fill="none" stroke="#0058ad" points="0,-243.5 0,-272.5 317,-272.5 317,-243.5 0,-243.5"/>
<text text-anchor="middle" x="41.5" y="-254.3" font-family="Times,serif" font-size="14.00" fill="#0058ad">w 409 11</text>
<polyline fill="none" stroke="#0058ad" points="83,-243.5 83,-272.5 "/>
<text text-anchor="middle" x="120" y="-254.3" font-family="Times,serif" font-size="14.00" fill="#0058ad">w 413 9</text>
<polyline fill="none" stroke="#0058ad" points="157,-243.5 157,-272.5 "/>
<text text-anchor="middle" x="198.5" y="-254.3" font-family="Times,serif" font-size="14.00" fill="#0058ad">w 409 12</text>
<polyline fill="none" stroke="#0058ad" points="240,-243.5 240,-272.5 "/>
<text text-anchor="middle" x="278.5" y="-254.3" font-family="Times,serif" font-size="14.00" fill="#0058ad">r 409 12</text>
</g>
<!-- T10800 -->
<g id="node3" class="node">
<title>T10800</title>
<polygon fill="none" stroke="#0058ad" points="79,-162.5 79,-191.5 316,-191.5 316,-162.5 79,-162.5"/>
<text text-anchor="middle" x="120.5" y="-173.3" font-family="Times,serif" font-size="14.00" fill="#0058ad">w 413 10</text>
<polyline fill="none" stroke="#0058ad" points="162,-162.5 162,-191.5 "/>
<text text-anchor="middle" x="200.5" y="-173.3" font-family="Times,serif" font-size="14.00" fill="#0058ad">r 412 nil</text>
<polyline fill="none" stroke="#0058ad" points="239,-162.5 239,-191.5 "/>
<text text-anchor="middle" x="277.5" y="-173.3" font-family="Times,serif" font-size="14.00" fill="#0058ad">r 409 12</text>
</g>
<!-- T10795&#45;&gt;T10800 -->
<g id="edge1" class="edge">
<title>T10795:f2&#45;&gt;T10800:f2</title>
<path fill="none" stroke="#c000a5" d="M198.5,-243C198.5,-205.13 263.38,-228.34 275.55,-201.92"/>
<polygon fill="#c000a5" stroke="#c000a5" points="279,-202.49 277.5,-192 272.13,-201.14 279,-202.49"/>
<text text-anchor="middle" x="277" y="-213.8" font-family="Times,serif" font-size="14.00" fill="#c000a5">wr</text>
</g>
<!-- T10777 -->
<g id="node2" class="node">
<title>T10777</title>
<polygon fill="none" stroke="#0058ad" points="82,-81.5 82,-110.5 233,-110.5 233,-81.5 82,-81.5"/>
<text text-anchor="middle" x="120.5" y="-92.3" font-family="Times,serif" font-size="14.00" fill="#0058ad">r 413 nil</text>
<polyline fill="none" stroke="#0058ad" points="159,-81.5 159,-110.5 "/>
<text text-anchor="middle" x="196" y="-92.3" font-family="Times,serif" font-size="14.00" fill="#0058ad">w 412 1</text>
</g>
<!-- T10777&#45;&gt;T10795 -->
<g id="edge3" class="edge">
<title>T10777:f0&#45;&gt;T10795:f1</title>
<path fill="none" stroke="#5b00c0" d="M80.5,-96C35.8,-96 30.37,-152.09 50.5,-192 65.93,-222.59 109.33,-208.6 117.99,-233.1"/>
<polygon fill="#5b00c0" stroke="#5b00c0" points="114.53,-233.64 119.5,-243 121.45,-232.59 114.53,-233.64"/>
<text text-anchor="middle" x="60" y="-173.3" font-family="Times,serif" font-size="14.00" fill="#5b00c0">rw</text>
</g>
<!-- T10777&#45;&gt;T10800 -->
<g id="edge4" class="edge">
<title>T10777:f0&#45;&gt;T10800:f0</title>
<path fill="none" stroke="#5b00c0" d="M120.5,-111C120.5,-129.77 120.5,-136.88 120.5,-151.65"/>
<polygon fill="#5b00c0" stroke="#5b00c0" points="117,-152 120.5,-162 124,-152 117,-152"/>
<text text-anchor="middle" x="130" y="-132.8" font-family="Times,serif" font-size="14.00" fill="#5b00c0">rw</text>
</g>
<!-- T10783 -->
<g id="node4" class="node">
<title>T10783</title>
<polygon fill="none" stroke="#0058ad" points="86.5,-0.5 86.5,-29.5 314.5,-29.5 314.5,-0.5 86.5,-0.5"/>
<text text-anchor="middle" x="125" y="-11.3" font-family="Times,serif" font-size="14.00" fill="#0058ad">r 412 nil</text>
<polyline fill="none" stroke="#0058ad" points="163.5,-0.5 163.5,-29.5 "/>
<text text-anchor="middle" x="200.5" y="-11.3" font-family="Times,serif" font-size="14.00" fill="#0058ad">w 413 1</text>
<polyline fill="none" stroke="#0058ad" points="237.5,-0.5 237.5,-29.5 "/>
<text text-anchor="middle" x="276" y="-11.3" font-family="Times,serif" font-size="14.00" fill="#0058ad">r 412 nil</text>
</g>
<!-- T10777&#45;&gt;T10783 -->
<g id="edge2" class="edge">
<title>T10777:f0&#45;&gt;T10783:f1</title>
<path fill="none" stroke="#5b00c0" d="M120.5,-81C120.5,-62.33 131.22,-58.74 146.5,-48 163.48,-36.07 188.94,-48.62 197.54,-39.56"/>
<polygon fill="#5b00c0" stroke="#5b00c0" points="200.88,-40.59 200.5,-30 194.2,-38.52 200.88,-40.59"/>
<text text-anchor="middle" x="156" y="-51.8" font-family="Times,serif" font-size="14.00" fill="#5b00c0">rw</text>
</g>
<!-- T10800&#45;&gt;T10777 -->
<g id="edge5" class="edge">
<title>T10800:f1&#45;&gt;T10777:f1</title>
<path fill="none" stroke="#5b00c0" d="M200.5,-162C200.5,-143.17 197.76,-136.14 196.81,-121.37"/>
<polygon fill="#5b00c0" stroke="#5b00c0" points="200.3,-120.89 196.5,-111 193.3,-121.1 200.3,-120.89"/>
<text text-anchor="middle" x="208" y="-132.8" font-family="Times,serif" font-size="14.00" fill="#5b00c0">rw</text>
</g>
<!-- T10783&#45;&gt;T10777 -->
<g id="edge6" class="edge">
<title>T10783:f0&#45;&gt;T10777:f1</title>
<path fill="none" stroke="#5b00c0" d="M124.5,-30C124.5,-49.9 149.25,-36.52 165.5,-48 178.6,-57.25 190.51,-59.94 194.8,-70.83"/>
<polygon fill="#5b00c0" stroke="#5b00c0" points="191.4,-71.71 196.5,-81 198.31,-70.56 191.4,-71.71"/>
<text text-anchor="middle" x="198" y="-51.8" font-family="Times,serif" font-size="14.00" fill="#5b00c0">rw</text>
</g>
</g>
</svg>
