<?xml version="1.0" encoding="UTF-8" standalone="no"?>
<!DOCTYPE svg PUBLIC "-//W3C//DTD SVG 1.1//EN"
 "http://www.w3.org/Graphics/SVG/1.1/DTD/svg11.dtd">
<!-- Generated by graphviz version 2.43.0 (0)
 -->
<!-- Title: a_graph Pages: 1 -->
<svg width="804pt" height="605pt"
 viewBox="0.00 0.00 803.50 605.00" xmlns="http://www.w3.org/2000/svg" xmlns:xlink="http://www.w3.org/1999/xlink">
<g id="graph0" class="graph" transform="scale(1 1) rotate(0) translate(4 601)">
<title>a_graph</title>
<polygon fill="white" stroke="transparent" points="-4,4 -4,-601 799.5,-601 799.5,4 -4,4"/>
<!-- T31351 -->
<g id="node1" class="node">
<title>T31351</title>
<polygon fill="none" stroke="#0058ad" points="591.5,-567.5 591.5,-596.5 751.5,-596.5 751.5,-567.5 591.5,-567.5"/>
<text text-anchor="middle" x="633" y="-578.3" font-family="Times,serif" font-size="14.00" fill="#0058ad">w 1196 1</text>
<polyline fill="none" stroke="#0058ad" points="674.5,-567.5 674.5,-596.5 "/>
<text text-anchor="middle" x="713" y="-578.3" font-family="Times,serif" font-size="14.00" fill="#0058ad">r 1193 7</text>
</g>
<!-- T31356 -->
<g id="node9" class="node">
<title>T31356</title>
<polygon fill="none" stroke="#0058ad" points="114.5,-486.5 114.5,-515.5 274.5,-515.5 274.5,-486.5 114.5,-486.5"/>
<text text-anchor="middle" x="156" y="-497.3" font-family="Times,serif" font-size="14.00" fill="#0058ad">w 1197 1</text>
<polyline fill="none" stroke="#0058ad" points="197.5,-486.5 197.5,-515.5 "/>
<text text-anchor="middle" x="236" y="-497.3" font-family="Times,serif" font-size="14.00" fill="#0058ad">r 1196 1</text>
</g>
<!-- T31351&#45;&gt;T31356 -->
<g id="edge1" class="edge">
<title>T31351:f0&#45;&gt;T31356:f1</title>
<path fill="none" stroke="#c000a5" d="M590.5,-582C449.47,-582 421.39,-504.91 285.88,-501.14"/>
<polygon fill="#c000a5" stroke="#c000a5" points="285.55,-497.64 275.5,-501 285.45,-504.64 285.55,-497.64"/>
<text text-anchor="middle" x="457" y="-537.8" font-family="Times,serif" font-size="14.00" fill="#c000a5">wr</text>
</g>
<!-- T31371 -->
<g id="node2" class="node">
<title>T31371</title>
<polygon fill="none" stroke="#0058ad" points="117.5,-405.5 117.5,-434.5 363.5,-434.5 363.5,-405.5 117.5,-405.5"/>
<text text-anchor="middle" x="156" y="-416.3" font-family="Times,serif" font-size="14.00" fill="#0058ad">r 1197 1</text>
<polyline fill="none" stroke="#0058ad" points="194.5,-405.5 194.5,-434.5 "/>
<text text-anchor="middle" x="236" y="-416.3" font-family="Times,serif" font-size="14.00" fill="#0058ad">w 1196 6</text>
<polyline fill="none" stroke="#0058ad" points="277.5,-405.5 277.5,-434.5 "/>
<text text-anchor="middle" x="320.5" y="-416.3" font-family="Times,serif" font-size="14.00" fill="#0058ad">r 1194 nil</text>
</g>
<!-- T31341 -->
<g id="node3" class="node">
<title>T31341</title>
<polygon fill="none" stroke="#0058ad" points="288.5,-243.5 288.5,-272.5 540.5,-272.5 540.5,-243.5 288.5,-243.5"/>
<text text-anchor="middle" x="334.5" y="-254.3" font-family="Times,serif" font-size="14.00" fill="#0058ad">w 1195 15</text>
<polyline fill="none" stroke="#0058ad" points="380.5,-243.5 380.5,-272.5 "/>
<text text-anchor="middle" x="422" y="-254.3" font-family="Times,serif" font-size="14.00" fill="#0058ad">w 1194 2</text>
<polyline fill="none" stroke="#0058ad" points="463.5,-243.5 463.5,-272.5 "/>
<text text-anchor="middle" x="502" y="-254.3" font-family="Times,serif" font-size="14.00" fill="#0058ad">r 1193 3</text>
</g>
<!-- T31371&#45;&gt;T31341 -->
<g id="edge3" class="edge">
<title>T31371:f2&#45;&gt;T31341:f1</title>
<path fill="none" stroke="#5b00c0" d="M320.5,-405C320.5,-368.99 303.31,-354.47 322.5,-324 347.01,-285.08 411.31,-316.98 421.21,-283.11"/>
<polygon fill="#5b00c0" stroke="#5b00c0" points="424.71,-283.36 422.5,-273 417.77,-282.48 424.71,-283.36"/>
<text text-anchor="middle" x="332" y="-335.3" font-family="Times,serif" font-size="14.00" fill="#5b00c0">rw</text>
</g>
<!-- T31368 -->
<g id="node4" class="node">
<title>T31368</title>
<polygon fill="none" stroke="#0058ad" points="74.5,-81.5 74.5,-110.5 320.5,-110.5 320.5,-81.5 74.5,-81.5"/>
<text text-anchor="middle" x="116" y="-92.3" font-family="Times,serif" font-size="14.00" fill="#0058ad">w 1194 3</text>
<polyline fill="none" stroke="#0058ad" points="157.5,-81.5 157.5,-110.5 "/>
<text text-anchor="middle" x="200.5" y="-92.3" font-family="Times,serif" font-size="14.00" fill="#0058ad">r 1197 nil</text>
<polyline fill="none" stroke="#0058ad" points="243.5,-81.5 243.5,-110.5 "/>
<text text-anchor="middle" x="282" y="-92.3" font-family="Times,serif" font-size="14.00" fill="#0058ad">r 1193 6</text>
</g>
<!-- T31371&#45;&gt;T31368 -->
<g id="edge4" class="edge">
<title>T31371:f2&#45;&gt;T31368:f0</title>
<path fill="none" stroke="#5b00c0" d="M320.5,-405C320.5,-397.07 239.51,-297.15 234.5,-291 197.5,-245.59 178.05,-241.98 147.5,-192 129.21,-162.07 117.79,-151.65 115.81,-121.15"/>
<polygon fill="#5b00c0" stroke="#5b00c0" points="119.3,-120.89 115.5,-111 112.31,-121.1 119.3,-120.89"/>
<text text-anchor="middle" x="228" y="-254.3" font-family="Times,serif" font-size="14.00" fill="#5b00c0">rw</text>
</g>
<!-- T31303 -->
<g id="node6" class="node">
<title>T31303</title>
<polygon fill="none" stroke="#0058ad" points="350,-324.5 350,-353.5 685,-353.5 685,-324.5 350,-324.5"/>
<text text-anchor="middle" x="388.5" y="-335.3" font-family="Times,serif" font-size="14.00" fill="#0058ad">r 1190 9</text>
<polyline fill="none" stroke="#0058ad" points="427,-324.5 427,-353.5 "/>
<text text-anchor="middle" x="468.5" y="-335.3" font-family="Times,serif" font-size="14.00" fill="#0058ad">w 1194 1</text>
<polyline fill="none" stroke="#0058ad" points="510,-324.5 510,-353.5 "/>
<text text-anchor="middle" x="551.5" y="-335.3" font-family="Times,serif" font-size="14.00" fill="#0058ad">w 1193 3</text>
<polyline fill="none" stroke="#0058ad" points="593,-324.5 593,-353.5 "/>
<text text-anchor="middle" x="639" y="-335.3" font-family="Times,serif" font-size="14.00" fill="#0058ad">w 1190 14</text>
</g>
<!-- T31371&#45;&gt;T31303 -->
<g id="edge2" class="edge">
<title>T31371:f2&#45;&gt;T31303:f1</title>
<path fill="none" stroke="#5b00c0" d="M364.5,-420C415.72,-420 462.13,-410.15 467.9,-364.05"/>
<polygon fill="#5b00c0" stroke="#5b00c0" points="471.4,-364.19 468.5,-354 464.41,-363.77 471.4,-364.19"/>
<text text-anchor="middle" x="475" y="-375.8" font-family="Times,serif" font-size="14.00" fill="#5b00c0">rw</text>
</g>
<!-- T31345 -->
<g id="node7" class="node">
<title>T31345</title>
<polygon fill="none" stroke="#0058ad" points="156,-162.5 156,-191.5 497,-191.5 497,-162.5 156,-162.5"/>
<text text-anchor="middle" x="197.5" y="-173.3" font-family="Times,serif" font-size="14.00" fill="#0058ad">w 1193 6</text>
<polyline fill="none" stroke="#0058ad" points="239,-162.5 239,-191.5 "/>
<text text-anchor="middle" x="282" y="-173.3" font-family="Times,serif" font-size="14.00" fill="#0058ad">r 1195 15</text>
<polyline fill="none" stroke="#0058ad" points="325,-162.5 325,-191.5 "/>
<text text-anchor="middle" x="368" y="-173.3" font-family="Times,serif" font-size="14.00" fill="#0058ad">r 1195 15</text>
<polyline fill="none" stroke="#0058ad" points="411,-162.5 411,-191.5 "/>
<text text-anchor="middle" x="454" y="-173.3" font-family="Times,serif" font-size="14.00" fill="#0058ad">r 1195 15</text>
</g>
<!-- T31341&#45;&gt;T31345 -->
<g id="edge5" class="edge">
<title>T31341:f0&#45;&gt;T31345:f1</title>
<path fill="none" stroke="#c000a5" d="M287.5,-258C275.25,-258 279.23,-222.51 280.91,-202.1"/>
<polygon fill="#c000a5" stroke="#c000a5" points="284.41,-202.19 281.5,-192 277.43,-201.78 284.41,-202.19"/>
<text text-anchor="middle" x="289" y="-213.8" font-family="Times,serif" font-size="14.00" fill="#c000a5">wr</text>
</g>
<!-- T31347 -->
<g id="node8" class="node">
<title>T31347</title>
<polygon fill="none" stroke="#0058ad" points="515.5,-162.5 515.5,-191.5 773.5,-191.5 773.5,-162.5 515.5,-162.5"/>
<text text-anchor="middle" x="558.5" y="-173.3" font-family="Times,serif" font-size="14.00" fill="#0058ad">r 1195 15</text>
<polyline fill="none" stroke="#0058ad" points="601.5,-162.5 601.5,-191.5 "/>
<text text-anchor="middle" x="644.5" y="-173.3" font-family="Times,serif" font-size="14.00" fill="#0058ad">r 1196 nil</text>
<polyline fill="none" stroke="#0058ad" points="687.5,-162.5 687.5,-191.5 "/>
<text text-anchor="middle" x="730.5" y="-173.3" font-family="Times,serif" font-size="14.00" fill="#0058ad">r 1195 15</text>
</g>
<!-- T31341&#45;&gt;T31347 -->
<g id="edge6" class="edge">
<title>T31341:f0&#45;&gt;T31347:f0</title>
<path fill="none" stroke="#c000a5" d="M334.5,-243C334.5,-163.27 444.73,-242.42 506.5,-192 508.51,-190.36 509.19,-188.07 509.53,-185.78"/>
<polygon fill="#c000a5" stroke="#c000a5" points="512.62,-187.43 514.5,-177 506.53,-183.98 512.62,-187.43"/>
<text text-anchor="middle" x="460" y="-213.8" font-family="Times,serif" font-size="14.00" fill="#c000a5">wr</text>
</g>
<!-- T31368&#45;&gt;T31356 -->
<g id="edge7" class="edge">
<title>T31368:f1&#45;&gt;T31356:f0</title>
<path fill="none" stroke="#5b00c0" d="M200.5,-111C200.5,-128.02 89.5,-199.48 89.5,-216.5 89.5,-421 89.5,-421 89.5,-421 89.5,-454.21 79,-492.02 103.36,-499.63"/>
<polygon fill="#5b00c0" stroke="#5b00c0" points="103.12,-503.13 113.5,-501 104.06,-496.19 103.12,-503.13"/>
<text text-anchor="middle" x="99" y="-294.8" font-family="Times,serif" font-size="14.00" fill="#5b00c0">rw</text>
</g>
<!-- T31373 -->
<g id="node10" class="node">
<title>T31373</title>
<polygon fill="none" stroke="#0058ad" points="0,-0.5 0,-29.5 329,-29.5 329,-0.5 0,-0.5"/>
<text text-anchor="middle" x="43" y="-11.3" font-family="Times,serif" font-size="14.00" fill="#0058ad">r 1197 nil</text>
<polyline fill="none" stroke="#0058ad" points="86,-0.5 86,-29.5 "/>
<text text-anchor="middle" x="127.5" y="-11.3" font-family="Times,serif" font-size="14.00" fill="#0058ad">w 1197 2</text>
<polyline fill="none" stroke="#0058ad" points="169,-0.5 169,-29.5 "/>
<text text-anchor="middle" x="207.5" y="-11.3" font-family="Times,serif" font-size="14.00" fill="#0058ad">r 1196 5</text>
<polyline fill="none" stroke="#0058ad" points="246,-0.5 246,-29.5 "/>
<text text-anchor="middle" x="287.5" y="-11.3" font-family="Times,serif" font-size="14.00" fill="#0058ad">w 1197 3</text>
</g>
<!-- T31368&#45;&gt;T31373 -->
<g id="edge8" class="edge">
<title>T31368:f1&#45;&gt;T31373:f3</title>
<path fill="none" stroke="#5b00c0" d="M200.5,-81C200.5,-57.8 229.52,-74.8 249.5,-63 265.3,-53.67 280.75,-52.49 285.79,-40.02"/>
<polygon fill="#5b00c0" stroke="#5b00c0" points="289.27,-40.45 287.5,-30 282.37,-39.27 289.27,-40.45"/>
<text text-anchor="middle" x="289" y="-51.8" font-family="Times,serif" font-size="14.00" fill="#5b00c0">rw</text>
</g>
<!-- T31363 -->
<g id="node5" class="node">
<title>T31363</title>
<polygon fill="none" stroke="#0058ad" points="398.5,-81.5 398.5,-110.5 644.5,-110.5 644.5,-81.5 398.5,-81.5"/>
<text text-anchor="middle" x="437" y="-92.3" font-family="Times,serif" font-size="14.00" fill="#0058ad">r 1193 6</text>
<polyline fill="none" stroke="#0058ad" points="475.5,-81.5 475.5,-110.5 "/>
<text text-anchor="middle" x="517" y="-92.3" font-family="Times,serif" font-size="14.00" fill="#0058ad">w 1196 5</text>
<polyline fill="none" stroke="#0058ad" points="558.5,-81.5 558.5,-110.5 "/>
<text text-anchor="middle" x="601.5" y="-92.3" font-family="Times,serif" font-size="14.00" fill="#0058ad">r 1197 nil</text>
</g>
<!-- T31363&#45;&gt;T31356 -->
<g id="edge9" class="edge">
<title>T31363:f2&#45;&gt;T31356:f0</title>
<path fill="none" stroke="#5b00c0" d="M645.5,-96C713.09,-96 746.55,-104.77 782.5,-162 816.18,-215.62 738.5,-234.18 738.5,-297.5 738.5,-421 738.5,-421 738.5,-421 738.5,-451.3 234.6,-453.27 163.74,-479.59"/>
<polygon fill="#5b00c0" stroke="#5b00c0" points="161.24,-477.1 155.5,-486 165.54,-482.62 161.24,-477.1"/>
<text text-anchor="middle" x="748" y="-294.8" font-family="Times,serif" font-size="14.00" fill="#5b00c0">rw</text>
</g>
<!-- T31363&#45;&gt;T31373 -->
<g id="edge10" class="edge">
<title>T31363:f1&#45;&gt;T31373:f2</title>
<path fill="none" stroke="#c000a5" d="M516.5,-81C516.5,-48.72 253.94,-80.02 226.5,-63 215.38,-56.1 210.09,-50.26 208.27,-40.13"/>
<polygon fill="#c000a5" stroke="#c000a5" points="211.75,-39.71 207.5,-30 204.77,-40.24 211.75,-39.71"/>
<text text-anchor="middle" x="236" y="-51.8" font-family="Times,serif" font-size="14.00" fill="#c000a5">wr</text>
</g>
<!-- T31303&#45;&gt;T31341 -->
<g id="edge11" class="edge">
<title>T31303:f2&#45;&gt;T31341:f2</title>
<path fill="none" stroke="#c000a5" d="M551.5,-324C551.5,-296.5 513.98,-302.14 504.61,-282.93"/>
<polygon fill="#c000a5" stroke="#c000a5" points="508,-282.06 502.5,-273 501.15,-283.51 508,-282.06"/>
<text text-anchor="middle" x="551" y="-294.8" font-family="Times,serif" font-size="14.00" fill="#c000a5">wr</text>
</g>
<!-- T31345&#45;&gt;T31368 -->
<g id="edge12" class="edge">
<title>T31345:f0&#45;&gt;T31368:f2</title>
<path fill="none" stroke="#c000a5" d="M197.5,-162C197.5,-121.9 267.91,-149.04 280.56,-121.03"/>
<polygon fill="#c000a5" stroke="#c000a5" points="284.04,-121.48 282.5,-111 277.17,-120.16 284.04,-121.48"/>
<text text-anchor="middle" x="281" y="-132.8" font-family="Times,serif" font-size="14.00" fill="#c000a5">wr</text>
</g>
<!-- T31345&#45;&gt;T31363 -->
<g id="edge13" class="edge">
<title>T31345:f0&#45;&gt;T31363:f0</title>
<path fill="none" stroke="#c000a5" d="M197.5,-162C197.5,-140.08 273.62,-150.68 294.5,-144 339.22,-129.69 346.16,-100.5 387.5,-96.47"/>
<polygon fill="#c000a5" stroke="#c000a5" points="387.67,-99.96 397.5,-96 387.35,-92.97 387.67,-99.96"/>
<text text-anchor="middle" x="334" y="-132.8" font-family="Times,serif" font-size="14.00" fill="#c000a5">wr</text>
</g>
<!-- T31347&#45;&gt;T31351 -->
<g id="edge14" class="edge">
<title>T31347:f1&#45;&gt;T31351:f0</title>
<path fill="none" stroke="#5b00c0" d="M644.5,-192C644.5,-257.39 776.5,-191.61 776.5,-257 776.5,-502 776.5,-502 776.5,-502 776.5,-568.52 647.29,-504.33 633.66,-557.06"/>
<polygon fill="#5b00c0" stroke="#5b00c0" points="630.18,-556.66 632.5,-567 637.14,-557.47 630.18,-556.66"/>
<text text-anchor="middle" x="786" y="-375.8" font-family="Times,serif" font-size="14.00" fill="#5b00c0">rw</text>
</g>
<!-- T31347&#45;&gt;T31371 -->
<g id="edge15" class="edge">
<title>T31347:f1&#45;&gt;T31371:f1</title>
<path fill="none" stroke="#5b00c0" d="M644.5,-192C644.5,-215.23 244.89,-225.6 229.5,-243 184.09,-294.33 230.49,-329.39 235.13,-394.7"/>
<polygon fill="#5b00c0" stroke="#5b00c0" points="231.65,-395.13 235.5,-405 238.64,-394.88 231.65,-395.13"/>
<text text-anchor="middle" x="221" y="-294.8" font-family="Times,serif" font-size="14.00" fill="#5b00c0">rw</text>
</g>
<!-- T31347&#45;&gt;T31363 -->
<g id="edge16" class="edge">
<title>T31347:f1&#45;&gt;T31363:f1</title>
<path fill="none" stroke="#5b00c0" d="M644.5,-162C644.5,-104.59 532,-163.82 517.94,-120.99"/>
<polygon fill="#5b00c0" stroke="#5b00c0" points="521.39,-120.4 516.5,-111 514.46,-121.4 521.39,-120.4"/>
<text text-anchor="middle" x="647" y="-132.8" font-family="Times,serif" font-size="14.00" fill="#5b00c0">rw</text>
</g>
<!-- T31356&#45;&gt;T31371 -->
<g id="edge17" class="edge">
<title>T31356:f0&#45;&gt;T31371:f0</title>
<path fill="none" stroke="#c000a5" d="M155.5,-486C155.5,-467.23 155.5,-460.12 155.5,-445.35"/>
<polygon fill="#c000a5" stroke="#c000a5" points="159,-445 155.5,-435 152,-445 159,-445"/>
<text text-anchor="middle" x="165" y="-456.8" font-family="Times,serif" font-size="14.00" fill="#c000a5">wr</text>
</g>
<!-- T31373&#45;&gt;T31356 -->
<g id="edge18" class="edge">
<title>T31373:f0&#45;&gt;T31356:f0</title>
<path fill="none" stroke="#5b00c0" d="M42.5,-30C42.5,-58.89 42.5,-66.11 42.5,-95 42.5,-421 42.5,-421 42.5,-421 42.5,-431.5 84.56,-479.91 104.59,-495.88"/>
<polygon fill="#5b00c0" stroke="#5b00c0" points="103.09,-499.05 113.5,-501 106.58,-492.98 103.09,-499.05"/>
<text text-anchor="middle" x="52" y="-254.3" font-family="Times,serif" font-size="14.00" fill="#5b00c0">rw</text>
</g>
</g>
</svg>
