<?xml version="1.0" encoding="UTF-8" standalone="no"?>
<!DOCTYPE svg PUBLIC "-//W3C//DTD SVG 1.1//EN"
 "http://www.w3.org/Graphics/SVG/1.1/DTD/svg11.dtd">
<!-- Generated by graphviz version 2.43.0 (0)
 -->
<!-- Title: a_graph Pages: 1 -->
<svg width="268pt" height="119pt"
 viewBox="0.00 0.00 268.00 119.00" xmlns="http://www.w3.org/2000/svg" xmlns:xlink="http://www.w3.org/1999/xlink">
<g id="graph0" class="graph" transform="scale(1 1) rotate(0) translate(4 115)">
<title>a_graph</title>
<polygon fill="white" stroke="transparent" points="-4,4 -4,-115 264,-115 264,4 -4,4"/>
<!-- T27623 -->
<g id="node1" class="node">
<title>T27623</title>
<polygon fill="none" stroke="#0058ad" points="0,-81.5 0,-110.5 255,-110.5 255,-81.5 0,-81.5"/>
<text text-anchor="middle" x="43" y="-92.3" font-family="Times,serif" font-size="14.00" fill="#0058ad">r 1048 10</text>
<polyline fill="none" stroke="#0058ad" points="86,-81.5 86,-110.5 "/>
<text text-anchor="middle" x="129" y="-92.3" font-family="Times,serif" font-size="14.00" fill="#0058ad">r 1053 nil</text>
<polyline fill="none" stroke="#0058ad" points="172,-81.5 172,-110.5 "/>
<text text-anchor="middle" x="213.5" y="-92.3" font-family="Times,serif" font-size="14.00" fill="#0058ad">w 1053 2</text>
</g>
<!-- T27622 -->
<g id="node2" class="node">
<title>T27622</title>
<polygon fill="none" stroke="#0058ad" points="5,-0.5 5,-29.5 260,-29.5 260,-0.5 5,-0.5"/>
<text text-anchor="middle" x="48" y="-11.3" font-family="Times,serif" font-size="14.00" fill="#0058ad">r 1037 12</text>
<polyline fill="none" stroke="#0058ad" points="91,-0.5 91,-29.5 "/>
<text text-anchor="middle" x="134" y="-11.3" font-family="Times,serif" font-size="14.00" fill="#0058ad">r 1053 nil</text>
<polyline fill="none" stroke="#0058ad" points="177,-0.5 177,-29.5 "/>
<text text-anchor="middle" x="218.5" y="-11.3" font-family="Times,serif" font-size="14.00" fill="#0058ad">w 1053 1</text>
</g>
<!-- T27623&#45;&gt;T27622 -->
<g id="edge1" class="edge">
<title>T27623:f1&#45;&gt;T27622:f2</title>
<path fill="none" stroke="#5b00c0" d="M129.5,-81C129.5,-60.57 144.12,-58.74 161.5,-48 180.22,-36.44 207.02,-49.9 215.69,-39.78"/>
<polygon fill="#5b00c0" stroke="#5b00c0" points="219.1,-40.58 218.5,-30 212.37,-38.64 219.1,-40.58"/>
<text text-anchor="middle" x="171" y="-51.8" font-family="Times,serif" font-size="14.00" fill="#5b00c0">rw</text>
</g>
<!-- T27622&#45;&gt;T27623 -->
<g id="edge2" class="edge">
<title>T27622:f1&#45;&gt;T27623:f2</title>
<path fill="none" stroke="#5b00c0" d="M134.5,-30C134.5,-51.95 162.13,-35.98 180.5,-48 194.47,-57.14 207.32,-59.51 211.81,-70.89"/>
<polygon fill="#5b00c0" stroke="#5b00c0" points="208.4,-71.71 213.5,-81 215.31,-70.56 208.4,-71.71"/>
<text text-anchor="middle" x="215" y="-51.8" font-family="Times,serif" font-size="14.00" fill="#5b00c0">rw</text>
</g>
</g>
</svg>
