<?xml version="1.0" encoding="UTF-8" standalone="no"?>
<!DOCTYPE svg PUBLIC "-//W3C//DTD SVG 1.1//EN"
 "http://www.w3.org/Graphics/SVG/1.1/DTD/svg11.dtd">
<!-- Generated by graphviz version 2.43.0 (0)
 -->
<!-- Title: a_graph Pages: 1 -->
<svg width="379pt" height="200pt"
 viewBox="0.00 0.00 379.00 200.00" xmlns="http://www.w3.org/2000/svg" xmlns:xlink="http://www.w3.org/1999/xlink">
<g id="graph0" class="graph" transform="scale(1 1) rotate(0) translate(4 196)">
<title>a_graph</title>
<polygon fill="white" stroke="transparent" points="-4,4 -4,-196 375,-196 375,4 -4,4"/>
<!-- T2403 -->
<g id="node1" class="node">
<title>T2403</title>
<polygon fill="none" stroke="#0058ad" points="113,-162.5 113,-191.5 311,-191.5 311,-162.5 113,-162.5"/>
<text text-anchor="middle" x="145.5" y="-173.3" font-family="Times,serif" font-size="14.00" fill="#0058ad">w 98 1</text>
<polyline fill="none" stroke="#0058ad" points="178,-162.5 178,-191.5 "/>
<text text-anchor="middle" x="212" y="-173.3" font-family="Times,serif" font-size="14.00" fill="#0058ad">r 96 nil</text>
<polyline fill="none" stroke="#0058ad" points="246,-162.5 246,-191.5 "/>
<text text-anchor="middle" x="278.5" y="-173.3" font-family="Times,serif" font-size="14.00" fill="#0058ad">w 98 2</text>
</g>
<!-- T2399 -->
<g id="node3" class="node">
<title>T2399</title>
<polygon fill="none" stroke="#0058ad" points="0,-81.5 0,-110.5 260,-110.5 260,-81.5 0,-81.5"/>
<text text-anchor="middle" x="29.5" y="-92.3" font-family="Times,serif" font-size="14.00" fill="#0058ad">r 95 2</text>
<polyline fill="none" stroke="#0058ad" points="59,-81.5 59,-110.5 "/>
<text text-anchor="middle" x="93" y="-92.3" font-family="Times,serif" font-size="14.00" fill="#0058ad">r 96 nil</text>
<polyline fill="none" stroke="#0058ad" points="127,-81.5 127,-110.5 "/>
<text text-anchor="middle" x="159.5" y="-92.3" font-family="Times,serif" font-size="14.00" fill="#0058ad">w 96 1</text>
<polyline fill="none" stroke="#0058ad" points="192,-81.5 192,-110.5 "/>
<text text-anchor="middle" x="226" y="-92.3" font-family="Times,serif" font-size="14.00" fill="#0058ad">r 94 12</text>
</g>
<!-- T2403&#45;&gt;T2399 -->
<g id="edge1" class="edge">
<title>T2403:f1&#45;&gt;T2399:f2</title>
<path fill="none" stroke="#5b00c0" d="M212,-162C212,-133.55 171.83,-140.72 162.1,-120.9"/>
<polygon fill="#5b00c0" stroke="#5b00c0" points="165.5,-120.05 160,-111 158.66,-121.51 165.5,-120.05"/>
<text text-anchor="middle" x="212.5" y="-132.8" font-family="Times,serif" font-size="14.00" fill="#5b00c0">rw</text>
</g>
<!-- T2410 -->
<g id="node2" class="node">
<title>T2410</title>
<polygon fill="none" stroke="#0058ad" points="185,-0.5 185,-29.5 371,-29.5 371,-0.5 185,-0.5"/>
<text text-anchor="middle" x="214.5" y="-11.3" font-family="Times,serif" font-size="14.00" fill="#0058ad">r 96 1</text>
<polyline fill="none" stroke="#0058ad" points="244,-0.5 244,-29.5 "/>
<text text-anchor="middle" x="278" y="-11.3" font-family="Times,serif" font-size="14.00" fill="#0058ad">r 98 nil</text>
<polyline fill="none" stroke="#0058ad" points="312,-0.5 312,-29.5 "/>
<text text-anchor="middle" x="341.5" y="-11.3" font-family="Times,serif" font-size="14.00" fill="#0058ad">r 95 2</text>
</g>
<!-- T2410&#45;&gt;T2403 -->
<g id="edge2" class="edge">
<title>T2410:f1&#45;&gt;T2403:f2</title>
<path fill="none" stroke="#5b00c0" d="M278,-30C278,-85.12 278.88,-101.39 278.99,-151.81"/>
<polygon fill="#5b00c0" stroke="#5b00c0" points="275.49,-152 279,-162 282.49,-152 275.49,-152"/>
<text text-anchor="middle" x="287.5" y="-92.3" font-family="Times,serif" font-size="14.00" fill="#5b00c0">rw</text>
</g>
<!-- T2399&#45;&gt;T2410 -->
<g id="edge3" class="edge">
<title>T2399:f2&#45;&gt;T2410:f0</title>
<path fill="none" stroke="#c000a5" d="M160,-81C160,-53.69 154.48,-23.64 174.01,-16.56"/>
<polygon fill="#c000a5" stroke="#c000a5" points="174.66,-20 184,-15 173.58,-13.08 174.66,-20"/>
<text text-anchor="middle" x="169.5" y="-51.8" font-family="Times,serif" font-size="14.00" fill="#c000a5">wr</text>
</g>
</g>
</svg>
