<?xml version="1.0" encoding="UTF-8" standalone="no"?>
<!DOCTYPE svg PUBLIC "-//W3C//DTD SVG 1.1//EN"
 "http://www.w3.org/Graphics/SVG/1.1/DTD/svg11.dtd">
<!-- Generated by graphviz version 2.43.0 (0)
 -->
<!-- Title: a_graph Pages: 1 -->
<svg width="264pt" height="119pt"
 viewBox="0.00 0.00 264.00 119.00" xmlns="http://www.w3.org/2000/svg" xmlns:xlink="http://www.w3.org/1999/xlink">
<g id="graph0" class="graph" transform="scale(1 1) rotate(0) translate(4 115)">
<title>a_graph</title>
<polygon fill="white" stroke="transparent" points="-4,4 -4,-115 260,-115 260,4 -4,4"/>
<!-- T1720 -->
<g id="node1" class="node">
<title>T1720</title>
<polygon fill="none" stroke="#0058ad" points="64,-81.5 64,-110.5 256,-110.5 256,-81.5 64,-81.5"/>
<text text-anchor="middle" x="98" y="-92.3" font-family="Times,serif" font-size="14.00" fill="#0058ad">r 71 nil</text>
<polyline fill="none" stroke="#0058ad" points="132,-81.5 132,-110.5 "/>
<text text-anchor="middle" x="164.5" y="-92.3" font-family="Times,serif" font-size="14.00" fill="#0058ad">w 71 2</text>
<polyline fill="none" stroke="#0058ad" points="197,-81.5 197,-110.5 "/>
<text text-anchor="middle" x="226.5" y="-92.3" font-family="Times,serif" font-size="14.00" fill="#0058ad">r 71 2</text>
</g>
<!-- T1716 -->
<g id="node2" class="node">
<title>T1716</title>
<polygon fill="none" stroke="#0058ad" points="0,-0.5 0,-29.5 198,-29.5 198,-0.5 0,-0.5"/>
<text text-anchor="middle" x="32.5" y="-11.3" font-family="Times,serif" font-size="14.00" fill="#0058ad">w 70 3</text>
<polyline fill="none" stroke="#0058ad" points="65,-0.5 65,-29.5 "/>
<text text-anchor="middle" x="99" y="-11.3" font-family="Times,serif" font-size="14.00" fill="#0058ad">r 71 nil</text>
<polyline fill="none" stroke="#0058ad" points="133,-0.5 133,-29.5 "/>
<text text-anchor="middle" x="165.5" y="-11.3" font-family="Times,serif" font-size="14.00" fill="#0058ad">w 71 1</text>
</g>
<!-- T1720&#45;&gt;T1716 -->
<g id="edge1" class="edge">
<title>T1720:f0&#45;&gt;T1716:f2</title>
<path fill="none" stroke="#5b00c0" d="M98,-81C98,-63.85 104.8,-58.95 118,-48 131.84,-36.52 153.72,-46.14 162.34,-39.51"/>
<polygon fill="#5b00c0" stroke="#5b00c0" points="165.68,-40.59 166,-30 159.14,-38.08 165.68,-40.59"/>
<text text-anchor="middle" x="127.5" y="-51.8" font-family="Times,serif" font-size="14.00" fill="#5b00c0">rw</text>
</g>
<!-- T1716&#45;&gt;T1720 -->
<g id="edge2" class="edge">
<title>T1716:f1&#45;&gt;T1720:f1</title>
<path fill="none" stroke="#5b00c0" d="M99,-30C99,-48.69 122.18,-36.62 137,-48 149.04,-57.24 159.51,-60.47 163.39,-70.87"/>
<polygon fill="#5b00c0" stroke="#5b00c0" points="159.98,-71.67 165,-81 166.89,-70.58 159.98,-71.67"/>
<text text-anchor="middle" x="166.5" y="-51.8" font-family="Times,serif" font-size="14.00" fill="#5b00c0">rw</text>
</g>
</g>
</svg>
