<?xml version="1.0" encoding="UTF-8" standalone="no"?>
<!DOCTYPE svg PUBLIC "-//W3C//DTD SVG 1.1//EN"
 "http://www.w3.org/Graphics/SVG/1.1/DTD/svg11.dtd">
<!-- Generated by graphviz version 2.43.0 (0)
 -->
<!-- Title: a_graph Pages: 1 -->
<svg width="786pt" height="281pt"
 viewBox="0.00 0.00 785.65 281.00" xmlns="http://www.w3.org/2000/svg" xmlns:xlink="http://www.w3.org/1999/xlink">
<g id="graph0" class="graph" transform="scale(1 1) rotate(0) translate(4 277)">
<title>a_graph</title>
<polygon fill="white" stroke="transparent" points="-4,4 -4,-277 781.65,-277 781.65,4 -4,4"/>
<!-- T26937 -->
<g id="node1" class="node">
<title>T26937</title>
<polygon fill="none" stroke="#0058ad" points="188.65,-243.5 188.65,-272.5 455.65,-272.5 455.65,-243.5 188.65,-243.5"/>
<text text-anchor="middle" x="234.65" y="-254.3" font-family="Times,serif" font-size="14.00" fill="#0058ad">w 1022 13</text>
<polyline fill="none" stroke="#0058ad" points="280.65,-243.5 280.65,-272.5 "/>
<text text-anchor="middle" x="326.65" y="-254.3" font-family="Times,serif" font-size="14.00" fill="#0058ad">w 1022 14</text>
<polyline fill="none" stroke="#0058ad" points="372.65,-243.5 372.65,-272.5 "/>
<text text-anchor="middle" x="414.15" y="-254.3" font-family="Times,serif" font-size="14.00" fill="#0058ad">w 1023 6</text>
</g>
<!-- T26953 -->
<g id="node3" class="node">
<title>T26953</title>
<polygon fill="none" stroke="#0058ad" points="204.15,-162.5 204.15,-191.5 444.15,-191.5 444.15,-162.5 204.15,-162.5"/>
<text text-anchor="middle" x="242.65" y="-173.3" font-family="Times,serif" font-size="14.00" fill="#0058ad">r 1023 6</text>
<polyline fill="none" stroke="#0058ad" points="281.15,-162.5 281.15,-191.5 "/>
<text text-anchor="middle" x="324.15" y="-173.3" font-family="Times,serif" font-size="14.00" fill="#0058ad">r 1027 nil</text>
<polyline fill="none" stroke="#0058ad" points="367.15,-162.5 367.15,-191.5 "/>
<text text-anchor="middle" x="405.65" y="-173.3" font-family="Times,serif" font-size="14.00" fill="#0058ad">r 1023 6</text>
</g>
<!-- T26937&#45;&gt;T26953 -->
<g id="edge2" class="edge">
<title>T26937:f2&#45;&gt;T26953:f0</title>
<path fill="none" stroke="#c000a5" d="M414.15,-243C414.15,-167 257.89,-261.98 243.24,-202.01"/>
<polygon fill="#c000a5" stroke="#c000a5" points="246.72,-201.56 242.15,-192 239.76,-202.32 246.72,-201.56"/>
<text text-anchor="middle" x="418.65" y="-213.8" font-family="Times,serif" font-size="14.00" fill="#c000a5">wr</text>
</g>
<!-- T26943 -->
<g id="node5" class="node">
<title>T26943</title>
<polygon fill="none" stroke="#0058ad" points="14.15,-162.5 14.15,-191.5 186.15,-191.5 186.15,-162.5 14.15,-162.5"/>
<text text-anchor="middle" x="57.15" y="-173.3" font-family="Times,serif" font-size="14.00" fill="#0058ad">r 1022 14</text>
<polyline fill="none" stroke="#0058ad" points="100.15,-162.5 100.15,-191.5 "/>
<text text-anchor="middle" x="143.15" y="-173.3" font-family="Times,serif" font-size="14.00" fill="#0058ad">r 1027 nil</text>
</g>
<!-- T26937&#45;&gt;T26943 -->
<g id="edge1" class="edge">
<title>T26937:f1&#45;&gt;T26943:f0</title>
<path fill="none" stroke="#c000a5" d="M327.15,-243C327.15,-219.55 246.21,-229.29 223.15,-225 152.8,-211.92 66.09,-261.92 57.79,-202.1"/>
<polygon fill="#c000a5" stroke="#c000a5" points="61.28,-201.76 57.15,-192 54.29,-202.2 61.28,-201.76"/>
<text text-anchor="middle" x="232.65" y="-213.8" font-family="Times,serif" font-size="14.00" fill="#c000a5">wr</text>
</g>
<!-- T26941 -->
<g id="node2" class="node">
<title>T26941</title>
<polygon fill="none" stroke="#0058ad" points="522.65,-0.5 522.65,-29.5 777.65,-29.5 777.65,-0.5 522.65,-0.5"/>
<text text-anchor="middle" x="565.65" y="-11.3" font-family="Times,serif" font-size="14.00" fill="#0058ad">r 1022 11</text>
<polyline fill="none" stroke="#0058ad" points="608.65,-0.5 608.65,-29.5 "/>
<text text-anchor="middle" x="651.65" y="-11.3" font-family="Times,serif" font-size="14.00" fill="#0058ad">r 1023 nil</text>
<polyline fill="none" stroke="#0058ad" points="694.65,-0.5 694.65,-29.5 "/>
<text text-anchor="middle" x="736.15" y="-11.3" font-family="Times,serif" font-size="14.00" fill="#0058ad">w 1025 3</text>
</g>
<!-- T26941&#45;&gt;T26937 -->
<g id="edge3" class="edge">
<title>T26941:f1&#45;&gt;T26937:f2</title>
<path fill="none" stroke="#5b00c0" d="M652.15,-30C652.15,-72.05 577.13,-247.3 467.19,-257.53"/>
<polygon fill="#5b00c0" stroke="#5b00c0" points="466.97,-254.04 457.15,-258 467.3,-261.03 466.97,-254.04"/>
<text text-anchor="middle" x="624.65" y="-132.8" font-family="Times,serif" font-size="14.00" fill="#5b00c0">rw</text>
</g>
<!-- T26939 -->
<g id="node4" class="node">
<title>T26939</title>
<polygon fill="none" stroke="#0058ad" points="163.65,-0.5 163.65,-29.5 504.65,-29.5 504.65,-0.5 163.65,-0.5"/>
<text text-anchor="middle" x="206.65" y="-11.3" font-family="Times,serif" font-size="14.00" fill="#0058ad">r 1022 11</text>
<polyline fill="none" stroke="#0058ad" points="249.65,-0.5 249.65,-29.5 "/>
<text text-anchor="middle" x="292.65" y="-11.3" font-family="Times,serif" font-size="14.00" fill="#0058ad">r 1022 11</text>
<polyline fill="none" stroke="#0058ad" points="335.65,-0.5 335.65,-29.5 "/>
<text text-anchor="middle" x="377.15" y="-11.3" font-family="Times,serif" font-size="14.00" fill="#0058ad">w 1027 3</text>
<polyline fill="none" stroke="#0058ad" points="418.65,-0.5 418.65,-29.5 "/>
<text text-anchor="middle" x="461.65" y="-11.3" font-family="Times,serif" font-size="14.00" fill="#0058ad">r 1023 nil</text>
</g>
<!-- T26953&#45;&gt;T26939 -->
<g id="edge5" class="edge">
<title>T26953:f1&#45;&gt;T26939:f2</title>
<path fill="none" stroke="#5b00c0" d="M324.15,-162C324.15,-128.01 363.3,-139.93 381.15,-111 396.16,-86.67 404.71,-74.57 394.15,-48 391.86,-42.25 386.77,-40.75 382.75,-38.59"/>
<polygon fill="#5b00c0" stroke="#5b00c0" points="385.54,-36.46 377.15,-30 379.68,-40.29 385.54,-36.46"/>
<text text-anchor="middle" x="405.65" y="-92.3" font-family="Times,serif" font-size="14.00" fill="#5b00c0">rw</text>
</g>
<!-- T26929 -->
<g id="node6" class="node">
<title>T26929</title>
<polygon fill="none" stroke="#0058ad" points="34.15,-81.5 34.15,-110.5 372.15,-110.5 372.15,-81.5 34.15,-81.5"/>
<text text-anchor="middle" x="77.15" y="-92.3" font-family="Times,serif" font-size="14.00" fill="#0058ad">r 1027 nil</text>
<polyline fill="none" stroke="#0058ad" points="120.15,-81.5 120.15,-110.5 "/>
<text text-anchor="middle" x="161.65" y="-92.3" font-family="Times,serif" font-size="14.00" fill="#0058ad">w 1027 1</text>
<polyline fill="none" stroke="#0058ad" points="203.15,-81.5 203.15,-110.5 "/>
<text text-anchor="middle" x="249.15" y="-92.3" font-family="Times,serif" font-size="14.00" fill="#0058ad">w 1022 11</text>
<polyline fill="none" stroke="#0058ad" points="295.15,-81.5 295.15,-110.5 "/>
<text text-anchor="middle" x="333.65" y="-92.3" font-family="Times,serif" font-size="14.00" fill="#0058ad">r 1027 1</text>
</g>
<!-- T26953&#45;&gt;T26929 -->
<g id="edge4" class="edge">
<title>T26953:f1&#45;&gt;T26929:f1</title>
<path fill="none" stroke="#5b00c0" d="M324.15,-162C324.15,-127.75 191.43,-144.69 165.51,-120.44"/>
<polygon fill="#5b00c0" stroke="#5b00c0" points="168.52,-118.61 161.15,-111 162.16,-121.55 168.52,-118.61"/>
<text text-anchor="middle" x="309.65" y="-132.8" font-family="Times,serif" font-size="14.00" fill="#5b00c0">rw</text>
</g>
<!-- T26939&#45;&gt;T26937 -->
<g id="edge6" class="edge">
<title>T26939:f3&#45;&gt;T26937:f2</title>
<path fill="none" stroke="#5b00c0" d="M462.15,-30C462.15,-127.7 551.67,-248.88 467.37,-257.51"/>
<polygon fill="#5b00c0" stroke="#5b00c0" points="466.97,-254.03 457.15,-258 467.3,-261.02 466.97,-254.03"/>
<text text-anchor="middle" x="494.65" y="-132.8" font-family="Times,serif" font-size="14.00" fill="#5b00c0">rw</text>
</g>
<!-- T26943&#45;&gt;T26939 -->
<g id="edge8" class="edge">
<title>T26943:f1&#45;&gt;T26939:f2</title>
<path fill="none" stroke="#5b00c0" d="M143.15,-162C143.15,-97.03 43.22,-164.36 6.15,-111 -1.46,-100.05 -2.47,-91.18 6.15,-81 63.5,-13.24 115.17,-59.91 203.15,-48 219.77,-45.75 337.37,-48.46 369.21,-36.73"/>
<polygon fill="#5b00c0" stroke="#5b00c0" points="371.78,-39.14 377.15,-30 367.26,-33.8 371.78,-39.14"/>
<text text-anchor="middle" x="15.65" y="-92.3" font-family="Times,serif" font-size="14.00" fill="#5b00c0">rw</text>
</g>
<!-- T26943&#45;&gt;T26929 -->
<g id="edge7" class="edge">
<title>T26943:f1&#45;&gt;T26929:f1</title>
<path fill="none" stroke="#5b00c0" d="M143.15,-162C143.15,-141.91 155.72,-136.57 159.85,-121.31"/>
<polygon fill="#5b00c0" stroke="#5b00c0" points="163.37,-121.36 161.15,-111 156.43,-120.49 163.37,-121.36"/>
<text text-anchor="middle" x="166.65" y="-132.8" font-family="Times,serif" font-size="14.00" fill="#5b00c0">rw</text>
</g>
<!-- T26929&#45;&gt;T26941 -->
<g id="edge10" class="edge">
<title>T26929:f2&#45;&gt;T26941:f0</title>
<path fill="none" stroke="#c000a5" d="M249.15,-81C249.15,38.94 419.55,-103.74 514.15,-30 516.05,-28.52 516.67,-26.39 516.89,-24.2"/>
<polygon fill="#c000a5" stroke="#c000a5" points="520.13,-25.55 521.15,-15 513.78,-22.61 520.13,-25.55"/>
<text text-anchor="middle" x="486.65" y="-51.8" font-family="Times,serif" font-size="14.00" fill="#c000a5">wr</text>
</g>
<!-- T26929&#45;&gt;T26939 -->
<g id="edge9" class="edge">
<title>T26929:f2&#45;&gt;T26939:f0</title>
<path fill="none" stroke="#c000a5" d="M249.15,-81C249.15,-63.11 224.09,-77.15 213.15,-63 206.34,-54.2 205.78,-48.54 205.94,-40.08"/>
<polygon fill="#c000a5" stroke="#c000a5" points="209.45,-40.07 206.15,-30 202.45,-39.93 209.45,-40.07"/>
<text text-anchor="middle" x="222.65" y="-51.8" font-family="Times,serif" font-size="14.00" fill="#c000a5">wr</text>
</g>
</g>
</svg>
