<?xml version="1.0" encoding="UTF-8" standalone="no"?>
<!DOCTYPE svg PUBLIC "-//W3C//DTD SVG 1.1//EN"
 "http://www.w3.org/Graphics/SVG/1.1/DTD/svg11.dtd">
<!-- Generated by graphviz version 2.43.0 (0)
 -->
<!-- Title: a_graph Pages: 1 -->
<svg width="310pt" height="119pt"
 viewBox="0.00 0.00 310.00 119.00" xmlns="http://www.w3.org/2000/svg" xmlns:xlink="http://www.w3.org/1999/xlink">
<g id="graph0" class="graph" transform="scale(1 1) rotate(0) translate(4 115)">
<title>a_graph</title>
<polygon fill="white" stroke="transparent" points="-4,4 -4,-115 306,-115 306,4 -4,4"/>
<!-- T16011 -->
<g id="node1" class="node">
<title>T16011</title>
<polygon fill="none" stroke="#0058ad" points="70,-81.5 70,-110.5 298,-110.5 298,-81.5 70,-81.5"/>
<text text-anchor="middle" x="108.5" y="-92.3" font-family="Times,serif" font-size="14.00" fill="#0058ad">r 616 nil</text>
<polyline fill="none" stroke="#0058ad" points="147,-81.5 147,-110.5 "/>
<text text-anchor="middle" x="184" y="-92.3" font-family="Times,serif" font-size="14.00" fill="#0058ad">w 616 1</text>
<polyline fill="none" stroke="#0058ad" points="221,-81.5 221,-110.5 "/>
<text text-anchor="middle" x="259.5" y="-92.3" font-family="Times,serif" font-size="14.00" fill="#0058ad">r 615 nil</text>
</g>
<!-- T16022 -->
<g id="node2" class="node">
<title>T16022</title>
<polygon fill="none" stroke="#0058ad" points="0,-0.5 0,-29.5 302,-29.5 302,-0.5 0,-0.5"/>
<text text-anchor="middle" x="38.5" y="-11.3" font-family="Times,serif" font-size="14.00" fill="#0058ad">r 611 14</text>
<polyline fill="none" stroke="#0058ad" points="77,-0.5 77,-29.5 "/>
<text text-anchor="middle" x="114" y="-11.3" font-family="Times,serif" font-size="14.00" fill="#0058ad">w 615 2</text>
<polyline fill="none" stroke="#0058ad" points="151,-0.5 151,-29.5 "/>
<text text-anchor="middle" x="188" y="-11.3" font-family="Times,serif" font-size="14.00" fill="#0058ad">w 615 3</text>
<polyline fill="none" stroke="#0058ad" points="225,-0.5 225,-29.5 "/>
<text text-anchor="middle" x="263.5" y="-11.3" font-family="Times,serif" font-size="14.00" fill="#0058ad">r 616 nil</text>
</g>
<!-- T16011&#45;&gt;T16022 -->
<g id="edge1" class="edge">
<title>T16011:f2&#45;&gt;T16022:f2</title>
<path fill="none" stroke="#5b00c0" d="M260,-81C260,-59.29 241.88,-60.31 224,-48 213.18,-40.55 198.84,-43.98 191.98,-39.25"/>
<polygon fill="#5b00c0" stroke="#5b00c0" points="195.17,-37.8 188,-30 188.74,-40.57 195.17,-37.8"/>
<text text-anchor="middle" x="260.5" y="-51.8" font-family="Times,serif" font-size="14.00" fill="#5b00c0">rw</text>
</g>
<!-- T16022&#45;&gt;T16011 -->
<g id="edge2" class="edge">
<title>T16022:f3&#45;&gt;T16011:f1</title>
<path fill="none" stroke="#5b00c0" d="M264,-30C264,-59.12 223.52,-29.54 201,-48 191.23,-56.01 186.46,-61.43 184.75,-70.93"/>
<polygon fill="#5b00c0" stroke="#5b00c0" points="181.26,-70.77 184,-81 188.24,-71.29 181.26,-70.77"/>
<text text-anchor="middle" x="210.5" y="-51.8" font-family="Times,serif" font-size="14.00" fill="#5b00c0">rw</text>
</g>
</g>
</svg>
