<?xml version="1.0" encoding="UTF-8" standalone="no"?>
<!DOCTYPE svg PUBLIC "-//W3C//DTD SVG 1.1//EN"
 "http://www.w3.org/Graphics/SVG/1.1/DTD/svg11.dtd">
<!-- Generated by graphviz version 2.43.0 (0)
 -->
<!-- Title: a_graph Pages: 1 -->
<svg width="331pt" height="119pt"
 viewBox="0.00 0.00 331.00 119.00" xmlns="http://www.w3.org/2000/svg" xmlns:xlink="http://www.w3.org/1999/xlink">
<g id="graph0" class="graph" transform="scale(1 1) rotate(0) translate(4 115)">
<title>a_graph</title>
<polygon fill="white" stroke="transparent" points="-4,4 -4,-115 327,-115 327,4 -4,4"/>
<!-- T9119 -->
<g id="node1" class="node">
<title>T9119</title>
<polygon fill="none" stroke="#0058ad" points="0,-81.5 0,-110.5 287,-110.5 287,-81.5 0,-81.5"/>
<text text-anchor="middle" x="34" y="-92.3" font-family="Times,serif" font-size="14.00" fill="#0058ad">r 349 5</text>
<polyline fill="none" stroke="#0058ad" points="68,-81.5 68,-110.5 "/>
<text text-anchor="middle" x="106.5" y="-92.3" font-family="Times,serif" font-size="14.00" fill="#0058ad">r 350 nil</text>
<polyline fill="none" stroke="#0058ad" points="145,-81.5 145,-110.5 "/>
<text text-anchor="middle" x="179" y="-92.3" font-family="Times,serif" font-size="14.00" fill="#0058ad">r 349 5</text>
<polyline fill="none" stroke="#0058ad" points="213,-81.5 213,-110.5 "/>
<text text-anchor="middle" x="250" y="-92.3" font-family="Times,serif" font-size="14.00" fill="#0058ad">w 350 1</text>
</g>
<!-- T9128 -->
<g id="node2" class="node">
<title>T9128</title>
<polygon fill="none" stroke="#0058ad" points="30,-0.5 30,-29.5 323,-29.5 323,-0.5 30,-0.5"/>
<text text-anchor="middle" x="68.5" y="-11.3" font-family="Times,serif" font-size="14.00" fill="#0058ad">r 350 nil</text>
<polyline fill="none" stroke="#0058ad" points="107,-0.5 107,-29.5 "/>
<text text-anchor="middle" x="144" y="-11.3" font-family="Times,serif" font-size="14.00" fill="#0058ad">w 350 3</text>
<polyline fill="none" stroke="#0058ad" points="181,-0.5 181,-29.5 "/>
<text text-anchor="middle" x="215" y="-11.3" font-family="Times,serif" font-size="14.00" fill="#0058ad">r 349 7</text>
<polyline fill="none" stroke="#0058ad" points="249,-0.5 249,-29.5 "/>
<text text-anchor="middle" x="286" y="-11.3" font-family="Times,serif" font-size="14.00" fill="#0058ad">w 350 4</text>
</g>
<!-- T9119&#45;&gt;T9128 -->
<g id="edge1" class="edge">
<title>T9119:f1&#45;&gt;T9128:f3</title>
<path fill="none" stroke="#5b00c0" d="M106.5,-81C106.5,-43.77 147.81,-58.61 183.5,-48 202.29,-42.41 262.7,-49.98 281.12,-38.53"/>
<polygon fill="#5b00c0" stroke="#5b00c0" points="284.12,-40.32 286.5,-30 278.2,-36.59 284.12,-40.32"/>
<text text-anchor="middle" x="193" y="-51.8" font-family="Times,serif" font-size="14.00" fill="#5b00c0">rw</text>
</g>
<!-- T9128&#45;&gt;T9119 -->
<g id="edge2" class="edge">
<title>T9128:f0&#45;&gt;T9119:f3</title>
<path fill="none" stroke="#5b00c0" d="M68.5,-30C68.5,-60.05 174.47,-37.19 202.5,-48 222.88,-55.86 243.04,-55.52 248.84,-70.77"/>
<polygon fill="#5b00c0" stroke="#5b00c0" points="245.45,-71.69 250.5,-81 252.36,-70.57 245.45,-71.69"/>
<text text-anchor="middle" x="253" y="-51.8" font-family="Times,serif" font-size="14.00" fill="#5b00c0">rw</text>
</g>
</g>
</svg>
