<?xml version="1.0" encoding="UTF-8" standalone="no"?>
<!DOCTYPE svg PUBLIC "-//W3C//DTD SVG 1.1//EN"
 "http://www.w3.org/Graphics/SVG/1.1/DTD/svg11.dtd">
<!-- Generated by graphviz version 2.43.0 (0)
 -->
<!-- Title: a_graph Pages: 1 -->
<svg width="301pt" height="119pt"
 viewBox="0.00 0.00 301.00 119.00" xmlns="http://www.w3.org/2000/svg" xmlns:xlink="http://www.w3.org/1999/xlink">
<g id="graph0" class="graph" transform="scale(1 1) rotate(0) translate(4 115)">
<title>a_graph</title>
<polygon fill="white" stroke="transparent" points="-4,4 -4,-115 297,-115 297,4 -4,4"/>
<!-- T2969 -->
<g id="node1" class="node">
<title>T2969</title>
<polygon fill="none" stroke="#0058ad" points="0,-81.5 0,-110.5 293,-110.5 293,-81.5 0,-81.5"/>
<text text-anchor="middle" x="41.5" y="-92.3" font-family="Times,serif" font-size="14.00" fill="#0058ad">w 117 16</text>
<polyline fill="none" stroke="#0058ad" points="83,-81.5 83,-110.5 "/>
<text text-anchor="middle" x="121.5" y="-92.3" font-family="Times,serif" font-size="14.00" fill="#0058ad">r 119 nil</text>
<polyline fill="none" stroke="#0058ad" points="160,-81.5 160,-110.5 "/>
<text text-anchor="middle" x="197" y="-92.3" font-family="Times,serif" font-size="14.00" fill="#0058ad">w 119 1</text>
<polyline fill="none" stroke="#0058ad" points="234,-81.5 234,-110.5 "/>
<text text-anchor="middle" x="263.5" y="-92.3" font-family="Times,serif" font-size="14.00" fill="#0058ad">r 97 9</text>
</g>
<!-- T2973 -->
<g id="node2" class="node">
<title>T2973</title>
<polygon fill="none" stroke="#0058ad" points="46,-0.5 46,-29.5 271,-29.5 271,-0.5 46,-0.5"/>
<text text-anchor="middle" x="84.5" y="-11.3" font-family="Times,serif" font-size="14.00" fill="#0058ad">r 119 nil</text>
<polyline fill="none" stroke="#0058ad" points="123,-0.5 123,-29.5 "/>
<text text-anchor="middle" x="160" y="-11.3" font-family="Times,serif" font-size="14.00" fill="#0058ad">w 119 2</text>
<polyline fill="none" stroke="#0058ad" points="197,-0.5 197,-29.5 "/>
<text text-anchor="middle" x="234" y="-11.3" font-family="Times,serif" font-size="14.00" fill="#0058ad">w 119 3</text>
</g>
<!-- T2969&#45;&gt;T2973 -->
<g id="edge1" class="edge">
<title>T2969:f1&#45;&gt;T2973:f2</title>
<path fill="none" stroke="#5b00c0" d="M121.5,-81C121.5,-62.05 132.3,-57.84 148.5,-48 178.23,-29.95 223.22,-60.75 232.71,-40.11"/>
<polygon fill="#5b00c0" stroke="#5b00c0" points="236.2,-40.46 234.5,-30 229.31,-39.23 236.2,-40.46"/>
<text text-anchor="middle" x="158" y="-51.8" font-family="Times,serif" font-size="14.00" fill="#5b00c0">rw</text>
</g>
<!-- T2973&#45;&gt;T2969 -->
<g id="edge2" class="edge">
<title>T2973:f0&#45;&gt;T2969:f2</title>
<path fill="none" stroke="#5b00c0" d="M84.5,-30C84.5,-67.75 134.8,-29.14 167.5,-48 181.18,-55.89 192.11,-59.58 195.98,-70.78"/>
<polygon fill="#5b00c0" stroke="#5b00c0" points="192.57,-71.62 197.5,-81 199.49,-70.59 192.57,-71.62"/>
<text text-anchor="middle" x="201" y="-51.8" font-family="Times,serif" font-size="14.00" fill="#5b00c0">rw</text>
</g>
</g>
</svg>
