<?xml version="1.0" encoding="UTF-8" standalone="no"?>
<!DOCTYPE svg PUBLIC "-//W3C//DTD SVG 1.1//EN"
 "http://www.w3.org/Graphics/SVG/1.1/DTD/svg11.dtd">
<!-- Generated by graphviz version 2.43.0 (0)
 -->
<!-- Title: a_graph Pages: 1 -->
<svg width="449pt" height="281pt"
 viewBox="0.00 0.00 448.50 281.00" xmlns="http://www.w3.org/2000/svg" xmlns:xlink="http://www.w3.org/1999/xlink">
<g id="graph0" class="graph" transform="scale(1 1) rotate(0) translate(4 277)">
<title>a_graph</title>
<polygon fill="white" stroke="transparent" points="-4,4 -4,-277 444.5,-277 444.5,4 -4,4"/>
<!-- T3209 -->
<g id="node1" class="node">
<title>T3209</title>
<polygon fill="none" stroke="#0058ad" points="76,-243.5 76,-272.5 357,-272.5 357,-243.5 76,-243.5"/>
<text text-anchor="middle" x="110" y="-254.3" font-family="Times,serif" font-size="14.00" fill="#0058ad">r 127 1</text>
<polyline fill="none" stroke="#0058ad" points="144,-243.5 144,-272.5 "/>
<text text-anchor="middle" x="178" y="-254.3" font-family="Times,serif" font-size="14.00" fill="#0058ad">r 125 9</text>
<polyline fill="none" stroke="#0058ad" points="212,-243.5 212,-272.5 "/>
<text text-anchor="middle" x="250.5" y="-254.3" font-family="Times,serif" font-size="14.00" fill="#0058ad">r 126 nil</text>
<polyline fill="none" stroke="#0058ad" points="289,-243.5 289,-272.5 "/>
<text text-anchor="middle" x="323" y="-254.3" font-family="Times,serif" font-size="14.00" fill="#0058ad">r 125 9</text>
</g>
<!-- T3188 -->
<g id="node3" class="node">
<title>T3188</title>
<polygon fill="none" stroke="#0058ad" points="212.5,-162.5 212.5,-191.5 440.5,-191.5 440.5,-162.5 212.5,-162.5"/>
<text text-anchor="middle" x="249.5" y="-173.3" font-family="Times,serif" font-size="14.00" fill="#0058ad">w 126 1</text>
<polyline fill="none" stroke="#0058ad" points="286.5,-162.5 286.5,-191.5 "/>
<text text-anchor="middle" x="325" y="-173.3" font-family="Times,serif" font-size="14.00" fill="#0058ad">r 120 13</text>
<polyline fill="none" stroke="#0058ad" points="363.5,-162.5 363.5,-191.5 "/>
<text text-anchor="middle" x="402" y="-173.3" font-family="Times,serif" font-size="14.00" fill="#0058ad">r 127 nil</text>
</g>
<!-- T3209&#45;&gt;T3188 -->
<g id="edge1" class="edge">
<title>T3209:f2&#45;&gt;T3188:f0</title>
<path fill="none" stroke="#5b00c0" d="M250.5,-243C250.5,-224.23 249.81,-217.12 249.58,-202.35"/>
<polygon fill="#5b00c0" stroke="#5b00c0" points="253.08,-201.97 249.5,-192 246.08,-202.03 253.08,-201.97"/>
<text text-anchor="middle" x="260" y="-213.8" font-family="Times,serif" font-size="14.00" fill="#5b00c0">rw</text>
</g>
<!-- T3189 -->
<g id="node2" class="node">
<title>T3189</title>
<polygon fill="none" stroke="#0058ad" points="0,-0.5 0,-29.5 293,-29.5 293,-0.5 0,-0.5"/>
<text text-anchor="middle" x="34" y="-11.3" font-family="Times,serif" font-size="14.00" fill="#0058ad">r 125 3</text>
<polyline fill="none" stroke="#0058ad" points="68,-0.5 68,-29.5 "/>
<text text-anchor="middle" x="105" y="-11.3" font-family="Times,serif" font-size="14.00" fill="#0058ad">w 125 6</text>
<polyline fill="none" stroke="#0058ad" points="142,-0.5 142,-29.5 "/>
<text text-anchor="middle" x="179" y="-11.3" font-family="Times,serif" font-size="14.00" fill="#0058ad">w 127 1</text>
<polyline fill="none" stroke="#0058ad" points="216,-0.5 216,-29.5 "/>
<text text-anchor="middle" x="254.5" y="-11.3" font-family="Times,serif" font-size="14.00" fill="#0058ad">r 120 14</text>
</g>
<!-- T3189&#45;&gt;T3209 -->
<g id="edge2" class="edge">
<title>T3189:f2&#45;&gt;T3209:f0</title>
<path fill="none" stroke="#c000a5" d="M179.5,-30C179.5,-61.13 144.9,-52.9 131.5,-81 101.75,-143.38 108.69,-167.92 109.44,-232.7"/>
<polygon fill="#c000a5" stroke="#c000a5" points="105.94,-233.02 109.5,-243 112.94,-232.98 105.94,-233.02"/>
<text text-anchor="middle" x="123" y="-132.8" font-family="Times,serif" font-size="14.00" fill="#c000a5">wr</text>
</g>
<!-- T3188&#45;&gt;T3189 -->
<g id="edge3" class="edge">
<title>T3188:f2&#45;&gt;T3189:f2</title>
<path fill="none" stroke="#5b00c0" d="M402.5,-162C402.5,-124.05 403.22,-106.92 375.5,-81 360.99,-67.43 219.34,-55.61 186.35,-37.54"/>
<polygon fill="#5b00c0" stroke="#5b00c0" points="188.81,-35.05 179.5,-30 183.63,-39.76 188.81,-35.05"/>
<text text-anchor="middle" x="406" y="-92.3" font-family="Times,serif" font-size="14.00" fill="#5b00c0">rw</text>
</g>
<!-- T3192 -->
<g id="node4" class="node">
<title>T3192</title>
<polygon fill="none" stroke="#0058ad" points="141,-81.5 141,-110.5 366,-110.5 366,-81.5 141,-81.5"/>
<text text-anchor="middle" x="179.5" y="-92.3" font-family="Times,serif" font-size="14.00" fill="#0058ad">r 127 nil</text>
<polyline fill="none" stroke="#0058ad" points="218,-81.5 218,-110.5 "/>
<text text-anchor="middle" x="255" y="-92.3" font-family="Times,serif" font-size="14.00" fill="#0058ad">w 125 7</text>
<polyline fill="none" stroke="#0058ad" points="292,-81.5 292,-110.5 "/>
<text text-anchor="middle" x="329" y="-92.3" font-family="Times,serif" font-size="14.00" fill="#0058ad">w 127 2</text>
</g>
<!-- T3188&#45;&gt;T3192 -->
<g id="edge4" class="edge">
<title>T3188:f2&#45;&gt;T3192:f2</title>
<path fill="none" stroke="#5b00c0" d="M402.5,-162C402.5,-145.29 383.34,-153.36 369.5,-144 353.84,-133.41 336.96,-133.5 331.39,-121.15"/>
<polygon fill="#5b00c0" stroke="#5b00c0" points="334.77,-120.19 329.5,-111 327.89,-121.47 334.77,-120.19"/>
<text text-anchor="middle" x="379" y="-132.8" font-family="Times,serif" font-size="14.00" fill="#5b00c0">rw</text>
</g>
<!-- T3192&#45;&gt;T3189 -->
<g id="edge5" class="edge">
<title>T3192:f0&#45;&gt;T3189:f2</title>
<path fill="none" stroke="#5b00c0" d="M179.5,-81C179.5,-62.23 179.5,-55.12 179.5,-40.35"/>
<polygon fill="#5b00c0" stroke="#5b00c0" points="183,-40 179.5,-30 176,-40 183,-40"/>
<text text-anchor="middle" x="189" y="-51.8" font-family="Times,serif" font-size="14.00" fill="#5b00c0">rw</text>
</g>
</g>
</svg>
