<?xml version="1.0" encoding="UTF-8" standalone="no"?>
<!DOCTYPE svg PUBLIC "-//W3C//DTD SVG 1.1//EN"
 "http://www.w3.org/Graphics/SVG/1.1/DTD/svg11.dtd">
<!-- Generated by graphviz version 2.43.0 (0)
 -->
<!-- Title: a_graph Pages: 1 -->
<svg width="347pt" height="119pt"
 viewBox="0.00 0.00 347.00 119.00" xmlns="http://www.w3.org/2000/svg" xmlns:xlink="http://www.w3.org/1999/xlink">
<g id="graph0" class="graph" transform="scale(1 1) rotate(0) translate(4 115)">
<title>a_graph</title>
<polygon fill="white" stroke="transparent" points="-4,4 -4,-115 343,-115 343,4 -4,4"/>
<!-- T14778 -->
<g id="node1" class="node">
<title>T14778</title>
<polygon fill="none" stroke="#0058ad" points="37,-81.5 37,-110.5 339,-110.5 339,-81.5 37,-81.5"/>
<text text-anchor="middle" x="75.5" y="-92.3" font-family="Times,serif" font-size="14.00" fill="#0058ad">r 566 nil</text>
<polyline fill="none" stroke="#0058ad" points="114,-81.5 114,-110.5 "/>
<text text-anchor="middle" x="152.5" y="-92.3" font-family="Times,serif" font-size="14.00" fill="#0058ad">r 566 nil</text>
<polyline fill="none" stroke="#0058ad" points="191,-81.5 191,-110.5 "/>
<text text-anchor="middle" x="228" y="-92.3" font-family="Times,serif" font-size="14.00" fill="#0058ad">w 566 4</text>
<polyline fill="none" stroke="#0058ad" points="265,-81.5 265,-110.5 "/>
<text text-anchor="middle" x="302" y="-92.3" font-family="Times,serif" font-size="14.00" fill="#0058ad">w 568 3</text>
</g>
<!-- T14760 -->
<g id="node2" class="node">
<title>T14760</title>
<polygon fill="none" stroke="#0058ad" points="0,-0.5 0,-29.5 302,-29.5 302,-0.5 0,-0.5"/>
<text text-anchor="middle" x="38.5" y="-11.3" font-family="Times,serif" font-size="14.00" fill="#0058ad">r 566 nil</text>
<polyline fill="none" stroke="#0058ad" points="77,-0.5 77,-29.5 "/>
<text text-anchor="middle" x="114" y="-11.3" font-family="Times,serif" font-size="14.00" fill="#0058ad">w 567 1</text>
<polyline fill="none" stroke="#0058ad" points="151,-0.5 151,-29.5 "/>
<text text-anchor="middle" x="189.5" y="-11.3" font-family="Times,serif" font-size="14.00" fill="#0058ad">r 566 nil</text>
<polyline fill="none" stroke="#0058ad" points="228,-0.5 228,-29.5 "/>
<text text-anchor="middle" x="265" y="-11.3" font-family="Times,serif" font-size="14.00" fill="#0058ad">w 566 1</text>
</g>
<!-- T14778&#45;&gt;T14760 -->
<g id="edge1" class="edge">
<title>T14778:f0&#45;&gt;T14760:f3</title>
<path fill="none" stroke="#5b00c0" d="M75,-81C75,-40.89 120.36,-58.75 159,-48 178.42,-42.6 240.53,-50.51 259.47,-38.76"/>
<polygon fill="#5b00c0" stroke="#5b00c0" points="262.62,-40.32 265,-30 256.7,-36.59 262.62,-40.32"/>
<text text-anchor="middle" x="168.5" y="-51.8" font-family="Times,serif" font-size="14.00" fill="#5b00c0">rw</text>
</g>
<!-- T14760&#45;&gt;T14778 -->
<g id="edge2" class="edge">
<title>T14760:f0&#45;&gt;T14778:f2</title>
<path fill="none" stroke="#5b00c0" d="M38,-30C38,-61.37 148.6,-37.08 178,-48 199.25,-55.89 220.57,-54.97 226.43,-70.96"/>
<polygon fill="#5b00c0" stroke="#5b00c0" points="222.99,-71.66 228,-81 229.91,-70.58 222.99,-71.66"/>
<text text-anchor="middle" x="230.5" y="-51.8" font-family="Times,serif" font-size="14.00" fill="#5b00c0">rw</text>
</g>
</g>
</svg>
