<?xml version="1.0" encoding="UTF-8" standalone="no"?>
<!DOCTYPE svg PUBLIC "-//W3C//DTD SVG 1.1//EN"
 "http://www.w3.org/Graphics/SVG/1.1/DTD/svg11.dtd">
<!-- Generated by graphviz version 2.43.0 (0)
 -->
<!-- Title: a_graph Pages: 1 -->
<svg width="447pt" height="200pt"
 viewBox="0.00 0.00 446.50 200.00" xmlns="http://www.w3.org/2000/svg" xmlns:xlink="http://www.w3.org/1999/xlink">
<g id="graph0" class="graph" transform="scale(1 1) rotate(0) translate(4 196)">
<title>a_graph</title>
<polygon fill="white" stroke="transparent" points="-4,4 -4,-196 442.5,-196 442.5,4 -4,4"/>
<!-- T12613 -->
<g id="node1" class="node">
<title>T12613</title>
<polygon fill="none" stroke="#0058ad" points="0,-162.5 0,-191.5 225,-191.5 225,-162.5 0,-162.5"/>
<text text-anchor="middle" x="34" y="-173.3" font-family="Times,serif" font-size="14.00" fill="#0058ad">r 482 9</text>
<polyline fill="none" stroke="#0058ad" points="68,-162.5 68,-191.5 "/>
<text text-anchor="middle" x="109.5" y="-173.3" font-family="Times,serif" font-size="14.00" fill="#0058ad">w 482 10</text>
<polyline fill="none" stroke="#0058ad" points="151,-162.5 151,-191.5 "/>
<text text-anchor="middle" x="188" y="-173.3" font-family="Times,serif" font-size="14.00" fill="#0058ad">w 483 1</text>
</g>
<!-- T12616 -->
<g id="node3" class="node">
<title>T12616</title>
<polygon fill="none" stroke="#0058ad" points="142.5,-81.5 142.5,-110.5 438.5,-110.5 438.5,-81.5 142.5,-81.5"/>
<text text-anchor="middle" x="181" y="-92.3" font-family="Times,serif" font-size="14.00" fill="#0058ad">r 484 nil</text>
<polyline fill="none" stroke="#0058ad" points="219.5,-81.5 219.5,-110.5 "/>
<text text-anchor="middle" x="258" y="-92.3" font-family="Times,serif" font-size="14.00" fill="#0058ad">r 484 nil</text>
<polyline fill="none" stroke="#0058ad" points="296.5,-81.5 296.5,-110.5 "/>
<text text-anchor="middle" x="333.5" y="-92.3" font-family="Times,serif" font-size="14.00" fill="#0058ad">w 484 1</text>
<polyline fill="none" stroke="#0058ad" points="370.5,-81.5 370.5,-110.5 "/>
<text text-anchor="middle" x="404.5" y="-92.3" font-family="Times,serif" font-size="14.00" fill="#0058ad">r 483 1</text>
</g>
<!-- T12613&#45;&gt;T12616 -->
<g id="edge1" class="edge">
<title>T12613:f2&#45;&gt;T12616:f3</title>
<path fill="none" stroke="#c000a5" d="M226.5,-177C265.23,-177 382.85,-156.93 401.88,-121.01"/>
<polygon fill="#c000a5" stroke="#c000a5" points="405.36,-121.56 404.5,-111 398.59,-119.79 405.36,-121.56"/>
<text text-anchor="middle" x="404" y="-132.8" font-family="Times,serif" font-size="14.00" fill="#c000a5">wr</text>
</g>
<!-- T12617 -->
<g id="node2" class="node">
<title>T12617</title>
<polygon fill="none" stroke="#0058ad" points="67,-0.5 67,-29.5 354,-29.5 354,-0.5 67,-0.5"/>
<text text-anchor="middle" x="105.5" y="-11.3" font-family="Times,serif" font-size="14.00" fill="#0058ad">r 483 nil</text>
<polyline fill="none" stroke="#0058ad" points="144,-0.5 144,-29.5 "/>
<text text-anchor="middle" x="181" y="-11.3" font-family="Times,serif" font-size="14.00" fill="#0058ad">w 484 2</text>
<polyline fill="none" stroke="#0058ad" points="218,-0.5 218,-29.5 "/>
<text text-anchor="middle" x="252" y="-11.3" font-family="Times,serif" font-size="14.00" fill="#0058ad">r 482 3</text>
<polyline fill="none" stroke="#0058ad" points="286,-0.5 286,-29.5 "/>
<text text-anchor="middle" x="320" y="-11.3" font-family="Times,serif" font-size="14.00" fill="#0058ad">r 484 2</text>
</g>
<!-- T12617&#45;&gt;T12613 -->
<g id="edge2" class="edge">
<title>T12617:f0&#45;&gt;T12613:f2</title>
<path fill="none" stroke="#5b00c0" d="M105.5,-30C105.5,-66.22 95.91,-79.91 114.5,-111 133,-141.93 178.37,-126.04 187.05,-151.99"/>
<polygon fill="#5b00c0" stroke="#5b00c0" points="183.6,-152.61 188.5,-162 190.53,-151.6 183.6,-152.61"/>
<text text-anchor="middle" x="124" y="-92.3" font-family="Times,serif" font-size="14.00" fill="#5b00c0">rw</text>
</g>
<!-- T12616&#45;&gt;T12617 -->
<g id="edge3" class="edge">
<title>T12616:f0&#45;&gt;T12617:f1</title>
<path fill="none" stroke="#5b00c0" d="M180.5,-81C180.5,-62.23 180.5,-55.12 180.5,-40.35"/>
<polygon fill="#5b00c0" stroke="#5b00c0" points="184,-40 180.5,-30 177,-40 184,-40"/>
<text text-anchor="middle" x="190" y="-51.8" font-family="Times,serif" font-size="14.00" fill="#5b00c0">rw</text>
</g>
</g>
</svg>
