<?xml version="1.0" encoding="UTF-8" standalone="no"?>
<!DOCTYPE svg PUBLIC "-//W3C//DTD SVG 1.1//EN"
 "http://www.w3.org/Graphics/SVG/1.1/DTD/svg11.dtd">
<!-- Generated by graphviz version 2.43.0 (0)
 -->
<!-- Title: a_graph Pages: 1 -->
<svg width="310pt" height="119pt"
 viewBox="0.00 0.00 310.00 119.00" xmlns="http://www.w3.org/2000/svg" xmlns:xlink="http://www.w3.org/1999/xlink">
<g id="graph0" class="graph" transform="scale(1 1) rotate(0) translate(4 115)">
<title>a_graph</title>
<polygon fill="white" stroke="transparent" points="-4,4 -4,-115 306,-115 306,4 -4,4"/>
<!-- T25564 -->
<g id="node1" class="node">
<title>T25564</title>
<polygon fill="none" stroke="#0058ad" points="0,-81.5 0,-110.5 302,-110.5 302,-81.5 0,-81.5"/>
<text text-anchor="middle" x="41.5" y="-92.3" font-family="Times,serif" font-size="14.00" fill="#0058ad">w 969 16</text>
<polyline fill="none" stroke="#0058ad" points="83,-81.5 83,-110.5 "/>
<text text-anchor="middle" x="121.5" y="-92.3" font-family="Times,serif" font-size="14.00" fill="#0058ad">r 973 nil</text>
<polyline fill="none" stroke="#0058ad" points="160,-81.5 160,-110.5 "/>
<text text-anchor="middle" x="197" y="-92.3" font-family="Times,serif" font-size="14.00" fill="#0058ad">w 973 4</text>
<polyline fill="none" stroke="#0058ad" points="234,-81.5 234,-110.5 "/>
<text text-anchor="middle" x="268" y="-92.3" font-family="Times,serif" font-size="14.00" fill="#0058ad">r 970 6</text>
</g>
<!-- T25555 -->
<g id="node2" class="node">
<title>T25555</title>
<polygon fill="none" stroke="#0058ad" points="82.5,-0.5 82.5,-29.5 301.5,-29.5 301.5,-0.5 82.5,-0.5"/>
<text text-anchor="middle" x="121" y="-11.3" font-family="Times,serif" font-size="14.00" fill="#0058ad">r 973 nil</text>
<polyline fill="none" stroke="#0058ad" points="159.5,-0.5 159.5,-29.5 "/>
<text text-anchor="middle" x="196.5" y="-11.3" font-family="Times,serif" font-size="14.00" fill="#0058ad">w 973 1</text>
<polyline fill="none" stroke="#0058ad" points="233.5,-0.5 233.5,-29.5 "/>
<text text-anchor="middle" x="267.5" y="-11.3" font-family="Times,serif" font-size="14.00" fill="#0058ad">r 966 4</text>
</g>
<!-- T25564&#45;&gt;T25555 -->
<g id="edge1" class="edge">
<title>T25564:f1&#45;&gt;T25555:f1</title>
<path fill="none" stroke="#5b00c0" d="M121,-81C121,-62.05 132.56,-58.99 148,-48 163.06,-37.28 185.23,-46.95 193.62,-39.58"/>
<polygon fill="#5b00c0" stroke="#5b00c0" points="196.97,-40.59 197,-30 190.37,-38.27 196.97,-40.59"/>
<text text-anchor="middle" x="157.5" y="-51.8" font-family="Times,serif" font-size="14.00" fill="#5b00c0">rw</text>
</g>
<!-- T25555&#45;&gt;T25564 -->
<g id="edge2" class="edge">
<title>T25555:f0&#45;&gt;T25564:f2</title>
<path fill="none" stroke="#5b00c0" d="M121,-30C121,-51.95 148.92,-35.55 167,-48 180.01,-56.96 191.34,-60.01 195.4,-70.91"/>
<polygon fill="#5b00c0" stroke="#5b00c0" points="191.98,-71.67 197,-81 198.89,-70.58 191.98,-71.67"/>
<text text-anchor="middle" x="199.5" y="-51.8" font-family="Times,serif" font-size="14.00" fill="#5b00c0">rw</text>
</g>
</g>
</svg>
