<?xml version="1.0" encoding="UTF-8" standalone="no"?>
<!DOCTYPE svg PUBLIC "-//W3C//DTD SVG 1.1//EN"
 "http://www.w3.org/Graphics/SVG/1.1/DTD/svg11.dtd">
<!-- Generated by graphviz version 2.43.0 (0)
 -->
<!-- Title: a_graph Pages: 1 -->
<svg width="264pt" height="119pt"
 viewBox="0.00 0.00 264.00 119.00" xmlns="http://www.w3.org/2000/svg" xmlns:xlink="http://www.w3.org/1999/xlink">
<g id="graph0" class="graph" transform="scale(1 1) rotate(0) translate(4 115)">
<title>a_graph</title>
<polygon fill="white" stroke="transparent" points="-4,4 -4,-115 260,-115 260,4 -4,4"/>
<!-- T25510 -->
<g id="node1" class="node">
<title>T25510</title>
<polygon fill="none" stroke="#0058ad" points="37,-81.5 37,-110.5 256,-110.5 256,-81.5 37,-81.5"/>
<text text-anchor="middle" x="75.5" y="-92.3" font-family="Times,serif" font-size="14.00" fill="#0058ad">r 972 nil</text>
<polyline fill="none" stroke="#0058ad" points="114,-81.5 114,-110.5 "/>
<text text-anchor="middle" x="151" y="-92.3" font-family="Times,serif" font-size="14.00" fill="#0058ad">w 972 5</text>
<polyline fill="none" stroke="#0058ad" points="188,-81.5 188,-110.5 "/>
<text text-anchor="middle" x="222" y="-92.3" font-family="Times,serif" font-size="14.00" fill="#0058ad">r 972 5</text>
</g>
<!-- T25501 -->
<g id="node2" class="node">
<title>T25501</title>
<polygon fill="none" stroke="#0058ad" points="0,-0.5 0,-29.5 225,-29.5 225,-0.5 0,-0.5"/>
<text text-anchor="middle" x="38.5" y="-11.3" font-family="Times,serif" font-size="14.00" fill="#0058ad">r 972 nil</text>
<polyline fill="none" stroke="#0058ad" points="77,-0.5 77,-29.5 "/>
<text text-anchor="middle" x="114" y="-11.3" font-family="Times,serif" font-size="14.00" fill="#0058ad">w 972 1</text>
<polyline fill="none" stroke="#0058ad" points="151,-0.5 151,-29.5 "/>
<text text-anchor="middle" x="188" y="-11.3" font-family="Times,serif" font-size="14.00" fill="#0058ad">w 972 2</text>
</g>
<!-- T25510&#45;&gt;T25501 -->
<g id="edge1" class="edge">
<title>T25510:f0&#45;&gt;T25501:f2</title>
<path fill="none" stroke="#5b00c0" d="M75.5,-81C75.5,-62.05 86.3,-57.84 102.5,-48 132.23,-29.95 177.22,-60.75 186.71,-40.11"/>
<polygon fill="#5b00c0" stroke="#5b00c0" points="190.2,-40.46 188.5,-30 183.31,-39.23 190.2,-40.46"/>
<text text-anchor="middle" x="112" y="-51.8" font-family="Times,serif" font-size="14.00" fill="#5b00c0">rw</text>
</g>
<!-- T25501&#45;&gt;T25510 -->
<g id="edge2" class="edge">
<title>T25501:f0&#45;&gt;T25510:f1</title>
<path fill="none" stroke="#5b00c0" d="M38.5,-30C38.5,-67.75 88.8,-29.14 121.5,-48 135.18,-55.89 146.11,-59.58 149.98,-70.78"/>
<polygon fill="#5b00c0" stroke="#5b00c0" points="146.57,-71.62 151.5,-81 153.49,-70.59 146.57,-71.62"/>
<text text-anchor="middle" x="155" y="-51.8" font-family="Times,serif" font-size="14.00" fill="#5b00c0">rw</text>
</g>
</g>
</svg>
