<?xml version="1.0" encoding="UTF-8" standalone="no"?>
<!DOCTYPE svg PUBLIC "-//W3C//DTD SVG 1.1//EN"
 "http://www.w3.org/Graphics/SVG/1.1/DTD/svg11.dtd">
<!-- Generated by graphviz version 2.43.0 (0)
 -->
<!-- Title: a_graph Pages: 1 -->
<svg width="461pt" height="362pt"
 viewBox="0.00 0.00 461.00 362.00" xmlns="http://www.w3.org/2000/svg" xmlns:xlink="http://www.w3.org/1999/xlink">
<g id="graph0" class="graph" transform="scale(1 1) rotate(0) translate(4 358)">
<title>a_graph</title>
<polygon fill="white" stroke="transparent" points="-4,4 -4,-358 457,-358 457,4 -4,4"/>
<!-- T23384 -->
<g id="node1" class="node">
<title>T23384</title>
<polygon fill="none" stroke="#0058ad" points="0,-324.5 0,-353.5 228,-353.5 228,-324.5 0,-324.5"/>
<text text-anchor="middle" x="38.5" y="-335.3" font-family="Times,serif" font-size="14.00" fill="#0058ad">r 888 nil</text>
<polyline fill="none" stroke="#0058ad" points="77,-324.5 77,-353.5 "/>
<text text-anchor="middle" x="115.5" y="-335.3" font-family="Times,serif" font-size="14.00" fill="#0058ad">r 887 13</text>
<polyline fill="none" stroke="#0058ad" points="154,-324.5 154,-353.5 "/>
<text text-anchor="middle" x="191" y="-335.3" font-family="Times,serif" font-size="14.00" fill="#0058ad">w 889 1</text>
</g>
<!-- T23409 -->
<g id="node4" class="node">
<title>T23409</title>
<polygon fill="none" stroke="#0058ad" points="100.5,-243.5 100.5,-272.5 393.5,-272.5 393.5,-243.5 100.5,-243.5"/>
<text text-anchor="middle" x="142" y="-254.3" font-family="Times,serif" font-size="14.00" fill="#0058ad">w 885 15</text>
<polyline fill="none" stroke="#0058ad" points="183.5,-243.5 183.5,-272.5 "/>
<text text-anchor="middle" x="220.5" y="-254.3" font-family="Times,serif" font-size="14.00" fill="#0058ad">w 888 2</text>
<polyline fill="none" stroke="#0058ad" points="257.5,-243.5 257.5,-272.5 "/>
<text text-anchor="middle" x="291.5" y="-254.3" font-family="Times,serif" font-size="14.00" fill="#0058ad">r 833 7</text>
<polyline fill="none" stroke="#0058ad" points="325.5,-243.5 325.5,-272.5 "/>
<text text-anchor="middle" x="359.5" y="-254.3" font-family="Times,serif" font-size="14.00" fill="#0058ad">r 890 7</text>
</g>
<!-- T23384&#45;&gt;T23409 -->
<g id="edge1" class="edge">
<title>T23384:f0&#45;&gt;T23409:f1</title>
<path fill="none" stroke="#5b00c0" d="M38,-324C38,-243.77 204.02,-346.9 218.93,-283.14"/>
<polygon fill="#5b00c0" stroke="#5b00c0" points="222.43,-283.31 220,-273 215.47,-282.58 222.43,-283.31"/>
<text text-anchor="middle" x="224.5" y="-294.8" font-family="Times,serif" font-size="14.00" fill="#5b00c0">rw</text>
</g>
<!-- T23416 -->
<g id="node2" class="node">
<title>T23416</title>
<polygon fill="none" stroke="#0058ad" points="169.5,-162.5 169.5,-191.5 412.5,-191.5 412.5,-162.5 169.5,-162.5"/>
<text text-anchor="middle" x="211" y="-173.3" font-family="Times,serif" font-size="14.00" fill="#0058ad">w 890 11</text>
<polyline fill="none" stroke="#0058ad" points="252.5,-162.5 252.5,-191.5 "/>
<text text-anchor="middle" x="291" y="-173.3" font-family="Times,serif" font-size="14.00" fill="#0058ad">r 885 15</text>
<polyline fill="none" stroke="#0058ad" points="329.5,-162.5 329.5,-191.5 "/>
<text text-anchor="middle" x="371" y="-173.3" font-family="Times,serif" font-size="14.00" fill="#0058ad">w 525 16</text>
</g>
<!-- T23436 -->
<g id="node5" class="node">
<title>T23436</title>
<polygon fill="none" stroke="#0058ad" points="100.5,-81.5 100.5,-110.5 331.5,-110.5 331.5,-81.5 100.5,-81.5"/>
<text text-anchor="middle" x="139" y="-92.3" font-family="Times,serif" font-size="14.00" fill="#0058ad">r 885 15</text>
<polyline fill="none" stroke="#0058ad" points="177.5,-81.5 177.5,-110.5 "/>
<text text-anchor="middle" x="216" y="-92.3" font-family="Times,serif" font-size="14.00" fill="#0058ad">r 890 11</text>
<polyline fill="none" stroke="#0058ad" points="254.5,-81.5 254.5,-110.5 "/>
<text text-anchor="middle" x="293" y="-92.3" font-family="Times,serif" font-size="14.00" fill="#0058ad">r 889 nil</text>
</g>
<!-- T23416&#45;&gt;T23436 -->
<g id="edge2" class="edge">
<title>T23416:f0&#45;&gt;T23436:f1</title>
<path fill="none" stroke="#c000a5" d="M211,-162C211,-143.14 214.43,-136.16 215.61,-121.38"/>
<polygon fill="#c000a5" stroke="#c000a5" points="219.12,-121.13 216,-111 212.12,-120.86 219.12,-121.13"/>
<text text-anchor="middle" x="224.5" y="-132.8" font-family="Times,serif" font-size="14.00" fill="#c000a5">wr</text>
</g>
<!-- T23485 -->
<g id="node3" class="node">
<title>T23485</title>
<polygon fill="none" stroke="#0058ad" points="105.5,-0.5 105.5,-29.5 256.5,-29.5 256.5,-0.5 105.5,-0.5"/>
<text text-anchor="middle" x="144" y="-11.3" font-family="Times,serif" font-size="14.00" fill="#0058ad">r 889 nil</text>
<polyline fill="none" stroke="#0058ad" points="182.5,-0.5 182.5,-29.5 "/>
<text text-anchor="middle" x="219.5" y="-11.3" font-family="Times,serif" font-size="14.00" fill="#0058ad">w 889 6</text>
</g>
<!-- T23485&#45;&gt;T23384 -->
<g id="edge3" class="edge">
<title>T23485:f0&#45;&gt;T23384:f2</title>
<path fill="none" stroke="#5b00c0" d="M104,-15C65.71,-15 72,-56.71 72,-95 72,-259 72,-259 72,-259 72,-315.5 176.59,-270.22 189.66,-314"/>
<polygon fill="#5b00c0" stroke="#5b00c0" points="186.21,-314.55 191,-324 193.14,-313.62 186.21,-314.55"/>
<text text-anchor="middle" x="81.5" y="-173.3" font-family="Times,serif" font-size="14.00" fill="#5b00c0">rw</text>
</g>
<!-- T23409&#45;&gt;T23416 -->
<g id="edge5" class="edge">
<title>T23409:f0&#45;&gt;T23416:f1</title>
<path fill="none" stroke="#c000a5" d="M142,-243C142,-176.83 275.15,-252.74 289.71,-202.11"/>
<polygon fill="#c000a5" stroke="#c000a5" points="293.21,-202.36 291,-192 286.26,-201.48 293.21,-202.36"/>
<text text-anchor="middle" x="295.5" y="-213.8" font-family="Times,serif" font-size="14.00" fill="#c000a5">wr</text>
</g>
<!-- T23409&#45;&gt;T23436 -->
<g id="edge4" class="edge">
<title>T23409:f0&#45;&gt;T23436:f0</title>
<path fill="none" stroke="#c000a5" d="M142,-243C142,-216.64 139.58,-154.78 139.09,-121.21"/>
<polygon fill="#c000a5" stroke="#c000a5" points="142.58,-120.97 139,-111 135.59,-121.03 142.58,-120.97"/>
<text text-anchor="middle" x="150.5" y="-173.3" font-family="Times,serif" font-size="14.00" fill="#c000a5">wr</text>
</g>
<!-- T23436&#45;&gt;T23384 -->
<g id="edge6" class="edge">
<title>T23436:f2&#45;&gt;T23384:f2</title>
<path fill="none" stroke="#5b00c0" d="M333,-96C381.89,-96 399.14,-118.27 421,-162 443.38,-206.77 434.94,-235.32 402,-273 350.16,-332.3 314.47,-338.55 239.36,-338.97"/>
<polygon fill="#5b00c0" stroke="#5b00c0" points="238.99,-335.47 229,-339 239.01,-342.47 238.99,-335.47"/>
<text text-anchor="middle" x="443.5" y="-213.8" font-family="Times,serif" font-size="14.00" fill="#5b00c0">rw</text>
</g>
<!-- T23436&#45;&gt;T23485 -->
<g id="edge7" class="edge">
<title>T23436:f2&#45;&gt;T23485:f1</title>
<path fill="none" stroke="#5b00c0" d="M293,-81C293,-51.56 291.59,-22.44 268.12,-16.22"/>
<polygon fill="#5b00c0" stroke="#5b00c0" points="268.35,-12.72 258,-15 267.51,-19.67 268.35,-12.72"/>
<text text-anchor="middle" x="302.5" y="-51.8" font-family="Times,serif" font-size="14.00" fill="#5b00c0">rw</text>
</g>
</g>
</svg>
