<?xml version="1.0" encoding="UTF-8" standalone="no"?>
<!DOCTYPE svg PUBLIC "-//W3C//DTD SVG 1.1//EN"
 "http://www.w3.org/Graphics/SVG/1.1/DTD/svg11.dtd">
<!-- Generated by graphviz version 2.43.0 (0)
 -->
<!-- Title: a_graph Pages: 1 -->
<svg width="384pt" height="119pt"
 viewBox="0.00 0.00 383.50 119.00" xmlns="http://www.w3.org/2000/svg" xmlns:xlink="http://www.w3.org/1999/xlink">
<g id="graph0" class="graph" transform="scale(1 1) rotate(0) translate(4 115)">
<title>a_graph</title>
<polygon fill="white" stroke="transparent" points="-4,4 -4,-115 379.5,-115 379.5,4 -4,4"/>
<!-- T28787 -->
<g id="node1" class="node">
<title>T28787</title>
<polygon fill="none" stroke="#0058ad" points="46.5,-81.5 46.5,-110.5 375.5,-110.5 375.5,-81.5 46.5,-81.5"/>
<text text-anchor="middle" x="89.5" y="-92.3" font-family="Times,serif" font-size="14.00" fill="#0058ad">r 1102 nil</text>
<polyline fill="none" stroke="#0058ad" points="132.5,-81.5 132.5,-110.5 "/>
<text text-anchor="middle" x="174" y="-92.3" font-family="Times,serif" font-size="14.00" fill="#0058ad">w 1102 1</text>
<polyline fill="none" stroke="#0058ad" points="215.5,-81.5 215.5,-110.5 "/>
<text text-anchor="middle" x="257" y="-92.3" font-family="Times,serif" font-size="14.00" fill="#0058ad">w 1052 3</text>
<polyline fill="none" stroke="#0058ad" points="298.5,-81.5 298.5,-110.5 "/>
<text text-anchor="middle" x="337" y="-92.3" font-family="Times,serif" font-size="14.00" fill="#0058ad">r 1100 4</text>
</g>
<!-- T28789 -->
<g id="node2" class="node">
<title>T28789</title>
<polygon fill="none" stroke="#0058ad" points="0,-0.5 0,-29.5 344,-29.5 344,-0.5 0,-0.5"/>
<text text-anchor="middle" x="43" y="-11.3" font-family="Times,serif" font-size="14.00" fill="#0058ad">r 1102 nil</text>
<polyline fill="none" stroke="#0058ad" points="86,-0.5 86,-29.5 "/>
<text text-anchor="middle" x="132" y="-11.3" font-family="Times,serif" font-size="14.00" fill="#0058ad">w 1097 15</text>
<polyline fill="none" stroke="#0058ad" points="178,-0.5 178,-29.5 "/>
<text text-anchor="middle" x="219.5" y="-11.3" font-family="Times,serif" font-size="14.00" fill="#0058ad">w 1102 2</text>
<polyline fill="none" stroke="#0058ad" points="261,-0.5 261,-29.5 "/>
<text text-anchor="middle" x="302.5" y="-11.3" font-family="Times,serif" font-size="14.00" fill="#0058ad">w 1100 5</text>
</g>
<!-- T28787&#45;&gt;T28789 -->
<g id="edge1" class="edge">
<title>T28787:f0&#45;&gt;T28789:f2</title>
<path fill="none" stroke="#5b00c0" d="M89,-81C89,-60.26 103.64,-57.64 122,-48 138.39,-39.39 195.86,-48.07 214.28,-38.22"/>
<polygon fill="#5b00c0" stroke="#5b00c0" points="217.15,-40.21 220,-30 211.41,-36.2 217.15,-40.21"/>
<text text-anchor="middle" x="131.5" y="-51.8" font-family="Times,serif" font-size="14.00" fill="#5b00c0">rw</text>
</g>
<!-- T28789&#45;&gt;T28787 -->
<g id="edge2" class="edge">
<title>T28789:f0&#45;&gt;T28787:f1</title>
<path fill="none" stroke="#5b00c0" d="M43,-30C43,-52.14 121.4,-37.71 141,-48 155.92,-55.83 168.38,-59.03 172.53,-71.08"/>
<polygon fill="#5b00c0" stroke="#5b00c0" points="169.07,-71.62 174,-81 175.99,-70.59 169.07,-71.62"/>
<text text-anchor="middle" x="177.5" y="-51.8" font-family="Times,serif" font-size="14.00" fill="#5b00c0">rw</text>
</g>
</g>
</svg>
