<?xml version="1.0" encoding="UTF-8" standalone="no"?>
<!DOCTYPE svg PUBLIC "-//W3C//DTD SVG 1.1//EN"
 "http://www.w3.org/Graphics/SVG/1.1/DTD/svg11.dtd">
<!-- Generated by graphviz version 2.43.0 (0)
 -->
<!-- Title: a_graph Pages: 1 -->
<svg width="409pt" height="200pt"
 viewBox="0.00 0.00 409.00 200.00" xmlns="http://www.w3.org/2000/svg" xmlns:xlink="http://www.w3.org/1999/xlink">
<g id="graph0" class="graph" transform="scale(1 1) rotate(0) translate(4 196)">
<title>a_graph</title>
<polygon fill="white" stroke="transparent" points="-4,4 -4,-196 405,-196 405,4 -4,4"/>
<!-- T20613 -->
<g id="node1" class="node">
<title>T20613</title>
<polygon fill="none" stroke="#0058ad" points="0,-162.5 0,-191.5 293,-191.5 293,-162.5 0,-162.5"/>
<text text-anchor="middle" x="34" y="-173.3" font-family="Times,serif" font-size="14.00" fill="#0058ad">r 785 5</text>
<polyline fill="none" stroke="#0058ad" points="68,-162.5 68,-191.5 "/>
<text text-anchor="middle" x="105" y="-173.3" font-family="Times,serif" font-size="14.00" fill="#0058ad">w 786 1</text>
<polyline fill="none" stroke="#0058ad" points="142,-162.5 142,-191.5 "/>
<text text-anchor="middle" x="179" y="-173.3" font-family="Times,serif" font-size="14.00" fill="#0058ad">w 786 2</text>
<polyline fill="none" stroke="#0058ad" points="216,-162.5 216,-191.5 "/>
<text text-anchor="middle" x="254.5" y="-173.3" font-family="Times,serif" font-size="14.00" fill="#0058ad">r 783 nil</text>
</g>
<!-- T20580 -->
<g id="node3" class="node">
<title>T20580</title>
<polygon fill="none" stroke="#0058ad" points="176,-81.5 176,-110.5 401,-110.5 401,-81.5 176,-81.5"/>
<text text-anchor="middle" x="217.5" y="-92.3" font-family="Times,serif" font-size="14.00" fill="#0058ad">w 778 13</text>
<polyline fill="none" stroke="#0058ad" points="259,-81.5 259,-110.5 "/>
<text text-anchor="middle" x="296" y="-92.3" font-family="Times,serif" font-size="14.00" fill="#0058ad">w 783 1</text>
<polyline fill="none" stroke="#0058ad" points="333,-81.5 333,-110.5 "/>
<text text-anchor="middle" x="367" y="-92.3" font-family="Times,serif" font-size="14.00" fill="#0058ad">r 724 3</text>
</g>
<!-- T20613&#45;&gt;T20580 -->
<g id="edge1" class="edge">
<title>T20613:f3&#45;&gt;T20580:f1</title>
<path fill="none" stroke="#5b00c0" d="M254.5,-162C254.5,-136.54 286.08,-138.97 294.47,-120.91"/>
<polygon fill="#5b00c0" stroke="#5b00c0" points="297.93,-121.5 296.5,-111 291.07,-120.1 297.93,-121.5"/>
<text text-anchor="middle" x="296" y="-132.8" font-family="Times,serif" font-size="14.00" fill="#5b00c0">rw</text>
</g>
<!-- T20612 -->
<g id="node2" class="node">
<title>T20612</title>
<polygon fill="none" stroke="#0058ad" points="41.5,-0.5 41.5,-29.5 337.5,-29.5 337.5,-0.5 41.5,-0.5"/>
<text text-anchor="middle" x="78.5" y="-11.3" font-family="Times,serif" font-size="14.00" fill="#0058ad">w 785 6</text>
<polyline fill="none" stroke="#0058ad" points="115.5,-0.5 115.5,-29.5 "/>
<text text-anchor="middle" x="149.5" y="-11.3" font-family="Times,serif" font-size="14.00" fill="#0058ad">r 783 1</text>
<polyline fill="none" stroke="#0058ad" points="183.5,-0.5 183.5,-29.5 "/>
<text text-anchor="middle" x="222" y="-11.3" font-family="Times,serif" font-size="14.00" fill="#0058ad">r 786 nil</text>
<polyline fill="none" stroke="#0058ad" points="260.5,-0.5 260.5,-29.5 "/>
<text text-anchor="middle" x="299" y="-11.3" font-family="Times,serif" font-size="14.00" fill="#0058ad">r 784 nil</text>
</g>
<!-- T20612&#45;&gt;T20613 -->
<g id="edge2" class="edge">
<title>T20612:f2&#45;&gt;T20613:f2</title>
<path fill="none" stroke="#5b00c0" d="M222.5,-30C222.5,-62.12 173.68,-23.85 152.5,-48 134,-69.1 140.93,-83.98 148.5,-111 154.59,-132.75 172.79,-135.21 178.06,-151.83"/>
<polygon fill="#5b00c0" stroke="#5b00c0" points="174.63,-152.59 179.5,-162 181.56,-151.61 174.63,-152.59"/>
<text text-anchor="middle" x="158" y="-92.3" font-family="Times,serif" font-size="14.00" fill="#5b00c0">rw</text>
</g>
<!-- T20580&#45;&gt;T20612 -->
<g id="edge3" class="edge">
<title>T20580:f1&#45;&gt;T20612:f1</title>
<path fill="none" stroke="#c000a5" d="M296.5,-81C296.5,-15.63 165.14,-90.07 150.77,-39.99"/>
<polygon fill="#c000a5" stroke="#c000a5" points="154.23,-39.48 149.5,-30 147.29,-40.36 154.23,-39.48"/>
<text text-anchor="middle" x="300" y="-51.8" font-family="Times,serif" font-size="14.00" fill="#c000a5">wr</text>
</g>
</g>
</svg>
