<?xml version="1.0" encoding="UTF-8" standalone="no"?>
<!DOCTYPE svg PUBLIC "-//W3C//DTD SVG 1.1//EN"
 "http://www.w3.org/Graphics/SVG/1.1/DTD/svg11.dtd">
<!-- Generated by graphviz version 2.43.0 (0)
 -->
<!-- Title: a_graph Pages: 1 -->
<svg width="890pt" height="1010pt"
 viewBox="0.00 0.00 889.50 1010.00" xmlns="http://www.w3.org/2000/svg" xmlns:xlink="http://www.w3.org/1999/xlink">
<g id="graph0" class="graph" transform="scale(1 1) rotate(0) translate(4 1006)">
<title>a_graph</title>
<polygon fill="white" stroke="transparent" points="-4,4 -4,-1006 885.5,-1006 885.5,4 -4,4"/>
<!-- T11455 -->
<g id="node1" class="node">
<title>T11455</title>
<polygon fill="none" stroke="#0058ad" points="0,-972.5 0,-1001.5 213,-1001.5 213,-972.5 0,-972.5"/>
<text text-anchor="middle" x="34" y="-983.3" font-family="Times,serif" font-size="14.00" fill="#0058ad">r 440 9</text>
<polyline fill="none" stroke="#0058ad" points="68,-972.5 68,-1001.5 "/>
<text text-anchor="middle" x="102" y="-983.3" font-family="Times,serif" font-size="14.00" fill="#0058ad">r 440 9</text>
<polyline fill="none" stroke="#0058ad" points="136,-972.5 136,-1001.5 "/>
<text text-anchor="middle" x="174.5" y="-983.3" font-family="Times,serif" font-size="14.00" fill="#0058ad">r 441 nil</text>
</g>
<!-- T11463 -->
<g id="node5" class="node">
<title>T11463</title>
<polygon fill="none" stroke="#0058ad" points="363.5,-891.5 363.5,-920.5 591.5,-920.5 591.5,-891.5 363.5,-891.5"/>
<text text-anchor="middle" x="402" y="-902.3" font-family="Times,serif" font-size="14.00" fill="#0058ad">r 440 11</text>
<polyline fill="none" stroke="#0058ad" points="440.5,-891.5 440.5,-920.5 "/>
<text text-anchor="middle" x="477.5" y="-902.3" font-family="Times,serif" font-size="14.00" fill="#0058ad">w 441 4</text>
<polyline fill="none" stroke="#0058ad" points="514.5,-891.5 514.5,-920.5 "/>
<text text-anchor="middle" x="553" y="-902.3" font-family="Times,serif" font-size="14.00" fill="#0058ad">r 440 11</text>
</g>
<!-- T11455&#45;&gt;T11463 -->
<g id="edge1" class="edge">
<title>T11455:f2&#45;&gt;T11463:f1</title>
<path fill="none" stroke="#5b00c0" d="M214.5,-987C271.23,-987 454.23,-981.91 475.48,-931.04"/>
<polygon fill="#5b00c0" stroke="#5b00c0" points="478.96,-931.49 477.5,-921 472.1,-930.11 478.96,-931.49"/>
<text text-anchor="middle" x="478" y="-942.8" font-family="Times,serif" font-size="14.00" fill="#5b00c0">rw</text>
</g>
<!-- T11453 -->
<g id="node14" class="node">
<title>T11453</title>
<polygon fill="none" stroke="#0058ad" points="135,-162.5 135,-191.5 354,-191.5 354,-162.5 135,-162.5"/>
<text text-anchor="middle" x="172" y="-173.3" font-family="Times,serif" font-size="14.00" fill="#0058ad">w 441 2</text>
<polyline fill="none" stroke="#0058ad" points="209,-162.5 209,-191.5 "/>
<text text-anchor="middle" x="247.5" y="-173.3" font-family="Times,serif" font-size="14.00" fill="#0058ad">r 439 nil</text>
<polyline fill="none" stroke="#0058ad" points="286,-162.5 286,-191.5 "/>
<text text-anchor="middle" x="320" y="-173.3" font-family="Times,serif" font-size="14.00" fill="#0058ad">r 440 8</text>
</g>
<!-- T11455&#45;&gt;T11453 -->
<g id="edge2" class="edge">
<title>T11455:f2&#45;&gt;T11453:f0</title>
<path fill="none" stroke="#5b00c0" d="M174.5,-972C174.5,-920.84 79.5,-958.16 79.5,-907 79.5,-907 79.5,-907 79.5,-621.5 79.5,-618.67 121.66,-252.77 131.58,-187.05"/>
<polygon fill="#5b00c0" stroke="#5b00c0" points="135.06,-187.48 133.5,-177 128.18,-186.16 135.06,-187.48"/>
<text text-anchor="middle" x="95" y="-578.3" font-family="Times,serif" font-size="14.00" fill="#5b00c0">rw</text>
</g>
<!-- T11498 -->
<g id="node2" class="node">
<title>T11498</title>
<polygon fill="none" stroke="#0058ad" points="407.5,-324.5 407.5,-353.5 703.5,-353.5 703.5,-324.5 407.5,-324.5"/>
<text text-anchor="middle" x="441.5" y="-335.3" font-family="Times,serif" font-size="14.00" fill="#0058ad">r 442 1</text>
<polyline fill="none" stroke="#0058ad" points="475.5,-324.5 475.5,-353.5 "/>
<text text-anchor="middle" x="509.5" y="-335.3" font-family="Times,serif" font-size="14.00" fill="#0058ad">r 442 1</text>
<polyline fill="none" stroke="#0058ad" points="543.5,-324.5 543.5,-353.5 "/>
<text text-anchor="middle" x="585" y="-335.3" font-family="Times,serif" font-size="14.00" fill="#0058ad">w 426 14</text>
<polyline fill="none" stroke="#0058ad" points="626.5,-324.5 626.5,-353.5 "/>
<text text-anchor="middle" x="665" y="-335.3" font-family="Times,serif" font-size="14.00" fill="#0058ad">r 439 nil</text>
</g>
<!-- T11450 -->
<g id="node4" class="node">
<title>T11450</title>
<polygon fill="none" stroke="#0058ad" points="417,-729.5 417,-758.5 636,-758.5 636,-729.5 417,-729.5"/>
<text text-anchor="middle" x="454" y="-740.3" font-family="Times,serif" font-size="14.00" fill="#0058ad">w 439 4</text>
<polyline fill="none" stroke="#0058ad" points="491,-729.5 491,-758.5 "/>
<text text-anchor="middle" x="529.5" y="-740.3" font-family="Times,serif" font-size="14.00" fill="#0058ad">r 422 nil</text>
<polyline fill="none" stroke="#0058ad" points="568,-729.5 568,-758.5 "/>
<text text-anchor="middle" x="602" y="-740.3" font-family="Times,serif" font-size="14.00" fill="#0058ad">r 439 4</text>
</g>
<!-- T11498&#45;&gt;T11450 -->
<g id="edge4" class="edge">
<title>T11498:f3&#45;&gt;T11450:f0</title>
<path fill="none" stroke="#5b00c0" d="M665.5,-354C665.5,-447.68 775.56,-460.28 745.5,-549 714.87,-639.4 690.37,-669.31 604.5,-711 577.54,-724.09 479.67,-701.55 457.84,-719.83"/>
<polygon fill="#5b00c0" stroke="#5b00c0" points="454.61,-718.46 453.5,-729 460.94,-721.46 454.61,-718.46"/>
<text text-anchor="middle" x="758" y="-537.8" font-family="Times,serif" font-size="14.00" fill="#5b00c0">rw</text>
</g>
<!-- T11438 -->
<g id="node10" class="node">
<title>T11438</title>
<polygon fill="none" stroke="#0058ad" points="475.5,-81.5 475.5,-110.5 765.5,-110.5 765.5,-81.5 475.5,-81.5"/>
<text text-anchor="middle" x="512.5" y="-92.3" font-family="Times,serif" font-size="14.00" fill="#0058ad">w 439 2</text>
<polyline fill="none" stroke="#0058ad" points="549.5,-81.5 549.5,-110.5 "/>
<text text-anchor="middle" x="586.5" y="-92.3" font-family="Times,serif" font-size="14.00" fill="#0058ad">w 429 5</text>
<polyline fill="none" stroke="#0058ad" points="623.5,-81.5 623.5,-110.5 "/>
<text text-anchor="middle" x="657.5" y="-92.3" font-family="Times,serif" font-size="14.00" fill="#0058ad">r 440 5</text>
<polyline fill="none" stroke="#0058ad" points="691.5,-81.5 691.5,-110.5 "/>
<text text-anchor="middle" x="728.5" y="-92.3" font-family="Times,serif" font-size="14.00" fill="#0058ad">w 440 7</text>
</g>
<!-- T11498&#45;&gt;T11438 -->
<g id="edge3" class="edge">
<title>T11498:f3&#45;&gt;T11438:f0</title>
<path fill="none" stroke="#5b00c0" d="M665.5,-324C665.5,-210.97 521.62,-226.47 512.91,-121.22"/>
<polygon fill="#5b00c0" stroke="#5b00c0" points="516.4,-120.85 512.5,-111 509.41,-121.13 516.4,-120.85"/>
<text text-anchor="middle" x="609" y="-213.8" font-family="Times,serif" font-size="14.00" fill="#5b00c0">rw</text>
</g>
<!-- T11446 -->
<g id="node12" class="node">
<title>T11446</title>
<polygon fill="none" stroke="#0058ad" points="211,-243.5 211,-272.5 362,-272.5 362,-243.5 211,-243.5"/>
<text text-anchor="middle" x="248" y="-254.3" font-family="Times,serif" font-size="14.00" fill="#0058ad">w 439 3</text>
<polyline fill="none" stroke="#0058ad" points="285,-243.5 285,-272.5 "/>
<text text-anchor="middle" x="323.5" y="-254.3" font-family="Times,serif" font-size="14.00" fill="#0058ad">r 441 nil</text>
</g>
<!-- T11498&#45;&gt;T11446 -->
<g id="edge5" class="edge">
<title>T11498:f3&#45;&gt;T11446:f0</title>
<path fill="none" stroke="#5b00c0" d="M665.5,-324C665.5,-318.69 320.72,-285.78 257.42,-275.4"/>
<polygon fill="#5b00c0" stroke="#5b00c0" points="258.04,-271.95 247.5,-273 256.39,-278.76 258.04,-271.95"/>
<text text-anchor="middle" x="527" y="-294.8" font-family="Times,serif" font-size="14.00" fill="#5b00c0">rw</text>
</g>
<!-- T11489 -->
<g id="node13" class="node">
<title>T11489</title>
<polygon fill="none" stroke="#0058ad" points="369.5,-567.5 369.5,-596.5 665.5,-596.5 665.5,-567.5 369.5,-567.5"/>
<text text-anchor="middle" x="403.5" y="-578.3" font-family="Times,serif" font-size="14.00" fill="#0058ad">r 426 9</text>
<polyline fill="none" stroke="#0058ad" points="437.5,-567.5 437.5,-596.5 "/>
<text text-anchor="middle" x="474.5" y="-578.3" font-family="Times,serif" font-size="14.00" fill="#0058ad">w 439 5</text>
<polyline fill="none" stroke="#0058ad" points="511.5,-567.5 511.5,-596.5 "/>
<text text-anchor="middle" x="550" y="-578.3" font-family="Times,serif" font-size="14.00" fill="#0058ad">r 442 nil</text>
<polyline fill="none" stroke="#0058ad" points="588.5,-567.5 588.5,-596.5 "/>
<text text-anchor="middle" x="627" y="-578.3" font-family="Times,serif" font-size="14.00" fill="#0058ad">r 442 nil</text>
</g>
<!-- T11498&#45;&gt;T11489 -->
<g id="edge6" class="edge">
<title>T11498:f3&#45;&gt;T11489:f1</title>
<path fill="none" stroke="#5b00c0" d="M665.5,-354C665.5,-379.08 461.08,-357.66 440.5,-372 216.8,-527.86 342.38,-521.75 365.5,-549 378.9,-564.8 447.29,-549.27 468.33,-558.78"/>
<polygon fill="#5b00c0" stroke="#5b00c0" points="465.7,-561.11 474.5,-567 471.29,-556.9 465.7,-561.11"/>
<text text-anchor="middle" x="347" y="-456.8" font-family="Times,serif" font-size="14.00" fill="#5b00c0">rw</text>
</g>
<!-- T11439 -->
<g id="node3" class="node">
<title>T11439</title>
<polygon fill="none" stroke="#0058ad" points="47,-0.5 47,-29.5 272,-29.5 272,-0.5 47,-0.5"/>
<text text-anchor="middle" x="88.5" y="-11.3" font-family="Times,serif" font-size="14.00" fill="#0058ad">w 438 15</text>
<polyline fill="none" stroke="#0058ad" points="130,-0.5 130,-29.5 "/>
<text text-anchor="middle" x="164" y="-11.3" font-family="Times,serif" font-size="14.00" fill="#0058ad">r 440 7</text>
<polyline fill="none" stroke="#0058ad" points="198,-0.5 198,-29.5 "/>
<text text-anchor="middle" x="235" y="-11.3" font-family="Times,serif" font-size="14.00" fill="#0058ad">w 440 9</text>
</g>
<!-- T11439&#45;&gt;T11455 -->
<g id="edge7" class="edge">
<title>T11439:f2&#45;&gt;T11455:f0</title>
<path fill="none" stroke="#c000a5" d="M235.5,-30C235.5,-62.98 195.05,-38.38 163.5,-48 104.73,-65.92 33.5,-33.56 33.5,-95 33.5,-907 33.5,-907 33.5,-907 33.5,-932.16 33.5,-940.89 33.5,-961.82"/>
<polygon fill="#c000a5" stroke="#c000a5" points="30,-962 33.5,-972 37,-962 30,-962"/>
<text text-anchor="middle" x="43" y="-497.3" font-family="Times,serif" font-size="14.00" fill="#c000a5">wr</text>
</g>
<!-- T11523 -->
<g id="node9" class="node">
<title>T11523</title>
<polygon fill="none" stroke="#0058ad" points="311,-648.5 311,-677.5 628,-677.5 628,-648.5 311,-648.5"/>
<text text-anchor="middle" x="352.5" y="-659.3" font-family="Times,serif" font-size="14.00" fill="#0058ad">w 442 11</text>
<polyline fill="none" stroke="#0058ad" points="394,-648.5 394,-677.5 "/>
<text text-anchor="middle" x="435.5" y="-659.3" font-family="Times,serif" font-size="14.00" fill="#0058ad">w 426 16</text>
<polyline fill="none" stroke="#0058ad" points="477,-648.5 477,-677.5 "/>
<text text-anchor="middle" x="514" y="-659.3" font-family="Times,serif" font-size="14.00" fill="#0058ad">w 422 5</text>
<polyline fill="none" stroke="#0058ad" points="551,-648.5 551,-677.5 "/>
<text text-anchor="middle" x="589.5" y="-659.3" font-family="Times,serif" font-size="14.00" fill="#0058ad">r 439 nil</text>
</g>
<!-- T11450&#45;&gt;T11523 -->
<g id="edge8" class="edge">
<title>T11450:f1&#45;&gt;T11523:f2</title>
<path fill="none" stroke="#5b00c0" d="M529.5,-729C529.5,-709.25 519.02,-703.39 515.58,-688.2"/>
<polygon fill="#5b00c0" stroke="#5b00c0" points="519.03,-687.58 514.5,-678 512.07,-688.31 519.03,-687.58"/>
<text text-anchor="middle" x="534" y="-699.8" font-family="Times,serif" font-size="14.00" fill="#5b00c0">rw</text>
</g>
<!-- T11502 -->
<g id="node6" class="node">
<title>T11502</title>
<polygon fill="none" stroke="#0058ad" points="548,-810.5 548,-839.5 835,-839.5 835,-810.5 548,-810.5"/>
<text text-anchor="middle" x="586.5" y="-821.3" font-family="Times,serif" font-size="14.00" fill="#0058ad">r 439 nil</text>
<polyline fill="none" stroke="#0058ad" points="625,-810.5 625,-839.5 "/>
<text text-anchor="middle" x="662" y="-821.3" font-family="Times,serif" font-size="14.00" fill="#0058ad">w 442 5</text>
<polyline fill="none" stroke="#0058ad" points="699,-810.5 699,-839.5 "/>
<text text-anchor="middle" x="733" y="-821.3" font-family="Times,serif" font-size="14.00" fill="#0058ad">r 441 4</text>
<polyline fill="none" stroke="#0058ad" points="767,-810.5 767,-839.5 "/>
<text text-anchor="middle" x="801" y="-821.3" font-family="Times,serif" font-size="14.00" fill="#0058ad">r 441 4</text>
</g>
<!-- T11463&#45;&gt;T11502 -->
<g id="edge10" class="edge">
<title>T11463:f1&#45;&gt;T11502:f2</title>
<path fill="none" stroke="#c000a5" d="M477.5,-891C477.5,-778.61 717.75,-944.99 732.77,-850.02"/>
<polygon fill="#c000a5" stroke="#c000a5" points="736.26,-850.23 733.5,-840 729.28,-849.72 736.26,-850.23"/>
<text text-anchor="middle" x="738" y="-861.8" font-family="Times,serif" font-size="14.00" fill="#c000a5">wr</text>
</g>
<!-- T11477 -->
<g id="node8" class="node">
<title>T11477</title>
<polygon fill="none" stroke="#0058ad" points="107.5,-810.5 107.5,-839.5 397.5,-839.5 397.5,-810.5 107.5,-810.5"/>
<text text-anchor="middle" x="141.5" y="-821.3" font-family="Times,serif" font-size="14.00" fill="#0058ad">r 441 4</text>
<polyline fill="none" stroke="#0058ad" points="175.5,-810.5 175.5,-839.5 "/>
<text text-anchor="middle" x="209.5" y="-821.3" font-family="Times,serif" font-size="14.00" fill="#0058ad">r 441 4</text>
<polyline fill="none" stroke="#0058ad" points="243.5,-810.5 243.5,-839.5 "/>
<text text-anchor="middle" x="282" y="-821.3" font-family="Times,serif" font-size="14.00" fill="#0058ad">r 439 nil</text>
<polyline fill="none" stroke="#0058ad" points="320.5,-810.5 320.5,-839.5 "/>
<text text-anchor="middle" x="359" y="-821.3" font-family="Times,serif" font-size="14.00" fill="#0058ad">r 440 14</text>
</g>
<!-- T11463&#45;&gt;T11477 -->
<g id="edge9" class="edge">
<title>T11463:f1&#45;&gt;T11477:f0</title>
<path fill="none" stroke="#c000a5" d="M477.5,-891C477.5,-856.26 193.16,-874.23 147.62,-847.94"/>
<polygon fill="#c000a5" stroke="#c000a5" points="150.38,-845.78 141.5,-840 144.83,-850.06 150.38,-845.78"/>
<text text-anchor="middle" x="438" y="-861.8" font-family="Times,serif" font-size="14.00" fill="#c000a5">wr</text>
</g>
<!-- T11502&#45;&gt;T11450 -->
<g id="edge12" class="edge">
<title>T11502:f0&#45;&gt;T11450:f0</title>
<path fill="none" stroke="#5b00c0" d="M546.5,-825C499.38,-825 459.49,-811.76 454.12,-769.17"/>
<polygon fill="#5b00c0" stroke="#5b00c0" points="457.6,-768.77 453.5,-759 450.61,-769.19 457.6,-768.77"/>
<text text-anchor="middle" x="470" y="-780.8" font-family="Times,serif" font-size="14.00" fill="#5b00c0">rw</text>
</g>
<!-- T11502&#45;&gt;T11438 -->
<g id="edge11" class="edge">
<title>T11502:f0&#45;&gt;T11438:f0</title>
<path fill="none" stroke="#5b00c0" d="M586.5,-810C586.5,-791.71 608.24,-802.08 623.5,-792 642.16,-779.67 646.67,-775.75 661.5,-759 680.73,-737.27 807.5,-571.51 807.5,-542.5 807.5,-542.5 807.5,-542.5 807.5,-176 807.5,-82.09 693.31,-148.75 601.5,-129 585.32,-125.52 535.8,-129.21 518.52,-119.52"/>
<polygon fill="#5b00c0" stroke="#5b00c0" points="521.13,-117.15 512.5,-111 515.41,-121.19 521.13,-117.15"/>
<text text-anchor="middle" x="817" y="-456.8" font-family="Times,serif" font-size="14.00" fill="#5b00c0">rw</text>
</g>
<!-- T11502&#45;&gt;T11446 -->
<g id="edge13" class="edge">
<title>T11502:f0&#45;&gt;T11446:f0</title>
<path fill="none" stroke="#5b00c0" d="M546.5,-825C472.86,-825 304.17,-727.34 249.5,-678 226.59,-657.33 206.5,-654.35 206.5,-623.5 206.5,-623.5 206.5,-623.5 206.5,-459.5 206.5,-378.11 244.21,-359.36 247.3,-283.11"/>
<polygon fill="#5b00c0" stroke="#5b00c0" points="250.8,-283.07 247.5,-273 243.8,-282.93 250.8,-283.07"/>
<text text-anchor="middle" x="216" y="-537.8" font-family="Times,serif" font-size="14.00" fill="#5b00c0">rw</text>
</g>
<!-- T11502&#45;&gt;T11489 -->
<g id="edge14" class="edge">
<title>T11502:f0&#45;&gt;T11489:f1</title>
<path fill="none" stroke="#5b00c0" d="M586.5,-810C586.5,-775.34 631.08,-790.52 645.5,-759 654.99,-738.25 651.27,-677.11 637.5,-648 628.63,-629.25 623.07,-624.24 604.5,-615 581.75,-603.69 499.99,-620.56 479.29,-605.81"/>
<polygon fill="#5b00c0" stroke="#5b00c0" points="482.35,-604.12 474.5,-597 476.2,-607.46 482.35,-604.12"/>
<text text-anchor="middle" x="659" y="-699.8" font-family="Times,serif" font-size="14.00" fill="#5b00c0">rw</text>
</g>
<!-- T11481 -->
<g id="node7" class="node">
<title>T11481</title>
<polygon fill="none" stroke="#0058ad" points="445.5,-405.5 445.5,-434.5 519.5,-434.5 519.5,-405.5 445.5,-405.5"/>
<text text-anchor="middle" x="482.5" y="-416.3" font-family="Times,serif" font-size="14.00" fill="#0058ad">w 442 1</text>
</g>
<!-- T11481&#45;&gt;T11498 -->
<g id="edge15" class="edge">
<title>T11481:f0&#45;&gt;T11498:f0</title>
<path fill="none" stroke="#c000a5" d="M466.77,-405.33C457.19,-395.04 446.15,-380.28 442.63,-364.18"/>
<polygon fill="#c000a5" stroke="#c000a5" points="446.09,-363.55 441.5,-354 439.13,-364.33 446.09,-363.55"/>
<text text-anchor="middle" x="460" y="-375.8" font-family="Times,serif" font-size="14.00" fill="#c000a5">wr</text>
</g>
<!-- T11477&#45;&gt;T11450 -->
<g id="edge17" class="edge">
<title>T11477:f2&#45;&gt;T11450:f0</title>
<path fill="none" stroke="#5b00c0" d="M282.5,-810C282.5,-747.36 342.88,-744.17 405.45,-744.01"/>
<polygon fill="#5b00c0" stroke="#5b00c0" points="405.5,-747.51 415.5,-744 405.5,-740.51 405.5,-747.51"/>
<text text-anchor="middle" x="299" y="-780.8" font-family="Times,serif" font-size="14.00" fill="#5b00c0">rw</text>
</g>
<!-- T11477&#45;&gt;T11438 -->
<g id="edge16" class="edge">
<title>T11477:f2&#45;&gt;T11438:f0</title>
<path fill="none" stroke="#5b00c0" d="M282.5,-810C282.5,-780.88 246.62,-802.62 219.5,-792 176.37,-775.12 126.5,-791.31 126.5,-745 126.5,-745 126.5,-745 126.5,-378.5 126.5,-282.28 66.63,-238.12 125.5,-162 153.54,-125.75 395.44,-99.06 464.35,-96.25"/>
<polygon fill="#5b00c0" stroke="#5b00c0" points="464.59,-99.74 474.5,-96 464.42,-92.74 464.59,-99.74"/>
<text text-anchor="middle" x="136" y="-456.8" font-family="Times,serif" font-size="14.00" fill="#5b00c0">rw</text>
</g>
<!-- T11477&#45;&gt;T11446 -->
<g id="edge18" class="edge">
<title>T11477:f2&#45;&gt;T11446:f0</title>
<path fill="none" stroke="#5b00c0" d="M282.5,-810C282.5,-780.06 164.5,-774.94 164.5,-745 164.5,-745 164.5,-745 164.5,-378.5 164.5,-325.02 153.85,-266.14 199.29,-258.77"/>
<polygon fill="#5b00c0" stroke="#5b00c0" points="199.79,-262.24 209.5,-258 199.26,-255.26 199.79,-262.24"/>
<text text-anchor="middle" x="174" y="-537.8" font-family="Times,serif" font-size="14.00" fill="#5b00c0">rw</text>
</g>
<!-- T11477&#45;&gt;T11489 -->
<g id="edge19" class="edge">
<title>T11477:f2&#45;&gt;T11489:f1</title>
<path fill="none" stroke="#5b00c0" d="M282.5,-810C282.5,-801.95 280.95,-800.04 280.5,-792 280.13,-785.34 279.94,-783.64 280.5,-777 285.41,-719.05 267.58,-694.51 302.5,-648 322.67,-621.13 338.52,-625.3 370.5,-615 389.34,-608.93 450.43,-616.99 469.06,-605.56"/>
<polygon fill="#5b00c0" stroke="#5b00c0" points="472.09,-607.32 474.5,-597 466.18,-603.56 472.09,-607.32"/>
<text text-anchor="middle" x="290" y="-699.8" font-family="Times,serif" font-size="14.00" fill="#5b00c0">rw</text>
</g>
<!-- T11523&#45;&gt;T11450 -->
<g id="edge21" class="edge">
<title>T11523:f3&#45;&gt;T11450:f0</title>
<path fill="none" stroke="#5b00c0" d="M589.5,-678C589.5,-701.74 569.1,-701.16 547.5,-711 531.47,-718.3 477.53,-711.27 459.46,-720.71"/>
<polygon fill="#5b00c0" stroke="#5b00c0" points="456.49,-718.84 453.5,-729 462.18,-722.92 456.49,-718.84"/>
<text text-anchor="middle" x="591" y="-699.8" font-family="Times,serif" font-size="14.00" fill="#5b00c0">rw</text>
</g>
<!-- T11523&#45;&gt;T11438 -->
<g id="edge20" class="edge">
<title>T11523:f3&#45;&gt;T11438:f0</title>
<path fill="none" stroke="#5b00c0" d="M629.5,-663C649.27,-663 731.5,-523.36 731.5,-502 731.5,-502 731.5,-502 731.5,-176 731.5,-153.29 556.26,-139.51 519.29,-118.69"/>
<polygon fill="#5b00c0" stroke="#5b00c0" points="521.75,-116.17 512.5,-111 516.5,-120.81 521.75,-116.17"/>
<text text-anchor="middle" x="741" y="-375.8" font-family="Times,serif" font-size="14.00" fill="#5b00c0">rw</text>
</g>
<!-- T11523&#45;&gt;T11446 -->
<g id="edge22" class="edge">
<title>T11523:f3&#45;&gt;T11446:f0</title>
<path fill="none" stroke="#5b00c0" d="M589.5,-648C589.5,-623.7 393.96,-639.29 371.5,-630 321.4,-609.27 286.5,-596.72 286.5,-542.5 286.5,-542.5 286.5,-542.5 286.5,-338 286.5,-324.05 259.75,-300.18 250.56,-282.82"/>
<polygon fill="#5b00c0" stroke="#5b00c0" points="253.82,-281.51 247.5,-273 247.13,-283.59 253.82,-281.51"/>
<text text-anchor="middle" x="296" y="-456.8" font-family="Times,serif" font-size="14.00" fill="#5b00c0">rw</text>
</g>
<!-- T11523&#45;&gt;T11489 -->
<g id="edge23" class="edge">
<title>T11523:f3&#45;&gt;T11489:f1</title>
<path fill="none" stroke="#5b00c0" d="M589.5,-648C589.5,-596.02 490.1,-644.94 476.13,-607.14"/>
<polygon fill="#5b00c0" stroke="#5b00c0" points="479.54,-606.32 474.5,-597 472.63,-607.43 479.54,-606.32"/>
<text text-anchor="middle" x="591" y="-618.8" font-family="Times,serif" font-size="14.00" fill="#5b00c0">rw</text>
</g>
<!-- T11438&#45;&gt;T11439 -->
<g id="edge24" class="edge">
<title>T11438:f3&#45;&gt;T11439:f1</title>
<path fill="none" stroke="#c000a5" d="M728.5,-81C728.5,167.13 180.36,-269.02 164.84,-40.27"/>
<polygon fill="#c000a5" stroke="#c000a5" points="168.33,-39.88 164.5,-30 161.33,-40.11 168.33,-39.88"/>
<text text-anchor="middle" x="735" y="-51.8" font-family="Times,serif" font-size="14.00" fill="#c000a5">wr</text>
</g>
<!-- T11491 -->
<g id="node11" class="node">
<title>T11491</title>
<polygon fill="none" stroke="#0058ad" points="417,-486.5 417,-515.5 568,-515.5 568,-486.5 417,-486.5"/>
<text text-anchor="middle" x="455.5" y="-497.3" font-family="Times,serif" font-size="14.00" fill="#0058ad">r 442 nil</text>
<polyline fill="none" stroke="#0058ad" points="494,-486.5 494,-515.5 "/>
<text text-anchor="middle" x="531" y="-497.3" font-family="Times,serif" font-size="14.00" fill="#0058ad">w 442 2</text>
</g>
<!-- T11491&#45;&gt;T11502 -->
<g id="edge27" class="edge">
<title>T11491:f0&#45;&gt;T11502:f1</title>
<path fill="none" stroke="#5b00c0" d="M455.5,-516C455.5,-541.43 543.74,-528.21 568.5,-534 616.54,-545.24 636.19,-535.91 674.5,-567 756.02,-633.16 812.61,-710.43 746.5,-792 725.04,-818.48 675.22,-782.14 663.84,-799.83"/>
<polygon fill="#5b00c0" stroke="#5b00c0" points="660.33,-799.47 661.5,-810 667.16,-801.04 660.33,-799.47"/>
<text text-anchor="middle" x="776" y="-659.3" font-family="Times,serif" font-size="14.00" fill="#5b00c0">rw</text>
</g>
<!-- T11491&#45;&gt;T11481 -->
<g id="edge25" class="edge">
<title>T11491:f0&#45;&gt;T11481:f0</title>
<path fill="none" stroke="#5b00c0" d="M455.5,-486C455.5,-471.15 461.43,-455.73 467.73,-443.53"/>
<polygon fill="#5b00c0" stroke="#5b00c0" points="470.94,-444.95 472.75,-434.51 464.83,-441.54 470.94,-444.95"/>
<text text-anchor="middle" x="472" y="-456.8" font-family="Times,serif" font-size="14.00" fill="#5b00c0">rw</text>
</g>
<!-- T11491&#45;&gt;T11523 -->
<g id="edge26" class="edge">
<title>T11491:f0&#45;&gt;T11523:f0</title>
<path fill="none" stroke="#5b00c0" d="M415.5,-501C371.43,-501 359.52,-526.78 341.5,-567 328.15,-596.79 347.67,-609.11 351.77,-637.65"/>
<polygon fill="#5b00c0" stroke="#5b00c0" points="348.3,-638.27 352.5,-648 355.29,-637.78 348.3,-638.27"/>
<text text-anchor="middle" x="351" y="-578.3" font-family="Times,serif" font-size="14.00" fill="#5b00c0">rw</text>
</g>
<!-- T11446&#45;&gt;T11463 -->
<g id="edge28" class="edge">
<title>T11446:f1&#45;&gt;T11463:f1</title>
<path fill="none" stroke="#5b00c0" d="M363.5,-258C442.43,-258 643.6,-285.49 712.5,-324 870.59,-412.37 863.5,-521.39 863.5,-702.5 863.5,-826 863.5,-826 863.5,-826 863.5,-879.98 804.37,-862.1 751.5,-873 738.22,-875.74 532.16,-875.78 486.44,-886.46"/>
<polygon fill="#5b00c0" stroke="#5b00c0" points="484.83,-883.35 477.5,-891 488,-889.59 484.83,-883.35"/>
<text text-anchor="middle" x="872" y="-578.3" font-family="Times,serif" font-size="14.00" fill="#5b00c0">rw</text>
</g>
<!-- T11446&#45;&gt;T11453 -->
<g id="edge29" class="edge">
<title>T11446:f1&#45;&gt;T11453:f0</title>
<path fill="none" stroke="#5b00c0" d="M323.5,-243C323.5,-216.69 230.14,-236.54 206.5,-225 190.89,-217.38 177.54,-214.47 173.08,-202.18"/>
<polygon fill="#5b00c0" stroke="#5b00c0" points="176.5,-201.34 171.5,-192 169.58,-202.42 176.5,-201.34"/>
<text text-anchor="middle" x="216" y="-213.8" font-family="Times,serif" font-size="14.00" fill="#5b00c0">rw</text>
</g>
<!-- T11489&#45;&gt;T11502 -->
<g id="edge32" class="edge">
<title>T11489:f2&#45;&gt;T11502:f1</title>
<path fill="none" stroke="#5b00c0" d="M550.5,-597C550.5,-633.01 597.87,-597.79 629.5,-615 663.03,-633.24 767.1,-726.99 784.5,-777 786.69,-783.3 788.86,-786.96 784.5,-792 768.98,-809.96 689.3,-789.94 667.19,-801.49"/>
<polygon fill="#5b00c0" stroke="#5b00c0" points="664.15,-799.74 661.5,-810 669.97,-803.63 664.15,-799.74"/>
<text text-anchor="middle" x="747" y="-699.8" font-family="Times,serif" font-size="14.00" fill="#5b00c0">rw</text>
</g>
<!-- T11489&#45;&gt;T11481 -->
<g id="edge30" class="edge">
<title>T11489:f2&#45;&gt;T11481:f0</title>
<path fill="none" stroke="#5b00c0" d="M550.5,-567C550.5,-555.69 562.82,-558.79 568.5,-549 582.7,-524.54 590.61,-511.06 577.5,-486 566.82,-465.57 546.61,-450.19 527.56,-439.44"/>
<polygon fill="#5b00c0" stroke="#5b00c0" points="529.12,-436.3 518.65,-434.68 525.82,-442.47 529.12,-436.3"/>
<text text-anchor="middle" x="593" y="-497.3" font-family="Times,serif" font-size="14.00" fill="#5b00c0">rw</text>
</g>
<!-- T11489&#45;&gt;T11523 -->
<g id="edge31" class="edge">
<title>T11489:f2&#45;&gt;T11523:f0</title>
<path fill="none" stroke="#5b00c0" d="M550.5,-597C550.5,-617.83 478.7,-609.9 458.5,-615 437.94,-620.19 374.44,-622.61 356.98,-638.85"/>
<polygon fill="#5b00c0" stroke="#5b00c0" points="353.75,-637.48 352.5,-648 360.04,-640.56 353.75,-637.48"/>
<text text-anchor="middle" x="468" y="-618.8" font-family="Times,serif" font-size="14.00" fill="#5b00c0">rw</text>
</g>
<!-- T11489&#45;&gt;T11491 -->
<g id="edge33" class="edge">
<title>T11489:f2&#45;&gt;T11491:f1</title>
<path fill="none" stroke="#5b00c0" d="M550.5,-567C550.5,-546.59 536.97,-541.53 532.75,-525.92"/>
<polygon fill="#5b00c0" stroke="#5b00c0" points="536.22,-525.49 531.5,-516 529.27,-526.36 536.22,-525.49"/>
<text text-anchor="middle" x="555" y="-537.8" font-family="Times,serif" font-size="14.00" fill="#5b00c0">rw</text>
</g>
<!-- T11453&#45;&gt;T11450 -->
<g id="edge35" class="edge">
<title>T11453:f1&#45;&gt;T11450:f0</title>
<path fill="none" stroke="#5b00c0" d="M247.5,-192C247.5,-222.52 212.45,-214.51 201.5,-243 166.3,-334.57 244.5,-361.4 244.5,-459.5 244.5,-623.5 244.5,-623.5 244.5,-623.5 244.5,-666.9 353.03,-734.29 405.27,-743.05"/>
<polygon fill="#5b00c0" stroke="#5b00c0" points="405.22,-746.56 415.5,-744 405.87,-739.59 405.22,-746.56"/>
<text text-anchor="middle" x="254" y="-456.8" font-family="Times,serif" font-size="14.00" fill="#5b00c0">rw</text>
</g>
<!-- T11453&#45;&gt;T11438 -->
<g id="edge34" class="edge">
<title>T11453:f1&#45;&gt;T11438:f0</title>
<path fill="none" stroke="#5b00c0" d="M247.5,-162C247.5,-112.44 402.76,-97.65 464.45,-96.13"/>
<polygon fill="#5b00c0" stroke="#5b00c0" points="464.55,-99.63 474.5,-96 464.45,-92.63 464.55,-99.63"/>
<text text-anchor="middle" x="283" y="-132.8" font-family="Times,serif" font-size="14.00" fill="#5b00c0">rw</text>
</g>
<!-- T11453&#45;&gt;T11446 -->
<g id="edge36" class="edge">
<title>T11453:f1&#45;&gt;T11446:f0</title>
<path fill="none" stroke="#5b00c0" d="M247.5,-192C247.5,-210.77 247.5,-217.88 247.5,-232.65"/>
<polygon fill="#5b00c0" stroke="#5b00c0" points="244,-233 247.5,-243 251,-233 244,-233"/>
<text text-anchor="middle" x="257" y="-213.8" font-family="Times,serif" font-size="14.00" fill="#5b00c0">rw</text>
</g>
<!-- T11453&#45;&gt;T11489 -->
<g id="edge37" class="edge">
<title>T11453:f1&#45;&gt;T11489:f1</title>
<path fill="none" stroke="#5b00c0" d="M247.5,-192C247.5,-206.9 362.85,-230.87 371.5,-243 406.54,-292.11 379.5,-318.17 379.5,-378.5 379.5,-502 379.5,-502 379.5,-502 379.5,-549.36 460.92,-520.89 473.01,-557"/>
<polygon fill="#5b00c0" stroke="#5b00c0" points="469.56,-557.63 474.5,-567 476.49,-556.59 469.56,-557.63"/>
<text text-anchor="middle" x="389" y="-375.8" font-family="Times,serif" font-size="14.00" fill="#5b00c0">rw</text>
</g>
</g>
</svg>
