<?xml version="1.0" encoding="UTF-8" standalone="no"?>
<!DOCTYPE svg PUBLIC "-//W3C//DTD SVG 1.1//EN"
 "http://www.w3.org/Graphics/SVG/1.1/DTD/svg11.dtd">
<!-- Generated by graphviz version 2.43.0 (0)
 -->
<!-- Title: a_graph Pages: 1 -->
<svg width="569pt" height="848pt"
 viewBox="0.00 0.00 569.00 848.00" xmlns="http://www.w3.org/2000/svg" xmlns:xlink="http://www.w3.org/1999/xlink">
<g id="graph0" class="graph" transform="scale(1 1) rotate(0) translate(4 844)">
<title>a_graph</title>
<polygon fill="white" stroke="transparent" points="-4,4 -4,-844 565,-844 565,4 -4,4"/>
<!-- T26354 -->
<g id="node1" class="node">
<title>T26354</title>
<polygon fill="none" stroke="#0058ad" points="143.5,-810.5 143.5,-839.5 490.5,-839.5 490.5,-810.5 143.5,-810.5"/>
<text text-anchor="middle" x="186.5" y="-821.3" font-family="Times,serif" font-size="14.00" fill="#0058ad">r 1005 nil</text>
<polyline fill="none" stroke="#0058ad" points="229.5,-810.5 229.5,-839.5 "/>
<text text-anchor="middle" x="272.5" y="-821.3" font-family="Times,serif" font-size="14.00" fill="#0058ad">r 1004 11</text>
<polyline fill="none" stroke="#0058ad" points="315.5,-810.5 315.5,-839.5 "/>
<text text-anchor="middle" x="361.5" y="-821.3" font-family="Times,serif" font-size="14.00" fill="#0058ad">w 1004 14</text>
<polyline fill="none" stroke="#0058ad" points="407.5,-810.5 407.5,-839.5 "/>
<text text-anchor="middle" x="449" y="-821.3" font-family="Times,serif" font-size="14.00" fill="#0058ad">w 1005 4</text>
</g>
<!-- T26356 -->
<g id="node3" class="node">
<title>T26356</title>
<polygon fill="none" stroke="#0058ad" points="80.5,-729.5 80.5,-758.5 163.5,-758.5 163.5,-729.5 80.5,-729.5"/>
<text text-anchor="middle" x="122" y="-740.3" font-family="Times,serif" font-size="14.00" fill="#0058ad">w 1005 5</text>
</g>
<!-- T26354&#45;&gt;T26356 -->
<g id="edge1" class="edge">
<title>T26354:f0&#45;&gt;T26356:f0</title>
<path fill="none" stroke="#5b00c0" d="M142,-825C118.64,-825 116.77,-792.84 118.59,-769.05"/>
<polygon fill="#5b00c0" stroke="#5b00c0" points="122.1,-769.16 119.63,-758.86 115.14,-768.45 122.1,-769.16"/>
<text text-anchor="middle" x="128.5" y="-780.8" font-family="Times,serif" font-size="14.00" fill="#5b00c0">rw</text>
</g>
<!-- T26361 -->
<g id="node11" class="node">
<title>T26361</title>
<polygon fill="none" stroke="#0058ad" points="145.5,-0.5 145.5,-29.5 474.5,-29.5 474.5,-0.5 145.5,-0.5"/>
<text text-anchor="middle" x="187" y="-11.3" font-family="Times,serif" font-size="14.00" fill="#0058ad">w 1005 6</text>
<polyline fill="none" stroke="#0058ad" points="228.5,-0.5 228.5,-29.5 "/>
<text text-anchor="middle" x="267" y="-11.3" font-family="Times,serif" font-size="14.00" fill="#0058ad">r 1005 6</text>
<polyline fill="none" stroke="#0058ad" points="305.5,-0.5 305.5,-29.5 "/>
<text text-anchor="middle" x="348.5" y="-11.3" font-family="Times,serif" font-size="14.00" fill="#0058ad">r 1006 nil</text>
<polyline fill="none" stroke="#0058ad" points="391.5,-0.5 391.5,-29.5 "/>
<text text-anchor="middle" x="433" y="-11.3" font-family="Times,serif" font-size="14.00" fill="#0058ad">w 930 11</text>
</g>
<!-- T26354&#45;&gt;T26361 -->
<g id="edge2" class="edge">
<title>T26354:f0&#45;&gt;T26361:f0</title>
<path fill="none" stroke="#5b00c0" d="M142,-825C69.56,-825 0,-817.44 0,-745 0,-745 0,-745 0,-95 0,-25.22 64.31,-15.78 133.73,-15.05"/>
<polygon fill="#5b00c0" stroke="#5b00c0" points="134.02,-18.55 144,-15 133.98,-11.55 134.02,-18.55"/>
<text text-anchor="middle" x="9.5" y="-416.3" font-family="Times,serif" font-size="14.00" fill="#5b00c0">rw</text>
</g>
<!-- T26278 -->
<g id="node2" class="node">
<title>T26278</title>
<polygon fill="none" stroke="#0058ad" points="85,-324.5 85,-353.5 349,-353.5 349,-324.5 85,-324.5"/>
<text text-anchor="middle" x="131" y="-335.3" font-family="Times,serif" font-size="14.00" fill="#0058ad">w 1000 16</text>
<polyline fill="none" stroke="#0058ad" points="177,-324.5 177,-353.5 "/>
<text text-anchor="middle" x="220" y="-335.3" font-family="Times,serif" font-size="14.00" fill="#0058ad">r 1000 16</text>
<polyline fill="none" stroke="#0058ad" points="263,-324.5 263,-353.5 "/>
<text text-anchor="middle" x="306" y="-335.3" font-family="Times,serif" font-size="14.00" fill="#0058ad">r 1003 nil</text>
</g>
<!-- T26314 -->
<g id="node9" class="node">
<title>T26314</title>
<polygon fill="none" stroke="#0058ad" points="83,-243.5 83,-272.5 359,-272.5 359,-243.5 83,-243.5"/>
<text text-anchor="middle" x="129" y="-254.3" font-family="Times,serif" font-size="14.00" fill="#0058ad">w 1003 12</text>
<polyline fill="none" stroke="#0058ad" points="175,-243.5 175,-272.5 "/>
<text text-anchor="middle" x="221" y="-254.3" font-family="Times,serif" font-size="14.00" fill="#0058ad">w 1003 13</text>
<polyline fill="none" stroke="#0058ad" points="267,-243.5 267,-272.5 "/>
<text text-anchor="middle" x="313" y="-254.3" font-family="Times,serif" font-size="14.00" fill="#0058ad">w 1001 11</text>
</g>
<!-- T26278&#45;&gt;T26314 -->
<g id="edge3" class="edge">
<title>T26278:f2&#45;&gt;T26314:f1</title>
<path fill="none" stroke="#5b00c0" d="M306,-324C306,-283.9 235.59,-311.04 222.94,-283.03"/>
<polygon fill="#5b00c0" stroke="#5b00c0" points="226.33,-282.16 221,-273 219.46,-283.48 226.33,-282.16"/>
<text text-anchor="middle" x="305.5" y="-294.8" font-family="Times,serif" font-size="14.00" fill="#5b00c0">rw</text>
</g>
<!-- T26360 -->
<g id="node8" class="node">
<title>T26360</title>
<polygon fill="none" stroke="#0058ad" points="83.5,-648.5 83.5,-677.5 406.5,-677.5 406.5,-648.5 83.5,-648.5"/>
<text text-anchor="middle" x="122" y="-659.3" font-family="Times,serif" font-size="14.00" fill="#0058ad">r 1005 5</text>
<polyline fill="none" stroke="#0058ad" points="160.5,-648.5 160.5,-677.5 "/>
<text text-anchor="middle" x="202" y="-659.3" font-family="Times,serif" font-size="14.00" fill="#0058ad">w 999 11</text>
<polyline fill="none" stroke="#0058ad" points="243.5,-648.5 243.5,-677.5 "/>
<text text-anchor="middle" x="282" y="-659.3" font-family="Times,serif" font-size="14.00" fill="#0058ad">r 1005 5</text>
<polyline fill="none" stroke="#0058ad" points="320.5,-648.5 320.5,-677.5 "/>
<text text-anchor="middle" x="363.5" y="-659.3" font-family="Times,serif" font-size="14.00" fill="#0058ad">r 1006 nil</text>
</g>
<!-- T26356&#45;&gt;T26360 -->
<g id="edge4" class="edge">
<title>T26356:f0&#45;&gt;T26360:f0</title>
<path fill="none" stroke="#c000a5" d="M122,-729.32C122,-718.45 122,-703.01 122,-688.14"/>
<polygon fill="#c000a5" stroke="#c000a5" points="125.5,-688 122,-678 118.5,-688 125.5,-688"/>
<text text-anchor="middle" x="131.5" y="-699.8" font-family="Times,serif" font-size="14.00" fill="#c000a5">wr</text>
</g>
<!-- T26347 -->
<g id="node4" class="node">
<title>T26347</title>
<polygon fill="none" stroke="#0058ad" points="357,-81.5 357,-110.5 529,-110.5 529,-81.5 357,-81.5"/>
<text text-anchor="middle" x="400" y="-92.3" font-family="Times,serif" font-size="14.00" fill="#0058ad">r 1005 nil</text>
<polyline fill="none" stroke="#0058ad" points="443,-81.5 443,-110.5 "/>
<text text-anchor="middle" x="486" y="-92.3" font-family="Times,serif" font-size="14.00" fill="#0058ad">r 1004 11</text>
</g>
<!-- T26347&#45;&gt;T26354 -->
<g id="edge7" class="edge">
<title>T26347:f0&#45;&gt;T26354:f3</title>
<path fill="none" stroke="#5b00c0" d="M400,-111C400,-168.94 513,-118.06 513,-176 513,-745 513,-745 513,-745 513,-777.88 525.61,-815.95 501.96,-823.62"/>
<polygon fill="#5b00c0" stroke="#5b00c0" points="501.42,-820.16 492,-825 502.39,-827.09 501.42,-820.16"/>
<text text-anchor="middle" x="522.5" y="-456.8" font-family="Times,serif" font-size="14.00" fill="#5b00c0">rw</text>
</g>
<!-- T26347&#45;&gt;T26356 -->
<g id="edge5" class="edge">
<title>T26347:f0&#45;&gt;T26356:f0</title>
<path fill="none" stroke="#5b00c0" d="M356,-96C195.01,-96 55,-136.51 55,-297.5 55,-664 55,-664 55,-664 55,-687.98 72.91,-708.54 90.2,-722.82"/>
<polygon fill="#5b00c0" stroke="#5b00c0" points="88.52,-725.94 98.57,-729.31 92.81,-720.41 88.52,-725.94"/>
<text text-anchor="middle" x="64.5" y="-416.3" font-family="Times,serif" font-size="14.00" fill="#5b00c0">rw</text>
</g>
<!-- T26347&#45;&gt;T26361 -->
<g id="edge6" class="edge">
<title>T26347:f0&#45;&gt;T26361:f0</title>
<path fill="none" stroke="#5b00c0" d="M356,-96C338.28,-96 221.16,-60.59 193.05,-38.33"/>
<polygon fill="#5b00c0" stroke="#5b00c0" points="195.71,-36.03 187,-30 190.05,-40.15 195.71,-36.03"/>
<text text-anchor="middle" x="250.5" y="-51.8" font-family="Times,serif" font-size="14.00" fill="#5b00c0">rw</text>
</g>
<!-- T26363 -->
<g id="node5" class="node">
<title>T26363</title>
<polygon fill="none" stroke="#0058ad" points="111,-567.5 111,-596.5 425,-596.5 425,-567.5 111,-567.5"/>
<text text-anchor="middle" x="152.5" y="-578.3" font-family="Times,serif" font-size="14.00" fill="#0058ad">w 1006 1</text>
<polyline fill="none" stroke="#0058ad" points="194,-567.5 194,-596.5 "/>
<text text-anchor="middle" x="232.5" y="-578.3" font-family="Times,serif" font-size="14.00" fill="#0058ad">r 998 nil</text>
<polyline fill="none" stroke="#0058ad" points="271,-567.5 271,-596.5 "/>
<text text-anchor="middle" x="309.5" y="-578.3" font-family="Times,serif" font-size="14.00" fill="#0058ad">r 1006 1</text>
<polyline fill="none" stroke="#0058ad" points="348,-567.5 348,-596.5 "/>
<text text-anchor="middle" x="386.5" y="-578.3" font-family="Times,serif" font-size="14.00" fill="#0058ad">r 1005 6</text>
</g>
<!-- T26225 -->
<g id="node10" class="node">
<title>T26225</title>
<polygon fill="none" stroke="#0058ad" points="119,-486.5 119,-515.5 353,-515.5 353,-486.5 119,-486.5"/>
<text text-anchor="middle" x="160.5" y="-497.3" font-family="Times,serif" font-size="14.00" fill="#0058ad">w 996 12</text>
<polyline fill="none" stroke="#0058ad" points="202,-486.5 202,-515.5 "/>
<text text-anchor="middle" x="239" y="-497.3" font-family="Times,serif" font-size="14.00" fill="#0058ad">w 998 1</text>
<polyline fill="none" stroke="#0058ad" points="276,-486.5 276,-515.5 "/>
<text text-anchor="middle" x="314.5" y="-497.3" font-family="Times,serif" font-size="14.00" fill="#0058ad">r 996 12</text>
</g>
<!-- T26363&#45;&gt;T26225 -->
<g id="edge8" class="edge">
<title>T26363:f1&#45;&gt;T26225:f1</title>
<path fill="none" stroke="#5b00c0" d="M232,-567C232,-547.87 236.89,-541.07 238.5,-525.99"/>
<polygon fill="#5b00c0" stroke="#5b00c0" points="241.99,-526.16 239,-516 235,-525.81 241.99,-526.16"/>
<text text-anchor="middle" x="247.5" y="-537.8" font-family="Times,serif" font-size="14.00" fill="#5b00c0">rw</text>
</g>
<!-- T26233 -->
<g id="node6" class="node">
<title>T26233</title>
<polygon fill="none" stroke="#0058ad" points="92,-405.5 92,-434.5 338,-434.5 338,-405.5 92,-405.5"/>
<text text-anchor="middle" x="135" y="-416.3" font-family="Times,serif" font-size="14.00" fill="#0058ad">r 1000 nil</text>
<polyline fill="none" stroke="#0058ad" points="178,-405.5 178,-434.5 "/>
<text text-anchor="middle" x="219.5" y="-416.3" font-family="Times,serif" font-size="14.00" fill="#0058ad">w 1000 1</text>
<polyline fill="none" stroke="#0058ad" points="261,-405.5 261,-434.5 "/>
<text text-anchor="middle" x="299.5" y="-416.3" font-family="Times,serif" font-size="14.00" fill="#0058ad">r 996 12</text>
</g>
<!-- T26233&#45;&gt;T26278 -->
<g id="edge9" class="edge">
<title>T26233:f0&#45;&gt;T26278:f0</title>
<path fill="none" stroke="#5b00c0" d="M135,-405C135,-386.17 132.26,-379.14 131.31,-364.37"/>
<polygon fill="#5b00c0" stroke="#5b00c0" points="134.8,-363.89 131,-354 127.8,-364.1 134.8,-363.89"/>
<text text-anchor="middle" x="143.5" y="-375.8" font-family="Times,serif" font-size="14.00" fill="#5b00c0">rw</text>
</g>
<!-- T26344 -->
<g id="node7" class="node">
<title>T26344</title>
<polygon fill="none" stroke="#0058ad" points="215,-162.5 215,-191.5 485,-191.5 485,-162.5 215,-162.5"/>
<text text-anchor="middle" x="258" y="-173.3" font-family="Times,serif" font-size="14.00" fill="#0058ad">r 1001 11</text>
<polyline fill="none" stroke="#0058ad" points="301,-162.5 301,-191.5 "/>
<text text-anchor="middle" x="347" y="-173.3" font-family="Times,serif" font-size="14.00" fill="#0058ad">w 1004 10</text>
<polyline fill="none" stroke="#0058ad" points="393,-162.5 393,-191.5 "/>
<text text-anchor="middle" x="439" y="-173.3" font-family="Times,serif" font-size="14.00" fill="#0058ad">w 1004 11</text>
</g>
<!-- T26344&#45;&gt;T26354 -->
<g id="edge10" class="edge">
<title>T26344:f2&#45;&gt;T26354:f1</title>
<path fill="none" stroke="#c000a5" d="M439,-192C439,-221.55 453,-227.45 453,-257 453,-745 453,-745 453,-745 453,-826.8 287.22,-733.28 272.97,-800.01"/>
<polygon fill="#c000a5" stroke="#c000a5" points="269.49,-799.71 272,-810 276.45,-800.39 269.49,-799.71"/>
<text text-anchor="middle" x="462.5" y="-497.3" font-family="Times,serif" font-size="14.00" fill="#c000a5">wr</text>
</g>
<!-- T26344&#45;&gt;T26347 -->
<g id="edge11" class="edge">
<title>T26344:f2&#45;&gt;T26347:f1</title>
<path fill="none" stroke="#c000a5" d="M486,-177C522.81,-177 562.06,-111.62 539.95,-98.34"/>
<polygon fill="#c000a5" stroke="#c000a5" points="540.54,-94.88 530,-96 538.93,-101.69 540.54,-94.88"/>
<text text-anchor="middle" x="551.5" y="-132.8" font-family="Times,serif" font-size="14.00" fill="#c000a5">wr</text>
</g>
<!-- T26360&#45;&gt;T26363 -->
<g id="edge12" class="edge">
<title>T26360:f3&#45;&gt;T26363:f0</title>
<path fill="none" stroke="#5b00c0" d="M364,-648C364,-554.88 168.24,-683.12 152.95,-607.29"/>
<polygon fill="#5b00c0" stroke="#5b00c0" points="156.4,-606.64 152,-597 149.43,-607.28 156.4,-606.64"/>
<text text-anchor="middle" x="370.5" y="-618.8" font-family="Times,serif" font-size="14.00" fill="#5b00c0">rw</text>
</g>
<!-- T26314&#45;&gt;T26344 -->
<g id="edge13" class="edge">
<title>T26314:f2&#45;&gt;T26344:f0</title>
<path fill="none" stroke="#c000a5" d="M313,-243C313,-213.57 270.14,-222.34 260.09,-201.86"/>
<polygon fill="#c000a5" stroke="#c000a5" points="263.5,-201.06 258,-192 256.65,-202.51 263.5,-201.06"/>
<text text-anchor="middle" x="312.5" y="-213.8" font-family="Times,serif" font-size="14.00" fill="#c000a5">wr</text>
</g>
<!-- T26225&#45;&gt;T26233 -->
<g id="edge14" class="edge">
<title>T26225:f0&#45;&gt;T26233:f2</title>
<path fill="none" stroke="#c000a5" d="M160,-486C160,-423.66 284.07,-492.18 298.61,-445.18"/>
<polygon fill="#c000a5" stroke="#c000a5" points="302.12,-445.38 300,-435 295.18,-444.44 302.12,-445.38"/>
<text text-anchor="middle" x="302.5" y="-456.8" font-family="Times,serif" font-size="14.00" fill="#c000a5">wr</text>
</g>
<!-- T26361&#45;&gt;T26363 -->
<g id="edge15" class="edge">
<title>T26361:f0&#45;&gt;T26363:f3</title>
<path fill="none" stroke="#c000a5" d="M187,-30C187,-102.49 155.57,-139.92 206,-192 243.52,-230.74 276.48,-188.63 326,-210 369.53,-228.78 387,-250.09 387,-297.5 387,-502 387,-502 387,-502 387,-527.16 387,-535.89 387,-556.82"/>
<polygon fill="#c000a5" stroke="#c000a5" points="383.5,-557 387,-567 390.5,-557 383.5,-557"/>
<text text-anchor="middle" x="396.5" y="-294.8" font-family="Times,serif" font-size="14.00" fill="#c000a5">wr</text>
</g>
</g>
</svg>
