<?xml version="1.0" encoding="UTF-8" standalone="no"?>
<!DOCTYPE svg PUBLIC "-//W3C//DTD SVG 1.1//EN"
 "http://www.w3.org/Graphics/SVG/1.1/DTD/svg11.dtd">
<!-- Generated by graphviz version 2.43.0 (0)
 -->
<!-- Title: a_graph Pages: 1 -->
<svg width="688pt" height="605pt"
 viewBox="0.00 0.00 687.50 605.00" xmlns="http://www.w3.org/2000/svg" xmlns:xlink="http://www.w3.org/1999/xlink">
<g id="graph0" class="graph" transform="scale(1 1) rotate(0) translate(4 601)">
<title>a_graph</title>
<polygon fill="white" stroke="transparent" points="-4,4 -4,-601 683.5,-601 683.5,4 -4,4"/>
<!-- T4405 -->
<g id="node1" class="node">
<title>T4405</title>
<polygon fill="none" stroke="#0058ad" points="164,-567.5 164,-596.5 472,-596.5 472,-567.5 164,-567.5"/>
<text text-anchor="middle" x="202.5" y="-578.3" font-family="Times,serif" font-size="14.00" fill="#0058ad">r 174 nil</text>
<polyline fill="none" stroke="#0058ad" points="241,-567.5 241,-596.5 "/>
<text text-anchor="middle" x="278" y="-578.3" font-family="Times,serif" font-size="14.00" fill="#0058ad">w 174 1</text>
<polyline fill="none" stroke="#0058ad" points="315,-567.5 315,-596.5 "/>
<text text-anchor="middle" x="352" y="-578.3" font-family="Times,serif" font-size="14.00" fill="#0058ad">w 174 2</text>
<polyline fill="none" stroke="#0058ad" points="389,-567.5 389,-596.5 "/>
<text text-anchor="middle" x="430.5" y="-578.3" font-family="Times,serif" font-size="14.00" fill="#0058ad">w 171 14</text>
</g>
<!-- T4432 -->
<g id="node8" class="node">
<title>T4432</title>
<polygon fill="none" stroke="#0058ad" points="3.5,-486.5 3.5,-515.5 320.5,-515.5 320.5,-486.5 3.5,-486.5"/>
<text text-anchor="middle" x="40.5" y="-497.3" font-family="Times,serif" font-size="14.00" fill="#0058ad">w 172 9</text>
<polyline fill="none" stroke="#0058ad" points="77.5,-486.5 77.5,-515.5 "/>
<text text-anchor="middle" x="119" y="-497.3" font-family="Times,serif" font-size="14.00" fill="#0058ad">w 174 13</text>
<polyline fill="none" stroke="#0058ad" points="160.5,-486.5 160.5,-515.5 "/>
<text text-anchor="middle" x="202" y="-497.3" font-family="Times,serif" font-size="14.00" fill="#0058ad">w 174 14</text>
<polyline fill="none" stroke="#0058ad" points="243.5,-486.5 243.5,-515.5 "/>
<text text-anchor="middle" x="282" y="-497.3" font-family="Times,serif" font-size="14.00" fill="#0058ad">r 174 14</text>
</g>
<!-- T4405&#45;&gt;T4432 -->
<g id="edge1" class="edge">
<title>T4405:f0&#45;&gt;T4432:f2</title>
<path fill="none" stroke="#5b00c0" d="M202,-567C202,-548.23 202,-541.12 202,-526.35"/>
<polygon fill="#5b00c0" stroke="#5b00c0" points="205.5,-526 202,-516 198.5,-526 205.5,-526"/>
<text text-anchor="middle" x="211.5" y="-537.8" font-family="Times,serif" font-size="14.00" fill="#5b00c0">rw</text>
</g>
<!-- T3981 -->
<g id="node2" class="node">
<title>T3981</title>
<polygon fill="none" stroke="#0058ad" points="312,-81.5 312,-110.5 472,-110.5 472,-81.5 312,-81.5"/>
<text text-anchor="middle" x="350.5" y="-92.3" font-family="Times,serif" font-size="14.00" fill="#0058ad">r 158 nil</text>
<polyline fill="none" stroke="#0058ad" points="389,-81.5 389,-110.5 "/>
<text text-anchor="middle" x="430.5" y="-92.3" font-family="Times,serif" font-size="14.00" fill="#0058ad">w 157 15</text>
</g>
<!-- T4051 -->
<g id="node5" class="node">
<title>T4051</title>
<polygon fill="none" stroke="#0058ad" points="361,-0.5 361,-29.5 595,-29.5 595,-0.5 361,-0.5"/>
<text text-anchor="middle" x="402.5" y="-11.3" font-family="Times,serif" font-size="14.00" fill="#0058ad">w 158 11</text>
<polyline fill="none" stroke="#0058ad" points="444,-0.5 444,-29.5 "/>
<text text-anchor="middle" x="482.5" y="-11.3" font-family="Times,serif" font-size="14.00" fill="#0058ad">r 149 nil</text>
<polyline fill="none" stroke="#0058ad" points="521,-0.5 521,-29.5 "/>
<text text-anchor="middle" x="558" y="-11.3" font-family="Times,serif" font-size="14.00" fill="#0058ad">w 161 9</text>
</g>
<!-- T3981&#45;&gt;T4051 -->
<g id="edge2" class="edge">
<title>T3981:f0&#45;&gt;T4051:f0</title>
<path fill="none" stroke="#5b00c0" d="M350,-81C350,-55.74 335.74,-25.64 349.82,-17.26"/>
<polygon fill="#5b00c0" stroke="#5b00c0" points="351,-20.59 360,-15 349.48,-13.75 351,-20.59"/>
<text text-anchor="middle" x="357.5" y="-51.8" font-family="Times,serif" font-size="14.00" fill="#5b00c0">rw</text>
</g>
<!-- T4413 -->
<g id="node3" class="node">
<title>T4413</title>
<polygon fill="none" stroke="#0058ad" points="121,-162.5 121,-191.5 417,-191.5 417,-162.5 121,-162.5"/>
<text text-anchor="middle" x="159.5" y="-173.3" font-family="Times,serif" font-size="14.00" fill="#0058ad">r 174 nil</text>
<polyline fill="none" stroke="#0058ad" points="198,-162.5 198,-191.5 "/>
<text text-anchor="middle" x="236.5" y="-173.3" font-family="Times,serif" font-size="14.00" fill="#0058ad">r 171 12</text>
<polyline fill="none" stroke="#0058ad" points="275,-162.5 275,-191.5 "/>
<text text-anchor="middle" x="312" y="-173.3" font-family="Times,serif" font-size="14.00" fill="#0058ad">w 168 6</text>
<polyline fill="none" stroke="#0058ad" points="349,-162.5 349,-191.5 "/>
<text text-anchor="middle" x="383" y="-173.3" font-family="Times,serif" font-size="14.00" fill="#0058ad">r 149 1</text>
</g>
<!-- T4413&#45;&gt;T4405 -->
<g id="edge3" class="edge">
<title>T4413:f0&#45;&gt;T4405:f2</title>
<path fill="none" stroke="#5b00c0" d="M159,-192C159,-282.51 352,-166.49 352,-257 352,-502 352,-502 352,-502 352,-527.16 352,-535.89 352,-556.82"/>
<polygon fill="#5b00c0" stroke="#5b00c0" points="348.5,-557 352,-567 355.5,-557 348.5,-557"/>
<text text-anchor="middle" x="361.5" y="-375.8" font-family="Times,serif" font-size="14.00" fill="#5b00c0">rw</text>
</g>
<!-- T4413&#45;&gt;T4432 -->
<g id="edge4" class="edge">
<title>T4413:f0&#45;&gt;T4432:f2</title>
<path fill="none" stroke="#5b00c0" d="M120,-177C55.9,-177 0,-192.9 0,-257 0,-421 0,-421 0,-421 0,-511.63 186.53,-401.01 201.1,-475.92"/>
<polygon fill="#5b00c0" stroke="#5b00c0" points="197.62,-476.35 202,-486 204.6,-475.73 197.62,-476.35"/>
<text text-anchor="middle" x="9.5" y="-335.3" font-family="Times,serif" font-size="14.00" fill="#5b00c0">rw</text>
</g>
<!-- T3921 -->
<g id="node4" class="node">
<title>T3921</title>
<polygon fill="none" stroke="#0058ad" points="528.5,-162.5 528.5,-191.5 679.5,-191.5 679.5,-162.5 528.5,-162.5"/>
<text text-anchor="middle" x="567" y="-173.3" font-family="Times,serif" font-size="14.00" fill="#0058ad">r 157 nil</text>
<polyline fill="none" stroke="#0058ad" points="605.5,-162.5 605.5,-191.5 "/>
<text text-anchor="middle" x="642.5" y="-173.3" font-family="Times,serif" font-size="14.00" fill="#0058ad">w 157 1</text>
</g>
<!-- T3921&#45;&gt;T3981 -->
<g id="edge5" class="edge">
<title>T3921:f0&#45;&gt;T3981:f1</title>
<path fill="none" stroke="#5b00c0" d="M567,-162C567,-156.13 504.97,-116.23 481.69,-101.47"/>
<polygon fill="#5b00c0" stroke="#5b00c0" points="483.33,-98.37 473,-96 479.6,-104.29 483.33,-98.37"/>
<text text-anchor="middle" x="553.5" y="-132.8" font-family="Times,serif" font-size="14.00" fill="#5b00c0">rw</text>
</g>
<!-- T3923 -->
<g id="node9" class="node">
<title>T3923</title>
<polygon fill="none" stroke="#0058ad" points="380.5,-243.5 380.5,-272.5 531.5,-272.5 531.5,-243.5 380.5,-243.5"/>
<text text-anchor="middle" x="417.5" y="-254.3" font-family="Times,serif" font-size="14.00" fill="#0058ad">w 149 1</text>
<polyline fill="none" stroke="#0058ad" points="454.5,-243.5 454.5,-272.5 "/>
<text text-anchor="middle" x="493" y="-254.3" font-family="Times,serif" font-size="14.00" fill="#0058ad">r 157 nil</text>
</g>
<!-- T4051&#45;&gt;T3923 -->
<g id="edge6" class="edge">
<title>T4051:f1&#45;&gt;T3923:f0</title>
<path fill="none" stroke="#5b00c0" d="M483,-30C483,-88.68 485.33,-103.32 486,-162 486.32,-190 503.12,-202.84 486,-225 469.5,-246.36 431.07,-221.41 420.02,-233.11"/>
<polygon fill="#5b00c0" stroke="#5b00c0" points="416.57,-232.41 417,-243 423.27,-234.46 416.57,-232.41"/>
<text text-anchor="middle" x="494.5" y="-132.8" font-family="Times,serif" font-size="14.00" fill="#5b00c0">rw</text>
</g>
<!-- T4436 -->
<g id="node6" class="node">
<title>T4436</title>
<polygon fill="none" stroke="#0058ad" points="28,-405.5 28,-434.5 324,-434.5 324,-405.5 28,-405.5"/>
<text text-anchor="middle" x="66.5" y="-416.3" font-family="Times,serif" font-size="14.00" fill="#0058ad">r 175 nil</text>
<polyline fill="none" stroke="#0058ad" points="105,-405.5 105,-434.5 "/>
<text text-anchor="middle" x="142" y="-416.3" font-family="Times,serif" font-size="14.00" fill="#0058ad">w 175 1</text>
<polyline fill="none" stroke="#0058ad" points="179,-405.5 179,-434.5 "/>
<text text-anchor="middle" x="213" y="-416.3" font-family="Times,serif" font-size="14.00" fill="#0058ad">r 168 8</text>
<polyline fill="none" stroke="#0058ad" points="247,-405.5 247,-434.5 "/>
<text text-anchor="middle" x="285.5" y="-416.3" font-family="Times,serif" font-size="14.00" fill="#0058ad">r 174 14</text>
</g>
<!-- T4440 -->
<g id="node7" class="node">
<title>T4440</title>
<polygon fill="none" stroke="#0058ad" points="71.5,-324.5 71.5,-353.5 290.5,-353.5 290.5,-324.5 71.5,-324.5"/>
<text text-anchor="middle" x="110" y="-335.3" font-family="Times,serif" font-size="14.00" fill="#0058ad">r 149 nil</text>
<polyline fill="none" stroke="#0058ad" points="148.5,-324.5 148.5,-353.5 "/>
<text text-anchor="middle" x="185.5" y="-335.3" font-family="Times,serif" font-size="14.00" fill="#0058ad">w 175 2</text>
<polyline fill="none" stroke="#0058ad" points="222.5,-324.5 222.5,-353.5 "/>
<text text-anchor="middle" x="256.5" y="-335.3" font-family="Times,serif" font-size="14.00" fill="#0058ad">r 175 2</text>
</g>
<!-- T4436&#45;&gt;T4440 -->
<g id="edge7" class="edge">
<title>T4436:f0&#45;&gt;T4440:f1</title>
<path fill="none" stroke="#5b00c0" d="M66,-405C66,-350.9 170.59,-403.87 184.48,-363.99"/>
<polygon fill="#5b00c0" stroke="#5b00c0" points="187.96,-364.41 186,-354 181.04,-363.36 187.96,-364.41"/>
<text text-anchor="middle" x="187.5" y="-375.8" font-family="Times,serif" font-size="14.00" fill="#5b00c0">rw</text>
</g>
<!-- T4440&#45;&gt;T3923 -->
<g id="edge8" class="edge">
<title>T4440:f0&#45;&gt;T3923:f0</title>
<path fill="none" stroke="#5b00c0" d="M110,-324C110,-265.45 297.69,-258.57 368.98,-258.04"/>
<polygon fill="#5b00c0" stroke="#5b00c0" points="369.01,-261.54 379,-258 368.99,-254.54 369.01,-261.54"/>
<text text-anchor="middle" x="146.5" y="-294.8" font-family="Times,serif" font-size="14.00" fill="#5b00c0">rw</text>
</g>
<!-- T4432&#45;&gt;T4436 -->
<g id="edge9" class="edge">
<title>T4432:f2&#45;&gt;T4436:f3</title>
<path fill="none" stroke="#c000a5" d="M202,-486C202,-446.25 271.58,-472.79 284.09,-444.95"/>
<polygon fill="#c000a5" stroke="#c000a5" points="287.55,-445.48 286,-435 280.68,-444.16 287.55,-445.48"/>
<text text-anchor="middle" x="284.5" y="-456.8" font-family="Times,serif" font-size="14.00" fill="#c000a5">wr</text>
</g>
<!-- T3923&#45;&gt;T3981 -->
<g id="edge12" class="edge">
<title>T3923:f1&#45;&gt;T3981:f1</title>
<path fill="none" stroke="#5b00c0" d="M493,-243C493,-236.64 469.74,-197.74 467,-192 451.64,-159.77 434.55,-151.79 431.48,-121.25"/>
<polygon fill="#5b00c0" stroke="#5b00c0" points="434.97,-120.82 431,-111 427.98,-121.15 434.97,-120.82"/>
<text text-anchor="middle" x="476.5" y="-173.3" font-family="Times,serif" font-size="14.00" fill="#5b00c0">rw</text>
</g>
<!-- T3923&#45;&gt;T4413 -->
<g id="edge11" class="edge">
<title>T3923:f0&#45;&gt;T4413:f3</title>
<path fill="none" stroke="#c000a5" d="M417,-243C417,-219.59 391.89,-218.87 384.83,-201.84"/>
<polygon fill="#c000a5" stroke="#c000a5" points="388.27,-201.19 383,-192 381.39,-202.47 388.27,-201.19"/>
<text text-anchor="middle" x="417.5" y="-213.8" font-family="Times,serif" font-size="14.00" fill="#c000a5">wr</text>
</g>
<!-- T3923&#45;&gt;T3921 -->
<g id="edge10" class="edge">
<title>T3923:f1&#45;&gt;T3921:f1</title>
<path fill="none" stroke="#5b00c0" d="M533,-258C586.45,-258 636.36,-250.1 642.39,-202.14"/>
<polygon fill="#5b00c0" stroke="#5b00c0" points="645.89,-202.19 643,-192 638.91,-201.77 645.89,-202.19"/>
<text text-anchor="middle" x="649.5" y="-213.8" font-family="Times,serif" font-size="14.00" fill="#5b00c0">rw</text>
</g>
</g>
</svg>
