<?xml version="1.0" encoding="UTF-8" standalone="no"?>
<!DOCTYPE svg PUBLIC "-//W3C//DTD SVG 1.1//EN"
 "http://www.w3.org/Graphics/SVG/1.1/DTD/svg11.dtd">
<!-- Generated by graphviz version 2.43.0 (0)
 -->
<!-- Title: a_graph Pages: 1 -->
<svg width="521pt" height="362pt"
 viewBox="0.00 0.00 521.00 362.00" xmlns="http://www.w3.org/2000/svg" xmlns:xlink="http://www.w3.org/1999/xlink">
<g id="graph0" class="graph" transform="scale(1 1) rotate(0) translate(4 358)">
<title>a_graph</title>
<polygon fill="white" stroke="transparent" points="-4,4 -4,-358 517,-358 517,4 -4,4"/>
<!-- T15340 -->
<g id="node1" class="node">
<title>T15340</title>
<polygon fill="none" stroke="#0058ad" points="7.5,-324.5 7.5,-353.5 309.5,-353.5 309.5,-324.5 7.5,-324.5"/>
<text text-anchor="middle" x="46" y="-335.3" font-family="Times,serif" font-size="14.00" fill="#0058ad">r 588 nil</text>
<polyline fill="none" stroke="#0058ad" points="84.5,-324.5 84.5,-353.5 "/>
<text text-anchor="middle" x="121.5" y="-335.3" font-family="Times,serif" font-size="14.00" fill="#0058ad">w 589 4</text>
<polyline fill="none" stroke="#0058ad" points="158.5,-324.5 158.5,-353.5 "/>
<text text-anchor="middle" x="195.5" y="-335.3" font-family="Times,serif" font-size="14.00" fill="#0058ad">w 589 5</text>
<polyline fill="none" stroke="#0058ad" points="232.5,-324.5 232.5,-353.5 "/>
<text text-anchor="middle" x="271" y="-335.3" font-family="Times,serif" font-size="14.00" fill="#0058ad">r 588 nil</text>
</g>
<!-- T15311 -->
<g id="node4" class="node">
<title>T15311</title>
<polygon fill="none" stroke="#0058ad" points="0,-162.5 0,-191.5 225,-191.5 225,-162.5 0,-162.5"/>
<text text-anchor="middle" x="37" y="-173.3" font-family="Times,serif" font-size="14.00" fill="#0058ad">w 587 9</text>
<polyline fill="none" stroke="#0058ad" points="74,-162.5 74,-191.5 "/>
<text text-anchor="middle" x="112.5" y="-173.3" font-family="Times,serif" font-size="14.00" fill="#0058ad">r 504 11</text>
<polyline fill="none" stroke="#0058ad" points="151,-162.5 151,-191.5 "/>
<text text-anchor="middle" x="188" y="-173.3" font-family="Times,serif" font-size="14.00" fill="#0058ad">w 588 1</text>
</g>
<!-- T15340&#45;&gt;T15311 -->
<g id="edge1" class="edge">
<title>T15340:f0&#45;&gt;T15311:f2</title>
<path fill="none" stroke="#5b00c0" d="M45.5,-324C45.5,-287.78 32.32,-271.64 54.5,-243 71.8,-220.66 163.78,-222.89 184.4,-201.47"/>
<polygon fill="#5b00c0" stroke="#5b00c0" points="187.74,-202.57 188.5,-192 181.31,-199.78 187.74,-202.57"/>
<text text-anchor="middle" x="64" y="-254.3" font-family="Times,serif" font-size="14.00" fill="#5b00c0">rw</text>
</g>
<!-- T15345 -->
<g id="node5" class="node">
<title>T15345</title>
<polygon fill="none" stroke="#0058ad" points="82.5,-243.5 82.5,-272.5 304.5,-272.5 304.5,-243.5 82.5,-243.5"/>
<text text-anchor="middle" x="116.5" y="-254.3" font-family="Times,serif" font-size="14.00" fill="#0058ad">r 589 5</text>
<polyline fill="none" stroke="#0058ad" points="150.5,-243.5 150.5,-272.5 "/>
<text text-anchor="middle" x="189" y="-254.3" font-family="Times,serif" font-size="14.00" fill="#0058ad">r 588 nil</text>
<polyline fill="none" stroke="#0058ad" points="227.5,-243.5 227.5,-272.5 "/>
<text text-anchor="middle" x="266" y="-254.3" font-family="Times,serif" font-size="14.00" fill="#0058ad">r 590 nil</text>
</g>
<!-- T15340&#45;&gt;T15345 -->
<g id="edge2" class="edge">
<title>T15340:f2&#45;&gt;T15345:f0</title>
<path fill="none" stroke="#c000a5" d="M195.5,-324C195.5,-286.13 130.62,-309.34 118.45,-282.92"/>
<polygon fill="#c000a5" stroke="#c000a5" points="121.87,-282.14 116.5,-273 115,-283.49 121.87,-282.14"/>
<text text-anchor="middle" x="196" y="-294.8" font-family="Times,serif" font-size="14.00" fill="#c000a5">wr</text>
</g>
<!-- T15333 -->
<g id="node2" class="node">
<title>T15333</title>
<polygon fill="none" stroke="#0058ad" points="226,-81.5 226,-110.5 513,-110.5 513,-81.5 226,-81.5"/>
<text text-anchor="middle" x="260" y="-92.3" font-family="Times,serif" font-size="14.00" fill="#0058ad">r 588 1</text>
<polyline fill="none" stroke="#0058ad" points="294,-81.5 294,-110.5 "/>
<text text-anchor="middle" x="332.5" y="-92.3" font-family="Times,serif" font-size="14.00" fill="#0058ad">r 589 nil</text>
<polyline fill="none" stroke="#0058ad" points="371,-81.5 371,-110.5 "/>
<text text-anchor="middle" x="408" y="-92.3" font-family="Times,serif" font-size="14.00" fill="#0058ad">w 589 1</text>
<polyline fill="none" stroke="#0058ad" points="445,-81.5 445,-110.5 "/>
<text text-anchor="middle" x="479" y="-92.3" font-family="Times,serif" font-size="14.00" fill="#0058ad">r 588 1</text>
</g>
<!-- T15333&#45;&gt;T15340 -->
<g id="edge3" class="edge">
<title>T15333:f1&#45;&gt;T15340:f2</title>
<path fill="none" stroke="#5b00c0" d="M332.5,-111C332.5,-183.49 356.78,-214.84 313.5,-273 298.51,-293.14 218.72,-295.21 199.61,-314.81"/>
<polygon fill="#5b00c0" stroke="#5b00c0" points="196.39,-313.44 195.5,-324 202.78,-316.3 196.39,-313.44"/>
<text text-anchor="middle" x="348" y="-213.8" font-family="Times,serif" font-size="14.00" fill="#5b00c0">rw</text>
</g>
<!-- T15353 -->
<g id="node3" class="node">
<title>T15353</title>
<polygon fill="none" stroke="#0058ad" points="184.5,-0.5 184.5,-29.5 412.5,-29.5 412.5,-0.5 184.5,-0.5"/>
<text text-anchor="middle" x="223" y="-11.3" font-family="Times,serif" font-size="14.00" fill="#0058ad">r 588 nil</text>
<polyline fill="none" stroke="#0058ad" points="261.5,-0.5 261.5,-29.5 "/>
<text text-anchor="middle" x="298.5" y="-11.3" font-family="Times,serif" font-size="14.00" fill="#0058ad">w 589 9</text>
<polyline fill="none" stroke="#0058ad" points="335.5,-0.5 335.5,-29.5 "/>
<text text-anchor="middle" x="374" y="-11.3" font-family="Times,serif" font-size="14.00" fill="#0058ad">r 588 nil</text>
</g>
<!-- T15333&#45;&gt;T15353 -->
<g id="edge4" class="edge">
<title>T15333:f1&#45;&gt;T15353:f1</title>
<path fill="none" stroke="#5b00c0" d="M332.5,-81C332.5,-57.59 307.39,-56.87 300.33,-39.84"/>
<polygon fill="#5b00c0" stroke="#5b00c0" points="303.77,-39.19 298.5,-30 296.89,-40.47 303.77,-39.19"/>
<text text-anchor="middle" x="333" y="-51.8" font-family="Times,serif" font-size="14.00" fill="#5b00c0">rw</text>
</g>
<!-- T15353&#45;&gt;T15311 -->
<g id="edge5" class="edge">
<title>T15353:f0&#45;&gt;T15311:f2</title>
<path fill="none" stroke="#5b00c0" d="M183.5,-15C121.45,-15 181.7,-88.55 187.98,-151.93"/>
<polygon fill="#5b00c0" stroke="#5b00c0" points="184.49,-152.19 188.5,-162 191.48,-151.83 184.49,-152.19"/>
<text text-anchor="middle" x="188" y="-92.3" font-family="Times,serif" font-size="14.00" fill="#5b00c0">rw</text>
</g>
<!-- T15311&#45;&gt;T15333 -->
<g id="edge6" class="edge">
<title>T15311:f2&#45;&gt;T15333:f0</title>
<path fill="none" stroke="#c000a5" d="M226.5,-177C255.84,-177 259.09,-150.43 259.46,-121.35"/>
<polygon fill="#c000a5" stroke="#c000a5" points="262.96,-121.02 259.5,-111 255.96,-120.98 262.96,-121.02"/>
<text text-anchor="middle" x="268" y="-132.8" font-family="Times,serif" font-size="14.00" fill="#c000a5">wr</text>
</g>
<!-- T15345&#45;&gt;T15311 -->
<g id="edge7" class="edge">
<title>T15345:f1&#45;&gt;T15311:f2</title>
<path fill="none" stroke="#5b00c0" d="M188.5,-243C188.5,-224.23 188.5,-217.12 188.5,-202.35"/>
<polygon fill="#5b00c0" stroke="#5b00c0" points="192,-202 188.5,-192 185,-202 192,-202"/>
<text text-anchor="middle" x="198" y="-213.8" font-family="Times,serif" font-size="14.00" fill="#5b00c0">rw</text>
</g>
</g>
</svg>
