<?xml version="1.0" encoding="UTF-8" standalone="no"?>
<!DOCTYPE svg PUBLIC "-//W3C//DTD SVG 1.1//EN"
 "http://www.w3.org/Graphics/SVG/1.1/DTD/svg11.dtd">
<!-- Generated by graphviz version 2.43.0 (0)
 -->
<!-- Title: a_graph Pages: 1 -->
<svg width="800pt" height="281pt"
 viewBox="0.00 0.00 800.00 281.00" xmlns="http://www.w3.org/2000/svg" xmlns:xlink="http://www.w3.org/1999/xlink">
<g id="graph0" class="graph" transform="scale(1 1) rotate(0) translate(4 277)">
<title>a_graph</title>
<polygon fill="white" stroke="transparent" points="-4,4 -4,-277 796,-277 796,4 -4,4"/>
<!-- T21725 -->
<g id="node1" class="node">
<title>T21725</title>
<polygon fill="none" stroke="#0058ad" points="0,-243.5 0,-272.5 296,-272.5 296,-243.5 0,-243.5"/>
<text text-anchor="middle" x="37" y="-254.3" font-family="Times,serif" font-size="14.00" fill="#0058ad">w 825 3</text>
<polyline fill="none" stroke="#0058ad" points="74,-243.5 74,-272.5 "/>
<text text-anchor="middle" x="111" y="-254.3" font-family="Times,serif" font-size="14.00" fill="#0058ad">w 824 2</text>
<polyline fill="none" stroke="#0058ad" points="148,-243.5 148,-272.5 "/>
<text text-anchor="middle" x="185" y="-254.3" font-family="Times,serif" font-size="14.00" fill="#0058ad">w 825 4</text>
<polyline fill="none" stroke="#0058ad" points="222,-243.5 222,-272.5 "/>
<text text-anchor="middle" x="259" y="-254.3" font-family="Times,serif" font-size="14.00" fill="#0058ad">w 825 5</text>
</g>
<!-- T21731 -->
<g id="node4" class="node">
<title>T21731</title>
<polygon fill="none" stroke="#0058ad" points="502,-162.5 502,-191.5 792,-191.5 792,-162.5 502,-162.5"/>
<text text-anchor="middle" x="540.5" y="-173.3" font-family="Times,serif" font-size="14.00" fill="#0058ad">r 826 nil</text>
<polyline fill="none" stroke="#0058ad" points="579,-162.5 579,-191.5 "/>
<text text-anchor="middle" x="617.5" y="-173.3" font-family="Times,serif" font-size="14.00" fill="#0058ad">r 826 nil</text>
<polyline fill="none" stroke="#0058ad" points="656,-162.5 656,-191.5 "/>
<text text-anchor="middle" x="690" y="-173.3" font-family="Times,serif" font-size="14.00" fill="#0058ad">r 824 2</text>
<polyline fill="none" stroke="#0058ad" points="724,-162.5 724,-191.5 "/>
<text text-anchor="middle" x="758" y="-173.3" font-family="Times,serif" font-size="14.00" fill="#0058ad">r 825 5</text>
</g>
<!-- T21725&#45;&gt;T21731 -->
<g id="edge1" class="edge">
<title>T21725:f3&#45;&gt;T21731:f3</title>
<path fill="none" stroke="#c000a5" d="M297,-258C345.51,-258 708.24,-245.47 753.39,-201.27"/>
<polygon fill="#c000a5" stroke="#c000a5" points="756.68,-202.51 758,-192 750.41,-199.4 756.68,-202.51"/>
<text text-anchor="middle" x="745.5" y="-213.8" font-family="Times,serif" font-size="14.00" fill="#c000a5">wr</text>
</g>
<!-- T21741 -->
<g id="node2" class="node">
<title>T21741</title>
<polygon fill="none" stroke="#0058ad" points="271.5,-81.5 271.5,-110.5 576.5,-110.5 576.5,-81.5 271.5,-81.5"/>
<text text-anchor="middle" x="310" y="-92.3" font-family="Times,serif" font-size="14.00" fill="#0058ad">r 826 nil</text>
<polyline fill="none" stroke="#0058ad" points="348.5,-81.5 348.5,-110.5 "/>
<text text-anchor="middle" x="387" y="-92.3" font-family="Times,serif" font-size="14.00" fill="#0058ad">r 826 nil</text>
<polyline fill="none" stroke="#0058ad" points="425.5,-81.5 425.5,-110.5 "/>
<text text-anchor="middle" x="464" y="-92.3" font-family="Times,serif" font-size="14.00" fill="#0058ad">r 826 nil</text>
<polyline fill="none" stroke="#0058ad" points="502.5,-81.5 502.5,-110.5 "/>
<text text-anchor="middle" x="539.5" y="-92.3" font-family="Times,serif" font-size="14.00" fill="#0058ad">w 826 2</text>
</g>
<!-- T21730 -->
<g id="node3" class="node">
<title>T21730</title>
<polygon fill="none" stroke="#0058ad" points="277,-0.5 277,-29.5 579,-29.5 579,-0.5 277,-0.5"/>
<text text-anchor="middle" x="315.5" y="-11.3" font-family="Times,serif" font-size="14.00" fill="#0058ad">r 825 nil</text>
<polyline fill="none" stroke="#0058ad" points="354,-0.5 354,-29.5 "/>
<text text-anchor="middle" x="392.5" y="-11.3" font-family="Times,serif" font-size="14.00" fill="#0058ad">r 826 nil</text>
<polyline fill="none" stroke="#0058ad" points="431,-0.5 431,-29.5 "/>
<text text-anchor="middle" x="468" y="-11.3" font-family="Times,serif" font-size="14.00" fill="#0058ad">w 824 3</text>
<polyline fill="none" stroke="#0058ad" points="505,-0.5 505,-29.5 "/>
<text text-anchor="middle" x="542" y="-11.3" font-family="Times,serif" font-size="14.00" fill="#0058ad">w 826 1</text>
</g>
<!-- T21741&#45;&gt;T21730 -->
<g id="edge2" class="edge">
<title>T21741:f0&#45;&gt;T21730:f3</title>
<path fill="none" stroke="#5b00c0" d="M310,-81C310,-80.28 487.62,-42.4 532.03,-32.39"/>
<polygon fill="#5b00c0" stroke="#5b00c0" points="533.09,-35.74 542,-30 531.46,-28.93 533.09,-35.74"/>
<text text-anchor="middle" x="470.5" y="-51.8" font-family="Times,serif" font-size="14.00" fill="#5b00c0">rw</text>
</g>
<!-- T21730&#45;&gt;T21725 -->
<g id="edge3" class="edge">
<title>T21730:f0&#45;&gt;T21725:f3</title>
<path fill="none" stroke="#5b00c0" d="M276,-15C177.76,-15 253.59,-133.13 258.73,-232.8"/>
<polygon fill="#5b00c0" stroke="#5b00c0" points="255.24,-233.1 259,-243 262.23,-232.91 255.24,-233.1"/>
<text text-anchor="middle" x="251.5" y="-132.8" font-family="Times,serif" font-size="14.00" fill="#5b00c0">rw</text>
</g>
<!-- T21730&#45;&gt;T21741 -->
<g id="edge4" class="edge">
<title>T21730:f1&#45;&gt;T21741:f3</title>
<path fill="none" stroke="#5b00c0" d="M392,-30C392,-49.96 461.27,-41.11 480,-48 504.77,-57.11 531.7,-52.35 538.42,-70.77"/>
<polygon fill="#5b00c0" stroke="#5b00c0" points="535.01,-71.65 540,-81 541.93,-70.58 535.01,-71.65"/>
<text text-anchor="middle" x="542.5" y="-51.8" font-family="Times,serif" font-size="14.00" fill="#5b00c0">rw</text>
</g>
<!-- T21731&#45;&gt;T21741 -->
<g id="edge6" class="edge">
<title>T21731:f0&#45;&gt;T21741:f3</title>
<path fill="none" stroke="#5b00c0" d="M540,-162C540,-143.23 540,-136.12 540,-121.35"/>
<polygon fill="#5b00c0" stroke="#5b00c0" points="543.5,-121 540,-111 536.5,-121 543.5,-121"/>
<text text-anchor="middle" x="549.5" y="-132.8" font-family="Times,serif" font-size="14.00" fill="#5b00c0">rw</text>
</g>
<!-- T21731&#45;&gt;T21730 -->
<g id="edge5" class="edge">
<title>T21731:f0&#45;&gt;T21730:f3</title>
<path fill="none" stroke="#5b00c0" d="M540,-162C540,-149.02 554.18,-153.52 563,-144 574.98,-131.07 579.89,-127.87 585,-111 590.56,-92.64 589.28,-44.37 584.63,-24.14"/>
<polygon fill="#5b00c0" stroke="#5b00c0" points="587.64,-22.34 580,-15 581.4,-25.5 587.64,-22.34"/>
<text text-anchor="middle" x="598.5" y="-92.3" font-family="Times,serif" font-size="14.00" fill="#5b00c0">rw</text>
</g>
</g>
</svg>
