<?xml version="1.0" encoding="UTF-8" standalone="no"?>
<!DOCTYPE svg PUBLIC "-//W3C//DTD SVG 1.1//EN"
 "http://www.w3.org/Graphics/SVG/1.1/DTD/svg11.dtd">
<!-- Generated by graphviz version 2.43.0 (0)
 -->
<!-- Title: a_graph Pages: 1 -->
<svg width="508pt" height="362pt"
 viewBox="0.00 0.00 508.00 362.00" xmlns="http://www.w3.org/2000/svg" xmlns:xlink="http://www.w3.org/1999/xlink">
<g id="graph0" class="graph" transform="scale(1 1) rotate(0) translate(4 358)">
<title>a_graph</title>
<polygon fill="white" stroke="transparent" points="-4,4 -4,-358 504,-358 504,4 -4,4"/>
<!-- T15154 -->
<g id="node1" class="node">
<title>T15154</title>
<polygon fill="none" stroke="#0058ad" points="0,-324.5 0,-353.5 219,-353.5 219,-324.5 0,-324.5"/>
<text text-anchor="middle" x="34" y="-335.3" font-family="Times,serif" font-size="14.00" fill="#0058ad">r 582 5</text>
<polyline fill="none" stroke="#0058ad" points="68,-324.5 68,-353.5 "/>
<text text-anchor="middle" x="105" y="-335.3" font-family="Times,serif" font-size="14.00" fill="#0058ad">w 582 9</text>
<polyline fill="none" stroke="#0058ad" points="142,-324.5 142,-353.5 "/>
<text text-anchor="middle" x="180.5" y="-335.3" font-family="Times,serif" font-size="14.00" fill="#0058ad">r 583 nil</text>
</g>
<!-- T15109 -->
<g id="node5" class="node">
<title>T15109</title>
<polygon fill="none" stroke="#0058ad" points="140.5,-243.5 140.5,-272.5 436.5,-272.5 436.5,-243.5 140.5,-243.5"/>
<text text-anchor="middle" x="177.5" y="-254.3" font-family="Times,serif" font-size="14.00" fill="#0058ad">w 583 1</text>
<polyline fill="none" stroke="#0058ad" points="214.5,-243.5 214.5,-272.5 "/>
<text text-anchor="middle" x="251.5" y="-254.3" font-family="Times,serif" font-size="14.00" fill="#0058ad">w 581 7</text>
<polyline fill="none" stroke="#0058ad" points="288.5,-243.5 288.5,-272.5 "/>
<text text-anchor="middle" x="325.5" y="-254.3" font-family="Times,serif" font-size="14.00" fill="#0058ad">w 581 8</text>
<polyline fill="none" stroke="#0058ad" points="362.5,-243.5 362.5,-272.5 "/>
<text text-anchor="middle" x="399.5" y="-254.3" font-family="Times,serif" font-size="14.00" fill="#0058ad">w 582 2</text>
</g>
<!-- T15154&#45;&gt;T15109 -->
<g id="edge1" class="edge">
<title>T15154:f2&#45;&gt;T15109:f0</title>
<path fill="none" stroke="#5b00c0" d="M180.5,-324C180.5,-305.2 178.44,-298.13 177.74,-283.36"/>
<polygon fill="#5b00c0" stroke="#5b00c0" points="181.23,-282.92 177.5,-273 174.23,-283.08 181.23,-282.92"/>
<text text-anchor="middle" x="189" y="-294.8" font-family="Times,serif" font-size="14.00" fill="#5b00c0">rw</text>
</g>
<!-- T15124 -->
<g id="node2" class="node">
<title>T15124</title>
<polygon fill="none" stroke="#0058ad" points="141.5,-81.5 141.5,-110.5 283.5,-110.5 283.5,-81.5 141.5,-81.5"/>
<text text-anchor="middle" x="175.5" y="-92.3" font-family="Times,serif" font-size="14.00" fill="#0058ad">r 560 7</text>
<polyline fill="none" stroke="#0058ad" points="209.5,-81.5 209.5,-110.5 "/>
<text text-anchor="middle" x="246.5" y="-92.3" font-family="Times,serif" font-size="14.00" fill="#0058ad">w 580 2</text>
</g>
<!-- T15141 -->
<g id="node4" class="node">
<title>T15141</title>
<polygon fill="none" stroke="#0058ad" points="33.5,-0.5 33.5,-29.5 311.5,-29.5 311.5,-0.5 33.5,-0.5"/>
<text text-anchor="middle" x="70.5" y="-11.3" font-family="Times,serif" font-size="14.00" fill="#0058ad">w 560 9</text>
<polyline fill="none" stroke="#0058ad" points="107.5,-0.5 107.5,-29.5 "/>
<text text-anchor="middle" x="141.5" y="-11.3" font-family="Times,serif" font-size="14.00" fill="#0058ad">r 582 5</text>
<polyline fill="none" stroke="#0058ad" points="175.5,-0.5 175.5,-29.5 "/>
<text text-anchor="middle" x="209.5" y="-11.3" font-family="Times,serif" font-size="14.00" fill="#0058ad">r 580 2</text>
<polyline fill="none" stroke="#0058ad" points="243.5,-0.5 243.5,-29.5 "/>
<text text-anchor="middle" x="277.5" y="-11.3" font-family="Times,serif" font-size="14.00" fill="#0058ad">r 582 5</text>
</g>
<!-- T15124&#45;&gt;T15141 -->
<g id="edge2" class="edge">
<title>T15124:f1&#45;&gt;T15141:f2</title>
<path fill="none" stroke="#c000a5" d="M246.5,-81C246.5,-56.93 219.17,-57.25 211.49,-40.04"/>
<polygon fill="#c000a5" stroke="#c000a5" points="214.88,-39.13 209.5,-30 208.01,-40.49 214.88,-39.13"/>
<text text-anchor="middle" x="248" y="-51.8" font-family="Times,serif" font-size="14.00" fill="#c000a5">wr</text>
</g>
<!-- T15112 -->
<g id="node3" class="node">
<title>T15112</title>
<polygon fill="none" stroke="#0058ad" points="213,-162.5 213,-191.5 500,-191.5 500,-162.5 213,-162.5"/>
<text text-anchor="middle" x="251.5" y="-173.3" font-family="Times,serif" font-size="14.00" fill="#0058ad">r 580 nil</text>
<polyline fill="none" stroke="#0058ad" points="290,-162.5 290,-191.5 "/>
<text text-anchor="middle" x="324" y="-173.3" font-family="Times,serif" font-size="14.00" fill="#0058ad">r 581 8</text>
<polyline fill="none" stroke="#0058ad" points="358,-162.5 358,-191.5 "/>
<text text-anchor="middle" x="395" y="-173.3" font-family="Times,serif" font-size="14.00" fill="#0058ad">w 580 1</text>
<polyline fill="none" stroke="#0058ad" points="432,-162.5 432,-191.5 "/>
<text text-anchor="middle" x="466" y="-173.3" font-family="Times,serif" font-size="14.00" fill="#0058ad">r 582 2</text>
</g>
<!-- T15112&#45;&gt;T15124 -->
<g id="edge3" class="edge">
<title>T15112:f0&#45;&gt;T15124:f1</title>
<path fill="none" stroke="#5b00c0" d="M251.5,-162C251.5,-143.14 248.07,-136.16 246.89,-121.38"/>
<polygon fill="#5b00c0" stroke="#5b00c0" points="250.38,-120.86 246.5,-111 243.38,-121.13 250.38,-120.86"/>
<text text-anchor="middle" x="259" y="-132.8" font-family="Times,serif" font-size="14.00" fill="#5b00c0">rw</text>
</g>
<!-- T15141&#45;&gt;T15154 -->
<g id="edge4" class="edge">
<title>T15141:f1&#45;&gt;T15154:f1</title>
<path fill="none" stroke="#5b00c0" d="M141.5,-30C141.5,-62.2 109.5,-62.8 109.5,-95 109.5,-259 109.5,-259 109.5,-259 109.5,-284.24 105.71,-292.84 104.73,-313.79"/>
<polygon fill="#5b00c0" stroke="#5b00c0" points="101.22,-313.92 104.5,-324 108.22,-314.08 101.22,-313.92"/>
<text text-anchor="middle" x="119" y="-173.3" font-family="Times,serif" font-size="14.00" fill="#5b00c0">rw</text>
</g>
<!-- T15109&#45;&gt;T15112 -->
<g id="edge5" class="edge">
<title>T15109:f2&#45;&gt;T15112:f1</title>
<path fill="none" stroke="#c000a5" d="M325.5,-243C325.5,-224.21 324.13,-217.12 323.66,-202.36"/>
<polygon fill="#c000a5" stroke="#c000a5" points="327.15,-201.95 323.5,-192 320.15,-202.05 327.15,-201.95"/>
<text text-anchor="middle" x="334" y="-213.8" font-family="Times,serif" font-size="14.00" fill="#c000a5">wr</text>
</g>
</g>
</svg>
