<?xml version="1.0" encoding="UTF-8" standalone="no"?>
<!DOCTYPE svg PUBLIC "-//W3C//DTD SVG 1.1//EN"
 "http://www.w3.org/Graphics/SVG/1.1/DTD/svg11.dtd">
<!-- Generated by graphviz version 2.43.0 (0)
 -->
<!-- Title: a_graph Pages: 1 -->
<svg width="310pt" height="119pt"
 viewBox="0.00 0.00 310.00 119.00" xmlns="http://www.w3.org/2000/svg" xmlns:xlink="http://www.w3.org/1999/xlink">
<g id="graph0" class="graph" transform="scale(1 1) rotate(0) translate(4 115)">
<title>a_graph</title>
<polygon fill="white" stroke="transparent" points="-4,4 -4,-115 306,-115 306,4 -4,4"/>
<!-- T14044 -->
<g id="node1" class="node">
<title>T14044</title>
<polygon fill="none" stroke="#0058ad" points="82.5,-81.5 82.5,-110.5 233.5,-110.5 233.5,-81.5 82.5,-81.5"/>
<text text-anchor="middle" x="121" y="-92.3" font-family="Times,serif" font-size="14.00" fill="#0058ad">r 540 nil</text>
<polyline fill="none" stroke="#0058ad" points="159.5,-81.5 159.5,-110.5 "/>
<text text-anchor="middle" x="196.5" y="-92.3" font-family="Times,serif" font-size="14.00" fill="#0058ad">w 540 1</text>
</g>
<!-- T14060 -->
<g id="node2" class="node">
<title>T14060</title>
<polygon fill="none" stroke="#0058ad" points="0,-0.5 0,-29.5 302,-29.5 302,-0.5 0,-0.5"/>
<text text-anchor="middle" x="41.5" y="-11.3" font-family="Times,serif" font-size="14.00" fill="#0058ad">w 533 16</text>
<polyline fill="none" stroke="#0058ad" points="83,-0.5 83,-29.5 "/>
<text text-anchor="middle" x="121.5" y="-11.3" font-family="Times,serif" font-size="14.00" fill="#0058ad">r 540 nil</text>
<polyline fill="none" stroke="#0058ad" points="160,-0.5 160,-29.5 "/>
<text text-anchor="middle" x="197" y="-11.3" font-family="Times,serif" font-size="14.00" fill="#0058ad">w 540 3</text>
<polyline fill="none" stroke="#0058ad" points="234,-0.5 234,-29.5 "/>
<text text-anchor="middle" x="268" y="-11.3" font-family="Times,serif" font-size="14.00" fill="#0058ad">r 540 3</text>
</g>
<!-- T14044&#45;&gt;T14060 -->
<g id="edge1" class="edge">
<title>T14044:f0&#45;&gt;T14060:f2</title>
<path fill="none" stroke="#5b00c0" d="M121,-81C121,-62.05 132.56,-58.99 148,-48 163.06,-37.28 185.23,-46.95 193.62,-39.58"/>
<polygon fill="#5b00c0" stroke="#5b00c0" points="196.97,-40.59 197,-30 190.37,-38.27 196.97,-40.59"/>
<text text-anchor="middle" x="157.5" y="-51.8" font-family="Times,serif" font-size="14.00" fill="#5b00c0">rw</text>
</g>
<!-- T14060&#45;&gt;T14044 -->
<g id="edge2" class="edge">
<title>T14060:f1&#45;&gt;T14044:f1</title>
<path fill="none" stroke="#5b00c0" d="M121,-30C121,-51.95 148.92,-35.55 167,-48 180.01,-56.96 191.34,-60.01 195.4,-70.91"/>
<polygon fill="#5b00c0" stroke="#5b00c0" points="191.98,-71.67 197,-81 198.89,-70.58 191.98,-71.67"/>
<text text-anchor="middle" x="199.5" y="-51.8" font-family="Times,serif" font-size="14.00" fill="#5b00c0">rw</text>
</g>
</g>
</svg>
