<?xml version="1.0" encoding="UTF-8" standalone="no"?>
<!DOCTYPE svg PUBLIC "-//W3C//DTD SVG 1.1//EN"
 "http://www.w3.org/Graphics/SVG/1.1/DTD/svg11.dtd">
<!-- Generated by graphviz version 2.43.0 (0)
 -->
<!-- Title: a_graph Pages: 1 -->
<svg width="1496pt" height="1010pt"
 viewBox="0.00 0.00 1496.00 1010.00" xmlns="http://www.w3.org/2000/svg" xmlns:xlink="http://www.w3.org/1999/xlink">
<g id="graph0" class="graph" transform="scale(1 1) rotate(0) translate(4 1006)">
<title>a_graph</title>
<polygon fill="white" stroke="transparent" points="-4,4 -4,-1006 1492,-1006 1492,4 -4,4"/>
<!-- T16884 -->
<g id="node1" class="node">
<title>T16884</title>
<polygon fill="none" stroke="#0058ad" points="0,-972.5 0,-1001.5 296,-1001.5 296,-972.5 0,-972.5"/>
<text text-anchor="middle" x="34" y="-983.3" font-family="Times,serif" font-size="14.00" fill="#0058ad">r 645 9</text>
<polyline fill="none" stroke="#0058ad" points="68,-972.5 68,-1001.5 "/>
<text text-anchor="middle" x="109.5" y="-983.3" font-family="Times,serif" font-size="14.00" fill="#0058ad">w 645 14</text>
<polyline fill="none" stroke="#0058ad" points="151,-972.5 151,-1001.5 "/>
<text text-anchor="middle" x="189.5" y="-983.3" font-family="Times,serif" font-size="14.00" fill="#0058ad">r 648 nil</text>
<polyline fill="none" stroke="#0058ad" points="228,-972.5 228,-1001.5 "/>
<text text-anchor="middle" x="262" y="-983.3" font-family="Times,serif" font-size="14.00" fill="#0058ad">r 642 2</text>
</g>
<!-- T16895 -->
<g id="node12" class="node">
<title>T16895</title>
<polygon fill="none" stroke="#0058ad" points="223.5,-891.5 223.5,-920.5 522.5,-920.5 522.5,-891.5 223.5,-891.5"/>
<text text-anchor="middle" x="260.5" y="-902.3" font-family="Times,serif" font-size="14.00" fill="#0058ad">w 648 5</text>
<polyline fill="none" stroke="#0058ad" points="297.5,-891.5 297.5,-920.5 "/>
<text text-anchor="middle" x="336" y="-902.3" font-family="Times,serif" font-size="14.00" fill="#0058ad">r 645 13</text>
<polyline fill="none" stroke="#0058ad" points="374.5,-891.5 374.5,-920.5 "/>
<text text-anchor="middle" x="411.5" y="-902.3" font-family="Times,serif" font-size="14.00" fill="#0058ad">w 648 6</text>
<polyline fill="none" stroke="#0058ad" points="448.5,-891.5 448.5,-920.5 "/>
<text text-anchor="middle" x="485.5" y="-902.3" font-family="Times,serif" font-size="14.00" fill="#0058ad">w 648 7</text>
</g>
<!-- T16884&#45;&gt;T16895 -->
<g id="edge1" class="edge">
<title>T16884:f2&#45;&gt;T16895:f3</title>
<path fill="none" stroke="#5b00c0" d="M190,-972C190,-842.16 470.03,-1042.94 485.35,-931.18"/>
<polygon fill="#5b00c0" stroke="#5b00c0" points="488.85,-931.2 486,-921 481.87,-930.76 488.85,-931.2"/>
<text text-anchor="middle" x="491.5" y="-942.8" font-family="Times,serif" font-size="14.00" fill="#5b00c0">rw</text>
</g>
<!-- T16832 -->
<g id="node2" class="node">
<title>T16832</title>
<polygon fill="none" stroke="#0058ad" points="823.5,-162.5 823.5,-191.5 1054.5,-191.5 1054.5,-162.5 823.5,-162.5"/>
<text text-anchor="middle" x="860.5" y="-173.3" font-family="Times,serif" font-size="14.00" fill="#0058ad">w 642 2</text>
<polyline fill="none" stroke="#0058ad" points="897.5,-162.5 897.5,-191.5 "/>
<text text-anchor="middle" x="939" y="-173.3" font-family="Times,serif" font-size="14.00" fill="#0058ad">w 644 12</text>
<polyline fill="none" stroke="#0058ad" points="980.5,-162.5 980.5,-191.5 "/>
<text text-anchor="middle" x="1017.5" y="-173.3" font-family="Times,serif" font-size="14.00" fill="#0058ad">w 645 5</text>
</g>
<!-- T16832&#45;&gt;T16884 -->
<g id="edge2" class="edge">
<title>T16832:f0&#45;&gt;T16884:f3</title>
<path fill="none" stroke="#c000a5" d="M822,-177C747.47,-177 156,-182.47 156,-257 156,-785.5 156,-785.5 156,-785.5 156,-851.18 179.13,-865.97 215,-921 229.73,-943.6 254.67,-942.1 260.67,-962.02"/>
<polygon fill="#c000a5" stroke="#c000a5" points="257.21,-962.55 262,-972 264.15,-961.63 257.21,-962.55"/>
<text text-anchor="middle" x="165.5" y="-578.3" font-family="Times,serif" font-size="14.00" fill="#c000a5">wr</text>
</g>
<!-- T16857 -->
<g id="node15" class="node">
<title>T16857</title>
<polygon fill="none" stroke="#0058ad" points="345.5,-81.5 345.5,-110.5 570.5,-110.5 570.5,-81.5 345.5,-81.5"/>
<text text-anchor="middle" x="379.5" y="-92.3" font-family="Times,serif" font-size="14.00" fill="#0058ad">r 642 2</text>
<polyline fill="none" stroke="#0058ad" points="413.5,-81.5 413.5,-110.5 "/>
<text text-anchor="middle" x="450.5" y="-92.3" font-family="Times,serif" font-size="14.00" fill="#0058ad">w 645 9</text>
<polyline fill="none" stroke="#0058ad" points="487.5,-81.5 487.5,-110.5 "/>
<text text-anchor="middle" x="529" y="-92.3" font-family="Times,serif" font-size="14.00" fill="#0058ad">w 635 14</text>
</g>
<!-- T16832&#45;&gt;T16857 -->
<g id="edge3" class="edge">
<title>T16832:f0&#45;&gt;T16857:f0</title>
<path fill="none" stroke="#c000a5" d="M822,-177C775.44,-177 428.26,-162.79 383.7,-120.21"/>
<polygon fill="#c000a5" stroke="#c000a5" points="386.67,-118.31 379,-111 380.43,-121.5 386.67,-118.31"/>
<text text-anchor="middle" x="454.5" y="-132.8" font-family="Times,serif" font-size="14.00" fill="#c000a5">wr</text>
</g>
<!-- T16872 -->
<g id="node3" class="node">
<title>T16872</title>
<polygon fill="none" stroke="#0058ad" points="199.5,-0.5 199.5,-29.5 516.5,-29.5 516.5,-0.5 199.5,-0.5"/>
<text text-anchor="middle" x="233.5" y="-11.3" font-family="Times,serif" font-size="14.00" fill="#0058ad">r 645 9</text>
<polyline fill="none" stroke="#0058ad" points="267.5,-0.5 267.5,-29.5 "/>
<text text-anchor="middle" x="309" y="-11.3" font-family="Times,serif" font-size="14.00" fill="#0058ad">w 646 14</text>
<polyline fill="none" stroke="#0058ad" points="350.5,-0.5 350.5,-29.5 "/>
<text text-anchor="middle" x="392" y="-11.3" font-family="Times,serif" font-size="14.00" fill="#0058ad">w 646 15</text>
<polyline fill="none" stroke="#0058ad" points="433.5,-0.5 433.5,-29.5 "/>
<text text-anchor="middle" x="475" y="-11.3" font-family="Times,serif" font-size="14.00" fill="#0058ad">w 646 16</text>
</g>
<!-- T16872&#45;&gt;T16884 -->
<g id="edge4" class="edge">
<title>T16872:f0&#45;&gt;T16884:f1</title>
<path fill="none" stroke="#5b00c0" d="M198,-15C153.82,-15 16,-50.82 16,-95 16,-907 16,-907 16,-907 16,-929.53 17.95,-939.27 35,-954 57.21,-973.19 96.55,-947.18 106.61,-962.01"/>
<polygon fill="#5b00c0" stroke="#5b00c0" points="103.27,-963.09 109,-972 110.07,-961.46 103.27,-963.09"/>
<text text-anchor="middle" x="25.5" y="-497.3" font-family="Times,serif" font-size="14.00" fill="#5b00c0">rw</text>
</g>
<!-- T16830 -->
<g id="node4" class="node">
<title>T16830</title>
<polygon fill="none" stroke="#0058ad" points="571,-486.5 571,-515.5 799,-515.5 799,-486.5 571,-486.5"/>
<text text-anchor="middle" x="609.5" y="-497.3" font-family="Times,serif" font-size="14.00" fill="#0058ad">r 644 10</text>
<polyline fill="none" stroke="#0058ad" points="648,-486.5 648,-515.5 "/>
<text text-anchor="middle" x="685" y="-497.3" font-family="Times,serif" font-size="14.00" fill="#0058ad">w 645 4</text>
<polyline fill="none" stroke="#0058ad" points="722,-486.5 722,-515.5 "/>
<text text-anchor="middle" x="760.5" y="-497.3" font-family="Times,serif" font-size="14.00" fill="#0058ad">r 644 10</text>
</g>
<!-- T16833 -->
<g id="node16" class="node">
<title>T16833</title>
<polygon fill="none" stroke="#0058ad" points="646.5,-405.5 646.5,-434.5 797.5,-434.5 797.5,-405.5 646.5,-405.5"/>
<text text-anchor="middle" x="680.5" y="-416.3" font-family="Times,serif" font-size="14.00" fill="#0058ad">r 645 4</text>
<polyline fill="none" stroke="#0058ad" points="714.5,-405.5 714.5,-434.5 "/>
<text text-anchor="middle" x="756" y="-416.3" font-family="Times,serif" font-size="14.00" fill="#0058ad">w 644 13</text>
</g>
<!-- T16830&#45;&gt;T16833 -->
<g id="edge5" class="edge">
<title>T16830:f1&#45;&gt;T16833:f0</title>
<path fill="none" stroke="#c000a5" d="M685,-486C685,-467.14 681.57,-460.16 680.39,-445.38"/>
<polygon fill="#c000a5" stroke="#c000a5" points="683.88,-444.86 680,-435 676.88,-445.13 683.88,-444.86"/>
<text text-anchor="middle" x="692.5" y="-456.8" font-family="Times,serif" font-size="14.00" fill="#c000a5">wr</text>
</g>
<!-- T16877 -->
<g id="node5" class="node">
<title>T16877</title>
<polygon fill="none" stroke="#0058ad" points="184.5,-486.5 184.5,-515.5 421.5,-515.5 421.5,-486.5 184.5,-486.5"/>
<text text-anchor="middle" x="223" y="-497.3" font-family="Times,serif" font-size="14.00" fill="#0058ad">r 648 nil</text>
<polyline fill="none" stroke="#0058ad" points="261.5,-486.5 261.5,-515.5 "/>
<text text-anchor="middle" x="300" y="-497.3" font-family="Times,serif" font-size="14.00" fill="#0058ad">r 648 nil</text>
<polyline fill="none" stroke="#0058ad" points="338.5,-486.5 338.5,-515.5 "/>
<text text-anchor="middle" x="380" y="-497.3" font-family="Times,serif" font-size="14.00" fill="#0058ad">w 645 13</text>
</g>
<!-- T16877&#45;&gt;T16895 -->
<g id="edge6" class="edge">
<title>T16877:f2&#45;&gt;T16895:f1</title>
<path fill="none" stroke="#c000a5" d="M380,-516C380,-587.84 232,-509.16 232,-581 232,-826 232,-826 232,-826 232,-876.67 321.89,-842.2 334.53,-880.9"/>
<polygon fill="#c000a5" stroke="#c000a5" points="331.1,-881.61 336,-891 338.02,-880.6 331.1,-881.61"/>
<text text-anchor="middle" x="241.5" y="-699.8" font-family="Times,serif" font-size="14.00" fill="#c000a5">wr</text>
</g>
<!-- T16825 -->
<g id="node6" class="node">
<title>T16825</title>
<polygon fill="none" stroke="#0058ad" points="497.5,-567.5 497.5,-596.5 808.5,-596.5 808.5,-567.5 497.5,-567.5"/>
<text text-anchor="middle" x="536" y="-578.3" font-family="Times,serif" font-size="14.00" fill="#0058ad">r 645 nil</text>
<polyline fill="none" stroke="#0058ad" points="574.5,-567.5 574.5,-596.5 "/>
<text text-anchor="middle" x="613" y="-578.3" font-family="Times,serif" font-size="14.00" fill="#0058ad">r 642 nil</text>
<polyline fill="none" stroke="#0058ad" points="651.5,-567.5 651.5,-596.5 "/>
<text text-anchor="middle" x="688.5" y="-578.3" font-family="Times,serif" font-size="14.00" fill="#0058ad">w 644 9</text>
<polyline fill="none" stroke="#0058ad" points="725.5,-567.5 725.5,-596.5 "/>
<text text-anchor="middle" x="767" y="-578.3" font-family="Times,serif" font-size="14.00" fill="#0058ad">w 644 10</text>
</g>
<!-- T16825&#45;&gt;T16884 -->
<g id="edge13" class="edge">
<title>T16825:f0&#45;&gt;T16884:f1</title>
<path fill="none" stroke="#5b00c0" d="M496,-582C488.95,-582 164.64,-908.34 115.27,-964.07"/>
<polygon fill="#5b00c0" stroke="#5b00c0" points="112.46,-961.98 109,-972 117.95,-966.33 112.46,-961.98"/>
<text text-anchor="middle" x="303.5" y="-780.8" font-family="Times,serif" font-size="14.00" fill="#5b00c0">rw</text>
</g>
<!-- T16825&#45;&gt;T16832 -->
<g id="edge9" class="edge">
<title>T16825:f0&#45;&gt;T16832:f2</title>
<path fill="none" stroke="#5b00c0" d="M536,-567C536,-548.58 848.81,-551.89 867,-549 946.96,-536.29 1043,-582.96 1043,-502 1043,-502 1043,-502 1043,-257 1043,-229.8 1023.69,-224.11 1019.01,-202.12"/>
<polygon fill="#5b00c0" stroke="#5b00c0" points="1022.48,-201.6 1018,-192 1015.51,-202.3 1022.48,-201.6"/>
<text text-anchor="middle" x="1052.5" y="-375.8" font-family="Times,serif" font-size="14.00" fill="#5b00c0">rw</text>
</g>
<!-- T16825&#45;&gt;T16830 -->
<g id="edge11" class="edge">
<title>T16825:f3&#45;&gt;T16830:f0</title>
<path fill="none" stroke="#c000a5" d="M767,-567C767,-496.96 624.64,-580.42 610.18,-525.97"/>
<polygon fill="#c000a5" stroke="#c000a5" points="613.65,-525.52 609,-516 606.7,-526.34 613.65,-525.52"/>
<text text-anchor="middle" x="769.5" y="-537.8" font-family="Times,serif" font-size="14.00" fill="#c000a5">wr</text>
</g>
<!-- T16825&#45;&gt;T16877 -->
<g id="edge14" class="edge">
<title>T16825:f0&#45;&gt;T16877:f2</title>
<path fill="none" stroke="#5b00c0" d="M536,-567C536,-563.96 459.58,-519.88 432.38,-505.5"/>
<polygon fill="#5b00c0" stroke="#5b00c0" points="433.53,-502.17 423,-501 430.5,-508.48 433.53,-502.17"/>
<text text-anchor="middle" x="515.5" y="-537.8" font-family="Times,serif" font-size="14.00" fill="#5b00c0">rw</text>
</g>
<!-- T16839 -->
<g id="node8" class="node">
<title>T16839</title>
<polygon fill="none" stroke="#0058ad" points="661.5,-243.5 661.5,-272.5 972.5,-272.5 972.5,-243.5 661.5,-243.5"/>
<text text-anchor="middle" x="700" y="-254.3" font-family="Times,serif" font-size="14.00" fill="#0058ad">r 644 13</text>
<polyline fill="none" stroke="#0058ad" points="738.5,-243.5 738.5,-272.5 "/>
<text text-anchor="middle" x="780" y="-254.3" font-family="Times,serif" font-size="14.00" fill="#0058ad">w 644 16</text>
<polyline fill="none" stroke="#0058ad" points="821.5,-243.5 821.5,-272.5 "/>
<text text-anchor="middle" x="860" y="-254.3" font-family="Times,serif" font-size="14.00" fill="#0058ad">r 642 nil</text>
<polyline fill="none" stroke="#0058ad" points="898.5,-243.5 898.5,-272.5 "/>
<text text-anchor="middle" x="935.5" y="-254.3" font-family="Times,serif" font-size="14.00" fill="#0058ad">w 645 7</text>
</g>
<!-- T16825&#45;&gt;T16839 -->
<g id="edge10" class="edge">
<title>T16825:f0&#45;&gt;T16839:f3</title>
<path fill="none" stroke="#5b00c0" d="M536,-567C536,-531.94 824.86,-572.36 851,-549 861.84,-539.31 886.05,-302.46 895,-291 904.19,-279.24 922.66,-286.19 931.32,-282"/>
<polygon fill="#5b00c0" stroke="#5b00c0" points="934.49,-283.49 936,-273 928.28,-280.26 934.49,-283.49"/>
<text text-anchor="middle" x="884.5" y="-416.3" font-family="Times,serif" font-size="14.00" fill="#5b00c0">rw</text>
</g>
<!-- T16793 -->
<g id="node13" class="node">
<title>T16793</title>
<polygon fill="none" stroke="#0058ad" points="497,-729.5 497,-758.5 731,-758.5 731,-729.5 497,-729.5"/>
<text text-anchor="middle" x="535.5" y="-740.3" font-family="Times,serif" font-size="14.00" fill="#0058ad">r 639 16</text>
<polyline fill="none" stroke="#0058ad" points="574,-729.5 574,-758.5 "/>
<text text-anchor="middle" x="615.5" y="-740.3" font-family="Times,serif" font-size="14.00" fill="#0058ad">w 641 11</text>
<polyline fill="none" stroke="#0058ad" points="657,-729.5 657,-758.5 "/>
<text text-anchor="middle" x="694" y="-740.3" font-family="Times,serif" font-size="14.00" fill="#0058ad">w 642 1</text>
</g>
<!-- T16825&#45;&gt;T16793 -->
<g id="edge7" class="edge">
<title>T16825:f1&#45;&gt;T16793:f2</title>
<path fill="none" stroke="#5b00c0" d="M613,-597C613,-624.74 585.39,-621.56 577,-648 572.97,-660.71 569.69,-666.85 577,-678 605.96,-722.21 682.51,-679.07 692.84,-718.84"/>
<polygon fill="#5b00c0" stroke="#5b00c0" points="689.39,-719.46 694,-729 696.34,-718.67 689.39,-719.46"/>
<text text-anchor="middle" x="586.5" y="-659.3" font-family="Times,serif" font-size="14.00" fill="#5b00c0">rw</text>
</g>
<!-- T16835 -->
<g id="node14" class="node">
<title>T16835</title>
<polygon fill="none" stroke="#0058ad" points="559.5,-324.5 559.5,-353.5 710.5,-353.5 710.5,-324.5 559.5,-324.5"/>
<text text-anchor="middle" x="596.5" y="-335.3" font-family="Times,serif" font-size="14.00" fill="#0058ad">w 645 6</text>
<polyline fill="none" stroke="#0058ad" points="633.5,-324.5 633.5,-353.5 "/>
<text text-anchor="middle" x="672" y="-335.3" font-family="Times,serif" font-size="14.00" fill="#0058ad">r 644 13</text>
</g>
<!-- T16825&#45;&gt;T16835 -->
<g id="edge12" class="edge">
<title>T16825:f0&#45;&gt;T16835:f0</title>
<path fill="none" stroke="#5b00c0" d="M536,-567C536,-519.88 511.23,-364.59 547.94,-341.8"/>
<polygon fill="#5b00c0" stroke="#5b00c0" points="549.31,-345.06 558,-339 547.43,-338.31 549.31,-345.06"/>
<text text-anchor="middle" x="538.5" y="-456.8" font-family="Times,serif" font-size="14.00" fill="#5b00c0">rw</text>
</g>
<!-- T16825&#45;&gt;T16857 -->
<g id="edge8" class="edge">
<title>T16825:f0&#45;&gt;T16857:f1</title>
<path fill="none" stroke="#5b00c0" d="M496,-582C454.99,-582 450,-543.01 450,-502 450,-502 450,-502 450,-176 450,-150.84 450,-142.11 450,-121.18"/>
<polygon fill="#5b00c0" stroke="#5b00c0" points="453.5,-121 450,-111 446.5,-121 453.5,-121"/>
<text text-anchor="middle" x="459.5" y="-335.3" font-family="Times,serif" font-size="14.00" fill="#5b00c0">rw</text>
</g>
<!-- T16876 -->
<g id="node7" class="node">
<title>T16876</title>
<polygon fill="none" stroke="#0058ad" points="1192,-0.5 1192,-29.5 1488,-29.5 1488,-0.5 1192,-0.5"/>
<text text-anchor="middle" x="1230.5" y="-11.3" font-family="Times,serif" font-size="14.00" fill="#0058ad">r 648 nil</text>
<polyline fill="none" stroke="#0058ad" points="1269,-0.5 1269,-29.5 "/>
<text text-anchor="middle" x="1303" y="-11.3" font-family="Times,serif" font-size="14.00" fill="#0058ad">r 645 9</text>
<polyline fill="none" stroke="#0058ad" points="1337,-0.5 1337,-29.5 "/>
<text text-anchor="middle" x="1371" y="-11.3" font-family="Times,serif" font-size="14.00" fill="#0058ad">r 645 9</text>
<polyline fill="none" stroke="#0058ad" points="1405,-0.5 1405,-29.5 "/>
<text text-anchor="middle" x="1446.5" y="-11.3" font-family="Times,serif" font-size="14.00" fill="#0058ad">w 635 15</text>
</g>
<!-- T16876&#45;&gt;T16884 -->
<g id="edge15" class="edge">
<title>T16876:f1&#45;&gt;T16884:f1</title>
<path fill="none" stroke="#5b00c0" d="M1303,-30C1303,-44.88 246.61,-45.18 232,-48 174.54,-59.1 109,-36.48 109,-95 109,-907 109,-907 109,-907 109,-932.16 109,-940.89 109,-961.82"/>
<polygon fill="#5b00c0" stroke="#5b00c0" points="105.5,-962 109,-972 112.5,-962 105.5,-962"/>
<text text-anchor="middle" x="118.5" y="-497.3" font-family="Times,serif" font-size="14.00" fill="#5b00c0">rw</text>
</g>
<!-- T16876&#45;&gt;T16895 -->
<g id="edge16" class="edge">
<title>T16876:f0&#45;&gt;T16895:f3</title>
<path fill="none" stroke="#5b00c0" d="M1230,-30C1230,-63.92 1270,-61.08 1270,-95 1270,-826 1270,-826 1270,-826 1270,-865.73 630.16,-902.4 534.09,-905.75"/>
<polygon fill="#5b00c0" stroke="#5b00c0" points="533.91,-902.25 524,-906 534.08,-909.25 533.91,-902.25"/>
<text text-anchor="middle" x="1279.5" y="-456.8" font-family="Times,serif" font-size="14.00" fill="#5b00c0">rw</text>
</g>
<!-- T16839&#45;&gt;T16832 -->
<g id="edge18" class="edge">
<title>T16839:f2&#45;&gt;T16832:f0</title>
<path fill="none" stroke="#5b00c0" d="M860,-243C860,-224.23 860,-217.12 860,-202.35"/>
<polygon fill="#5b00c0" stroke="#5b00c0" points="863.5,-202 860,-192 856.5,-202 863.5,-202"/>
<text text-anchor="middle" x="869.5" y="-213.8" font-family="Times,serif" font-size="14.00" fill="#5b00c0">rw</text>
</g>
<!-- T16839&#45;&gt;T16793 -->
<g id="edge17" class="edge">
<title>T16839:f2&#45;&gt;T16793:f2</title>
<path fill="none" stroke="#5b00c0" d="M860,-273C860,-298.3 893.5,-276.17 914,-291 935.1,-306.26 949,-311.96 949,-338 949,-461.5 949,-461.5 949,-461.5 949,-558.47 982.99,-602.62 922,-678 895.81,-710.37 792.3,-739.71 742.13,-743.57"/>
<polygon fill="#5b00c0" stroke="#5b00c0" points="741.84,-740.08 732,-744 742.14,-747.07 741.84,-740.08"/>
<text text-anchor="middle" x="961.5" y="-497.3" font-family="Times,serif" font-size="14.00" fill="#5b00c0">rw</text>
</g>
<!-- T16901 -->
<g id="node9" class="node">
<title>T16901</title>
<polygon fill="none" stroke="#0058ad" points="452.5,-810.5 452.5,-839.5 665.5,-839.5 665.5,-810.5 452.5,-810.5"/>
<text text-anchor="middle" x="486.5" y="-821.3" font-family="Times,serif" font-size="14.00" fill="#0058ad">r 648 7</text>
<polyline fill="none" stroke="#0058ad" points="520.5,-810.5 520.5,-839.5 "/>
<text text-anchor="middle" x="554.5" y="-821.3" font-family="Times,serif" font-size="14.00" fill="#0058ad">r 648 7</text>
<polyline fill="none" stroke="#0058ad" points="588.5,-810.5 588.5,-839.5 "/>
<text text-anchor="middle" x="627" y="-821.3" font-family="Times,serif" font-size="14.00" fill="#0058ad">r 642 nil</text>
</g>
<!-- T16901&#45;&gt;T16832 -->
<g id="edge20" class="edge">
<title>T16901:f2&#45;&gt;T16832:f0</title>
<path fill="none" stroke="#5b00c0" d="M627,-810C627,-734.07 469,-820.93 469,-745 469,-745 469,-745 469,-621.5 469,-372.67 566.99,-182.27 811.74,-177.11"/>
<polygon fill="#5b00c0" stroke="#5b00c0" points="812.04,-180.6 822,-177 811.96,-173.6 812.04,-180.6"/>
<text text-anchor="middle" x="488.5" y="-497.3" font-family="Times,serif" font-size="14.00" fill="#5b00c0">rw</text>
</g>
<!-- T16901&#45;&gt;T16793 -->
<g id="edge19" class="edge">
<title>T16901:f2&#45;&gt;T16793:f2</title>
<path fill="none" stroke="#5b00c0" d="M667,-825C695.35,-825 694.59,-797.55 694.11,-769.07"/>
<polygon fill="#5b00c0" stroke="#5b00c0" points="697.61,-768.96 694,-759 690.61,-769.04 697.61,-768.96"/>
<text text-anchor="middle" x="703.5" y="-780.8" font-family="Times,serif" font-size="14.00" fill="#5b00c0">rw</text>
</g>
<!-- T16806 -->
<g id="node10" class="node">
<title>T16806</title>
<polygon fill="none" stroke="#0058ad" points="969.5,-567.5 969.5,-596.5 1194.5,-596.5 1194.5,-567.5 969.5,-567.5"/>
<text text-anchor="middle" x="1008" y="-578.3" font-family="Times,serif" font-size="14.00" fill="#0058ad">r 642 nil</text>
<polyline fill="none" stroke="#0058ad" points="1046.5,-567.5 1046.5,-596.5 "/>
<text text-anchor="middle" x="1083.5" y="-578.3" font-family="Times,serif" font-size="14.00" fill="#0058ad">w 644 1</text>
<polyline fill="none" stroke="#0058ad" points="1120.5,-567.5 1120.5,-596.5 "/>
<text text-anchor="middle" x="1157.5" y="-578.3" font-family="Times,serif" font-size="14.00" fill="#0058ad">w 644 2</text>
</g>
<!-- T16806&#45;&gt;T16832 -->
<g id="edge22" class="edge">
<title>T16806:f0&#45;&gt;T16832:f0</title>
<path fill="none" stroke="#5b00c0" d="M1008,-567C1008,-537.94 1001,-531.06 1001,-502 1001,-502 1001,-502 1001,-257 1001,-246.51 991.13,-248.17 982,-243 971.16,-236.86 891.04,-215.04 866.88,-199.59"/>
<polygon fill="#5b00c0" stroke="#5b00c0" points="869.31,-197.06 860,-192 864.12,-201.76 869.31,-197.06"/>
<text text-anchor="middle" x="1010.5" y="-375.8" font-family="Times,serif" font-size="14.00" fill="#5b00c0">rw</text>
</g>
<!-- T16806&#45;&gt;T16793 -->
<g id="edge21" class="edge">
<title>T16806:f0&#45;&gt;T16793:f2</title>
<path fill="none" stroke="#5b00c0" d="M1008,-597C1008,-633.88 1148.37,-587.54 1173,-615 1177.45,-619.96 1176.81,-624.53 1173,-630 1117.02,-710.51 850.63,-742.02 742.01,-743.91"/>
<polygon fill="#5b00c0" stroke="#5b00c0" points="741.97,-740.41 732,-744 742.03,-747.41 741.97,-740.41"/>
<text text-anchor="middle" x="1164.5" y="-659.3" font-family="Times,serif" font-size="14.00" fill="#5b00c0">rw</text>
</g>
<!-- T16803 -->
<g id="node11" class="node">
<title>T16803</title>
<polygon fill="none" stroke="#0058ad" points="605,-648.5 605,-677.5 913,-677.5 913,-648.5 605,-648.5"/>
<text text-anchor="middle" x="643.5" y="-659.3" font-family="Times,serif" font-size="14.00" fill="#0058ad">r 641 11</text>
<polyline fill="none" stroke="#0058ad" points="682,-648.5 682,-677.5 "/>
<text text-anchor="middle" x="720.5" y="-659.3" font-family="Times,serif" font-size="14.00" fill="#0058ad">r 639 16</text>
<polyline fill="none" stroke="#0058ad" points="759,-648.5 759,-677.5 "/>
<text text-anchor="middle" x="797.5" y="-659.3" font-family="Times,serif" font-size="14.00" fill="#0058ad">r 635 12</text>
<polyline fill="none" stroke="#0058ad" points="836,-648.5 836,-677.5 "/>
<text text-anchor="middle" x="874.5" y="-659.3" font-family="Times,serif" font-size="14.00" fill="#0058ad">r 644 nil</text>
</g>
<!-- T16803&#45;&gt;T16832 -->
<g id="edge24" class="edge">
<title>T16803:f3&#45;&gt;T16832:f1</title>
<path fill="none" stroke="#5b00c0" d="M914,-663C943.01,-663 1147.16,-643.18 1173,-630 1212.9,-609.65 1223,-587.29 1223,-542.5 1223,-542.5 1223,-542.5 1223,-257 1223,-173.03 1122.06,-227.82 1040,-210 1021.29,-205.94 962.77,-212.08 944.5,-200.65"/>
<polygon fill="#5b00c0" stroke="#5b00c0" points="947.32,-198.56 939,-192 941.41,-202.32 947.32,-198.56"/>
<text text-anchor="middle" x="1232.5" y="-416.3" font-family="Times,serif" font-size="14.00" fill="#5b00c0">rw</text>
</g>
<!-- T16803&#45;&gt;T16825 -->
<g id="edge23" class="edge">
<title>T16803:f3&#45;&gt;T16825:f3</title>
<path fill="none" stroke="#5b00c0" d="M875,-648C875,-615.45 832.75,-645.27 804,-630 788.04,-621.52 773.37,-619.57 768.61,-606.99"/>
<polygon fill="#5b00c0" stroke="#5b00c0" points="772.05,-606.32 767,-597 765.13,-607.43 772.05,-606.32"/>
<text text-anchor="middle" x="813.5" y="-618.8" font-family="Times,serif" font-size="14.00" fill="#5b00c0">rw</text>
</g>
<!-- T16803&#45;&gt;T16839 -->
<g id="edge25" class="edge">
<title>T16803:f3&#45;&gt;T16839:f1</title>
<path fill="none" stroke="#5b00c0" d="M875,-648C875,-638.39 884.03,-639.14 887,-630 913.83,-547.51 893.22,-521.72 895,-435 896.31,-371.01 936.61,-339.63 895,-291 880.68,-274.26 807.36,-291.74 785.9,-281.32"/>
<polygon fill="#5b00c0" stroke="#5b00c0" points="788.64,-279.13 780,-273 782.93,-283.18 788.64,-279.13"/>
<text text-anchor="middle" x="904.5" y="-456.8" font-family="Times,serif" font-size="14.00" fill="#5b00c0">rw</text>
</g>
<!-- T16803&#45;&gt;T16806 -->
<g id="edge27" class="edge">
<title>T16803:f3&#45;&gt;T16806:f2</title>
<path fill="none" stroke="#5b00c0" d="M914,-663C966.66,-663 1135.04,-654.36 1155.88,-607"/>
<polygon fill="#5b00c0" stroke="#5b00c0" points="1159.35,-607.51 1158,-597 1152.5,-606.05 1159.35,-607.51"/>
<text text-anchor="middle" x="1159.5" y="-618.8" font-family="Times,serif" font-size="14.00" fill="#5b00c0">rw</text>
</g>
<!-- T16803&#45;&gt;T16833 -->
<g id="edge26" class="edge">
<title>T16803:f3&#45;&gt;T16833:f1</title>
<path fill="none" stroke="#5b00c0" d="M875,-648C875,-598.03 855.23,-442 808.94,-422.1"/>
<polygon fill="#5b00c0" stroke="#5b00c0" points="809.51,-418.64 799,-420 808.06,-425.49 809.51,-418.64"/>
<text text-anchor="middle" x="873.5" y="-537.8" font-family="Times,serif" font-size="14.00" fill="#5b00c0">rw</text>
</g>
<!-- T16895&#45;&gt;T16901 -->
<g id="edge28" class="edge">
<title>T16895:f3&#45;&gt;T16901:f0</title>
<path fill="none" stroke="#c000a5" d="M486,-891C486,-872.23 486,-865.12 486,-850.35"/>
<polygon fill="#c000a5" stroke="#c000a5" points="489.5,-850 486,-840 482.5,-850 489.5,-850"/>
<text text-anchor="middle" x="495.5" y="-861.8" font-family="Times,serif" font-size="14.00" fill="#c000a5">wr</text>
</g>
<!-- T16793&#45;&gt;T16803 -->
<g id="edge29" class="edge">
<title>T16793:f1&#45;&gt;T16803:f0</title>
<path fill="none" stroke="#c000a5" d="M616,-729C616,-704.31 587.32,-675.25 594.4,-665.99"/>
<polygon fill="#c000a5" stroke="#c000a5" points="595.49,-669.32 604,-663 593.41,-662.63 595.49,-669.32"/>
<text text-anchor="middle" x="620.5" y="-699.8" font-family="Times,serif" font-size="14.00" fill="#c000a5">wr</text>
</g>
<!-- T16835&#45;&gt;T16839 -->
<g id="edge30" class="edge">
<title>T16835:f1&#45;&gt;T16839:f1</title>
<path fill="none" stroke="#5b00c0" d="M712,-339C720.82,-339 718.87,-330.34 725,-324 745.46,-302.84 772.66,-305.28 778.75,-283.2"/>
<polygon fill="#5b00c0" stroke="#5b00c0" points="782.26,-283.35 780,-273 775.31,-282.5 782.26,-283.35"/>
<text text-anchor="middle" x="784.5" y="-294.8" font-family="Times,serif" font-size="14.00" fill="#5b00c0">rw</text>
</g>
<!-- T16857&#45;&gt;T16884 -->
<g id="edge33" class="edge">
<title>T16857:f1&#45;&gt;T16884:f0</title>
<path fill="none" stroke="#c000a5" d="M450,-111C450,-132.8 63,-154.2 63,-176 63,-907 63,-907 63,-907 63,-934.93 40.4,-939.55 35.1,-962.01"/>
<polygon fill="#c000a5" stroke="#c000a5" points="31.62,-961.68 34,-972 38.58,-962.44 31.62,-961.68"/>
<text text-anchor="middle" x="72.5" y="-537.8" font-family="Times,serif" font-size="14.00" fill="#c000a5">wr</text>
</g>
<!-- T16857&#45;&gt;T16872 -->
<g id="edge31" class="edge">
<title>T16857:f1&#45;&gt;T16872:f0</title>
<path fill="none" stroke="#c000a5" d="M450,-81C450,14.4 248.81,-118.49 233.87,-40.04"/>
<polygon fill="#c000a5" stroke="#c000a5" points="237.35,-39.66 233,-30 230.38,-40.27 237.35,-39.66"/>
<text text-anchor="middle" x="455.5" y="-51.8" font-family="Times,serif" font-size="14.00" fill="#c000a5">wr</text>
</g>
<!-- T16857&#45;&gt;T16876 -->
<g id="edge32" class="edge">
<title>T16857:f1&#45;&gt;T16876:f1</title>
<path fill="none" stroke="#c000a5" d="M450,-81C450,-36.12 1212.25,-72.94 1295.63,-37"/>
<polygon fill="#c000a5" stroke="#c000a5" points="1298.16,-39.42 1303,-30 1293.34,-34.35 1298.16,-39.42"/>
<text text-anchor="middle" x="1223.5" y="-51.8" font-family="Times,serif" font-size="14.00" fill="#c000a5">wr</text>
</g>
<!-- T16833&#45;&gt;T16839 -->
<g id="edge35" class="edge">
<title>T16833:f1&#45;&gt;T16839:f0</title>
<path fill="none" stroke="#c000a5" d="M756,-405C756,-391.12 713.51,-313.35 702.55,-283"/>
<polygon fill="#c000a5" stroke="#c000a5" points="705.86,-281.82 700,-273 699.08,-283.55 705.86,-281.82"/>
<text text-anchor="middle" x="743.5" y="-335.3" font-family="Times,serif" font-size="14.00" fill="#c000a5">wr</text>
</g>
<!-- T16833&#45;&gt;T16835 -->
<g id="edge34" class="edge">
<title>T16833:f1&#45;&gt;T16835:f1</title>
<path fill="none" stroke="#c000a5" d="M756,-405C756,-384.69 731.47,-397.36 714,-387 697.09,-376.97 679.38,-377.2 673.8,-364.1"/>
<polygon fill="#c000a5" stroke="#c000a5" points="677.2,-363.23 672,-354 670.31,-364.46 677.2,-363.23"/>
<text text-anchor="middle" x="723.5" y="-375.8" font-family="Times,serif" font-size="14.00" fill="#c000a5">wr</text>
</g>
</g>
</svg>
