<?xml version="1.0" encoding="UTF-8" standalone="no"?>
<!DOCTYPE svg PUBLIC "-//W3C//DTD SVG 1.1//EN"
 "http://www.w3.org/Graphics/SVG/1.1/DTD/svg11.dtd">
<!-- Generated by graphviz version 2.43.0 (0)
 -->
<!-- Title: a_graph Pages: 1 -->
<svg width="513pt" height="362pt"
 viewBox="0.00 0.00 513.00 362.00" xmlns="http://www.w3.org/2000/svg" xmlns:xlink="http://www.w3.org/1999/xlink">
<g id="graph0" class="graph" transform="scale(1 1) rotate(0) translate(4 358)">
<title>a_graph</title>
<polygon fill="white" stroke="transparent" points="-4,4 -4,-358 509,-358 509,4 -4,4"/>
<!-- T6870 -->
<g id="node1" class="node">
<title>T6870</title>
<polygon fill="none" stroke="#0058ad" points="405,-324.5 405,-353.5 479,-353.5 479,-324.5 405,-324.5"/>
<text text-anchor="middle" x="442" y="-335.3" font-family="Times,serif" font-size="14.00" fill="#0058ad">w 258 1</text>
</g>
<!-- T6875 -->
<g id="node2" class="node">
<title>T6875</title>
<polygon fill="none" stroke="#0058ad" points="238,-243.5 238,-272.5 380,-272.5 380,-243.5 238,-243.5"/>
<text text-anchor="middle" x="275" y="-254.3" font-family="Times,serif" font-size="14.00" fill="#0058ad">w 264 4</text>
<polyline fill="none" stroke="#0058ad" points="312,-243.5 312,-272.5 "/>
<text text-anchor="middle" x="346" y="-254.3" font-family="Times,serif" font-size="14.00" fill="#0058ad">r 258 1</text>
</g>
<!-- T6870&#45;&gt;T6875 -->
<g id="edge1" class="edge">
<title>T6870:f0&#45;&gt;T6875:f1</title>
<path fill="none" stroke="#c000a5" d="M438.16,-324.14C431.88,-303.32 417.42,-267.12 391.2,-259.45"/>
<polygon fill="#c000a5" stroke="#c000a5" points="391.39,-255.95 381,-258 390.41,-262.88 391.39,-255.95"/>
<text text-anchor="middle" x="440.5" y="-294.8" font-family="Times,serif" font-size="14.00" fill="#c000a5">wr</text>
</g>
<!-- T6880 -->
<g id="node5" class="node">
<title>T6880</title>
<polygon fill="none" stroke="#0058ad" points="8.5,-162.5 8.5,-191.5 295.5,-191.5 295.5,-162.5 8.5,-162.5"/>
<text text-anchor="middle" x="42.5" y="-173.3" font-family="Times,serif" font-size="14.00" fill="#0058ad">r 264 4</text>
<polyline fill="none" stroke="#0058ad" points="76.5,-162.5 76.5,-191.5 "/>
<text text-anchor="middle" x="115" y="-173.3" font-family="Times,serif" font-size="14.00" fill="#0058ad">r 262 nil</text>
<polyline fill="none" stroke="#0058ad" points="153.5,-162.5 153.5,-191.5 "/>
<text text-anchor="middle" x="187.5" y="-173.3" font-family="Times,serif" font-size="14.00" fill="#0058ad">r 264 4</text>
<polyline fill="none" stroke="#0058ad" points="221.5,-162.5 221.5,-191.5 "/>
<text text-anchor="middle" x="258.5" y="-173.3" font-family="Times,serif" font-size="14.00" fill="#0058ad">w 264 6</text>
</g>
<!-- T6875&#45;&gt;T6880 -->
<g id="edge2" class="edge">
<title>T6875:f0&#45;&gt;T6880:f0</title>
<path fill="none" stroke="#c000a5" d="M237,-258C194.65,-258 63.58,-240.64 44.36,-201.77"/>
<polygon fill="#c000a5" stroke="#c000a5" points="47.75,-200.9 42,-192 40.95,-202.54 47.75,-200.9"/>
<text text-anchor="middle" x="81.5" y="-213.8" font-family="Times,serif" font-size="14.00" fill="#c000a5">wr</text>
</g>
<!-- T6885 -->
<g id="node3" class="node">
<title>T6885</title>
<polygon fill="none" stroke="#0058ad" points="152.5,-81.5 152.5,-110.5 457.5,-110.5 457.5,-81.5 152.5,-81.5"/>
<text text-anchor="middle" x="186.5" y="-92.3" font-family="Times,serif" font-size="14.00" fill="#0058ad">r 264 6</text>
<polyline fill="none" stroke="#0058ad" points="220.5,-81.5 220.5,-110.5 "/>
<text text-anchor="middle" x="259" y="-92.3" font-family="Times,serif" font-size="14.00" fill="#0058ad">r 262 nil</text>
<polyline fill="none" stroke="#0058ad" points="297.5,-81.5 297.5,-110.5 "/>
<text text-anchor="middle" x="336" y="-92.3" font-family="Times,serif" font-size="14.00" fill="#0058ad">r 262 nil</text>
<polyline fill="none" stroke="#0058ad" points="374.5,-81.5 374.5,-110.5 "/>
<text text-anchor="middle" x="416" y="-92.3" font-family="Times,serif" font-size="14.00" fill="#0058ad">w 260 13</text>
</g>
<!-- T6834 -->
<g id="node4" class="node">
<title>T6834</title>
<polygon fill="none" stroke="#0058ad" points="0,-0.5 0,-29.5 296,-29.5 296,-0.5 0,-0.5"/>
<text text-anchor="middle" x="38.5" y="-11.3" font-family="Times,serif" font-size="14.00" fill="#0058ad">r 262 nil</text>
<polyline fill="none" stroke="#0058ad" points="77,-0.5 77,-29.5 "/>
<text text-anchor="middle" x="111" y="-11.3" font-family="Times,serif" font-size="14.00" fill="#0058ad">r 259 7</text>
<polyline fill="none" stroke="#0058ad" points="145,-0.5 145,-29.5 "/>
<text text-anchor="middle" x="183.5" y="-11.3" font-family="Times,serif" font-size="14.00" fill="#0058ad">r 258 nil</text>
<polyline fill="none" stroke="#0058ad" points="222,-0.5 222,-29.5 "/>
<text text-anchor="middle" x="259" y="-11.3" font-family="Times,serif" font-size="14.00" fill="#0058ad">w 262 1</text>
</g>
<!-- T6885&#45;&gt;T6834 -->
<g id="edge3" class="edge">
<title>T6885:f1&#45;&gt;T6834:f3</title>
<path fill="none" stroke="#5b00c0" d="M259,-81C259,-62.23 259,-55.12 259,-40.35"/>
<polygon fill="#5b00c0" stroke="#5b00c0" points="262.5,-40 259,-30 255.5,-40 262.5,-40"/>
<text text-anchor="middle" x="268.5" y="-51.8" font-family="Times,serif" font-size="14.00" fill="#5b00c0">rw</text>
</g>
<!-- T6834&#45;&gt;T6870 -->
<g id="edge4" class="edge">
<title>T6834:f2&#45;&gt;T6870:f0</title>
<path fill="none" stroke="#5b00c0" d="M184,-30C184,-93.9 416.52,-41.82 467,-81 487.26,-96.73 486,-109.85 486,-135.5 486,-259 486,-259 486,-259 486,-280.2 473.99,-301.09 462.52,-316.2"/>
<polygon fill="#5b00c0" stroke="#5b00c0" points="459.47,-314.4 455.92,-324.39 464.92,-318.79 459.47,-314.4"/>
<text text-anchor="middle" x="495.5" y="-173.3" font-family="Times,serif" font-size="14.00" fill="#5b00c0">rw</text>
</g>
<!-- T6880&#45;&gt;T6885 -->
<g id="edge5" class="edge">
<title>T6880:f3&#45;&gt;T6885:f0</title>
<path fill="none" stroke="#c000a5" d="M259,-162C259,-126.44 200.08,-145.56 188.11,-121.1"/>
<polygon fill="#c000a5" stroke="#c000a5" points="191.47,-120.08 186,-111 184.61,-121.5 191.47,-120.08"/>
<text text-anchor="middle" x="257.5" y="-132.8" font-family="Times,serif" font-size="14.00" fill="#c000a5">wr</text>
</g>
<!-- T6880&#45;&gt;T6834 -->
<g id="edge6" class="edge">
<title>T6880:f1&#45;&gt;T6834:f3</title>
<path fill="none" stroke="#5b00c0" d="M115,-162C115,-125.73 102.62,-109.54 125,-81 142.43,-58.77 234.31,-60.91 254.9,-39.47"/>
<polygon fill="#5b00c0" stroke="#5b00c0" points="258.24,-40.57 259,-30 251.82,-37.79 258.24,-40.57"/>
<text text-anchor="middle" x="134.5" y="-92.3" font-family="Times,serif" font-size="14.00" fill="#5b00c0">rw</text>
</g>
</g>
</svg>
