<?xml version="1.0" encoding="UTF-8" standalone="no"?>
<!DOCTYPE svg PUBLIC "-//W3C//DTD SVG 1.1//EN"
 "http://www.w3.org/Graphics/SVG/1.1/DTD/svg11.dtd">
<!-- Generated by graphviz version 2.43.0 (0)
 -->
<!-- Title: a_graph Pages: 1 -->
<svg width="570pt" height="362pt"
 viewBox="0.00 0.00 570.00 362.00" xmlns="http://www.w3.org/2000/svg" xmlns:xlink="http://www.w3.org/1999/xlink">
<g id="graph0" class="graph" transform="scale(1 1) rotate(0) translate(4 358)">
<title>a_graph</title>
<polygon fill="white" stroke="transparent" points="-4,4 -4,-358 566,-358 566,4 -4,4"/>
<!-- T2853 -->
<g id="node1" class="node">
<title>T2853</title>
<polygon fill="none" stroke="#0058ad" points="0,-324.5 0,-353.5 228,-353.5 228,-324.5 0,-324.5"/>
<text text-anchor="middle" x="38.5" y="-335.3" font-family="Times,serif" font-size="14.00" fill="#0058ad">r 114 15</text>
<polyline fill="none" stroke="#0058ad" points="77,-324.5 77,-353.5 "/>
<text text-anchor="middle" x="115.5" y="-335.3" font-family="Times,serif" font-size="14.00" fill="#0058ad">r 116 nil</text>
<polyline fill="none" stroke="#0058ad" points="154,-324.5 154,-353.5 "/>
<text text-anchor="middle" x="191" y="-335.3" font-family="Times,serif" font-size="14.00" fill="#0058ad">w 116 1</text>
</g>
<!-- T2868 -->
<g id="node4" class="node">
<title>T2868</title>
<polygon fill="none" stroke="#0058ad" points="228.5,-243.5 228.5,-272.5 515.5,-272.5 515.5,-243.5 228.5,-243.5"/>
<text text-anchor="middle" x="262.5" y="-254.3" font-family="Times,serif" font-size="14.00" fill="#0058ad">r 116 2</text>
<polyline fill="none" stroke="#0058ad" points="296.5,-243.5 296.5,-272.5 "/>
<text text-anchor="middle" x="335" y="-254.3" font-family="Times,serif" font-size="14.00" fill="#0058ad">r 115 nil</text>
<polyline fill="none" stroke="#0058ad" points="373.5,-243.5 373.5,-272.5 "/>
<text text-anchor="middle" x="407.5" y="-254.3" font-family="Times,serif" font-size="14.00" fill="#0058ad">r 112 7</text>
<polyline fill="none" stroke="#0058ad" points="441.5,-243.5 441.5,-272.5 "/>
<text text-anchor="middle" x="478.5" y="-254.3" font-family="Times,serif" font-size="14.00" fill="#0058ad">w 116 4</text>
</g>
<!-- T2853&#45;&gt;T2868 -->
<g id="edge1" class="edge">
<title>T2853:f1&#45;&gt;T2868:f3</title>
<path fill="none" stroke="#5b00c0" d="M116,-324C116,-246.2 447.12,-344.79 476.87,-282.84"/>
<polygon fill="#5b00c0" stroke="#5b00c0" points="480.3,-283.51 479,-273 473.46,-282.03 480.3,-283.51"/>
<text text-anchor="middle" x="477.5" y="-294.8" font-family="Times,serif" font-size="14.00" fill="#5b00c0">rw</text>
</g>
<!-- T2857 -->
<g id="node5" class="node">
<title>T2857</title>
<polygon fill="none" stroke="#0058ad" points="166.5,-81.5 166.5,-110.5 459.5,-110.5 459.5,-81.5 166.5,-81.5"/>
<text text-anchor="middle" x="205" y="-92.3" font-family="Times,serif" font-size="14.00" fill="#0058ad">r 115 nil</text>
<polyline fill="none" stroke="#0058ad" points="243.5,-81.5 243.5,-110.5 "/>
<text text-anchor="middle" x="277.5" y="-92.3" font-family="Times,serif" font-size="14.00" fill="#0058ad">r 116 1</text>
<polyline fill="none" stroke="#0058ad" points="311.5,-81.5 311.5,-110.5 "/>
<text text-anchor="middle" x="348.5" y="-92.3" font-family="Times,serif" font-size="14.00" fill="#0058ad">w 113 4</text>
<polyline fill="none" stroke="#0058ad" points="385.5,-81.5 385.5,-110.5 "/>
<text text-anchor="middle" x="422.5" y="-92.3" font-family="Times,serif" font-size="14.00" fill="#0058ad">w 116 2</text>
</g>
<!-- T2853&#45;&gt;T2857 -->
<g id="edge2" class="edge">
<title>T2853:f2&#45;&gt;T2857:f1</title>
<path fill="none" stroke="#c000a5" d="M191,-324C191,-292.74 144.44,-328.76 123,-306 78.56,-258.82 61.95,-214.46 100,-162 127.73,-123.77 155.54,-141.79 201,-129 214.31,-125.26 254.67,-127.07 270.51,-119.18"/>
<polygon fill="#c000a5" stroke="#c000a5" points="273.53,-121.01 277,-111 268.04,-116.66 273.53,-121.01"/>
<text text-anchor="middle" x="89.5" y="-213.8" font-family="Times,serif" font-size="14.00" fill="#c000a5">wr</text>
</g>
<!-- T2852 -->
<g id="node2" class="node">
<title>T2852</title>
<polygon fill="none" stroke="#0058ad" points="109,-162.5 109,-191.5 393,-191.5 393,-162.5 109,-162.5"/>
<text text-anchor="middle" x="138.5" y="-173.3" font-family="Times,serif" font-size="14.00" fill="#0058ad">r 97 7</text>
<polyline fill="none" stroke="#0058ad" points="168,-162.5 168,-191.5 "/>
<text text-anchor="middle" x="205" y="-173.3" font-family="Times,serif" font-size="14.00" fill="#0058ad">w 115 1</text>
<polyline fill="none" stroke="#0058ad" points="242,-162.5 242,-191.5 "/>
<text text-anchor="middle" x="280.5" y="-173.3" font-family="Times,serif" font-size="14.00" fill="#0058ad">r 116 nil</text>
<polyline fill="none" stroke="#0058ad" points="319,-162.5 319,-191.5 "/>
<text text-anchor="middle" x="356" y="-173.3" font-family="Times,serif" font-size="14.00" fill="#0058ad">w 113 3</text>
</g>
<!-- T2852&#45;&gt;T2853 -->
<g id="edge3" class="edge">
<title>T2852:f2&#45;&gt;T2853:f2</title>
<path fill="none" stroke="#5b00c0" d="M281,-192C281,-225.85 230.22,-185.37 207,-210 174.3,-244.68 188.64,-269.28 190.76,-313.85"/>
<polygon fill="#5b00c0" stroke="#5b00c0" points="187.26,-314.09 191,-324 194.26,-313.92 187.26,-314.09"/>
<text text-anchor="middle" x="197.5" y="-254.3" font-family="Times,serif" font-size="14.00" fill="#5b00c0">rw</text>
</g>
<!-- T2852&#45;&gt;T2868 -->
<g id="edge4" class="edge">
<title>T2852:f2&#45;&gt;T2868:f3</title>
<path fill="none" stroke="#5b00c0" d="M281,-192C281,-212.14 436.68,-218.8 471.95,-235.89"/>
<polygon fill="#5b00c0" stroke="#5b00c0" points="469.47,-238.36 479,-243 474.45,-233.43 469.47,-238.36"/>
<text text-anchor="middle" x="434.5" y="-213.8" font-family="Times,serif" font-size="14.00" fill="#5b00c0">rw</text>
</g>
<!-- T2852&#45;&gt;T2857 -->
<g id="edge5" class="edge">
<title>T2852:f2&#45;&gt;T2857:f3</title>
<path fill="none" stroke="#5b00c0" d="M281,-162C281,-147.53 386.83,-132.53 415.76,-117.91"/>
<polygon fill="#5b00c0" stroke="#5b00c0" points="418.19,-120.44 423,-111 413.35,-115.38 418.19,-120.44"/>
<text text-anchor="middle" x="390.5" y="-132.8" font-family="Times,serif" font-size="14.00" fill="#5b00c0">rw</text>
</g>
<!-- T2864 -->
<g id="node3" class="node">
<title>T2864</title>
<polygon fill="none" stroke="#0058ad" points="426,-0.5 426,-29.5 562,-29.5 562,-0.5 426,-0.5"/>
<text text-anchor="middle" x="460" y="-11.3" font-family="Times,serif" font-size="14.00" fill="#0058ad">r 116 2</text>
<polyline fill="none" stroke="#0058ad" points="494,-0.5 494,-29.5 "/>
<text text-anchor="middle" x="528" y="-11.3" font-family="Times,serif" font-size="14.00" fill="#0058ad">r 112 7</text>
</g>
<!-- T2864&#45;&gt;T2868 -->
<g id="edge6" class="edge">
<title>T2864:f0&#45;&gt;T2868:f3</title>
<path fill="none" stroke="#5b00c0" d="M460,-30C460,-40.41 471.35,-38.25 475,-48 504.1,-125.87 481.07,-154 479.13,-232.63"/>
<polygon fill="#5b00c0" stroke="#5b00c0" points="475.62,-232.96 479,-243 482.62,-233.04 475.62,-232.96"/>
<text text-anchor="middle" x="498.5" y="-132.8" font-family="Times,serif" font-size="14.00" fill="#5b00c0">rw</text>
</g>
<!-- T2868&#45;&gt;T2852 -->
<g id="edge7" class="edge">
<title>T2868:f1&#45;&gt;T2852:f1</title>
<path fill="none" stroke="#5b00c0" d="M335,-243C335,-184.81 220.74,-245.45 206.46,-202.12"/>
<polygon fill="#5b00c0" stroke="#5b00c0" points="209.89,-201.4 205,-192 202.96,-202.4 209.89,-201.4"/>
<text text-anchor="middle" x="337.5" y="-213.8" font-family="Times,serif" font-size="14.00" fill="#5b00c0">rw</text>
</g>
<!-- T2857&#45;&gt;T2852 -->
<g id="edge9" class="edge">
<title>T2857:f0&#45;&gt;T2852:f1</title>
<path fill="none" stroke="#5b00c0" d="M205,-111C205,-129.77 205,-136.88 205,-151.65"/>
<polygon fill="#5b00c0" stroke="#5b00c0" points="201.5,-152 205,-162 208.5,-152 201.5,-152"/>
<text text-anchor="middle" x="214.5" y="-132.8" font-family="Times,serif" font-size="14.00" fill="#5b00c0">rw</text>
</g>
<!-- T2857&#45;&gt;T2864 -->
<g id="edge8" class="edge">
<title>T2857:f3&#45;&gt;T2864:f0</title>
<path fill="none" stroke="#c000a5" d="M423,-81C423,-56.93 450.33,-57.25 458.01,-40.04"/>
<polygon fill="#c000a5" stroke="#c000a5" points="461.49,-40.49 460,-30 454.62,-39.13 461.49,-40.49"/>
<text text-anchor="middle" x="461.5" y="-51.8" font-family="Times,serif" font-size="14.00" fill="#c000a5">wr</text>
</g>
<!-- T2857&#45;&gt;T2868 -->
<g id="edge10" class="edge">
<title>T2857:f3&#45;&gt;T2868:f0</title>
<path fill="none" stroke="#c000a5" d="M423,-111C423,-148.19 423.76,-161.84 402,-192 386.2,-213.89 376,-214.81 351,-225 335.67,-231.25 285.6,-225.78 268.1,-234.75"/>
<polygon fill="#c000a5" stroke="#c000a5" points="265.13,-232.88 262,-243 270.76,-237.04 265.13,-232.88"/>
<text text-anchor="middle" x="427.5" y="-173.3" font-family="Times,serif" font-size="14.00" fill="#c000a5">wr</text>
</g>
</g>
</svg>
