<?xml version="1.0" encoding="UTF-8" standalone="no"?>
<!DOCTYPE svg PUBLIC "-//W3C//DTD SVG 1.1//EN"
 "http://www.w3.org/Graphics/SVG/1.1/DTD/svg11.dtd">
<!-- Generated by graphviz version 2.43.0 (0)
 -->
<!-- Title: a_graph Pages: 1 -->
<svg width="664pt" height="281pt"
 viewBox="0.00 0.00 663.50 281.00" xmlns="http://www.w3.org/2000/svg" xmlns:xlink="http://www.w3.org/1999/xlink">
<g id="graph0" class="graph" transform="scale(1 1) rotate(0) translate(4 277)">
<title>a_graph</title>
<polygon fill="white" stroke="transparent" points="-4,4 -4,-277 659.5,-277 659.5,4 -4,4"/>
<!-- T30138 -->
<g id="node1" class="node">
<title>T30138</title>
<polygon fill="none" stroke="#0058ad" points="264.5,-243.5 264.5,-272.5 510.5,-272.5 510.5,-243.5 264.5,-243.5"/>
<text text-anchor="middle" x="303" y="-254.3" font-family="Times,serif" font-size="14.00" fill="#0058ad">r 1149 4</text>
<polyline fill="none" stroke="#0058ad" points="341.5,-243.5 341.5,-272.5 "/>
<text text-anchor="middle" x="383" y="-254.3" font-family="Times,serif" font-size="14.00" fill="#0058ad">w 1152 1</text>
<polyline fill="none" stroke="#0058ad" points="424.5,-243.5 424.5,-272.5 "/>
<text text-anchor="middle" x="467.5" y="-254.3" font-family="Times,serif" font-size="14.00" fill="#0058ad">r 1153 nil</text>
</g>
<!-- T30143 -->
<g id="node3" class="node">
<title>T30143</title>
<polygon fill="none" stroke="#0058ad" points="256.5,-162.5 256.5,-191.5 508.5,-191.5 508.5,-162.5 256.5,-162.5"/>
<text text-anchor="middle" x="298" y="-173.3" font-family="Times,serif" font-size="14.00" fill="#0058ad">w 1149 6</text>
<polyline fill="none" stroke="#0058ad" points="339.5,-162.5 339.5,-191.5 "/>
<text text-anchor="middle" x="382.5" y="-173.3" font-family="Times,serif" font-size="14.00" fill="#0058ad">r 1153 nil</text>
<polyline fill="none" stroke="#0058ad" points="425.5,-162.5 425.5,-191.5 "/>
<text text-anchor="middle" x="467" y="-173.3" font-family="Times,serif" font-size="14.00" fill="#0058ad">w 1153 2</text>
</g>
<!-- T30138&#45;&gt;T30143 -->
<g id="edge2" class="edge">
<title>T30138:f2&#45;&gt;T30143:f2</title>
<path fill="none" stroke="#5b00c0" d="M467.5,-243C467.5,-224.23 467.5,-217.12 467.5,-202.35"/>
<polygon fill="#5b00c0" stroke="#5b00c0" points="471,-202 467.5,-192 464,-202 471,-202"/>
<text text-anchor="middle" x="477" y="-213.8" font-family="Times,serif" font-size="14.00" fill="#5b00c0">rw</text>
</g>
<!-- T30135 -->
<g id="node4" class="node">
<title>T30135</title>
<polygon fill="none" stroke="#0058ad" points="341.5,-81.5 341.5,-110.5 655.5,-110.5 655.5,-81.5 341.5,-81.5"/>
<text text-anchor="middle" x="383" y="-92.3" font-family="Times,serif" font-size="14.00" fill="#0058ad">w 1153 1</text>
<polyline fill="none" stroke="#0058ad" points="424.5,-81.5 424.5,-110.5 "/>
<text text-anchor="middle" x="463" y="-92.3" font-family="Times,serif" font-size="14.00" fill="#0058ad">r 1153 1</text>
<polyline fill="none" stroke="#0058ad" points="501.5,-81.5 501.5,-110.5 "/>
<text text-anchor="middle" x="540" y="-92.3" font-family="Times,serif" font-size="14.00" fill="#0058ad">r 1153 1</text>
<polyline fill="none" stroke="#0058ad" points="578.5,-81.5 578.5,-110.5 "/>
<text text-anchor="middle" x="617" y="-92.3" font-family="Times,serif" font-size="14.00" fill="#0058ad">r 1149 2</text>
</g>
<!-- T30138&#45;&gt;T30135 -->
<g id="edge1" class="edge">
<title>T30138:f2&#45;&gt;T30135:f0</title>
<path fill="none" stroke="#5b00c0" d="M511.5,-258C554.25,-258 541.81,-197.17 517.5,-162 509.7,-150.72 416.45,-133.15 389.66,-118.27"/>
<polygon fill="#5b00c0" stroke="#5b00c0" points="392.01,-115.67 382.5,-111 387.02,-120.58 392.01,-115.67"/>
<text text-anchor="middle" x="542" y="-173.3" font-family="Times,serif" font-size="14.00" fill="#5b00c0">rw</text>
</g>
<!-- T30139 -->
<g id="node2" class="node">
<title>T30139</title>
<polygon fill="none" stroke="#0058ad" points="0,-0.5 0,-29.5 323,-29.5 323,-0.5 0,-0.5"/>
<text text-anchor="middle" x="38.5" y="-11.3" font-family="Times,serif" font-size="14.00" fill="#0058ad">r 1153 1</text>
<polyline fill="none" stroke="#0058ad" points="77,-0.5 77,-29.5 "/>
<text text-anchor="middle" x="115.5" y="-11.3" font-family="Times,serif" font-size="14.00" fill="#0058ad">r 1153 1</text>
<polyline fill="none" stroke="#0058ad" points="154,-0.5 154,-29.5 "/>
<text text-anchor="middle" x="195.5" y="-11.3" font-family="Times,serif" font-size="14.00" fill="#0058ad">w 1149 5</text>
<polyline fill="none" stroke="#0058ad" points="237,-0.5 237,-29.5 "/>
<text text-anchor="middle" x="280" y="-11.3" font-family="Times,serif" font-size="14.00" fill="#0058ad">r 1152 nil</text>
</g>
<!-- T30139&#45;&gt;T30138 -->
<g id="edge3" class="edge">
<title>T30139:f3&#45;&gt;T30138:f1</title>
<path fill="none" stroke="#5b00c0" d="M280.5,-30C280.5,-90.47 254.89,-101.98 247.5,-162 245.87,-175.23 239.92,-181.03 247.5,-192 281.83,-241.67 371.17,-186.18 381.52,-233.01"/>
<polygon fill="#5b00c0" stroke="#5b00c0" points="378.04,-233.39 382.5,-243 385,-232.71 378.04,-233.39"/>
<text text-anchor="middle" x="264" y="-132.8" font-family="Times,serif" font-size="14.00" fill="#5b00c0">rw</text>
</g>
<!-- T30143&#45;&gt;T30135 -->
<g id="edge4" class="edge">
<title>T30143:f1&#45;&gt;T30135:f0</title>
<path fill="none" stroke="#5b00c0" d="M382.5,-162C382.5,-143.23 382.5,-136.12 382.5,-121.35"/>
<polygon fill="#5b00c0" stroke="#5b00c0" points="386,-121 382.5,-111 379,-121 386,-121"/>
<text text-anchor="middle" x="392" y="-132.8" font-family="Times,serif" font-size="14.00" fill="#5b00c0">rw</text>
</g>
<!-- T30135&#45;&gt;T30139 -->
<g id="edge5" class="edge">
<title>T30135:f0&#45;&gt;T30139:f0</title>
<path fill="none" stroke="#c000a5" d="M340.5,-96C309.1,-96 82.78,-69.55 44.11,-38.78"/>
<polygon fill="#c000a5" stroke="#c000a5" points="46.84,-36.54 38.5,-30 40.94,-40.31 46.84,-36.54"/>
<text text-anchor="middle" x="122" y="-51.8" font-family="Times,serif" font-size="14.00" fill="#c000a5">wr</text>
</g>
</g>
</svg>
