<?xml version="1.0" encoding="UTF-8" standalone="no"?>
<!DOCTYPE svg PUBLIC "-//W3C//DTD SVG 1.1//EN"
 "http://www.w3.org/Graphics/SVG/1.1/DTD/svg11.dtd">
<!-- Generated by graphviz version 2.43.0 (0)
 -->
<!-- Title: a_graph Pages: 1 -->
<svg width="488pt" height="281pt"
 viewBox="0.00 0.00 488.00 281.00" xmlns="http://www.w3.org/2000/svg" xmlns:xlink="http://www.w3.org/1999/xlink">
<g id="graph0" class="graph" transform="scale(1 1) rotate(0) translate(4 277)">
<title>a_graph</title>
<polygon fill="white" stroke="transparent" points="-4,4 -4,-277 484,-277 484,4 -4,4"/>
<!-- T28761 -->
<g id="node1" class="node">
<title>T28761</title>
<polygon fill="none" stroke="#0058ad" points="0,-243.5 0,-272.5 344,-272.5 344,-243.5 0,-243.5"/>
<text text-anchor="middle" x="41.5" y="-254.3" font-family="Times,serif" font-size="14.00" fill="#0058ad">w 1094 9</text>
<polyline fill="none" stroke="#0058ad" points="83,-243.5 83,-272.5 "/>
<text text-anchor="middle" x="126" y="-254.3" font-family="Times,serif" font-size="14.00" fill="#0058ad">r 1099 nil</text>
<polyline fill="none" stroke="#0058ad" points="169,-243.5 169,-272.5 "/>
<text text-anchor="middle" x="215" y="-254.3" font-family="Times,serif" font-size="14.00" fill="#0058ad">w 1066 16</text>
<polyline fill="none" stroke="#0058ad" points="261,-243.5 261,-272.5 "/>
<text text-anchor="middle" x="302.5" y="-254.3" font-family="Times,serif" font-size="14.00" fill="#0058ad">w 1099 7</text>
</g>
<!-- T28749 -->
<g id="node2" class="node">
<title>T28749</title>
<polygon fill="none" stroke="#0058ad" points="21,-162.5 21,-191.5 267,-191.5 267,-162.5 21,-162.5"/>
<text text-anchor="middle" x="62.5" y="-173.3" font-family="Times,serif" font-size="14.00" fill="#0058ad">w 1099 3</text>
<polyline fill="none" stroke="#0058ad" points="104,-162.5 104,-191.5 "/>
<text text-anchor="middle" x="142.5" y="-173.3" font-family="Times,serif" font-size="14.00" fill="#0058ad">r 1099 3</text>
<polyline fill="none" stroke="#0058ad" points="181,-162.5 181,-191.5 "/>
<text text-anchor="middle" x="224" y="-173.3" font-family="Times,serif" font-size="14.00" fill="#0058ad">r 1100 nil</text>
</g>
<!-- T28761&#45;&gt;T28749 -->
<g id="edge1" class="edge">
<title>T28761:f1&#45;&gt;T28749:f0</title>
<path fill="none" stroke="#5b00c0" d="M126,-243C126,-210.61 75.23,-224.31 64.13,-202"/>
<polygon fill="#5b00c0" stroke="#5b00c0" points="67.51,-201.05 62,-192 60.66,-202.51 67.51,-201.05"/>
<text text-anchor="middle" x="125.5" y="-213.8" font-family="Times,serif" font-size="14.00" fill="#5b00c0">rw</text>
</g>
<!-- T28754 -->
<g id="node4" class="node">
<title>T28754</title>
<polygon fill="none" stroke="#0058ad" points="96.5,-81.5 96.5,-110.5 437.5,-110.5 437.5,-81.5 96.5,-81.5"/>
<text text-anchor="middle" x="139.5" y="-92.3" font-family="Times,serif" font-size="14.00" fill="#0058ad">r 1099 nil</text>
<polyline fill="none" stroke="#0058ad" points="182.5,-81.5 182.5,-110.5 "/>
<text text-anchor="middle" x="224" y="-92.3" font-family="Times,serif" font-size="14.00" fill="#0058ad">w 1100 2</text>
<polyline fill="none" stroke="#0058ad" points="265.5,-81.5 265.5,-110.5 "/>
<text text-anchor="middle" x="308.5" y="-92.3" font-family="Times,serif" font-size="14.00" fill="#0058ad">r 1097 11</text>
<polyline fill="none" stroke="#0058ad" points="351.5,-81.5 351.5,-110.5 "/>
<text text-anchor="middle" x="394.5" y="-92.3" font-family="Times,serif" font-size="14.00" fill="#0058ad">r 1097 11</text>
</g>
<!-- T28749&#45;&gt;T28754 -->
<g id="edge2" class="edge">
<title>T28749:f2&#45;&gt;T28754:f1</title>
<path fill="none" stroke="#5b00c0" d="M224,-162C224,-143.23 224,-136.12 224,-121.35"/>
<polygon fill="#5b00c0" stroke="#5b00c0" points="227.5,-121 224,-111 220.5,-121 227.5,-121"/>
<text text-anchor="middle" x="233.5" y="-132.8" font-family="Times,serif" font-size="14.00" fill="#5b00c0">rw</text>
</g>
<!-- T28759 -->
<g id="node3" class="node">
<title>T28759</title>
<polygon fill="none" stroke="#0058ad" points="185.5,-0.5 185.5,-29.5 348.5,-29.5 348.5,-0.5 185.5,-0.5"/>
<text text-anchor="middle" x="224" y="-11.3" font-family="Times,serif" font-size="14.00" fill="#0058ad">r 1100 2</text>
<polyline fill="none" stroke="#0058ad" points="262.5,-0.5 262.5,-29.5 "/>
<text text-anchor="middle" x="305.5" y="-11.3" font-family="Times,serif" font-size="14.00" fill="#0058ad">r 1099 nil</text>
</g>
<!-- T28759&#45;&gt;T28761 -->
<g id="edge3" class="edge">
<title>T28759:f1&#45;&gt;T28761:f3</title>
<path fill="none" stroke="#5b00c0" d="M350,-15C402.14,-15 422.61,-34.91 447,-81 487.85,-158.2 439.74,-250.65 355.21,-257.59"/>
<polygon fill="#5b00c0" stroke="#5b00c0" points="354.85,-254.1 345,-258 355.13,-261.09 354.85,-254.1"/>
<text text-anchor="middle" x="470.5" y="-132.8" font-family="Times,serif" font-size="14.00" fill="#5b00c0">rw</text>
</g>
<!-- T28759&#45;&gt;T28749 -->
<g id="edge4" class="edge">
<title>T28759:f1&#45;&gt;T28749:f0</title>
<path fill="none" stroke="#5b00c0" d="M306,-30C306,-49.53 239.1,-43.93 220,-48 152.39,-62.41 113.35,-28.82 68,-81 46.63,-105.59 58.94,-122.36 61.55,-151.93"/>
<polygon fill="#5b00c0" stroke="#5b00c0" points="58.06,-152.17 62,-162 65.05,-151.85 58.06,-152.17"/>
<text text-anchor="middle" x="77.5" y="-92.3" font-family="Times,serif" font-size="14.00" fill="#5b00c0">rw</text>
</g>
<!-- T28754&#45;&gt;T28761 -->
<g id="edge5" class="edge">
<title>T28754:f0&#45;&gt;T28761:f3</title>
<path fill="none" stroke="#5b00c0" d="M139,-111C139,-135.33 225.74,-117.18 247,-129 293.25,-154.72 302,-182.8 302.91,-232.72"/>
<polygon fill="#5b00c0" stroke="#5b00c0" points="299.42,-233.03 303,-243 306.42,-232.97 299.42,-233.03"/>
<text text-anchor="middle" x="307.5" y="-173.3" font-family="Times,serif" font-size="14.00" fill="#5b00c0">rw</text>
</g>
<!-- T28754&#45;&gt;T28749 -->
<g id="edge6" class="edge">
<title>T28754:f0&#45;&gt;T28749:f0</title>
<path fill="none" stroke="#5b00c0" d="M139,-111C139,-128.32 84.18,-138.11 67.05,-153.07"/>
<polygon fill="#5b00c0" stroke="#5b00c0" points="63.88,-151.57 62,-162 69.97,-155.02 63.88,-151.57"/>
<text text-anchor="middle" x="128.5" y="-132.8" font-family="Times,serif" font-size="14.00" fill="#5b00c0">rw</text>
</g>
<!-- T28754&#45;&gt;T28759 -->
<g id="edge7" class="edge">
<title>T28754:f1&#45;&gt;T28759:f0</title>
<path fill="none" stroke="#c000a5" d="M224,-81C224,-62.23 224,-55.12 224,-40.35"/>
<polygon fill="#c000a5" stroke="#c000a5" points="227.5,-40 224,-30 220.5,-40 227.5,-40"/>
<text text-anchor="middle" x="233.5" y="-51.8" font-family="Times,serif" font-size="14.00" fill="#c000a5">wr</text>
</g>
</g>
</svg>
