<?xml version="1.0" encoding="UTF-8" standalone="no"?>
<!DOCTYPE svg PUBLIC "-//W3C//DTD SVG 1.1//EN"
 "http://www.w3.org/Graphics/SVG/1.1/DTD/svg11.dtd">
<!-- Generated by graphviz version 2.43.0 (0)
 -->
<!-- Title: a_graph Pages: 1 -->
<svg width="493pt" height="200pt"
 viewBox="0.00 0.00 492.50 200.00" xmlns="http://www.w3.org/2000/svg" xmlns:xlink="http://www.w3.org/1999/xlink">
<g id="graph0" class="graph" transform="scale(1 1) rotate(0) translate(4 196)">
<title>a_graph</title>
<polygon fill="white" stroke="transparent" points="-4,4 -4,-196 488.5,-196 488.5,4 -4,4"/>
<!-- T2772 -->
<g id="node1" class="node">
<title>T2772</title>
<polygon fill="none" stroke="#0058ad" points="176.5,-162.5 176.5,-191.5 484.5,-191.5 484.5,-162.5 176.5,-162.5"/>
<text text-anchor="middle" x="213.5" y="-173.3" font-family="Times,serif" font-size="14.00" fill="#0058ad">w 112 1</text>
<polyline fill="none" stroke="#0058ad" points="250.5,-162.5 250.5,-191.5 "/>
<text text-anchor="middle" x="289" y="-173.3" font-family="Times,serif" font-size="14.00" fill="#0058ad">r 111 nil</text>
<polyline fill="none" stroke="#0058ad" points="327.5,-162.5 327.5,-191.5 "/>
<text text-anchor="middle" x="364.5" y="-173.3" font-family="Times,serif" font-size="14.00" fill="#0058ad">w 109 9</text>
<polyline fill="none" stroke="#0058ad" points="401.5,-162.5 401.5,-191.5 "/>
<text text-anchor="middle" x="443" y="-173.3" font-family="Times,serif" font-size="14.00" fill="#0058ad">w 100 15</text>
</g>
<!-- T2777 -->
<g id="node3" class="node">
<title>T2777</title>
<polygon fill="none" stroke="#0058ad" points="0,-81.5 0,-110.5 219,-110.5 219,-81.5 0,-81.5"/>
<text text-anchor="middle" x="38.5" y="-92.3" font-family="Times,serif" font-size="14.00" fill="#0058ad">r 112 nil</text>
<polyline fill="none" stroke="#0058ad" points="77,-81.5 77,-110.5 "/>
<text text-anchor="middle" x="114" y="-92.3" font-family="Times,serif" font-size="14.00" fill="#0058ad">w 111 4</text>
<polyline fill="none" stroke="#0058ad" points="151,-81.5 151,-110.5 "/>
<text text-anchor="middle" x="185" y="-92.3" font-family="Times,serif" font-size="14.00" fill="#0058ad">r 111 4</text>
</g>
<!-- T2772&#45;&gt;T2777 -->
<g id="edge1" class="edge">
<title>T2772:f1&#45;&gt;T2777:f1</title>
<path fill="none" stroke="#5b00c0" d="M288.5,-162C288.5,-144.37 155.28,-133.97 121.98,-118.15"/>
<polygon fill="#5b00c0" stroke="#5b00c0" points="124.15,-115.38 114.5,-111 119.31,-120.44 124.15,-115.38"/>
<text text-anchor="middle" x="251" y="-132.8" font-family="Times,serif" font-size="14.00" fill="#5b00c0">rw</text>
</g>
<!-- T2790 -->
<g id="node2" class="node">
<title>T2790</title>
<polygon fill="none" stroke="#0058ad" points="81,-0.5 81,-29.5 294,-29.5 294,-0.5 81,-0.5"/>
<text text-anchor="middle" x="115" y="-11.3" font-family="Times,serif" font-size="14.00" fill="#0058ad">r 111 4</text>
<polyline fill="none" stroke="#0058ad" points="149,-0.5 149,-29.5 "/>
<text text-anchor="middle" x="183" y="-11.3" font-family="Times,serif" font-size="14.00" fill="#0058ad">r 111 4</text>
<polyline fill="none" stroke="#0058ad" points="217,-0.5 217,-29.5 "/>
<text text-anchor="middle" x="255.5" y="-11.3" font-family="Times,serif" font-size="14.00" fill="#0058ad">r 112 nil</text>
</g>
<!-- T2790&#45;&gt;T2772 -->
<g id="edge2" class="edge">
<title>T2790:f2&#45;&gt;T2772:f0</title>
<path fill="none" stroke="#5b00c0" d="M255.5,-30C255.5,-43.41 223.63,-121.94 215.41,-152.14"/>
<polygon fill="#5b00c0" stroke="#5b00c0" points="211.97,-151.52 213.5,-162 218.84,-152.85 211.97,-151.52"/>
<text text-anchor="middle" x="248" y="-92.3" font-family="Times,serif" font-size="14.00" fill="#5b00c0">rw</text>
</g>
<!-- T2777&#45;&gt;T2772 -->
<g id="edge4" class="edge">
<title>T2777:f0&#45;&gt;T2772:f0</title>
<path fill="none" stroke="#5b00c0" d="M38.5,-111C38.5,-141.89 124.73,-171.45 165.36,-176.31"/>
<polygon fill="#5b00c0" stroke="#5b00c0" points="165.28,-179.81 175.5,-177 165.76,-172.83 165.28,-179.81"/>
<text text-anchor="middle" x="78" y="-132.8" font-family="Times,serif" font-size="14.00" fill="#5b00c0">rw</text>
</g>
<!-- T2777&#45;&gt;T2790 -->
<g id="edge3" class="edge">
<title>T2777:f1&#45;&gt;T2790:f0</title>
<path fill="none" stroke="#c000a5" d="M114.5,-81C114.5,-62.23 114.5,-55.12 114.5,-40.35"/>
<polygon fill="#c000a5" stroke="#c000a5" points="118,-40 114.5,-30 111,-40 118,-40"/>
<text text-anchor="middle" x="124" y="-51.8" font-family="Times,serif" font-size="14.00" fill="#c000a5">wr</text>
</g>
</g>
</svg>
