<?xml version="1.0" encoding="UTF-8" standalone="no"?>
<!DOCTYPE svg PUBLIC "-//W3C//DTD SVG 1.1//EN"
 "http://www.w3.org/Graphics/SVG/1.1/DTD/svg11.dtd">
<!-- Generated by graphviz version 2.43.0 (0)
 -->
<!-- Title: a_graph Pages: 1 -->
<svg width="243pt" height="119pt"
 viewBox="0.00 0.00 242.50 119.00" xmlns="http://www.w3.org/2000/svg" xmlns:xlink="http://www.w3.org/1999/xlink">
<g id="graph0" class="graph" transform="scale(1 1) rotate(0) translate(4 115)">
<title>a_graph</title>
<polygon fill="white" stroke="transparent" points="-4,4 -4,-115 238.5,-115 238.5,4 -4,4"/>
<!-- T5479 -->
<g id="node1" class="node">
<title>T5479</title>
<polygon fill="none" stroke="#0058ad" points="0.5,-81.5 0.5,-110.5 234.5,-110.5 234.5,-81.5 0.5,-81.5"/>
<text text-anchor="middle" x="39" y="-92.3" font-family="Times,serif" font-size="14.00" fill="#0058ad">r 213 nil</text>
<polyline fill="none" stroke="#0058ad" points="77.5,-81.5 77.5,-110.5 "/>
<text text-anchor="middle" x="114.5" y="-92.3" font-family="Times,serif" font-size="14.00" fill="#0058ad">w 213 1</text>
<polyline fill="none" stroke="#0058ad" points="151.5,-81.5 151.5,-110.5 "/>
<text text-anchor="middle" x="193" y="-92.3" font-family="Times,serif" font-size="14.00" fill="#0058ad">w 170 10</text>
</g>
<!-- T5493 -->
<g id="node2" class="node">
<title>T5493</title>
<polygon fill="none" stroke="#0058ad" points="0,-0.5 0,-29.5 151,-29.5 151,-0.5 0,-0.5"/>
<text text-anchor="middle" x="38.5" y="-11.3" font-family="Times,serif" font-size="14.00" fill="#0058ad">r 213 nil</text>
<polyline fill="none" stroke="#0058ad" points="77,-0.5 77,-29.5 "/>
<text text-anchor="middle" x="114" y="-11.3" font-family="Times,serif" font-size="14.00" fill="#0058ad">w 213 4</text>
</g>
<!-- T5479&#45;&gt;T5493 -->
<g id="edge1" class="edge">
<title>T5479:f0&#45;&gt;T5493:f1</title>
<path fill="none" stroke="#5b00c0" d="M38.5,-81C38.5,-62.05 50.06,-58.99 65.5,-48 80.56,-37.28 102.73,-46.95 111.12,-39.58"/>
<polygon fill="#5b00c0" stroke="#5b00c0" points="114.47,-40.59 114.5,-30 107.87,-38.27 114.47,-40.59"/>
<text text-anchor="middle" x="75" y="-51.8" font-family="Times,serif" font-size="14.00" fill="#5b00c0">rw</text>
</g>
<!-- T5493&#45;&gt;T5479 -->
<g id="edge2" class="edge">
<title>T5493:f0&#45;&gt;T5479:f1</title>
<path fill="none" stroke="#5b00c0" d="M38.5,-30C38.5,-51.95 66.42,-35.55 84.5,-48 97.51,-56.96 108.84,-60.01 112.9,-70.91"/>
<polygon fill="#5b00c0" stroke="#5b00c0" points="109.48,-71.67 114.5,-81 116.39,-70.58 109.48,-71.67"/>
<text text-anchor="middle" x="117" y="-51.8" font-family="Times,serif" font-size="14.00" fill="#5b00c0">rw</text>
</g>
</g>
</svg>
