<?xml version="1.0" encoding="UTF-8" standalone="no"?>
<!DOCTYPE svg PUBLIC "-//W3C//DTD SVG 1.1//EN"
 "http://www.w3.org/Graphics/SVG/1.1/DTD/svg11.dtd">
<!-- Generated by graphviz version 2.43.0 (0)
 -->
<!-- Title: a_graph Pages: 1 -->
<svg width="372pt" height="200pt"
 viewBox="0.00 0.00 372.00 200.00" xmlns="http://www.w3.org/2000/svg" xmlns:xlink="http://www.w3.org/1999/xlink">
<g id="graph0" class="graph" transform="scale(1 1) rotate(0) translate(4 196)">
<title>a_graph</title>
<polygon fill="white" stroke="transparent" points="-4,4 -4,-196 368,-196 368,4 -4,4"/>
<!-- T14957 -->
<g id="node1" class="node">
<title>T14957</title>
<polygon fill="none" stroke="#0058ad" points="0,-162.5 0,-191.5 219,-191.5 219,-162.5 0,-162.5"/>
<text text-anchor="middle" x="38.5" y="-173.3" font-family="Times,serif" font-size="14.00" fill="#0058ad">r 575 nil</text>
<polyline fill="none" stroke="#0058ad" points="77,-162.5 77,-191.5 "/>
<text text-anchor="middle" x="114" y="-173.3" font-family="Times,serif" font-size="14.00" fill="#0058ad">w 576 3</text>
<polyline fill="none" stroke="#0058ad" points="151,-162.5 151,-191.5 "/>
<text text-anchor="middle" x="185" y="-173.3" font-family="Times,serif" font-size="14.00" fill="#0058ad">r 576 3</text>
</g>
<!-- T14947 -->
<g id="node3" class="node">
<title>T14947</title>
<polygon fill="none" stroke="#0058ad" points="110,-81.5 110,-110.5 335,-110.5 335,-81.5 110,-81.5"/>
<text text-anchor="middle" x="147" y="-92.3" font-family="Times,serif" font-size="14.00" fill="#0058ad">w 575 1</text>
<polyline fill="none" stroke="#0058ad" points="184,-81.5 184,-110.5 "/>
<text text-anchor="middle" x="221" y="-92.3" font-family="Times,serif" font-size="14.00" fill="#0058ad">w 575 2</text>
<polyline fill="none" stroke="#0058ad" points="258,-81.5 258,-110.5 "/>
<text text-anchor="middle" x="296.5" y="-92.3" font-family="Times,serif" font-size="14.00" fill="#0058ad">r 576 nil</text>
</g>
<!-- T14957&#45;&gt;T14947 -->
<g id="edge1" class="edge">
<title>T14957:f0&#45;&gt;T14947:f1</title>
<path fill="none" stroke="#5b00c0" d="M38.5,-162C38.5,-152.89 175.37,-129.13 211.72,-116.12"/>
<polygon fill="#5b00c0" stroke="#5b00c0" points="213.63,-119.06 220.5,-111 210.1,-113.02 213.63,-119.06"/>
<text text-anchor="middle" x="172" y="-132.8" font-family="Times,serif" font-size="14.00" fill="#5b00c0">rw</text>
</g>
<!-- T14956 -->
<g id="node2" class="node">
<title>T14956</title>
<polygon fill="none" stroke="#0058ad" points="71,-0.5 71,-29.5 364,-29.5 364,-0.5 71,-0.5"/>
<text text-anchor="middle" x="109.5" y="-11.3" font-family="Times,serif" font-size="14.00" fill="#0058ad">r 576 nil</text>
<polyline fill="none" stroke="#0058ad" points="148,-0.5 148,-29.5 "/>
<text text-anchor="middle" x="185" y="-11.3" font-family="Times,serif" font-size="14.00" fill="#0058ad">w 573 9</text>
<polyline fill="none" stroke="#0058ad" points="222,-0.5 222,-29.5 "/>
<text text-anchor="middle" x="259" y="-11.3" font-family="Times,serif" font-size="14.00" fill="#0058ad">w 576 2</text>
<polyline fill="none" stroke="#0058ad" points="296,-0.5 296,-29.5 "/>
<text text-anchor="middle" x="330" y="-11.3" font-family="Times,serif" font-size="14.00" fill="#0058ad">r 576 2</text>
</g>
<!-- T14956&#45;&gt;T14957 -->
<g id="edge2" class="edge">
<title>T14956:f0&#45;&gt;T14957:f1</title>
<path fill="none" stroke="#5b00c0" d="M69.5,-15C26.5,-15 66.57,-70.68 81.5,-111 89.48,-132.56 107.8,-134.81 113.06,-151.67"/>
<polygon fill="#5b00c0" stroke="#5b00c0" points="109.65,-152.58 114.5,-162 116.59,-151.61 109.65,-152.58"/>
<text text-anchor="middle" x="91" y="-92.3" font-family="Times,serif" font-size="14.00" fill="#5b00c0">rw</text>
</g>
<!-- T14947&#45;&gt;T14957 -->
<g id="edge4" class="edge">
<title>T14947:f2&#45;&gt;T14957:f1</title>
<path fill="none" stroke="#5b00c0" d="M296.5,-111C296.5,-191.23 130.48,-88.1 115.57,-151.86"/>
<polygon fill="#5b00c0" stroke="#5b00c0" points="112.07,-151.69 114.5,-162 119.03,-152.42 112.07,-151.69"/>
<text text-anchor="middle" x="300" y="-132.8" font-family="Times,serif" font-size="14.00" fill="#5b00c0">rw</text>
</g>
<!-- T14947&#45;&gt;T14956 -->
<g id="edge3" class="edge">
<title>T14947:f2&#45;&gt;T14956:f2</title>
<path fill="none" stroke="#5b00c0" d="M296.5,-81C296.5,-56.93 269.17,-57.25 261.49,-40.04"/>
<polygon fill="#5b00c0" stroke="#5b00c0" points="264.88,-39.13 259.5,-30 258.01,-40.49 264.88,-39.13"/>
<text text-anchor="middle" x="298" y="-51.8" font-family="Times,serif" font-size="14.00" fill="#5b00c0">rw</text>
</g>
</g>
</svg>
