<?xml version="1.0" encoding="UTF-8" standalone="no"?>
<!DOCTYPE svg PUBLIC "-//W3C//DTD SVG 1.1//EN"
 "http://www.w3.org/Graphics/SVG/1.1/DTD/svg11.dtd">
<!-- Generated by graphviz version 2.43.0 (0)
 -->
<!-- Title: a_graph Pages: 1 -->
<svg width="236pt" height="119pt"
 viewBox="0.00 0.00 236.00 119.00" xmlns="http://www.w3.org/2000/svg" xmlns:xlink="http://www.w3.org/1999/xlink">
<g id="graph0" class="graph" transform="scale(1 1) rotate(0) translate(4 115)">
<title>a_graph</title>
<polygon fill="white" stroke="transparent" points="-4,4 -4,-115 232,-115 232,4 -4,4"/>
<!-- T18371 -->
<g id="node1" class="node">
<title>T18371</title>
<polygon fill="none" stroke="#0058ad" points="7.5,-81.5 7.5,-110.5 158.5,-110.5 158.5,-81.5 7.5,-81.5"/>
<text text-anchor="middle" x="46" y="-92.3" font-family="Times,serif" font-size="14.00" fill="#0058ad">r 703 nil</text>
<polyline fill="none" stroke="#0058ad" points="84.5,-81.5 84.5,-110.5 "/>
<text text-anchor="middle" x="121.5" y="-92.3" font-family="Times,serif" font-size="14.00" fill="#0058ad">w 703 1</text>
</g>
<!-- T18379 -->
<g id="node2" class="node">
<title>T18379</title>
<polygon fill="none" stroke="#0058ad" points="0,-0.5 0,-29.5 228,-29.5 228,-0.5 0,-0.5"/>
<text text-anchor="middle" x="38.5" y="-11.3" font-family="Times,serif" font-size="14.00" fill="#0058ad">r 703 nil</text>
<polyline fill="none" stroke="#0058ad" points="77,-0.5 77,-29.5 "/>
<text text-anchor="middle" x="114" y="-11.3" font-family="Times,serif" font-size="14.00" fill="#0058ad">w 703 3</text>
<polyline fill="none" stroke="#0058ad" points="151,-0.5 151,-29.5 "/>
<text text-anchor="middle" x="189.5" y="-11.3" font-family="Times,serif" font-size="14.00" fill="#0058ad">r 698 16</text>
</g>
<!-- T18371&#45;&gt;T18379 -->
<g id="edge1" class="edge">
<title>T18371:f0&#45;&gt;T18379:f1</title>
<path fill="none" stroke="#5b00c0" d="M46,-81C46,-62.05 57.91,-59.46 73,-48 84.89,-38.97 102.01,-44.56 109.82,-39.52"/>
<polygon fill="#5b00c0" stroke="#5b00c0" points="113.19,-40.56 114,-30 106.78,-37.75 113.19,-40.56"/>
<text text-anchor="middle" x="82.5" y="-51.8" font-family="Times,serif" font-size="14.00" fill="#5b00c0">rw</text>
</g>
<!-- T18379&#45;&gt;T18371 -->
<g id="edge2" class="edge">
<title>T18379:f0&#45;&gt;T18371:f1</title>
<path fill="none" stroke="#5b00c0" d="M38,-30C38,-55.3 70.8,-34.19 92,-48 105.23,-56.62 116.43,-59.87 120.43,-70.87"/>
<polygon fill="#5b00c0" stroke="#5b00c0" points="117.01,-71.65 122,-81 123.93,-70.58 117.01,-71.65"/>
<text text-anchor="middle" x="125.5" y="-51.8" font-family="Times,serif" font-size="14.00" fill="#5b00c0">rw</text>
</g>
</g>
</svg>
