<?xml version="1.0" encoding="UTF-8" standalone="no"?>
<!DOCTYPE svg PUBLIC "-//W3C//DTD SVG 1.1//EN"
 "http://www.w3.org/Graphics/SVG/1.1/DTD/svg11.dtd">
<!-- Generated by graphviz version 2.43.0 (0)
 -->
<!-- Title: a_graph Pages: 1 -->
<svg width="315pt" height="119pt"
 viewBox="0.00 0.00 315.00 119.00" xmlns="http://www.w3.org/2000/svg" xmlns:xlink="http://www.w3.org/1999/xlink">
<g id="graph0" class="graph" transform="scale(1 1) rotate(0) translate(4 115)">
<title>a_graph</title>
<polygon fill="white" stroke="transparent" points="-4,4 -4,-115 311,-115 311,4 -4,4"/>
<!-- T20496 -->
<g id="node1" class="node">
<title>T20496</title>
<polygon fill="none" stroke="#0058ad" points="8,-81.5 8,-110.5 307,-110.5 307,-81.5 8,-81.5"/>
<text text-anchor="middle" x="46.5" y="-92.3" font-family="Times,serif" font-size="14.00" fill="#0058ad">r 781 nil</text>
<polyline fill="none" stroke="#0058ad" points="85,-81.5 85,-110.5 "/>
<text text-anchor="middle" x="122" y="-92.3" font-family="Times,serif" font-size="14.00" fill="#0058ad">w 781 1</text>
<polyline fill="none" stroke="#0058ad" points="159,-81.5 159,-110.5 "/>
<text text-anchor="middle" x="196" y="-92.3" font-family="Times,serif" font-size="14.00" fill="#0058ad">w 778 5</text>
<polyline fill="none" stroke="#0058ad" points="233,-81.5 233,-110.5 "/>
<text text-anchor="middle" x="270" y="-92.3" font-family="Times,serif" font-size="14.00" fill="#0058ad">w 778 6</text>
</g>
<!-- T20501 -->
<g id="node2" class="node">
<title>T20501</title>
<polygon fill="none" stroke="#0058ad" points="0,-0.5 0,-29.5 287,-29.5 287,-0.5 0,-0.5"/>
<text text-anchor="middle" x="38.5" y="-11.3" font-family="Times,serif" font-size="14.00" fill="#0058ad">r 781 nil</text>
<polyline fill="none" stroke="#0058ad" points="77,-0.5 77,-29.5 "/>
<text text-anchor="middle" x="114" y="-11.3" font-family="Times,serif" font-size="14.00" fill="#0058ad">w 781 4</text>
<polyline fill="none" stroke="#0058ad" points="151,-0.5 151,-29.5 "/>
<text text-anchor="middle" x="185" y="-11.3" font-family="Times,serif" font-size="14.00" fill="#0058ad">r 780 3</text>
<polyline fill="none" stroke="#0058ad" points="219,-0.5 219,-29.5 "/>
<text text-anchor="middle" x="253" y="-11.3" font-family="Times,serif" font-size="14.00" fill="#0058ad">r 781 4</text>
</g>
<!-- T20496&#45;&gt;T20501 -->
<g id="edge1" class="edge">
<title>T20496:f0&#45;&gt;T20501:f1</title>
<path fill="none" stroke="#5b00c0" d="M46.5,-81C46.5,-64.29 51.85,-58.91 64.5,-48 78.5,-35.92 101.3,-46.4 109.99,-39.41"/>
<polygon fill="#5b00c0" stroke="#5b00c0" points="113.28,-40.59 113.5,-30 106.72,-38.15 113.28,-40.59"/>
<text text-anchor="middle" x="74" y="-51.8" font-family="Times,serif" font-size="14.00" fill="#5b00c0">rw</text>
</g>
<!-- T20501&#45;&gt;T20496 -->
<g id="edge2" class="edge">
<title>T20501:f0&#45;&gt;T20496:f1</title>
<path fill="none" stroke="#5b00c0" d="M38.5,-30C38.5,-51.54 65.11,-36.78 83.5,-48 99.16,-57.56 114.7,-58.59 119.78,-71"/>
<polygon fill="#5b00c0" stroke="#5b00c0" points="116.35,-71.74 121.5,-81 123.25,-70.55 116.35,-71.74"/>
<text text-anchor="middle" x="123" y="-51.8" font-family="Times,serif" font-size="14.00" fill="#5b00c0">rw</text>
</g>
</g>
</svg>
