<?xml version="1.0" encoding="UTF-8" standalone="no"?>
<!DOCTYPE svg PUBLIC "-//W3C//DTD SVG 1.1//EN"
 "http://www.w3.org/Graphics/SVG/1.1/DTD/svg11.dtd">
<!-- Generated by graphviz version 2.43.0 (0)
 -->
<!-- Title: a_graph Pages: 1 -->
<svg width="882pt" height="443pt"
 viewBox="0.00 0.00 881.98 443.00" xmlns="http://www.w3.org/2000/svg" xmlns:xlink="http://www.w3.org/1999/xlink">
<g id="graph0" class="graph" transform="scale(1 1) rotate(0) translate(4 439)">
<title>a_graph</title>
<polygon fill="white" stroke="transparent" points="-4,4 -4,-439 877.98,-439 877.98,4 -4,4"/>
<!-- T28871 -->
<g id="node1" class="node">
<title>T28871</title>
<polygon fill="none" stroke="#0058ad" points="478.98,-405.5 478.98,-434.5 730.98,-434.5 730.98,-405.5 478.98,-405.5"/>
<text text-anchor="middle" x="520.48" y="-416.3" font-family="Times,serif" font-size="14.00" fill="#0058ad">w 1105 1</text>
<polyline fill="none" stroke="#0058ad" points="561.98,-405.5 561.98,-434.5 "/>
<text text-anchor="middle" x="604.98" y="-416.3" font-family="Times,serif" font-size="14.00" fill="#0058ad">r 1104 nil</text>
<polyline fill="none" stroke="#0058ad" points="647.98,-405.5 647.98,-434.5 "/>
<text text-anchor="middle" x="689.48" y="-416.3" font-family="Times,serif" font-size="14.00" fill="#0058ad">w 1104 2</text>
</g>
<!-- T28895 -->
<g id="node2" class="node">
<title>T28895</title>
<polygon fill="none" stroke="#0058ad" points="414.48,-243.5 414.48,-272.5 767.48,-272.5 767.48,-243.5 414.48,-243.5"/>
<text text-anchor="middle" x="455.98" y="-254.3" font-family="Times,serif" font-size="14.00" fill="#0058ad">w 1104 9</text>
<polyline fill="none" stroke="#0058ad" points="497.48,-243.5 497.48,-272.5 "/>
<text text-anchor="middle" x="540.48" y="-254.3" font-family="Times,serif" font-size="14.00" fill="#0058ad">r 1105 nil</text>
<polyline fill="none" stroke="#0058ad" points="583.48,-243.5 583.48,-272.5 "/>
<text text-anchor="middle" x="629.48" y="-254.3" font-family="Times,serif" font-size="14.00" fill="#0058ad">w 1104 10</text>
<polyline fill="none" stroke="#0058ad" points="675.48,-243.5 675.48,-272.5 "/>
<text text-anchor="middle" x="721.48" y="-254.3" font-family="Times,serif" font-size="14.00" fill="#0058ad">w 1104 11</text>
</g>
<!-- T28871&#45;&gt;T28895 -->
<g id="edge4" class="edge">
<title>T28871:f1&#45;&gt;T28895:f3</title>
<path fill="none" stroke="#5b00c0" d="M604.98,-405C604.98,-367.7 603.77,-353.2 626.98,-324 633.15,-316.23 694.25,-294.57 715.07,-280.55"/>
<polygon fill="#5b00c0" stroke="#5b00c0" points="717.81,-282.74 721.98,-273 712.65,-278.02 717.81,-282.74"/>
<text text-anchor="middle" x="636.48" y="-335.3" font-family="Times,serif" font-size="14.00" fill="#5b00c0">rw</text>
</g>
<!-- T28865 -->
<g id="node3" class="node">
<title>T28865</title>
<polygon fill="none" stroke="#0058ad" points="654.48,-324.5 654.48,-353.5 823.48,-353.5 823.48,-324.5 654.48,-324.5"/>
<text text-anchor="middle" x="697.48" y="-335.3" font-family="Times,serif" font-size="14.00" fill="#0058ad">r 1104 nil</text>
<polyline fill="none" stroke="#0058ad" points="740.48,-324.5 740.48,-353.5 "/>
<text text-anchor="middle" x="781.98" y="-335.3" font-family="Times,serif" font-size="14.00" fill="#0058ad">w 1104 1</text>
</g>
<!-- T28871&#45;&gt;T28865 -->
<g id="edge3" class="edge">
<title>T28871:f1&#45;&gt;T28865:f1</title>
<path fill="none" stroke="#5b00c0" d="M604.98,-405C604.98,-387.01 741.71,-377.06 774.82,-361.01"/>
<polygon fill="#5b00c0" stroke="#5b00c0" points="777.29,-363.5 781.98,-354 772.39,-358.5 777.29,-363.5"/>
<text text-anchor="middle" x="743.48" y="-375.8" font-family="Times,serif" font-size="14.00" fill="#5b00c0">rw</text>
</g>
<!-- T28899 -->
<g id="node6" class="node">
<title>T28899</title>
<polygon fill="none" stroke="#0058ad" points="511.98,-162.5 511.98,-191.5 873.98,-191.5 873.98,-162.5 511.98,-162.5"/>
<text text-anchor="middle" x="554.98" y="-173.3" font-family="Times,serif" font-size="14.00" fill="#0058ad">r 1104 11</text>
<polyline fill="none" stroke="#0058ad" points="597.98,-162.5 597.98,-191.5 "/>
<text text-anchor="middle" x="643.98" y="-173.3" font-family="Times,serif" font-size="14.00" fill="#0058ad">w 1104 12</text>
<polyline fill="none" stroke="#0058ad" points="689.98,-162.5 689.98,-191.5 "/>
<text text-anchor="middle" x="735.98" y="-173.3" font-family="Times,serif" font-size="14.00" fill="#0058ad">w 1104 13</text>
<polyline fill="none" stroke="#0058ad" points="781.98,-162.5 781.98,-191.5 "/>
<text text-anchor="middle" x="827.98" y="-173.3" font-family="Times,serif" font-size="14.00" fill="#0058ad">w 1104 14</text>
</g>
<!-- T28871&#45;&gt;T28899 -->
<g id="edge1" class="edge">
<title>T28871:f1&#45;&gt;T28899:f3</title>
<path fill="none" stroke="#5b00c0" d="M604.98,-405C604.98,-387.99 740.56,-391.43 756.98,-387 792.53,-377.4 812.03,-384.28 832.98,-354 869.41,-301.35 851.69,-272.31 836.98,-210 836.02,-205.92 833.98,-203.67 832.09,-201.52"/>
<polygon fill="#5b00c0" stroke="#5b00c0" points="835.15,-199.8 827.98,-192 828.73,-202.57 835.15,-199.8"/>
<text text-anchor="middle" x="863.48" y="-294.8" font-family="Times,serif" font-size="14.00" fill="#5b00c0">rw</text>
</g>
<!-- T28912 -->
<g id="node7" class="node">
<title>T28912</title>
<polygon fill="none" stroke="#0058ad" points="49.48,-243.5 49.48,-272.5 396.48,-272.5 396.48,-243.5 49.48,-243.5"/>
<text text-anchor="middle" x="95.48" y="-254.3" font-family="Times,serif" font-size="14.00" fill="#0058ad">w 1104 16</text>
<polyline fill="none" stroke="#0058ad" points="141.48,-243.5 141.48,-272.5 "/>
<text text-anchor="middle" x="184.48" y="-254.3" font-family="Times,serif" font-size="14.00" fill="#0058ad">r 1105 nil</text>
<polyline fill="none" stroke="#0058ad" points="227.48,-243.5 227.48,-272.5 "/>
<text text-anchor="middle" x="270.48" y="-254.3" font-family="Times,serif" font-size="14.00" fill="#0058ad">r 1106 nil</text>
<polyline fill="none" stroke="#0058ad" points="313.48,-243.5 313.48,-272.5 "/>
<text text-anchor="middle" x="354.98" y="-254.3" font-family="Times,serif" font-size="14.00" fill="#0058ad">w 1106 1</text>
</g>
<!-- T28871&#45;&gt;T28912 -->
<g id="edge2" class="edge">
<title>T28871:f1&#45;&gt;T28912:f0</title>
<path fill="none" stroke="#5b00c0" d="M604.98,-405C604.98,-382.06 561.02,-335.16 540.98,-324 456.97,-277.23 120.56,-365.92 96.36,-283.06"/>
<polygon fill="#5b00c0" stroke="#5b00c0" points="99.8,-282.43 94.98,-273 92.87,-283.38 99.8,-282.43"/>
<text text-anchor="middle" x="584.48" y="-335.3" font-family="Times,serif" font-size="14.00" fill="#5b00c0">rw</text>
</g>
<!-- T28895&#45;&gt;T28871 -->
<g id="edge6" class="edge">
<title>T28895:f1&#45;&gt;T28871:f0</title>
<path fill="none" stroke="#5b00c0" d="M539.98,-273C539.98,-297.04 526.33,-300.36 521.98,-324 516.12,-355.82 519.18,-366.78 519.86,-394.79"/>
<polygon fill="#5b00c0" stroke="#5b00c0" points="516.36,-395.04 519.98,-405 523.36,-394.96 516.36,-395.04"/>
<text text-anchor="middle" x="531.48" y="-335.3" font-family="Times,serif" font-size="14.00" fill="#5b00c0">rw</text>
</g>
<!-- T28895&#45;&gt;T28899 -->
<g id="edge5" class="edge">
<title>T28895:f3&#45;&gt;T28899:f0</title>
<path fill="none" stroke="#c000a5" d="M721.98,-243C721.98,-169.18 570.89,-259.86 556.14,-202.11"/>
<polygon fill="#c000a5" stroke="#c000a5" points="559.59,-201.54 554.98,-192 552.64,-202.33 559.59,-201.54"/>
<text text-anchor="middle" x="726.48" y="-213.8" font-family="Times,serif" font-size="14.00" fill="#c000a5">wr</text>
</g>
<!-- T28865&#45;&gt;T28871 -->
<g id="edge9" class="edge">
<title>T28865:f0&#45;&gt;T28871:f2</title>
<path fill="none" stroke="#5b00c0" d="M696.98,-354C696.98,-381.84 740.36,-349.66 756.98,-372 769.21,-388.43 759.92,-411.69 742.04,-418.23"/>
<polygon fill="#5b00c0" stroke="#5b00c0" points="741.22,-414.82 731.98,-420 742.44,-421.71 741.22,-414.82"/>
<text text-anchor="middle" x="771.48" y="-375.8" font-family="Times,serif" font-size="14.00" fill="#5b00c0">rw</text>
</g>
<!-- T28865&#45;&gt;T28895 -->
<g id="edge10" class="edge">
<title>T28865:f0&#45;&gt;T28895:f3</title>
<path fill="none" stroke="#5b00c0" d="M696.98,-324C696.98,-302.7 714.78,-299.01 720.34,-283.21"/>
<polygon fill="#5b00c0" stroke="#5b00c0" points="723.85,-283.43 721.98,-273 716.94,-282.32 723.85,-283.43"/>
<text text-anchor="middle" x="724.48" y="-294.8" font-family="Times,serif" font-size="14.00" fill="#5b00c0">rw</text>
</g>
<!-- T28865&#45;&gt;T28899 -->
<g id="edge7" class="edge">
<title>T28865:f0&#45;&gt;T28899:f3</title>
<path fill="none" stroke="#5b00c0" d="M696.98,-324C696.98,-304.1 721.1,-316.54 737.98,-306 789.75,-273.69 824.07,-258.28 827.67,-202.16"/>
<polygon fill="#5b00c0" stroke="#5b00c0" points="831.17,-202.1 827.98,-192 824.17,-201.89 831.17,-202.1"/>
<text text-anchor="middle" x="825.48" y="-254.3" font-family="Times,serif" font-size="14.00" fill="#5b00c0">rw</text>
</g>
<!-- T28865&#45;&gt;T28912 -->
<g id="edge8" class="edge">
<title>T28865:f0&#45;&gt;T28912:f0</title>
<path fill="none" stroke="#5b00c0" d="M652.98,-339C644.44,-339 648.41,-328.21 640.98,-324 545.76,-270.08 505.9,-301.6 396.98,-291 382.02,-289.54 152.17,-289.74 103.85,-277.77"/>
<polygon fill="#5b00c0" stroke="#5b00c0" points="105.45,-274.65 94.98,-273 102.13,-280.82 105.45,-274.65"/>
<text text-anchor="middle" x="608.48" y="-294.8" font-family="Times,serif" font-size="14.00" fill="#5b00c0">rw</text>
</g>
<!-- T28901 -->
<g id="node4" class="node">
<title>T28901</title>
<polygon fill="none" stroke="#0058ad" points="428.98,-81.5 428.98,-110.5 606.98,-110.5 606.98,-81.5 428.98,-81.5"/>
<text text-anchor="middle" x="471.98" y="-92.3" font-family="Times,serif" font-size="14.00" fill="#0058ad">r 1104 14</text>
<polyline fill="none" stroke="#0058ad" points="514.98,-81.5 514.98,-110.5 "/>
<text text-anchor="middle" x="560.98" y="-92.3" font-family="Times,serif" font-size="14.00" fill="#0058ad">w 1103 13</text>
</g>
<!-- T28906 -->
<g id="node5" class="node">
<title>T28906</title>
<polygon fill="none" stroke="#0058ad" points="15.98,-0.5 15.98,-29.5 187.98,-29.5 187.98,-0.5 15.98,-0.5"/>
<text text-anchor="middle" x="58.98" y="-11.3" font-family="Times,serif" font-size="14.00" fill="#0058ad">r 1105 nil</text>
<polyline fill="none" stroke="#0058ad" points="101.98,-0.5 101.98,-29.5 "/>
<text text-anchor="middle" x="144.98" y="-11.3" font-family="Times,serif" font-size="14.00" fill="#0058ad">r 1103 13</text>
</g>
<!-- T28901&#45;&gt;T28906 -->
<g id="edge11" class="edge">
<title>T28901:f1&#45;&gt;T28906:f1</title>
<path fill="none" stroke="#c000a5" d="M560.98,-81C560.98,-41.48 268.5,-17.88 199.2,-15.25"/>
<polygon fill="#c000a5" stroke="#c000a5" points="199.06,-11.74 188.98,-15 198.89,-18.74 199.06,-11.74"/>
<text text-anchor="middle" x="548.48" y="-51.8" font-family="Times,serif" font-size="14.00" fill="#c000a5">wr</text>
</g>
<!-- T28906&#45;&gt;T28871 -->
<g id="edge12" class="edge">
<title>T28906:f0&#45;&gt;T28871:f0</title>
<path fill="none" stroke="#5b00c0" d="M14.98,-15C-20.71,-15 21.98,-59.31 21.98,-95 21.98,-340 21.98,-340 21.98,-340 21.98,-388.83 386.5,-417.04 467.51,-419.78"/>
<polygon fill="#5b00c0" stroke="#5b00c0" points="467.91,-423.29 477.98,-420 468.06,-416.29 467.91,-423.29"/>
<text text-anchor="middle" x="31.48" y="-213.8" font-family="Times,serif" font-size="14.00" fill="#5b00c0">rw</text>
</g>
<!-- T28899&#45;&gt;T28901 -->
<g id="edge13" class="edge">
<title>T28899:f3&#45;&gt;T28901:f0</title>
<path fill="none" stroke="#c000a5" d="M827.98,-162C827.98,-5.75 487.79,-258.98 472.51,-121.13"/>
<polygon fill="#c000a5" stroke="#c000a5" points="476,-120.8 471.98,-111 469.01,-121.17 476,-120.8"/>
<text text-anchor="middle" x="833.48" y="-132.8" font-family="Times,serif" font-size="14.00" fill="#c000a5">wr</text>
</g>
<!-- T28912&#45;&gt;T28871 -->
<g id="edge14" class="edge">
<title>T28912:f1&#45;&gt;T28871:f0</title>
<path fill="none" stroke="#5b00c0" d="M183.98,-273C183.98,-301.4 416.78,-273.28 438.98,-291 482.77,-325.97 426.34,-408.41 467.92,-418.9"/>
<polygon fill="#5b00c0" stroke="#5b00c0" points="467.66,-422.39 477.98,-420 468.42,-415.43 467.66,-422.39"/>
<text text-anchor="middle" x="466.48" y="-335.3" font-family="Times,serif" font-size="14.00" fill="#5b00c0">rw</text>
</g>
</g>
</svg>
