<?xml version="1.0" encoding="UTF-8" standalone="no"?>
<!DOCTYPE svg PUBLIC "-//W3C//DTD SVG 1.1//EN"
 "http://www.w3.org/Graphics/SVG/1.1/DTD/svg11.dtd">
<!-- Generated by graphviz version 2.43.0 (0)
 -->
<!-- Title: a_graph Pages: 1 -->
<svg width="159pt" height="119pt"
 viewBox="0.00 0.00 159.00 119.00" xmlns="http://www.w3.org/2000/svg" xmlns:xlink="http://www.w3.org/1999/xlink">
<g id="graph0" class="graph" transform="scale(1 1) rotate(0) translate(4 115)">
<title>a_graph</title>
<polygon fill="white" stroke="transparent" points="-4,4 -4,-115 155,-115 155,4 -4,4"/>
<!-- T17157 -->
<g id="node1" class="node">
<title>T17157</title>
<polygon fill="none" stroke="#0058ad" points="0,-81.5 0,-110.5 151,-110.5 151,-81.5 0,-81.5"/>
<text text-anchor="middle" x="38.5" y="-92.3" font-family="Times,serif" font-size="14.00" fill="#0058ad">r 659 nil</text>
<polyline fill="none" stroke="#0058ad" points="77,-81.5 77,-110.5 "/>
<text text-anchor="middle" x="114" y="-92.3" font-family="Times,serif" font-size="14.00" fill="#0058ad">w 659 1</text>
</g>
<!-- T17164 -->
<g id="node2" class="node">
<title>T17164</title>
<polygon fill="none" stroke="#0058ad" points="0,-0.5 0,-29.5 151,-29.5 151,-0.5 0,-0.5"/>
<text text-anchor="middle" x="38.5" y="-11.3" font-family="Times,serif" font-size="14.00" fill="#0058ad">r 659 nil</text>
<polyline fill="none" stroke="#0058ad" points="77,-0.5 77,-29.5 "/>
<text text-anchor="middle" x="114" y="-11.3" font-family="Times,serif" font-size="14.00" fill="#0058ad">w 659 4</text>
</g>
<!-- T17157&#45;&gt;T17164 -->
<g id="edge1" class="edge">
<title>T17157:f0&#45;&gt;T17164:f1</title>
<path fill="none" stroke="#5b00c0" d="M38.5,-81C38.5,-62.05 50.06,-58.99 65.5,-48 80.56,-37.28 102.73,-46.95 111.12,-39.58"/>
<polygon fill="#5b00c0" stroke="#5b00c0" points="114.47,-40.59 114.5,-30 107.87,-38.27 114.47,-40.59"/>
<text text-anchor="middle" x="75" y="-51.8" font-family="Times,serif" font-size="14.00" fill="#5b00c0">rw</text>
</g>
<!-- T17164&#45;&gt;T17157 -->
<g id="edge2" class="edge">
<title>T17164:f0&#45;&gt;T17157:f1</title>
<path fill="none" stroke="#5b00c0" d="M38.5,-30C38.5,-51.95 66.42,-35.55 84.5,-48 97.51,-56.96 108.84,-60.01 112.9,-70.91"/>
<polygon fill="#5b00c0" stroke="#5b00c0" points="109.48,-71.67 114.5,-81 116.39,-70.58 109.48,-71.67"/>
<text text-anchor="middle" x="117" y="-51.8" font-family="Times,serif" font-size="14.00" fill="#5b00c0">rw</text>
</g>
</g>
</svg>
