<?xml version="1.0" encoding="UTF-8" standalone="no"?>
<!DOCTYPE svg PUBLIC "-//W3C//DTD SVG 1.1//EN"
 "http://www.w3.org/Graphics/SVG/1.1/DTD/svg11.dtd">
<!-- Generated by graphviz version 2.43.0 (0)
 -->
<!-- Title: a_graph Pages: 1 -->
<svg width="1468pt" height="605pt"
 viewBox="0.00 0.00 1467.50 605.00" xmlns="http://www.w3.org/2000/svg" xmlns:xlink="http://www.w3.org/1999/xlink">
<g id="graph0" class="graph" transform="scale(1 1) rotate(0) translate(4 601)">
<title>a_graph</title>
<polygon fill="white" stroke="transparent" points="-4,4 -4,-601 1463.5,-601 1463.5,4 -4,4"/>
<!-- T28481 -->
<g id="node1" class="node">
<title>T28481</title>
<polygon fill="none" stroke="#0058ad" points="1140.5,-567.5 1140.5,-596.5 1377.5,-596.5 1377.5,-567.5 1140.5,-567.5"/>
<text text-anchor="middle" x="1182" y="-578.3" font-family="Times,serif" font-size="14.00" fill="#0058ad">w 1090 1</text>
<polyline fill="none" stroke="#0058ad" points="1223.5,-567.5 1223.5,-596.5 "/>
<text text-anchor="middle" x="1262" y="-578.3" font-family="Times,serif" font-size="14.00" fill="#0058ad">r 1089 9</text>
<polyline fill="none" stroke="#0058ad" points="1300.5,-567.5 1300.5,-596.5 "/>
<text text-anchor="middle" x="1339" y="-578.3" font-family="Times,serif" font-size="14.00" fill="#0058ad">r 1089 9</text>
</g>
<!-- T28495 -->
<g id="node6" class="node">
<title>T28495</title>
<polygon fill="none" stroke="#0058ad" points="181.5,-486.5 181.5,-515.5 504.5,-515.5 504.5,-486.5 181.5,-486.5"/>
<text text-anchor="middle" x="220" y="-497.3" font-family="Times,serif" font-size="14.00" fill="#0058ad">r 1091 1</text>
<polyline fill="none" stroke="#0058ad" points="258.5,-486.5 258.5,-515.5 "/>
<text text-anchor="middle" x="297" y="-497.3" font-family="Times,serif" font-size="14.00" fill="#0058ad">r 1091 1</text>
<polyline fill="none" stroke="#0058ad" points="335.5,-486.5 335.5,-515.5 "/>
<text text-anchor="middle" x="374" y="-497.3" font-family="Times,serif" font-size="14.00" fill="#0058ad">r 1090 1</text>
<polyline fill="none" stroke="#0058ad" points="412.5,-486.5 412.5,-515.5 "/>
<text text-anchor="middle" x="458.5" y="-497.3" font-family="Times,serif" font-size="14.00" fill="#0058ad">w 1066 10</text>
</g>
<!-- T28481&#45;&gt;T28495 -->
<g id="edge1" class="edge">
<title>T28481:f0&#45;&gt;T28495:f2</title>
<path fill="none" stroke="#c000a5" d="M1139,-582C1098.84,-582 456.32,-561.31 381.16,-523.3"/>
<polygon fill="#c000a5" stroke="#c000a5" points="383.5,-520.69 374,-516 378.5,-525.59 383.5,-520.69"/>
<text text-anchor="middle" x="522.5" y="-537.8" font-family="Times,serif" font-size="14.00" fill="#c000a5">wr</text>
</g>
<!-- T28454 -->
<g id="node2" class="node">
<title>T28454</title>
<polygon fill="none" stroke="#0058ad" points="491,-243.5 491,-272.5 835,-272.5 835,-243.5 491,-243.5"/>
<text text-anchor="middle" x="534" y="-254.3" font-family="Times,serif" font-size="14.00" fill="#0058ad">r 1089 nil</text>
<polyline fill="none" stroke="#0058ad" points="577,-243.5 577,-272.5 "/>
<text text-anchor="middle" x="623" y="-254.3" font-family="Times,serif" font-size="14.00" fill="#0058ad">w 1085 15</text>
<polyline fill="none" stroke="#0058ad" points="669,-243.5 669,-272.5 "/>
<text text-anchor="middle" x="710.5" y="-254.3" font-family="Times,serif" font-size="14.00" fill="#0058ad">w 1088 1</text>
<polyline fill="none" stroke="#0058ad" points="752,-243.5 752,-272.5 "/>
<text text-anchor="middle" x="793.5" y="-254.3" font-family="Times,serif" font-size="14.00" fill="#0058ad">w 1089 2</text>
</g>
<!-- T28489 -->
<g id="node3" class="node">
<title>T28489</title>
<polygon fill="none" stroke="#0058ad" points="0,-81.5 0,-110.5 178,-110.5 178,-81.5 0,-81.5"/>
<text text-anchor="middle" x="46" y="-92.3" font-family="Times,serif" font-size="14.00" fill="#0058ad">w 1089 15</text>
<polyline fill="none" stroke="#0058ad" points="92,-81.5 92,-110.5 "/>
<text text-anchor="middle" x="135" y="-92.3" font-family="Times,serif" font-size="14.00" fill="#0058ad">r 1089 15</text>
</g>
<!-- T28454&#45;&gt;T28489 -->
<g id="edge2" class="edge">
<title>T28454:f0&#45;&gt;T28489:f0</title>
<path fill="none" stroke="#5b00c0" d="M490,-258C401.22,-258 377.83,-251.17 293,-225 266.71,-216.89 83.67,-154.15 50.99,-120.15"/>
<polygon fill="#5b00c0" stroke="#5b00c0" points="53.86,-118.11 46,-111 47.71,-121.46 53.86,-118.11"/>
<text text-anchor="middle" x="207.5" y="-173.3" font-family="Times,serif" font-size="14.00" fill="#5b00c0">rw</text>
</g>
<!-- T28455 -->
<g id="node4" class="node">
<title>T28455</title>
<polygon fill="none" stroke="#0058ad" points="400,-81.5 400,-110.5 566,-110.5 566,-81.5 400,-81.5"/>
<text text-anchor="middle" x="441.5" y="-92.3" font-family="Times,serif" font-size="14.00" fill="#0058ad">w 1089 3</text>
<polyline fill="none" stroke="#0058ad" points="483,-81.5 483,-110.5 "/>
<text text-anchor="middle" x="524.5" y="-92.3" font-family="Times,serif" font-size="14.00" fill="#0058ad">w 1089 4</text>
</g>
<!-- T28454&#45;&gt;T28455 -->
<g id="edge7" class="edge">
<title>T28454:f0&#45;&gt;T28455:f1</title>
<path fill="none" stroke="#5b00c0" d="M490,-258C419.24,-258 321.15,-219.05 363,-162 383.14,-134.54 498.84,-145.84 521.24,-120.58"/>
<polygon fill="#5b00c0" stroke="#5b00c0" points="524.61,-121.59 525,-111 518.09,-119.03 524.61,-121.59"/>
<text text-anchor="middle" x="372.5" y="-173.3" font-family="Times,serif" font-size="14.00" fill="#5b00c0">rw</text>
</g>
<!-- T28491 -->
<g id="node5" class="node">
<title>T28491</title>
<polygon fill="none" stroke="#0058ad" points="24.5,-0.5 24.5,-29.5 285.5,-29.5 285.5,-0.5 24.5,-0.5"/>
<text text-anchor="middle" x="67.5" y="-11.3" font-family="Times,serif" font-size="14.00" fill="#0058ad">r 1089 15</text>
<polyline fill="none" stroke="#0058ad" points="110.5,-0.5 110.5,-29.5 "/>
<text text-anchor="middle" x="156.5" y="-11.3" font-family="Times,serif" font-size="14.00" fill="#0058ad">w 1089 16</text>
<polyline fill="none" stroke="#0058ad" points="202.5,-0.5 202.5,-29.5 "/>
<text text-anchor="middle" x="244" y="-11.3" font-family="Times,serif" font-size="14.00" fill="#0058ad">w 1091 1</text>
</g>
<!-- T28454&#45;&gt;T28491 -->
<g id="edge4" class="edge">
<title>T28454:f0&#45;&gt;T28491:f1</title>
<path fill="none" stroke="#5b00c0" d="M490,-258C428.67,-258 408.93,-255.98 356,-225 305.53,-195.46 307.68,-170.03 266,-129 244.96,-108.29 173.14,-70.99 159.31,-39.86"/>
<polygon fill="#5b00c0" stroke="#5b00c0" points="162.69,-38.94 157,-30 155.88,-40.54 162.69,-38.94"/>
<text text-anchor="middle" x="289.5" y="-132.8" font-family="Times,serif" font-size="14.00" fill="#5b00c0">rw</text>
</g>
<!-- T28459 -->
<g id="node9" class="node">
<title>T28459</title>
<polygon fill="none" stroke="#0058ad" points="492,-0.5 492,-29.5 830,-29.5 830,-0.5 492,-0.5"/>
<text text-anchor="middle" x="538" y="-11.3" font-family="Times,serif" font-size="14.00" fill="#0058ad">w 1085 16</text>
<polyline fill="none" stroke="#0058ad" points="584,-0.5 584,-29.5 "/>
<text text-anchor="middle" x="622.5" y="-11.3" font-family="Times,serif" font-size="14.00" fill="#0058ad">r 1089 4</text>
<polyline fill="none" stroke="#0058ad" points="661,-0.5 661,-29.5 "/>
<text text-anchor="middle" x="702.5" y="-11.3" font-family="Times,serif" font-size="14.00" fill="#0058ad">w 1089 5</text>
<polyline fill="none" stroke="#0058ad" points="744,-0.5 744,-29.5 "/>
<text text-anchor="middle" x="787" y="-11.3" font-family="Times,serif" font-size="14.00" fill="#0058ad">r 1088 nil</text>
</g>
<!-- T28454&#45;&gt;T28459 -->
<g id="edge5" class="edge">
<title>T28454:f0&#45;&gt;T28459:f2</title>
<path fill="none" stroke="#5b00c0" d="M534,-243C534,-222.24 701.22,-233.86 720,-225 738.76,-216.15 745.06,-211.16 753,-192 758.1,-179.68 755.4,-175.12 753,-162 742.34,-103.79 707.3,-93.76 703.36,-40.15"/>
<polygon fill="#5b00c0" stroke="#5b00c0" points="706.85,-39.87 703,-30 699.86,-40.12 706.85,-39.87"/>
<text text-anchor="middle" x="757.5" y="-132.8" font-family="Times,serif" font-size="14.00" fill="#5b00c0">rw</text>
</g>
<!-- T28441 -->
<g id="node11" class="node">
<title>T28441</title>
<polygon fill="none" stroke="#0058ad" points="390.5,-162.5 390.5,-191.5 743.5,-191.5 743.5,-162.5 390.5,-162.5"/>
<text text-anchor="middle" x="436.5" y="-173.3" font-family="Times,serif" font-size="14.00" fill="#0058ad">w 1072 13</text>
<polyline fill="none" stroke="#0058ad" points="482.5,-162.5 482.5,-191.5 "/>
<text text-anchor="middle" x="525.5" y="-173.3" font-family="Times,serif" font-size="14.00" fill="#0058ad">r 1089 nil</text>
<polyline fill="none" stroke="#0058ad" points="568.5,-162.5 568.5,-191.5 "/>
<text text-anchor="middle" x="614.5" y="-173.3" font-family="Times,serif" font-size="14.00" fill="#0058ad">w 1085 10</text>
<polyline fill="none" stroke="#0058ad" points="660.5,-162.5 660.5,-191.5 "/>
<text text-anchor="middle" x="702" y="-173.3" font-family="Times,serif" font-size="14.00" fill="#0058ad">w 1089 1</text>
</g>
<!-- T28454&#45;&gt;T28441 -->
<g id="edge6" class="edge">
<title>T28454:f0&#45;&gt;T28441:f3</title>
<path fill="none" stroke="#5b00c0" d="M534,-243C534,-168.78 685.99,-260.21 700.84,-202.16"/>
<polygon fill="#5b00c0" stroke="#5b00c0" points="704.34,-202.33 702,-192 697.39,-201.54 704.34,-202.33"/>
<text text-anchor="middle" x="706.5" y="-213.8" font-family="Times,serif" font-size="14.00" fill="#5b00c0">rw</text>
</g>
<!-- T28471 -->
<g id="node12" class="node">
<title>T28471</title>
<polygon fill="none" stroke="#0058ad" points="832,-81.5 832,-110.5 1152,-110.5 1152,-81.5 832,-81.5"/>
<text text-anchor="middle" x="873.5" y="-92.3" font-family="Times,serif" font-size="14.00" fill="#0058ad">w 1089 8</text>
<polyline fill="none" stroke="#0058ad" points="915,-81.5 915,-110.5 "/>
<text text-anchor="middle" x="953.5" y="-92.3" font-family="Times,serif" font-size="14.00" fill="#0058ad">r 1089 8</text>
<polyline fill="none" stroke="#0058ad" points="992,-81.5 992,-110.5 "/>
<text text-anchor="middle" x="1030.5" y="-92.3" font-family="Times,serif" font-size="14.00" fill="#0058ad">r 1089 8</text>
<polyline fill="none" stroke="#0058ad" points="1069,-81.5 1069,-110.5 "/>
<text text-anchor="middle" x="1110.5" y="-92.3" font-family="Times,serif" font-size="14.00" fill="#0058ad">w 1089 9</text>
</g>
<!-- T28454&#45;&gt;T28471 -->
<g id="edge3" class="edge">
<title>T28454:f0&#45;&gt;T28471:f3</title>
<path fill="none" stroke="#5b00c0" d="M534,-243C534,-212.27 785.32,-243.32 810,-225 846.59,-197.84 809.45,-156.21 846,-129 867.27,-113.17 1064.23,-135.08 1104.01,-118.29"/>
<polygon fill="#5b00c0" stroke="#5b00c0" points="1106.61,-120.64 1111,-111 1101.55,-115.8 1106.61,-120.64"/>
<text text-anchor="middle" x="837.5" y="-173.3" font-family="Times,serif" font-size="14.00" fill="#5b00c0">rw</text>
</g>
<!-- T28489&#45;&gt;T28491 -->
<g id="edge8" class="edge">
<title>T28489:f0&#45;&gt;T28491:f0</title>
<path fill="none" stroke="#c000a5" d="M46,-81C46,-60.32 60.95,-55.68 65.62,-40.01"/>
<polygon fill="#c000a5" stroke="#c000a5" points="69.1,-40.38 67,-30 62.17,-39.43 69.1,-40.38"/>
<text text-anchor="middle" x="71.5" y="-51.8" font-family="Times,serif" font-size="14.00" fill="#c000a5">wr</text>
</g>
<!-- T28455&#45;&gt;T28459 -->
<g id="edge9" class="edge">
<title>T28455:f1&#45;&gt;T28459:f1</title>
<path fill="none" stroke="#c000a5" d="M567,-96C601.75,-96 618.81,-72.96 621.59,-40.03"/>
<polygon fill="#c000a5" stroke="#c000a5" points="625.09,-40.13 622,-30 618.09,-39.85 625.09,-40.13"/>
<text text-anchor="middle" x="629.5" y="-51.8" font-family="Times,serif" font-size="14.00" fill="#c000a5">wr</text>
</g>
<!-- T28491&#45;&gt;T28495 -->
<g id="edge10" class="edge">
<title>T28491:f2&#45;&gt;T28495:f0</title>
<path fill="none" stroke="#c000a5" d="M244,-30C244,-42.48 195.05,-117.2 191,-129 178.19,-166.32 176,-177.04 176,-216.5 176,-421 176,-421 176,-421 176,-452.43 151.37,-490.71 170.09,-499.26"/>
<polygon fill="#c000a5" stroke="#c000a5" points="169.54,-502.71 180,-501 170.76,-495.82 169.54,-502.71"/>
<text text-anchor="middle" x="185.5" y="-254.3" font-family="Times,serif" font-size="14.00" fill="#c000a5">wr</text>
</g>
<!-- T28499 -->
<g id="node10" class="node">
<title>T28499</title>
<polygon fill="none" stroke="#0058ad" points="339,-405.5 339,-434.5 671,-434.5 671,-405.5 339,-405.5"/>
<text text-anchor="middle" x="377.5" y="-416.3" font-family="Times,serif" font-size="14.00" fill="#0058ad">r 1091 1</text>
<polyline fill="none" stroke="#0058ad" points="416,-405.5 416,-434.5 "/>
<text text-anchor="middle" x="459" y="-416.3" font-family="Times,serif" font-size="14.00" fill="#0058ad">r 1066 10</text>
<polyline fill="none" stroke="#0058ad" points="502,-405.5 502,-434.5 "/>
<text text-anchor="middle" x="545" y="-416.3" font-family="Times,serif" font-size="14.00" fill="#0058ad">r 1088 nil</text>
<polyline fill="none" stroke="#0058ad" points="588,-405.5 588,-434.5 "/>
<text text-anchor="middle" x="629.5" y="-416.3" font-family="Times,serif" font-size="14.00" fill="#0058ad">w 1091 4</text>
</g>
<!-- T28491&#45;&gt;T28499 -->
<g id="edge11" class="edge">
<title>T28491:f2&#45;&gt;T28499:f0</title>
<path fill="none" stroke="#c000a5" d="M244,-30C244,-44.77 228.89,-147.25 228,-162 227.2,-175.31 225.03,-179 228,-192 252.29,-298.25 227.16,-412.61 327.86,-419.66"/>
<polygon fill="#c000a5" stroke="#c000a5" points="327.89,-423.16 338,-420 328.12,-416.16 327.89,-423.16"/>
<text text-anchor="middle" x="243.5" y="-213.8" font-family="Times,serif" font-size="14.00" fill="#c000a5">wr</text>
</g>
<!-- T28495&#45;&gt;T28499 -->
<g id="edge12" class="edge">
<title>T28495:f3&#45;&gt;T28499:f1</title>
<path fill="none" stroke="#c000a5" d="M459,-486C459,-467.23 459,-460.12 459,-445.35"/>
<polygon fill="#c000a5" stroke="#c000a5" points="462.5,-445 459,-435 455.5,-445 462.5,-445"/>
<text text-anchor="middle" x="468.5" y="-456.8" font-family="Times,serif" font-size="14.00" fill="#c000a5">wr</text>
</g>
<!-- T28506 -->
<g id="node7" class="node">
<title>T28506</title>
<polygon fill="none" stroke="#0058ad" points="591.5,-324.5 591.5,-353.5 920.5,-353.5 920.5,-324.5 591.5,-324.5"/>
<text text-anchor="middle" x="630" y="-335.3" font-family="Times,serif" font-size="14.00" fill="#0058ad">r 1091 4</text>
<polyline fill="none" stroke="#0058ad" points="668.5,-324.5 668.5,-353.5 "/>
<text text-anchor="middle" x="711.5" y="-335.3" font-family="Times,serif" font-size="14.00" fill="#0058ad">r 1088 nil</text>
<polyline fill="none" stroke="#0058ad" points="754.5,-324.5 754.5,-353.5 "/>
<text text-anchor="middle" x="796" y="-335.3" font-family="Times,serif" font-size="14.00" fill="#0058ad">w 1091 5</text>
<polyline fill="none" stroke="#0058ad" points="837.5,-324.5 837.5,-353.5 "/>
<text text-anchor="middle" x="879" y="-335.3" font-family="Times,serif" font-size="14.00" fill="#0058ad">w 1091 6</text>
</g>
<!-- T28506&#45;&gt;T28454 -->
<g id="edge13" class="edge">
<title>T28506:f1&#45;&gt;T28454:f2</title>
<path fill="none" stroke="#5b00c0" d="M711,-324C711,-305.23 711,-298.12 711,-283.35"/>
<polygon fill="#5b00c0" stroke="#5b00c0" points="714.5,-283 711,-273 707.5,-283 714.5,-283"/>
<text text-anchor="middle" x="720.5" y="-294.8" font-family="Times,serif" font-size="14.00" fill="#5b00c0">rw</text>
</g>
<!-- T28479 -->
<g id="node8" class="node">
<title>T28479</title>
<polygon fill="none" stroke="#0058ad" points="1210.5,-0.5 1210.5,-29.5 1459.5,-29.5 1459.5,-0.5 1210.5,-0.5"/>
<text text-anchor="middle" x="1253.5" y="-11.3" font-family="Times,serif" font-size="14.00" fill="#0058ad">r 1090 nil</text>
<polyline fill="none" stroke="#0058ad" points="1296.5,-0.5 1296.5,-29.5 "/>
<text text-anchor="middle" x="1339.5" y="-11.3" font-family="Times,serif" font-size="14.00" fill="#0058ad">r 1090 nil</text>
<polyline fill="none" stroke="#0058ad" points="1382.5,-0.5 1382.5,-29.5 "/>
<text text-anchor="middle" x="1421" y="-11.3" font-family="Times,serif" font-size="14.00" fill="#0058ad">r 1089 9</text>
</g>
<!-- T28479&#45;&gt;T28481 -->
<g id="edge14" class="edge">
<title>T28479:f0&#45;&gt;T28481:f0</title>
<path fill="none" stroke="#5b00c0" d="M1253,-30C1253,-185.67 1218,-222.83 1218,-378.5 1218,-502 1218,-502 1218,-502 1218,-525.45 1205.86,-528.76 1194,-549 1191.57,-553.15 1188.57,-555.24 1186.18,-557.51"/>
<polygon fill="#5b00c0" stroke="#5b00c0" points="1182.82,-556.44 1182,-567 1189.23,-559.26 1182.82,-556.44"/>
<text text-anchor="middle" x="1231.5" y="-294.8" font-family="Times,serif" font-size="14.00" fill="#5b00c0">rw</text>
</g>
<!-- T28459&#45;&gt;T28454 -->
<g id="edge15" class="edge">
<title>T28459:f3&#45;&gt;T28454:f2</title>
<path fill="none" stroke="#5b00c0" d="M787,-30C787,-69.4 805.5,-75.7 823,-111 834.48,-134.17 844.58,-136.95 851,-162 854.31,-174.92 854.73,-179.2 851,-192 846.14,-208.69 844.57,-215.52 830,-225 810.74,-237.54 736.7,-222.07 716.26,-234.44"/>
<polygon fill="#5b00c0" stroke="#5b00c0" points="713.25,-232.65 711,-243 719.22,-236.31 713.25,-232.65"/>
<text text-anchor="middle" x="853.5" y="-132.8" font-family="Times,serif" font-size="14.00" fill="#5b00c0">rw</text>
</g>
<!-- T28499&#45;&gt;T28454 -->
<g id="edge16" class="edge">
<title>T28499:f2&#45;&gt;T28454:f2</title>
<path fill="none" stroke="#5b00c0" d="M545,-405C545,-368.02 539.24,-351.46 564,-324 584.71,-301.03 686,-306.01 707.13,-282.57"/>
<polygon fill="#5b00c0" stroke="#5b00c0" points="710.5,-283.58 711,-273 704.01,-280.96 710.5,-283.58"/>
<text text-anchor="middle" x="573.5" y="-335.3" font-family="Times,serif" font-size="14.00" fill="#5b00c0">rw</text>
</g>
<!-- T28499&#45;&gt;T28506 -->
<g id="edge17" class="edge">
<title>T28499:f3&#45;&gt;T28506:f0</title>
<path fill="none" stroke="#c000a5" d="M630,-405C630,-386.23 630,-379.12 630,-364.35"/>
<polygon fill="#c000a5" stroke="#c000a5" points="633.5,-364 630,-354 626.5,-364 633.5,-364"/>
<text text-anchor="middle" x="639.5" y="-375.8" font-family="Times,serif" font-size="14.00" fill="#c000a5">wr</text>
</g>
<!-- T28441&#45;&gt;T28454 -->
<g id="edge23" class="edge">
<title>T28441:f1&#45;&gt;T28454:f3</title>
<path fill="none" stroke="#5b00c0" d="M525,-192C525,-213.76 698.95,-204.5 720,-210 751.03,-218.11 785.49,-209.39 792.65,-232.82"/>
<polygon fill="#5b00c0" stroke="#5b00c0" points="789.22,-233.55 794,-243 796.16,-232.63 789.22,-233.55"/>
<text text-anchor="middle" x="796.5" y="-213.8" font-family="Times,serif" font-size="14.00" fill="#5b00c0">rw</text>
</g>
<!-- T28441&#45;&gt;T28489 -->
<g id="edge18" class="edge">
<title>T28441:f1&#45;&gt;T28489:f0</title>
<path fill="none" stroke="#5b00c0" d="M525,-162C525,-146.52 262.36,-145.91 247,-144 210.67,-139.48 202.11,-135.05 166,-129 143.04,-125.15 70.29,-134.63 50.83,-119.94"/>
<polygon fill="#5b00c0" stroke="#5b00c0" points="53.83,-118.14 46,-111 47.67,-121.46 53.83,-118.14"/>
<text text-anchor="middle" x="256.5" y="-132.8" font-family="Times,serif" font-size="14.00" fill="#5b00c0">rw</text>
</g>
<!-- T28441&#45;&gt;T28455 -->
<g id="edge22" class="edge">
<title>T28441:f1&#45;&gt;T28455:f1</title>
<path fill="none" stroke="#5b00c0" d="M525,-162C525,-143.23 525,-136.12 525,-121.35"/>
<polygon fill="#5b00c0" stroke="#5b00c0" points="528.5,-121 525,-111 521.5,-121 528.5,-121"/>
<text text-anchor="middle" x="534.5" y="-132.8" font-family="Times,serif" font-size="14.00" fill="#5b00c0">rw</text>
</g>
<!-- T28441&#45;&gt;T28491 -->
<g id="edge20" class="edge">
<title>T28441:f1&#45;&gt;T28491:f1</title>
<path fill="none" stroke="#5b00c0" d="M525,-162C525,-126.16 404.82,-125.39 372,-111 318.99,-87.75 312.56,-67.34 258,-48 239.95,-41.6 180.98,-49.34 162.55,-38.47"/>
<polygon fill="#5b00c0" stroke="#5b00c0" points="165.41,-36.44 157,-30 159.56,-40.28 165.41,-36.44"/>
<text text-anchor="middle" x="381.5" y="-92.3" font-family="Times,serif" font-size="14.00" fill="#5b00c0">rw</text>
</g>
<!-- T28441&#45;&gt;T28459 -->
<g id="edge21" class="edge">
<title>T28441:f1&#45;&gt;T28459:f2</title>
<path fill="none" stroke="#5b00c0" d="M525,-162C525,-159.32 660.07,-63.48 694.89,-36.78"/>
<polygon fill="#5b00c0" stroke="#5b00c0" points="697.58,-39.1 703,-30 693.08,-33.73 697.58,-39.1"/>
<text text-anchor="middle" x="643.5" y="-92.3" font-family="Times,serif" font-size="14.00" fill="#5b00c0">rw</text>
</g>
<!-- T28441&#45;&gt;T28471 -->
<g id="edge19" class="edge">
<title>T28441:f1&#45;&gt;T28471:f3</title>
<path fill="none" stroke="#5b00c0" d="M525,-162C525,-134.15 748.61,-152.89 775,-144 786.57,-140.1 786.41,-132.81 798,-129 812.83,-124.12 1052.62,-127.52 1102.11,-115.73"/>
<polygon fill="#5b00c0" stroke="#5b00c0" points="1103.81,-118.79 1111,-111 1100.53,-112.61 1103.81,-118.79"/>
<text text-anchor="middle" x="807.5" y="-132.8" font-family="Times,serif" font-size="14.00" fill="#5b00c0">rw</text>
</g>
<!-- T28471&#45;&gt;T28481 -->
<g id="edge26" class="edge">
<title>T28471:f3&#45;&gt;T28481:f1</title>
<path fill="none" stroke="#c000a5" d="M1153,-96C1287.9,-96 1264,-243.6 1264,-378.5 1264,-502 1264,-502 1264,-502 1264,-527.18 1262.48,-535.88 1262.09,-556.81"/>
<polygon fill="#c000a5" stroke="#c000a5" points="1258.59,-556.97 1262,-567 1265.59,-557.03 1258.59,-556.97"/>
<text text-anchor="middle" x="1273.5" y="-335.3" font-family="Times,serif" font-size="14.00" fill="#c000a5">wr</text>
</g>
<!-- T28471&#45;&gt;T28479 -->
<g id="edge24" class="edge">
<title>T28471:f3&#45;&gt;T28479:f2</title>
<path fill="none" stroke="#c000a5" d="M1111,-81C1111,-35.04 1164,-57.34 1209,-48 1229.43,-43.76 1379.01,-51.4 1413.79,-36.99"/>
<polygon fill="#c000a5" stroke="#c000a5" points="1416.25,-39.47 1421,-30 1411.38,-34.45 1416.25,-39.47"/>
<text text-anchor="middle" x="1218.5" y="-51.8" font-family="Times,serif" font-size="14.00" fill="#c000a5">wr</text>
</g>
<!-- T28476 -->
<g id="node13" class="node">
<title>T28476</title>
<polygon fill="none" stroke="#0058ad" points="1029.5,-0.5 1029.5,-29.5 1192.5,-29.5 1192.5,-0.5 1029.5,-0.5"/>
<text text-anchor="middle" x="1068" y="-11.3" font-family="Times,serif" font-size="14.00" fill="#0058ad">r 1089 9</text>
<polyline fill="none" stroke="#0058ad" points="1106.5,-0.5 1106.5,-29.5 "/>
<text text-anchor="middle" x="1149.5" y="-11.3" font-family="Times,serif" font-size="14.00" fill="#0058ad">r 1090 nil</text>
</g>
<!-- T28471&#45;&gt;T28476 -->
<g id="edge25" class="edge">
<title>T28471:f3&#45;&gt;T28476:f0</title>
<path fill="none" stroke="#c000a5" d="M1111,-81C1111,-67.67 1095.84,-72.98 1087,-63 1078.41,-53.3 1071.84,-49.03 1069.23,-39.97"/>
<polygon fill="#c000a5" stroke="#c000a5" points="1072.7,-39.5 1068,-30 1065.75,-40.35 1072.7,-39.5"/>
<text text-anchor="middle" x="1096.5" y="-51.8" font-family="Times,serif" font-size="14.00" fill="#c000a5">wr</text>
</g>
<!-- T28476&#45;&gt;T28481 -->
<g id="edge27" class="edge">
<title>T28476:f1&#45;&gt;T28481:f0</title>
<path fill="none" stroke="#5b00c0" d="M1150,-30C1150,-40.7 1160.79,-38.65 1166,-48 1176.6,-67.04 1180,-73.2 1180,-95 1180,-502 1180,-502 1180,-502 1180,-527.18 1181.52,-535.88 1181.91,-556.81"/>
<polygon fill="#5b00c0" stroke="#5b00c0" points="1178.41,-557.03 1182,-567 1185.41,-556.97 1178.41,-557.03"/>
<text text-anchor="middle" x="1189.5" y="-294.8" font-family="Times,serif" font-size="14.00" fill="#5b00c0">rw</text>
</g>
</g>
</svg>
