<?xml version="1.0" encoding="UTF-8" standalone="no"?>
<!DOCTYPE svg PUBLIC "-//W3C//DTD SVG 1.1//EN"
 "http://www.w3.org/Graphics/SVG/1.1/DTD/svg11.dtd">
<!-- Generated by graphviz version 2.43.0 (0)
 -->
<!-- Title: a_graph Pages: 1 -->
<svg width="307pt" height="200pt"
 viewBox="0.00 0.00 307.00 200.00" xmlns="http://www.w3.org/2000/svg" xmlns:xlink="http://www.w3.org/1999/xlink">
<g id="graph0" class="graph" transform="scale(1 1) rotate(0) translate(4 196)">
<title>a_graph</title>
<polygon fill="white" stroke="transparent" points="-4,4 -4,-196 303,-196 303,4 -4,4"/>
<!-- T17457 -->
<g id="node1" class="node">
<title>T17457</title>
<polygon fill="none" stroke="#0058ad" points="29,-162.5 29,-191.5 186,-191.5 186,-162.5 29,-162.5"/>
<text text-anchor="middle" x="66" y="-173.3" font-family="Times,serif" font-size="14.00" fill="#0058ad">w 651 1</text>
<polyline fill="none" stroke="#0058ad" points="103,-162.5 103,-191.5 "/>
<text text-anchor="middle" x="144.5" y="-173.3" font-family="Times,serif" font-size="14.00" fill="#0058ad">w 602 12</text>
</g>
<!-- T17516 -->
<g id="node3" class="node">
<title>T17516</title>
<polygon fill="none" stroke="#0058ad" points="84.5,-81.5 84.5,-110.5 238.5,-110.5 238.5,-81.5 84.5,-81.5"/>
<text text-anchor="middle" x="123" y="-92.3" font-family="Times,serif" font-size="14.00" fill="#0058ad">r 669 nil</text>
<polyline fill="none" stroke="#0058ad" points="161.5,-81.5 161.5,-110.5 "/>
<text text-anchor="middle" x="200" y="-92.3" font-family="Times,serif" font-size="14.00" fill="#0058ad">r 602 12</text>
</g>
<!-- T17457&#45;&gt;T17516 -->
<g id="edge1" class="edge">
<title>T17457:f1&#45;&gt;T17516:f1</title>
<path fill="none" stroke="#c000a5" d="M187.5,-177C214.01,-177 203.73,-148.61 201.06,-121.34"/>
<polygon fill="#c000a5" stroke="#c000a5" points="204.53,-120.8 200.5,-111 197.54,-121.17 204.53,-120.8"/>
<text text-anchor="middle" x="213" y="-132.8" font-family="Times,serif" font-size="14.00" fill="#c000a5">wr</text>
</g>
<!-- T17493 -->
<g id="node2" class="node">
<title>T17493</title>
<polygon fill="none" stroke="#0058ad" points="0,-0.5 0,-29.5 299,-29.5 299,-0.5 0,-0.5"/>
<text text-anchor="middle" x="37" y="-11.3" font-family="Times,serif" font-size="14.00" fill="#0058ad">w 669 2</text>
<polyline fill="none" stroke="#0058ad" points="74,-0.5 74,-29.5 "/>
<text text-anchor="middle" x="112.5" y="-11.3" font-family="Times,serif" font-size="14.00" fill="#0058ad">r 651 nil</text>
<polyline fill="none" stroke="#0058ad" points="151,-0.5 151,-29.5 "/>
<text text-anchor="middle" x="188" y="-11.3" font-family="Times,serif" font-size="14.00" fill="#0058ad">w 671 3</text>
<polyline fill="none" stroke="#0058ad" points="225,-0.5 225,-29.5 "/>
<text text-anchor="middle" x="262" y="-11.3" font-family="Times,serif" font-size="14.00" fill="#0058ad">w 671 4</text>
</g>
<!-- T17493&#45;&gt;T17457 -->
<g id="edge2" class="edge">
<title>T17493:f1&#45;&gt;T17457:f0</title>
<path fill="none" stroke="#5b00c0" d="M112.5,-30C112.5,-54.04 76.82,-29.48 61.5,-48 31.4,-84.4 60.86,-107.92 65.02,-151.96"/>
<polygon fill="#5b00c0" stroke="#5b00c0" points="61.53,-152.18 65.5,-162 68.52,-151.85 61.53,-152.18"/>
<text text-anchor="middle" x="64" y="-92.3" font-family="Times,serif" font-size="14.00" fill="#5b00c0">rw</text>
</g>
<!-- T17516&#45;&gt;T17493 -->
<g id="edge3" class="edge">
<title>T17516:f0&#45;&gt;T17493:f0</title>
<path fill="none" stroke="#5b00c0" d="M122.5,-81C122.5,-71.84 64.08,-50.68 43.54,-37.3"/>
<polygon fill="#5b00c0" stroke="#5b00c0" points="45.96,-34.77 36.5,-30 40.92,-39.63 45.96,-34.77"/>
<text text-anchor="middle" x="104" y="-51.8" font-family="Times,serif" font-size="14.00" fill="#5b00c0">rw</text>
</g>
</g>
</svg>
