<?xml version="1.0" encoding="UTF-8" standalone="no"?>
<!DOCTYPE svg PUBLIC "-//W3C//DTD SVG 1.1//EN"
 "http://www.w3.org/Graphics/SVG/1.1/DTD/svg11.dtd">
<!-- Generated by graphviz version 2.43.0 (0)
 -->
<!-- Title: a_graph Pages: 1 -->
<svg width="355pt" height="119pt"
 viewBox="0.00 0.00 355.00 119.00" xmlns="http://www.w3.org/2000/svg" xmlns:xlink="http://www.w3.org/1999/xlink">
<g id="graph0" class="graph" transform="scale(1 1) rotate(0) translate(4 115)">
<title>a_graph</title>
<polygon fill="white" stroke="transparent" points="-4,4 -4,-115 351,-115 351,4 -4,4"/>
<!-- T27985 -->
<g id="node1" class="node">
<title>T27985</title>
<polygon fill="none" stroke="#0058ad" points="95,-81.5 95,-110.5 347,-110.5 347,-81.5 95,-81.5"/>
<text text-anchor="middle" x="138" y="-92.3" font-family="Times,serif" font-size="14.00" fill="#0058ad">r 1068 nil</text>
<polyline fill="none" stroke="#0058ad" points="181,-81.5 181,-110.5 "/>
<text text-anchor="middle" x="222.5" y="-92.3" font-family="Times,serif" font-size="14.00" fill="#0058ad">w 1068 2</text>
<polyline fill="none" stroke="#0058ad" points="264,-81.5 264,-110.5 "/>
<text text-anchor="middle" x="305.5" y="-92.3" font-family="Times,serif" font-size="14.00" fill="#0058ad">w 1068 3</text>
</g>
<!-- T27982 -->
<g id="node2" class="node">
<title>T27982</title>
<polygon fill="none" stroke="#0058ad" points="0,-0.5 0,-29.5 338,-29.5 338,-0.5 0,-0.5"/>
<text text-anchor="middle" x="46" y="-11.3" font-family="Times,serif" font-size="14.00" fill="#0058ad">w 1067 16</text>
<polyline fill="none" stroke="#0058ad" points="92,-0.5 92,-29.5 "/>
<text text-anchor="middle" x="130.5" y="-11.3" font-family="Times,serif" font-size="14.00" fill="#0058ad">r 1064 9</text>
<polyline fill="none" stroke="#0058ad" points="169,-0.5 169,-29.5 "/>
<text text-anchor="middle" x="212" y="-11.3" font-family="Times,serif" font-size="14.00" fill="#0058ad">r 1068 nil</text>
<polyline fill="none" stroke="#0058ad" points="255,-0.5 255,-29.5 "/>
<text text-anchor="middle" x="296.5" y="-11.3" font-family="Times,serif" font-size="14.00" fill="#0058ad">w 1068 1</text>
</g>
<!-- T27985&#45;&gt;T27982 -->
<g id="edge1" class="edge">
<title>T27985:f0&#45;&gt;T27982:f3</title>
<path fill="none" stroke="#5b00c0" d="M138,-81C138,-35.88 190.96,-61.54 234,-48 257.66,-40.56 286.71,-53.86 294.81,-39.98"/>
<polygon fill="#5b00c0" stroke="#5b00c0" points="298.28,-40.52 297,-30 291.44,-39.02 298.28,-40.52"/>
<text text-anchor="middle" x="243.5" y="-51.8" font-family="Times,serif" font-size="14.00" fill="#5b00c0">rw</text>
</g>
<!-- T27982&#45;&gt;T27985 -->
<g id="edge2" class="edge">
<title>T27982:f2&#45;&gt;T27985:f2</title>
<path fill="none" stroke="#5b00c0" d="M212,-30C212,-49.9 235.4,-38.72 253,-48 273.9,-59.02 297.64,-55.08 304.22,-70.8"/>
<polygon fill="#5b00c0" stroke="#5b00c0" points="300.84,-71.75 306,-81 307.73,-70.55 300.84,-71.75"/>
<text text-anchor="middle" x="306.5" y="-51.8" font-family="Times,serif" font-size="14.00" fill="#5b00c0">rw</text>
</g>
</g>
</svg>
