<?xml version="1.0" encoding="UTF-8" standalone="no"?>
<!DOCTYPE svg PUBLIC "-//W3C//DTD SVG 1.1//EN"
 "http://www.w3.org/Graphics/SVG/1.1/DTD/svg11.dtd">
<!-- Generated by graphviz version 2.43.0 (0)
 -->
<!-- Title: a_graph Pages: 1 -->
<svg width="319pt" height="119pt"
 viewBox="0.00 0.00 319.00 119.00" xmlns="http://www.w3.org/2000/svg" xmlns:xlink="http://www.w3.org/1999/xlink">
<g id="graph0" class="graph" transform="scale(1 1) rotate(0) translate(4 115)">
<title>a_graph</title>
<polygon fill="white" stroke="transparent" points="-4,4 -4,-115 315,-115 315,4 -4,4"/>
<!-- T9097 -->
<g id="node1" class="node">
<title>T9097</title>
<polygon fill="none" stroke="#0058ad" points="78,-81.5 78,-110.5 303,-110.5 303,-81.5 78,-81.5"/>
<text text-anchor="middle" x="115" y="-92.3" font-family="Times,serif" font-size="14.00" fill="#0058ad">w 348 2</text>
<polyline fill="none" stroke="#0058ad" points="152,-81.5 152,-110.5 "/>
<text text-anchor="middle" x="190.5" y="-92.3" font-family="Times,serif" font-size="14.00" fill="#0058ad">r 349 nil</text>
<polyline fill="none" stroke="#0058ad" points="229,-81.5 229,-110.5 "/>
<text text-anchor="middle" x="266" y="-92.3" font-family="Times,serif" font-size="14.00" fill="#0058ad">w 349 2</text>
</g>
<!-- T9096 -->
<g id="node2" class="node">
<title>T9096</title>
<polygon fill="none" stroke="#0058ad" points="0,-0.5 0,-29.5 311,-29.5 311,-0.5 0,-0.5"/>
<text text-anchor="middle" x="38.5" y="-11.3" font-family="Times,serif" font-size="14.00" fill="#0058ad">r 347 15</text>
<polyline fill="none" stroke="#0058ad" points="77,-0.5 77,-29.5 "/>
<text text-anchor="middle" x="118.5" y="-11.3" font-family="Times,serif" font-size="14.00" fill="#0058ad">w 335 12</text>
<polyline fill="none" stroke="#0058ad" points="160,-0.5 160,-29.5 "/>
<text text-anchor="middle" x="198.5" y="-11.3" font-family="Times,serif" font-size="14.00" fill="#0058ad">r 349 nil</text>
<polyline fill="none" stroke="#0058ad" points="237,-0.5 237,-29.5 "/>
<text text-anchor="middle" x="274" y="-11.3" font-family="Times,serif" font-size="14.00" fill="#0058ad">w 349 1</text>
</g>
<!-- T9097&#45;&gt;T9096 -->
<g id="edge1" class="edge">
<title>T9097:f1&#45;&gt;T9096:f3</title>
<path fill="none" stroke="#5b00c0" d="M190.5,-81C190.5,-62.33 201.11,-58.58 216.5,-48 234.92,-35.34 262.61,-49.81 271.58,-39.83"/>
<polygon fill="#5b00c0" stroke="#5b00c0" points="275.01,-40.58 274.5,-30 268.3,-38.59 275.01,-40.58"/>
<text text-anchor="middle" x="226" y="-51.8" font-family="Times,serif" font-size="14.00" fill="#5b00c0">rw</text>
</g>
<!-- T9096&#45;&gt;T9097 -->
<g id="edge2" class="edge">
<title>T9096:f2&#45;&gt;T9097:f2</title>
<path fill="none" stroke="#5b00c0" d="M198.5,-30C198.5,-48.29 220.77,-37.16 235.5,-48 248.41,-57.51 260.43,-60.04 264.78,-70.86"/>
<polygon fill="#5b00c0" stroke="#5b00c0" points="261.38,-71.73 266.5,-81 268.28,-70.56 261.38,-71.73"/>
<text text-anchor="middle" x="267" y="-51.8" font-family="Times,serif" font-size="14.00" fill="#5b00c0">rw</text>
</g>
</g>
</svg>
