<?xml version="1.0" encoding="UTF-8" standalone="no"?>
<!DOCTYPE svg PUBLIC "-//W3C//DTD SVG 1.1//EN"
 "http://www.w3.org/Graphics/SVG/1.1/DTD/svg11.dtd">
<!-- Generated by graphviz version 2.43.0 (0)
 -->
<!-- Title: a_graph Pages: 1 -->
<svg width="354pt" height="119pt"
 viewBox="0.00 0.00 354.00 119.00" xmlns="http://www.w3.org/2000/svg" xmlns:xlink="http://www.w3.org/1999/xlink">
<g id="graph0" class="graph" transform="scale(1 1) rotate(0) translate(4 115)">
<title>a_graph</title>
<polygon fill="white" stroke="transparent" points="-4,4 -4,-115 350,-115 350,4 -4,4"/>
<!-- T13507 -->
<g id="node1" class="node">
<title>T13507</title>
<polygon fill="none" stroke="#0058ad" points="0,-81.5 0,-110.5 219,-110.5 219,-81.5 0,-81.5"/>
<text text-anchor="middle" x="34" y="-92.3" font-family="Times,serif" font-size="14.00" fill="#0058ad">r 516 6</text>
<polyline fill="none" stroke="#0058ad" points="68,-81.5 68,-110.5 "/>
<text text-anchor="middle" x="106.5" y="-92.3" font-family="Times,serif" font-size="14.00" fill="#0058ad">r 518 nil</text>
<polyline fill="none" stroke="#0058ad" points="145,-81.5 145,-110.5 "/>
<text text-anchor="middle" x="182" y="-92.3" font-family="Times,serif" font-size="14.00" fill="#0058ad">w 518 1</text>
</g>
<!-- T13509 -->
<g id="node2" class="node">
<title>T13509</title>
<polygon fill="none" stroke="#0058ad" points="59,-0.5 59,-29.5 346,-29.5 346,-0.5 59,-0.5"/>
<text text-anchor="middle" x="97.5" y="-11.3" font-family="Times,serif" font-size="14.00" fill="#0058ad">r 518 nil</text>
<polyline fill="none" stroke="#0058ad" points="136,-0.5 136,-29.5 "/>
<text text-anchor="middle" x="173" y="-11.3" font-family="Times,serif" font-size="14.00" fill="#0058ad">w 518 2</text>
<polyline fill="none" stroke="#0058ad" points="210,-0.5 210,-29.5 "/>
<text text-anchor="middle" x="244" y="-11.3" font-family="Times,serif" font-size="14.00" fill="#0058ad">r 516 4</text>
<polyline fill="none" stroke="#0058ad" points="278,-0.5 278,-29.5 "/>
<text text-anchor="middle" x="312" y="-11.3" font-family="Times,serif" font-size="14.00" fill="#0058ad">r 516 4</text>
</g>
<!-- T13507&#45;&gt;T13509 -->
<g id="edge1" class="edge">
<title>T13507:f1&#45;&gt;T13509:f1</title>
<path fill="none" stroke="#5b00c0" d="M106.5,-81C106.5,-62.33 117.79,-59.49 132.5,-48 144.02,-39 160.76,-44.34 168.41,-39.35"/>
<polygon fill="#5b00c0" stroke="#5b00c0" points="171.7,-40.56 172.5,-30 165.29,-37.76 171.7,-40.56"/>
<text text-anchor="middle" x="142" y="-51.8" font-family="Times,serif" font-size="14.00" fill="#5b00c0">rw</text>
</g>
<!-- T13509&#45;&gt;T13507 -->
<g id="edge2" class="edge">
<title>T13509:f0&#45;&gt;T13507:f2</title>
<path fill="none" stroke="#5b00c0" d="M97.5,-30C97.5,-55.3 130.19,-34.37 151.5,-48 165.14,-56.73 176.9,-59.75 180.98,-71.08"/>
<polygon fill="#5b00c0" stroke="#5b00c0" points="177.52,-71.65 182.5,-81 184.44,-70.58 177.52,-71.65"/>
<text text-anchor="middle" x="184" y="-51.8" font-family="Times,serif" font-size="14.00" fill="#5b00c0">rw</text>
</g>
</g>
</svg>
