<?xml version="1.0" encoding="UTF-8" standalone="no"?>
<!DOCTYPE svg PUBLIC "-//W3C//DTD SVG 1.1//EN"
 "http://www.w3.org/Graphics/SVG/1.1/DTD/svg11.dtd">
<!-- Generated by graphviz version 2.43.0 (0)
 -->
<!-- Title: a_graph Pages: 1 -->
<svg width="1261pt" height="605pt"
 viewBox="0.00 0.00 1261.00 605.00" xmlns="http://www.w3.org/2000/svg" xmlns:xlink="http://www.w3.org/1999/xlink">
<g id="graph0" class="graph" transform="scale(1 1) rotate(0) translate(4 601)">
<title>a_graph</title>
<polygon fill="white" stroke="transparent" points="-4,4 -4,-601 1257,-601 1257,4 -4,4"/>
<!-- T23065 -->
<g id="node1" class="node">
<title>T23065</title>
<polygon fill="none" stroke="#0058ad" points="0,-567.5 0,-596.5 299,-596.5 299,-567.5 0,-567.5"/>
<text text-anchor="middle" x="37" y="-578.3" font-family="Times,serif" font-size="14.00" fill="#0058ad">w 873 2</text>
<polyline fill="none" stroke="#0058ad" points="74,-567.5 74,-596.5 "/>
<text text-anchor="middle" x="112.5" y="-578.3" font-family="Times,serif" font-size="14.00" fill="#0058ad">r 874 nil</text>
<polyline fill="none" stroke="#0058ad" points="151,-567.5 151,-596.5 "/>
<text text-anchor="middle" x="188" y="-578.3" font-family="Times,serif" font-size="14.00" fill="#0058ad">w 877 2</text>
<polyline fill="none" stroke="#0058ad" points="225,-567.5 225,-596.5 "/>
<text text-anchor="middle" x="262" y="-578.3" font-family="Times,serif" font-size="14.00" fill="#0058ad">w 874 5</text>
</g>
<!-- T22983 -->
<g id="node13" class="node">
<title>T22983</title>
<polygon fill="none" stroke="#0058ad" points="75.5,-486.5 75.5,-515.5 149.5,-515.5 149.5,-486.5 75.5,-486.5"/>
<text text-anchor="middle" x="112.5" y="-497.3" font-family="Times,serif" font-size="14.00" fill="#0058ad">w 874 1</text>
</g>
<!-- T23065&#45;&gt;T22983 -->
<g id="edge1" class="edge">
<title>T23065:f1&#45;&gt;T22983:f0</title>
<path fill="none" stroke="#5b00c0" d="M112.5,-567C112.5,-553.35 112.5,-538.12 112.5,-525.73"/>
<polygon fill="#5b00c0" stroke="#5b00c0" points="116,-525.68 112.5,-515.68 109,-525.68 116,-525.68"/>
<text text-anchor="middle" x="122" y="-537.8" font-family="Times,serif" font-size="14.00" fill="#5b00c0">rw</text>
</g>
<!-- T23072 -->
<g id="node2" class="node">
<title>T23072</title>
<polygon fill="none" stroke="#0058ad" points="600.5,-81.5 600.5,-110.5 754.5,-110.5 754.5,-81.5 600.5,-81.5"/>
<text text-anchor="middle" x="639" y="-92.3" font-family="Times,serif" font-size="14.00" fill="#0058ad">r 878 nil</text>
<polyline fill="none" stroke="#0058ad" points="677.5,-81.5 677.5,-110.5 "/>
<text text-anchor="middle" x="716" y="-92.3" font-family="Times,serif" font-size="14.00" fill="#0058ad">r 875 10</text>
</g>
<!-- T23060 -->
<g id="node6" class="node">
<title>T23060</title>
<polygon fill="none" stroke="#0058ad" points="534,-0.5 534,-29.5 685,-29.5 685,-0.5 534,-0.5"/>
<text text-anchor="middle" x="572.5" y="-11.3" font-family="Times,serif" font-size="14.00" fill="#0058ad">r 874 nil</text>
<polyline fill="none" stroke="#0058ad" points="611,-0.5 611,-29.5 "/>
<text text-anchor="middle" x="648" y="-11.3" font-family="Times,serif" font-size="14.00" fill="#0058ad">w 878 1</text>
</g>
<!-- T23072&#45;&gt;T23060 -->
<g id="edge2" class="edge">
<title>T23072:f0&#45;&gt;T23060:f1</title>
<path fill="none" stroke="#5b00c0" d="M638.5,-81C638.5,-61.69 645.49,-55.17 647.78,-40.05"/>
<polygon fill="#5b00c0" stroke="#5b00c0" points="651.28,-40.22 648.5,-30 644.3,-39.72 651.28,-40.22"/>
<text text-anchor="middle" x="655" y="-51.8" font-family="Times,serif" font-size="14.00" fill="#5b00c0">rw</text>
</g>
<!-- T22995 -->
<g id="node3" class="node">
<title>T22995</title>
<polygon fill="none" stroke="#0058ad" points="312.5,-405.5 312.5,-434.5 540.5,-434.5 540.5,-405.5 312.5,-405.5"/>
<text text-anchor="middle" x="354" y="-416.3" font-family="Times,serif" font-size="14.00" fill="#0058ad">w 869 14</text>
<polyline fill="none" stroke="#0058ad" points="395.5,-405.5 395.5,-434.5 "/>
<text text-anchor="middle" x="429.5" y="-416.3" font-family="Times,serif" font-size="14.00" fill="#0058ad">r 874 1</text>
<polyline fill="none" stroke="#0058ad" points="463.5,-405.5 463.5,-434.5 "/>
<text text-anchor="middle" x="502" y="-416.3" font-family="Times,serif" font-size="14.00" fill="#0058ad">r 875 nil</text>
</g>
<!-- T23051 -->
<g id="node5" class="node">
<title>T23051</title>
<polygon fill="none" stroke="#0058ad" points="847,-162.5 847,-191.5 1170,-191.5 1170,-162.5 847,-162.5"/>
<text text-anchor="middle" x="888.5" y="-173.3" font-family="Times,serif" font-size="14.00" fill="#0058ad">w 875 10</text>
<polyline fill="none" stroke="#0058ad" points="930,-162.5 930,-191.5 "/>
<text text-anchor="middle" x="967" y="-173.3" font-family="Times,serif" font-size="14.00" fill="#0058ad">w 877 1</text>
<polyline fill="none" stroke="#0058ad" points="1004,-162.5 1004,-191.5 "/>
<text text-anchor="middle" x="1045.5" y="-173.3" font-family="Times,serif" font-size="14.00" fill="#0058ad">w 876 15</text>
<polyline fill="none" stroke="#0058ad" points="1087,-162.5 1087,-191.5 "/>
<text text-anchor="middle" x="1128.5" y="-173.3" font-family="Times,serif" font-size="14.00" fill="#0058ad">w 876 16</text>
</g>
<!-- T22995&#45;&gt;T23051 -->
<g id="edge3" class="edge">
<title>T22995:f2&#45;&gt;T23051:f0</title>
<path fill="none" stroke="#5b00c0" d="M541.5,-420C559.38,-420 556.94,-403.2 564.5,-387 583.19,-346.94 561.77,-324.6 590.5,-291 668.97,-199.23 718.59,-178.13 835.48,-177.05"/>
<polygon fill="#5b00c0" stroke="#5b00c0" points="835.52,-180.55 845.5,-177 835.48,-173.55 835.52,-180.55"/>
<text text-anchor="middle" x="600" y="-294.8" font-family="Times,serif" font-size="14.00" fill="#5b00c0">rw</text>
</g>
<!-- T23002 -->
<g id="node9" class="node">
<title>T23002</title>
<polygon fill="none" stroke="#0058ad" points="393,-162.5 393,-191.5 544,-191.5 544,-162.5 393,-162.5"/>
<text text-anchor="middle" x="430" y="-173.3" font-family="Times,serif" font-size="14.00" fill="#0058ad">w 875 5</text>
<polyline fill="none" stroke="#0058ad" points="467,-162.5 467,-191.5 "/>
<text text-anchor="middle" x="505.5" y="-173.3" font-family="Times,serif" font-size="14.00" fill="#0058ad">r 872 12</text>
</g>
<!-- T22995&#45;&gt;T23002 -->
<g id="edge4" class="edge">
<title>T22995:f2&#45;&gt;T23002:f0</title>
<path fill="none" stroke="#5b00c0" d="M541.5,-420C564.94,-420 538.2,-226.44 521.5,-210 494.82,-183.74 441.82,-223.77 431.33,-201.95"/>
<polygon fill="#5b00c0" stroke="#5b00c0" points="434.75,-201.2 429.5,-192 427.86,-202.47 434.75,-201.2"/>
<text text-anchor="middle" x="554" y="-294.8" font-family="Times,serif" font-size="14.00" fill="#5b00c0">rw</text>
</g>
<!-- T22989 -->
<g id="node11" class="node">
<title>T22989</title>
<polygon fill="none" stroke="#0058ad" points="362,-324.5 362,-353.5 519,-353.5 519,-324.5 362,-324.5"/>
<text text-anchor="middle" x="399" y="-335.3" font-family="Times,serif" font-size="14.00" fill="#0058ad">w 875 1</text>
<polyline fill="none" stroke="#0058ad" points="436,-324.5 436,-353.5 "/>
<text text-anchor="middle" x="477.5" y="-335.3" font-family="Times,serif" font-size="14.00" fill="#0058ad">w 872 10</text>
</g>
<!-- T22995&#45;&gt;T22989 -->
<g id="edge5" class="edge">
<title>T22995:f2&#45;&gt;T22989:f0</title>
<path fill="none" stroke="#5b00c0" d="M502.5,-405C502.5,-357.54 414.12,-397.99 400.31,-364.27"/>
<polygon fill="#5b00c0" stroke="#5b00c0" points="403.68,-363.24 398.5,-354 396.78,-364.45 403.68,-363.24"/>
<text text-anchor="middle" x="503" y="-375.8" font-family="Times,serif" font-size="14.00" fill="#5b00c0">rw</text>
</g>
<!-- T23041 -->
<g id="node4" class="node">
<title>T23041</title>
<polygon fill="none" stroke="#0058ad" points="94,-162.5 94,-191.5 331,-191.5 331,-162.5 94,-162.5"/>
<text text-anchor="middle" x="132.5" y="-173.3" font-family="Times,serif" font-size="14.00" fill="#0058ad">r 863 12</text>
<polyline fill="none" stroke="#0058ad" points="171,-162.5 171,-191.5 "/>
<text text-anchor="middle" x="209.5" y="-173.3" font-family="Times,serif" font-size="14.00" fill="#0058ad">r 874 nil</text>
<polyline fill="none" stroke="#0058ad" points="248,-162.5 248,-191.5 "/>
<text text-anchor="middle" x="289.5" y="-173.3" font-family="Times,serif" font-size="14.00" fill="#0058ad">w 876 12</text>
</g>
<!-- T23041&#45;&gt;T23065 -->
<g id="edge7" class="edge">
<title>T23041:f1&#45;&gt;T23065:f3</title>
<path fill="none" stroke="#5b00c0" d="M209.5,-192C209.5,-223.82 179.5,-225.18 179.5,-257 179.5,-502 179.5,-502 179.5,-502 179.5,-545.01 249.44,-524.35 260.92,-556.91"/>
<polygon fill="#5b00c0" stroke="#5b00c0" points="257.49,-557.66 262.5,-567 264.41,-556.58 257.49,-557.66"/>
<text text-anchor="middle" x="189" y="-375.8" font-family="Times,serif" font-size="14.00" fill="#5b00c0">rw</text>
</g>
<!-- T23041&#45;&gt;T22983 -->
<g id="edge6" class="edge">
<title>T23041:f1&#45;&gt;T22983:f0</title>
<path fill="none" stroke="#5b00c0" d="M209.5,-192C209.5,-226.28 161.06,-188.33 134.5,-210 116.63,-224.58 112.5,-233.94 112.5,-257 112.5,-421 112.5,-421 112.5,-421 112.5,-439.51 112.5,-460.42 112.5,-476.22"/>
<polygon fill="#5b00c0" stroke="#5b00c0" points="109,-476.26 112.5,-486.26 116,-476.26 109,-476.26"/>
<text text-anchor="middle" x="122" y="-335.3" font-family="Times,serif" font-size="14.00" fill="#5b00c0">rw</text>
</g>
<!-- T23051&#45;&gt;T23072 -->
<g id="edge11" class="edge">
<title>T23051:f0&#45;&gt;T23072:f1</title>
<path fill="none" stroke="#c000a5" d="M845.5,-177C798.72,-177 793.33,-147.04 763.5,-111 761.92,-109.09 761.33,-106.82 760.98,-104.63"/>
<polygon fill="#c000a5" stroke="#c000a5" points="763.82,-102.57 755.5,-96 757.91,-106.32 763.82,-102.57"/>
<text text-anchor="middle" x="796" y="-132.8" font-family="Times,serif" font-size="14.00" fill="#c000a5">wr</text>
</g>
<!-- T23062 -->
<g id="node7" class="node">
<title>T23062</title>
<polygon fill="none" stroke="#0058ad" points="1108,-81.5 1108,-110.5 1253,-110.5 1253,-81.5 1108,-81.5"/>
<text text-anchor="middle" x="1142" y="-92.3" font-family="Times,serif" font-size="14.00" fill="#0058ad">r 877 1</text>
<polyline fill="none" stroke="#0058ad" points="1176,-81.5 1176,-110.5 "/>
<text text-anchor="middle" x="1214.5" y="-92.3" font-family="Times,serif" font-size="14.00" fill="#0058ad">r 878 nil</text>
</g>
<!-- T23051&#45;&gt;T23062 -->
<g id="edge9" class="edge">
<title>T23051:f1&#45;&gt;T23062:f0</title>
<path fill="none" stroke="#c000a5" d="M966.5,-162C966.5,-146.17 1087.92,-121.79 1099.5,-111 1101.27,-109.35 1101.83,-107.17 1102.06,-104.99"/>
<polygon fill="#c000a5" stroke="#c000a5" points="1105.21,-106.52 1106.5,-96 1098.93,-103.42 1105.21,-106.52"/>
<text text-anchor="middle" x="1057" y="-132.8" font-family="Times,serif" font-size="14.00" fill="#c000a5">wr</text>
</g>
<!-- T23053 -->
<g id="node8" class="node">
<title>T23053</title>
<polygon fill="none" stroke="#0058ad" points="772.5,-81.5 772.5,-110.5 926.5,-110.5 926.5,-81.5 772.5,-81.5"/>
<text text-anchor="middle" x="811" y="-92.3" font-family="Times,serif" font-size="14.00" fill="#0058ad">r 878 nil</text>
<polyline fill="none" stroke="#0058ad" points="849.5,-81.5 849.5,-110.5 "/>
<text text-anchor="middle" x="888" y="-92.3" font-family="Times,serif" font-size="14.00" fill="#0058ad">r 875 10</text>
</g>
<!-- T23051&#45;&gt;T23053 -->
<g id="edge8" class="edge">
<title>T23051:f0&#45;&gt;T23053:f1</title>
<path fill="none" stroke="#c000a5" d="M888.5,-162C888.5,-143.23 888.5,-136.12 888.5,-121.35"/>
<polygon fill="#c000a5" stroke="#c000a5" points="892,-121 888.5,-111 885,-121 892,-121"/>
<text text-anchor="middle" x="898" y="-132.8" font-family="Times,serif" font-size="14.00" fill="#c000a5">wr</text>
</g>
<!-- T23067 -->
<g id="node10" class="node">
<title>T23067</title>
<polygon fill="none" stroke="#0058ad" points="945,-81.5 945,-110.5 1090,-110.5 1090,-81.5 945,-81.5"/>
<text text-anchor="middle" x="979" y="-92.3" font-family="Times,serif" font-size="14.00" fill="#0058ad">r 877 1</text>
<polyline fill="none" stroke="#0058ad" points="1013,-81.5 1013,-110.5 "/>
<text text-anchor="middle" x="1051.5" y="-92.3" font-family="Times,serif" font-size="14.00" fill="#0058ad">r 878 nil</text>
</g>
<!-- T23051&#45;&gt;T23067 -->
<g id="edge10" class="edge">
<title>T23051:f1&#45;&gt;T23067:f0</title>
<path fill="none" stroke="#c000a5" d="M966.5,-162C966.5,-142.53 974.89,-136.25 977.64,-121.1"/>
<polygon fill="#c000a5" stroke="#c000a5" points="981.14,-121.26 978.5,-111 974.16,-120.67 981.14,-121.26"/>
<text text-anchor="middle" x="984" y="-132.8" font-family="Times,serif" font-size="14.00" fill="#c000a5">wr</text>
</g>
<!-- T23060&#45;&gt;T23065 -->
<g id="edge13" class="edge">
<title>T23060:f0&#45;&gt;T23065:f3</title>
<path fill="none" stroke="#5b00c0" d="M572.5,-30C572.5,-169.38 631.5,-198.62 631.5,-338 631.5,-502 631.5,-502 631.5,-502 631.5,-574.57 396.69,-581.53 310.69,-581.97"/>
<polygon fill="#5b00c0" stroke="#5b00c0" points="310.49,-578.47 300.5,-582 310.51,-585.47 310.49,-578.47"/>
<text text-anchor="middle" x="639" y="-294.8" font-family="Times,serif" font-size="14.00" fill="#5b00c0">rw</text>
</g>
<!-- T23060&#45;&gt;T22983 -->
<g id="edge12" class="edge">
<title>T23060:f0&#45;&gt;T22983:f0</title>
<path fill="none" stroke="#5b00c0" d="M532.5,-15C479.86,-15 65.5,-42.36 65.5,-95 65.5,-421 65.5,-421 65.5,-421 65.5,-442.61 78.41,-463.54 90.69,-478.57"/>
<polygon fill="#5b00c0" stroke="#5b00c0" points="88.18,-481.01 97.37,-486.28 93.47,-476.43 88.18,-481.01"/>
<text text-anchor="middle" x="75" y="-254.3" font-family="Times,serif" font-size="14.00" fill="#5b00c0">rw</text>
</g>
<!-- T23062&#45;&gt;T23060 -->
<g id="edge14" class="edge">
<title>T23062:f1&#45;&gt;T23060:f1</title>
<path fill="none" stroke="#5b00c0" d="M1214.5,-81C1214.5,-28.34 963.46,-15.33 696.79,-15.01"/>
<polygon fill="#5b00c0" stroke="#5b00c0" points="696.5,-11.51 686.5,-15 696.5,-18.51 696.5,-11.51"/>
<text text-anchor="middle" x="1209" y="-51.8" font-family="Times,serif" font-size="14.00" fill="#5b00c0">rw</text>
</g>
<!-- T23053&#45;&gt;T23060 -->
<g id="edge15" class="edge">
<title>T23053:f0&#45;&gt;T23060:f1</title>
<path fill="none" stroke="#5b00c0" d="M771.5,-96C763.94,-96 768.23,-86.89 763.5,-81 737.61,-48.73 732.35,-20.09 696.79,-15.61"/>
<polygon fill="#5b00c0" stroke="#5b00c0" points="696.69,-12.1 686.5,-15 696.28,-19.08 696.69,-12.1"/>
<text text-anchor="middle" x="759" y="-51.8" font-family="Times,serif" font-size="14.00" fill="#5b00c0">rw</text>
</g>
<!-- T23057 -->
<g id="node14" class="node">
<title>T23057</title>
<polygon fill="none" stroke="#0058ad" points="359,-81.5 359,-110.5 504,-110.5 504,-81.5 359,-81.5"/>
<text text-anchor="middle" x="397.5" y="-92.3" font-family="Times,serif" font-size="14.00" fill="#0058ad">r 878 nil</text>
<polyline fill="none" stroke="#0058ad" points="436,-81.5 436,-110.5 "/>
<text text-anchor="middle" x="470" y="-92.3" font-family="Times,serif" font-size="14.00" fill="#0058ad">r 875 5</text>
</g>
<!-- T23002&#45;&gt;T23057 -->
<g id="edge16" class="edge">
<title>T23002:f0&#45;&gt;T23057:f1</title>
<path fill="none" stroke="#c000a5" d="M429.5,-162C429.5,-136.78 460.33,-138.82 468.52,-120.84"/>
<polygon fill="#c000a5" stroke="#c000a5" points="471.96,-121.49 470.5,-111 465.1,-120.11 471.96,-121.49"/>
<text text-anchor="middle" x="471" y="-132.8" font-family="Times,serif" font-size="14.00" fill="#c000a5">wr</text>
</g>
<!-- T23067&#45;&gt;T23060 -->
<g id="edge17" class="edge">
<title>T23067:f1&#45;&gt;T23060:f1</title>
<path fill="none" stroke="#5b00c0" d="M1051.5,-81C1051.5,-42.2 764.55,-17.96 696.53,-15.25"/>
<polygon fill="#5b00c0" stroke="#5b00c0" points="696.59,-11.75 686.5,-15 696.41,-18.75 696.59,-11.75"/>
<text text-anchor="middle" x="1038" y="-51.8" font-family="Times,serif" font-size="14.00" fill="#5b00c0">rw</text>
</g>
<!-- T22997 -->
<g id="node12" class="node">
<title>T22997</title>
<polygon fill="none" stroke="#0058ad" points="208,-243.5 208,-272.5 519,-272.5 519,-243.5 208,-243.5"/>
<text text-anchor="middle" x="246.5" y="-254.3" font-family="Times,serif" font-size="14.00" fill="#0058ad">r 872 11</text>
<polyline fill="none" stroke="#0058ad" points="285,-243.5 285,-272.5 "/>
<text text-anchor="middle" x="326.5" y="-254.3" font-family="Times,serif" font-size="14.00" fill="#0058ad">w 863 12</text>
<polyline fill="none" stroke="#0058ad" points="368,-243.5 368,-272.5 "/>
<text text-anchor="middle" x="402" y="-254.3" font-family="Times,serif" font-size="14.00" fill="#0058ad">r 875 1</text>
<polyline fill="none" stroke="#0058ad" points="436,-243.5 436,-272.5 "/>
<text text-anchor="middle" x="477.5" y="-254.3" font-family="Times,serif" font-size="14.00" fill="#0058ad">w 872 12</text>
</g>
<!-- T22989&#45;&gt;T22997 -->
<g id="edge18" class="edge">
<title>T22989:f0&#45;&gt;T22997:f2</title>
<path fill="none" stroke="#c000a5" d="M398.5,-324C398.5,-305.17 401.24,-298.14 402.19,-283.37"/>
<polygon fill="#c000a5" stroke="#c000a5" points="405.7,-283.1 402.5,-273 398.7,-282.89 405.7,-283.1"/>
<text text-anchor="middle" x="410" y="-294.8" font-family="Times,serif" font-size="14.00" fill="#c000a5">wr</text>
</g>
<!-- T22997&#45;&gt;T23041 -->
<g id="edge20" class="edge">
<title>T22997:f1&#45;&gt;T23041:f0</title>
<path fill="none" stroke="#c000a5" d="M326.5,-243C326.5,-157.68 148.81,-270.61 133.54,-202.33"/>
<polygon fill="#c000a5" stroke="#c000a5" points="136.99,-201.6 132.5,-192 130.02,-202.3 136.99,-201.6"/>
<text text-anchor="middle" x="330" y="-213.8" font-family="Times,serif" font-size="14.00" fill="#c000a5">wr</text>
</g>
<!-- T22997&#45;&gt;T23002 -->
<g id="edge19" class="edge">
<title>T22997:f3&#45;&gt;T23002:f1</title>
<path fill="none" stroke="#c000a5" d="M477.5,-243C477.5,-220.98 497.8,-218.23 503.83,-201.93"/>
<polygon fill="#c000a5" stroke="#c000a5" points="507.3,-202.44 505.5,-192 500.39,-201.28 507.3,-202.44"/>
<text text-anchor="middle" x="508" y="-213.8" font-family="Times,serif" font-size="14.00" fill="#c000a5">wr</text>
</g>
<!-- T22983&#45;&gt;T22995 -->
<g id="edge21" class="edge">
<title>T22983:f0&#45;&gt;T22995:f1</title>
<path fill="none" stroke="#c000a5" d="M147.89,-486.48C148.43,-486.31 148.97,-486.15 149.5,-486 206.8,-469.36 405.17,-495.01 427.46,-444.88"/>
<polygon fill="#c000a5" stroke="#c000a5" points="430.9,-445.5 429.5,-435 424.05,-444.08 430.9,-445.5"/>
<text text-anchor="middle" x="430" y="-456.8" font-family="Times,serif" font-size="14.00" fill="#c000a5">wr</text>
</g>
<!-- T23057&#45;&gt;T23060 -->
<g id="edge22" class="edge">
<title>T23057:f0&#45;&gt;T23060:f1</title>
<path fill="none" stroke="#5b00c0" d="M397.5,-81C397.5,-55.32 601.87,-57.63 641.79,-37.42"/>
<polygon fill="#5b00c0" stroke="#5b00c0" points="644.38,-39.76 648.5,-30 639.19,-35.07 644.38,-39.76"/>
<text text-anchor="middle" x="603" y="-51.8" font-family="Times,serif" font-size="14.00" fill="#5b00c0">rw</text>
</g>
</g>
</svg>
