<?xml version="1.0" encoding="UTF-8" standalone="no"?>
<!DOCTYPE svg PUBLIC "-//W3C//DTD SVG 1.1//EN"
 "http://www.w3.org/Graphics/SVG/1.1/DTD/svg11.dtd">
<!-- Generated by graphviz version 2.43.0 (0)
 -->
<!-- Title: a_graph Pages: 1 -->
<svg width="316pt" height="119pt"
 viewBox="0.00 0.00 316.00 119.00" xmlns="http://www.w3.org/2000/svg" xmlns:xlink="http://www.w3.org/1999/xlink">
<g id="graph0" class="graph" transform="scale(1 1) rotate(0) translate(4 115)">
<title>a_graph</title>
<polygon fill="white" stroke="transparent" points="-4,4 -4,-115 312,-115 312,4 -4,4"/>
<!-- T15735 -->
<g id="node1" class="node">
<title>T15735</title>
<polygon fill="none" stroke="#0058ad" points="0,-81.5 0,-110.5 308,-110.5 308,-81.5 0,-81.5"/>
<text text-anchor="middle" x="38.5" y="-92.3" font-family="Times,serif" font-size="14.00" fill="#0058ad">r 604 nil</text>
<polyline fill="none" stroke="#0058ad" points="77,-81.5 77,-110.5 "/>
<text text-anchor="middle" x="118.5" y="-92.3" font-family="Times,serif" font-size="14.00" fill="#0058ad">w 311 16</text>
<polyline fill="none" stroke="#0058ad" points="160,-81.5 160,-110.5 "/>
<text text-anchor="middle" x="197" y="-92.3" font-family="Times,serif" font-size="14.00" fill="#0058ad">w 604 2</text>
<polyline fill="none" stroke="#0058ad" points="234,-81.5 234,-110.5 "/>
<text text-anchor="middle" x="271" y="-92.3" font-family="Times,serif" font-size="14.00" fill="#0058ad">w 604 3</text>
</g>
<!-- T15731 -->
<g id="node2" class="node">
<title>T15731</title>
<polygon fill="none" stroke="#0058ad" points="9.5,-0.5 9.5,-29.5 296.5,-29.5 296.5,-0.5 9.5,-0.5"/>
<text text-anchor="middle" x="43.5" y="-11.3" font-family="Times,serif" font-size="14.00" fill="#0058ad">r 603 6</text>
<polyline fill="none" stroke="#0058ad" points="77.5,-0.5 77.5,-29.5 "/>
<text text-anchor="middle" x="116" y="-11.3" font-family="Times,serif" font-size="14.00" fill="#0058ad">r 604 nil</text>
<polyline fill="none" stroke="#0058ad" points="154.5,-0.5 154.5,-29.5 "/>
<text text-anchor="middle" x="191.5" y="-11.3" font-family="Times,serif" font-size="14.00" fill="#0058ad">w 604 1</text>
<polyline fill="none" stroke="#0058ad" points="228.5,-0.5 228.5,-29.5 "/>
<text text-anchor="middle" x="262.5" y="-11.3" font-family="Times,serif" font-size="14.00" fill="#0058ad">r 604 1</text>
</g>
<!-- T15735&#45;&gt;T15731 -->
<g id="edge1" class="edge">
<title>T15735:f0&#45;&gt;T15731:f2</title>
<path fill="none" stroke="#5b00c0" d="M38,-81C38,-48.61 162.31,-62.35 187.56,-39.34"/>
<polygon fill="#5b00c0" stroke="#5b00c0" points="190.86,-40.53 192,-30 184.54,-37.53 190.86,-40.53"/>
<text text-anchor="middle" x="176.5" y="-51.8" font-family="Times,serif" font-size="14.00" fill="#5b00c0">rw</text>
</g>
<!-- T15731&#45;&gt;T15735 -->
<g id="edge2" class="edge">
<title>T15731:f1&#45;&gt;T15735:f3</title>
<path fill="none" stroke="#5b00c0" d="M116,-30C116,-46.92 173.9,-42.79 190,-48 223.23,-58.75 262.13,-45.44 269.69,-70.82"/>
<polygon fill="#5b00c0" stroke="#5b00c0" points="266.25,-71.53 271,-81 273.2,-70.64 266.25,-71.53"/>
<text text-anchor="middle" x="274.5" y="-51.8" font-family="Times,serif" font-size="14.00" fill="#5b00c0">rw</text>
</g>
</g>
</svg>
