<?xml version="1.0" encoding="UTF-8" standalone="no"?>
<!DOCTYPE svg PUBLIC "-//W3C//DTD SVG 1.1//EN"
 "http://www.w3.org/Graphics/SVG/1.1/DTD/svg11.dtd">
<!-- Generated by graphviz version 2.43.0 (0)
 -->
<!-- Title: a_graph Pages: 1 -->
<svg width="826pt" height="362pt"
 viewBox="0.00 0.00 825.50 362.00" xmlns="http://www.w3.org/2000/svg" xmlns:xlink="http://www.w3.org/1999/xlink">
<g id="graph0" class="graph" transform="scale(1 1) rotate(0) translate(4 358)">
<title>a_graph</title>
<polygon fill="white" stroke="transparent" points="-4,4 -4,-358 821.5,-358 821.5,4 -4,4"/>
<!-- T29283 -->
<g id="node1" class="node">
<title>T29283</title>
<polygon fill="none" stroke="#0058ad" points="312.5,-324.5 312.5,-353.5 481.5,-353.5 481.5,-324.5 312.5,-324.5"/>
<text text-anchor="middle" x="355.5" y="-335.3" font-family="Times,serif" font-size="14.00" fill="#0058ad">r 1119 nil</text>
<polyline fill="none" stroke="#0058ad" points="398.5,-324.5 398.5,-353.5 "/>
<text text-anchor="middle" x="440" y="-335.3" font-family="Times,serif" font-size="14.00" fill="#0058ad">w 1118 1</text>
</g>
<!-- T29317 -->
<g id="node2" class="node">
<title>T29317</title>
<polygon fill="none" stroke="#0058ad" points="0,-162.5 0,-191.5 326,-191.5 326,-162.5 0,-162.5"/>
<text text-anchor="middle" x="41.5" y="-173.3" font-family="Times,serif" font-size="14.00" fill="#0058ad">w 1119 3</text>
<polyline fill="none" stroke="#0058ad" points="83,-162.5 83,-191.5 "/>
<text text-anchor="middle" x="124.5" y="-173.3" font-family="Times,serif" font-size="14.00" fill="#0058ad">w 1120 3</text>
<polyline fill="none" stroke="#0058ad" points="166,-162.5 166,-191.5 "/>
<text text-anchor="middle" x="207.5" y="-173.3" font-family="Times,serif" font-size="14.00" fill="#0058ad">w 1119 4</text>
<polyline fill="none" stroke="#0058ad" points="249,-162.5 249,-191.5 "/>
<text text-anchor="middle" x="287.5" y="-173.3" font-family="Times,serif" font-size="14.00" fill="#0058ad">r 1119 4</text>
</g>
<!-- T29283&#45;&gt;T29317 -->
<g id="edge1" class="edge">
<title>T29283:f0&#45;&gt;T29317:f2</title>
<path fill="none" stroke="#5b00c0" d="M311,-339C234.65,-339 210.1,-277.43 208.13,-202.21"/>
<polygon fill="#5b00c0" stroke="#5b00c0" points="211.63,-201.95 208,-192 204.63,-202.04 211.63,-201.95"/>
<text text-anchor="middle" x="229.5" y="-254.3" font-family="Times,serif" font-size="14.00" fill="#5b00c0">rw</text>
</g>
<!-- T29321 -->
<g id="node4" class="node">
<title>T29321</title>
<polygon fill="none" stroke="#0058ad" points="183.5,-81.5 183.5,-110.5 426.5,-110.5 426.5,-81.5 183.5,-81.5"/>
<text text-anchor="middle" x="222" y="-92.3" font-family="Times,serif" font-size="14.00" fill="#0058ad">r 1120 3</text>
<polyline fill="none" stroke="#0058ad" points="260.5,-81.5 260.5,-110.5 "/>
<text text-anchor="middle" x="302" y="-92.3" font-family="Times,serif" font-size="14.00" fill="#0058ad">w 1120 5</text>
<polyline fill="none" stroke="#0058ad" points="343.5,-81.5 343.5,-110.5 "/>
<text text-anchor="middle" x="385" y="-92.3" font-family="Times,serif" font-size="14.00" fill="#0058ad">w 1119 5</text>
</g>
<!-- T29283&#45;&gt;T29321 -->
<g id="edge3" class="edge">
<title>T29283:f0&#45;&gt;T29321:f2</title>
<path fill="none" stroke="#5b00c0" d="M355,-324C355,-272.63 324.3,-260.02 336,-210 340.91,-188.99 375.04,-147.4 383.23,-120.97"/>
<polygon fill="#5b00c0" stroke="#5b00c0" points="386.7,-121.46 385,-111 379.81,-120.24 386.7,-121.46"/>
<text text-anchor="middle" x="345.5" y="-213.8" font-family="Times,serif" font-size="14.00" fill="#5b00c0">rw</text>
</g>
<!-- T29307 -->
<g id="node5" class="node">
<title>T29307</title>
<polygon fill="none" stroke="#0058ad" points="367.5,-243.5 367.5,-272.5 720.5,-272.5 720.5,-243.5 367.5,-243.5"/>
<text text-anchor="middle" x="410.5" y="-254.3" font-family="Times,serif" font-size="14.00" fill="#0058ad">r 1119 nil</text>
<polyline fill="none" stroke="#0058ad" points="453.5,-243.5 453.5,-272.5 "/>
<text text-anchor="middle" x="499.5" y="-254.3" font-family="Times,serif" font-size="14.00" fill="#0058ad">w 1117 16</text>
<polyline fill="none" stroke="#0058ad" points="545.5,-243.5 545.5,-272.5 "/>
<text text-anchor="middle" x="591.5" y="-254.3" font-family="Times,serif" font-size="14.00" fill="#0058ad">w 1101 14</text>
<polyline fill="none" stroke="#0058ad" points="637.5,-243.5 637.5,-272.5 "/>
<text text-anchor="middle" x="679" y="-254.3" font-family="Times,serif" font-size="14.00" fill="#0058ad">w 1119 2</text>
</g>
<!-- T29283&#45;&gt;T29307 -->
<g id="edge2" class="edge">
<title>T29283:f0&#45;&gt;T29307:f3</title>
<path fill="none" stroke="#5b00c0" d="M355,-324C355,-181.79 663.37,-407.26 678.43,-283"/>
<polygon fill="#5b00c0" stroke="#5b00c0" points="681.93,-283.18 679,-273 674.94,-282.78 681.93,-283.18"/>
<text text-anchor="middle" x="684.5" y="-294.8" font-family="Times,serif" font-size="14.00" fill="#5b00c0">rw</text>
</g>
<!-- T29317&#45;&gt;T29321 -->
<g id="edge4" class="edge">
<title>T29317:f1&#45;&gt;T29321:f0</title>
<path fill="none" stroke="#c000a5" d="M124,-162C124,-126.46 139.7,-100.94 171.96,-96.64"/>
<polygon fill="#c000a5" stroke="#c000a5" points="172.24,-100.13 182,-96 171.8,-93.15 172.24,-100.13"/>
<text text-anchor="middle" x="139.5" y="-132.8" font-family="Times,serif" font-size="14.00" fill="#c000a5">wr</text>
</g>
<!-- T29323 -->
<g id="node3" class="node">
<title>T29323</title>
<polygon fill="none" stroke="#0058ad" points="488.5,-0.5 488.5,-29.5 817.5,-29.5 817.5,-0.5 488.5,-0.5"/>
<text text-anchor="middle" x="527" y="-11.3" font-family="Times,serif" font-size="14.00" fill="#0058ad">r 1119 5</text>
<polyline fill="none" stroke="#0058ad" points="565.5,-0.5 565.5,-29.5 "/>
<text text-anchor="middle" x="607" y="-11.3" font-family="Times,serif" font-size="14.00" fill="#0058ad">w 1120 6</text>
<polyline fill="none" stroke="#0058ad" points="648.5,-0.5 648.5,-29.5 "/>
<text text-anchor="middle" x="691.5" y="-11.3" font-family="Times,serif" font-size="14.00" fill="#0058ad">r 1118 nil</text>
<polyline fill="none" stroke="#0058ad" points="734.5,-0.5 734.5,-29.5 "/>
<text text-anchor="middle" x="776" y="-11.3" font-family="Times,serif" font-size="14.00" fill="#0058ad">w 1120 7</text>
</g>
<!-- T29323&#45;&gt;T29283 -->
<g id="edge5" class="edge">
<title>T29323:f2&#45;&gt;T29283:f1</title>
<path fill="none" stroke="#5b00c0" d="M692,-30C692,-68.42 749,-56.58 749,-95 749,-259 749,-259 749,-259 749,-289.82 725.78,-292.64 698,-306 657.25,-325.61 546.88,-337.41 493.24,-338.85"/>
<polygon fill="#5b00c0" stroke="#5b00c0" points="492.95,-335.35 483,-339 493.05,-342.35 492.95,-335.35"/>
<text text-anchor="middle" x="758.5" y="-173.3" font-family="Times,serif" font-size="14.00" fill="#5b00c0">rw</text>
</g>
<!-- T29321&#45;&gt;T29323 -->
<g id="edge6" class="edge">
<title>T29321:f2&#45;&gt;T29323:f0</title>
<path fill="none" stroke="#c000a5" d="M428,-96C468.71,-96 447.08,-28.32 477.08,-16.69"/>
<polygon fill="#c000a5" stroke="#c000a5" points="477.73,-20.13 487,-15 476.55,-13.23 477.73,-20.13"/>
<text text-anchor="middle" x="468.5" y="-51.8" font-family="Times,serif" font-size="14.00" fill="#c000a5">wr</text>
</g>
<!-- T29307&#45;&gt;T29317 -->
<g id="edge7" class="edge">
<title>T29307:f0&#45;&gt;T29317:f2</title>
<path fill="none" stroke="#5b00c0" d="M410,-243C410,-228.21 394.42,-233.04 382,-225 371.76,-218.37 370.47,-214.16 359,-210 330.83,-199.77 233.89,-220.1 212.29,-201.28"/>
<polygon fill="#5b00c0" stroke="#5b00c0" points="215.37,-199.61 208,-192 209.02,-202.55 215.37,-199.61"/>
<text text-anchor="middle" x="391.5" y="-213.8" font-family="Times,serif" font-size="14.00" fill="#5b00c0">rw</text>
</g>
<!-- T29307&#45;&gt;T29321 -->
<g id="edge8" class="edge">
<title>T29307:f0&#45;&gt;T29321:f2</title>
<path fill="none" stroke="#5b00c0" d="M410,-243C410,-186.79 387.84,-172.35 385.25,-121.03"/>
<polygon fill="#5b00c0" stroke="#5b00c0" points="388.75,-120.91 385,-111 381.75,-121.08 388.75,-120.91"/>
<text text-anchor="middle" x="412.5" y="-173.3" font-family="Times,serif" font-size="14.00" fill="#5b00c0">rw</text>
</g>
</g>
</svg>
