<?xml version="1.0" encoding="UTF-8" standalone="no"?>
<!DOCTYPE svg PUBLIC "-//W3C//DTD SVG 1.1//EN"
 "http://www.w3.org/Graphics/SVG/1.1/DTD/svg11.dtd">
<!-- Generated by graphviz version 2.43.0 (0)
 -->
<!-- Title: a_graph Pages: 1 -->
<svg width="597pt" height="524pt"
 viewBox="0.00 0.00 596.50 524.00" xmlns="http://www.w3.org/2000/svg" xmlns:xlink="http://www.w3.org/1999/xlink">
<g id="graph0" class="graph" transform="scale(1 1) rotate(0) translate(4 520)">
<title>a_graph</title>
<polygon fill="white" stroke="transparent" points="-4,4 -4,-520 592.5,-520 592.5,4 -4,4"/>
<!-- T20113 -->
<g id="node1" class="node">
<title>T20113</title>
<polygon fill="none" stroke="#0058ad" points="292.5,-486.5 292.5,-515.5 588.5,-515.5 588.5,-486.5 292.5,-486.5"/>
<text text-anchor="middle" x="331" y="-497.3" font-family="Times,serif" font-size="14.00" fill="#0058ad">r 768 nil</text>
<polyline fill="none" stroke="#0058ad" points="369.5,-486.5 369.5,-515.5 "/>
<text text-anchor="middle" x="408" y="-497.3" font-family="Times,serif" font-size="14.00" fill="#0058ad">r 768 nil</text>
<polyline fill="none" stroke="#0058ad" points="446.5,-486.5 446.5,-515.5 "/>
<text text-anchor="middle" x="480.5" y="-497.3" font-family="Times,serif" font-size="14.00" fill="#0058ad">r 766 2</text>
<polyline fill="none" stroke="#0058ad" points="514.5,-486.5 514.5,-515.5 "/>
<text text-anchor="middle" x="551.5" y="-497.3" font-family="Times,serif" font-size="14.00" fill="#0058ad">w 766 3</text>
</g>
<!-- T20116 -->
<g id="node4" class="node">
<title>T20116</title>
<polygon fill="none" stroke="#0058ad" points="67,-405.5 67,-434.5 366,-434.5 366,-405.5 67,-405.5"/>
<text text-anchor="middle" x="105.5" y="-416.3" font-family="Times,serif" font-size="14.00" fill="#0058ad">r 768 nil</text>
<polyline fill="none" stroke="#0058ad" points="144,-405.5 144,-434.5 "/>
<text text-anchor="middle" x="181" y="-416.3" font-family="Times,serif" font-size="14.00" fill="#0058ad">w 768 2</text>
<polyline fill="none" stroke="#0058ad" points="218,-405.5 218,-434.5 "/>
<text text-anchor="middle" x="255" y="-416.3" font-family="Times,serif" font-size="14.00" fill="#0058ad">w 765 7</text>
<polyline fill="none" stroke="#0058ad" points="292,-405.5 292,-434.5 "/>
<text text-anchor="middle" x="329" y="-416.3" font-family="Times,serif" font-size="14.00" fill="#0058ad">w 768 3</text>
</g>
<!-- T20113&#45;&gt;T20116 -->
<g id="edge1" class="edge">
<title>T20113:f0&#45;&gt;T20116:f3</title>
<path fill="none" stroke="#5b00c0" d="M330.5,-486C330.5,-467.23 329.81,-460.12 329.58,-445.35"/>
<polygon fill="#5b00c0" stroke="#5b00c0" points="333.08,-444.97 329.5,-435 326.08,-445.03 333.08,-444.97"/>
<text text-anchor="middle" x="339" y="-456.8" font-family="Times,serif" font-size="14.00" fill="#5b00c0">rw</text>
</g>
<!-- T20107 -->
<g id="node5" class="node">
<title>T20107</title>
<polygon fill="none" stroke="#0058ad" points="59.5,-324.5 59.5,-353.5 349.5,-353.5 349.5,-324.5 59.5,-324.5"/>
<text text-anchor="middle" x="96.5" y="-335.3" font-family="Times,serif" font-size="14.00" fill="#0058ad">w 768 1</text>
<polyline fill="none" stroke="#0058ad" points="133.5,-324.5 133.5,-353.5 "/>
<text text-anchor="middle" x="170.5" y="-335.3" font-family="Times,serif" font-size="14.00" fill="#0058ad">w 765 6</text>
<polyline fill="none" stroke="#0058ad" points="207.5,-324.5 207.5,-353.5 "/>
<text text-anchor="middle" x="241.5" y="-335.3" font-family="Times,serif" font-size="14.00" fill="#0058ad">r 768 1</text>
<polyline fill="none" stroke="#0058ad" points="275.5,-324.5 275.5,-353.5 "/>
<text text-anchor="middle" x="312.5" y="-335.3" font-family="Times,serif" font-size="14.00" fill="#0058ad">w 767 4</text>
</g>
<!-- T20113&#45;&gt;T20107 -->
<g id="edge2" class="edge">
<title>T20113:f0&#45;&gt;T20107:f0</title>
<path fill="none" stroke="#5b00c0" d="M330.5,-486C330.5,-473.37 343.92,-477.27 352.5,-468 364.65,-454.88 370.14,-452.06 375.5,-435 379.5,-422.28 384.04,-415.24 375.5,-405 357.21,-383.06 142.93,-384.88 102.91,-361.96"/>
<polygon fill="#5b00c0" stroke="#5b00c0" points="105.5,-359.59 96.5,-354 100.05,-363.98 105.5,-359.59"/>
<text text-anchor="middle" x="389" y="-416.3" font-family="Times,serif" font-size="14.00" fill="#5b00c0">rw</text>
</g>
<!-- T20101 -->
<g id="node2" class="node">
<title>T20101</title>
<polygon fill="none" stroke="#0058ad" points="0,-162.5 0,-191.5 151,-191.5 151,-162.5 0,-162.5"/>
<text text-anchor="middle" x="38.5" y="-173.3" font-family="Times,serif" font-size="14.00" fill="#0058ad">r 767 nil</text>
<polyline fill="none" stroke="#0058ad" points="77,-162.5 77,-191.5 "/>
<text text-anchor="middle" x="114" y="-173.3" font-family="Times,serif" font-size="14.00" fill="#0058ad">w 766 1</text>
</g>
<!-- T20114 -->
<g id="node3" class="node">
<title>T20114</title>
<polygon fill="none" stroke="#0058ad" points="83,-243.5 83,-272.5 302,-272.5 302,-243.5 83,-243.5"/>
<text text-anchor="middle" x="121.5" y="-254.3" font-family="Times,serif" font-size="14.00" fill="#0058ad">r 766 nil</text>
<polyline fill="none" stroke="#0058ad" points="160,-243.5 160,-272.5 "/>
<text text-anchor="middle" x="194" y="-254.3" font-family="Times,serif" font-size="14.00" fill="#0058ad">r 768 1</text>
<polyline fill="none" stroke="#0058ad" points="228,-243.5 228,-272.5 "/>
<text text-anchor="middle" x="265" y="-254.3" font-family="Times,serif" font-size="14.00" fill="#0058ad">w 767 7</text>
</g>
<!-- T20101&#45;&gt;T20114 -->
<g id="edge6" class="edge">
<title>T20101:f0&#45;&gt;T20114:f2</title>
<path fill="none" stroke="#5b00c0" d="M38.5,-192C38.5,-211.31 105.67,-202.6 123.5,-210 134.77,-214.68 135.1,-220.66 146.5,-225 167.98,-233.18 240.43,-220.84 260.38,-234.18"/>
<polygon fill="#5b00c0" stroke="#5b00c0" points="257.45,-236.11 265.5,-243 263.5,-232.6 257.45,-236.11"/>
<text text-anchor="middle" x="156" y="-213.8" font-family="Times,serif" font-size="14.00" fill="#5b00c0">rw</text>
</g>
<!-- T20101&#45;&gt;T20107 -->
<g id="edge3" class="edge">
<title>T20101:f0&#45;&gt;T20107:f3</title>
<path fill="none" stroke="#5b00c0" d="M38.5,-192C38.5,-228.7 28.55,-247.05 54.5,-273 73.14,-291.65 268.21,-294.37 306.13,-316.2"/>
<polygon fill="#5b00c0" stroke="#5b00c0" points="303.47,-318.47 312.5,-324 308.89,-314.04 303.47,-318.47"/>
<text text-anchor="middle" x="64" y="-254.3" font-family="Times,serif" font-size="14.00" fill="#5b00c0">rw</text>
</g>
<!-- T20093 -->
<g id="node6" class="node">
<title>T20093</title>
<polygon fill="none" stroke="#0058ad" points="187.5,-81.5 187.5,-110.5 489.5,-110.5 489.5,-81.5 187.5,-81.5"/>
<text text-anchor="middle" x="226" y="-92.3" font-family="Times,serif" font-size="14.00" fill="#0058ad">r 767 nil</text>
<polyline fill="none" stroke="#0058ad" points="264.5,-81.5 264.5,-110.5 "/>
<text text-anchor="middle" x="301.5" y="-92.3" font-family="Times,serif" font-size="14.00" fill="#0058ad">w 767 1</text>
<polyline fill="none" stroke="#0058ad" points="338.5,-81.5 338.5,-110.5 "/>
<text text-anchor="middle" x="377" y="-92.3" font-family="Times,serif" font-size="14.00" fill="#0058ad">r 768 nil</text>
<polyline fill="none" stroke="#0058ad" points="415.5,-81.5 415.5,-110.5 "/>
<text text-anchor="middle" x="452.5" y="-92.3" font-family="Times,serif" font-size="14.00" fill="#0058ad">w 765 3</text>
</g>
<!-- T20101&#45;&gt;T20093 -->
<g id="edge4" class="edge">
<title>T20101:f0&#45;&gt;T20093:f1</title>
<path fill="none" stroke="#5b00c0" d="M38.5,-162C38.5,-144.33 179.22,-147.67 196.5,-144 240.61,-134.64 292.63,-156.07 300.49,-121.15"/>
<polygon fill="#5b00c0" stroke="#5b00c0" points="303.99,-121.3 301.5,-111 297.02,-120.6 303.99,-121.3"/>
<text text-anchor="middle" x="306" y="-132.8" font-family="Times,serif" font-size="14.00" fill="#5b00c0">rw</text>
</g>
<!-- T20109 -->
<g id="node7" class="node">
<title>T20109</title>
<polygon fill="none" stroke="#0058ad" points="44.5,-0.5 44.5,-29.5 266.5,-29.5 266.5,-0.5 44.5,-0.5"/>
<text text-anchor="middle" x="81.5" y="-11.3" font-family="Times,serif" font-size="14.00" fill="#0058ad">w 767 5</text>
<polyline fill="none" stroke="#0058ad" points="118.5,-0.5 118.5,-29.5 "/>
<text text-anchor="middle" x="155.5" y="-11.3" font-family="Times,serif" font-size="14.00" fill="#0058ad">w 767 6</text>
<polyline fill="none" stroke="#0058ad" points="192.5,-0.5 192.5,-29.5 "/>
<text text-anchor="middle" x="229.5" y="-11.3" font-family="Times,serif" font-size="14.00" fill="#0058ad">w 766 2</text>
</g>
<!-- T20101&#45;&gt;T20109 -->
<g id="edge5" class="edge">
<title>T20101:f0&#45;&gt;T20109:f1</title>
<path fill="none" stroke="#5b00c0" d="M38.5,-162C38.5,-144.62 130.49,-69.68 151.34,-39.27"/>
<polygon fill="#5b00c0" stroke="#5b00c0" points="154.59,-40.56 155.5,-30 148.21,-37.69 154.59,-40.56"/>
<text text-anchor="middle" x="122" y="-92.3" font-family="Times,serif" font-size="14.00" fill="#5b00c0">rw</text>
</g>
<!-- T20114&#45;&gt;T20113 -->
<g id="edge8" class="edge">
<title>T20114:f0&#45;&gt;T20113:f3</title>
<path fill="none" stroke="#5b00c0" d="M121.5,-273C121.5,-296.02 200.98,-286.26 223.5,-291 283.95,-303.71 303.4,-296.08 358.5,-324 455.27,-373.04 545.67,-374 551.23,-475.83"/>
<polygon fill="#5b00c0" stroke="#5b00c0" points="547.74,-476.1 551.5,-486 554.73,-475.91 547.74,-476.1"/>
<text text-anchor="middle" x="509" y="-375.8" font-family="Times,serif" font-size="14.00" fill="#5b00c0">rw</text>
</g>
<!-- T20114&#45;&gt;T20101 -->
<g id="edge7" class="edge">
<title>T20114:f0&#45;&gt;T20101:f1</title>
<path fill="none" stroke="#5b00c0" d="M121.5,-243C121.5,-230.71 105.64,-236.17 100.5,-225 97.71,-218.94 98.34,-216.31 100.5,-210 102.25,-204.91 106.09,-203.01 109.31,-200.82"/>
<polygon fill="#5b00c0" stroke="#5b00c0" points="112.44,-202.39 114.5,-192 106.41,-198.84 112.44,-202.39"/>
<text text-anchor="middle" x="110" y="-213.8" font-family="Times,serif" font-size="14.00" fill="#5b00c0">rw</text>
</g>
<!-- T20114&#45;&gt;T20109 -->
<g id="edge9" class="edge">
<title>T20114:f0&#45;&gt;T20109:f2</title>
<path fill="none" stroke="#5b00c0" d="M121.5,-243C121.5,-221.87 153.33,-242.27 165.5,-225 210.86,-160.63 125.69,-110.57 173.5,-48 186.52,-30.96 215.86,-47.36 225.99,-39.37"/>
<polygon fill="#5b00c0" stroke="#5b00c0" points="229.27,-40.59 229.5,-30 222.71,-38.13 229.27,-40.59"/>
<text text-anchor="middle" x="181" y="-132.8" font-family="Times,serif" font-size="14.00" fill="#5b00c0">rw</text>
</g>
<!-- T20116&#45;&gt;T20107 -->
<g id="edge10" class="edge">
<title>T20116:f0&#45;&gt;T20107:f0</title>
<path fill="none" stroke="#5b00c0" d="M105.5,-405C105.5,-385.76 99.21,-379.13 97.15,-364.03"/>
<polygon fill="#5b00c0" stroke="#5b00c0" points="100.64,-363.75 96.5,-354 93.65,-364.2 100.64,-363.75"/>
<text text-anchor="middle" x="113" y="-375.8" font-family="Times,serif" font-size="14.00" fill="#5b00c0">rw</text>
</g>
<!-- T20107&#45;&gt;T20114 -->
<g id="edge11" class="edge">
<title>T20107:f0&#45;&gt;T20114:f1</title>
<path fill="none" stroke="#c000a5" d="M58.5,-339C51.82,-339 55.52,-329.37 59.5,-324 95.47,-275.5 183.36,-329.96 193.53,-283"/>
<polygon fill="#c000a5" stroke="#c000a5" points="197.02,-283.29 194.5,-273 190.05,-282.62 197.02,-283.29"/>
<text text-anchor="middle" x="199" y="-294.8" font-family="Times,serif" font-size="14.00" fill="#c000a5">wr</text>
</g>
<!-- T20093&#45;&gt;T20114 -->
<g id="edge14" class="edge">
<title>T20093:f0&#45;&gt;T20114:f2</title>
<path fill="none" stroke="#5b00c0" d="M225.5,-111C225.5,-168.71 260.95,-180.42 265.1,-232.74"/>
<polygon fill="#5b00c0" stroke="#5b00c0" points="261.62,-233.14 265.5,-243 268.61,-232.87 261.62,-233.14"/>
<text text-anchor="middle" x="262" y="-173.3" font-family="Times,serif" font-size="14.00" fill="#5b00c0">rw</text>
</g>
<!-- T20093&#45;&gt;T20116 -->
<g id="edge12" class="edge">
<title>T20093:f2&#45;&gt;T20116:f3</title>
<path fill="none" stroke="#5b00c0" d="M377.5,-111C377.5,-139.89 377.5,-147.11 377.5,-176 377.5,-340 377.5,-340 377.5,-340 377.5,-343.48 374.16,-389.89 370.57,-410.39"/>
<polygon fill="#5b00c0" stroke="#5b00c0" points="367.21,-409.41 367.5,-420 373.88,-411.54 367.21,-409.41"/>
<text text-anchor="middle" x="387" y="-254.3" font-family="Times,serif" font-size="14.00" fill="#5b00c0">rw</text>
</g>
<!-- T20093&#45;&gt;T20107 -->
<g id="edge15" class="edge">
<title>T20093:f0&#45;&gt;T20107:f3</title>
<path fill="none" stroke="#5b00c0" d="M225.5,-111C225.5,-152.66 291.02,-96.83 317.5,-129 370.34,-193.18 317.24,-233.87 312.79,-313.56"/>
<polygon fill="#5b00c0" stroke="#5b00c0" points="309.28,-313.91 312.5,-324 316.28,-314.1 309.28,-313.91"/>
<text text-anchor="middle" x="347" y="-213.8" font-family="Times,serif" font-size="14.00" fill="#5b00c0">rw</text>
</g>
<!-- T20093&#45;&gt;T20109 -->
<g id="edge13" class="edge">
<title>T20093:f0&#45;&gt;T20109:f1</title>
<path fill="none" stroke="#5b00c0" d="M225.5,-81C225.5,-64.91 176.58,-53.53 160.53,-38.99"/>
<polygon fill="#5b00c0" stroke="#5b00c0" points="163.44,-37.01 155.5,-30 157.33,-40.44 163.44,-37.01"/>
<text text-anchor="middle" x="214" y="-51.8" font-family="Times,serif" font-size="14.00" fill="#5b00c0">rw</text>
</g>
<!-- T20109&#45;&gt;T20113 -->
<g id="edge16" class="edge">
<title>T20109:f2&#45;&gt;T20113:f2</title>
<path fill="none" stroke="#c000a5" d="M267.5,-15C320.89,-15 466.35,-38.38 498.5,-81 604.94,-222.11 485.23,-302.72 480.64,-475.81"/>
<polygon fill="#c000a5" stroke="#c000a5" points="477.13,-475.95 480.5,-486 484.13,-476.05 477.13,-475.95"/>
<text text-anchor="middle" x="546" y="-254.3" font-family="Times,serif" font-size="14.00" fill="#c000a5">wr</text>
</g>
</g>
</svg>
