<?xml version="1.0" encoding="UTF-8" standalone="no"?>
<!DOCTYPE svg PUBLIC "-//W3C//DTD SVG 1.1//EN"
 "http://www.w3.org/Graphics/SVG/1.1/DTD/svg11.dtd">
<!-- Generated by graphviz version 2.43.0 (0)
 -->
<!-- Title: a_graph Pages: 1 -->
<svg width="381pt" height="200pt"
 viewBox="0.00 0.00 381.00 200.00" xmlns="http://www.w3.org/2000/svg" xmlns:xlink="http://www.w3.org/1999/xlink">
<g id="graph0" class="graph" transform="scale(1 1) rotate(0) translate(4 196)">
<title>a_graph</title>
<polygon fill="white" stroke="transparent" points="-4,4 -4,-196 377,-196 377,4 -4,4"/>
<!-- T2135 -->
<g id="node1" class="node">
<title>T2135</title>
<polygon fill="none" stroke="#0058ad" points="172,-162.5 172,-191.5 373,-191.5 373,-162.5 172,-162.5"/>
<text text-anchor="middle" x="204.5" y="-173.3" font-family="Times,serif" font-size="14.00" fill="#0058ad">w 85 4</text>
<polyline fill="none" stroke="#0058ad" points="237,-162.5 237,-191.5 "/>
<text text-anchor="middle" x="271" y="-173.3" font-family="Times,serif" font-size="14.00" fill="#0058ad">r 86 nil</text>
<polyline fill="none" stroke="#0058ad" points="305,-162.5 305,-191.5 "/>
<text text-anchor="middle" x="339" y="-173.3" font-family="Times,serif" font-size="14.00" fill="#0058ad">r 78 13</text>
</g>
<!-- T2134 -->
<g id="node2" class="node">
<title>T2134</title>
<polygon fill="none" stroke="#0058ad" points="0,-81.5 0,-110.5 201,-110.5 201,-81.5 0,-81.5"/>
<text text-anchor="middle" x="34" y="-92.3" font-family="Times,serif" font-size="14.00" fill="#0058ad">r 86 nil</text>
<polyline fill="none" stroke="#0058ad" points="68,-81.5 68,-110.5 "/>
<text text-anchor="middle" x="102" y="-92.3" font-family="Times,serif" font-size="14.00" fill="#0058ad">r 85 nil</text>
<polyline fill="none" stroke="#0058ad" points="136,-81.5 136,-110.5 "/>
<text text-anchor="middle" x="168.5" y="-92.3" font-family="Times,serif" font-size="14.00" fill="#0058ad">w 86 1</text>
</g>
<!-- T2135&#45;&gt;T2134 -->
<g id="edge1" class="edge">
<title>T2135:f1&#45;&gt;T2134:f2</title>
<path fill="none" stroke="#5b00c0" d="M270.5,-162C270.5,-128.66 238.67,-134.96 215.5,-111 212.82,-108.23 211.68,-105.01 210.52,-102.27"/>
<polygon fill="#5b00c0" stroke="#5b00c0" points="212.53,-99.4 202.5,-96 208.22,-104.92 212.53,-99.4"/>
<text text-anchor="middle" x="275" y="-132.8" font-family="Times,serif" font-size="14.00" fill="#5b00c0">rw</text>
</g>
<!-- T2134&#45;&gt;T2135 -->
<g id="edge2" class="edge">
<title>T2134:f1&#45;&gt;T2135:f0</title>
<path fill="none" stroke="#5b00c0" d="M102.5,-111C102.5,-149.66 124.31,-172.96 160.47,-176.52"/>
<polygon fill="#5b00c0" stroke="#5b00c0" points="160.34,-180.02 170.5,-177 160.68,-173.03 160.34,-180.02"/>
<text text-anchor="middle" x="119" y="-132.8" font-family="Times,serif" font-size="14.00" fill="#5b00c0">rw</text>
</g>
<!-- T2138 -->
<g id="node3" class="node">
<title>T2138</title>
<polygon fill="none" stroke="#0058ad" points="93,-0.5 93,-29.5 270,-29.5 270,-0.5 93,-0.5"/>
<text text-anchor="middle" x="118" y="-11.3" font-family="Times,serif" font-size="14.00" fill="#0058ad">r 2 4</text>
<polyline fill="none" stroke="#0058ad" points="143,-0.5 143,-29.5 "/>
<text text-anchor="middle" x="172.5" y="-11.3" font-family="Times,serif" font-size="14.00" fill="#0058ad">r 86 1</text>
<polyline fill="none" stroke="#0058ad" points="202,-0.5 202,-29.5 "/>
<text text-anchor="middle" x="236" y="-11.3" font-family="Times,serif" font-size="14.00" fill="#0058ad">r 85 nil</text>
</g>
<!-- T2134&#45;&gt;T2138 -->
<g id="edge3" class="edge">
<title>T2134:f2&#45;&gt;T2138:f1</title>
<path fill="none" stroke="#c000a5" d="M168.5,-81C168.5,-62.17 171.24,-55.14 172.19,-40.37"/>
<polygon fill="#c000a5" stroke="#c000a5" points="175.7,-40.1 172.5,-30 168.7,-39.89 175.7,-40.1"/>
<text text-anchor="middle" x="180" y="-51.8" font-family="Times,serif" font-size="14.00" fill="#c000a5">wr</text>
</g>
<!-- T2138&#45;&gt;T2135 -->
<g id="edge4" class="edge">
<title>T2138:f2&#45;&gt;T2135:f0</title>
<path fill="none" stroke="#5b00c0" d="M236.5,-30C236.5,-86.83 208.14,-100.14 204.82,-151.87"/>
<polygon fill="#5b00c0" stroke="#5b00c0" points="201.31,-151.9 204.5,-162 208.31,-152.11 201.31,-151.9"/>
<text text-anchor="middle" x="236" y="-92.3" font-family="Times,serif" font-size="14.00" fill="#5b00c0">rw</text>
</g>
</g>
</svg>
