<?xml version="1.0" encoding="UTF-8" standalone="no"?>
<!DOCTYPE svg PUBLIC "-//W3C//DTD SVG 1.1//EN"
 "http://www.w3.org/Graphics/SVG/1.1/DTD/svg11.dtd">
<!-- Generated by graphviz version 2.43.0 (0)
 -->
<!-- Title: a_graph Pages: 1 -->
<svg width="514pt" height="362pt"
 viewBox="0.00 0.00 514.28 362.00" xmlns="http://www.w3.org/2000/svg" xmlns:xlink="http://www.w3.org/1999/xlink">
<g id="graph0" class="graph" transform="scale(1 1) rotate(0) translate(4 358)">
<title>a_graph</title>
<polygon fill="white" stroke="transparent" points="-4,4 -4,-358 510.28,-358 510.28,4 -4,4"/>
<!-- T27077 -->
<g id="node1" class="node">
<title>T27077</title>
<polygon fill="none" stroke="#0058ad" points="143.5,-324.5 143.5,-353.5 481.5,-353.5 481.5,-324.5 143.5,-324.5"/>
<text text-anchor="middle" x="186.5" y="-335.3" font-family="Times,serif" font-size="14.00" fill="#0058ad">r 1031 nil</text>
<polyline fill="none" stroke="#0058ad" points="229.5,-324.5 229.5,-353.5 "/>
<text text-anchor="middle" x="271" y="-335.3" font-family="Times,serif" font-size="14.00" fill="#0058ad">w 1031 3</text>
<polyline fill="none" stroke="#0058ad" points="312.5,-324.5 312.5,-353.5 "/>
<text text-anchor="middle" x="354" y="-335.3" font-family="Times,serif" font-size="14.00" fill="#0058ad">w 1031 4</text>
<polyline fill="none" stroke="#0058ad" points="395.5,-324.5 395.5,-353.5 "/>
<text text-anchor="middle" x="438.5" y="-335.3" font-family="Times,serif" font-size="14.00" fill="#0058ad">r 1032 nil</text>
</g>
<!-- T27071 -->
<g id="node2" class="node">
<title>T27071</title>
<polygon fill="none" stroke="#0058ad" points="145,-243.5 145,-272.5 388,-272.5 388,-243.5 145,-243.5"/>
<text text-anchor="middle" x="186.5" y="-254.3" font-family="Times,serif" font-size="14.00" fill="#0058ad">w 1031 2</text>
<polyline fill="none" stroke="#0058ad" points="228,-243.5 228,-272.5 "/>
<text text-anchor="middle" x="266.5" y="-254.3" font-family="Times,serif" font-size="14.00" fill="#0058ad">r 1026 6</text>
<polyline fill="none" stroke="#0058ad" points="305,-243.5 305,-272.5 "/>
<text text-anchor="middle" x="346.5" y="-254.3" font-family="Times,serif" font-size="14.00" fill="#0058ad">w 1032 1</text>
</g>
<!-- T27077&#45;&gt;T27071 -->
<g id="edge1" class="edge">
<title>T27077:f0&#45;&gt;T27071:f0</title>
<path fill="none" stroke="#5b00c0" d="M186.5,-324C186.5,-305.23 186.5,-298.12 186.5,-283.35"/>
<polygon fill="#5b00c0" stroke="#5b00c0" points="190,-283 186.5,-273 183,-283 190,-283"/>
<text text-anchor="middle" x="196" y="-294.8" font-family="Times,serif" font-size="14.00" fill="#5b00c0">rw</text>
</g>
<!-- T27069 -->
<g id="node3" class="node">
<title>T27069</title>
<polygon fill="none" stroke="#0058ad" points="0,-0.5 0,-29.5 323,-29.5 323,-0.5 0,-0.5"/>
<text text-anchor="middle" x="41.5" y="-11.3" font-family="Times,serif" font-size="14.00" fill="#0058ad">w 1031 1</text>
<polyline fill="none" stroke="#0058ad" points="83,-0.5 83,-29.5 "/>
<text text-anchor="middle" x="121.5" y="-11.3" font-family="Times,serif" font-size="14.00" fill="#0058ad">r 1026 6</text>
<polyline fill="none" stroke="#0058ad" points="160,-0.5 160,-29.5 "/>
<text text-anchor="middle" x="198.5" y="-11.3" font-family="Times,serif" font-size="14.00" fill="#0058ad">r 1031 1</text>
<polyline fill="none" stroke="#0058ad" points="237,-0.5 237,-29.5 "/>
<text text-anchor="middle" x="280" y="-11.3" font-family="Times,serif" font-size="14.00" fill="#0058ad">r 1030 nil</text>
</g>
<!-- T27077&#45;&gt;T27069 -->
<g id="edge2" class="edge">
<title>T27077:f0&#45;&gt;T27069:f0</title>
<path fill="none" stroke="#5b00c0" d="M142.5,-339C85.24,-339 41.5,-316.26 41.5,-259 41.5,-259 41.5,-259 41.5,-95 41.5,-69.84 41.5,-61.11 41.5,-40.18"/>
<polygon fill="#5b00c0" stroke="#5b00c0" points="45,-40 41.5,-30 38,-40 45,-40"/>
<text text-anchor="middle" x="51" y="-173.3" font-family="Times,serif" font-size="14.00" fill="#5b00c0">rw</text>
</g>
<!-- T27075 -->
<g id="node4" class="node">
<title>T27075</title>
<polygon fill="none" stroke="#0058ad" points="79,-162.5 79,-191.5 402,-191.5 402,-162.5 79,-162.5"/>
<text text-anchor="middle" x="117.5" y="-173.3" font-family="Times,serif" font-size="14.00" fill="#0058ad">r 1031 2</text>
<polyline fill="none" stroke="#0058ad" points="156,-162.5 156,-191.5 "/>
<text text-anchor="middle" x="194.5" y="-173.3" font-family="Times,serif" font-size="14.00" fill="#0058ad">r 1031 2</text>
<polyline fill="none" stroke="#0058ad" points="233,-162.5 233,-191.5 "/>
<text text-anchor="middle" x="276" y="-173.3" font-family="Times,serif" font-size="14.00" fill="#0058ad">r 1030 nil</text>
<polyline fill="none" stroke="#0058ad" points="319,-162.5 319,-191.5 "/>
<text text-anchor="middle" x="360.5" y="-173.3" font-family="Times,serif" font-size="14.00" fill="#0058ad">w 1026 8</text>
</g>
<!-- T27071&#45;&gt;T27075 -->
<g id="edge3" class="edge">
<title>T27071:f0&#45;&gt;T27075:f0</title>
<path fill="none" stroke="#c000a5" d="M143.5,-258C115.3,-258 116.75,-230.42 117.37,-202.03"/>
<polygon fill="#c000a5" stroke="#c000a5" points="120.87,-202.05 117.5,-192 113.87,-201.95 120.87,-202.05"/>
<text text-anchor="middle" x="127" y="-213.8" font-family="Times,serif" font-size="14.00" fill="#c000a5">wr</text>
</g>
<!-- T27073 -->
<g id="node5" class="node">
<title>T27073</title>
<polygon fill="none" stroke="#0058ad" points="152,-81.5 152,-110.5 487,-110.5 487,-81.5 152,-81.5"/>
<text text-anchor="middle" x="193.5" y="-92.3" font-family="Times,serif" font-size="14.00" fill="#0058ad">w 1030 1</text>
<polyline fill="none" stroke="#0058ad" points="235,-81.5 235,-110.5 "/>
<text text-anchor="middle" x="276.5" y="-92.3" font-family="Times,serif" font-size="14.00" fill="#0058ad">w 1030 2</text>
<polyline fill="none" stroke="#0058ad" points="318,-81.5 318,-110.5 "/>
<text text-anchor="middle" x="359.5" y="-92.3" font-family="Times,serif" font-size="14.00" fill="#0058ad">w 1026 7</text>
<polyline fill="none" stroke="#0058ad" points="401,-81.5 401,-110.5 "/>
<text text-anchor="middle" x="444" y="-92.3" font-family="Times,serif" font-size="14.00" fill="#0058ad">r 1031 nil</text>
</g>
<!-- T27069&#45;&gt;T27073 -->
<g id="edge4" class="edge">
<title>T27069:f3&#45;&gt;T27073:f1</title>
<path fill="none" stroke="#5b00c0" d="M280.5,-30C280.5,-48.83 277.76,-55.86 276.81,-70.63"/>
<polygon fill="#5b00c0" stroke="#5b00c0" points="273.3,-70.9 276.5,-81 280.3,-71.11 273.3,-70.9"/>
<text text-anchor="middle" x="289" y="-51.8" font-family="Times,serif" font-size="14.00" fill="#5b00c0">rw</text>
</g>
<!-- T27075&#45;&gt;T27073 -->
<g id="edge5" class="edge">
<title>T27075:f2&#45;&gt;T27073:f1</title>
<path fill="none" stroke="#5b00c0" d="M276.5,-162C276.5,-143.23 276.5,-136.12 276.5,-121.35"/>
<polygon fill="#5b00c0" stroke="#5b00c0" points="280,-121 276.5,-111 273,-121 280,-121"/>
<text text-anchor="middle" x="286" y="-132.8" font-family="Times,serif" font-size="14.00" fill="#5b00c0">rw</text>
</g>
<!-- T27073&#45;&gt;T27077 -->
<g id="edge7" class="edge">
<title>T27073:f3&#45;&gt;T27077:f2</title>
<path fill="none" stroke="#5b00c0" d="M488.5,-96C533.07,-96 480.75,-152.82 459.5,-192 437.76,-232.09 425,-237.39 396.5,-273 380.52,-292.97 360.51,-294.57 355.62,-314.06"/>
<polygon fill="#5b00c0" stroke="#5b00c0" points="352.14,-313.67 354.5,-324 359.09,-314.45 352.14,-313.67"/>
<text text-anchor="middle" x="459" y="-213.8" font-family="Times,serif" font-size="14.00" fill="#5b00c0">rw</text>
</g>
<!-- T27073&#45;&gt;T27071 -->
<g id="edge8" class="edge">
<title>T27073:f3&#45;&gt;T27071:f0</title>
<path fill="none" stroke="#5b00c0" d="M444.5,-111C444.5,-150.04 440.4,-166.89 410.5,-192 335.14,-255.3 196.95,-149.1 187.06,-232.77"/>
<polygon fill="#5b00c0" stroke="#5b00c0" points="183.55,-232.82 186.5,-243 190.54,-233.21 183.55,-232.82"/>
<text text-anchor="middle" x="446" y="-173.3" font-family="Times,serif" font-size="14.00" fill="#5b00c0">rw</text>
</g>
<!-- T27073&#45;&gt;T27069 -->
<g id="edge6" class="edge">
<title>T27073:f3&#45;&gt;T27069:f0</title>
<path fill="none" stroke="#5b00c0" d="M444.5,-81C444.5,-16.21 366.58,-57.59 302.5,-48 289.78,-46.1 95.26,-44.85 50.59,-34.52"/>
<polygon fill="#5b00c0" stroke="#5b00c0" points="52.01,-31.32 41.5,-30 48.9,-37.59 52.01,-31.32"/>
<text text-anchor="middle" x="451" y="-51.8" font-family="Times,serif" font-size="14.00" fill="#5b00c0">rw</text>
</g>
</g>
</svg>
