<?xml version="1.0" encoding="UTF-8" standalone="no"?>
<!DOCTYPE svg PUBLIC "-//W3C//DTD SVG 1.1//EN"
 "http://www.w3.org/Graphics/SVG/1.1/DTD/svg11.dtd">
<!-- Generated by graphviz version 2.43.0 (0)
 -->
<!-- Title: a_graph Pages: 1 -->
<svg width="422pt" height="200pt"
 viewBox="0.00 0.00 422.00 200.00" xmlns="http://www.w3.org/2000/svg" xmlns:xlink="http://www.w3.org/1999/xlink">
<g id="graph0" class="graph" transform="scale(1 1) rotate(0) translate(4 196)">
<title>a_graph</title>
<polygon fill="white" stroke="transparent" points="-4,4 -4,-196 418,-196 418,4 -4,4"/>
<!-- T19209 -->
<g id="node1" class="node">
<title>T19209</title>
<polygon fill="none" stroke="#0058ad" points="186,-162.5 186,-191.5 414,-191.5 414,-162.5 186,-162.5"/>
<text text-anchor="middle" x="224.5" y="-173.3" font-family="Times,serif" font-size="14.00" fill="#0058ad">r 732 nil</text>
<polyline fill="none" stroke="#0058ad" points="263,-162.5 263,-191.5 "/>
<text text-anchor="middle" x="301.5" y="-173.3" font-family="Times,serif" font-size="14.00" fill="#0058ad">r 733 nil</text>
<polyline fill="none" stroke="#0058ad" points="340,-162.5 340,-191.5 "/>
<text text-anchor="middle" x="377" y="-173.3" font-family="Times,serif" font-size="14.00" fill="#0058ad">w 733 4</text>
</g>
<!-- T19204 -->
<g id="node2" class="node">
<title>T19204</title>
<polygon fill="none" stroke="#0058ad" points="0,-81.5 0,-110.5 308,-110.5 308,-81.5 0,-81.5"/>
<text text-anchor="middle" x="41.5" y="-92.3" font-family="Times,serif" font-size="14.00" fill="#0058ad">w 731 16</text>
<polyline fill="none" stroke="#0058ad" points="83,-81.5 83,-110.5 "/>
<text text-anchor="middle" x="120" y="-92.3" font-family="Times,serif" font-size="14.00" fill="#0058ad">w 732 5</text>
<polyline fill="none" stroke="#0058ad" points="157,-81.5 157,-110.5 "/>
<text text-anchor="middle" x="195.5" y="-92.3" font-family="Times,serif" font-size="14.00" fill="#0058ad">r 733 nil</text>
<polyline fill="none" stroke="#0058ad" points="234,-81.5 234,-110.5 "/>
<text text-anchor="middle" x="271" y="-92.3" font-family="Times,serif" font-size="14.00" fill="#0058ad">w 733 1</text>
</g>
<!-- T19209&#45;&gt;T19204 -->
<g id="edge2" class="edge">
<title>T19209:f0&#45;&gt;T19204:f1</title>
<path fill="none" stroke="#5b00c0" d="M185,-177C147.37,-177 124.22,-156.25 120.52,-121.25"/>
<polygon fill="#5b00c0" stroke="#5b00c0" points="124.01,-120.81 120,-111 117.02,-121.17 124.01,-120.81"/>
<text text-anchor="middle" x="135.5" y="-132.8" font-family="Times,serif" font-size="14.00" fill="#5b00c0">rw</text>
</g>
<!-- T19211 -->
<g id="node3" class="node">
<title>T19211</title>
<polygon fill="none" stroke="#0058ad" points="79,-0.5 79,-29.5 381,-29.5 381,-0.5 79,-0.5"/>
<text text-anchor="middle" x="117.5" y="-11.3" font-family="Times,serif" font-size="14.00" fill="#0058ad">r 732 nil</text>
<polyline fill="none" stroke="#0058ad" points="156,-0.5 156,-29.5 "/>
<text text-anchor="middle" x="193" y="-11.3" font-family="Times,serif" font-size="14.00" fill="#0058ad">w 733 5</text>
<polyline fill="none" stroke="#0058ad" points="230,-0.5 230,-29.5 "/>
<text text-anchor="middle" x="268.5" y="-11.3" font-family="Times,serif" font-size="14.00" fill="#0058ad">r 732 nil</text>
<polyline fill="none" stroke="#0058ad" points="307,-0.5 307,-29.5 "/>
<text text-anchor="middle" x="344" y="-11.3" font-family="Times,serif" font-size="14.00" fill="#0058ad">w 733 6</text>
</g>
<!-- T19209&#45;&gt;T19211 -->
<g id="edge1" class="edge">
<title>T19209:f1&#45;&gt;T19211:f3</title>
<path fill="none" stroke="#5b00c0" d="M302,-162C302,-148.59 333.87,-70.06 342.09,-39.86"/>
<polygon fill="#5b00c0" stroke="#5b00c0" points="345.53,-40.48 344,-30 338.66,-39.15 345.53,-40.48"/>
<text text-anchor="middle" x="336.5" y="-92.3" font-family="Times,serif" font-size="14.00" fill="#5b00c0">rw</text>
</g>
<!-- T19204&#45;&gt;T19209 -->
<g id="edge3" class="edge">
<title>T19204:f2&#45;&gt;T19209:f2</title>
<path fill="none" stroke="#5b00c0" d="M196,-111C196,-190.82 361.1,-88.46 375.94,-151.91"/>
<polygon fill="#5b00c0" stroke="#5b00c0" points="372.47,-152.42 377,-162 379.43,-151.69 372.47,-152.42"/>
<text text-anchor="middle" x="380.5" y="-132.8" font-family="Times,serif" font-size="14.00" fill="#5b00c0">rw</text>
</g>
<!-- T19204&#45;&gt;T19211 -->
<g id="edge4" class="edge">
<title>T19204:f2&#45;&gt;T19211:f3</title>
<path fill="none" stroke="#5b00c0" d="M196,-81C196,-65.98 306.3,-51.85 336.46,-37.07"/>
<polygon fill="#5b00c0" stroke="#5b00c0" points="339.1,-39.39 344,-30 334.31,-34.29 339.1,-39.39"/>
<text text-anchor="middle" x="309.5" y="-51.8" font-family="Times,serif" font-size="14.00" fill="#5b00c0">rw</text>
</g>
<!-- T19211&#45;&gt;T19204 -->
<g id="edge5" class="edge">
<title>T19211:f0&#45;&gt;T19204:f1</title>
<path fill="none" stroke="#5b00c0" d="M117,-30C117,-48.8 119.06,-55.87 119.76,-70.64"/>
<polygon fill="#5b00c0" stroke="#5b00c0" points="116.27,-71.08 120,-81 123.27,-70.92 116.27,-71.08"/>
<text text-anchor="middle" x="128.5" y="-51.8" font-family="Times,serif" font-size="14.00" fill="#5b00c0">rw</text>
</g>
</g>
</svg>
