<?xml version="1.0" encoding="UTF-8" standalone="no"?>
<!DOCTYPE svg PUBLIC "-//W3C//DTD SVG 1.1//EN"
 "http://www.w3.org/Graphics/SVG/1.1/DTD/svg11.dtd">
<!-- Generated by graphviz version 2.43.0 (0)
 -->
<!-- Title: a_graph Pages: 1 -->
<svg width="984pt" height="524pt"
 viewBox="0.00 0.00 984.00 524.00" xmlns="http://www.w3.org/2000/svg" xmlns:xlink="http://www.w3.org/1999/xlink">
<g id="graph0" class="graph" transform="scale(1 1) rotate(0) translate(4 520)">
<title>a_graph</title>
<polygon fill="white" stroke="transparent" points="-4,4 -4,-520 980,-520 980,4 -4,4"/>
<!-- T19455 -->
<g id="node1" class="node">
<title>T19455</title>
<polygon fill="none" stroke="#0058ad" points="349.5,-486.5 349.5,-515.5 500.5,-515.5 500.5,-486.5 349.5,-486.5"/>
<text text-anchor="middle" x="388" y="-497.3" font-family="Times,serif" font-size="14.00" fill="#0058ad">r 739 10</text>
<polyline fill="none" stroke="#0058ad" points="426.5,-486.5 426.5,-515.5 "/>
<text text-anchor="middle" x="463.5" y="-497.3" font-family="Times,serif" font-size="14.00" fill="#0058ad">w 744 1</text>
</g>
<!-- T19475 -->
<g id="node8" class="node">
<title>T19475</title>
<polygon fill="none" stroke="#0058ad" points="353.5,-405.5 353.5,-434.5 640.5,-434.5 640.5,-405.5 353.5,-405.5"/>
<text text-anchor="middle" x="392" y="-416.3" font-family="Times,serif" font-size="14.00" fill="#0058ad">r 745 nil</text>
<polyline fill="none" stroke="#0058ad" points="430.5,-405.5 430.5,-434.5 "/>
<text text-anchor="middle" x="464.5" y="-416.3" font-family="Times,serif" font-size="14.00" fill="#0058ad">r 744 1</text>
<polyline fill="none" stroke="#0058ad" points="498.5,-405.5 498.5,-434.5 "/>
<text text-anchor="middle" x="535.5" y="-416.3" font-family="Times,serif" font-size="14.00" fill="#0058ad">w 745 1</text>
<polyline fill="none" stroke="#0058ad" points="572.5,-405.5 572.5,-434.5 "/>
<text text-anchor="middle" x="606.5" y="-416.3" font-family="Times,serif" font-size="14.00" fill="#0058ad">r 745 1</text>
</g>
<!-- T19455&#45;&gt;T19475 -->
<g id="edge1" class="edge">
<title>T19455:f1&#45;&gt;T19475:f1</title>
<path fill="none" stroke="#c000a5" d="M464,-486C464,-467.23 464,-460.12 464,-445.35"/>
<polygon fill="#c000a5" stroke="#c000a5" points="467.5,-445 464,-435 460.5,-445 467.5,-445"/>
<text text-anchor="middle" x="473.5" y="-456.8" font-family="Times,serif" font-size="14.00" fill="#c000a5">wr</text>
</g>
<!-- T19483 -->
<g id="node2" class="node">
<title>T19483</title>
<polygon fill="none" stroke="#0058ad" points="187,-243.5 187,-272.5 403,-272.5 403,-243.5 187,-243.5"/>
<text text-anchor="middle" x="221" y="-254.3" font-family="Times,serif" font-size="14.00" fill="#0058ad">r 745 2</text>
<polyline fill="none" stroke="#0058ad" points="255,-243.5 255,-272.5 "/>
<text text-anchor="middle" x="292" y="-254.3" font-family="Times,serif" font-size="14.00" fill="#0058ad">w 745 4</text>
<polyline fill="none" stroke="#0058ad" points="329,-243.5 329,-272.5 "/>
<text text-anchor="middle" x="366" y="-254.3" font-family="Times,serif" font-size="14.00" fill="#0058ad">w 745 5</text>
</g>
<!-- T19492 -->
<g id="node6" class="node">
<title>T19492</title>
<polygon fill="none" stroke="#0058ad" points="255.5,-162.5 255.5,-191.5 542.5,-191.5 542.5,-162.5 255.5,-162.5"/>
<text text-anchor="middle" x="294" y="-173.3" font-family="Times,serif" font-size="14.00" fill="#0058ad">r 744 nil</text>
<polyline fill="none" stroke="#0058ad" points="332.5,-162.5 332.5,-191.5 "/>
<text text-anchor="middle" x="366.5" y="-173.3" font-family="Times,serif" font-size="14.00" fill="#0058ad">r 745 5</text>
<polyline fill="none" stroke="#0058ad" points="400.5,-162.5 400.5,-191.5 "/>
<text text-anchor="middle" x="437.5" y="-173.3" font-family="Times,serif" font-size="14.00" fill="#0058ad">w 745 7</text>
<polyline fill="none" stroke="#0058ad" points="474.5,-162.5 474.5,-191.5 "/>
<text text-anchor="middle" x="508.5" y="-173.3" font-family="Times,serif" font-size="14.00" fill="#0058ad">r 745 7</text>
</g>
<!-- T19483&#45;&gt;T19492 -->
<g id="edge2" class="edge">
<title>T19483:f2&#45;&gt;T19492:f1</title>
<path fill="none" stroke="#c000a5" d="M366,-243C366,-224.23 366,-217.12 366,-202.35"/>
<polygon fill="#c000a5" stroke="#c000a5" points="369.5,-202 366,-192 362.5,-202 369.5,-202"/>
<text text-anchor="middle" x="375.5" y="-213.8" font-family="Times,serif" font-size="14.00" fill="#c000a5">wr</text>
</g>
<!-- T19477 -->
<g id="node3" class="node">
<title>T19477</title>
<polygon fill="none" stroke="#0058ad" points="130.5,-324.5 130.5,-353.5 355.5,-353.5 355.5,-324.5 130.5,-324.5"/>
<text text-anchor="middle" x="167.5" y="-335.3" font-family="Times,serif" font-size="14.00" fill="#0058ad">w 745 2</text>
<polyline fill="none" stroke="#0058ad" points="204.5,-324.5 204.5,-353.5 "/>
<text text-anchor="middle" x="246" y="-335.3" font-family="Times,serif" font-size="14.00" fill="#0058ad">w 739 14</text>
<polyline fill="none" stroke="#0058ad" points="287.5,-324.5 287.5,-353.5 "/>
<text text-anchor="middle" x="321.5" y="-335.3" font-family="Times,serif" font-size="14.00" fill="#0058ad">r 745 2</text>
</g>
<!-- T19477&#45;&gt;T19483 -->
<g id="edge3" class="edge">
<title>T19477:f0&#45;&gt;T19483:f0</title>
<path fill="none" stroke="#c000a5" d="M167,-324C167,-294.99 208.71,-303.08 218.82,-283.05"/>
<polygon fill="#c000a5" stroke="#c000a5" points="222.3,-283.52 221,-273 215.46,-282.03 222.3,-283.52"/>
<text text-anchor="middle" x="219.5" y="-294.8" font-family="Times,serif" font-size="14.00" fill="#c000a5">wr</text>
</g>
<!-- T19451 -->
<g id="node4" class="node">
<title>T19451</title>
<polygon fill="none" stroke="#0058ad" points="654,-162.5 654,-191.5 956,-191.5 956,-162.5 654,-162.5"/>
<text text-anchor="middle" x="692.5" y="-173.3" font-family="Times,serif" font-size="14.00" fill="#0058ad">r 739 10</text>
<polyline fill="none" stroke="#0058ad" points="731,-162.5 731,-191.5 "/>
<text text-anchor="middle" x="769.5" y="-173.3" font-family="Times,serif" font-size="14.00" fill="#0058ad">r 744 nil</text>
<polyline fill="none" stroke="#0058ad" points="808,-162.5 808,-191.5 "/>
<text text-anchor="middle" x="845" y="-173.3" font-family="Times,serif" font-size="14.00" fill="#0058ad">w 735 3</text>
<polyline fill="none" stroke="#0058ad" points="882,-162.5 882,-191.5 "/>
<text text-anchor="middle" x="919" y="-173.3" font-family="Times,serif" font-size="14.00" fill="#0058ad">w 743 6</text>
</g>
<!-- T19451&#45;&gt;T19455 -->
<g id="edge5" class="edge">
<title>T19451:f1&#45;&gt;T19455:f1</title>
<path fill="none" stroke="#5b00c0" d="M769,-192C769,-214.14 846.06,-202.79 867,-210 909.67,-224.68 957,-211.87 957,-257 957,-421 957,-421 957,-421 957,-469.72 593.29,-498.03 512.45,-500.78"/>
<polygon fill="#5b00c0" stroke="#5b00c0" points="511.92,-497.29 502,-501 512.07,-504.29 511.92,-497.29"/>
<text text-anchor="middle" x="966.5" y="-335.3" font-family="Times,serif" font-size="14.00" fill="#5b00c0">rw</text>
</g>
<!-- T19520 -->
<g id="node11" class="node">
<title>T19520</title>
<polygon fill="none" stroke="#0058ad" points="377.5,-0.5 377.5,-29.5 596.5,-29.5 596.5,-0.5 377.5,-0.5"/>
<text text-anchor="middle" x="416" y="-11.3" font-family="Times,serif" font-size="14.00" fill="#0058ad">r 744 nil</text>
<polyline fill="none" stroke="#0058ad" points="454.5,-0.5 454.5,-29.5 "/>
<text text-anchor="middle" x="491.5" y="-11.3" font-family="Times,serif" font-size="14.00" fill="#0058ad">w 744 5</text>
<polyline fill="none" stroke="#0058ad" points="528.5,-0.5 528.5,-29.5 "/>
<text text-anchor="middle" x="562.5" y="-11.3" font-family="Times,serif" font-size="14.00" fill="#0058ad">r 744 5</text>
</g>
<!-- T19451&#45;&gt;T19520 -->
<g id="edge4" class="edge">
<title>T19451:f1&#45;&gt;T19520:f1</title>
<path fill="none" stroke="#5b00c0" d="M769,-162C769,-85.49 709.79,-79.37 640,-48 613.32,-36.01 518.4,-56.98 496.52,-39.27"/>
<polygon fill="#5b00c0" stroke="#5b00c0" points="499.53,-37.45 492,-30 493.24,-40.52 499.53,-37.45"/>
<text text-anchor="middle" x="763.5" y="-92.3" font-family="Times,serif" font-size="14.00" fill="#5b00c0">rw</text>
</g>
<!-- T19497 -->
<g id="node5" class="node">
<title>T19497</title>
<polygon fill="none" stroke="#0058ad" points="223.5,-81.5 223.5,-110.5 368.5,-110.5 368.5,-81.5 223.5,-81.5"/>
<text text-anchor="middle" x="262" y="-92.3" font-family="Times,serif" font-size="14.00" fill="#0058ad">r 744 nil</text>
<polyline fill="none" stroke="#0058ad" points="300.5,-81.5 300.5,-110.5 "/>
<text text-anchor="middle" x="334.5" y="-92.3" font-family="Times,serif" font-size="14.00" fill="#0058ad">r 745 7</text>
</g>
<!-- T19497&#45;&gt;T19455 -->
<g id="edge7" class="edge">
<title>T19497:f0&#45;&gt;T19455:f1</title>
<path fill="none" stroke="#5b00c0" d="M222,-96C179.24,-96 47,-133.24 47,-176 47,-421 47,-421 47,-421 47,-465.34 92.3,-456.06 135,-468 150.84,-472.43 403.78,-468.65 455,-481.12"/>
<polygon fill="#5b00c0" stroke="#5b00c0" points="453.54,-484.31 464,-486 456.88,-478.15 453.54,-484.31"/>
<text text-anchor="middle" x="56.5" y="-294.8" font-family="Times,serif" font-size="14.00" fill="#5b00c0">rw</text>
</g>
<!-- T19497&#45;&gt;T19520 -->
<g id="edge6" class="edge">
<title>T19497:f0&#45;&gt;T19520:f1</title>
<path fill="none" stroke="#5b00c0" d="M262,-81C262,-29.96 322.19,-59.15 372,-48 394.72,-42.92 467.64,-53.29 487.16,-38.87"/>
<polygon fill="#5b00c0" stroke="#5b00c0" points="490.28,-40.45 492,-30 484.14,-37.1 490.28,-40.45"/>
<text text-anchor="middle" x="381.5" y="-51.8" font-family="Times,serif" font-size="14.00" fill="#5b00c0">rw</text>
</g>
<!-- T19492&#45;&gt;T19455 -->
<g id="edge10" class="edge">
<title>T19492:f0&#45;&gt;T19455:f1</title>
<path fill="none" stroke="#5b00c0" d="M254,-177C174.1,-177 93,-177.1 93,-257 93,-421 93,-421 93,-421 93,-500.94 431.42,-411.12 461.82,-475.81"/>
<polygon fill="#5b00c0" stroke="#5b00c0" points="458.49,-476.95 464,-486 465.33,-475.49 458.49,-476.95"/>
<text text-anchor="middle" x="102.5" y="-335.3" font-family="Times,serif" font-size="14.00" fill="#5b00c0">rw</text>
</g>
<!-- T19492&#45;&gt;T19497 -->
<g id="edge8" class="edge">
<title>T19492:f2&#45;&gt;T19497:f1</title>
<path fill="none" stroke="#c000a5" d="M438,-162C438,-128.66 406.17,-134.96 383,-111 380.32,-108.23 379.18,-105.01 378.02,-102.27"/>
<polygon fill="#c000a5" stroke="#c000a5" points="380.03,-99.4 370,-96 375.72,-104.92 380.03,-99.4"/>
<text text-anchor="middle" x="442.5" y="-132.8" font-family="Times,serif" font-size="14.00" fill="#c000a5">wr</text>
</g>
<!-- T19492&#45;&gt;T19520 -->
<g id="edge9" class="edge">
<title>T19492:f0&#45;&gt;T19520:f1</title>
<path fill="none" stroke="#5b00c0" d="M294,-162C294,-118.32 341.51,-135 378,-111 426.89,-78.85 484.76,-90.53 491.38,-40.15"/>
<polygon fill="#5b00c0" stroke="#5b00c0" points="494.88,-40.2 492,-30 487.89,-39.77 494.88,-40.2"/>
<text text-anchor="middle" x="463.5" y="-92.3" font-family="Times,serif" font-size="14.00" fill="#5b00c0">rw</text>
</g>
<!-- T19513 -->
<g id="node7" class="node">
<title>T19513</title>
<polygon fill="none" stroke="#0058ad" points="467.5,-324.5 467.5,-353.5 704.5,-353.5 704.5,-324.5 467.5,-324.5"/>
<text text-anchor="middle" x="509" y="-335.3" font-family="Times,serif" font-size="14.00" fill="#0058ad">w 745 15</text>
<polyline fill="none" stroke="#0058ad" points="550.5,-324.5 550.5,-353.5 "/>
<text text-anchor="middle" x="589" y="-335.3" font-family="Times,serif" font-size="14.00" fill="#0058ad">r 744 nil</text>
<polyline fill="none" stroke="#0058ad" points="627.5,-324.5 627.5,-353.5 "/>
<text text-anchor="middle" x="666" y="-335.3" font-family="Times,serif" font-size="14.00" fill="#0058ad">r 745 15</text>
</g>
<!-- T19513&#45;&gt;T19455 -->
<g id="edge12" class="edge">
<title>T19513:f1&#45;&gt;T19455:f1</title>
<path fill="none" stroke="#5b00c0" d="M589,-354C589,-389.34 635.04,-372.99 650,-405 655.65,-417.08 657.26,-423.82 650,-435 612.71,-492.46 577.62,-500.32 512.3,-500.95"/>
<polygon fill="#5b00c0" stroke="#5b00c0" points="511.98,-497.46 502,-501 512.02,-504.46 511.98,-497.46"/>
<text text-anchor="middle" x="663.5" y="-416.3" font-family="Times,serif" font-size="14.00" fill="#5b00c0">rw</text>
</g>
<!-- T19513&#45;&gt;T19520 -->
<g id="edge11" class="edge">
<title>T19513:f1&#45;&gt;T19520:f1</title>
<path fill="none" stroke="#5b00c0" d="M589,-324C589,-294.77 579,-288.23 579,-259 579,-259 579,-259 579,-95 579,-74.07 513.57,-58.71 496.2,-39.26"/>
<polygon fill="#5b00c0" stroke="#5b00c0" points="499.32,-37.66 492,-30 492.94,-40.55 499.32,-37.66"/>
<text text-anchor="middle" x="588.5" y="-173.3" font-family="Times,serif" font-size="14.00" fill="#5b00c0">rw</text>
</g>
<!-- T19475&#45;&gt;T19483 -->
<g id="edge17" class="edge">
<title>T19475:f0&#45;&gt;T19483:f2</title>
<path fill="none" stroke="#5b00c0" d="M392,-405C392,-348.71 368.96,-334.41 366.26,-283.04"/>
<polygon fill="#5b00c0" stroke="#5b00c0" points="369.76,-282.91 366,-273 362.76,-283.09 369.76,-282.91"/>
<text text-anchor="middle" x="393.5" y="-335.3" font-family="Times,serif" font-size="14.00" fill="#5b00c0">rw</text>
</g>
<!-- T19475&#45;&gt;T19477 -->
<g id="edge15" class="edge">
<title>T19475:f0&#45;&gt;T19477:f0</title>
<path fill="none" stroke="#5b00c0" d="M352,-420C311.76,-420 188.49,-401 169.47,-363.84"/>
<polygon fill="#5b00c0" stroke="#5b00c0" points="172.83,-362.84 167,-354 166.04,-364.55 172.83,-362.84"/>
<text text-anchor="middle" x="203.5" y="-375.8" font-family="Times,serif" font-size="14.00" fill="#5b00c0">rw</text>
</g>
<!-- T19475&#45;&gt;T19492 -->
<g id="edge14" class="edge">
<title>T19475:f0&#45;&gt;T19492:f2</title>
<path fill="none" stroke="#5b00c0" d="M392,-405C392,-395.39 400.43,-395.93 404,-387 435.38,-308.5 437.85,-282.04 437.99,-202.03"/>
<polygon fill="#5b00c0" stroke="#5b00c0" points="441.49,-202 438,-192 434.49,-202 441.49,-202"/>
<text text-anchor="middle" x="442.5" y="-294.8" font-family="Times,serif" font-size="14.00" fill="#5b00c0">rw</text>
</g>
<!-- T19475&#45;&gt;T19513 -->
<g id="edge13" class="edge">
<title>T19475:f0&#45;&gt;T19513:f0</title>
<path fill="none" stroke="#5b00c0" d="M392,-405C392,-376.73 427.07,-398.26 453,-387 475.77,-377.11 500.76,-381.18 507.34,-364.19"/>
<polygon fill="#5b00c0" stroke="#5b00c0" points="510.85,-364.43 509,-354 503.94,-363.31 510.85,-364.43"/>
<text text-anchor="middle" x="510.5" y="-375.8" font-family="Times,serif" font-size="14.00" fill="#5b00c0">rw</text>
</g>
<!-- T19503 -->
<g id="node10" class="node">
<title>T19503</title>
<polygon fill="none" stroke="#0058ad" points="723,-324.5 723,-353.5 883,-353.5 883,-324.5 723,-324.5"/>
<text text-anchor="middle" x="764.5" y="-335.3" font-family="Times,serif" font-size="14.00" fill="#0058ad">w 745 13</text>
<polyline fill="none" stroke="#0058ad" points="806,-324.5 806,-353.5 "/>
<text text-anchor="middle" x="844.5" y="-335.3" font-family="Times,serif" font-size="14.00" fill="#0058ad">r 745 13</text>
</g>
<!-- T19475&#45;&gt;T19503 -->
<g id="edge16" class="edge">
<title>T19475:f0&#45;&gt;T19503:f0</title>
<path fill="none" stroke="#5b00c0" d="M392,-405C392,-390.2 509.33,-389.01 524,-387 573.69,-380.2 739.1,-404.15 761.49,-363.93"/>
<polygon fill="#5b00c0" stroke="#5b00c0" points="764.94,-364.55 764,-354 758.15,-362.83 764.94,-364.55"/>
<text text-anchor="middle" x="762.5" y="-375.8" font-family="Times,serif" font-size="14.00" fill="#5b00c0">rw</text>
</g>
<!-- T19509 -->
<g id="node9" class="node">
<title>T19509</title>
<polygon fill="none" stroke="#0058ad" points="650.5,-243.5 650.5,-272.5 881.5,-272.5 881.5,-243.5 650.5,-243.5"/>
<text text-anchor="middle" x="689" y="-254.3" font-family="Times,serif" font-size="14.00" fill="#0058ad">r 744 nil</text>
<polyline fill="none" stroke="#0058ad" points="727.5,-243.5 727.5,-272.5 "/>
<text text-anchor="middle" x="766" y="-254.3" font-family="Times,serif" font-size="14.00" fill="#0058ad">r 745 13</text>
<polyline fill="none" stroke="#0058ad" points="804.5,-243.5 804.5,-272.5 "/>
<text text-anchor="middle" x="843" y="-254.3" font-family="Times,serif" font-size="14.00" fill="#0058ad">r 735 nil</text>
</g>
<!-- T19509&#45;&gt;T19455 -->
<g id="edge19" class="edge">
<title>T19509:f0&#45;&gt;T19455:f1</title>
<path fill="none" stroke="#5b00c0" d="M689,-273C689,-295.36 766.3,-285.61 788,-291 808.8,-296.17 939.34,-280.13 892,-354 843.73,-429.31 611.3,-496.27 512.03,-500.76"/>
<polygon fill="#5b00c0" stroke="#5b00c0" points="511.91,-497.26 502,-501 512.08,-504.26 511.91,-497.26"/>
<text text-anchor="middle" x="884.5" y="-375.8" font-family="Times,serif" font-size="14.00" fill="#5b00c0">rw</text>
</g>
<!-- T19509&#45;&gt;T19451 -->
<g id="edge18" class="edge">
<title>T19509:f2&#45;&gt;T19451:f2</title>
<path fill="none" stroke="#5b00c0" d="M843,-243C843,-224.21 844.37,-217.12 844.84,-202.36"/>
<polygon fill="#5b00c0" stroke="#5b00c0" points="848.35,-202.05 845,-192 841.35,-201.95 848.35,-202.05"/>
<text text-anchor="middle" x="853.5" y="-213.8" font-family="Times,serif" font-size="14.00" fill="#5b00c0">rw</text>
</g>
<!-- T19509&#45;&gt;T19520 -->
<g id="edge20" class="edge">
<title>T19509:f0&#45;&gt;T19520:f1</title>
<path fill="none" stroke="#5b00c0" d="M649,-258C552.41,-258 664.12,-113.37 593,-48 578.97,-35.1 517.82,-47.12 498.13,-38.09"/>
<polygon fill="#5b00c0" stroke="#5b00c0" points="500.83,-35.86 492,-30 495.25,-40.08 500.83,-35.86"/>
<text text-anchor="middle" x="626.5" y="-132.8" font-family="Times,serif" font-size="14.00" fill="#5b00c0">rw</text>
</g>
<!-- T19503&#45;&gt;T19509 -->
<g id="edge21" class="edge">
<title>T19503:f0&#45;&gt;T19509:f1</title>
<path fill="none" stroke="#c000a5" d="M764,-324C764,-305.21 765.37,-298.12 765.84,-283.36"/>
<polygon fill="#c000a5" stroke="#c000a5" points="769.35,-283.05 766,-273 762.35,-282.95 769.35,-283.05"/>
<text text-anchor="middle" x="774.5" y="-294.8" font-family="Times,serif" font-size="14.00" fill="#c000a5">wr</text>
</g>
<!-- T19520&#45;&gt;T19455 -->
<g id="edge22" class="edge">
<title>T19520:f0&#45;&gt;T19455:f1</title>
<path fill="none" stroke="#5b00c0" d="M376,-15C333.29,-15 0,-52.29 0,-95 0,-421 0,-421 0,-421 0,-455.58 29.48,-456.25 62,-468 81.14,-474.91 398.45,-465.63 455.31,-480.77"/>
<polygon fill="#5b00c0" stroke="#5b00c0" points="453.63,-483.84 464,-486 457.24,-477.84 453.63,-483.84"/>
<text text-anchor="middle" x="9.5" y="-254.3" font-family="Times,serif" font-size="14.00" fill="#5b00c0">rw</text>
</g>
</g>
</svg>
