<?xml version="1.0" encoding="UTF-8" standalone="no"?>
<!DOCTYPE svg PUBLIC "-//W3C//DTD SVG 1.1//EN"
 "http://www.w3.org/Graphics/SVG/1.1/DTD/svg11.dtd">
<!-- Generated by graphviz version 2.43.0 (0)
 -->
<!-- Title: a_graph Pages: 1 -->
<svg width="350pt" height="119pt"
 viewBox="0.00 0.00 350.00 119.00" xmlns="http://www.w3.org/2000/svg" xmlns:xlink="http://www.w3.org/1999/xlink">
<g id="graph0" class="graph" transform="scale(1 1) rotate(0) translate(4 115)">
<title>a_graph</title>
<polygon fill="white" stroke="transparent" points="-4,4 -4,-115 346,-115 346,4 -4,4"/>
<!-- T18665 -->
<g id="node1" class="node">
<title>T18665</title>
<polygon fill="none" stroke="#0058ad" points="117,-81.5 117,-110.5 342,-110.5 342,-81.5 117,-81.5"/>
<text text-anchor="middle" x="155.5" y="-92.3" font-family="Times,serif" font-size="14.00" fill="#0058ad">r 714 nil</text>
<polyline fill="none" stroke="#0058ad" points="194,-81.5 194,-110.5 "/>
<text text-anchor="middle" x="231" y="-92.3" font-family="Times,serif" font-size="14.00" fill="#0058ad">w 713 5</text>
<polyline fill="none" stroke="#0058ad" points="268,-81.5 268,-110.5 "/>
<text text-anchor="middle" x="305" y="-92.3" font-family="Times,serif" font-size="14.00" fill="#0058ad">w 714 2</text>
</g>
<!-- T18663 -->
<g id="node2" class="node">
<title>T18663</title>
<polygon fill="none" stroke="#0058ad" points="0,-0.5 0,-29.5 305,-29.5 305,-0.5 0,-0.5"/>
<text text-anchor="middle" x="38.5" y="-11.3" font-family="Times,serif" font-size="14.00" fill="#0058ad">r 712 16</text>
<polyline fill="none" stroke="#0058ad" points="77,-0.5 77,-29.5 "/>
<text text-anchor="middle" x="115.5" y="-11.3" font-family="Times,serif" font-size="14.00" fill="#0058ad">r 708 11</text>
<polyline fill="none" stroke="#0058ad" points="154,-0.5 154,-29.5 "/>
<text text-anchor="middle" x="192.5" y="-11.3" font-family="Times,serif" font-size="14.00" fill="#0058ad">r 714 nil</text>
<polyline fill="none" stroke="#0058ad" points="231,-0.5 231,-29.5 "/>
<text text-anchor="middle" x="268" y="-11.3" font-family="Times,serif" font-size="14.00" fill="#0058ad">w 714 1</text>
</g>
<!-- T18665&#45;&gt;T18663 -->
<g id="edge1" class="edge">
<title>T18665:f0&#45;&gt;T18663:f3</title>
<path fill="none" stroke="#5b00c0" d="M155.5,-81C155.5,-69.38 235.95,-50.87 261.09,-37.09"/>
<polygon fill="#5b00c0" stroke="#5b00c0" points="263.69,-39.44 268.5,-30 258.85,-34.38 263.69,-39.44"/>
<text text-anchor="middle" x="241" y="-51.8" font-family="Times,serif" font-size="14.00" fill="#5b00c0">rw</text>
</g>
<!-- T18663&#45;&gt;T18665 -->
<g id="edge2" class="edge">
<title>T18663:f2&#45;&gt;T18665:f2</title>
<path fill="none" stroke="#5b00c0" d="M192.5,-30C192.5,-58.69 228.4,-36.08 254.5,-48 275.41,-57.55 297.69,-55.19 303.84,-70.95"/>
<polygon fill="#5b00c0" stroke="#5b00c0" points="300.42,-71.7 305.5,-81 307.33,-70.56 300.42,-71.7"/>
<text text-anchor="middle" x="306" y="-51.8" font-family="Times,serif" font-size="14.00" fill="#5b00c0">rw</text>
</g>
</g>
</svg>
