<?xml version="1.0" encoding="UTF-8" standalone="no"?>
<!DOCTYPE svg PUBLIC "-//W3C//DTD SVG 1.1//EN"
 "http://www.w3.org/Graphics/SVG/1.1/DTD/svg11.dtd">
<!-- Generated by graphviz version 2.43.0 (0)
 -->
<!-- Title: a_graph Pages: 1 -->
<svg width="477pt" height="281pt"
 viewBox="0.00 0.00 477.00 281.00" xmlns="http://www.w3.org/2000/svg" xmlns:xlink="http://www.w3.org/1999/xlink">
<g id="graph0" class="graph" transform="scale(1 1) rotate(0) translate(4 277)">
<title>a_graph</title>
<polygon fill="white" stroke="transparent" points="-4,4 -4,-277 473,-277 473,4 -4,4"/>
<!-- T12240 -->
<g id="node1" class="node">
<title>T12240</title>
<polygon fill="none" stroke="#0058ad" points="164,-243.5 164,-272.5 469,-272.5 469,-243.5 164,-243.5"/>
<text text-anchor="middle" x="205.5" y="-254.3" font-family="Times,serif" font-size="14.00" fill="#0058ad">w 468 13</text>
<polyline fill="none" stroke="#0058ad" points="247,-243.5 247,-272.5 "/>
<text text-anchor="middle" x="285.5" y="-254.3" font-family="Times,serif" font-size="14.00" fill="#0058ad">r 464 11</text>
<polyline fill="none" stroke="#0058ad" points="324,-243.5 324,-272.5 "/>
<text text-anchor="middle" x="362.5" y="-254.3" font-family="Times,serif" font-size="14.00" fill="#0058ad">r 466 nil</text>
<polyline fill="none" stroke="#0058ad" points="401,-243.5 401,-272.5 "/>
<text text-anchor="middle" x="435" y="-254.3" font-family="Times,serif" font-size="14.00" fill="#0058ad">r 469 2</text>
</g>
<!-- T12182 -->
<g id="node2" class="node">
<title>T12182</title>
<polygon fill="none" stroke="#0058ad" points="180,-162.5 180,-191.5 467,-191.5 467,-162.5 180,-162.5"/>
<text text-anchor="middle" x="218.5" y="-173.3" font-family="Times,serif" font-size="14.00" fill="#0058ad">r 468 nil</text>
<polyline fill="none" stroke="#0058ad" points="257,-162.5 257,-191.5 "/>
<text text-anchor="middle" x="291" y="-173.3" font-family="Times,serif" font-size="14.00" fill="#0058ad">r 467 5</text>
<polyline fill="none" stroke="#0058ad" points="325,-162.5 325,-191.5 "/>
<text text-anchor="middle" x="362" y="-173.3" font-family="Times,serif" font-size="14.00" fill="#0058ad">w 466 1</text>
<polyline fill="none" stroke="#0058ad" points="399,-162.5 399,-191.5 "/>
<text text-anchor="middle" x="433" y="-173.3" font-family="Times,serif" font-size="14.00" fill="#0058ad">r 461 2</text>
</g>
<!-- T12240&#45;&gt;T12182 -->
<g id="edge1" class="edge">
<title>T12240:f2&#45;&gt;T12182:f2</title>
<path fill="none" stroke="#5b00c0" d="M362.5,-243C362.5,-224.23 362.5,-217.12 362.5,-202.35"/>
<polygon fill="#5b00c0" stroke="#5b00c0" points="366,-202 362.5,-192 359,-202 366,-202"/>
<text text-anchor="middle" x="372" y="-213.8" font-family="Times,serif" font-size="14.00" fill="#5b00c0">rw</text>
</g>
<!-- T12182&#45;&gt;T12240 -->
<g id="edge3" class="edge">
<title>T12182:f0&#45;&gt;T12240:f0</title>
<path fill="none" stroke="#5b00c0" d="M218.5,-192C218.5,-211.55 209.42,-217.71 206.43,-232.87"/>
<polygon fill="#5b00c0" stroke="#5b00c0" points="202.93,-232.72 205.5,-243 209.9,-233.36 202.93,-232.72"/>
<text text-anchor="middle" x="225" y="-213.8" font-family="Times,serif" font-size="14.00" fill="#5b00c0">rw</text>
</g>
<!-- T12221 -->
<g id="node3" class="node">
<title>T12221</title>
<polygon fill="none" stroke="#0058ad" points="221,-0.5 221,-29.5 372,-29.5 372,-0.5 221,-0.5"/>
<text text-anchor="middle" x="259.5" y="-11.3" font-family="Times,serif" font-size="14.00" fill="#0058ad">r 466 nil</text>
<polyline fill="none" stroke="#0058ad" points="298,-0.5 298,-29.5 "/>
<text text-anchor="middle" x="335" y="-11.3" font-family="Times,serif" font-size="14.00" fill="#0058ad">w 468 9</text>
</g>
<!-- T12182&#45;&gt;T12221 -->
<g id="edge2" class="edge">
<title>T12182:f0&#45;&gt;T12221:f1</title>
<path fill="none" stroke="#5b00c0" d="M218.5,-162C218.5,-116.02 279.29,-146.5 308.5,-111 330.35,-84.44 334.77,-70.66 335.41,-40.07"/>
<polygon fill="#5b00c0" stroke="#5b00c0" points="338.91,-40.03 335.5,-30 331.91,-39.97 338.91,-40.03"/>
<text text-anchor="middle" x="337" y="-92.3" font-family="Times,serif" font-size="14.00" fill="#5b00c0">rw</text>
</g>
<!-- T12175 -->
<g id="node4" class="node">
<title>T12175</title>
<polygon fill="none" stroke="#0058ad" points="0,-81.5 0,-110.5 299,-110.5 299,-81.5 0,-81.5"/>
<text text-anchor="middle" x="38.5" y="-92.3" font-family="Times,serif" font-size="14.00" fill="#0058ad">r 468 nil</text>
<polyline fill="none" stroke="#0058ad" points="77,-81.5 77,-110.5 "/>
<text text-anchor="middle" x="114" y="-92.3" font-family="Times,serif" font-size="14.00" fill="#0058ad">w 468 1</text>
<polyline fill="none" stroke="#0058ad" points="151,-81.5 151,-110.5 "/>
<text text-anchor="middle" x="188" y="-92.3" font-family="Times,serif" font-size="14.00" fill="#0058ad">w 461 6</text>
<polyline fill="none" stroke="#0058ad" points="225,-81.5 225,-110.5 "/>
<text text-anchor="middle" x="262" y="-92.3" font-family="Times,serif" font-size="14.00" fill="#0058ad">w 467 4</text>
</g>
<!-- T12182&#45;&gt;T12175 -->
<g id="edge4" class="edge">
<title>T12182:f0&#45;&gt;T12175:f1</title>
<path fill="none" stroke="#5b00c0" d="M178.5,-177C140.87,-177 117.72,-156.25 114.02,-121.25"/>
<polygon fill="#5b00c0" stroke="#5b00c0" points="117.51,-120.81 113.5,-111 110.52,-121.17 117.51,-120.81"/>
<text text-anchor="middle" x="130" y="-132.8" font-family="Times,serif" font-size="14.00" fill="#5b00c0">rw</text>
</g>
<!-- T12221&#45;&gt;T12182 -->
<g id="edge5" class="edge">
<title>T12221:f0&#45;&gt;T12182:f2</title>
<path fill="none" stroke="#5b00c0" d="M259.5,-30C259.5,-69.92 320.29,-18.79 347.5,-48 379.95,-82.84 364.96,-107.35 362.75,-151.87"/>
<polygon fill="#5b00c0" stroke="#5b00c0" points="359.25,-151.92 362.5,-162 366.25,-152.09 359.25,-151.92"/>
<text text-anchor="middle" x="377" y="-92.3" font-family="Times,serif" font-size="14.00" fill="#5b00c0">rw</text>
</g>
<!-- T12175&#45;&gt;T12240 -->
<g id="edge7" class="edge">
<title>T12175:f0&#45;&gt;T12240:f0</title>
<path fill="none" stroke="#5b00c0" d="M38.5,-111C38.5,-192.97 73.93,-252.91 152.22,-257.69"/>
<polygon fill="#5b00c0" stroke="#5b00c0" points="152.4,-261.2 162.5,-258 152.61,-254.2 152.4,-261.2"/>
<text text-anchor="middle" x="63" y="-173.3" font-family="Times,serif" font-size="14.00" fill="#5b00c0">rw</text>
</g>
<!-- T12175&#45;&gt;T12221 -->
<g id="edge6" class="edge">
<title>T12175:f0&#45;&gt;T12221:f1</title>
<path fill="none" stroke="#5b00c0" d="M38.5,-81C38.5,-50.46 285.59,-61.06 329.02,-37.75"/>
<polygon fill="#5b00c0" stroke="#5b00c0" points="331.77,-39.92 335.5,-30 326.4,-35.43 331.77,-39.92"/>
<text text-anchor="middle" x="288" y="-51.8" font-family="Times,serif" font-size="14.00" fill="#5b00c0">rw</text>
</g>
</g>
</svg>
