<?xml version="1.0" encoding="UTF-8" standalone="no"?>
<!DOCTYPE svg PUBLIC "-//W3C//DTD SVG 1.1//EN"
 "http://www.w3.org/Graphics/SVG/1.1/DTD/svg11.dtd">
<!-- Generated by graphviz version 2.43.0 (0)
 -->
<!-- Title: a_graph Pages: 1 -->
<svg width="567pt" height="686pt"
 viewBox="0.00 0.00 567.00 686.00" xmlns="http://www.w3.org/2000/svg" xmlns:xlink="http://www.w3.org/1999/xlink">
<g id="graph0" class="graph" transform="scale(1 1) rotate(0) translate(4 682)">
<title>a_graph</title>
<polygon fill="white" stroke="transparent" points="-4,4 -4,-682 563,-682 563,4 -4,4"/>
<!-- T24577 -->
<g id="node1" class="node">
<title>T24577</title>
<polygon fill="none" stroke="#0058ad" points="245,-648.5 245,-677.5 559,-677.5 559,-648.5 245,-648.5"/>
<text text-anchor="middle" x="283.5" y="-659.3" font-family="Times,serif" font-size="14.00" fill="#0058ad">r 935 11</text>
<polyline fill="none" stroke="#0058ad" points="322,-648.5 322,-677.5 "/>
<text text-anchor="middle" x="360.5" y="-659.3" font-family="Times,serif" font-size="14.00" fill="#0058ad">r 935 11</text>
<polyline fill="none" stroke="#0058ad" points="399,-648.5 399,-677.5 "/>
<text text-anchor="middle" x="440.5" y="-659.3" font-family="Times,serif" font-size="14.00" fill="#0058ad">w 935 16</text>
<polyline fill="none" stroke="#0058ad" points="482,-648.5 482,-677.5 "/>
<text text-anchor="middle" x="520.5" y="-659.3" font-family="Times,serif" font-size="14.00" fill="#0058ad">r 933 nil</text>
</g>
<!-- T24532 -->
<g id="node3" class="node">
<title>T24532</title>
<polygon fill="none" stroke="#0058ad" points="0,-567.5 0,-596.5 296,-596.5 296,-567.5 0,-567.5"/>
<text text-anchor="middle" x="34" y="-578.3" font-family="Times,serif" font-size="14.00" fill="#0058ad">r 922 8</text>
<polyline fill="none" stroke="#0058ad" points="68,-567.5 68,-596.5 "/>
<text text-anchor="middle" x="105" y="-578.3" font-family="Times,serif" font-size="14.00" fill="#0058ad">w 933 2</text>
<polyline fill="none" stroke="#0058ad" points="142,-567.5 142,-596.5 "/>
<text text-anchor="middle" x="180.5" y="-578.3" font-family="Times,serif" font-size="14.00" fill="#0058ad">r 935 nil</text>
<polyline fill="none" stroke="#0058ad" points="219,-567.5 219,-596.5 "/>
<text text-anchor="middle" x="257.5" y="-578.3" font-family="Times,serif" font-size="14.00" fill="#0058ad">r 935 nil</text>
</g>
<!-- T24577&#45;&gt;T24532 -->
<g id="edge2" class="edge">
<title>T24577:f3&#45;&gt;T24532:f1</title>
<path fill="none" stroke="#5b00c0" d="M521,-648C521,-622.57 431.73,-639.15 408,-630 396.61,-625.61 396.58,-618.85 385,-615 358.31,-606.12 151.8,-623.99 111.73,-604.66"/>
<polygon fill="#5b00c0" stroke="#5b00c0" points="114.23,-602.21 105,-597 108.97,-606.82 114.23,-602.21"/>
<text text-anchor="middle" x="417.5" y="-618.8" font-family="Times,serif" font-size="14.00" fill="#5b00c0">rw</text>
</g>
<!-- T24515 -->
<g id="node5" class="node">
<title>T24515</title>
<polygon fill="none" stroke="#0058ad" points="65.5,-162.5 65.5,-191.5 290.5,-191.5 290.5,-162.5 65.5,-162.5"/>
<text text-anchor="middle" x="102.5" y="-173.3" font-family="Times,serif" font-size="14.00" fill="#0058ad">w 933 1</text>
<polyline fill="none" stroke="#0058ad" points="139.5,-162.5 139.5,-191.5 "/>
<text text-anchor="middle" x="173.5" y="-173.3" font-family="Times,serif" font-size="14.00" fill="#0058ad">r 932 9</text>
<polyline fill="none" stroke="#0058ad" points="207.5,-162.5 207.5,-191.5 "/>
<text text-anchor="middle" x="249" y="-173.3" font-family="Times,serif" font-size="14.00" fill="#0058ad">w 932 12</text>
</g>
<!-- T24577&#45;&gt;T24515 -->
<g id="edge1" class="edge">
<title>T24577:f3&#45;&gt;T24515:f0</title>
<path fill="none" stroke="#5b00c0" d="M521,-648C521,-619.06 525,-611.94 525,-583 525,-583 525,-583 525,-257 525,-212.61 156.31,-235.9 107.35,-200.49"/>
<polygon fill="#5b00c0" stroke="#5b00c0" points="110.29,-198.6 102,-192 104.37,-202.33 110.29,-198.6"/>
<text text-anchor="middle" x="534.5" y="-416.3" font-family="Times,serif" font-size="14.00" fill="#5b00c0">rw</text>
</g>
<!-- T24525 -->
<g id="node2" class="node">
<title>T24525</title>
<polygon fill="none" stroke="#0058ad" points="52,-0.5 52,-29.5 194,-29.5 194,-0.5 52,-0.5"/>
<text text-anchor="middle" x="89" y="-11.3" font-family="Times,serif" font-size="14.00" fill="#0058ad">w 922 8</text>
<polyline fill="none" stroke="#0058ad" points="126,-0.5 126,-29.5 "/>
<text text-anchor="middle" x="160" y="-11.3" font-family="Times,serif" font-size="14.00" fill="#0058ad">r 934 2</text>
</g>
<!-- T24525&#45;&gt;T24532 -->
<g id="edge3" class="edge">
<title>T24525:f0&#45;&gt;T24532:f0</title>
<path fill="none" stroke="#c000a5" d="M51,-15C14.74,-15 35,-58.74 35,-95 35,-502 35,-502 35,-502 35,-527.17 34.24,-535.89 34.05,-556.81"/>
<polygon fill="#c000a5" stroke="#c000a5" points="30.54,-556.98 34,-567 37.54,-557.02 30.54,-556.98"/>
<text text-anchor="middle" x="44.5" y="-294.8" font-family="Times,serif" font-size="14.00" fill="#c000a5">wr</text>
</g>
<!-- T24532&#45;&gt;T24577 -->
<g id="edge4" class="edge">
<title>T24532:f2&#45;&gt;T24577:f2</title>
<path fill="none" stroke="#5b00c0" d="M181,-597C181,-603.51 384.53,-632.66 431.44,-644.39"/>
<polygon fill="#5b00c0" stroke="#5b00c0" points="430.41,-647.74 441,-648 432.88,-641.2 430.41,-647.74"/>
<text text-anchor="middle" x="358.5" y="-618.8" font-family="Times,serif" font-size="14.00" fill="#5b00c0">rw</text>
</g>
<!-- T24567 -->
<g id="node4" class="node">
<title>T24567</title>
<polygon fill="none" stroke="#0058ad" points="249,-486.5 249,-515.5 409,-515.5 409,-486.5 249,-486.5"/>
<text text-anchor="middle" x="290.5" y="-497.3" font-family="Times,serif" font-size="14.00" fill="#0058ad">w 935 11</text>
<polyline fill="none" stroke="#0058ad" points="332,-486.5 332,-515.5 "/>
<text text-anchor="middle" x="370.5" y="-497.3" font-family="Times,serif" font-size="14.00" fill="#0058ad">r 935 11</text>
</g>
<!-- T24532&#45;&gt;T24567 -->
<g id="edge5" class="edge">
<title>T24532:f2&#45;&gt;T24567:f0</title>
<path fill="none" stroke="#5b00c0" d="M181,-567C181,-528.79 202.06,-505.29 237.6,-501.53"/>
<polygon fill="#5b00c0" stroke="#5b00c0" points="238.19,-505.01 248,-501 237.83,-498.02 238.19,-505.01"/>
<text text-anchor="middle" x="197.5" y="-537.8" font-family="Times,serif" font-size="14.00" fill="#5b00c0">rw</text>
</g>
<!-- T24567&#45;&gt;T24577 -->
<g id="edge7" class="edge">
<title>T24567:f0&#45;&gt;T24577:f0</title>
<path fill="none" stroke="#c000a5" d="M290,-516C290,-539.63 301.63,-543.61 305,-567 306.9,-580.2 307.7,-583.94 305,-597 300.79,-617.4 288.02,-622.11 284.13,-637.91"/>
<polygon fill="#c000a5" stroke="#c000a5" points="280.64,-637.67 283,-648 287.6,-638.45 280.64,-637.67"/>
<text text-anchor="middle" x="315.5" y="-578.3" font-family="Times,serif" font-size="14.00" fill="#c000a5">wr</text>
</g>
<!-- T24573 -->
<g id="node8" class="node">
<title>T24573</title>
<polygon fill="none" stroke="#0058ad" points="251.5,-405.5 251.5,-434.5 488.5,-434.5 488.5,-405.5 251.5,-405.5"/>
<text text-anchor="middle" x="290" y="-416.3" font-family="Times,serif" font-size="14.00" fill="#0058ad">r 935 11</text>
<polyline fill="none" stroke="#0058ad" points="328.5,-405.5 328.5,-434.5 "/>
<text text-anchor="middle" x="370" y="-416.3" font-family="Times,serif" font-size="14.00" fill="#0058ad">w 934 10</text>
<polyline fill="none" stroke="#0058ad" points="411.5,-405.5 411.5,-434.5 "/>
<text text-anchor="middle" x="450" y="-416.3" font-family="Times,serif" font-size="14.00" fill="#0058ad">r 935 11</text>
</g>
<!-- T24567&#45;&gt;T24573 -->
<g id="edge6" class="edge">
<title>T24567:f0&#45;&gt;T24573:f0</title>
<path fill="none" stroke="#c000a5" d="M290,-486C290,-467.23 290,-460.12 290,-445.35"/>
<polygon fill="#c000a5" stroke="#c000a5" points="293.5,-445 290,-435 286.5,-445 293.5,-445"/>
<text text-anchor="middle" x="299.5" y="-456.8" font-family="Times,serif" font-size="14.00" fill="#c000a5">wr</text>
</g>
<!-- T24519 -->
<g id="node6" class="node">
<title>T24519</title>
<polygon fill="none" stroke="#0058ad" points="136.5,-81.5 136.5,-110.5 441.5,-110.5 441.5,-81.5 136.5,-81.5"/>
<text text-anchor="middle" x="175" y="-92.3" font-family="Times,serif" font-size="14.00" fill="#0058ad">r 932 12</text>
<polyline fill="none" stroke="#0058ad" points="213.5,-81.5 213.5,-110.5 "/>
<text text-anchor="middle" x="250.5" y="-92.3" font-family="Times,serif" font-size="14.00" fill="#0058ad">w 934 2</text>
<polyline fill="none" stroke="#0058ad" points="287.5,-81.5 287.5,-110.5 "/>
<text text-anchor="middle" x="326" y="-92.3" font-family="Times,serif" font-size="14.00" fill="#0058ad">r 932 12</text>
<polyline fill="none" stroke="#0058ad" points="364.5,-81.5 364.5,-110.5 "/>
<text text-anchor="middle" x="403" y="-92.3" font-family="Times,serif" font-size="14.00" fill="#0058ad">r 932 12</text>
</g>
<!-- T24515&#45;&gt;T24519 -->
<g id="edge8" class="edge">
<title>T24515:f2&#45;&gt;T24519:f0</title>
<path fill="none" stroke="#c000a5" d="M249,-162C249,-125.96 188.75,-145.96 176.98,-120.86"/>
<polygon fill="#c000a5" stroke="#c000a5" points="180.4,-120.12 175,-111 173.54,-121.49 180.4,-120.12"/>
<text text-anchor="middle" x="248.5" y="-132.8" font-family="Times,serif" font-size="14.00" fill="#c000a5">wr</text>
</g>
<!-- T24519&#45;&gt;T24525 -->
<g id="edge9" class="edge">
<title>T24519:f1&#45;&gt;T24525:f1</title>
<path fill="none" stroke="#c000a5" d="M250,-81C250,-46.4 236.19,-20.31 205.18,-15.72"/>
<polygon fill="#c000a5" stroke="#c000a5" points="205.22,-12.21 195,-15 204.73,-19.2 205.22,-12.21"/>
<text text-anchor="middle" x="258.5" y="-51.8" font-family="Times,serif" font-size="14.00" fill="#c000a5">wr</text>
</g>
<!-- T24594 -->
<g id="node7" class="node">
<title>T24594</title>
<polygon fill="none" stroke="#0058ad" points="63.5,-243.5 63.5,-272.5 344.5,-272.5 344.5,-243.5 63.5,-243.5"/>
<text text-anchor="middle" x="102" y="-254.3" font-family="Times,serif" font-size="14.00" fill="#0058ad">r 933 nil</text>
<polyline fill="none" stroke="#0058ad" points="140.5,-243.5 140.5,-272.5 "/>
<text text-anchor="middle" x="174.5" y="-254.3" font-family="Times,serif" font-size="14.00" fill="#0058ad">r 922 7</text>
<polyline fill="none" stroke="#0058ad" points="208.5,-243.5 208.5,-272.5 "/>
<text text-anchor="middle" x="242.5" y="-254.3" font-family="Times,serif" font-size="14.00" fill="#0058ad">r 936 2</text>
<polyline fill="none" stroke="#0058ad" points="276.5,-243.5 276.5,-272.5 "/>
<text text-anchor="middle" x="310.5" y="-254.3" font-family="Times,serif" font-size="14.00" fill="#0058ad">r 936 2</text>
</g>
<!-- T24594&#45;&gt;T24532 -->
<g id="edge11" class="edge">
<title>T24594:f0&#45;&gt;T24532:f1</title>
<path fill="none" stroke="#5b00c0" d="M102,-273C102,-301.9 104,-309.1 104,-338 104,-502 104,-502 104,-502 104,-527.17 104.76,-535.89 104.95,-556.81"/>
<polygon fill="#5b00c0" stroke="#5b00c0" points="101.46,-557.02 105,-567 108.46,-556.98 101.46,-557.02"/>
<text text-anchor="middle" x="113.5" y="-416.3" font-family="Times,serif" font-size="14.00" fill="#5b00c0">rw</text>
</g>
<!-- T24594&#45;&gt;T24515 -->
<g id="edge10" class="edge">
<title>T24594:f0&#45;&gt;T24515:f0</title>
<path fill="none" stroke="#5b00c0" d="M102,-243C102,-224.23 102,-217.12 102,-202.35"/>
<polygon fill="#5b00c0" stroke="#5b00c0" points="105.5,-202 102,-192 98.5,-202 105.5,-202"/>
<text text-anchor="middle" x="111.5" y="-213.8" font-family="Times,serif" font-size="14.00" fill="#5b00c0">rw</text>
</g>
<!-- T24573&#45;&gt;T24577 -->
<g id="edge12" class="edge">
<title>T24573:f0&#45;&gt;T24577:f2</title>
<path fill="none" stroke="#5b00c0" d="M290,-435C290,-450.31 408.54,-473.97 418,-486 460.76,-540.37 442.98,-572.08 441.15,-637.63"/>
<polygon fill="#5b00c0" stroke="#5b00c0" points="437.64,-637.95 441,-648 444.64,-638.05 437.64,-637.95"/>
<text text-anchor="middle" x="454.5" y="-537.8" font-family="Times,serif" font-size="14.00" fill="#5b00c0">rw</text>
</g>
<!-- T24582 -->
<g id="node9" class="node">
<title>T24582</title>
<polygon fill="none" stroke="#0058ad" points="190.5,-324.5 190.5,-353.5 415.5,-353.5 415.5,-324.5 190.5,-324.5"/>
<text text-anchor="middle" x="227.5" y="-335.3" font-family="Times,serif" font-size="14.00" fill="#0058ad">w 936 2</text>
<polyline fill="none" stroke="#0058ad" points="264.5,-324.5 264.5,-353.5 "/>
<text text-anchor="middle" x="301.5" y="-335.3" font-family="Times,serif" font-size="14.00" fill="#0058ad">w 931 4</text>
<polyline fill="none" stroke="#0058ad" points="338.5,-324.5 338.5,-353.5 "/>
<text text-anchor="middle" x="377" y="-335.3" font-family="Times,serif" font-size="14.00" fill="#0058ad">r 934 10</text>
</g>
<!-- T24573&#45;&gt;T24582 -->
<g id="edge13" class="edge">
<title>T24573:f1&#45;&gt;T24582:f2</title>
<path fill="none" stroke="#c000a5" d="M370,-405C370,-385.87 374.89,-379.07 376.5,-363.99"/>
<polygon fill="#c000a5" stroke="#c000a5" points="379.99,-364.16 377,-354 373,-363.81 379.99,-364.16"/>
<text text-anchor="middle" x="384.5" y="-375.8" font-family="Times,serif" font-size="14.00" fill="#c000a5">wr</text>
</g>
<!-- T24582&#45;&gt;T24594 -->
<g id="edge14" class="edge">
<title>T24582:f0&#45;&gt;T24594:f2</title>
<path fill="none" stroke="#c000a5" d="M227,-324C227,-304.14 238.18,-298.45 241.85,-283.23"/>
<polygon fill="#c000a5" stroke="#c000a5" points="245.36,-283.33 243,-273 238.4,-282.55 245.36,-283.33"/>
<text text-anchor="middle" x="248.5" y="-294.8" font-family="Times,serif" font-size="14.00" fill="#c000a5">wr</text>
</g>
</g>
</svg>
