<?xml version="1.0" encoding="UTF-8" standalone="no"?>
<!DOCTYPE svg PUBLIC "-//W3C//DTD SVG 1.1//EN"
 "http://www.w3.org/Graphics/SVG/1.1/DTD/svg11.dtd">
<!-- Generated by graphviz version 2.43.0 (0)
 -->
<!-- Title: a_graph Pages: 1 -->
<svg width="348pt" height="119pt"
 viewBox="0.00 0.00 347.50 119.00" xmlns="http://www.w3.org/2000/svg" xmlns:xlink="http://www.w3.org/1999/xlink">
<g id="graph0" class="graph" transform="scale(1 1) rotate(0) translate(4 115)">
<title>a_graph</title>
<polygon fill="white" stroke="transparent" points="-4,4 -4,-115 343.5,-115 343.5,4 -4,4"/>
<!-- T18244 -->
<g id="node1" class="node">
<title>T18244</title>
<polygon fill="none" stroke="#0058ad" points="34.5,-81.5 34.5,-110.5 339.5,-110.5 339.5,-81.5 34.5,-81.5"/>
<text text-anchor="middle" x="73" y="-92.3" font-family="Times,serif" font-size="14.00" fill="#0058ad">r 699 nil</text>
<polyline fill="none" stroke="#0058ad" points="111.5,-81.5 111.5,-110.5 "/>
<text text-anchor="middle" x="150" y="-92.3" font-family="Times,serif" font-size="14.00" fill="#0058ad">r 699 nil</text>
<polyline fill="none" stroke="#0058ad" points="188.5,-81.5 188.5,-110.5 "/>
<text text-anchor="middle" x="227" y="-92.3" font-family="Times,serif" font-size="14.00" fill="#0058ad">r 696 16</text>
<polyline fill="none" stroke="#0058ad" points="265.5,-81.5 265.5,-110.5 "/>
<text text-anchor="middle" x="302.5" y="-92.3" font-family="Times,serif" font-size="14.00" fill="#0058ad">w 699 1</text>
</g>
<!-- T18249 -->
<g id="node2" class="node">
<title>T18249</title>
<polygon fill="none" stroke="#0058ad" points="0,-0.5 0,-29.5 302,-29.5 302,-0.5 0,-0.5"/>
<text text-anchor="middle" x="37" y="-11.3" font-family="Times,serif" font-size="14.00" fill="#0058ad">w 698 3</text>
<polyline fill="none" stroke="#0058ad" points="74,-0.5 74,-29.5 "/>
<text text-anchor="middle" x="112.5" y="-11.3" font-family="Times,serif" font-size="14.00" fill="#0058ad">r 699 nil</text>
<polyline fill="none" stroke="#0058ad" points="151,-0.5 151,-29.5 "/>
<text text-anchor="middle" x="189.5" y="-11.3" font-family="Times,serif" font-size="14.00" fill="#0058ad">r 700 nil</text>
<polyline fill="none" stroke="#0058ad" points="228,-0.5 228,-29.5 "/>
<text text-anchor="middle" x="265" y="-11.3" font-family="Times,serif" font-size="14.00" fill="#0058ad">w 699 2</text>
</g>
<!-- T18244&#45;&gt;T18249 -->
<g id="edge1" class="edge">
<title>T18244:f0&#45;&gt;T18249:f3</title>
<path fill="none" stroke="#5b00c0" d="M73,-81C73,-71.39 218.69,-48.2 256.25,-35.08"/>
<polygon fill="#5b00c0" stroke="#5b00c0" points="258.11,-38.05 265,-30 254.6,-32 258.11,-38.05"/>
<text text-anchor="middle" x="211.5" y="-51.8" font-family="Times,serif" font-size="14.00" fill="#5b00c0">rw</text>
</g>
<!-- T18249&#45;&gt;T18244 -->
<g id="edge2" class="edge">
<title>T18249:f1&#45;&gt;T18244:f3</title>
<path fill="none" stroke="#5b00c0" d="M112,-30C112,-55.43 200.56,-40.99 225,-48 257.37,-57.28 294.24,-46.24 301.66,-70.76"/>
<polygon fill="#5b00c0" stroke="#5b00c0" points="298.23,-71.54 303,-81 305.17,-70.63 298.23,-71.54"/>
<text text-anchor="middle" x="306.5" y="-51.8" font-family="Times,serif" font-size="14.00" fill="#5b00c0">rw</text>
</g>
</g>
</svg>
