<?xml version="1.0" encoding="UTF-8" standalone="no"?>
<!DOCTYPE svg PUBLIC "-//W3C//DTD SVG 1.1//EN"
 "http://www.w3.org/Graphics/SVG/1.1/DTD/svg11.dtd">
<!-- Generated by graphviz version 2.43.0 (0)
 -->
<!-- Title: a_graph Pages: 1 -->
<svg width="358pt" height="119pt"
 viewBox="0.00 0.00 358.00 119.00" xmlns="http://www.w3.org/2000/svg" xmlns:xlink="http://www.w3.org/1999/xlink">
<g id="graph0" class="graph" transform="scale(1 1) rotate(0) translate(4 115)">
<title>a_graph</title>
<polygon fill="white" stroke="transparent" points="-4,4 -4,-115 354,-115 354,4 -4,4"/>
<!-- T656 -->
<g id="node1" class="node">
<title>T656</title>
<polygon fill="none" stroke="#0058ad" points="93,-81.5 93,-110.5 350,-110.5 350,-81.5 93,-81.5"/>
<text text-anchor="middle" x="127" y="-92.3" font-family="Times,serif" font-size="14.00" fill="#0058ad">r 30 nil</text>
<polyline fill="none" stroke="#0058ad" points="161,-81.5 161,-110.5 "/>
<text text-anchor="middle" x="193.5" y="-92.3" font-family="Times,serif" font-size="14.00" fill="#0058ad">w 30 3</text>
<polyline fill="none" stroke="#0058ad" points="226,-81.5 226,-110.5 "/>
<text text-anchor="middle" x="258.5" y="-92.3" font-family="Times,serif" font-size="14.00" fill="#0058ad">w 30 4</text>
<polyline fill="none" stroke="#0058ad" points="291,-81.5 291,-110.5 "/>
<text text-anchor="middle" x="320.5" y="-92.3" font-family="Times,serif" font-size="14.00" fill="#0058ad">r 28 4</text>
</g>
<!-- T643 -->
<g id="node2" class="node">
<title>T643</title>
<polygon fill="none" stroke="#0058ad" points="0,-0.5 0,-29.5 281,-29.5 281,-0.5 0,-0.5"/>
<text text-anchor="middle" x="37" y="-11.3" font-family="Times,serif" font-size="14.00" fill="#0058ad">w 27 15</text>
<polyline fill="none" stroke="#0058ad" points="74,-0.5 74,-29.5 "/>
<text text-anchor="middle" x="111" y="-11.3" font-family="Times,serif" font-size="14.00" fill="#0058ad">w 27 16</text>
<polyline fill="none" stroke="#0058ad" points="148,-0.5 148,-29.5 "/>
<text text-anchor="middle" x="182" y="-11.3" font-family="Times,serif" font-size="14.00" fill="#0058ad">r 30 nil</text>
<polyline fill="none" stroke="#0058ad" points="216,-0.5 216,-29.5 "/>
<text text-anchor="middle" x="248.5" y="-11.3" font-family="Times,serif" font-size="14.00" fill="#0058ad">w 30 1</text>
</g>
<!-- T656&#45;&gt;T643 -->
<g id="edge1" class="edge">
<title>T656:f0&#45;&gt;T643:f3</title>
<path fill="none" stroke="#5b00c0" d="M126.5,-81C126.5,-47.01 164.02,-60.82 195.5,-48 214.4,-40.3 237.96,-49.86 245.81,-39.81"/>
<polygon fill="#5b00c0" stroke="#5b00c0" points="249.23,-40.57 248.5,-30 242.48,-38.72 249.23,-40.57"/>
<text text-anchor="middle" x="205" y="-51.8" font-family="Times,serif" font-size="14.00" fill="#5b00c0">rw</text>
</g>
<!-- T643&#45;&gt;T656 -->
<g id="edge2" class="edge">
<title>T643:f2&#45;&gt;T656:f2</title>
<path fill="none" stroke="#5b00c0" d="M182.5,-30C182.5,-46.32 200.83,-39.09 214.5,-48 231.62,-59.16 250.86,-57.64 256.72,-71.12"/>
<polygon fill="#5b00c0" stroke="#5b00c0" points="253.28,-71.78 258.5,-81 260.17,-70.54 253.28,-71.78"/>
<text text-anchor="middle" x="258" y="-51.8" font-family="Times,serif" font-size="14.00" fill="#5b00c0">rw</text>
</g>
</g>
</svg>
