<?xml version="1.0" encoding="UTF-8" standalone="no"?>
<!DOCTYPE svg PUBLIC "-//W3C//DTD SVG 1.1//EN"
 "http://www.w3.org/Graphics/SVG/1.1/DTD/svg11.dtd">
<!-- Generated by graphviz version 2.43.0 (0)
 -->
<!-- Title: a_graph Pages: 1 -->
<svg width="335pt" height="119pt"
 viewBox="0.00 0.00 334.50 119.00" xmlns="http://www.w3.org/2000/svg" xmlns:xlink="http://www.w3.org/1999/xlink">
<g id="graph0" class="graph" transform="scale(1 1) rotate(0) translate(4 115)">
<title>a_graph</title>
<polygon fill="white" stroke="transparent" points="-4,4 -4,-115 330.5,-115 330.5,4 -4,4"/>
<!-- T7923 -->
<g id="node1" class="node">
<title>T7923</title>
<polygon fill="none" stroke="#0058ad" points="30.5,-81.5 30.5,-110.5 326.5,-110.5 326.5,-81.5 30.5,-81.5"/>
<text text-anchor="middle" x="69" y="-92.3" font-family="Times,serif" font-size="14.00" fill="#0058ad">r 303 nil</text>
<polyline fill="none" stroke="#0058ad" points="107.5,-81.5 107.5,-110.5 "/>
<text text-anchor="middle" x="146" y="-92.3" font-family="Times,serif" font-size="14.00" fill="#0058ad">r 303 nil</text>
<polyline fill="none" stroke="#0058ad" points="184.5,-81.5 184.5,-110.5 "/>
<text text-anchor="middle" x="221.5" y="-92.3" font-family="Times,serif" font-size="14.00" fill="#0058ad">w 303 1</text>
<polyline fill="none" stroke="#0058ad" points="258.5,-81.5 258.5,-110.5 "/>
<text text-anchor="middle" x="292.5" y="-92.3" font-family="Times,serif" font-size="14.00" fill="#0058ad">r 303 1</text>
</g>
<!-- T7925 -->
<g id="node2" class="node">
<title>T7925</title>
<polygon fill="none" stroke="#0058ad" points="0,-0.5 0,-29.5 287,-29.5 287,-0.5 0,-0.5"/>
<text text-anchor="middle" x="34" y="-11.3" font-family="Times,serif" font-size="14.00" fill="#0058ad">r 299 2</text>
<polyline fill="none" stroke="#0058ad" points="68,-0.5 68,-29.5 "/>
<text text-anchor="middle" x="106.5" y="-11.3" font-family="Times,serif" font-size="14.00" fill="#0058ad">r 303 nil</text>
<polyline fill="none" stroke="#0058ad" points="145,-0.5 145,-29.5 "/>
<text text-anchor="middle" x="182" y="-11.3" font-family="Times,serif" font-size="14.00" fill="#0058ad">w 303 2</text>
<polyline fill="none" stroke="#0058ad" points="219,-0.5 219,-29.5 "/>
<text text-anchor="middle" x="253" y="-11.3" font-family="Times,serif" font-size="14.00" fill="#0058ad">r 303 2</text>
</g>
<!-- T7923&#45;&gt;T7925 -->
<g id="edge1" class="edge">
<title>T7923:f0&#45;&gt;T7925:f2</title>
<path fill="none" stroke="#5b00c0" d="M68.5,-81C68.5,-69.29 149.66,-50.91 175.02,-37.12"/>
<polygon fill="#5b00c0" stroke="#5b00c0" points="177.67,-39.43 182.5,-30 172.84,-34.36 177.67,-39.43"/>
<text text-anchor="middle" x="156" y="-51.8" font-family="Times,serif" font-size="14.00" fill="#5b00c0">rw</text>
</g>
<!-- T7925&#45;&gt;T7923 -->
<g id="edge2" class="edge">
<title>T7925:f1&#45;&gt;T7923:f2</title>
<path fill="none" stroke="#5b00c0" d="M106.5,-30C106.5,-59.12 142.93,-36.08 169.5,-48 190.77,-57.54 213.52,-54.91 219.81,-70.83"/>
<polygon fill="#5b00c0" stroke="#5b00c0" points="216.41,-71.71 221.5,-81 223.31,-70.56 216.41,-71.71"/>
<text text-anchor="middle" x="222" y="-51.8" font-family="Times,serif" font-size="14.00" fill="#5b00c0">rw</text>
</g>
</g>
</svg>
