<?xml version="1.0" encoding="UTF-8" standalone="no"?>
<!DOCTYPE svg PUBLIC "-//W3C//DTD SVG 1.1//EN"
 "http://www.w3.org/Graphics/SVG/1.1/DTD/svg11.dtd">
<!-- Generated by graphviz version 2.43.0 (0)
 -->
<!-- Title: a_graph Pages: 1 -->
<svg width="380pt" height="119pt"
 viewBox="0.00 0.00 380.00 119.00" xmlns="http://www.w3.org/2000/svg" xmlns:xlink="http://www.w3.org/1999/xlink">
<g id="graph0" class="graph" transform="scale(1 1) rotate(0) translate(4 115)">
<title>a_graph</title>
<polygon fill="white" stroke="transparent" points="-4,4 -4,-115 376,-115 376,4 -4,4"/>
<!-- T30557 -->
<g id="node1" class="node">
<title>T30557</title>
<polygon fill="none" stroke="#0058ad" points="0,-81.5 0,-110.5 338,-110.5 338,-81.5 0,-81.5"/>
<text text-anchor="middle" x="41.5" y="-92.3" font-family="Times,serif" font-size="14.00" fill="#0058ad">w 1166 7</text>
<polyline fill="none" stroke="#0058ad" points="83,-81.5 83,-110.5 "/>
<text text-anchor="middle" x="126" y="-92.3" font-family="Times,serif" font-size="14.00" fill="#0058ad">r 1167 nil</text>
<polyline fill="none" stroke="#0058ad" points="169,-81.5 169,-110.5 "/>
<text text-anchor="middle" x="210.5" y="-92.3" font-family="Times,serif" font-size="14.00" fill="#0058ad">w 1167 3</text>
<polyline fill="none" stroke="#0058ad" points="252,-81.5 252,-110.5 "/>
<text text-anchor="middle" x="295" y="-92.3" font-family="Times,serif" font-size="14.00" fill="#0058ad">r 1151 13</text>
</g>
<!-- T30551 -->
<g id="node2" class="node">
<title>T30551</title>
<polygon fill="none" stroke="#0058ad" points="40,-0.5 40,-29.5 372,-29.5 372,-0.5 40,-0.5"/>
<text text-anchor="middle" x="83" y="-11.3" font-family="Times,serif" font-size="14.00" fill="#0058ad">r 1167 nil</text>
<polyline fill="none" stroke="#0058ad" points="126,-0.5 126,-29.5 "/>
<text text-anchor="middle" x="169" y="-11.3" font-family="Times,serif" font-size="14.00" fill="#0058ad">r 1167 nil</text>
<polyline fill="none" stroke="#0058ad" points="212,-0.5 212,-29.5 "/>
<text text-anchor="middle" x="253.5" y="-11.3" font-family="Times,serif" font-size="14.00" fill="#0058ad">w 1167 1</text>
<polyline fill="none" stroke="#0058ad" points="295,-0.5 295,-29.5 "/>
<text text-anchor="middle" x="333.5" y="-11.3" font-family="Times,serif" font-size="14.00" fill="#0058ad">r 1167 1</text>
</g>
<!-- T30557&#45;&gt;T30551 -->
<g id="edge1" class="edge">
<title>T30557:f1&#45;&gt;T30551:f2</title>
<path fill="none" stroke="#5b00c0" d="M126,-81C126,-60.26 140.66,-57.69 159,-48 174.73,-39.68 229.56,-47.53 247.94,-38.27"/>
<polygon fill="#5b00c0" stroke="#5b00c0" points="250.91,-40.14 254,-30 245.27,-36 250.91,-40.14"/>
<text text-anchor="middle" x="168.5" y="-51.8" font-family="Times,serif" font-size="14.00" fill="#5b00c0">rw</text>
</g>
<!-- T30551&#45;&gt;T30557 -->
<g id="edge2" class="edge">
<title>T30551:f0&#45;&gt;T30557:f2</title>
<path fill="none" stroke="#5b00c0" d="M83,-30C83,-51.49 159,-37.96 178,-48 192.9,-55.88 205.37,-59.05 209.53,-71.08"/>
<polygon fill="#5b00c0" stroke="#5b00c0" points="206.07,-71.62 211,-81 212.99,-70.59 206.07,-71.62"/>
<text text-anchor="middle" x="214.5" y="-51.8" font-family="Times,serif" font-size="14.00" fill="#5b00c0">rw</text>
</g>
</g>
</svg>
