<?xml version="1.0" encoding="UTF-8" standalone="no"?>
<!DOCTYPE svg PUBLIC "-//W3C//DTD SVG 1.1//EN"
 "http://www.w3.org/Graphics/SVG/1.1/DTD/svg11.dtd">
<!-- Generated by graphviz version 2.43.0 (0)
 -->
<!-- Title: a_graph Pages: 1 -->
<svg width="396pt" height="281pt"
 viewBox="0.00 0.00 396.24 281.00" xmlns="http://www.w3.org/2000/svg" xmlns:xlink="http://www.w3.org/1999/xlink">
<g id="graph0" class="graph" transform="scale(1 1) rotate(0) translate(4 277)">
<title>a_graph</title>
<polygon fill="white" stroke="transparent" points="-4,4 -4,-277 392.24,-277 392.24,4 -4,4"/>
<!-- T21619 -->
<g id="node1" class="node">
<title>T21619</title>
<polygon fill="none" stroke="#0058ad" points="75.24,-243.5 75.24,-272.5 220.24,-272.5 220.24,-243.5 75.24,-243.5"/>
<text text-anchor="middle" x="109.24" y="-254.3" font-family="Times,serif" font-size="14.00" fill="#0058ad">r 821 5</text>
<polyline fill="none" stroke="#0058ad" points="143.24,-243.5 143.24,-272.5 "/>
<text text-anchor="middle" x="181.74" y="-254.3" font-family="Times,serif" font-size="14.00" fill="#0058ad">r 822 nil</text>
</g>
<!-- T21618 -->
<g id="node4" class="node">
<title>T21618</title>
<polygon fill="none" stroke="#0058ad" points="64.24,-162.5 64.24,-191.5 369.24,-191.5 369.24,-162.5 64.24,-162.5"/>
<text text-anchor="middle" x="102.74" y="-173.3" font-family="Times,serif" font-size="14.00" fill="#0058ad">r 822 nil</text>
<polyline fill="none" stroke="#0058ad" points="141.24,-162.5 141.24,-191.5 "/>
<text text-anchor="middle" x="179.74" y="-173.3" font-family="Times,serif" font-size="14.00" fill="#0058ad">r 821 nil</text>
<polyline fill="none" stroke="#0058ad" points="218.24,-162.5 218.24,-191.5 "/>
<text text-anchor="middle" x="255.24" y="-173.3" font-family="Times,serif" font-size="14.00" fill="#0058ad">w 822 1</text>
<polyline fill="none" stroke="#0058ad" points="292.24,-162.5 292.24,-191.5 "/>
<text text-anchor="middle" x="330.74" y="-173.3" font-family="Times,serif" font-size="14.00" fill="#0058ad">r 821 nil</text>
</g>
<!-- T21619&#45;&gt;T21618 -->
<g id="edge1" class="edge">
<title>T21619:f1&#45;&gt;T21618:f2</title>
<path fill="none" stroke="#5b00c0" d="M221.74,-258C251.39,-258 255.21,-231.36 255.68,-202.02"/>
<polygon fill="#5b00c0" stroke="#5b00c0" points="259.18,-202.02 255.74,-192 252.18,-201.98 259.18,-202.02"/>
<text text-anchor="middle" x="264.24" y="-213.8" font-family="Times,serif" font-size="14.00" fill="#5b00c0">rw</text>
</g>
<!-- T21638 -->
<g id="node2" class="node">
<title>T21638</title>
<polygon fill="none" stroke="#0058ad" points="38.24,-81.5 38.24,-110.5 189.24,-110.5 189.24,-81.5 38.24,-81.5"/>
<text text-anchor="middle" x="76.74" y="-92.3" font-family="Times,serif" font-size="14.00" fill="#0058ad">r 821 nil</text>
<polyline fill="none" stroke="#0058ad" points="115.24,-81.5 115.24,-110.5 "/>
<text text-anchor="middle" x="152.24" y="-92.3" font-family="Times,serif" font-size="14.00" fill="#0058ad">w 821 7</text>
</g>
<!-- T21616 -->
<g id="node3" class="node">
<title>T21616</title>
<polygon fill="none" stroke="#0058ad" points="95.24,-0.5 95.24,-29.5 388.24,-29.5 388.24,-0.5 95.24,-0.5"/>
<text text-anchor="middle" x="133.74" y="-11.3" font-family="Times,serif" font-size="14.00" fill="#0058ad">r 822 nil</text>
<polyline fill="none" stroke="#0058ad" points="172.24,-0.5 172.24,-29.5 "/>
<text text-anchor="middle" x="209.24" y="-11.3" font-family="Times,serif" font-size="14.00" fill="#0058ad">w 821 5</text>
<polyline fill="none" stroke="#0058ad" points="246.24,-0.5 246.24,-29.5 "/>
<text text-anchor="middle" x="280.24" y="-11.3" font-family="Times,serif" font-size="14.00" fill="#0058ad">r 821 5</text>
<polyline fill="none" stroke="#0058ad" points="314.24,-0.5 314.24,-29.5 "/>
<text text-anchor="middle" x="351.24" y="-11.3" font-family="Times,serif" font-size="14.00" fill="#0058ad">w 820 5</text>
</g>
<!-- T21638&#45;&gt;T21616 -->
<g id="edge2" class="edge">
<title>T21638:f0&#45;&gt;T21616:f1</title>
<path fill="none" stroke="#5b00c0" d="M76.74,-81C76.74,-53.12 180.53,-59.31 204.04,-39.14"/>
<polygon fill="#5b00c0" stroke="#5b00c0" points="207.28,-40.49 208.74,-30 201.06,-37.3 207.28,-40.49"/>
<text text-anchor="middle" x="193.24" y="-51.8" font-family="Times,serif" font-size="14.00" fill="#5b00c0">rw</text>
</g>
<!-- T21616&#45;&gt;T21619 -->
<g id="edge3" class="edge">
<title>T21616:f1&#45;&gt;T21619:f0</title>
<path fill="none" stroke="#c000a5" d="M208.74,-30C208.74,-46.28 153.42,-43.64 137.74,-48 88.97,-61.56 58.9,-40.35 28.74,-81 -17.55,-143.38 -8.36,-248.48 63.66,-257.39"/>
<polygon fill="#c000a5" stroke="#c000a5" points="63.55,-260.89 73.74,-258 63.97,-253.91 63.55,-260.89"/>
<text text-anchor="middle" x="15.24" y="-132.8" font-family="Times,serif" font-size="14.00" fill="#c000a5">wr</text>
</g>
<!-- T21616&#45;&gt;T21618 -->
<g id="edge4" class="edge">
<title>T21616:f0&#45;&gt;T21618:f2</title>
<path fill="none" stroke="#5b00c0" d="M133.74,-30C133.74,-52.71 152.47,-52.77 172.74,-63 203.73,-78.64 226.06,-54.73 248.74,-81 270.05,-105.68 258.6,-122.35 256.16,-151.92"/>
<polygon fill="#5b00c0" stroke="#5b00c0" points="252.66,-151.86 255.74,-162 259.66,-152.16 252.66,-151.86"/>
<text text-anchor="middle" x="270.24" y="-92.3" font-family="Times,serif" font-size="14.00" fill="#5b00c0">rw</text>
</g>
<!-- T21618&#45;&gt;T21638 -->
<g id="edge6" class="edge">
<title>T21618:f1&#45;&gt;T21638:f1</title>
<path fill="none" stroke="#5b00c0" d="M179.74,-162C179.74,-140.16 160.16,-137.13 154.35,-120.88"/>
<polygon fill="#5b00c0" stroke="#5b00c0" points="157.8,-120.31 152.74,-111 150.89,-121.43 157.8,-120.31"/>
<text text-anchor="middle" x="183.24" y="-132.8" font-family="Times,serif" font-size="14.00" fill="#5b00c0">rw</text>
</g>
<!-- T21618&#45;&gt;T21616 -->
<g id="edge5" class="edge">
<title>T21618:f1&#45;&gt;T21616:f1</title>
<path fill="none" stroke="#5b00c0" d="M179.74,-162C179.74,-151 192.06,-153.96 196.74,-144 216.91,-101.14 209.95,-83.48 208.87,-40.26"/>
<polygon fill="#5b00c0" stroke="#5b00c0" points="212.37,-39.96 208.74,-30 205.37,-40.04 212.37,-39.96"/>
<text text-anchor="middle" x="220.24" y="-92.3" font-family="Times,serif" font-size="14.00" fill="#5b00c0">rw</text>
</g>
</g>
</svg>
