<?xml version="1.0" encoding="UTF-8" standalone="no"?>
<!DOCTYPE svg PUBLIC "-//W3C//DTD SVG 1.1//EN"
 "http://www.w3.org/Graphics/SVG/1.1/DTD/svg11.dtd">
<!-- Generated by graphviz version 2.43.0 (0)
 -->
<!-- Title: a_graph Pages: 1 -->
<svg width="236pt" height="119pt"
 viewBox="0.00 0.00 236.00 119.00" xmlns="http://www.w3.org/2000/svg" xmlns:xlink="http://www.w3.org/1999/xlink">
<g id="graph0" class="graph" transform="scale(1 1) rotate(0) translate(4 115)">
<title>a_graph</title>
<polygon fill="white" stroke="transparent" points="-4,4 -4,-115 232,-115 232,4 -4,4"/>
<!-- T19133 -->
<g id="node1" class="node">
<title>T19133</title>
<polygon fill="none" stroke="#0058ad" points="37.5,-81.5 37.5,-110.5 188.5,-110.5 188.5,-81.5 37.5,-81.5"/>
<text text-anchor="middle" x="76" y="-92.3" font-family="Times,serif" font-size="14.00" fill="#0058ad">r 731 nil</text>
<polyline fill="none" stroke="#0058ad" points="114.5,-81.5 114.5,-110.5 "/>
<text text-anchor="middle" x="151.5" y="-92.3" font-family="Times,serif" font-size="14.00" fill="#0058ad">w 731 1</text>
</g>
<!-- T19135 -->
<g id="node2" class="node">
<title>T19135</title>
<polygon fill="none" stroke="#0058ad" points="0,-0.5 0,-29.5 228,-29.5 228,-0.5 0,-0.5"/>
<text text-anchor="middle" x="38.5" y="-11.3" font-family="Times,serif" font-size="14.00" fill="#0058ad">r 731 nil</text>
<polyline fill="none" stroke="#0058ad" points="77,-0.5 77,-29.5 "/>
<text text-anchor="middle" x="115.5" y="-11.3" font-family="Times,serif" font-size="14.00" fill="#0058ad">r 731 nil</text>
<polyline fill="none" stroke="#0058ad" points="154,-0.5 154,-29.5 "/>
<text text-anchor="middle" x="191" y="-11.3" font-family="Times,serif" font-size="14.00" fill="#0058ad">w 731 2</text>
</g>
<!-- T19133&#45;&gt;T19135 -->
<g id="edge1" class="edge">
<title>T19133:f0&#45;&gt;T19135:f2</title>
<path fill="none" stroke="#5b00c0" d="M76,-81C76,-62.05 86.78,-57.8 103,-48 133.57,-29.54 179.86,-61.65 189.29,-40.05"/>
<polygon fill="#5b00c0" stroke="#5b00c0" points="192.77,-40.45 191,-30 185.87,-39.27 192.77,-40.45"/>
<text text-anchor="middle" x="112.5" y="-51.8" font-family="Times,serif" font-size="14.00" fill="#5b00c0">rw</text>
</g>
<!-- T19135&#45;&gt;T19133 -->
<g id="edge2" class="edge">
<title>T19135:f0&#45;&gt;T19133:f1</title>
<path fill="none" stroke="#5b00c0" d="M38,-30C38,-68.18 88.9,-28.96 122,-48 135.69,-55.88 146.61,-59.57 150.48,-70.77"/>
<polygon fill="#5b00c0" stroke="#5b00c0" points="147.07,-71.62 152,-81 154,-70.59 147.07,-71.62"/>
<text text-anchor="middle" x="155.5" y="-51.8" font-family="Times,serif" font-size="14.00" fill="#5b00c0">rw</text>
</g>
</g>
</svg>
