<?xml version="1.0" encoding="UTF-8" standalone="no"?>
<!DOCTYPE svg PUBLIC "-//W3C//DTD SVG 1.1//EN"
 "http://www.w3.org/Graphics/SVG/1.1/DTD/svg11.dtd">
<!-- Generated by graphviz version 2.43.0 (0)
 -->
<!-- Title: a_graph Pages: 1 -->
<svg width="371pt" height="200pt"
 viewBox="0.00 0.00 371.00 200.00" xmlns="http://www.w3.org/2000/svg" xmlns:xlink="http://www.w3.org/1999/xlink">
<g id="graph0" class="graph" transform="scale(1 1) rotate(0) translate(4 196)">
<title>a_graph</title>
<polygon fill="white" stroke="transparent" points="-4,4 -4,-196 367,-196 367,4 -4,4"/>
<!-- T31878 -->
<g id="node1" class="node">
<title>T31878</title>
<polygon fill="none" stroke="#0058ad" points="111,-162.5 111,-191.5 363,-191.5 363,-162.5 111,-162.5"/>
<text text-anchor="middle" x="152.5" y="-173.3" font-family="Times,serif" font-size="14.00" fill="#0058ad">w 1217 1</text>
<polyline fill="none" stroke="#0058ad" points="194,-162.5 194,-191.5 "/>
<text text-anchor="middle" x="237" y="-173.3" font-family="Times,serif" font-size="14.00" fill="#0058ad">r 1215 nil</text>
<polyline fill="none" stroke="#0058ad" points="280,-162.5 280,-191.5 "/>
<text text-anchor="middle" x="321.5" y="-173.3" font-family="Times,serif" font-size="14.00" fill="#0058ad">w 1216 4</text>
</g>
<!-- T31863 -->
<g id="node3" class="node">
<title>T31863</title>
<polygon fill="none" stroke="#0058ad" points="108,-81.5 108,-110.5 360,-110.5 360,-81.5 108,-81.5"/>
<text text-anchor="middle" x="151" y="-92.3" font-family="Times,serif" font-size="14.00" fill="#0058ad">r 1214 14</text>
<polyline fill="none" stroke="#0058ad" points="194,-81.5 194,-110.5 "/>
<text text-anchor="middle" x="235.5" y="-92.3" font-family="Times,serif" font-size="14.00" fill="#0058ad">w 1216 1</text>
<polyline fill="none" stroke="#0058ad" points="277,-81.5 277,-110.5 "/>
<text text-anchor="middle" x="318.5" y="-92.3" font-family="Times,serif" font-size="14.00" fill="#0058ad">w 1215 1</text>
</g>
<!-- T31878&#45;&gt;T31863 -->
<g id="edge1" class="edge">
<title>T31878:f1&#45;&gt;T31863:f2</title>
<path fill="none" stroke="#5b00c0" d="M237,-162C237,-123.11 304.35,-148.07 316.97,-121.15"/>
<polygon fill="#5b00c0" stroke="#5b00c0" points="320.47,-121.49 319,-111 313.61,-120.12 320.47,-121.49"/>
<text text-anchor="middle" x="317.5" y="-132.8" font-family="Times,serif" font-size="14.00" fill="#5b00c0">rw</text>
</g>
<!-- T31875 -->
<g id="node2" class="node">
<title>T31875</title>
<polygon fill="none" stroke="#0058ad" points="0,-0.5 0,-29.5 246,-29.5 246,-0.5 0,-0.5"/>
<text text-anchor="middle" x="38.5" y="-11.3" font-family="Times,serif" font-size="14.00" fill="#0058ad">r 1216 1</text>
<polyline fill="none" stroke="#0058ad" points="77,-0.5 77,-29.5 "/>
<text text-anchor="middle" x="118.5" y="-11.3" font-family="Times,serif" font-size="14.00" fill="#0058ad">w 1218 1</text>
<polyline fill="none" stroke="#0058ad" points="160,-0.5 160,-29.5 "/>
<text text-anchor="middle" x="203" y="-11.3" font-family="Times,serif" font-size="14.00" fill="#0058ad">r 1217 nil</text>
</g>
<!-- T31875&#45;&gt;T31878 -->
<g id="edge2" class="edge">
<title>T31875:f2&#45;&gt;T31878:f0</title>
<path fill="none" stroke="#5b00c0" d="M203,-30C203,-55.87 107.03,-30.48 88,-48 47.8,-85.01 51.22,-166.33 100,-176.05"/>
<polygon fill="#5b00c0" stroke="#5b00c0" points="99.71,-179.53 110,-177 100.38,-172.57 99.71,-179.53"/>
<text text-anchor="middle" x="76.5" y="-92.3" font-family="Times,serif" font-size="14.00" fill="#5b00c0">rw</text>
</g>
<!-- T31863&#45;&gt;T31875 -->
<g id="edge3" class="edge">
<title>T31863:f1&#45;&gt;T31875:f0</title>
<path fill="none" stroke="#c000a5" d="M236,-81C236,-60.86 80.32,-54.2 45.05,-37.11"/>
<polygon fill="#c000a5" stroke="#c000a5" points="47.53,-34.64 38,-30 42.55,-39.57 47.53,-34.64"/>
<text text-anchor="middle" x="192.5" y="-51.8" font-family="Times,serif" font-size="14.00" fill="#c000a5">wr</text>
</g>
</g>
</svg>
