<?xml version="1.0" encoding="UTF-8" standalone="no"?>
<!DOCTYPE svg PUBLIC "-//W3C//DTD SVG 1.1//EN"
 "http://www.w3.org/Graphics/SVG/1.1/DTD/svg11.dtd">
<!-- Generated by graphviz version 2.43.0 (0)
 -->
<!-- Title: a_graph Pages: 1 -->
<svg width="297pt" height="119pt"
 viewBox="0.00 0.00 297.00 119.00" xmlns="http://www.w3.org/2000/svg" xmlns:xlink="http://www.w3.org/1999/xlink">
<g id="graph0" class="graph" transform="scale(1 1) rotate(0) translate(4 115)">
<title>a_graph</title>
<polygon fill="white" stroke="transparent" points="-4,4 -4,-115 293,-115 293,4 -4,4"/>
<!-- T1773 -->
<g id="node1" class="node">
<title>T1773</title>
<polygon fill="none" stroke="#0058ad" points="32,-81.5 32,-110.5 289,-110.5 289,-81.5 32,-81.5"/>
<text text-anchor="middle" x="66" y="-92.3" font-family="Times,serif" font-size="14.00" fill="#0058ad">r 73 nil</text>
<polyline fill="none" stroke="#0058ad" points="100,-81.5 100,-110.5 "/>
<text text-anchor="middle" x="132.5" y="-92.3" font-family="Times,serif" font-size="14.00" fill="#0058ad">w 73 1</text>
<polyline fill="none" stroke="#0058ad" points="165,-81.5 165,-110.5 "/>
<text text-anchor="middle" x="197.5" y="-92.3" font-family="Times,serif" font-size="14.00" fill="#0058ad">w 73 2</text>
<polyline fill="none" stroke="#0058ad" points="230,-81.5 230,-110.5 "/>
<text text-anchor="middle" x="259.5" y="-92.3" font-family="Times,serif" font-size="14.00" fill="#0058ad">r 73 2</text>
</g>
<!-- T1792 -->
<g id="node2" class="node">
<title>T1792</title>
<polygon fill="none" stroke="#0058ad" points="0,-0.5 0,-29.5 263,-29.5 263,-0.5 0,-0.5"/>
<text text-anchor="middle" x="34" y="-11.3" font-family="Times,serif" font-size="14.00" fill="#0058ad">r 73 nil</text>
<polyline fill="none" stroke="#0058ad" points="68,-0.5 68,-29.5 "/>
<text text-anchor="middle" x="100.5" y="-11.3" font-family="Times,serif" font-size="14.00" fill="#0058ad">w 73 8</text>
<polyline fill="none" stroke="#0058ad" points="133,-0.5 133,-29.5 "/>
<text text-anchor="middle" x="165.5" y="-11.3" font-family="Times,serif" font-size="14.00" fill="#0058ad">w 72 7</text>
<polyline fill="none" stroke="#0058ad" points="198,-0.5 198,-29.5 "/>
<text text-anchor="middle" x="230.5" y="-11.3" font-family="Times,serif" font-size="14.00" fill="#0058ad">w 73 9</text>
</g>
<!-- T1773&#45;&gt;T1792 -->
<g id="edge1" class="edge">
<title>T1773:f0&#45;&gt;T1792:f3</title>
<path fill="none" stroke="#5b00c0" d="M65.5,-81C65.5,-47.01 102.19,-58.56 134.5,-48 151.67,-42.39 206.73,-48.68 224.74,-38.45"/>
<polygon fill="#5b00c0" stroke="#5b00c0" points="227.76,-40.23 230.5,-30 221.97,-36.29 227.76,-40.23"/>
<text text-anchor="middle" x="144" y="-51.8" font-family="Times,serif" font-size="14.00" fill="#5b00c0">rw</text>
</g>
<!-- T1792&#45;&gt;T1773 -->
<g id="edge2" class="edge">
<title>T1792:f0&#45;&gt;T1773:f2</title>
<path fill="none" stroke="#5b00c0" d="M33.5,-30C33.5,-56.96 128.62,-37.59 153.5,-48 172.35,-55.89 190.43,-56.57 195.86,-70.86"/>
<polygon fill="#5b00c0" stroke="#5b00c0" points="192.45,-71.69 197.5,-81 199.36,-70.57 192.45,-71.69"/>
<text text-anchor="middle" x="200" y="-51.8" font-family="Times,serif" font-size="14.00" fill="#5b00c0">rw</text>
</g>
</g>
</svg>
