<?xml version="1.0" encoding="UTF-8" standalone="no"?>
<!DOCTYPE svg PUBLIC "-//W3C//DTD SVG 1.1//EN"
 "http://www.w3.org/Graphics/SVG/1.1/DTD/svg11.dtd">
<!-- Generated by graphviz version 2.43.0 (0)
 -->
<!-- Title: a_graph Pages: 1 -->
<svg width="356pt" height="119pt"
 viewBox="0.00 0.00 356.00 119.00" xmlns="http://www.w3.org/2000/svg" xmlns:xlink="http://www.w3.org/1999/xlink">
<g id="graph0" class="graph" transform="scale(1 1) rotate(0) translate(4 115)">
<title>a_graph</title>
<polygon fill="white" stroke="transparent" points="-4,4 -4,-115 352,-115 352,4 -4,4"/>
<!-- T23437 -->
<g id="node1" class="node">
<title>T23437</title>
<polygon fill="none" stroke="#0058ad" points="0,-81.5 0,-110.5 302,-110.5 302,-81.5 0,-81.5"/>
<text text-anchor="middle" x="41.5" y="-92.3" font-family="Times,serif" font-size="14.00" fill="#0058ad">w 890 16</text>
<polyline fill="none" stroke="#0058ad" points="83,-81.5 83,-110.5 "/>
<text text-anchor="middle" x="121.5" y="-92.3" font-family="Times,serif" font-size="14.00" fill="#0058ad">r 892 nil</text>
<polyline fill="none" stroke="#0058ad" points="160,-81.5 160,-110.5 "/>
<text text-anchor="middle" x="197" y="-92.3" font-family="Times,serif" font-size="14.00" fill="#0058ad">w 892 1</text>
<polyline fill="none" stroke="#0058ad" points="234,-81.5 234,-110.5 "/>
<text text-anchor="middle" x="268" y="-92.3" font-family="Times,serif" font-size="14.00" fill="#0058ad">r 892 1</text>
</g>
<!-- T23446 -->
<g id="node2" class="node">
<title>T23446</title>
<polygon fill="none" stroke="#0058ad" points="46,-0.5 46,-29.5 348,-29.5 348,-0.5 46,-0.5"/>
<text text-anchor="middle" x="84.5" y="-11.3" font-family="Times,serif" font-size="14.00" fill="#0058ad">r 892 nil</text>
<polyline fill="none" stroke="#0058ad" points="123,-0.5 123,-29.5 "/>
<text text-anchor="middle" x="160" y="-11.3" font-family="Times,serif" font-size="14.00" fill="#0058ad">w 893 1</text>
<polyline fill="none" stroke="#0058ad" points="197,-0.5 197,-29.5 "/>
<text text-anchor="middle" x="234" y="-11.3" font-family="Times,serif" font-size="14.00" fill="#0058ad">w 892 2</text>
<polyline fill="none" stroke="#0058ad" points="271,-0.5 271,-29.5 "/>
<text text-anchor="middle" x="309.5" y="-11.3" font-family="Times,serif" font-size="14.00" fill="#0058ad">r 889 nil</text>
</g>
<!-- T23437&#45;&gt;T23446 -->
<g id="edge1" class="edge">
<title>T23437:f1&#45;&gt;T23446:f2</title>
<path fill="none" stroke="#5b00c0" d="M121,-81C121,-62.05 131.8,-57.84 148,-48 177.73,-29.95 222.72,-60.75 232.21,-40.11"/>
<polygon fill="#5b00c0" stroke="#5b00c0" points="235.7,-40.46 234,-30 228.81,-39.23 235.7,-40.46"/>
<text text-anchor="middle" x="157.5" y="-51.8" font-family="Times,serif" font-size="14.00" fill="#5b00c0">rw</text>
</g>
<!-- T23446&#45;&gt;T23437 -->
<g id="edge2" class="edge">
<title>T23446:f0&#45;&gt;T23437:f2</title>
<path fill="none" stroke="#5b00c0" d="M84,-30C84,-67.75 134.3,-29.14 167,-48 180.68,-55.89 191.61,-59.58 195.48,-70.78"/>
<polygon fill="#5b00c0" stroke="#5b00c0" points="192.07,-71.62 197,-81 198.99,-70.59 192.07,-71.62"/>
<text text-anchor="middle" x="200.5" y="-51.8" font-family="Times,serif" font-size="14.00" fill="#5b00c0">rw</text>
</g>
</g>
</svg>
