<?xml version="1.0" encoding="UTF-8" standalone="no"?>
<!DOCTYPE svg PUBLIC "-//W3C//DTD SVG 1.1//EN"
 "http://www.w3.org/Graphics/SVG/1.1/DTD/svg11.dtd">
<!-- Generated by graphviz version 2.43.0 (0)
 -->
<!-- Title: a_graph Pages: 1 -->
<svg width="263pt" height="119pt"
 viewBox="0.00 0.00 263.00 119.00" xmlns="http://www.w3.org/2000/svg" xmlns:xlink="http://www.w3.org/1999/xlink">
<g id="graph0" class="graph" transform="scale(1 1) rotate(0) translate(4 115)">
<title>a_graph</title>
<polygon fill="white" stroke="transparent" points="-4,4 -4,-115 259,-115 259,4 -4,4"/>
<!-- T30254 -->
<g id="node1" class="node">
<title>T30254</title>
<polygon fill="none" stroke="#0058ad" points="0,-81.5 0,-110.5 255,-110.5 255,-81.5 0,-81.5"/>
<text text-anchor="middle" x="43" y="-92.3" font-family="Times,serif" font-size="14.00" fill="#0058ad">r 1156 nil</text>
<polyline fill="none" stroke="#0058ad" points="86,-81.5 86,-110.5 "/>
<text text-anchor="middle" x="129" y="-92.3" font-family="Times,serif" font-size="14.00" fill="#0058ad">r 1156 nil</text>
<polyline fill="none" stroke="#0058ad" points="172,-81.5 172,-110.5 "/>
<text text-anchor="middle" x="213.5" y="-92.3" font-family="Times,serif" font-size="14.00" fill="#0058ad">w 1156 2</text>
</g>
<!-- T30249 -->
<g id="node2" class="node">
<title>T30249</title>
<polygon fill="none" stroke="#0058ad" points="4.5,-0.5 4.5,-29.5 250.5,-29.5 250.5,-0.5 4.5,-0.5"/>
<text text-anchor="middle" x="47.5" y="-11.3" font-family="Times,serif" font-size="14.00" fill="#0058ad">r 1156 nil</text>
<polyline fill="none" stroke="#0058ad" points="90.5,-0.5 90.5,-29.5 "/>
<text text-anchor="middle" x="129" y="-11.3" font-family="Times,serif" font-size="14.00" fill="#0058ad">r 1155 4</text>
<polyline fill="none" stroke="#0058ad" points="167.5,-0.5 167.5,-29.5 "/>
<text text-anchor="middle" x="209" y="-11.3" font-family="Times,serif" font-size="14.00" fill="#0058ad">w 1156 1</text>
</g>
<!-- T30254&#45;&gt;T30249 -->
<g id="edge1" class="edge">
<title>T30254:f0&#45;&gt;T30249:f2</title>
<path fill="none" stroke="#5b00c0" d="M42.5,-81C42.5,-35.04 96.46,-61.14 140.5,-48 166.84,-40.14 199.38,-56.21 207.57,-39.95"/>
<polygon fill="#5b00c0" stroke="#5b00c0" points="211.03,-40.48 209.5,-30 204.16,-39.15 211.03,-40.48"/>
<text text-anchor="middle" x="150" y="-51.8" font-family="Times,serif" font-size="14.00" fill="#5b00c0">rw</text>
</g>
<!-- T30249&#45;&gt;T30254 -->
<g id="edge2" class="edge">
<title>T30249:f0&#45;&gt;T30254:f2</title>
<path fill="none" stroke="#5b00c0" d="M47.5,-30C47.5,-55.21 135.85,-39.26 159.5,-48 182.17,-56.38 205.76,-53.96 211.94,-70.96"/>
<polygon fill="#5b00c0" stroke="#5b00c0" points="208.51,-71.66 213.5,-81 215.42,-70.58 208.51,-71.66"/>
<text text-anchor="middle" x="216" y="-51.8" font-family="Times,serif" font-size="14.00" fill="#5b00c0">rw</text>
</g>
</g>
</svg>
