<?xml version="1.0" encoding="UTF-8" standalone="no"?>
<!DOCTYPE svg PUBLIC "-//W3C//DTD SVG 1.1//EN"
 "http://www.w3.org/Graphics/SVG/1.1/DTD/svg11.dtd">
<!-- Generated by graphviz version 2.43.0 (0)
 -->
<!-- Title: a_graph Pages: 1 -->
<svg width="450pt" height="362pt"
 viewBox="0.00 0.00 450.25 362.00" xmlns="http://www.w3.org/2000/svg" xmlns:xlink="http://www.w3.org/1999/xlink">
<g id="graph0" class="graph" transform="scale(1 1) rotate(0) translate(4 358)">
<title>a_graph</title>
<polygon fill="white" stroke="transparent" points="-4,4 -4,-358 446.25,-358 446.25,4 -4,4"/>
<!-- T1958 -->
<g id="node1" class="node">
<title>T1958</title>
<polygon fill="none" stroke="#0058ad" points="241.25,-324.5 241.25,-353.5 442.25,-353.5 442.25,-324.5 241.25,-324.5"/>
<text text-anchor="middle" x="275.25" y="-335.3" font-family="Times,serif" font-size="14.00" fill="#0058ad">r 79 nil</text>
<polyline fill="none" stroke="#0058ad" points="309.25,-324.5 309.25,-353.5 "/>
<text text-anchor="middle" x="343.25" y="-335.3" font-family="Times,serif" font-size="14.00" fill="#0058ad">r 77 13</text>
<polyline fill="none" stroke="#0058ad" points="377.25,-324.5 377.25,-353.5 "/>
<text text-anchor="middle" x="409.75" y="-335.3" font-family="Times,serif" font-size="14.00" fill="#0058ad">w 79 1</text>
</g>
<!-- T1961 -->
<g id="node2" class="node">
<title>T1961</title>
<polygon fill="none" stroke="#0058ad" points="178.25,-243.5 178.25,-272.5 311.25,-272.5 311.25,-243.5 178.25,-243.5"/>
<text text-anchor="middle" x="212.25" y="-254.3" font-family="Times,serif" font-size="14.00" fill="#0058ad">r 78 nil</text>
<polyline fill="none" stroke="#0058ad" points="246.25,-243.5 246.25,-272.5 "/>
<text text-anchor="middle" x="278.75" y="-254.3" font-family="Times,serif" font-size="14.00" fill="#0058ad">w 79 2</text>
</g>
<!-- T1958&#45;&gt;T1961 -->
<g id="edge1" class="edge">
<title>T1958:f0&#45;&gt;T1961:f1</title>
<path fill="none" stroke="#5b00c0" d="M274.75,-324C274.75,-305.17 277.49,-298.14 278.43,-283.37"/>
<polygon fill="#5b00c0" stroke="#5b00c0" points="281.94,-283.1 278.75,-273 274.95,-282.89 281.94,-283.1"/>
<text text-anchor="middle" x="286.25" y="-294.8" font-family="Times,serif" font-size="14.00" fill="#5b00c0">rw</text>
</g>
<!-- T1934 -->
<g id="node4" class="node">
<title>T1934</title>
<polygon fill="none" stroke="#0058ad" points="31.25,-162.5 31.25,-191.5 312.25,-191.5 312.25,-162.5 31.25,-162.5"/>
<text text-anchor="middle" x="68.25" y="-173.3" font-family="Times,serif" font-size="14.00" fill="#0058ad">w 76 13</text>
<polyline fill="none" stroke="#0058ad" points="105.25,-162.5 105.25,-191.5 "/>
<text text-anchor="middle" x="142.25" y="-173.3" font-family="Times,serif" font-size="14.00" fill="#0058ad">w 65 16</text>
<polyline fill="none" stroke="#0058ad" points="179.25,-162.5 179.25,-191.5 "/>
<text text-anchor="middle" x="211.75" y="-173.3" font-family="Times,serif" font-size="14.00" fill="#0058ad">w 78 1</text>
<polyline fill="none" stroke="#0058ad" points="244.25,-162.5 244.25,-191.5 "/>
<text text-anchor="middle" x="278.25" y="-173.3" font-family="Times,serif" font-size="14.00" fill="#0058ad">r 77 10</text>
</g>
<!-- T1961&#45;&gt;T1934 -->
<g id="edge2" class="edge">
<title>T1961:f0&#45;&gt;T1934:f2</title>
<path fill="none" stroke="#5b00c0" d="M211.75,-243C211.75,-224.23 211.75,-217.12 211.75,-202.35"/>
<polygon fill="#5b00c0" stroke="#5b00c0" points="215.25,-202 211.75,-192 208.25,-202 215.25,-202"/>
<text text-anchor="middle" x="221.25" y="-213.8" font-family="Times,serif" font-size="14.00" fill="#5b00c0">rw</text>
</g>
<!-- T1953 -->
<g id="node3" class="node">
<title>T1953</title>
<polygon fill="none" stroke="#0058ad" points="121.75,-0.5 121.75,-29.5 375.75,-29.5 375.75,-0.5 121.75,-0.5"/>
<text text-anchor="middle" x="151.25" y="-11.3" font-family="Times,serif" font-size="14.00" fill="#0058ad">r 78 1</text>
<polyline fill="none" stroke="#0058ad" points="180.75,-0.5 180.75,-29.5 "/>
<text text-anchor="middle" x="214.75" y="-11.3" font-family="Times,serif" font-size="14.00" fill="#0058ad">r 79 nil</text>
<polyline fill="none" stroke="#0058ad" points="248.75,-0.5 248.75,-29.5 "/>
<text text-anchor="middle" x="282.75" y="-11.3" font-family="Times,serif" font-size="14.00" fill="#0058ad">r 77 12</text>
<polyline fill="none" stroke="#0058ad" points="316.75,-0.5 316.75,-29.5 "/>
<text text-anchor="middle" x="346.25" y="-11.3" font-family="Times,serif" font-size="14.00" fill="#0058ad">r 78 1</text>
</g>
<!-- T1953&#45;&gt;T1958 -->
<g id="edge4" class="edge">
<title>T1953:f1&#45;&gt;T1958:f2</title>
<path fill="none" stroke="#5b00c0" d="M214.75,-30C214.75,-55.21 302.98,-39.6 326.75,-48 366.35,-62 408.75,-52.99 408.75,-95 408.75,-259 408.75,-259 408.75,-259 408.75,-284.17 409.51,-292.89 409.7,-313.81"/>
<polygon fill="#5b00c0" stroke="#5b00c0" points="406.2,-314.02 409.75,-324 413.2,-313.98 406.2,-314.02"/>
<text text-anchor="middle" x="418.25" y="-173.3" font-family="Times,serif" font-size="14.00" fill="#5b00c0">rw</text>
</g>
<!-- T1953&#45;&gt;T1961 -->
<g id="edge3" class="edge">
<title>T1953:f1&#45;&gt;T1961:f1</title>
<path fill="none" stroke="#5b00c0" d="M214.75,-30C214.75,-49.31 282.41,-39.51 299.75,-48 320.14,-57.99 329.19,-60.4 338.75,-81 370.7,-149.89 390.43,-248.64 322.87,-257.38"/>
<polygon fill="#5b00c0" stroke="#5b00c0" points="322.51,-253.89 312.75,-258 322.94,-260.88 322.51,-253.89"/>
<text text-anchor="middle" x="370.25" y="-132.8" font-family="Times,serif" font-size="14.00" fill="#5b00c0">rw</text>
</g>
<!-- T1934&#45;&gt;T1953 -->
<g id="edge5" class="edge">
<title>T1934:f2&#45;&gt;T1953:f0</title>
<path fill="none" stroke="#c000a5" d="M211.75,-162C211.75,-145.72 156.5,-148.11 140.75,-144 85.98,-129.71 52.2,-155.91 17.75,-111 -34.18,-43.3 39.59,-17.44 110.35,-15.17"/>
<polygon fill="#c000a5" stroke="#c000a5" points="110.81,-18.66 120.75,-15 110.69,-11.66 110.81,-18.66"/>
<text text-anchor="middle" x="27.25" y="-92.3" font-family="Times,serif" font-size="14.00" fill="#c000a5">wr</text>
</g>
<!-- T1943 -->
<g id="node5" class="node">
<title>T1943</title>
<polygon fill="none" stroke="#0058ad" points="45.75,-81.5 45.75,-110.5 329.75,-110.5 329.75,-81.5 45.75,-81.5"/>
<text text-anchor="middle" x="82.75" y="-92.3" font-family="Times,serif" font-size="14.00" fill="#0058ad">w 77 12</text>
<polyline fill="none" stroke="#0058ad" points="119.75,-81.5 119.75,-110.5 "/>
<text text-anchor="middle" x="153.75" y="-92.3" font-family="Times,serif" font-size="14.00" fill="#0058ad">r 65 16</text>
<polyline fill="none" stroke="#0058ad" points="187.75,-81.5 187.75,-110.5 "/>
<text text-anchor="middle" x="224.75" y="-92.3" font-family="Times,serif" font-size="14.00" fill="#0058ad">w 64 10</text>
<polyline fill="none" stroke="#0058ad" points="261.75,-81.5 261.75,-110.5 "/>
<text text-anchor="middle" x="295.75" y="-92.3" font-family="Times,serif" font-size="14.00" fill="#0058ad">r 77 12</text>
</g>
<!-- T1934&#45;&gt;T1943 -->
<g id="edge6" class="edge">
<title>T1934:f1&#45;&gt;T1943:f1</title>
<path fill="none" stroke="#c000a5" d="M141.75,-162C141.75,-142.53 150.13,-136.25 152.89,-121.1"/>
<polygon fill="#c000a5" stroke="#c000a5" points="156.38,-121.26 153.75,-111 149.41,-120.67 156.38,-121.26"/>
<text text-anchor="middle" x="159.25" y="-132.8" font-family="Times,serif" font-size="14.00" fill="#c000a5">wr</text>
</g>
<!-- T1943&#45;&gt;T1953 -->
<g id="edge7" class="edge">
<title>T1943:f0&#45;&gt;T1953:f2</title>
<path fill="none" stroke="#c000a5" d="M82.75,-81C82.75,6.97 266.68,-111.24 281.77,-40.19"/>
<polygon fill="#c000a5" stroke="#c000a5" points="285.27,-40.29 282.75,-30 278.3,-39.62 285.27,-40.29"/>
<text text-anchor="middle" x="286.25" y="-51.8" font-family="Times,serif" font-size="14.00" fill="#c000a5">wr</text>
</g>
</g>
</svg>
